<?xml version="1.0" encoding="utf-8" standalone="no"?>
<!DOCTYPE svg PUBLIC "-//W3C//DTD SVG 1.1//EN"
  "http://www.w3.org/Graphics/SVG/1.1/DTD/svg11.dtd">
<svg xmlns:xlink="http://www.w3.org/1999/xlink" width="758.966023pt" height="426.554567pt" viewBox="0 0 758.966023 426.554567" xmlns="http://www.w3.org/2000/svg" version="1.1">
 <metadata>
  <rdf:RDF xmlns:dc="http://purl.org/dc/elements/1.1/" xmlns:cc="http://creativecommons.org/ns#" xmlns:rdf="http://www.w3.org/1999/02/22-rdf-syntax-ns#">
   <cc:Work>
    <dc:type rdf:resource="http://purl.org/dc/dcmitype/StillImage"/>
    <dc:date>2026-07-12T14:13:28.802809</dc:date>
    <dc:format>image/svg+xml</dc:format>
    <dc:creator>
     <cc:Agent>
      <dc:title>Matplotlib v3.10.9, https://matplotlib.org/</dc:title>
     </cc:Agent>
    </dc:creator>
   </cc:Work>
  </rdf:RDF>
 </metadata>
 <defs>
  <style type="text/css">*{stroke-linejoin: round; stroke-linecap: butt}</style>
 </defs>
 <g id="figure_1">
  <g id="patch_1">
   <path d="M 0 426.554567 
L 758.966023 426.554567 
L 758.966023 0 
L 0 0 
z
"/>
  </g>
  <g id="axes_1">
   <g id="patch_2">
    <path d="M 56.79875 375.334254 
L 743.126023 375.334254 
L 743.126023 42.097891 
L 56.79875 42.097891 
z
"/>
   </g>
   <g id="matplotlib.axis_1">
    <g id="xtick_1">
     <g id="line2d_1">
      <path d="M 176.160015 375.334254 
L 176.160015 42.097891 
" clip-path="url(#pa2669bf6d1)" style="fill: none; stroke: #2a2a2a; stroke-width: 0.6; stroke-linecap: square"/>
     </g>
     <g id="line2d_2">
      <defs>
       <path id="mfbf4e68f38" d="M 0 0 
L 0 3.5 
" style="stroke: #8a8a8a; stroke-width: 0.7"/>
      </defs>
      <g>
       <use xlink:href="#mfbf4e68f38" x="176.160015" y="375.334254" style="fill: #8a8a8a; stroke: #8a8a8a; stroke-width: 0.7"/>
      </g>
     </g>
     <g id="text_1">
      <!-- 10 -->
      <g style="fill: #8a8a8a" transform="translate(170.433765 389.172848) scale(0.09 -0.09)">
       <defs>
        <path id="DejaVuSerif-31" d="M 909 0 
L 909 331 
L 1722 331 
L 1722 4213 
L 781 3603 
L 781 4013 
L 1919 4750 
L 2350 4750 
L 2350 331 
L 3163 331 
L 3163 0 
L 909 0 
z
" transform="scale(0.015625)"/>
        <path id="DejaVuSerif-30" d="M 2034 219 
Q 2513 219 2750 744 
Q 2988 1269 2988 2328 
Q 2988 3391 2750 3916 
Q 2513 4441 2034 4441 
Q 1556 4441 1318 3916 
Q 1081 3391 1081 2328 
Q 1081 1269 1318 744 
Q 1556 219 2034 219 
z
M 2034 -91 
Q 1275 -91 848 546 
Q 422 1184 422 2328 
Q 422 3475 848 4112 
Q 1275 4750 2034 4750 
Q 2797 4750 3222 4112 
Q 3647 3475 3647 2328 
Q 3647 1184 3222 546 
Q 2797 -91 2034 -91 
z
" transform="scale(0.015625)"/>
       </defs>
       <use xlink:href="#DejaVuSerif-31"/>
       <use xlink:href="#DejaVuSerif-30" transform="translate(63.623047 0)"/>
      </g>
     </g>
    </g>
    <g id="xtick_2">
     <g id="line2d_3">
      <path d="M 325.361596 375.334254 
L 325.361596 42.097891 
" clip-path="url(#pa2669bf6d1)" style="fill: none; stroke: #2a2a2a; stroke-width: 0.6; stroke-linecap: square"/>
     </g>
     <g id="line2d_4">
      <g>
       <use xlink:href="#mfbf4e68f38" x="325.361596" y="375.334254" style="fill: #8a8a8a; stroke: #8a8a8a; stroke-width: 0.7"/>
      </g>
     </g>
     <g id="text_2">
      <!-- 20 -->
      <g style="fill: #8a8a8a" transform="translate(319.635346 389.172848) scale(0.09 -0.09)">
       <defs>
        <path id="DejaVuSerif-32" d="M 819 3553 
L 469 3553 
L 469 4384 
Q 803 4563 1142 4656 
Q 1481 4750 1806 4750 
Q 2534 4750 2956 4397 
Q 3378 4044 3378 3438 
Q 3378 2753 2422 1800 
Q 2347 1728 2309 1691 
L 1131 513 
L 3078 513 
L 3078 1088 
L 3444 1088 
L 3444 0 
L 434 0 
L 434 341 
L 1850 1753 
Q 2319 2222 2519 2614 
Q 2719 3006 2719 3438 
Q 2719 3909 2473 4175 
Q 2228 4441 1797 4441 
Q 1350 4441 1106 4219 
Q 863 3997 819 3553 
z
" transform="scale(0.015625)"/>
       </defs>
       <use xlink:href="#DejaVuSerif-32"/>
       <use xlink:href="#DejaVuSerif-30" transform="translate(63.623047 0)"/>
      </g>
     </g>
    </g>
    <g id="xtick_3">
     <g id="line2d_5">
      <path d="M 474.563177 375.334254 
L 474.563177 42.097891 
" clip-path="url(#pa2669bf6d1)" style="fill: none; stroke: #2a2a2a; stroke-width: 0.6; stroke-linecap: square"/>
     </g>
     <g id="line2d_6">
      <g>
       <use xlink:href="#mfbf4e68f38" x="474.563177" y="375.334254" style="fill: #8a8a8a; stroke: #8a8a8a; stroke-width: 0.7"/>
      </g>
     </g>
     <g id="text_3">
      <!-- 30 -->
      <g style="fill: #8a8a8a" transform="translate(468.836927 389.172848) scale(0.09 -0.09)">
       <defs>
        <path id="DejaVuSerif-33" d="M 622 4469 
Q 988 4606 1323 4678 
Q 1659 4750 1953 4750 
Q 2638 4750 3022 4454 
Q 3406 4159 3406 3634 
Q 3406 3213 3140 2930 
Q 2875 2647 2388 2547 
Q 2963 2466 3280 2130 
Q 3597 1794 3597 1259 
Q 3597 606 3158 257 
Q 2719 -91 1894 -91 
Q 1528 -91 1179 -12 
Q 831 66 488 225 
L 488 1131 
L 838 1131 
Q 869 681 1141 450 
Q 1413 219 1906 219 
Q 2384 219 2661 495 
Q 2938 772 2938 1253 
Q 2938 1803 2653 2086 
Q 2369 2369 1819 2369 
L 1522 2369 
L 1522 2688 
L 1678 2688 
Q 2225 2688 2498 2914 
Q 2772 3141 2772 3597 
Q 2772 4006 2547 4223 
Q 2322 4441 1900 4441 
Q 1478 4441 1245 4241 
Q 1013 4041 972 3647 
L 622 3647 
L 622 4469 
z
" transform="scale(0.015625)"/>
       </defs>
       <use xlink:href="#DejaVuSerif-33"/>
       <use xlink:href="#DejaVuSerif-30" transform="translate(63.623047 0)"/>
      </g>
     </g>
    </g>
    <g id="xtick_4">
     <g id="line2d_7">
      <path d="M 623.764758 375.334254 
L 623.764758 42.097891 
" clip-path="url(#pa2669bf6d1)" style="fill: none; stroke: #2a2a2a; stroke-width: 0.6; stroke-linecap: square"/>
     </g>
     <g id="line2d_8">
      <g>
       <use xlink:href="#mfbf4e68f38" x="623.764758" y="375.334254" style="fill: #8a8a8a; stroke: #8a8a8a; stroke-width: 0.7"/>
      </g>
     </g>
     <g id="text_4">
      <!-- 40 -->
      <g style="fill: #8a8a8a" transform="translate(618.038508 389.172848) scale(0.09 -0.09)">
       <defs>
        <path id="DejaVuSerif-34" d="M 2234 1581 
L 2234 4063 
L 641 1581 
L 2234 1581 
z
M 3609 0 
L 1484 0 
L 1484 331 
L 2234 331 
L 2234 1247 
L 197 1247 
L 197 1588 
L 2241 4750 
L 2859 4750 
L 2859 1581 
L 3750 1581 
L 3750 1247 
L 2859 1247 
L 2859 331 
L 3609 331 
L 3609 0 
z
" transform="scale(0.015625)"/>
       </defs>
       <use xlink:href="#DejaVuSerif-34"/>
       <use xlink:href="#DejaVuSerif-30" transform="translate(63.623047 0)"/>
      </g>
     </g>
    </g>
    <g id="text_5">
     <!-- query arity  $K$ -->
     <g style="fill: #8a8a8a" transform="translate(360.967386 408.184567) scale(0.11 -0.11)">
      <defs>
       <path id="DejaVuSerif-71" d="M 3359 2988 
L 3359 -997 
L 3909 -997 
L 3909 -1331 
L 2241 -1331 
L 2241 -997 
L 2784 -997 
L 2784 519 
Q 2616 206 2355 57 
Q 2094 -91 1709 -91 
Q 1097 -91 708 395 
Q 319 881 319 1663 
Q 319 2444 706 2928 
Q 1094 3413 1709 3413 
Q 2094 3413 2355 3264 
Q 2616 3116 2784 2803 
L 2784 3322 
L 3909 3322 
L 3909 2988 
L 3359 2988 
z
M 2784 1825 
Q 2784 2422 2554 2737 
Q 2325 3053 1888 3053 
Q 1444 3053 1217 2703 
Q 991 2353 991 1663 
Q 991 975 1217 622 
Q 1444 269 1888 269 
Q 2325 269 2554 583 
Q 2784 897 2784 1497 
L 2784 1825 
z
" transform="scale(0.015625)"/>
       <path id="DejaVuSerif-75" d="M 2266 3322 
L 3341 3322 
L 3341 331 
L 3884 331 
L 3884 0 
L 2766 0 
L 2766 588 
Q 2606 256 2353 82 
Q 2100 -91 1766 -91 
Q 1213 -91 952 223 
Q 691 538 691 1209 
L 691 2988 
L 172 2988 
L 172 3322 
L 1269 3322 
L 1269 1388 
Q 1269 781 1417 556 
Q 1566 331 1947 331 
Q 2347 331 2556 625 
Q 2766 919 2766 1478 
L 2766 2988 
L 2266 2988 
L 2266 3322 
z
" transform="scale(0.015625)"/>
       <path id="DejaVuSerif-65" d="M 3469 1600 
L 991 1600 
L 991 1575 
Q 991 903 1244 561 
Q 1497 219 1991 219 
Q 2369 219 2611 417 
Q 2853 616 2950 1006 
L 3413 1006 
Q 3275 459 2904 184 
Q 2534 -91 1931 -91 
Q 1203 -91 761 389 
Q 319 869 319 1663 
Q 319 2450 753 2931 
Q 1188 3413 1894 3413 
Q 2647 3413 3050 2948 
Q 3453 2484 3469 1600 
z
M 2791 1931 
Q 2772 2513 2545 2808 
Q 2319 3103 1894 3103 
Q 1497 3103 1269 2806 
Q 1041 2509 991 1931 
L 2791 1931 
z
" transform="scale(0.015625)"/>
       <path id="DejaVuSerif-72" d="M 3059 3328 
L 3059 2497 
L 2728 2497 
Q 2713 2744 2591 2866 
Q 2469 2988 2234 2988 
Q 1809 2988 1582 2694 
Q 1356 2400 1356 1850 
L 1356 331 
L 2022 331 
L 2022 0 
L 263 0 
L 263 331 
L 781 331 
L 781 2994 
L 231 2994 
L 231 3322 
L 1356 3322 
L 1356 2731 
Q 1525 3078 1790 3245 
Q 2056 3413 2438 3413 
Q 2578 3413 2733 3391 
Q 2888 3369 3059 3328 
z
" transform="scale(0.015625)"/>
       <path id="DejaVuSerif-79" d="M 1381 -609 
L 1600 -56 
L 359 2988 
L -19 2988 
L -19 3322 
L 1509 3322 
L 1509 2988 
L 978 2988 
L 1913 703 
L 2847 2988 
L 2350 2988 
L 2350 3322 
L 3597 3322 
L 3597 2988 
L 3225 2988 
L 1703 -750 
Q 1547 -1138 1356 -1280 
Q 1166 -1422 819 -1422 
Q 672 -1422 517 -1397 
Q 363 -1372 206 -1325 
L 206 -691 
L 500 -691 
Q 519 -903 608 -995 
Q 697 -1088 884 -1088 
Q 1056 -1088 1161 -992 
Q 1266 -897 1381 -609 
z
" transform="scale(0.015625)"/>
       <path id="DejaVuSerif-20" transform="scale(0.015625)"/>
       <path id="DejaVuSerif-61" d="M 2547 1044 
L 2547 1747 
L 1806 1747 
Q 1378 1747 1168 1562 
Q 959 1378 959 997 
Q 959 650 1171 447 
Q 1384 244 1747 244 
Q 2106 244 2326 466 
Q 2547 688 2547 1044 
z
M 3122 2075 
L 3122 331 
L 3634 331 
L 3634 0 
L 2547 0 
L 2547 359 
Q 2356 128 2106 18 
Q 1856 -91 1522 -91 
Q 969 -91 644 203 
Q 319 497 319 997 
Q 319 1513 691 1797 
Q 1063 2081 1741 2081 
L 2547 2081 
L 2547 2309 
Q 2547 2688 2317 2895 
Q 2088 3103 1672 3103 
Q 1328 3103 1125 2947 
Q 922 2791 872 2484 
L 575 2484 
L 575 3156 
Q 875 3284 1158 3348 
Q 1441 3413 1709 3413 
Q 2400 3413 2761 3070 
Q 3122 2728 3122 2075 
z
" transform="scale(0.015625)"/>
       <path id="DejaVuSerif-69" d="M 622 4353 
Q 622 4497 726 4603 
Q 831 4709 978 4709 
Q 1122 4709 1226 4603 
Q 1331 4497 1331 4353 
Q 1331 4206 1228 4103 
Q 1125 4000 978 4000 
Q 831 4000 726 4103 
Q 622 4206 622 4353 
z
M 1356 331 
L 1900 331 
L 1900 0 
L 231 0 
L 231 331 
L 781 331 
L 781 2988 
L 231 2988 
L 231 3322 
L 1356 3322 
L 1356 331 
z
" transform="scale(0.015625)"/>
       <path id="DejaVuSerif-74" d="M 691 2988 
L 184 2988 
L 184 3322 
L 691 3322 
L 691 4353 
L 1269 4353 
L 1269 3322 
L 2350 3322 
L 2350 2988 
L 1269 2988 
L 1269 878 
Q 1269 456 1350 337 
Q 1431 219 1650 219 
Q 1875 219 1978 351 
Q 2081 484 2088 781 
L 2522 781 
Q 2497 328 2275 118 
Q 2053 -91 1600 -91 
Q 1103 -91 897 129 
Q 691 350 691 878 
L 691 2988 
z
" transform="scale(0.015625)"/>
       <path id="Cmmi10-4b" d="M 300 0 
Q 238 0 238 84 
Q 241 100 250 139 
Q 259 178 276 201 
Q 294 225 319 225 
Q 709 225 863 269 
Q 947 297 984 441 
L 1863 3956 
Q 1875 4019 1875 4044 
Q 1875 4113 1797 4122 
Q 1678 4147 1338 4147 
Q 1275 4147 1275 4231 
Q 1297 4313 1309 4342 
Q 1322 4372 1381 4372 
L 3103 4372 
Q 3169 4372 3169 4288 
Q 3166 4272 3156 4234 
Q 3147 4197 3131 4172 
Q 3116 4147 3084 4147 
Q 2694 4147 2541 4103 
Q 2456 4072 2419 3928 
L 1900 1856 
L 4409 3794 
Q 4416 3806 4489 3879 
Q 4563 3953 4563 4025 
Q 4563 4147 4347 4147 
Q 4281 4147 4281 4231 
Q 4294 4281 4301 4309 
Q 4309 4338 4329 4355 
Q 4350 4372 4391 4372 
L 5631 4372 
Q 5666 4372 5681 4347 
Q 5697 4322 5697 4288 
Q 5694 4272 5683 4231 
Q 5672 4191 5655 4169 
Q 5638 4147 5606 4147 
Q 5138 4147 4581 3713 
Q 4578 3709 4572 3707 
Q 4566 3706 4559 3704 
Q 4553 3703 4550 3700 
L 3231 2675 
L 4191 428 
Q 4278 288 4378 256 
Q 4478 225 4684 225 
Q 4750 225 4750 141 
Q 4731 66 4712 33 
Q 4694 0 4641 0 
L 3156 0 
Q 3097 0 3097 84 
Q 3106 150 3118 187 
Q 3131 225 3181 225 
Q 3344 225 3458 258 
Q 3572 291 3572 409 
Q 3572 453 3566 475 
L 2772 2322 
L 1838 1600 
L 1544 416 
Q 1528 338 1528 325 
Q 1528 259 1606 250 
Q 1728 225 2069 225 
Q 2131 225 2131 141 
Q 2109 50 2096 25 
Q 2084 0 2022 0 
L 300 0 
z
" transform="scale(0.015625)"/>
      </defs>
      <use xlink:href="#DejaVuSerif-71" transform="translate(0 0.421875)"/>
      <use xlink:href="#DejaVuSerif-75" transform="translate(64.013672 0.421875)"/>
      <use xlink:href="#DejaVuSerif-65" transform="translate(128.417969 0.421875)"/>
      <use xlink:href="#DejaVuSerif-72" transform="translate(187.597656 0.421875)"/>
      <use xlink:href="#DejaVuSerif-79" transform="translate(235.400391 0.421875)"/>
      <use xlink:href="#DejaVuSerif-20" transform="translate(291.894531 0.421875)"/>
      <use xlink:href="#DejaVuSerif-61" transform="translate(323.681641 0.421875)"/>
      <use xlink:href="#DejaVuSerif-72" transform="translate(383.300781 0.421875)"/>
      <use xlink:href="#DejaVuSerif-69" transform="translate(431.103516 0.421875)"/>
      <use xlink:href="#DejaVuSerif-74" transform="translate(463.085938 0.421875)"/>
      <use xlink:href="#DejaVuSerif-79" transform="translate(503.271484 0.421875)"/>
      <use xlink:href="#DejaVuSerif-20" transform="translate(559.765625 0.421875)"/>
      <use xlink:href="#DejaVuSerif-20" transform="translate(591.552734 0.421875)"/>
      <use xlink:href="#Cmmi10-4b" transform="translate(623.339844 0.421875)"/>
     </g>
    </g>
   </g>
   <g id="matplotlib.axis_2">
    <g id="ytick_1">
     <g id="line2d_9">
      <path d="M 56.79875 369.488002 
L 743.126023 369.488002 
" clip-path="url(#pa2669bf6d1)" style="fill: none; stroke: #2a2a2a; stroke-width: 0.6; stroke-linecap: square"/>
     </g>
     <g id="line2d_10">
      <defs>
       <path id="m505c7a2296" d="M 0 0 
L -3.5 0 
" style="stroke: #8a8a8a; stroke-width: 0.7"/>
      </defs>
      <g>
       <use xlink:href="#m505c7a2296" x="56.79875" y="369.488002" style="fill: #8a8a8a; stroke: #8a8a8a; stroke-width: 0.7"/>
      </g>
     </g>
     <g id="text_6">
      <!-- 0.0 -->
      <g style="fill: #8a8a8a" transform="translate(35.485937 372.907299) scale(0.09 -0.09)">
       <defs>
        <path id="DejaVuSerif-2e" d="M 603 325 
Q 603 500 722 622 
Q 841 744 1019 744 
Q 1191 744 1312 622 
Q 1434 500 1434 325 
Q 1434 153 1312 31 
Q 1191 -91 1019 -91 
Q 841 -91 722 29 
Q 603 150 603 325 
z
" transform="scale(0.015625)"/>
       </defs>
       <use xlink:href="#DejaVuSerif-30"/>
       <use xlink:href="#DejaVuSerif-2e" transform="translate(63.623047 0)"/>
       <use xlink:href="#DejaVuSerif-30" transform="translate(95.410156 0)"/>
      </g>
     </g>
    </g>
    <g id="ytick_2">
     <g id="line2d_11">
      <path d="M 56.79875 311.025482 
L 743.126023 311.025482 
" clip-path="url(#pa2669bf6d1)" style="fill: none; stroke: #2a2a2a; stroke-width: 0.6; stroke-linecap: square"/>
     </g>
     <g id="line2d_12">
      <g>
       <use xlink:href="#m505c7a2296" x="56.79875" y="311.025482" style="fill: #8a8a8a; stroke: #8a8a8a; stroke-width: 0.7"/>
      </g>
     </g>
     <g id="text_7">
      <!-- 0.2 -->
      <g style="fill: #8a8a8a" transform="translate(35.485937 314.444779) scale(0.09 -0.09)">
       <use xlink:href="#DejaVuSerif-30"/>
       <use xlink:href="#DejaVuSerif-2e" transform="translate(63.623047 0)"/>
       <use xlink:href="#DejaVuSerif-32" transform="translate(95.410156 0)"/>
      </g>
     </g>
    </g>
    <g id="ytick_3">
     <g id="line2d_13">
      <path d="M 56.79875 252.562962 
L 743.126023 252.562962 
" clip-path="url(#pa2669bf6d1)" style="fill: none; stroke: #2a2a2a; stroke-width: 0.6; stroke-linecap: square"/>
     </g>
     <g id="line2d_14">
      <g>
       <use xlink:href="#m505c7a2296" x="56.79875" y="252.562962" style="fill: #8a8a8a; stroke: #8a8a8a; stroke-width: 0.7"/>
      </g>
     </g>
     <g id="text_8">
      <!-- 0.4 -->
      <g style="fill: #8a8a8a" transform="translate(35.485937 255.982259) scale(0.09 -0.09)">
       <use xlink:href="#DejaVuSerif-30"/>
       <use xlink:href="#DejaVuSerif-2e" transform="translate(63.623047 0)"/>
       <use xlink:href="#DejaVuSerif-34" transform="translate(95.410156 0)"/>
      </g>
     </g>
    </g>
    <g id="ytick_4">
     <g id="line2d_15">
      <path d="M 56.79875 194.100442 
L 743.126023 194.100442 
" clip-path="url(#pa2669bf6d1)" style="fill: none; stroke: #2a2a2a; stroke-width: 0.6; stroke-linecap: square"/>
     </g>
     <g id="line2d_16">
      <g>
       <use xlink:href="#m505c7a2296" x="56.79875" y="194.100442" style="fill: #8a8a8a; stroke: #8a8a8a; stroke-width: 0.7"/>
      </g>
     </g>
     <g id="text_9">
      <!-- 0.6 -->
      <g style="fill: #8a8a8a" transform="translate(35.485937 197.519739) scale(0.09 -0.09)">
       <defs>
        <path id="DejaVuSerif-36" d="M 2094 219 
Q 2534 219 2771 542 
Q 3009 866 3009 1472 
Q 3009 2078 2771 2401 
Q 2534 2725 2094 2725 
Q 1647 2725 1412 2412 
Q 1178 2100 1178 1509 
Q 1178 888 1415 553 
Q 1653 219 2094 219 
z
M 1075 2569 
Q 1288 2803 1556 2918 
Q 1825 3034 2163 3034 
Q 2859 3034 3264 2615 
Q 3669 2197 3669 1472 
Q 3669 763 3233 336 
Q 2797 -91 2069 -91 
Q 1278 -91 853 498 
Q 428 1088 428 2181 
Q 428 3406 931 4078 
Q 1434 4750 2350 4750 
Q 2597 4750 2869 4703 
Q 3141 4656 3425 4563 
L 3425 3794 
L 3072 3794 
Q 3034 4109 2831 4275 
Q 2628 4441 2284 4441 
Q 1678 4441 1381 3981 
Q 1084 3522 1075 2569 
z
" transform="scale(0.015625)"/>
       </defs>
       <use xlink:href="#DejaVuSerif-30"/>
       <use xlink:href="#DejaVuSerif-2e" transform="translate(63.623047 0)"/>
       <use xlink:href="#DejaVuSerif-36" transform="translate(95.410156 0)"/>
      </g>
     </g>
    </g>
    <g id="ytick_5">
     <g id="line2d_17">
      <path d="M 56.79875 135.637923 
L 743.126023 135.637923 
" clip-path="url(#pa2669bf6d1)" style="fill: none; stroke: #2a2a2a; stroke-width: 0.6; stroke-linecap: square"/>
     </g>
     <g id="line2d_18">
      <g>
       <use xlink:href="#m505c7a2296" x="56.79875" y="135.637923" style="fill: #8a8a8a; stroke: #8a8a8a; stroke-width: 0.7"/>
      </g>
     </g>
     <g id="text_10">
      <!-- 0.8 -->
      <g style="fill: #8a8a8a" transform="translate(35.485937 139.057219) scale(0.09 -0.09)">
       <defs>
        <path id="DejaVuSerif-38" d="M 2981 1275 
Q 2981 1775 2732 2051 
Q 2484 2328 2034 2328 
Q 1584 2328 1336 2051 
Q 1088 1775 1088 1275 
Q 1088 772 1336 495 
Q 1584 219 2034 219 
Q 2484 219 2732 495 
Q 2981 772 2981 1275 
z
M 2853 3541 
Q 2853 3966 2637 4203 
Q 2422 4441 2034 4441 
Q 1650 4441 1433 4203 
Q 1216 3966 1216 3541 
Q 1216 3113 1433 2875 
Q 1650 2638 2034 2638 
Q 2422 2638 2637 2875 
Q 2853 3113 2853 3541 
z
M 2516 2484 
Q 3047 2413 3344 2092 
Q 3641 1772 3641 1275 
Q 3641 619 3225 264 
Q 2809 -91 2034 -91 
Q 1263 -91 845 264 
Q 428 619 428 1275 
Q 428 1772 725 2092 
Q 1022 2413 1556 2484 
Q 1084 2569 832 2842 
Q 581 3116 581 3541 
Q 581 4103 968 4426 
Q 1356 4750 2034 4750 
Q 2713 4750 3100 4426 
Q 3488 4103 3488 3541 
Q 3488 3116 3236 2842 
Q 2984 2569 2516 2484 
z
" transform="scale(0.015625)"/>
       </defs>
       <use xlink:href="#DejaVuSerif-30"/>
       <use xlink:href="#DejaVuSerif-2e" transform="translate(63.623047 0)"/>
       <use xlink:href="#DejaVuSerif-38" transform="translate(95.410156 0)"/>
      </g>
     </g>
    </g>
    <g id="ytick_6">
     <g id="line2d_19">
      <path d="M 56.79875 77.175403 
L 743.126023 77.175403 
" clip-path="url(#pa2669bf6d1)" style="fill: none; stroke: #2a2a2a; stroke-width: 0.6; stroke-linecap: square"/>
     </g>
     <g id="line2d_20">
      <g>
       <use xlink:href="#m505c7a2296" x="56.79875" y="77.175403" style="fill: #8a8a8a; stroke: #8a8a8a; stroke-width: 0.7"/>
      </g>
     </g>
     <g id="text_11">
      <!-- 1.0 -->
      <g style="fill: #8a8a8a" transform="translate(35.485937 80.594699) scale(0.09 -0.09)">
       <use xlink:href="#DejaVuSerif-31"/>
       <use xlink:href="#DejaVuSerif-2e" transform="translate(63.623047 0)"/>
       <use xlink:href="#DejaVuSerif-30" transform="translate(95.410156 0)"/>
      </g>
     </g>
    </g>
    <g id="text_12">
     <!-- total variation -->
     <g style="fill: #8a8a8a" transform="translate(24.198281 248.111541) rotate(-90) scale(0.11 -0.11)">
      <defs>
       <path id="DejaVuSerif-6f" d="M 1925 219 
Q 2388 219 2623 584 
Q 2859 950 2859 1663 
Q 2859 2375 2623 2739 
Q 2388 3103 1925 3103 
Q 1463 3103 1227 2739 
Q 991 2375 991 1663 
Q 991 950 1228 584 
Q 1466 219 1925 219 
z
M 1925 -91 
Q 1200 -91 759 389 
Q 319 869 319 1663 
Q 319 2456 758 2934 
Q 1197 3413 1925 3413 
Q 2653 3413 3092 2934 
Q 3531 2456 3531 1663 
Q 3531 869 3092 389 
Q 2653 -91 1925 -91 
z
" transform="scale(0.015625)"/>
       <path id="DejaVuSerif-6c" d="M 1313 331 
L 1856 331 
L 1856 0 
L 184 0 
L 184 331 
L 738 331 
L 738 4531 
L 184 4531 
L 184 4863 
L 1313 4863 
L 1313 331 
z
" transform="scale(0.015625)"/>
       <path id="DejaVuSerif-76" d="M 1581 0 
L 359 2988 
L -19 2988 
L -19 3322 
L 1509 3322 
L 1509 2988 
L 978 2988 
L 1913 703 
L 2847 2988 
L 2350 2988 
L 2350 3322 
L 3597 3322 
L 3597 2988 
L 3225 2988 
L 2003 0 
L 1581 0 
z
" transform="scale(0.015625)"/>
       <path id="DejaVuSerif-6e" d="M 263 0 
L 263 331 
L 781 331 
L 781 2988 
L 231 2988 
L 231 3322 
L 1356 3322 
L 1356 2731 
Q 1516 3069 1770 3241 
Q 2025 3413 2363 3413 
Q 2913 3413 3172 3097 
Q 3431 2781 3431 2113 
L 3431 331 
L 3944 331 
L 3944 0 
L 2356 0 
L 2356 331 
L 2853 331 
L 2853 1931 
Q 2853 2541 2703 2767 
Q 2553 2994 2175 2994 
Q 1775 2994 1565 2701 
Q 1356 2409 1356 1850 
L 1356 331 
L 1856 331 
L 1856 0 
L 263 0 
z
" transform="scale(0.015625)"/>
      </defs>
      <use xlink:href="#DejaVuSerif-74"/>
      <use xlink:href="#DejaVuSerif-6f" transform="translate(40.185547 0)"/>
      <use xlink:href="#DejaVuSerif-74" transform="translate(100.390625 0)"/>
      <use xlink:href="#DejaVuSerif-61" transform="translate(140.576172 0)"/>
      <use xlink:href="#DejaVuSerif-6c" transform="translate(200.195312 0)"/>
      <use xlink:href="#DejaVuSerif-20" transform="translate(232.177734 0)"/>
      <use xlink:href="#DejaVuSerif-76" transform="translate(263.964844 0)"/>
      <use xlink:href="#DejaVuSerif-61" transform="translate(320.458984 0)"/>
      <use xlink:href="#DejaVuSerif-72" transform="translate(380.078125 0)"/>
      <use xlink:href="#DejaVuSerif-69" transform="translate(427.880859 0)"/>
      <use xlink:href="#DejaVuSerif-61" transform="translate(459.863281 0)"/>
      <use xlink:href="#DejaVuSerif-74" transform="translate(519.482422 0)"/>
      <use xlink:href="#DejaVuSerif-69" transform="translate(559.667969 0)"/>
      <use xlink:href="#DejaVuSerif-6f" transform="translate(591.650391 0)"/>
      <use xlink:href="#DejaVuSerif-6e" transform="translate(651.855469 0)"/>
     </g>
    </g>
   </g>
   <g id="FillBetweenPolyCollection_1">
    <defs>
     <path id="m9109f33727" d="M 56.79875 -349.379164 
L 56.79875 -203.222864 
L 58.174155 -196.783027 
L 59.549561 -190.886736 
L 60.924966 -185.467962 
L 62.300371 -180.470953 
L 63.675777 -175.848313 
L 65.051182 -171.55949 
L 66.426587 -167.569585 
L 67.801993 -163.8484 
L 69.177398 -160.369672 
L 70.552804 -157.110451 
L 71.928209 -154.050599 
L 73.303614 -151.172363 
L 74.67902 -148.46004 
L 76.054425 -145.899687 
L 77.42983 -143.478879 
L 78.805236 -141.186511 
L 80.180641 -139.012625 
L 81.556046 -136.948266 
L 82.931452 -134.985361 
L 84.306857 -133.11661 
L 85.682262 -131.335397 
L 87.057668 -129.635712 
L 88.433073 -128.012084 
L 89.808479 -126.459518 
L 91.183884 -124.973449 
L 92.559289 -123.549695 
L 93.934695 -122.184416 
L 95.3101 -120.874083 
L 96.685505 -119.615444 
L 98.060911 -118.405499 
L 99.436316 -117.241477 
L 100.811721 -116.12081 
L 102.187127 -115.041122 
L 103.562532 -114.000205 
L 104.937937 -112.996007 
L 106.313343 -112.02662 
L 107.688748 -111.090263 
L 109.064154 -110.185278 
L 110.439559 -109.310113 
L 111.814964 -108.463318 
L 113.19037 -107.643536 
L 114.565775 -106.849495 
L 115.94118 -106.080001 
L 117.316586 -105.333933 
L 118.691991 -104.610237 
L 120.067396 -103.907922 
L 121.442802 -103.226054 
L 122.818207 -102.563753 
L 124.193612 -101.920189 
L 125.569018 -101.294578 
L 126.944423 -100.686178 
L 128.319829 -100.094289 
L 129.695234 -99.518249 
L 131.070639 -98.957428 
L 132.446045 -98.411232 
L 133.82145 -97.879096 
L 135.196855 -97.360484 
L 136.572261 -96.854886 
L 137.947666 -96.36182 
L 139.323071 -95.880824 
L 140.698477 -95.411461 
L 142.073882 -94.953314 
L 143.449287 -94.505986 
L 144.824693 -94.069098 
L 146.200098 -93.642288 
L 147.575504 -93.225213 
L 148.950909 -92.817542 
L 150.326314 -92.418961 
L 151.70172 -92.029169 
L 153.077125 -91.64788 
L 154.45253 -91.274817 
L 155.827936 -90.909717 
L 157.203341 -90.552328 
L 158.578746 -90.202409 
L 159.954152 -89.859727 
L 161.329557 -89.524061 
L 162.704962 -89.195196 
L 164.080368 -88.872929 
L 165.455773 -88.557063 
L 166.831178 -88.247408 
L 168.206584 -87.943784 
L 169.581989 -87.646017 
L 170.957395 -87.353937 
L 172.3328 -87.067385 
L 173.708205 -86.786203 
L 175.083611 -86.510244 
L 176.459016 -86.239362 
L 177.834421 -85.973419 
L 179.209827 -85.712281 
L 180.585232 -85.455819 
L 181.960637 -85.203908 
L 183.336043 -84.956428 
L 184.711448 -84.713264 
L 186.086853 -84.474304 
L 187.462259 -84.239438 
L 188.837664 -84.008564 
L 190.21307 -83.78158 
L 191.588475 -83.558389 
L 192.96388 -83.338896 
L 194.339286 -83.123011 
L 195.714691 -82.910644 
L 197.090096 -82.701712 
L 198.465502 -82.49613 
L 199.840907 -82.293819 
L 201.216312 -82.094702 
L 202.591718 -81.898704 
L 203.967123 -81.705752 
L 205.342528 -81.515775 
L 206.717934 -81.328705 
L 208.093339 -81.144476 
L 209.468745 -80.963024 
L 210.84415 -80.784286 
L 212.219555 -80.608202 
L 213.594961 -80.434714 
L 214.970366 -80.263763 
L 216.345771 -80.095296 
L 217.721177 -79.929258 
L 219.096582 -79.765598 
L 220.471987 -79.604263 
L 221.847393 -79.445206 
L 223.222798 -79.288379 
L 224.598203 -79.133734 
L 225.973609 -78.981226 
L 227.349014 -78.830812 
L 228.72442 -78.682449 
L 230.099825 -78.536095 
L 231.47523 -78.391709 
L 232.850636 -78.249252 
L 234.226041 -78.108686 
L 235.601446 -77.969973 
L 236.976852 -77.833077 
L 238.352257 -77.697963 
L 239.727662 -77.564595 
L 241.103068 -77.432941 
L 242.478473 -77.302967 
L 243.853878 -77.174641 
L 245.229284 -77.047933 
L 246.604689 -76.922811 
L 247.980095 -76.799247 
L 249.3555 -76.677211 
L 250.730905 -76.556675 
L 252.106311 -76.437612 
L 253.481716 -76.319995 
L 254.857121 -76.203797 
L 256.232527 -76.088994 
L 257.607932 -75.975559 
L 258.983337 -75.86347 
L 260.358743 -75.752702 
L 261.734148 -75.643231 
L 263.109553 -75.535036 
L 264.484959 -75.428094 
L 265.860364 -75.322383 
L 267.235769 -75.217882 
L 268.611175 -75.114571 
L 269.98658 -75.012429 
L 271.361986 -74.911437 
L 272.737391 -74.811575 
L 274.112796 -74.712825 
L 275.488202 -74.615167 
L 276.863607 -74.518585 
L 278.239012 -74.42306 
L 279.614418 -74.328575 
L 280.989823 -74.235113 
L 282.365228 -74.142658 
L 283.740634 -74.051193 
L 285.116039 -73.960702 
L 286.491444 -73.871171 
L 287.86685 -73.782584 
L 289.242255 -73.694926 
L 290.617661 -73.608182 
L 291.993066 -73.522339 
L 293.368471 -73.437382 
L 294.743877 -73.353298 
L 296.119282 -73.270073 
L 297.494687 -73.187695 
L 298.870093 -73.10615 
L 300.245498 -73.025425 
L 301.620903 -72.945509 
L 302.996309 -72.86639 
L 304.371714 -72.788055 
L 305.747119 -72.710493 
L 307.122525 -72.633692 
L 308.49793 -72.557642 
L 309.873336 -72.482331 
L 311.248741 -72.40775 
L 312.624146 -72.333886 
L 313.999552 -72.26073 
L 315.374957 -72.188272 
L 316.750362 -72.116501 
L 318.125768 -72.045409 
L 319.501173 -71.974985 
L 320.876578 -71.90522 
L 322.251984 -71.836106 
L 323.627389 -71.767632 
L 325.002794 -71.69979 
L 326.3782 -71.632571 
L 327.753605 -71.565967 
L 329.129011 -71.499969 
L 330.504416 -71.43457 
L 331.879821 -71.36976 
L 333.255227 -71.305532 
L 334.630632 -71.241879 
L 336.006037 -71.178792 
L 337.381443 -71.116265 
L 338.756848 -71.054289 
L 340.132253 -70.992857 
L 341.507659 -70.931963 
L 342.883064 -70.871598 
L 344.258469 -70.811757 
L 345.633875 -70.752433 
L 347.00928 -70.693619 
L 348.384686 -70.635307 
L 349.760091 -70.577493 
L 351.135496 -70.52017 
L 352.510902 -70.46333 
L 353.886307 -70.406969 
L 355.261712 -70.351081 
L 356.637118 -70.295658 
L 358.012523 -70.240696 
L 359.387928 -70.186189 
L 360.763334 -70.132131 
L 362.138739 -70.078517 
L 363.514144 -70.025341 
L 364.88955 -69.972598 
L 366.264955 -69.920282 
L 367.64036 -69.868389 
L 369.015766 -69.816913 
L 370.391171 -69.765849 
L 371.766577 -69.715193 
L 373.141982 -69.66494 
L 374.517387 -69.615084 
L 375.892793 -69.565621 
L 377.268198 -69.516546 
L 378.643603 -69.467856 
L 380.019009 -69.419544 
L 381.394414 -69.371608 
L 382.769819 -69.324042 
L 384.145225 -69.276843 
L 385.52063 -69.230006 
L 386.896035 -69.183526 
L 388.271441 -69.137401 
L 389.646846 -69.091625 
L 391.022252 -69.046196 
L 392.397657 -69.001108 
L 393.773062 -68.956358 
L 395.148468 -68.911943 
L 396.523873 -68.867858 
L 397.899278 -68.8241 
L 399.274684 -68.780666 
L 400.650089 -68.737551 
L 402.025494 -68.694752 
L 403.4009 -68.652266 
L 404.776305 -68.61009 
L 406.15171 -68.568219 
L 407.527116 -68.526651 
L 408.902521 -68.485383 
L 410.277927 -68.444411 
L 411.653332 -68.403731 
L 413.028737 -68.363342 
L 414.404143 -68.323239 
L 415.779548 -68.28342 
L 417.154953 -68.243882 
L 418.530359 -68.204621 
L 419.905764 -68.165635 
L 421.281169 -68.126921 
L 422.656575 -68.088477 
L 424.03198 -68.050298 
L 425.407385 -68.012384 
L 426.782791 -67.97473 
L 428.158196 -67.937334 
L 429.533602 -67.900194 
L 430.909007 -67.863307 
L 432.284412 -67.82667 
L 433.659818 -67.790281 
L 435.035223 -67.754137 
L 436.410628 -67.718236 
L 437.786034 -67.682575 
L 439.161439 -67.647153 
L 440.536844 -67.611966 
L 441.91225 -67.577012 
L 443.287655 -67.542289 
L 444.66306 -67.507795 
L 446.038466 -67.473527 
L 447.413871 -67.439484 
L 448.789277 -67.405662 
L 450.164682 -67.37206 
L 451.540087 -67.338676 
L 452.915493 -67.305508 
L 454.290898 -67.272553 
L 455.666303 -67.23981 
L 457.041709 -67.207276 
L 458.417114 -67.174949 
L 459.792519 -67.142828 
L 461.167925 -67.11091 
L 462.54333 -67.079194 
L 463.918735 -67.047678 
L 465.294141 -67.016359 
L 466.669546 -66.985236 
L 468.044951 -66.954308 
L 469.420357 -66.923571 
L 470.795762 -66.893026 
L 472.171168 -66.862668 
L 473.546573 -66.832498 
L 474.921978 -66.802513 
L 476.297384 -66.772712 
L 477.672789 -66.743093 
L 479.048194 -66.713654 
L 480.4236 -66.684393 
L 481.799005 -66.655309 
L 483.17441 -66.626401 
L 484.549816 -66.597667 
L 485.925221 -66.569104 
L 487.300626 -66.540713 
L 488.676032 -66.51249 
L 490.051437 -66.484436 
L 491.426843 -66.456547 
L 492.802248 -66.428823 
L 494.177653 -66.401262 
L 495.553059 -66.373863 
L 496.928464 -66.346625 
L 498.303869 -66.319545 
L 499.679275 -66.292623 
L 501.05468 -66.265857 
L 502.430085 -66.239246 
L 503.805491 -66.212789 
L 505.180896 -66.186484 
L 506.556301 -66.160329 
L 507.931707 -66.134324 
L 509.307112 -66.108468 
L 510.682518 -66.082759 
L 512.057923 -66.057195 
L 513.433328 -66.031776 
L 514.808734 -66.0065 
L 516.184139 -65.981366 
L 517.559544 -65.956374 
L 518.93495 -65.931521 
L 520.310355 -65.906806 
L 521.68576 -65.882229 
L 523.061166 -65.857788 
L 524.436571 -65.833483 
L 525.811976 -65.809311 
L 527.187382 -65.785273 
L 528.562787 -65.761366 
L 529.938193 -65.73759 
L 531.313598 -65.713943 
L 532.689003 -65.690426 
L 534.064409 -65.667035 
L 535.439814 -65.643772 
L 536.815219 -65.620634 
L 538.190625 -65.59762 
L 539.56603 -65.57473 
L 540.941435 -65.551962 
L 542.316841 -65.529316 
L 543.692246 -65.506791 
L 545.067651 -65.484385 
L 546.443057 -65.462097 
L 547.818462 -65.439928 
L 549.193868 -65.417875 
L 550.569273 -65.395938 
L 551.944678 -65.374116 
L 553.320084 -65.352408 
L 554.695489 -65.330813 
L 556.070894 -65.30933 
L 557.4463 -65.287959 
L 558.821705 -65.266699 
L 560.19711 -65.245548 
L 561.572516 -65.224506 
L 562.947921 -65.203571 
L 564.323326 -65.182745 
L 565.698732 -65.162024 
L 567.074137 -65.141409 
L 568.449542 -65.120898 
L 569.824948 -65.100492 
L 571.200353 -65.080189 
L 572.575759 -65.059988 
L 573.951164 -65.039888 
L 575.326569 -65.01989 
L 576.701975 -64.999991 
L 578.07738 -64.980192 
L 579.452785 -64.960492 
L 580.828191 -64.940889 
L 582.203596 -64.921383 
L 583.579001 -64.901974 
L 584.954407 -64.882661 
L 586.329812 -64.863442 
L 587.705217 -64.844318 
L 589.080623 -64.825287 
L 590.456028 -64.806349 
L 591.831434 -64.787504 
L 593.206839 -64.76875 
L 594.582244 -64.750087 
L 595.95765 -64.731514 
L 597.333055 -64.713031 
L 598.70846 -64.694636 
L 600.083866 -64.67633 
L 601.459271 -64.658112 
L 602.834676 -64.63998 
L 604.210082 -64.621935 
L 605.585487 -64.603976 
L 606.960892 -64.586102 
L 608.336298 -64.568312 
L 609.711703 -64.550607 
L 611.087109 -64.532985 
L 612.462514 -64.515445 
L 613.837919 -64.497988 
L 615.213325 -64.480613 
L 616.58873 -64.463318 
L 617.964135 -64.446104 
L 619.339541 -64.42897 
L 620.714946 -64.411916 
L 622.090351 -64.39494 
L 623.465757 -64.378043 
L 624.841162 -64.361223 
L 626.216567 -64.34448 
L 627.591973 -64.327814 
L 628.967378 -64.311225 
L 630.342784 -64.294711 
L 631.718189 -64.278272 
L 633.093594 -64.261907 
L 634.469 -64.245617 
L 635.844405 -64.2294 
L 637.21981 -64.213257 
L 638.595216 -64.197186 
L 639.970621 -64.181187 
L 641.346026 -64.16526 
L 642.721432 -64.149404 
L 644.096837 -64.133618 
L 645.472242 -64.117903 
L 646.847648 -64.102257 
L 648.223053 -64.086681 
L 649.598459 -64.071174 
L 650.973864 -64.055735 
L 652.349269 -64.040364 
L 653.724675 -64.02506 
L 655.10008 -64.009824 
L 656.475485 -63.994654 
L 657.850891 -63.97955 
L 659.226296 -63.964511 
L 660.601701 -63.949539 
L 661.977107 -63.934631 
L 663.352512 -63.919787 
L 664.727917 -63.905007 
L 666.103323 -63.890291 
L 667.478728 -63.875639 
L 668.854133 -63.861049 
L 670.229539 -63.846521 
L 671.604944 -63.832056 
L 672.98035 -63.817652 
L 674.355755 -63.803309 
L 675.73116 -63.789027 
L 677.106566 -63.774805 
L 678.481971 -63.760644 
L 679.857376 -63.746542 
L 681.232782 -63.732499 
L 682.608187 -63.718516 
L 683.983592 -63.704591 
L 685.358998 -63.690724 
L 686.734403 -63.676915 
L 688.109808 -63.663163 
L 689.485214 -63.649469 
L 690.860619 -63.635831 
L 692.236025 -63.622249 
L 693.61143 -63.608724 
L 694.986835 -63.595254 
L 696.362241 -63.58184 
L 697.737646 -63.568481 
L 699.113051 -63.555176 
L 700.488457 -63.541926 
L 701.863862 -63.528729 
L 703.239267 -63.515587 
L 704.614673 -63.502498 
L 705.990078 -63.489461 
L 707.365483 -63.476478 
L 708.740889 -63.463547 
L 710.116294 -63.450668 
L 711.4917 -63.43784 
L 712.867105 -63.425064 
L 714.24251 -63.41234 
L 715.617916 -63.399666 
L 716.993321 -63.387042 
L 718.368726 -63.374469 
L 719.744132 -63.361946 
L 721.119537 -63.349472 
L 722.494942 -63.337048 
L 723.870348 -63.324673 
L 725.245753 -63.312346 
L 726.621158 -63.300068 
L 727.996564 -63.287838 
L 729.371969 -63.275656 
L 730.747375 -63.263522 
L 732.12278 -63.251435 
L 733.498185 -63.239395 
L 734.873591 -63.227402 
L 736.248996 -63.215455 
L 737.624401 -63.203555 
L 738.999807 -63.1917 
L 740.375212 -63.179892 
L 741.750617 -63.168128 
L 743.126023 -63.15641 
L 743.126023 -349.379164 
L 743.126023 -349.379164 
L 741.750617 -349.379164 
L 740.375212 -349.379164 
L 738.999807 -349.379164 
L 737.624401 -349.379164 
L 736.248996 -349.379164 
L 734.873591 -349.379164 
L 733.498185 -349.379164 
L 732.12278 -349.379164 
L 730.747375 -349.379164 
L 729.371969 -349.379164 
L 727.996564 -349.379164 
L 726.621158 -349.379164 
L 725.245753 -349.379164 
L 723.870348 -349.379164 
L 722.494942 -349.379164 
L 721.119537 -349.379164 
L 719.744132 -349.379164 
L 718.368726 -349.379164 
L 716.993321 -349.379164 
L 715.617916 -349.379164 
L 714.24251 -349.379164 
L 712.867105 -349.379164 
L 711.4917 -349.379164 
L 710.116294 -349.379164 
L 708.740889 -349.379164 
L 707.365483 -349.379164 
L 705.990078 -349.379164 
L 704.614673 -349.379164 
L 703.239267 -349.379164 
L 701.863862 -349.379164 
L 700.488457 -349.379164 
L 699.113051 -349.379164 
L 697.737646 -349.379164 
L 696.362241 -349.379164 
L 694.986835 -349.379164 
L 693.61143 -349.379164 
L 692.236025 -349.379164 
L 690.860619 -349.379164 
L 689.485214 -349.379164 
L 688.109808 -349.379164 
L 686.734403 -349.379164 
L 685.358998 -349.379164 
L 683.983592 -349.379164 
L 682.608187 -349.379164 
L 681.232782 -349.379164 
L 679.857376 -349.379164 
L 678.481971 -349.379164 
L 677.106566 -349.379164 
L 675.73116 -349.379164 
L 674.355755 -349.379164 
L 672.98035 -349.379164 
L 671.604944 -349.379164 
L 670.229539 -349.379164 
L 668.854133 -349.379164 
L 667.478728 -349.379164 
L 666.103323 -349.379164 
L 664.727917 -349.379164 
L 663.352512 -349.379164 
L 661.977107 -349.379164 
L 660.601701 -349.379164 
L 659.226296 -349.379164 
L 657.850891 -349.379164 
L 656.475485 -349.379164 
L 655.10008 -349.379164 
L 653.724675 -349.379164 
L 652.349269 -349.379164 
L 650.973864 -349.379164 
L 649.598459 -349.379164 
L 648.223053 -349.379164 
L 646.847648 -349.379164 
L 645.472242 -349.379164 
L 644.096837 -349.379164 
L 642.721432 -349.379164 
L 641.346026 -349.379164 
L 639.970621 -349.379164 
L 638.595216 -349.379164 
L 637.21981 -349.379164 
L 635.844405 -349.379164 
L 634.469 -349.379164 
L 633.093594 -349.379164 
L 631.718189 -349.379164 
L 630.342784 -349.379164 
L 628.967378 -349.379164 
L 627.591973 -349.379164 
L 626.216567 -349.379164 
L 624.841162 -349.379164 
L 623.465757 -349.379164 
L 622.090351 -349.379164 
L 620.714946 -349.379164 
L 619.339541 -349.379164 
L 617.964135 -349.379164 
L 616.58873 -349.379164 
L 615.213325 -349.379164 
L 613.837919 -349.379164 
L 612.462514 -349.379164 
L 611.087109 -349.379164 
L 609.711703 -349.379164 
L 608.336298 -349.379164 
L 606.960892 -349.379164 
L 605.585487 -349.379164 
L 604.210082 -349.379164 
L 602.834676 -349.379164 
L 601.459271 -349.379164 
L 600.083866 -349.379164 
L 598.70846 -349.379164 
L 597.333055 -349.379164 
L 595.95765 -349.379164 
L 594.582244 -349.379164 
L 593.206839 -349.379164 
L 591.831434 -349.379164 
L 590.456028 -349.379164 
L 589.080623 -349.379164 
L 587.705217 -349.379164 
L 586.329812 -349.379164 
L 584.954407 -349.379164 
L 583.579001 -349.379164 
L 582.203596 -349.379164 
L 580.828191 -349.379164 
L 579.452785 -349.379164 
L 578.07738 -349.379164 
L 576.701975 -349.379164 
L 575.326569 -349.379164 
L 573.951164 -349.379164 
L 572.575759 -349.379164 
L 571.200353 -349.379164 
L 569.824948 -349.379164 
L 568.449542 -349.379164 
L 567.074137 -349.379164 
L 565.698732 -349.379164 
L 564.323326 -349.379164 
L 562.947921 -349.379164 
L 561.572516 -349.379164 
L 560.19711 -349.379164 
L 558.821705 -349.379164 
L 557.4463 -349.379164 
L 556.070894 -349.379164 
L 554.695489 -349.379164 
L 553.320084 -349.379164 
L 551.944678 -349.379164 
L 550.569273 -349.379164 
L 549.193868 -349.379164 
L 547.818462 -349.379164 
L 546.443057 -349.379164 
L 545.067651 -349.379164 
L 543.692246 -349.379164 
L 542.316841 -349.379164 
L 540.941435 -349.379164 
L 539.56603 -349.379164 
L 538.190625 -349.379164 
L 536.815219 -349.379164 
L 535.439814 -349.379164 
L 534.064409 -349.379164 
L 532.689003 -349.379164 
L 531.313598 -349.379164 
L 529.938193 -349.379164 
L 528.562787 -349.379164 
L 527.187382 -349.379164 
L 525.811976 -349.379164 
L 524.436571 -349.379164 
L 523.061166 -349.379164 
L 521.68576 -349.379164 
L 520.310355 -349.379164 
L 518.93495 -349.379164 
L 517.559544 -349.379164 
L 516.184139 -349.379164 
L 514.808734 -349.379164 
L 513.433328 -349.379164 
L 512.057923 -349.379164 
L 510.682518 -349.379164 
L 509.307112 -349.379164 
L 507.931707 -349.379164 
L 506.556301 -349.379164 
L 505.180896 -349.379164 
L 503.805491 -349.379164 
L 502.430085 -349.379164 
L 501.05468 -349.379164 
L 499.679275 -349.379164 
L 498.303869 -349.379164 
L 496.928464 -349.379164 
L 495.553059 -349.379164 
L 494.177653 -349.379164 
L 492.802248 -349.379164 
L 491.426843 -349.379164 
L 490.051437 -349.379164 
L 488.676032 -349.379164 
L 487.300626 -349.379164 
L 485.925221 -349.379164 
L 484.549816 -349.379164 
L 483.17441 -349.379164 
L 481.799005 -349.379164 
L 480.4236 -349.379164 
L 479.048194 -349.379164 
L 477.672789 -349.379164 
L 476.297384 -349.379164 
L 474.921978 -349.379164 
L 473.546573 -349.379164 
L 472.171168 -349.379164 
L 470.795762 -349.379164 
L 469.420357 -349.379164 
L 468.044951 -349.379164 
L 466.669546 -349.379164 
L 465.294141 -349.379164 
L 463.918735 -349.379164 
L 462.54333 -349.379164 
L 461.167925 -349.379164 
L 459.792519 -349.379164 
L 458.417114 -349.379164 
L 457.041709 -349.379164 
L 455.666303 -349.379164 
L 454.290898 -349.379164 
L 452.915493 -349.379164 
L 451.540087 -349.379164 
L 450.164682 -349.379164 
L 448.789277 -349.379164 
L 447.413871 -349.379164 
L 446.038466 -349.379164 
L 444.66306 -349.379164 
L 443.287655 -349.379164 
L 441.91225 -349.379164 
L 440.536844 -349.379164 
L 439.161439 -349.379164 
L 437.786034 -349.379164 
L 436.410628 -349.379164 
L 435.035223 -349.379164 
L 433.659818 -349.379164 
L 432.284412 -349.379164 
L 430.909007 -349.379164 
L 429.533602 -349.379164 
L 428.158196 -349.379164 
L 426.782791 -349.379164 
L 425.407385 -349.379164 
L 424.03198 -349.379164 
L 422.656575 -349.379164 
L 421.281169 -349.379164 
L 419.905764 -349.379164 
L 418.530359 -349.379164 
L 417.154953 -349.379164 
L 415.779548 -349.379164 
L 414.404143 -349.379164 
L 413.028737 -349.379164 
L 411.653332 -349.379164 
L 410.277927 -349.379164 
L 408.902521 -349.379164 
L 407.527116 -349.379164 
L 406.15171 -349.379164 
L 404.776305 -349.379164 
L 403.4009 -349.379164 
L 402.025494 -349.379164 
L 400.650089 -349.379164 
L 399.274684 -349.379164 
L 397.899278 -349.379164 
L 396.523873 -349.379164 
L 395.148468 -349.379164 
L 393.773062 -349.379164 
L 392.397657 -349.379164 
L 391.022252 -349.379164 
L 389.646846 -349.379164 
L 388.271441 -349.379164 
L 386.896035 -349.379164 
L 385.52063 -349.379164 
L 384.145225 -349.379164 
L 382.769819 -349.379164 
L 381.394414 -349.379164 
L 380.019009 -349.379164 
L 378.643603 -349.379164 
L 377.268198 -349.379164 
L 375.892793 -349.379164 
L 374.517387 -349.379164 
L 373.141982 -349.379164 
L 371.766577 -349.379164 
L 370.391171 -349.379164 
L 369.015766 -349.379164 
L 367.64036 -349.379164 
L 366.264955 -349.379164 
L 364.88955 -349.379164 
L 363.514144 -349.379164 
L 362.138739 -349.379164 
L 360.763334 -349.379164 
L 359.387928 -349.379164 
L 358.012523 -349.379164 
L 356.637118 -349.379164 
L 355.261712 -349.379164 
L 353.886307 -349.379164 
L 352.510902 -349.379164 
L 351.135496 -349.379164 
L 349.760091 -349.379164 
L 348.384686 -349.379164 
L 347.00928 -349.379164 
L 345.633875 -349.379164 
L 344.258469 -349.379164 
L 342.883064 -349.379164 
L 341.507659 -349.379164 
L 340.132253 -349.379164 
L 338.756848 -349.379164 
L 337.381443 -349.379164 
L 336.006037 -349.379164 
L 334.630632 -349.379164 
L 333.255227 -349.379164 
L 331.879821 -349.379164 
L 330.504416 -349.379164 
L 329.129011 -349.379164 
L 327.753605 -349.379164 
L 326.3782 -349.379164 
L 325.002794 -349.379164 
L 323.627389 -349.379164 
L 322.251984 -349.379164 
L 320.876578 -349.379164 
L 319.501173 -349.379164 
L 318.125768 -349.379164 
L 316.750362 -349.379164 
L 315.374957 -349.379164 
L 313.999552 -349.379164 
L 312.624146 -349.379164 
L 311.248741 -349.379164 
L 309.873336 -349.379164 
L 308.49793 -349.379164 
L 307.122525 -349.379164 
L 305.747119 -349.379164 
L 304.371714 -349.379164 
L 302.996309 -349.379164 
L 301.620903 -349.379164 
L 300.245498 -349.379164 
L 298.870093 -349.379164 
L 297.494687 -349.379164 
L 296.119282 -349.379164 
L 294.743877 -349.379164 
L 293.368471 -349.379164 
L 291.993066 -349.379164 
L 290.617661 -349.379164 
L 289.242255 -349.379164 
L 287.86685 -349.379164 
L 286.491444 -349.379164 
L 285.116039 -349.379164 
L 283.740634 -349.379164 
L 282.365228 -349.379164 
L 280.989823 -349.379164 
L 279.614418 -349.379164 
L 278.239012 -349.379164 
L 276.863607 -349.379164 
L 275.488202 -349.379164 
L 274.112796 -349.379164 
L 272.737391 -349.379164 
L 271.361986 -349.379164 
L 269.98658 -349.379164 
L 268.611175 -349.379164 
L 267.235769 -349.379164 
L 265.860364 -349.379164 
L 264.484959 -349.379164 
L 263.109553 -349.379164 
L 261.734148 -349.379164 
L 260.358743 -349.379164 
L 258.983337 -349.379164 
L 257.607932 -349.379164 
L 256.232527 -349.379164 
L 254.857121 -349.379164 
L 253.481716 -349.379164 
L 252.106311 -349.379164 
L 250.730905 -349.379164 
L 249.3555 -349.379164 
L 247.980095 -349.379164 
L 246.604689 -349.379164 
L 245.229284 -349.379164 
L 243.853878 -349.379164 
L 242.478473 -349.379164 
L 241.103068 -349.379164 
L 239.727662 -349.379164 
L 238.352257 -349.379164 
L 236.976852 -349.379164 
L 235.601446 -349.379164 
L 234.226041 -349.379164 
L 232.850636 -349.379164 
L 231.47523 -349.379164 
L 230.099825 -349.379164 
L 228.72442 -349.379164 
L 227.349014 -349.379164 
L 225.973609 -349.379164 
L 224.598203 -349.379164 
L 223.222798 -349.379164 
L 221.847393 -349.379164 
L 220.471987 -349.379164 
L 219.096582 -349.379164 
L 217.721177 -349.379164 
L 216.345771 -349.379164 
L 214.970366 -349.379164 
L 213.594961 -349.379164 
L 212.219555 -349.379164 
L 210.84415 -349.379164 
L 209.468745 -349.379164 
L 208.093339 -349.379164 
L 206.717934 -349.379164 
L 205.342528 -349.379164 
L 203.967123 -349.379164 
L 202.591718 -349.379164 
L 201.216312 -349.379164 
L 199.840907 -349.379164 
L 198.465502 -349.379164 
L 197.090096 -349.379164 
L 195.714691 -349.379164 
L 194.339286 -349.379164 
L 192.96388 -349.379164 
L 191.588475 -349.379164 
L 190.21307 -349.379164 
L 188.837664 -349.379164 
L 187.462259 -349.379164 
L 186.086853 -349.379164 
L 184.711448 -349.379164 
L 183.336043 -349.379164 
L 181.960637 -349.379164 
L 180.585232 -349.379164 
L 179.209827 -349.379164 
L 177.834421 -349.379164 
L 176.459016 -349.379164 
L 175.083611 -349.379164 
L 173.708205 -349.379164 
L 172.3328 -349.379164 
L 170.957395 -349.379164 
L 169.581989 -349.379164 
L 168.206584 -349.379164 
L 166.831178 -349.379164 
L 165.455773 -349.379164 
L 164.080368 -349.379164 
L 162.704962 -349.379164 
L 161.329557 -349.379164 
L 159.954152 -349.379164 
L 158.578746 -349.379164 
L 157.203341 -349.379164 
L 155.827936 -349.379164 
L 154.45253 -349.379164 
L 153.077125 -349.379164 
L 151.70172 -349.379164 
L 150.326314 -349.379164 
L 148.950909 -349.379164 
L 147.575504 -349.379164 
L 146.200098 -349.379164 
L 144.824693 -349.379164 
L 143.449287 -349.379164 
L 142.073882 -349.379164 
L 140.698477 -349.379164 
L 139.323071 -349.379164 
L 137.947666 -349.379164 
L 136.572261 -349.379164 
L 135.196855 -349.379164 
L 133.82145 -349.379164 
L 132.446045 -349.379164 
L 131.070639 -349.379164 
L 129.695234 -349.379164 
L 128.319829 -349.379164 
L 126.944423 -349.379164 
L 125.569018 -349.379164 
L 124.193612 -349.379164 
L 122.818207 -349.379164 
L 121.442802 -349.379164 
L 120.067396 -349.379164 
L 118.691991 -349.379164 
L 117.316586 -349.379164 
L 115.94118 -349.379164 
L 114.565775 -349.379164 
L 113.19037 -349.379164 
L 111.814964 -349.379164 
L 110.439559 -349.379164 
L 109.064154 -349.379164 
L 107.688748 -349.379164 
L 106.313343 -349.379164 
L 104.937937 -349.379164 
L 103.562532 -349.379164 
L 102.187127 -349.379164 
L 100.811721 -349.379164 
L 99.436316 -349.379164 
L 98.060911 -349.379164 
L 96.685505 -349.379164 
L 95.3101 -349.379164 
L 93.934695 -349.379164 
L 92.559289 -349.379164 
L 91.183884 -349.379164 
L 89.808479 -349.379164 
L 88.433073 -349.379164 
L 87.057668 -349.379164 
L 85.682262 -349.379164 
L 84.306857 -349.379164 
L 82.931452 -349.379164 
L 81.556046 -349.379164 
L 80.180641 -349.379164 
L 78.805236 -349.379164 
L 77.42983 -349.379164 
L 76.054425 -349.379164 
L 74.67902 -349.379164 
L 73.303614 -349.379164 
L 71.928209 -349.379164 
L 70.552804 -349.379164 
L 69.177398 -349.379164 
L 67.801993 -349.379164 
L 66.426587 -349.379164 
L 65.051182 -349.379164 
L 63.675777 -349.379164 
L 62.300371 -349.379164 
L 60.924966 -349.379164 
L 59.549561 -349.379164 
L 58.174155 -349.379164 
L 56.79875 -349.379164 
z
" style="stroke: #f2f2f2; stroke-opacity: 0.07"/>
    </defs>
    <g clip-path="url(#pa2669bf6d1)">
     <use xlink:href="#m9109f33727" x="0" y="426.554567" style="fill: #f2f2f2; fill-opacity: 0.07; stroke: #f2f2f2; stroke-opacity: 0.07"/>
    </g>
   </g>
   <g id="line2d_21">
    <path d="M 56.79875 77.175403 
L 743.126023 77.175403 
" clip-path="url(#pa2669bf6d1)" style="fill: none; stroke-dasharray: 0.8,1.32; stroke-dashoffset: 0; stroke: #3a3a3a; stroke-width: 0.8"/>
   </g>
   <g id="patch_3">
    <path d="M 56.79875 375.334254 
L 56.79875 42.097891 
" style="fill: none; stroke: #3a3a3a; stroke-linejoin: miter; stroke-linecap: square"/>
   </g>
   <g id="patch_4">
    <path d="M 56.79875 375.334254 
L 743.126023 375.334254 
" style="fill: none; stroke: #3a3a3a; stroke-linejoin: miter; stroke-linecap: square"/>
   </g>
   <g id="patch_5">
    <path d="M 160.831192 284.954078 
Q 109.676934 254.653464 59.388425 224.865665 
" style="fill: none; stroke: #8a8a8a; stroke-width: 0.9; stroke-linecap: round"/>
    <path d="M 61.568467 228.249068 
L 59.388425 224.865665 
L 63.403172 225.151673 
" style="fill: none; stroke: #8a8a8a; stroke-width: 0.9; stroke-linecap: round"/>
   </g>
   <g id="text_13">
    <!-- $K{=}2$: gap $=1/2$ -->
    <g style="fill: #d0d0d0" transform="translate(146.319699 294.722918) scale(0.09 -0.09)">
     <defs>
      <path id="Cmr10-3d" d="M 481 850 
Q 428 850 393 890 
Q 359 931 359 978 
Q 359 1031 393 1068 
Q 428 1106 481 1106 
L 4500 1106 
Q 4547 1106 4581 1068 
Q 4616 1031 4616 978 
Q 4616 931 4581 890 
Q 4547 850 4500 850 
L 481 850 
z
M 481 2094 
Q 428 2094 393 2131 
Q 359 2169 359 2222 
Q 359 2269 393 2309 
Q 428 2350 481 2350 
L 4500 2350 
Q 4547 2350 4581 2309 
Q 4616 2269 4616 2222 
Q 4616 2169 4581 2131 
Q 4547 2094 4500 2094 
L 481 2094 
z
" transform="scale(0.015625)"/>
      <path id="Cmr10-32" d="M 319 0 
L 319 172 
Q 319 188 331 206 
L 1325 1306 
Q 1550 1550 1690 1715 
Q 1831 1881 1968 2097 
Q 2106 2313 2186 2536 
Q 2266 2759 2266 3009 
Q 2266 3272 2169 3511 
Q 2072 3750 1880 3894 
Q 1688 4038 1416 4038 
Q 1138 4038 916 3870 
Q 694 3703 603 3438 
Q 628 3444 672 3444 
Q 816 3444 917 3347 
Q 1019 3250 1019 3097 
Q 1019 2950 917 2848 
Q 816 2747 672 2747 
Q 522 2747 420 2851 
Q 319 2956 319 3097 
Q 319 3338 409 3548 
Q 500 3759 670 3923 
Q 841 4088 1055 4175 
Q 1269 4263 1509 4263 
Q 1875 4263 2190 4108 
Q 2506 3953 2690 3670 
Q 2875 3388 2875 3009 
Q 2875 2731 2753 2481 
Q 2631 2231 2440 2026 
Q 2250 1822 1953 1562 
Q 1656 1303 1563 1216 
L 838 519 
L 1453 519 
Q 1906 519 2211 526 
Q 2516 534 2534 550 
Q 2609 631 2688 1141 
L 2875 1141 
L 2694 0 
L 319 0 
z
" transform="scale(0.015625)"/>
      <path id="DejaVuSerif-3a" d="M 666 325 
Q 666 500 786 622 
Q 906 744 1081 744 
Q 1256 744 1376 622 
Q 1497 500 1497 325 
Q 1497 150 1378 29 
Q 1259 -91 1081 -91 
Q 903 -91 784 29 
Q 666 150 666 325 
z
M 666 2363 
Q 666 2538 786 2658 
Q 906 2778 1081 2778 
Q 1259 2778 1378 2659 
Q 1497 2541 1497 2363 
Q 1497 2184 1378 2065 
Q 1259 1947 1081 1947 
Q 906 1947 786 2067 
Q 666 2188 666 2363 
z
" transform="scale(0.015625)"/>
      <path id="DejaVuSerif-67" d="M 3359 2988 
L 3359 72 
Q 3359 -644 2965 -1033 
Q 2572 -1422 1844 -1422 
Q 1516 -1422 1216 -1362 
Q 916 -1303 641 -1184 
L 641 -488 
L 941 -488 
Q 997 -813 1206 -963 
Q 1416 -1113 1806 -1113 
Q 2313 -1113 2548 -827 
Q 2784 -541 2784 72 
L 2784 519 
Q 2616 206 2355 57 
Q 2094 -91 1709 -91 
Q 1097 -91 708 395 
Q 319 881 319 1663 
Q 319 2444 706 2928 
Q 1094 3413 1709 3413 
Q 2094 3413 2355 3264 
Q 2616 3116 2784 2803 
L 2784 3322 
L 3909 3322 
L 3909 2988 
L 3359 2988 
z
M 2784 1825 
Q 2784 2422 2554 2737 
Q 2325 3053 1888 3053 
Q 1444 3053 1217 2703 
Q 991 2353 991 1663 
Q 991 975 1217 622 
Q 1444 269 1888 269 
Q 2325 269 2554 583 
Q 2784 897 2784 1497 
L 2784 1825 
z
" transform="scale(0.015625)"/>
      <path id="DejaVuSerif-70" d="M 1313 1825 
L 1313 1497 
Q 1313 897 1542 583 
Q 1772 269 2209 269 
Q 2650 269 2876 622 
Q 3103 975 3103 1663 
Q 3103 2353 2876 2703 
Q 2650 3053 2209 3053 
Q 1772 3053 1542 2737 
Q 1313 2422 1313 1825 
z
M 738 2988 
L 184 2988 
L 184 3322 
L 1313 3322 
L 1313 2803 
Q 1481 3116 1742 3264 
Q 2003 3413 2388 3413 
Q 3000 3413 3387 2928 
Q 3775 2444 3775 1663 
Q 3775 881 3387 395 
Q 3000 -91 2388 -91 
Q 2003 -91 1742 57 
Q 1481 206 1313 519 
L 1313 -997 
L 1856 -997 
L 1856 -1331 
L 184 -1331 
L 184 -997 
L 738 -997 
L 738 2988 
z
" transform="scale(0.015625)"/>
      <path id="Cmr10-31" d="M 594 0 
L 594 225 
Q 1394 225 1394 428 
L 1394 3788 
Q 1063 3628 556 3628 
L 556 3853 
Q 1341 3853 1741 4263 
L 1831 4263 
Q 1853 4263 1873 4245 
Q 1894 4228 1894 4206 
L 1894 428 
Q 1894 225 2694 225 
L 2694 0 
L 594 0 
z
" transform="scale(0.015625)"/>
      <path id="Cmmi10-3d" d="M 359 -1472 
Q 359 -1453 366 -1447 
L 2591 4722 
Q 2603 4759 2634 4779 
Q 2666 4800 2706 4800 
Q 2763 4800 2798 4765 
Q 2834 4731 2834 4672 
L 2834 4647 
L 609 -1522 
Q 572 -1600 488 -1600 
Q 434 -1600 396 -1562 
Q 359 -1525 359 -1472 
z
" transform="scale(0.015625)"/>
     </defs>
     <use xlink:href="#Cmmi10-4b"/>
     <use xlink:href="#Cmr10-3d" transform="translate(102.470703 0)"/>
     <use xlink:href="#Cmr10-32" transform="translate(197.714844 0)"/>
     <use xlink:href="#DejaVuSerif-3a" transform="translate(247.714844 0)"/>
     <use xlink:href="#DejaVuSerif-20" transform="translate(281.40625 0)"/>
     <use xlink:href="#DejaVuSerif-67" transform="translate(313.193359 0)"/>
     <use xlink:href="#DejaVuSerif-61" transform="translate(377.207031 0)"/>
     <use xlink:href="#DejaVuSerif-70" transform="translate(436.826172 0)"/>
     <use xlink:href="#DejaVuSerif-20" transform="translate(500.839844 0)"/>
     <use xlink:href="#Cmr10-3d" transform="translate(550.185547 0)"/>
     <use xlink:href="#Cmr10-31" transform="translate(645.429688 0)"/>
     <use xlink:href="#Cmmi10-3d" transform="translate(695.429688 0)"/>
     <use xlink:href="#Cmr10-32" transform="translate(745.429688 0)"/>
    </g>
    <!-- (M4 butterfly) -->
    <g style="fill: #d0d0d0" transform="translate(146.319699 305.17923) scale(0.09 -0.09)">
     <defs>
      <path id="DejaVuSerif-28" d="M 2041 -997 
Q 1281 -656 893 83 
Q 506 822 506 1931 
Q 506 3044 893 3783 
Q 1281 4522 2041 4863 
L 2041 4556 
Q 1559 4225 1350 3623 
Q 1141 3022 1141 1931 
Q 1141 844 1350 242 
Q 1559 -359 2041 -691 
L 2041 -997 
z
" transform="scale(0.015625)"/>
      <path id="DejaVuSerif-4d" d="M 353 0 
L 353 331 
L 947 331 
L 947 4331 
L 319 4331 
L 319 4666 
L 1678 4666 
L 3316 1344 
L 4953 4666 
L 6228 4666 
L 6228 4331 
L 5606 4331 
L 5606 331 
L 6203 331 
L 6203 0 
L 4378 0 
L 4378 331 
L 4972 331 
L 4972 3938 
L 3372 684 
L 2931 684 
L 1331 3938 
L 1331 331 
L 1925 331 
L 1925 0 
L 353 0 
z
" transform="scale(0.015625)"/>
      <path id="DejaVuSerif-62" d="M 738 331 
L 738 4531 
L 184 4531 
L 184 4863 
L 1313 4863 
L 1313 2803 
Q 1481 3116 1742 3264 
Q 2003 3413 2388 3413 
Q 3000 3413 3387 2928 
Q 3775 2444 3775 1663 
Q 3775 881 3387 395 
Q 3000 -91 2388 -91 
Q 2003 -91 1742 57 
Q 1481 206 1313 519 
L 1313 0 
L 184 0 
L 184 331 
L 738 331 
z
M 1313 1497 
Q 1313 897 1542 583 
Q 1772 269 2209 269 
Q 2650 269 2876 622 
Q 3103 975 3103 1663 
Q 3103 2353 2876 2703 
Q 2650 3053 2209 3053 
Q 1772 3053 1542 2737 
Q 1313 2422 1313 1825 
L 1313 1497 
z
" transform="scale(0.015625)"/>
      <path id="DejaVuSerif-66" d="M 2753 4078 
L 2450 4078 
Q 2447 4313 2317 4434 
Q 2188 4556 1941 4556 
Q 1619 4556 1487 4379 
Q 1356 4203 1356 3750 
L 1356 3322 
L 2284 3322 
L 2284 2988 
L 1356 2988 
L 1356 331 
L 2094 331 
L 2094 0 
L 231 0 
L 231 331 
L 781 331 
L 781 2988 
L 231 2988 
L 231 3322 
L 781 3322 
L 781 3738 
Q 781 4294 1070 4578 
Q 1359 4863 1919 4863 
Q 2128 4863 2337 4825 
Q 2547 4788 2753 4709 
L 2753 4078 
z
" transform="scale(0.015625)"/>
      <path id="DejaVuSerif-29" d="M 453 -997 
L 453 -691 
Q 934 -359 1145 242 
Q 1356 844 1356 1931 
Q 1356 3022 1145 3623 
Q 934 4225 453 4556 
L 453 4863 
Q 1216 4522 1603 3783 
Q 1991 3044 1991 1931 
Q 1991 822 1603 83 
Q 1216 -656 453 -997 
z
" transform="scale(0.015625)"/>
     </defs>
     <use xlink:href="#DejaVuSerif-28"/>
     <use xlink:href="#DejaVuSerif-4d" transform="translate(39.013672 0)"/>
     <use xlink:href="#DejaVuSerif-34" transform="translate(141.40625 0)"/>
     <use xlink:href="#DejaVuSerif-20" transform="translate(205.029297 0)"/>
     <use xlink:href="#DejaVuSerif-62" transform="translate(236.816406 0)"/>
     <use xlink:href="#DejaVuSerif-75" transform="translate(300.830078 0)"/>
     <use xlink:href="#DejaVuSerif-74" transform="translate(365.234375 0)"/>
     <use xlink:href="#DejaVuSerif-74" transform="translate(405.419922 0)"/>
     <use xlink:href="#DejaVuSerif-65" transform="translate(445.605469 0)"/>
     <use xlink:href="#DejaVuSerif-72" transform="translate(504.785156 0)"/>
     <use xlink:href="#DejaVuSerif-66" transform="translate(552.587891 0)"/>
     <use xlink:href="#DejaVuSerif-6c" transform="translate(589.599609 0)"/>
     <use xlink:href="#DejaVuSerif-79" transform="translate(621.582031 0)"/>
     <use xlink:href="#DejaVuSerif-29" transform="translate(678.076172 0)"/>
    </g>
   </g>
   <g id="text_14">
    <!-- Budget-2 adaptivity envelope -->
    <g style="fill: #f2f2f2" transform="translate(299.685863 26.097891) scale(0.135 -0.135)">
     <defs>
      <path id="DejaVuSerif-42" d="M 1581 331 
L 2516 331 
Q 3078 331 3337 575 
Q 3597 819 3597 1350 
Q 3597 1878 3339 2120 
Q 3081 2363 2516 2363 
L 1581 2363 
L 1581 331 
z
M 1581 2694 
L 2375 2694 
Q 2888 2694 3123 2891 
Q 3359 3088 3359 3513 
Q 3359 3941 3123 4136 
Q 2888 4331 2375 4331 
L 1581 4331 
L 1581 2694 
z
M 353 0 
L 353 331 
L 947 331 
L 947 4331 
L 353 4331 
L 353 4666 
L 2656 4666 
Q 3363 4666 3720 4377 
Q 4078 4088 4078 3513 
Q 4078 3097 3829 2850 
Q 3581 2603 3103 2547 
Q 3697 2472 4005 2167 
Q 4313 1863 4313 1350 
Q 4313 656 3875 328 
Q 3438 0 2509 0 
L 353 0 
z
" transform="scale(0.015625)"/>
      <path id="DejaVuSerif-64" d="M 3359 331 
L 3909 331 
L 3909 0 
L 2784 0 
L 2784 519 
Q 2616 206 2355 57 
Q 2094 -91 1709 -91 
Q 1097 -91 708 395 
Q 319 881 319 1663 
Q 319 2444 706 2928 
Q 1094 3413 1709 3413 
Q 2094 3413 2355 3264 
Q 2616 3116 2784 2803 
L 2784 4531 
L 2241 4531 
L 2241 4863 
L 3359 4863 
L 3359 331 
z
M 2784 1497 
L 2784 1825 
Q 2784 2422 2554 2737 
Q 2325 3053 1888 3053 
Q 1444 3053 1217 2703 
Q 991 2353 991 1663 
Q 991 975 1217 622 
Q 1444 269 1888 269 
Q 2325 269 2554 583 
Q 2784 897 2784 1497 
z
" transform="scale(0.015625)"/>
      <path id="DejaVuSerif-2d" d="M 281 1959 
L 1881 1959 
L 1881 1472 
L 281 1472 
L 281 1959 
z
" transform="scale(0.015625)"/>
     </defs>
     <use xlink:href="#DejaVuSerif-42"/>
     <use xlink:href="#DejaVuSerif-75" transform="translate(73.486328 0)"/>
     <use xlink:href="#DejaVuSerif-64" transform="translate(137.890625 0)"/>
     <use xlink:href="#DejaVuSerif-67" transform="translate(201.904297 0)"/>
     <use xlink:href="#DejaVuSerif-65" transform="translate(265.917969 0)"/>
     <use xlink:href="#DejaVuSerif-74" transform="translate(325.097656 0)"/>
     <use xlink:href="#DejaVuSerif-2d" transform="translate(365.283203 0)"/>
     <use xlink:href="#DejaVuSerif-32" transform="translate(399.072266 0)"/>
     <use xlink:href="#DejaVuSerif-20" transform="translate(462.695312 0)"/>
     <use xlink:href="#DejaVuSerif-61" transform="translate(494.482422 0)"/>
     <use xlink:href="#DejaVuSerif-64" transform="translate(554.101562 0)"/>
     <use xlink:href="#DejaVuSerif-61" transform="translate(618.115234 0)"/>
     <use xlink:href="#DejaVuSerif-70" transform="translate(677.734375 0)"/>
     <use xlink:href="#DejaVuSerif-74" transform="translate(741.748047 0)"/>
     <use xlink:href="#DejaVuSerif-69" transform="translate(781.933594 0)"/>
     <use xlink:href="#DejaVuSerif-76" transform="translate(813.916016 0)"/>
     <use xlink:href="#DejaVuSerif-69" transform="translate(870.410156 0)"/>
     <use xlink:href="#DejaVuSerif-74" transform="translate(902.392578 0)"/>
     <use xlink:href="#DejaVuSerif-79" transform="translate(942.578125 0)"/>
     <use xlink:href="#DejaVuSerif-20" transform="translate(999.072266 0)"/>
     <use xlink:href="#DejaVuSerif-65" transform="translate(1030.859375 0)"/>
     <use xlink:href="#DejaVuSerif-6e" transform="translate(1090.039062 0)"/>
     <use xlink:href="#DejaVuSerif-76" transform="translate(1154.443359 0)"/>
     <use xlink:href="#DejaVuSerif-65" transform="translate(1210.9375 0)"/>
     <use xlink:href="#DejaVuSerif-6c" transform="translate(1270.117188 0)"/>
     <use xlink:href="#DejaVuSerif-6f" transform="translate(1302.099609 0)"/>
     <use xlink:href="#DejaVuSerif-70" transform="translate(1362.304688 0)"/>
     <use xlink:href="#DejaVuSerif-65" transform="translate(1426.318359 0)"/>
    </g>
   </g>
   <g id="line2d_22">
    <path d="M 56.79875 77.175403 
L 58.174155 90.055077 
L 60.924966 112.685208 
L 63.675777 131.924505 
L 66.426587 148.481961 
L 69.177398 162.881788 
L 71.928209 175.519934 
L 74.67902 186.701051 
L 77.42983 196.663373 
L 80.180641 205.595882 
L 82.931452 213.650409 
L 85.682262 220.950337 
L 88.433073 227.596964 
L 91.183884 233.674234 
L 93.934695 239.252299 
L 96.685505 244.390243 
L 99.436316 249.138178 
L 102.187127 253.538887 
L 104.937937 257.629116 
L 107.688748 261.440604 
L 111.814964 266.694495 
L 115.94118 271.461129 
L 120.067396 275.805287 
L 124.193612 279.780753 
L 128.319829 283.432553 
L 132.446045 286.798667 
L 136.572261 289.911359 
L 140.698477 292.798209 
L 146.200098 296.336554 
L 151.70172 299.562793 
L 157.203341 302.516475 
L 162.704962 305.230739 
L 168.206584 307.733562 
L 175.083611 310.600644 
L 181.960637 313.213316 
L 188.837664 315.604003 
L 197.090096 318.217708 
L 205.342528 320.589582 
L 214.970366 323.093604 
L 224.598203 325.353664 
L 235.601446 327.681184 
L 246.604689 329.775509 
L 258.983337 331.894191 
L 272.737391 333.997981 
L 286.491444 335.878789 
L 301.620903 337.730113 
L 318.125768 339.530313 
L 336.006037 341.263547 
L 356.637118 343.029815 
L 378.643603 344.68542 
L 403.4009 346.316598 
L 430.909007 347.894518 
L 461.167925 349.399311 
L 494.177653 350.818607 
L 531.313598 352.193244 
L 573.951164 353.541354 
L 622.090351 354.831251 
L 675.73116 356.043078 
L 737.624401 357.214022 
L 743.126023 357.308311 
L 743.126023 357.308311 
" clip-path="url(#pa2669bf6d1)" style="fill: none; stroke-dasharray: 4.2,3.5; stroke-dashoffset: 0; stroke: #8a8a8a; stroke-width: 1.4"/>
   </g>
   <g id="line2d_23">
    <path d="M 56.79875 77.175403 
L 743.126023 77.175403 
L 743.126023 77.175403 
" clip-path="url(#pa2669bf6d1)" style="fill: none; stroke: #f2f2f2; stroke-width: 2.2; stroke-linecap: square"/>
   </g>
   <g id="line2d_24">
    <path d="M 56.79875 223.331702 
L 58.174155 229.771539 
L 60.924966 241.086605 
L 63.675777 250.706254 
L 66.426587 258.984982 
L 69.177398 266.184895 
L 71.928209 272.503968 
L 74.67902 278.094527 
L 77.42983 283.075688 
L 80.180641 287.541942 
L 82.931452 291.569206 
L 85.682262 295.21917 
L 88.433073 298.542483 
L 91.183884 301.581118 
L 93.934695 304.370151 
L 98.060911 308.149067 
L 102.187127 311.513445 
L 106.313343 314.527947 
L 110.439559 317.244454 
L 114.565775 319.705071 
L 118.691991 321.94433 
L 124.193612 324.634378 
L 129.695234 327.036318 
L 135.196855 329.194083 
L 140.698477 331.143106 
L 147.575504 333.329354 
L 154.45253 335.27975 
L 162.704962 337.359371 
L 170.957395 339.20063 
L 180.585232 341.098748 
L 190.21307 342.772986 
L 201.216312 344.459864 
L 213.594961 346.119853 
L 227.349014 347.723755 
L 242.478473 349.2516 
L 258.983337 350.691097 
L 278.239012 352.131507 
L 298.870093 353.448417 
L 322.251984 354.718461 
L 349.760091 355.977073 
L 380.019009 357.135022 
L 415.779548 358.271147 
L 457.041709 359.347291 
L 505.180896 360.368083 
L 561.572516 361.330061 
L 627.591973 362.226752 
L 707.365483 363.078089 
L 743.126023 363.398156 
L 743.126023 363.398156 
" clip-path="url(#pa2669bf6d1)" style="fill: none; stroke: #cfb991; stroke-width: 2; stroke-linecap: square"/>
   </g>
   <g id="legend_1">
    <g id="patch_6">
     <path d="M 576.806023 239.316072 
L 738.626023 239.316072 
L 738.626023 178.116072 
L 576.806023 178.116072 
z
" style="fill: #0a0a0a; stroke: #3a3a3a; stroke-linejoin: miter"/>
    </g>
    <g id="patch_7">
     <path d="M 582.656023 190.806072 
L 600.656023 190.806072 
L 600.656023 184.506072 
L 582.656023 184.506072 
z
" style="fill: #f2f2f2; fill-opacity: 0.07; stroke: #f2f2f2; stroke-opacity: 0.07; stroke-linejoin: miter"/>
    </g>
    <g id="text_15">
     <!-- sharp gap $G_2(K)=1-1/K$ -->
     <g style="fill: #d0d0d0" transform="translate(607.856023 190.806072) scale(0.09 -0.09)">
      <defs>
       <path id="DejaVuSerif-73" d="M 359 184 
L 359 959 
L 691 959 
Q 703 588 923 403 
Q 1144 219 1575 219 
Q 1963 219 2166 364 
Q 2369 509 2369 788 
Q 2369 1006 2220 1140 
Q 2072 1275 1594 1428 
L 1178 1569 
Q 750 1706 558 1912 
Q 366 2119 366 2438 
Q 366 2894 700 3153 
Q 1034 3413 1625 3413 
Q 1888 3413 2178 3344 
Q 2469 3275 2778 3144 
L 2778 2419 
L 2447 2419 
Q 2434 2741 2221 2922 
Q 2009 3103 1644 3103 
Q 1281 3103 1095 2975 
Q 909 2847 909 2591 
Q 909 2381 1050 2254 
Q 1191 2128 1613 1997 
L 2069 1856 
Q 2541 1709 2748 1489 
Q 2956 1269 2956 922 
Q 2956 450 2595 179 
Q 2234 -91 1600 -91 
Q 1278 -91 972 -22 
Q 666 47 359 184 
z
" transform="scale(0.015625)"/>
       <path id="DejaVuSerif-68" d="M 263 0 
L 263 331 
L 781 331 
L 781 4531 
L 231 4531 
L 231 4863 
L 1356 4863 
L 1356 2731 
Q 1516 3069 1770 3241 
Q 2025 3413 2363 3413 
Q 2913 3413 3172 3097 
Q 3431 2781 3431 2113 
L 3431 331 
L 3944 331 
L 3944 0 
L 2356 0 
L 2356 331 
L 2853 331 
L 2853 1931 
Q 2853 2541 2704 2764 
Q 2556 2988 2175 2988 
Q 1775 2988 1565 2697 
Q 1356 2406 1356 1850 
L 1356 331 
L 1856 331 
L 1856 0 
L 263 0 
z
" transform="scale(0.015625)"/>
       <path id="Cmmi10-47" d="M 934 1403 
Q 934 1006 1092 707 
Q 1250 409 1547 246 
Q 1844 84 2234 84 
Q 2616 84 2959 264 
Q 3303 444 3391 781 
L 3531 1331 
Q 3534 1350 3537 1370 
Q 3541 1391 3541 1403 
Q 3541 1469 3500 1478 
Q 3341 1522 2859 1522 
Q 2797 1522 2797 1606 
Q 2816 1684 2831 1715 
Q 2847 1747 2906 1747 
L 4556 1747 
Q 4622 1747 4622 1663 
Q 4619 1647 4609 1609 
Q 4600 1572 4584 1547 
Q 4569 1522 4538 1522 
Q 4325 1522 4226 1487 
Q 4128 1453 4091 1306 
L 3950 756 
L 3769 44 
Q 3759 0 3713 0 
Q 3659 0 3559 144 
Q 3459 288 3419 384 
Q 3197 122 2825 -9 
Q 2453 -141 2059 -141 
Q 1563 -141 1164 84 
Q 766 309 545 709 
Q 325 1109 325 1613 
Q 325 2150 564 2673 
Q 803 3197 1212 3611 
Q 1622 4025 2142 4269 
Q 2663 4513 3194 4513 
Q 3406 4513 3601 4447 
Q 3797 4381 3964 4251 
Q 4131 4122 4238 3950 
L 4744 4500 
Q 4744 4513 4775 4513 
L 4813 4513 
Q 4838 4513 4855 4492 
Q 4872 4472 4872 4447 
L 4434 2719 
Q 4434 2675 4384 2675 
L 4269 2675 
Q 4219 2675 4219 2747 
Q 4244 2888 4244 3078 
Q 4244 3394 4137 3672 
Q 4031 3950 3806 4119 
Q 3581 4288 3256 4288 
Q 2741 4288 2303 4027 
Q 1866 3766 1562 3337 
Q 1259 2909 1096 2396 
Q 934 1884 934 1403 
z
" transform="scale(0.015625)"/>
       <path id="Cmr10-28" d="M 1984 -1588 
Q 1628 -1306 1370 -942 
Q 1113 -578 948 -165 
Q 784 247 703 697 
Q 622 1147 622 1600 
Q 622 2059 703 2509 
Q 784 2959 951 3375 
Q 1119 3791 1378 4153 
Q 1638 4516 1984 4788 
Q 1984 4800 2016 4800 
L 2075 4800 
Q 2094 4800 2109 4783 
Q 2125 4766 2125 4744 
Q 2125 4716 2113 4703 
Q 1800 4397 1592 4047 
Q 1384 3697 1257 3301 
Q 1131 2906 1075 2482 
Q 1019 2059 1019 1600 
Q 1019 -434 2106 -1491 
Q 2125 -1509 2125 -1544 
Q 2125 -1559 2108 -1579 
Q 2091 -1600 2075 -1600 
L 2016 -1600 
Q 1984 -1600 1984 -1588 
z
" transform="scale(0.015625)"/>
       <path id="Cmr10-29" d="M 416 -1600 
Q 359 -1600 359 -1544 
Q 359 -1516 372 -1503 
Q 1466 -434 1466 1600 
Q 1466 3634 384 4691 
Q 359 4706 359 4744 
Q 359 4766 376 4783 
Q 394 4800 416 4800 
L 475 4800 
Q 494 4800 506 4788 
Q 966 4425 1272 3906 
Q 1578 3388 1720 2800 
Q 1863 2213 1863 1600 
Q 1863 1147 1786 708 
Q 1709 269 1542 -157 
Q 1375 -584 1119 -945 
Q 863 -1306 506 -1588 
Q 494 -1600 475 -1600 
L 416 -1600 
z
" transform="scale(0.015625)"/>
       <path id="Cmsy10-a1" d="M 653 1472 
Q 600 1472 565 1512 
Q 531 1553 531 1600 
Q 531 1647 565 1687 
Q 600 1728 653 1728 
L 4325 1728 
Q 4375 1728 4408 1687 
Q 4441 1647 4441 1600 
Q 4441 1553 4408 1512 
Q 4375 1472 4325 1472 
L 653 1472 
z
" transform="scale(0.015625)"/>
      </defs>
      <use xlink:href="#DejaVuSerif-73" transform="translate(0 0.015625)"/>
      <use xlink:href="#DejaVuSerif-68" transform="translate(51.318359 0.015625)"/>
      <use xlink:href="#DejaVuSerif-61" transform="translate(115.722656 0.015625)"/>
      <use xlink:href="#DejaVuSerif-72" transform="translate(175.341797 0.015625)"/>
      <use xlink:href="#DejaVuSerif-70" transform="translate(223.144531 0.015625)"/>
      <use xlink:href="#DejaVuSerif-20" transform="translate(287.158203 0.015625)"/>
      <use xlink:href="#DejaVuSerif-67" transform="translate(318.945312 0.015625)"/>
      <use xlink:href="#DejaVuSerif-61" transform="translate(382.958984 0.015625)"/>
      <use xlink:href="#DejaVuSerif-70" transform="translate(442.578125 0.015625)"/>
      <use xlink:href="#DejaVuSerif-20" transform="translate(506.591797 0.015625)"/>
      <use xlink:href="#Cmmi10-47" transform="translate(538.378906 0.015625)"/>
      <use xlink:href="#Cmr10-32" transform="translate(616.992188 -16.990625) scale(0.7)"/>
      <use xlink:href="#Cmr10-28" transform="translate(658.369531 0.015625)"/>
      <use xlink:href="#Cmmi10-4b" transform="translate(697.187891 0.015625)"/>
      <use xlink:href="#Cmr10-29" transform="translate(782.1 0.015625)"/>
      <use xlink:href="#Cmr10-3d" transform="translate(838.476953 0.015625)"/>
      <use xlink:href="#Cmr10-31" transform="translate(933.721094 0.015625)"/>
      <use xlink:href="#Cmsy10-a1" transform="translate(1001.279688 0.015625)"/>
      <use xlink:href="#Cmr10-31" transform="translate(1096.523828 0.015625)"/>
      <use xlink:href="#Cmmi10-3d" transform="translate(1146.523828 0.015625)"/>
      <use xlink:href="#Cmmi10-4b" transform="translate(1196.523828 0.015625)"/>
     </g>
    </g>
    <g id="line2d_25">
     <path d="M 582.656023 201.246072 
L 591.656023 201.246072 
L 600.656023 201.246072 
" style="fill: none; stroke: #f2f2f2; stroke-width: 2.2; stroke-linecap: square"/>
    </g>
    <g id="text_16">
     <!-- adaptive  $D=1$ -->
     <g style="fill: #d0d0d0" transform="translate(607.856023 204.396072) scale(0.09 -0.09)">
      <defs>
       <path id="Cmmi10-44" d="M 313 0 
Q 250 0 250 84 
Q 253 100 262 139 
Q 272 178 289 201 
Q 306 225 331 225 
Q 722 225 878 269 
Q 959 297 997 441 
L 1875 3956 
Q 1888 4019 1888 4044 
Q 1888 4113 1813 4122 
Q 1691 4147 1350 4147 
Q 1288 4147 1288 4231 
Q 1291 4247 1300 4286 
Q 1309 4325 1326 4348 
Q 1344 4372 1369 4372 
L 3669 4372 
Q 4116 4372 4450 4155 
Q 4784 3938 4962 3570 
Q 5141 3203 5141 2759 
Q 5141 2269 4937 1778 
Q 4734 1288 4368 881 
Q 4003 475 3534 237 
Q 3066 0 2572 0 
L 313 0 
z
M 1509 275 
Q 1509 225 1728 225 
L 2472 225 
Q 2828 225 3159 372 
Q 3491 519 3750 775 
Q 3991 1016 4175 1406 
Q 4359 1797 4461 2222 
Q 4563 2647 4563 3003 
Q 4563 3263 4486 3472 
Q 4409 3681 4270 3831 
Q 4131 3981 3922 4064 
Q 3713 4147 3450 4147 
L 2747 4147 
Q 2572 4147 2515 4117 
Q 2459 4088 2413 3928 
L 1538 416 
Q 1509 338 1509 275 
z
" transform="scale(0.015625)"/>
      </defs>
      <use xlink:href="#DejaVuSerif-61" transform="translate(0 0.015625)"/>
      <use xlink:href="#DejaVuSerif-64" transform="translate(59.619141 0.015625)"/>
      <use xlink:href="#DejaVuSerif-61" transform="translate(123.632812 0.015625)"/>
      <use xlink:href="#DejaVuSerif-70" transform="translate(183.251953 0.015625)"/>
      <use xlink:href="#DejaVuSerif-74" transform="translate(247.265625 0.015625)"/>
      <use xlink:href="#DejaVuSerif-69" transform="translate(287.451172 0.015625)"/>
      <use xlink:href="#DejaVuSerif-76" transform="translate(319.433594 0.015625)"/>
      <use xlink:href="#DejaVuSerif-65" transform="translate(375.927734 0.015625)"/>
      <use xlink:href="#DejaVuSerif-20" transform="translate(435.107422 0.015625)"/>
      <use xlink:href="#DejaVuSerif-20" transform="translate(466.894531 0.015625)"/>
      <use xlink:href="#Cmmi10-44" transform="translate(498.681641 0.015625)"/>
      <use xlink:href="#Cmr10-3d" transform="translate(598.955078 0.015625)"/>
      <use xlink:href="#Cmr10-31" transform="translate(694.199219 0.015625)"/>
     </g>
    </g>
    <g id="line2d_26">
     <path d="M 582.656023 214.476072 
L 591.656023 214.476072 
L 600.656023 214.476072 
" style="fill: none; stroke: #cfb991; stroke-width: 2; stroke-linecap: square"/>
    </g>
    <g id="text_17">
     <!-- sharp nonadaptive  $D=1/K$ -->
     <g style="fill: #d0d0d0" transform="translate(607.856023 217.626072) scale(0.09 -0.09)">
      <use xlink:href="#DejaVuSerif-73" transform="translate(0 0.015625)"/>
      <use xlink:href="#DejaVuSerif-68" transform="translate(51.318359 0.015625)"/>
      <use xlink:href="#DejaVuSerif-61" transform="translate(115.722656 0.015625)"/>
      <use xlink:href="#DejaVuSerif-72" transform="translate(175.341797 0.015625)"/>
      <use xlink:href="#DejaVuSerif-70" transform="translate(223.144531 0.015625)"/>
      <use xlink:href="#DejaVuSerif-20" transform="translate(287.158203 0.015625)"/>
      <use xlink:href="#DejaVuSerif-6e" transform="translate(318.945312 0.015625)"/>
      <use xlink:href="#DejaVuSerif-6f" transform="translate(383.349609 0.015625)"/>
      <use xlink:href="#DejaVuSerif-6e" transform="translate(443.554688 0.015625)"/>
      <use xlink:href="#DejaVuSerif-61" transform="translate(507.958984 0.015625)"/>
      <use xlink:href="#DejaVuSerif-64" transform="translate(567.578125 0.015625)"/>
      <use xlink:href="#DejaVuSerif-61" transform="translate(631.591797 0.015625)"/>
      <use xlink:href="#DejaVuSerif-70" transform="translate(691.210938 0.015625)"/>
      <use xlink:href="#DejaVuSerif-74" transform="translate(755.224609 0.015625)"/>
      <use xlink:href="#DejaVuSerif-69" transform="translate(795.410156 0.015625)"/>
      <use xlink:href="#DejaVuSerif-76" transform="translate(827.392578 0.015625)"/>
      <use xlink:href="#DejaVuSerif-65" transform="translate(883.886719 0.015625)"/>
      <use xlink:href="#DejaVuSerif-20" transform="translate(943.066406 0.015625)"/>
      <use xlink:href="#DejaVuSerif-20" transform="translate(974.853516 0.015625)"/>
      <use xlink:href="#Cmmi10-44" transform="translate(1006.640625 0.015625)"/>
      <use xlink:href="#Cmr10-3d" transform="translate(1106.914062 0.015625)"/>
      <use xlink:href="#Cmr10-31" transform="translate(1202.158203 0.015625)"/>
      <use xlink:href="#Cmmi10-3d" transform="translate(1252.158203 0.015625)"/>
      <use xlink:href="#Cmmi10-4b" transform="translate(1302.158203 0.015625)"/>
     </g>
    </g>
    <g id="line2d_27">
     <path d="M 582.656023 228.066072 
L 591.656023 228.066072 
L 600.656023 228.066072 
" style="fill: none; stroke-dasharray: 4.2,3.5; stroke-dashoffset: 0; stroke: #8a8a8a; stroke-width: 1.4"/>
    </g>
    <g id="text_18">
     <!-- k-pair habitat  $D=2/k$ -->
     <g style="fill: #d0d0d0" transform="translate(607.856023 231.216072) scale(0.09 -0.09)">
      <defs>
       <path id="DejaVuSerif-6b" d="M 1831 0 
L 219 0 
L 219 331 
L 738 331 
L 738 4531 
L 184 4531 
L 184 4863 
L 1313 4863 
L 1313 1697 
L 2713 2988 
L 2234 2988 
L 2234 3322 
L 3738 3322 
L 3738 2988 
L 3169 2988 
L 2181 2075 
L 3444 331 
L 3922 331 
L 3922 0 
L 2284 0 
L 2284 331 
L 2759 331 
L 1766 1697 
L 1313 1275 
L 1313 331 
L 1831 331 
L 1831 0 
z
" transform="scale(0.015625)"/>
       <path id="Cmmi10-6b" d="M 341 116 
Q 341 153 347 172 
L 1275 3872 
Q 1300 3981 1306 4044 
Q 1306 4147 891 4147 
Q 825 4147 825 4231 
Q 828 4247 839 4287 
Q 850 4328 867 4350 
Q 884 4372 916 4372 
L 1778 4441 
L 1797 4441 
Q 1797 4434 1819 4423 
Q 1841 4413 1844 4409 
Q 1856 4378 1856 4359 
L 1184 1684 
Q 1416 1781 1767 2145 
Q 2119 2509 2317 2668 
Q 2516 2828 2816 2828 
Q 2994 2828 3119 2706 
Q 3244 2584 3244 2406 
Q 3244 2294 3197 2198 
Q 3150 2103 3065 2043 
Q 2981 1984 2869 1984 
Q 2766 1984 2695 2048 
Q 2625 2113 2625 2216 
Q 2625 2369 2733 2473 
Q 2841 2578 2994 2578 
Q 2931 2663 2803 2663 
Q 2613 2663 2436 2553 
Q 2259 2444 2054 2239 
Q 1850 2034 1681 1864 
Q 1513 1694 1369 1606 
Q 1747 1563 2025 1408 
Q 2303 1253 2303 934 
Q 2303 869 2278 769 
Q 2222 528 2222 384 
Q 2222 97 2419 97 
Q 2650 97 2770 350 
Q 2891 603 2969 941 
Q 2981 978 3022 978 
L 3097 978 
Q 3122 978 3139 962 
Q 3156 947 3156 922 
Q 3156 916 3150 903 
Q 2909 -72 2406 -72 
Q 2225 -72 2086 12 
Q 1947 97 1872 242 
Q 1797 388 1797 569 
Q 1797 672 1825 781 
Q 1844 856 1844 922 
Q 1844 1169 1625 1297 
Q 1406 1425 1125 1453 
L 800 147 
Q 775 50 703 -11 
Q 631 -72 538 -72 
Q 456 -72 398 -17 
Q 341 38 341 116 
z
" transform="scale(0.015625)"/>
      </defs>
      <use xlink:href="#DejaVuSerif-6b" transform="translate(0 0.015625)"/>
      <use xlink:href="#DejaVuSerif-2d" transform="translate(60.595703 0.015625)"/>
      <use xlink:href="#DejaVuSerif-70" transform="translate(94.384766 0.015625)"/>
      <use xlink:href="#DejaVuSerif-61" transform="translate(158.398438 0.015625)"/>
      <use xlink:href="#DejaVuSerif-69" transform="translate(218.017578 0.015625)"/>
      <use xlink:href="#DejaVuSerif-72" transform="translate(250 0.015625)"/>
      <use xlink:href="#DejaVuSerif-20" transform="translate(297.802734 0.015625)"/>
      <use xlink:href="#DejaVuSerif-68" transform="translate(329.589844 0.015625)"/>
      <use xlink:href="#DejaVuSerif-61" transform="translate(393.994141 0.015625)"/>
      <use xlink:href="#DejaVuSerif-62" transform="translate(453.613281 0.015625)"/>
      <use xlink:href="#DejaVuSerif-69" transform="translate(517.626953 0.015625)"/>
      <use xlink:href="#DejaVuSerif-74" transform="translate(549.609375 0.015625)"/>
      <use xlink:href="#DejaVuSerif-61" transform="translate(589.794922 0.015625)"/>
      <use xlink:href="#DejaVuSerif-74" transform="translate(649.414062 0.015625)"/>
      <use xlink:href="#DejaVuSerif-20" transform="translate(689.599609 0.015625)"/>
      <use xlink:href="#DejaVuSerif-20" transform="translate(721.386719 0.015625)"/>
      <use xlink:href="#Cmmi10-44" transform="translate(753.173828 0.015625)"/>
      <use xlink:href="#Cmr10-3d" transform="translate(853.447266 0.015625)"/>
      <use xlink:href="#Cmr10-32" transform="translate(948.691406 0.015625)"/>
      <use xlink:href="#Cmmi10-3d" transform="translate(998.691406 0.015625)"/>
      <use xlink:href="#Cmmi10-6b" transform="translate(1048.691406 0.015625)"/>
     </g>
    </g>
   </g>
   <g id="PathCollection_1">
    <defs>
     <path id="m2d57fa48d8" d="M 0 3.464102 
C 0.91869 3.464102 1.799877 3.099102 2.44949 2.44949 
C 3.099102 1.799877 3.464102 0.91869 3.464102 0 
C 3.464102 -0.91869 3.099102 -1.799877 2.44949 -2.44949 
C 1.799877 -3.099102 0.91869 -3.464102 0 -3.464102 
C -0.91869 -3.464102 -1.799877 -3.099102 -2.44949 -2.44949 
C -3.099102 -1.799877 -3.464102 -0.91869 -3.464102 0 
C -3.464102 0.91869 -3.099102 1.799877 -2.44949 2.44949 
C -1.799877 3.099102 -0.91869 3.464102 0 3.464102 
z
" style="stroke: #000000; stroke-width: 0.8"/>
    </defs>
    <g clip-path="url(#pa2669bf6d1)">
     <use xlink:href="#m2d57fa48d8" x="56.79875" y="223.331702" style="fill: #f2f2f2; stroke: #000000; stroke-width: 0.8"/>
    </g>
   </g>
   <g id="text_19">
    <g id="patch_8">
     <path d="M 470.288177 206.596694 
L 575.548177 206.596694 
L 575.548177 188.546694 
L 470.288177 188.546694 
z
" style="stroke: #d0d0d0; stroke-width: 0.9; stroke-linejoin: miter"/>
    </g>
    <!-- $G_2(K)=1-1/K$  →  1 -->
    <g style="fill: #f2f2f2" transform="translate(474.563177 199.946694) scale(0.095 -0.095)">
     <defs>
      <path id="DejaVuSerif-2192" d="M 366 2322 
L 4391 2322 
L 3788 3375 
L 3822 3375 
L 5125 2084 
L 5125 2053 
L 3822 763 
L 3788 763 
L 4391 1816 
L 366 1816 
L 366 2322 
z
" transform="scale(0.015625)"/>
     </defs>
     <use xlink:href="#Cmmi10-47"/>
     <use xlink:href="#Cmr10-32" transform="translate(78.613281 -17.00625) scale(0.7)"/>
     <use xlink:href="#Cmr10-28" transform="translate(119.990625 0)"/>
     <use xlink:href="#Cmmi10-4b" transform="translate(158.808984 0)"/>
     <use xlink:href="#Cmr10-29" transform="translate(243.721094 0)"/>
     <use xlink:href="#Cmr10-3d" transform="translate(300.098047 0)"/>
     <use xlink:href="#Cmr10-31" transform="translate(395.342188 0)"/>
     <use xlink:href="#Cmsy10-a1" transform="translate(462.900781 0)"/>
     <use xlink:href="#Cmr10-31" transform="translate(558.144922 0)"/>
     <use xlink:href="#Cmmi10-3d" transform="translate(608.144922 0)"/>
     <use xlink:href="#Cmmi10-4b" transform="translate(658.144922 0)"/>
     <use xlink:href="#DejaVuSerif-20" transform="translate(743.057031 0)"/>
     <use xlink:href="#DejaVuSerif-20" transform="translate(774.844141 0)"/>
     <use xlink:href="#DejaVuSerif-2192" transform="translate(806.63125 0)"/>
     <use xlink:href="#DejaVuSerif-20" transform="translate(890.420313 0)"/>
     <use xlink:href="#DejaVuSerif-20" transform="translate(922.207422 0)"/>
     <use xlink:href="#DejaVuSerif-31" transform="translate(953.994531 0)"/>
    </g>
   </g>
  </g>
 </g>
 <defs>
  <clipPath id="pa2669bf6d1">
   <rect x="56.79875" y="42.097891" width="686.327273" height="333.236364"/>
  </clipPath>
 </defs>
</svg>
