<?xml version="1.0" encoding="utf-8" standalone="no"?>
<!DOCTYPE svg PUBLIC "-//W3C//DTD SVG 1.1//EN"
  "http://www.w3.org/Graphics/SVG/1.1/DTD/svg11.dtd">
<svg xmlns:xlink="http://www.w3.org/1999/xlink" width="640.574062pt" height="353.302031pt" viewBox="0 0 640.574062 353.302031" xmlns="http://www.w3.org/2000/svg" version="1.1">
 <metadata>
  <rdf:RDF xmlns:dc="http://purl.org/dc/elements/1.1/" xmlns:cc="http://creativecommons.org/ns#" xmlns:rdf="http://www.w3.org/1999/02/22-rdf-syntax-ns#">
   <cc:Work>
    <dc:type rdf:resource="http://purl.org/dc/dcmitype/StillImage"/>
    <dc:date>2026-07-12T14:09:22.407300</dc:date>
    <dc:format>image/svg+xml</dc:format>
    <dc:creator>
     <cc:Agent>
      <dc:title>Matplotlib v3.10.9, https://matplotlib.org/</dc:title>
     </cc:Agent>
    </dc:creator>
   </cc:Work>
  </rdf:RDF>
 </metadata>
 <defs>
  <style type="text/css">*{stroke-linejoin: round; stroke-linecap: butt}</style>
 </defs>
 <g id="figure_1">
  <g id="patch_1">
   <path d="M 0 353.302031 
L 640.574062 353.302031 
L 640.574062 0 
L 0 0 
z
" style="fill: #ffffff"/>
  </g>
  <g id="axes_1">
   <g id="patch_2">
    <path d="M 44.749063 314.777969 
L 633.374062 314.777969 
L 633.374062 29.077969 
L 44.749063 29.077969 
z
" style="fill: #f7f1e5"/>
   </g>
   <g id="matplotlib.axis_1">
    <g id="xtick_1">
     <g id="line2d_1">
      <path d="M 113.750558 314.777969 
L 113.750558 29.077969 
" clip-path="url(#pc6b9cd2096)" style="fill: none; stroke-dasharray: 2.96,1.28; stroke-dashoffset: 0; stroke: #cfb991; stroke-opacity: 0.35; stroke-width: 0.8"/>
     </g>
     <g id="line2d_2">
      <defs>
       <path id="m74c07c1910" d="M 0 0 
L 0 3.5 
" style="stroke: #4a4a4a; stroke-width: 0.8"/>
      </defs>
      <g>
       <use xlink:href="#m74c07c1910" x="113.750558" y="314.777969" style="fill: #4a4a4a; stroke: #4a4a4a; stroke-width: 0.8"/>
      </g>
     </g>
     <g id="text_1">
      <!-- 5 -->
      <g style="fill: #4a4a4a" transform="translate(110.569308 329.376406) scale(0.1 -0.1)">
       <defs>
        <path id="DejaVuSans-35" d="M 691 4666 
L 3169 4666 
L 3169 4134 
L 1269 4134 
L 1269 2991 
Q 1406 3038 1543 3061 
Q 1681 3084 1819 3084 
Q 2600 3084 3056 2656 
Q 3513 2228 3513 1497 
Q 3513 744 3044 326 
Q 2575 -91 1722 -91 
Q 1428 -91 1123 -41 
Q 819 9 494 109 
L 494 744 
Q 775 591 1075 516 
Q 1375 441 1709 441 
Q 2250 441 2565 725 
Q 2881 1009 2881 1497 
Q 2881 1984 2565 2268 
Q 2250 2553 1709 2553 
Q 1456 2553 1204 2497 
Q 953 2441 691 2322 
L 691 4666 
z
" transform="scale(0.015625)"/>
       </defs>
       <use xlink:href="#DejaVuSans-35"/>
      </g>
     </g>
    </g>
    <g id="xtick_2">
     <g id="line2d_3">
      <path d="M 184.160247 314.777969 
L 184.160247 29.077969 
" clip-path="url(#pc6b9cd2096)" style="fill: none; stroke-dasharray: 2.96,1.28; stroke-dashoffset: 0; stroke: #cfb991; stroke-opacity: 0.35; stroke-width: 0.8"/>
     </g>
     <g id="line2d_4">
      <g>
       <use xlink:href="#m74c07c1910" x="184.160247" y="314.777969" style="fill: #4a4a4a; stroke: #4a4a4a; stroke-width: 0.8"/>
      </g>
     </g>
     <g id="text_2">
      <!-- 10 -->
      <g style="fill: #4a4a4a" transform="translate(177.797747 329.376406) scale(0.1 -0.1)">
       <defs>
        <path id="DejaVuSans-31" d="M 794 531 
L 1825 531 
L 1825 4091 
L 703 3866 
L 703 4441 
L 1819 4666 
L 2450 4666 
L 2450 531 
L 3481 531 
L 3481 0 
L 794 0 
L 794 531 
z
" transform="scale(0.015625)"/>
        <path id="DejaVuSans-30" d="M 2034 4250 
Q 1547 4250 1301 3770 
Q 1056 3291 1056 2328 
Q 1056 1369 1301 889 
Q 1547 409 2034 409 
Q 2525 409 2770 889 
Q 3016 1369 3016 2328 
Q 3016 3291 2770 3770 
Q 2525 4250 2034 4250 
z
M 2034 4750 
Q 2819 4750 3233 4129 
Q 3647 3509 3647 2328 
Q 3647 1150 3233 529 
Q 2819 -91 2034 -91 
Q 1250 -91 836 529 
Q 422 1150 422 2328 
Q 422 3509 836 4129 
Q 1250 4750 2034 4750 
z
" transform="scale(0.015625)"/>
       </defs>
       <use xlink:href="#DejaVuSans-31"/>
       <use xlink:href="#DejaVuSans-30" transform="translate(63.623047 0)"/>
      </g>
     </g>
    </g>
    <g id="xtick_3">
     <g id="line2d_5">
      <path d="M 254.569936 314.777969 
L 254.569936 29.077969 
" clip-path="url(#pc6b9cd2096)" style="fill: none; stroke-dasharray: 2.96,1.28; stroke-dashoffset: 0; stroke: #cfb991; stroke-opacity: 0.35; stroke-width: 0.8"/>
     </g>
     <g id="line2d_6">
      <g>
       <use xlink:href="#m74c07c1910" x="254.569936" y="314.777969" style="fill: #4a4a4a; stroke: #4a4a4a; stroke-width: 0.8"/>
      </g>
     </g>
     <g id="text_3">
      <!-- 15 -->
      <g style="fill: #4a4a4a" transform="translate(248.207436 329.376406) scale(0.1 -0.1)">
       <use xlink:href="#DejaVuSans-31"/>
       <use xlink:href="#DejaVuSans-35" transform="translate(63.623047 0)"/>
      </g>
     </g>
    </g>
    <g id="xtick_4">
     <g id="line2d_7">
      <path d="M 324.979625 314.777969 
L 324.979625 29.077969 
" clip-path="url(#pc6b9cd2096)" style="fill: none; stroke-dasharray: 2.96,1.28; stroke-dashoffset: 0; stroke: #cfb991; stroke-opacity: 0.35; stroke-width: 0.8"/>
     </g>
     <g id="line2d_8">
      <g>
       <use xlink:href="#m74c07c1910" x="324.979625" y="314.777969" style="fill: #4a4a4a; stroke: #4a4a4a; stroke-width: 0.8"/>
      </g>
     </g>
     <g id="text_4">
      <!-- 20 -->
      <g style="fill: #4a4a4a" transform="translate(318.617125 329.376406) scale(0.1 -0.1)">
       <defs>
        <path id="DejaVuSans-32" d="M 1228 531 
L 3431 531 
L 3431 0 
L 469 0 
L 469 531 
Q 828 903 1448 1529 
Q 2069 2156 2228 2338 
Q 2531 2678 2651 2914 
Q 2772 3150 2772 3378 
Q 2772 3750 2511 3984 
Q 2250 4219 1831 4219 
Q 1534 4219 1204 4116 
Q 875 4013 500 3803 
L 500 4441 
Q 881 4594 1212 4672 
Q 1544 4750 1819 4750 
Q 2544 4750 2975 4387 
Q 3406 4025 3406 3419 
Q 3406 3131 3298 2873 
Q 3191 2616 2906 2266 
Q 2828 2175 2409 1742 
Q 1991 1309 1228 531 
z
" transform="scale(0.015625)"/>
       </defs>
       <use xlink:href="#DejaVuSans-32"/>
       <use xlink:href="#DejaVuSans-30" transform="translate(63.623047 0)"/>
      </g>
     </g>
    </g>
    <g id="xtick_5">
     <g id="line2d_9">
      <path d="M 395.389314 314.777969 
L 395.389314 29.077969 
" clip-path="url(#pc6b9cd2096)" style="fill: none; stroke-dasharray: 2.96,1.28; stroke-dashoffset: 0; stroke: #cfb991; stroke-opacity: 0.35; stroke-width: 0.8"/>
     </g>
     <g id="line2d_10">
      <g>
       <use xlink:href="#m74c07c1910" x="395.389314" y="314.777969" style="fill: #4a4a4a; stroke: #4a4a4a; stroke-width: 0.8"/>
      </g>
     </g>
     <g id="text_5">
      <!-- 25 -->
      <g style="fill: #4a4a4a" transform="translate(389.026814 329.376406) scale(0.1 -0.1)">
       <use xlink:href="#DejaVuSans-32"/>
       <use xlink:href="#DejaVuSans-35" transform="translate(63.623047 0)"/>
      </g>
     </g>
    </g>
    <g id="xtick_6">
     <g id="line2d_11">
      <path d="M 465.799003 314.777969 
L 465.799003 29.077969 
" clip-path="url(#pc6b9cd2096)" style="fill: none; stroke-dasharray: 2.96,1.28; stroke-dashoffset: 0; stroke: #cfb991; stroke-opacity: 0.35; stroke-width: 0.8"/>
     </g>
     <g id="line2d_12">
      <g>
       <use xlink:href="#m74c07c1910" x="465.799003" y="314.777969" style="fill: #4a4a4a; stroke: #4a4a4a; stroke-width: 0.8"/>
      </g>
     </g>
     <g id="text_6">
      <!-- 30 -->
      <g style="fill: #4a4a4a" transform="translate(459.436503 329.376406) scale(0.1 -0.1)">
       <defs>
        <path id="DejaVuSans-33" d="M 2597 2516 
Q 3050 2419 3304 2112 
Q 3559 1806 3559 1356 
Q 3559 666 3084 287 
Q 2609 -91 1734 -91 
Q 1441 -91 1130 -33 
Q 819 25 488 141 
L 488 750 
Q 750 597 1062 519 
Q 1375 441 1716 441 
Q 2309 441 2620 675 
Q 2931 909 2931 1356 
Q 2931 1769 2642 2001 
Q 2353 2234 1838 2234 
L 1294 2234 
L 1294 2753 
L 1863 2753 
Q 2328 2753 2575 2939 
Q 2822 3125 2822 3475 
Q 2822 3834 2567 4026 
Q 2313 4219 1838 4219 
Q 1578 4219 1281 4162 
Q 984 4106 628 3988 
L 628 4550 
Q 988 4650 1302 4700 
Q 1616 4750 1894 4750 
Q 2613 4750 3031 4423 
Q 3450 4097 3450 3541 
Q 3450 3153 3228 2886 
Q 3006 2619 2597 2516 
z
" transform="scale(0.015625)"/>
       </defs>
       <use xlink:href="#DejaVuSans-33"/>
       <use xlink:href="#DejaVuSans-30" transform="translate(63.623047 0)"/>
      </g>
     </g>
    </g>
    <g id="xtick_7">
     <g id="line2d_13">
      <path d="M 536.208692 314.777969 
L 536.208692 29.077969 
" clip-path="url(#pc6b9cd2096)" style="fill: none; stroke-dasharray: 2.96,1.28; stroke-dashoffset: 0; stroke: #cfb991; stroke-opacity: 0.35; stroke-width: 0.8"/>
     </g>
     <g id="line2d_14">
      <g>
       <use xlink:href="#m74c07c1910" x="536.208692" y="314.777969" style="fill: #4a4a4a; stroke: #4a4a4a; stroke-width: 0.8"/>
      </g>
     </g>
     <g id="text_7">
      <!-- 35 -->
      <g style="fill: #4a4a4a" transform="translate(529.846192 329.376406) scale(0.1 -0.1)">
       <use xlink:href="#DejaVuSans-33"/>
       <use xlink:href="#DejaVuSans-35" transform="translate(63.623047 0)"/>
      </g>
     </g>
    </g>
    <g id="xtick_8">
     <g id="line2d_15">
      <path d="M 606.618381 314.777969 
L 606.618381 29.077969 
" clip-path="url(#pc6b9cd2096)" style="fill: none; stroke-dasharray: 2.96,1.28; stroke-dashoffset: 0; stroke: #cfb991; stroke-opacity: 0.35; stroke-width: 0.8"/>
     </g>
     <g id="line2d_16">
      <g>
       <use xlink:href="#m74c07c1910" x="606.618381" y="314.777969" style="fill: #4a4a4a; stroke: #4a4a4a; stroke-width: 0.8"/>
      </g>
     </g>
     <g id="text_8">
      <!-- 40 -->
      <g style="fill: #4a4a4a" transform="translate(600.255881 329.376406) scale(0.1 -0.1)">
       <defs>
        <path id="DejaVuSans-34" d="M 2419 4116 
L 825 1625 
L 2419 1625 
L 2419 4116 
z
M 2253 4666 
L 3047 4666 
L 3047 1625 
L 3713 1625 
L 3713 1100 
L 3047 1100 
L 3047 0 
L 2419 0 
L 2419 1100 
L 313 1100 
L 313 1709 
L 2253 4666 
z
" transform="scale(0.015625)"/>
       </defs>
       <use xlink:href="#DejaVuSans-34"/>
       <use xlink:href="#DejaVuSans-30" transform="translate(63.623047 0)"/>
      </g>
     </g>
    </g>
    <g id="text_9">
     <!-- arity / branching K -->
     <g style="fill: #4a4a4a" transform="translate(288.163359 343.814375) scale(0.11 -0.11)">
      <defs>
       <path id="DejaVuSans-61" d="M 2194 1759 
Q 1497 1759 1228 1600 
Q 959 1441 959 1056 
Q 959 750 1161 570 
Q 1363 391 1709 391 
Q 2188 391 2477 730 
Q 2766 1069 2766 1631 
L 2766 1759 
L 2194 1759 
z
M 3341 1997 
L 3341 0 
L 2766 0 
L 2766 531 
Q 2569 213 2275 61 
Q 1981 -91 1556 -91 
Q 1019 -91 701 211 
Q 384 513 384 1019 
Q 384 1609 779 1909 
Q 1175 2209 1959 2209 
L 2766 2209 
L 2766 2266 
Q 2766 2663 2505 2880 
Q 2244 3097 1772 3097 
Q 1472 3097 1187 3025 
Q 903 2953 641 2809 
L 641 3341 
Q 956 3463 1253 3523 
Q 1550 3584 1831 3584 
Q 2591 3584 2966 3190 
Q 3341 2797 3341 1997 
z
" transform="scale(0.015625)"/>
       <path id="DejaVuSans-72" d="M 2631 2963 
Q 2534 3019 2420 3045 
Q 2306 3072 2169 3072 
Q 1681 3072 1420 2755 
Q 1159 2438 1159 1844 
L 1159 0 
L 581 0 
L 581 3500 
L 1159 3500 
L 1159 2956 
Q 1341 3275 1631 3429 
Q 1922 3584 2338 3584 
Q 2397 3584 2469 3576 
Q 2541 3569 2628 3553 
L 2631 2963 
z
" transform="scale(0.015625)"/>
       <path id="DejaVuSans-69" d="M 603 3500 
L 1178 3500 
L 1178 0 
L 603 0 
L 603 3500 
z
M 603 4863 
L 1178 4863 
L 1178 4134 
L 603 4134 
L 603 4863 
z
" transform="scale(0.015625)"/>
       <path id="DejaVuSans-74" d="M 1172 4494 
L 1172 3500 
L 2356 3500 
L 2356 3053 
L 1172 3053 
L 1172 1153 
Q 1172 725 1289 603 
Q 1406 481 1766 481 
L 2356 481 
L 2356 0 
L 1766 0 
Q 1100 0 847 248 
Q 594 497 594 1153 
L 594 3053 
L 172 3053 
L 172 3500 
L 594 3500 
L 594 4494 
L 1172 4494 
z
" transform="scale(0.015625)"/>
       <path id="DejaVuSans-79" d="M 2059 -325 
Q 1816 -950 1584 -1140 
Q 1353 -1331 966 -1331 
L 506 -1331 
L 506 -850 
L 844 -850 
Q 1081 -850 1212 -737 
Q 1344 -625 1503 -206 
L 1606 56 
L 191 3500 
L 800 3500 
L 1894 763 
L 2988 3500 
L 3597 3500 
L 2059 -325 
z
" transform="scale(0.015625)"/>
       <path id="DejaVuSans-20" transform="scale(0.015625)"/>
       <path id="DejaVuSans-2f" d="M 1625 4666 
L 2156 4666 
L 531 -594 
L 0 -594 
L 1625 4666 
z
" transform="scale(0.015625)"/>
       <path id="DejaVuSans-62" d="M 3116 1747 
Q 3116 2381 2855 2742 
Q 2594 3103 2138 3103 
Q 1681 3103 1420 2742 
Q 1159 2381 1159 1747 
Q 1159 1113 1420 752 
Q 1681 391 2138 391 
Q 2594 391 2855 752 
Q 3116 1113 3116 1747 
z
M 1159 2969 
Q 1341 3281 1617 3432 
Q 1894 3584 2278 3584 
Q 2916 3584 3314 3078 
Q 3713 2572 3713 1747 
Q 3713 922 3314 415 
Q 2916 -91 2278 -91 
Q 1894 -91 1617 61 
Q 1341 213 1159 525 
L 1159 0 
L 581 0 
L 581 4863 
L 1159 4863 
L 1159 2969 
z
" transform="scale(0.015625)"/>
       <path id="DejaVuSans-6e" d="M 3513 2113 
L 3513 0 
L 2938 0 
L 2938 2094 
Q 2938 2591 2744 2837 
Q 2550 3084 2163 3084 
Q 1697 3084 1428 2787 
Q 1159 2491 1159 1978 
L 1159 0 
L 581 0 
L 581 3500 
L 1159 3500 
L 1159 2956 
Q 1366 3272 1645 3428 
Q 1925 3584 2291 3584 
Q 2894 3584 3203 3211 
Q 3513 2838 3513 2113 
z
" transform="scale(0.015625)"/>
       <path id="DejaVuSans-63" d="M 3122 3366 
L 3122 2828 
Q 2878 2963 2633 3030 
Q 2388 3097 2138 3097 
Q 1578 3097 1268 2742 
Q 959 2388 959 1747 
Q 959 1106 1268 751 
Q 1578 397 2138 397 
Q 2388 397 2633 464 
Q 2878 531 3122 666 
L 3122 134 
Q 2881 22 2623 -34 
Q 2366 -91 2075 -91 
Q 1284 -91 818 406 
Q 353 903 353 1747 
Q 353 2603 823 3093 
Q 1294 3584 2113 3584 
Q 2378 3584 2631 3529 
Q 2884 3475 3122 3366 
z
" transform="scale(0.015625)"/>
       <path id="DejaVuSans-68" d="M 3513 2113 
L 3513 0 
L 2938 0 
L 2938 2094 
Q 2938 2591 2744 2837 
Q 2550 3084 2163 3084 
Q 1697 3084 1428 2787 
Q 1159 2491 1159 1978 
L 1159 0 
L 581 0 
L 581 4863 
L 1159 4863 
L 1159 2956 
Q 1366 3272 1645 3428 
Q 1925 3584 2291 3584 
Q 2894 3584 3203 3211 
Q 3513 2838 3513 2113 
z
" transform="scale(0.015625)"/>
       <path id="DejaVuSans-67" d="M 2906 1791 
Q 2906 2416 2648 2759 
Q 2391 3103 1925 3103 
Q 1463 3103 1205 2759 
Q 947 2416 947 1791 
Q 947 1169 1205 825 
Q 1463 481 1925 481 
Q 2391 481 2648 825 
Q 2906 1169 2906 1791 
z
M 3481 434 
Q 3481 -459 3084 -895 
Q 2688 -1331 1869 -1331 
Q 1566 -1331 1297 -1286 
Q 1028 -1241 775 -1147 
L 775 -588 
Q 1028 -725 1275 -790 
Q 1522 -856 1778 -856 
Q 2344 -856 2625 -561 
Q 2906 -266 2906 331 
L 2906 616 
Q 2728 306 2450 153 
Q 2172 0 1784 0 
Q 1141 0 747 490 
Q 353 981 353 1791 
Q 353 2603 747 3093 
Q 1141 3584 1784 3584 
Q 2172 3584 2450 3431 
Q 2728 3278 2906 2969 
L 2906 3500 
L 3481 3500 
L 3481 434 
z
" transform="scale(0.015625)"/>
       <path id="DejaVuSans-4b" d="M 628 4666 
L 1259 4666 
L 1259 2694 
L 3353 4666 
L 4166 4666 
L 1850 2491 
L 4331 0 
L 3500 0 
L 1259 2247 
L 1259 0 
L 628 0 
L 628 4666 
z
" transform="scale(0.015625)"/>
      </defs>
      <use xlink:href="#DejaVuSans-61"/>
      <use xlink:href="#DejaVuSans-72" transform="translate(61.279297 0)"/>
      <use xlink:href="#DejaVuSans-69" transform="translate(102.392578 0)"/>
      <use xlink:href="#DejaVuSans-74" transform="translate(130.175781 0)"/>
      <use xlink:href="#DejaVuSans-79" transform="translate(169.384766 0)"/>
      <use xlink:href="#DejaVuSans-20" transform="translate(228.564453 0)"/>
      <use xlink:href="#DejaVuSans-2f" transform="translate(260.351562 0)"/>
      <use xlink:href="#DejaVuSans-20" transform="translate(294.042969 0)"/>
      <use xlink:href="#DejaVuSans-62" transform="translate(325.830078 0)"/>
      <use xlink:href="#DejaVuSans-72" transform="translate(389.306641 0)"/>
      <use xlink:href="#DejaVuSans-61" transform="translate(430.419922 0)"/>
      <use xlink:href="#DejaVuSans-6e" transform="translate(491.699219 0)"/>
      <use xlink:href="#DejaVuSans-63" transform="translate(555.078125 0)"/>
      <use xlink:href="#DejaVuSans-68" transform="translate(610.058594 0)"/>
      <use xlink:href="#DejaVuSans-69" transform="translate(673.4375 0)"/>
      <use xlink:href="#DejaVuSans-6e" transform="translate(701.220703 0)"/>
      <use xlink:href="#DejaVuSans-67" transform="translate(764.599609 0)"/>
      <use xlink:href="#DejaVuSans-20" transform="translate(828.076172 0)"/>
      <use xlink:href="#DejaVuSans-4b" transform="translate(859.863281 0)"/>
     </g>
    </g>
   </g>
   <g id="matplotlib.axis_2">
    <g id="ytick_1">
     <g id="line2d_17">
      <path d="M 44.749063 309.583423 
L 633.374062 309.583423 
" clip-path="url(#pc6b9cd2096)" style="fill: none; stroke-dasharray: 2.96,1.28; stroke-dashoffset: 0; stroke: #cfb991; stroke-opacity: 0.35; stroke-width: 0.8"/>
     </g>
     <g id="line2d_18">
      <defs>
       <path id="m23ec6773e0" d="M 0 0 
L -3.5 0 
" style="stroke: #4a4a4a; stroke-width: 0.8"/>
      </defs>
      <g>
       <use xlink:href="#m23ec6773e0" x="44.749063" y="309.583423" style="fill: #4a4a4a; stroke: #4a4a4a; stroke-width: 0.8"/>
      </g>
     </g>
     <g id="text_10">
      <!-- 0.0 -->
      <g style="fill: #4a4a4a" transform="translate(21.845938 313.382642) scale(0.1 -0.1)">
       <defs>
        <path id="DejaVuSans-2e" d="M 684 794 
L 1344 794 
L 1344 0 
L 684 0 
L 684 794 
z
" transform="scale(0.015625)"/>
       </defs>
       <use xlink:href="#DejaVuSans-30"/>
       <use xlink:href="#DejaVuSans-2e" transform="translate(63.623047 0)"/>
       <use xlink:href="#DejaVuSans-30" transform="translate(95.410156 0)"/>
      </g>
     </g>
    </g>
    <g id="ytick_2">
     <g id="line2d_19">
      <path d="M 44.749063 257.637969 
L 633.374062 257.637969 
" clip-path="url(#pc6b9cd2096)" style="fill: none; stroke-dasharray: 2.96,1.28; stroke-dashoffset: 0; stroke: #cfb991; stroke-opacity: 0.35; stroke-width: 0.8"/>
     </g>
     <g id="line2d_20">
      <g>
       <use xlink:href="#m23ec6773e0" x="44.749063" y="257.637969" style="fill: #4a4a4a; stroke: #4a4a4a; stroke-width: 0.8"/>
      </g>
     </g>
     <g id="text_11">
      <!-- 0.2 -->
      <g style="fill: #4a4a4a" transform="translate(21.845938 261.437187) scale(0.1 -0.1)">
       <use xlink:href="#DejaVuSans-30"/>
       <use xlink:href="#DejaVuSans-2e" transform="translate(63.623047 0)"/>
       <use xlink:href="#DejaVuSans-32" transform="translate(95.410156 0)"/>
      </g>
     </g>
    </g>
    <g id="ytick_3">
     <g id="line2d_21">
      <path d="M 44.749063 205.692514 
L 633.374062 205.692514 
" clip-path="url(#pc6b9cd2096)" style="fill: none; stroke-dasharray: 2.96,1.28; stroke-dashoffset: 0; stroke: #cfb991; stroke-opacity: 0.35; stroke-width: 0.8"/>
     </g>
     <g id="line2d_22">
      <g>
       <use xlink:href="#m23ec6773e0" x="44.749063" y="205.692514" style="fill: #4a4a4a; stroke: #4a4a4a; stroke-width: 0.8"/>
      </g>
     </g>
     <g id="text_12">
      <!-- 0.4 -->
      <g style="fill: #4a4a4a" transform="translate(21.845938 209.491733) scale(0.1 -0.1)">
       <use xlink:href="#DejaVuSans-30"/>
       <use xlink:href="#DejaVuSans-2e" transform="translate(63.623047 0)"/>
       <use xlink:href="#DejaVuSans-34" transform="translate(95.410156 0)"/>
      </g>
     </g>
    </g>
    <g id="ytick_4">
     <g id="line2d_23">
      <path d="M 44.749063 153.74706 
L 633.374062 153.74706 
" clip-path="url(#pc6b9cd2096)" style="fill: none; stroke-dasharray: 2.96,1.28; stroke-dashoffset: 0; stroke: #cfb991; stroke-opacity: 0.35; stroke-width: 0.8"/>
     </g>
     <g id="line2d_24">
      <g>
       <use xlink:href="#m23ec6773e0" x="44.749063" y="153.74706" style="fill: #4a4a4a; stroke: #4a4a4a; stroke-width: 0.8"/>
      </g>
     </g>
     <g id="text_13">
      <!-- 0.6 -->
      <g style="fill: #4a4a4a" transform="translate(21.845938 157.546278) scale(0.1 -0.1)">
       <defs>
        <path id="DejaVuSans-36" d="M 2113 2584 
Q 1688 2584 1439 2293 
Q 1191 2003 1191 1497 
Q 1191 994 1439 701 
Q 1688 409 2113 409 
Q 2538 409 2786 701 
Q 3034 994 3034 1497 
Q 3034 2003 2786 2293 
Q 2538 2584 2113 2584 
z
M 3366 4563 
L 3366 3988 
Q 3128 4100 2886 4159 
Q 2644 4219 2406 4219 
Q 1781 4219 1451 3797 
Q 1122 3375 1075 2522 
Q 1259 2794 1537 2939 
Q 1816 3084 2150 3084 
Q 2853 3084 3261 2657 
Q 3669 2231 3669 1497 
Q 3669 778 3244 343 
Q 2819 -91 2113 -91 
Q 1303 -91 875 529 
Q 447 1150 447 2328 
Q 447 3434 972 4092 
Q 1497 4750 2381 4750 
Q 2619 4750 2861 4703 
Q 3103 4656 3366 4563 
z
" transform="scale(0.015625)"/>
       </defs>
       <use xlink:href="#DejaVuSans-30"/>
       <use xlink:href="#DejaVuSans-2e" transform="translate(63.623047 0)"/>
       <use xlink:href="#DejaVuSans-36" transform="translate(95.410156 0)"/>
      </g>
     </g>
    </g>
    <g id="ytick_5">
     <g id="line2d_25">
      <path d="M 44.749063 101.801605 
L 633.374062 101.801605 
" clip-path="url(#pc6b9cd2096)" style="fill: none; stroke-dasharray: 2.96,1.28; stroke-dashoffset: 0; stroke: #cfb991; stroke-opacity: 0.35; stroke-width: 0.8"/>
     </g>
     <g id="line2d_26">
      <g>
       <use xlink:href="#m23ec6773e0" x="44.749063" y="101.801605" style="fill: #4a4a4a; stroke: #4a4a4a; stroke-width: 0.8"/>
      </g>
     </g>
     <g id="text_14">
      <!-- 0.8 -->
      <g style="fill: #4a4a4a" transform="translate(21.845938 105.600824) scale(0.1 -0.1)">
       <defs>
        <path id="DejaVuSans-38" d="M 2034 2216 
Q 1584 2216 1326 1975 
Q 1069 1734 1069 1313 
Q 1069 891 1326 650 
Q 1584 409 2034 409 
Q 2484 409 2743 651 
Q 3003 894 3003 1313 
Q 3003 1734 2745 1975 
Q 2488 2216 2034 2216 
z
M 1403 2484 
Q 997 2584 770 2862 
Q 544 3141 544 3541 
Q 544 4100 942 4425 
Q 1341 4750 2034 4750 
Q 2731 4750 3128 4425 
Q 3525 4100 3525 3541 
Q 3525 3141 3298 2862 
Q 3072 2584 2669 2484 
Q 3125 2378 3379 2068 
Q 3634 1759 3634 1313 
Q 3634 634 3220 271 
Q 2806 -91 2034 -91 
Q 1263 -91 848 271 
Q 434 634 434 1313 
Q 434 1759 690 2068 
Q 947 2378 1403 2484 
z
M 1172 3481 
Q 1172 3119 1398 2916 
Q 1625 2713 2034 2713 
Q 2441 2713 2670 2916 
Q 2900 3119 2900 3481 
Q 2900 3844 2670 4047 
Q 2441 4250 2034 4250 
Q 1625 4250 1398 4047 
Q 1172 3844 1172 3481 
z
" transform="scale(0.015625)"/>
       </defs>
       <use xlink:href="#DejaVuSans-30"/>
       <use xlink:href="#DejaVuSans-2e" transform="translate(63.623047 0)"/>
       <use xlink:href="#DejaVuSans-38" transform="translate(95.410156 0)"/>
      </g>
     </g>
    </g>
    <g id="ytick_6">
     <g id="line2d_27">
      <path d="M 44.749063 49.856151 
L 633.374062 49.856151 
" clip-path="url(#pc6b9cd2096)" style="fill: none; stroke-dasharray: 2.96,1.28; stroke-dashoffset: 0; stroke: #cfb991; stroke-opacity: 0.35; stroke-width: 0.8"/>
     </g>
     <g id="line2d_28">
      <g>
       <use xlink:href="#m23ec6773e0" x="44.749063" y="49.856151" style="fill: #4a4a4a; stroke: #4a4a4a; stroke-width: 0.8"/>
      </g>
     </g>
     <g id="text_15">
      <!-- 1.0 -->
      <g style="fill: #4a4a4a" transform="translate(21.845938 53.655369) scale(0.1 -0.1)">
       <use xlink:href="#DejaVuSans-31"/>
       <use xlink:href="#DejaVuSans-2e" transform="translate(63.623047 0)"/>
       <use xlink:href="#DejaVuSans-30" transform="translate(95.410156 0)"/>
      </g>
     </g>
    </g>
    <g id="text_16">
     <!-- total variation advantage -->
     <g style="fill: #4a4a4a" transform="translate(15.558281 241.696328) rotate(-90) scale(0.11 -0.11)">
      <defs>
       <path id="DejaVuSans-6f" d="M 1959 3097 
Q 1497 3097 1228 2736 
Q 959 2375 959 1747 
Q 959 1119 1226 758 
Q 1494 397 1959 397 
Q 2419 397 2687 759 
Q 2956 1122 2956 1747 
Q 2956 2369 2687 2733 
Q 2419 3097 1959 3097 
z
M 1959 3584 
Q 2709 3584 3137 3096 
Q 3566 2609 3566 1747 
Q 3566 888 3137 398 
Q 2709 -91 1959 -91 
Q 1206 -91 779 398 
Q 353 888 353 1747 
Q 353 2609 779 3096 
Q 1206 3584 1959 3584 
z
" transform="scale(0.015625)"/>
       <path id="DejaVuSans-6c" d="M 603 4863 
L 1178 4863 
L 1178 0 
L 603 0 
L 603 4863 
z
" transform="scale(0.015625)"/>
       <path id="DejaVuSans-76" d="M 191 3500 
L 800 3500 
L 1894 563 
L 2988 3500 
L 3597 3500 
L 2284 0 
L 1503 0 
L 191 3500 
z
" transform="scale(0.015625)"/>
       <path id="DejaVuSans-64" d="M 2906 2969 
L 2906 4863 
L 3481 4863 
L 3481 0 
L 2906 0 
L 2906 525 
Q 2725 213 2448 61 
Q 2172 -91 1784 -91 
Q 1150 -91 751 415 
Q 353 922 353 1747 
Q 353 2572 751 3078 
Q 1150 3584 1784 3584 
Q 2172 3584 2448 3432 
Q 2725 3281 2906 2969 
z
M 947 1747 
Q 947 1113 1208 752 
Q 1469 391 1925 391 
Q 2381 391 2643 752 
Q 2906 1113 2906 1747 
Q 2906 2381 2643 2742 
Q 2381 3103 1925 3103 
Q 1469 3103 1208 2742 
Q 947 2381 947 1747 
z
" transform="scale(0.015625)"/>
       <path id="DejaVuSans-65" d="M 3597 1894 
L 3597 1613 
L 953 1613 
Q 991 1019 1311 708 
Q 1631 397 2203 397 
Q 2534 397 2845 478 
Q 3156 559 3463 722 
L 3463 178 
Q 3153 47 2828 -22 
Q 2503 -91 2169 -91 
Q 1331 -91 842 396 
Q 353 884 353 1716 
Q 353 2575 817 3079 
Q 1281 3584 2069 3584 
Q 2775 3584 3186 3129 
Q 3597 2675 3597 1894 
z
M 3022 2063 
Q 3016 2534 2758 2815 
Q 2500 3097 2075 3097 
Q 1594 3097 1305 2825 
Q 1016 2553 972 2059 
L 3022 2063 
z
" transform="scale(0.015625)"/>
      </defs>
      <use xlink:href="#DejaVuSans-74"/>
      <use xlink:href="#DejaVuSans-6f" transform="translate(39.208984 0)"/>
      <use xlink:href="#DejaVuSans-74" transform="translate(100.390625 0)"/>
      <use xlink:href="#DejaVuSans-61" transform="translate(139.599609 0)"/>
      <use xlink:href="#DejaVuSans-6c" transform="translate(200.878906 0)"/>
      <use xlink:href="#DejaVuSans-20" transform="translate(228.662109 0)"/>
      <use xlink:href="#DejaVuSans-76" transform="translate(260.449219 0)"/>
      <use xlink:href="#DejaVuSans-61" transform="translate(319.628906 0)"/>
      <use xlink:href="#DejaVuSans-72" transform="translate(380.908203 0)"/>
      <use xlink:href="#DejaVuSans-69" transform="translate(422.021484 0)"/>
      <use xlink:href="#DejaVuSans-61" transform="translate(449.804688 0)"/>
      <use xlink:href="#DejaVuSans-74" transform="translate(511.083984 0)"/>
      <use xlink:href="#DejaVuSans-69" transform="translate(550.292969 0)"/>
      <use xlink:href="#DejaVuSans-6f" transform="translate(578.076172 0)"/>
      <use xlink:href="#DejaVuSans-6e" transform="translate(639.257812 0)"/>
      <use xlink:href="#DejaVuSans-20" transform="translate(702.636719 0)"/>
      <use xlink:href="#DejaVuSans-61" transform="translate(734.423828 0)"/>
      <use xlink:href="#DejaVuSans-64" transform="translate(795.703125 0)"/>
      <use xlink:href="#DejaVuSans-76" transform="translate(859.179688 0)"/>
      <use xlink:href="#DejaVuSans-61" transform="translate(918.359375 0)"/>
      <use xlink:href="#DejaVuSans-6e" transform="translate(979.638672 0)"/>
      <use xlink:href="#DejaVuSans-74" transform="translate(1043.017578 0)"/>
      <use xlink:href="#DejaVuSans-61" transform="translate(1082.226562 0)"/>
      <use xlink:href="#DejaVuSans-67" transform="translate(1143.505859 0)"/>
      <use xlink:href="#DejaVuSans-65" transform="translate(1206.982422 0)"/>
     </g>
    </g>
   </g>
   <g id="FillBetweenPolyCollection_1">
    <defs>
     <path id="m4a8bcbda1c" d="M 71.504744 -303.445881 
L 71.504744 -173.582244 
L 85.586682 -130.294366 
L 99.66862 -108.650426 
L 113.750558 -95.664062 
L 127.832496 -87.006487 
L 141.914433 -80.822504 
L 155.996371 -76.184517 
L 170.078309 -72.577194 
L 184.160247 -69.691335 
L 198.242185 -67.330178 
L 212.324122 -65.362547 
L 226.40606 -63.697629 
L 240.487998 -62.270556 
L 254.569936 -61.033759 
L 268.651874 -59.951562 
L 282.733811 -58.996683 
L 296.815749 -58.147901 
L 310.897687 -57.388464 
L 324.979625 -56.704972 
L 339.061562 -56.086573 
L 353.1435 -55.524393 
L 367.225438 -55.011098 
L 381.307376 -54.540578 
L 395.389314 -54.107699 
L 409.471251 -53.708118 
L 423.553189 -53.338137 
L 437.635127 -52.994582 
L 451.717065 -52.674721 
L 465.799003 -52.376184 
L 479.88094 -52.096907 
L 493.962878 -51.835085 
L 508.044816 -51.589131 
L 522.126754 -51.357645 
L 536.208692 -51.139387 
L 550.290629 -50.933254 
L 564.372567 -50.738264 
L 578.454505 -50.553536 
L 592.536443 -50.378282 
L 606.618381 -50.21179 
L 606.618381 -303.445881 
L 606.618381 -303.445881 
L 592.536443 -303.445881 
L 578.454505 -303.445881 
L 564.372567 -303.445881 
L 550.290629 -303.445881 
L 536.208692 -303.445881 
L 522.126754 -303.445881 
L 508.044816 -303.445881 
L 493.962878 -303.445881 
L 479.88094 -303.445881 
L 465.799003 -303.445881 
L 451.717065 -303.445881 
L 437.635127 -303.445881 
L 423.553189 -303.445881 
L 409.471251 -303.445881 
L 395.389314 -303.445881 
L 381.307376 -303.445881 
L 367.225438 -303.445881 
L 353.1435 -303.445881 
L 339.061562 -303.445881 
L 324.979625 -303.445881 
L 310.897687 -303.445881 
L 296.815749 -303.445881 
L 282.733811 -303.445881 
L 268.651874 -303.445881 
L 254.569936 -303.445881 
L 240.487998 -303.445881 
L 226.40606 -303.445881 
L 212.324122 -303.445881 
L 198.242185 -303.445881 
L 184.160247 -303.445881 
L 170.078309 -303.445881 
L 155.996371 -303.445881 
L 141.914433 -303.445881 
L 127.832496 -303.445881 
L 113.750558 -303.445881 
L 99.66862 -303.445881 
L 85.586682 -303.445881 
L 71.504744 -303.445881 
z
" style="stroke: #cfb991; stroke-opacity: 0.45"/>
    </defs>
    <g clip-path="url(#pc6b9cd2096)">
     <use xlink:href="#m4a8bcbda1c" x="0" y="353.302031" style="fill: #cfb991; fill-opacity: 0.45; stroke: #cfb991; stroke-opacity: 0.45"/>
    </g>
   </g>
   <g id="line2d_29">
    <path d="M 71.504744 49.856151 
L 85.586682 49.856151 
L 99.66862 49.856151 
L 113.750558 49.856151 
L 127.832496 49.856151 
L 141.914433 49.856151 
L 155.996371 49.856151 
L 170.078309 49.856151 
L 184.160247 49.856151 
L 198.242185 49.856151 
L 212.324122 49.856151 
L 226.40606 49.856151 
L 240.487998 49.856151 
L 254.569936 49.856151 
L 268.651874 49.856151 
L 282.733811 49.856151 
L 296.815749 49.856151 
L 310.897687 49.856151 
L 324.979625 49.856151 
L 339.061562 49.856151 
L 353.1435 49.856151 
L 367.225438 49.856151 
L 381.307376 49.856151 
L 395.389314 49.856151 
L 409.471251 49.856151 
L 423.553189 49.856151 
L 437.635127 49.856151 
L 451.717065 49.856151 
L 465.799003 49.856151 
L 479.88094 49.856151 
L 493.962878 49.856151 
L 508.044816 49.856151 
L 522.126754 49.856151 
L 536.208692 49.856151 
L 550.290629 49.856151 
L 564.372567 49.856151 
L 578.454505 49.856151 
L 592.536443 49.856151 
L 606.618381 49.856151 
" clip-path="url(#pc6b9cd2096)" style="fill: none; stroke: #000000; stroke-width: 2.6; stroke-linecap: square"/>
   </g>
   <g id="line2d_30">
    <path d="M 71.504744 179.719787 
L 85.586682 223.007666 
L 99.66862 244.651605 
L 113.750558 257.637969 
L 127.832496 266.295545 
L 141.914433 272.479527 
L 155.996371 277.117514 
L 170.078309 280.724837 
L 184.160247 283.610696 
L 198.242185 285.971853 
L 212.324122 287.939484 
L 226.40606 289.604402 
L 240.487998 291.031475 
L 254.569936 292.268272 
L 268.651874 293.350469 
L 282.733811 294.305348 
L 296.815749 295.15413 
L 310.897687 295.913567 
L 324.979625 296.59706 
L 339.061562 297.215458 
L 353.1435 297.777638 
L 367.225438 298.290933 
L 381.307376 298.761454 
L 395.389314 299.194332 
L 409.471251 299.593913 
L 423.553189 299.963895 
L 437.635127 300.307449 
L 451.717065 300.62731 
L 465.799003 300.925848 
L 479.88094 301.205124 
L 493.962878 301.466946 
L 508.044816 301.7129 
L 522.126754 301.944386 
L 536.208692 302.162644 
L 550.290629 302.368777 
L 564.372567 302.563767 
L 578.454505 302.748495 
L 592.536443 302.92375 
L 606.618381 303.090241 
" clip-path="url(#pc6b9cd2096)" style="fill: none; stroke: #8e6f3e; stroke-width: 2.6; stroke-linecap: square"/>
   </g>
   <g id="line2d_31">
    <path d="M 71.504744 49.856151 
L 85.586682 136.431908 
L 99.66862 179.719787 
L 113.750558 205.692514 
L 127.832496 223.007666 
L 141.914433 235.375631 
L 155.996371 244.651605 
L 170.078309 251.866252 
L 184.160247 257.637969 
L 198.242185 262.360283 
L 212.324122 266.295545 
L 226.40606 269.625381 
L 240.487998 272.479527 
L 254.569936 274.95312 
L 268.651874 277.117514 
L 282.733811 279.027274 
L 296.815749 280.724837 
L 310.897687 282.24371 
L 324.979625 283.610696 
L 339.061562 284.847493 
L 353.1435 285.971853 
L 367.225438 286.998443 
L 381.307376 287.939484 
L 395.389314 288.805241 
L 409.471251 289.604402 
L 423.553189 290.344366 
L 437.635127 291.031475 
L 451.717065 291.671198 
L 465.799003 292.268272 
L 479.88094 292.826825 
L 493.962878 293.350469 
L 508.044816 293.842376 
L 522.126754 294.305348 
L 536.208692 294.741865 
L 550.290629 295.15413 
L 564.372567 295.544111 
L 578.454505 295.913567 
L 592.536443 296.264076 
L 606.618381 296.59706 
" clip-path="url(#pc6b9cd2096)" style="fill: none; stroke-dasharray: 7.4,3.2; stroke-dashoffset: 0; stroke: #4a4a4a; stroke-width: 2"/>
   </g>
   <g id="patch_3">
    <path d="M 44.749063 314.777969 
L 44.749063 29.077969 
" style="fill: none; stroke: #8e6f3e; stroke-width: 1.2; stroke-linejoin: miter; stroke-linecap: square"/>
   </g>
   <g id="patch_4">
    <path d="M 633.374062 314.777969 
L 633.374062 29.077969 
" style="fill: none; stroke: #8e6f3e; stroke-width: 1.2; stroke-linejoin: miter; stroke-linecap: square"/>
   </g>
   <g id="patch_5">
    <path d="M 44.749063 314.777969 
L 633.374062 314.777969 
" style="fill: none; stroke: #8e6f3e; stroke-width: 1.2; stroke-linejoin: miter; stroke-linecap: square"/>
   </g>
   <g id="patch_6">
    <path d="M 44.749063 29.077969 
L 633.374062 29.077969 
" style="fill: none; stroke: #8e6f3e; stroke-width: 1.2; stroke-linejoin: miter; stroke-linecap: square"/>
   </g>
   <g id="text_17">
    <g id="patch_7">
     <path d="M 381.307376 129.159474 
L 542.908938 129.159474 
Q 547.408938 129.159474 547.408938 124.659474 
L 547.408938 103.783537 
Q 547.408938 99.283537 542.908938 99.283537 
L 381.307376 99.283537 
Q 376.807376 99.283537 376.807376 103.783537 
L 376.807376 124.659474 
Q 376.807376 129.159474 381.307376 129.159474 
z
" style="fill: #cfb991; opacity: 0.95; stroke: #000000; stroke-linejoin: miter"/>
    </g>
    <!-- sharp envelope G2(K)=1-1/K -->
    <g transform="translate(381.307376 111.381974) scale(0.1 -0.1)">
     <defs>
      <path id="DejaVuSans-73" d="M 2834 3397 
L 2834 2853 
Q 2591 2978 2328 3040 
Q 2066 3103 1784 3103 
Q 1356 3103 1142 2972 
Q 928 2841 928 2578 
Q 928 2378 1081 2264 
Q 1234 2150 1697 2047 
L 1894 2003 
Q 2506 1872 2764 1633 
Q 3022 1394 3022 966 
Q 3022 478 2636 193 
Q 2250 -91 1575 -91 
Q 1294 -91 989 -36 
Q 684 19 347 128 
L 347 722 
Q 666 556 975 473 
Q 1284 391 1588 391 
Q 1994 391 2212 530 
Q 2431 669 2431 922 
Q 2431 1156 2273 1281 
Q 2116 1406 1581 1522 
L 1381 1569 
Q 847 1681 609 1914 
Q 372 2147 372 2553 
Q 372 3047 722 3315 
Q 1072 3584 1716 3584 
Q 2034 3584 2315 3537 
Q 2597 3491 2834 3397 
z
" transform="scale(0.015625)"/>
      <path id="DejaVuSans-70" d="M 1159 525 
L 1159 -1331 
L 581 -1331 
L 581 3500 
L 1159 3500 
L 1159 2969 
Q 1341 3281 1617 3432 
Q 1894 3584 2278 3584 
Q 2916 3584 3314 3078 
Q 3713 2572 3713 1747 
Q 3713 922 3314 415 
Q 2916 -91 2278 -91 
Q 1894 -91 1617 61 
Q 1341 213 1159 525 
z
M 3116 1747 
Q 3116 2381 2855 2742 
Q 2594 3103 2138 3103 
Q 1681 3103 1420 2742 
Q 1159 2381 1159 1747 
Q 1159 1113 1420 752 
Q 1681 391 2138 391 
Q 2594 391 2855 752 
Q 3116 1113 3116 1747 
z
" transform="scale(0.015625)"/>
      <path id="DejaVuSans-47" d="M 3809 666 
L 3809 1919 
L 2778 1919 
L 2778 2438 
L 4434 2438 
L 4434 434 
Q 4069 175 3628 42 
Q 3188 -91 2688 -91 
Q 1594 -91 976 548 
Q 359 1188 359 2328 
Q 359 3472 976 4111 
Q 1594 4750 2688 4750 
Q 3144 4750 3555 4637 
Q 3966 4525 4313 4306 
L 4313 3634 
Q 3963 3931 3569 4081 
Q 3175 4231 2741 4231 
Q 1884 4231 1454 3753 
Q 1025 3275 1025 2328 
Q 1025 1384 1454 906 
Q 1884 428 2741 428 
Q 3075 428 3337 486 
Q 3600 544 3809 666 
z
" transform="scale(0.015625)"/>
      <path id="DejaVuSans-28" d="M 1984 4856 
Q 1566 4138 1362 3434 
Q 1159 2731 1159 2009 
Q 1159 1288 1364 580 
Q 1569 -128 1984 -844 
L 1484 -844 
Q 1016 -109 783 600 
Q 550 1309 550 2009 
Q 550 2706 781 3412 
Q 1013 4119 1484 4856 
L 1984 4856 
z
" transform="scale(0.015625)"/>
      <path id="DejaVuSans-29" d="M 513 4856 
L 1013 4856 
Q 1481 4119 1714 3412 
Q 1947 2706 1947 2009 
Q 1947 1309 1714 600 
Q 1481 -109 1013 -844 
L 513 -844 
Q 928 -128 1133 580 
Q 1338 1288 1338 2009 
Q 1338 2731 1133 3434 
Q 928 4138 513 4856 
z
" transform="scale(0.015625)"/>
      <path id="DejaVuSans-3d" d="M 678 2906 
L 4684 2906 
L 4684 2381 
L 678 2381 
L 678 2906 
z
M 678 1631 
L 4684 1631 
L 4684 1100 
L 678 1100 
L 678 1631 
z
" transform="scale(0.015625)"/>
      <path id="DejaVuSans-2d" d="M 313 2009 
L 1997 2009 
L 1997 1497 
L 313 1497 
L 313 2009 
z
" transform="scale(0.015625)"/>
     </defs>
     <use xlink:href="#DejaVuSans-73"/>
     <use xlink:href="#DejaVuSans-68" transform="translate(52.099609 0)"/>
     <use xlink:href="#DejaVuSans-61" transform="translate(115.478516 0)"/>
     <use xlink:href="#DejaVuSans-72" transform="translate(176.757812 0)"/>
     <use xlink:href="#DejaVuSans-70" transform="translate(217.871094 0)"/>
     <use xlink:href="#DejaVuSans-20" transform="translate(281.347656 0)"/>
     <use xlink:href="#DejaVuSans-65" transform="translate(313.134766 0)"/>
     <use xlink:href="#DejaVuSans-6e" transform="translate(374.658203 0)"/>
     <use xlink:href="#DejaVuSans-76" transform="translate(438.037109 0)"/>
     <use xlink:href="#DejaVuSans-65" transform="translate(497.216797 0)"/>
     <use xlink:href="#DejaVuSans-6c" transform="translate(558.740234 0)"/>
     <use xlink:href="#DejaVuSans-6f" transform="translate(586.523438 0)"/>
     <use xlink:href="#DejaVuSans-70" transform="translate(647.705078 0)"/>
     <use xlink:href="#DejaVuSans-65" transform="translate(711.181641 0)"/>
     <use xlink:href="#DejaVuSans-20" transform="translate(772.705078 0)"/>
     <use xlink:href="#DejaVuSans-47" transform="translate(804.492188 0)"/>
     <use xlink:href="#DejaVuSans-32" transform="translate(881.982422 0)"/>
     <use xlink:href="#DejaVuSans-28" transform="translate(945.605469 0)"/>
     <use xlink:href="#DejaVuSans-4b" transform="translate(984.619141 0)"/>
     <use xlink:href="#DejaVuSans-29" transform="translate(1050.195312 0)"/>
     <use xlink:href="#DejaVuSans-3d" transform="translate(1089.208984 0)"/>
     <use xlink:href="#DejaVuSans-31" transform="translate(1172.998047 0)"/>
     <use xlink:href="#DejaVuSans-2d" transform="translate(1236.621094 0)"/>
     <use xlink:href="#DejaVuSans-31" transform="translate(1272.705078 0)"/>
     <use xlink:href="#DejaVuSans-2f" transform="translate(1336.328125 0)"/>
     <use xlink:href="#DejaVuSans-4b" transform="translate(1370.019531 0)"/>
    </g>
    <!-- (k-pair is a weaker habitat form) -->
    <g transform="translate(381.307376 122.579787) scale(0.1 -0.1)">
     <defs>
      <path id="DejaVuSans-6b" d="M 581 4863 
L 1159 4863 
L 1159 1991 
L 2875 3500 
L 3609 3500 
L 1753 1863 
L 3688 0 
L 2938 0 
L 1159 1709 
L 1159 0 
L 581 0 
L 581 4863 
z
" transform="scale(0.015625)"/>
      <path id="DejaVuSans-77" d="M 269 3500 
L 844 3500 
L 1563 769 
L 2278 3500 
L 2956 3500 
L 3675 769 
L 4391 3500 
L 4966 3500 
L 4050 0 
L 3372 0 
L 2619 2869 
L 1863 0 
L 1184 0 
L 269 3500 
z
" transform="scale(0.015625)"/>
      <path id="DejaVuSans-66" d="M 2375 4863 
L 2375 4384 
L 1825 4384 
Q 1516 4384 1395 4259 
Q 1275 4134 1275 3809 
L 1275 3500 
L 2222 3500 
L 2222 3053 
L 1275 3053 
L 1275 0 
L 697 0 
L 697 3053 
L 147 3053 
L 147 3500 
L 697 3500 
L 697 3744 
Q 697 4328 969 4595 
Q 1241 4863 1831 4863 
L 2375 4863 
z
" transform="scale(0.015625)"/>
      <path id="DejaVuSans-6d" d="M 3328 2828 
Q 3544 3216 3844 3400 
Q 4144 3584 4550 3584 
Q 5097 3584 5394 3201 
Q 5691 2819 5691 2113 
L 5691 0 
L 5113 0 
L 5113 2094 
Q 5113 2597 4934 2840 
Q 4756 3084 4391 3084 
Q 3944 3084 3684 2787 
Q 3425 2491 3425 1978 
L 3425 0 
L 2847 0 
L 2847 2094 
Q 2847 2600 2669 2842 
Q 2491 3084 2119 3084 
Q 1678 3084 1418 2786 
Q 1159 2488 1159 1978 
L 1159 0 
L 581 0 
L 581 3500 
L 1159 3500 
L 1159 2956 
Q 1356 3278 1631 3431 
Q 1906 3584 2284 3584 
Q 2666 3584 2933 3390 
Q 3200 3197 3328 2828 
z
" transform="scale(0.015625)"/>
     </defs>
     <use xlink:href="#DejaVuSans-28"/>
     <use xlink:href="#DejaVuSans-6b" transform="translate(39.013672 0)"/>
     <use xlink:href="#DejaVuSans-2d" transform="translate(96.923828 0)"/>
     <use xlink:href="#DejaVuSans-70" transform="translate(133.007812 0)"/>
     <use xlink:href="#DejaVuSans-61" transform="translate(196.484375 0)"/>
     <use xlink:href="#DejaVuSans-69" transform="translate(257.763672 0)"/>
     <use xlink:href="#DejaVuSans-72" transform="translate(285.546875 0)"/>
     <use xlink:href="#DejaVuSans-20" transform="translate(326.660156 0)"/>
     <use xlink:href="#DejaVuSans-69" transform="translate(358.447266 0)"/>
     <use xlink:href="#DejaVuSans-73" transform="translate(386.230469 0)"/>
     <use xlink:href="#DejaVuSans-20" transform="translate(438.330078 0)"/>
     <use xlink:href="#DejaVuSans-61" transform="translate(470.117188 0)"/>
     <use xlink:href="#DejaVuSans-20" transform="translate(531.396484 0)"/>
     <use xlink:href="#DejaVuSans-77" transform="translate(563.183594 0)"/>
     <use xlink:href="#DejaVuSans-65" transform="translate(644.970703 0)"/>
     <use xlink:href="#DejaVuSans-61" transform="translate(706.494141 0)"/>
     <use xlink:href="#DejaVuSans-6b" transform="translate(767.773438 0)"/>
     <use xlink:href="#DejaVuSans-65" transform="translate(822.058594 0)"/>
     <use xlink:href="#DejaVuSans-72" transform="translate(883.582031 0)"/>
     <use xlink:href="#DejaVuSans-20" transform="translate(924.695312 0)"/>
     <use xlink:href="#DejaVuSans-68" transform="translate(956.482422 0)"/>
     <use xlink:href="#DejaVuSans-61" transform="translate(1019.861328 0)"/>
     <use xlink:href="#DejaVuSans-62" transform="translate(1081.140625 0)"/>
     <use xlink:href="#DejaVuSans-69" transform="translate(1144.617188 0)"/>
     <use xlink:href="#DejaVuSans-74" transform="translate(1172.400391 0)"/>
     <use xlink:href="#DejaVuSans-61" transform="translate(1211.609375 0)"/>
     <use xlink:href="#DejaVuSans-74" transform="translate(1272.888672 0)"/>
     <use xlink:href="#DejaVuSans-20" transform="translate(1312.097656 0)"/>
     <use xlink:href="#DejaVuSans-66" transform="translate(1343.884766 0)"/>
     <use xlink:href="#DejaVuSans-6f" transform="translate(1379.089844 0)"/>
     <use xlink:href="#DejaVuSans-72" transform="translate(1440.271484 0)"/>
     <use xlink:href="#DejaVuSans-6d" transform="translate(1479.634766 0)"/>
     <use xlink:href="#DejaVuSans-29" transform="translate(1577.046875 0)"/>
    </g>
   </g>
   <g id="text_18">
    <!-- Adaptivity gap at budget B = 2 -->
    <g transform="translate(225.409062 17.077969) scale(0.13 -0.13)">
     <defs>
      <path id="DejaVuSans-Bold-41" d="M 3419 850 
L 1538 850 
L 1241 0 
L 31 0 
L 1759 4666 
L 3194 4666 
L 4922 0 
L 3713 0 
L 3419 850 
z
M 1838 1716 
L 3116 1716 
L 2478 3572 
L 1838 1716 
z
" transform="scale(0.015625)"/>
      <path id="DejaVuSans-Bold-64" d="M 2919 2988 
L 2919 4863 
L 4044 4863 
L 4044 0 
L 2919 0 
L 2919 506 
Q 2688 197 2409 53 
Q 2131 -91 1766 -91 
Q 1119 -91 703 423 
Q 288 938 288 1747 
Q 288 2556 703 3070 
Q 1119 3584 1766 3584 
Q 2128 3584 2408 3439 
Q 2688 3294 2919 2988 
z
M 2181 722 
Q 2541 722 2730 984 
Q 2919 1247 2919 1747 
Q 2919 2247 2730 2509 
Q 2541 2772 2181 2772 
Q 1825 2772 1636 2509 
Q 1447 2247 1447 1747 
Q 1447 1247 1636 984 
Q 1825 722 2181 722 
z
" transform="scale(0.015625)"/>
      <path id="DejaVuSans-Bold-61" d="M 2106 1575 
Q 1756 1575 1579 1456 
Q 1403 1338 1403 1106 
Q 1403 894 1545 773 
Q 1688 653 1941 653 
Q 2256 653 2472 879 
Q 2688 1106 2688 1447 
L 2688 1575 
L 2106 1575 
z
M 3816 1997 
L 3816 0 
L 2688 0 
L 2688 519 
Q 2463 200 2181 54 
Q 1900 -91 1497 -91 
Q 953 -91 614 226 
Q 275 544 275 1050 
Q 275 1666 698 1953 
Q 1122 2241 2028 2241 
L 2688 2241 
L 2688 2328 
Q 2688 2594 2478 2717 
Q 2269 2841 1825 2841 
Q 1466 2841 1156 2769 
Q 847 2697 581 2553 
L 581 3406 
Q 941 3494 1303 3539 
Q 1666 3584 2028 3584 
Q 2975 3584 3395 3211 
Q 3816 2838 3816 1997 
z
" transform="scale(0.015625)"/>
      <path id="DejaVuSans-Bold-70" d="M 1656 506 
L 1656 -1331 
L 538 -1331 
L 538 3500 
L 1656 3500 
L 1656 2988 
Q 1888 3294 2169 3439 
Q 2450 3584 2816 3584 
Q 3463 3584 3878 3070 
Q 4294 2556 4294 1747 
Q 4294 938 3878 423 
Q 3463 -91 2816 -91 
Q 2450 -91 2169 54 
Q 1888 200 1656 506 
z
M 2400 2772 
Q 2041 2772 1848 2508 
Q 1656 2244 1656 1747 
Q 1656 1250 1848 986 
Q 2041 722 2400 722 
Q 2759 722 2948 984 
Q 3138 1247 3138 1747 
Q 3138 2247 2948 2509 
Q 2759 2772 2400 2772 
z
" transform="scale(0.015625)"/>
      <path id="DejaVuSans-Bold-74" d="M 1759 4494 
L 1759 3500 
L 2913 3500 
L 2913 2700 
L 1759 2700 
L 1759 1216 
Q 1759 972 1856 886 
Q 1953 800 2241 800 
L 2816 800 
L 2816 0 
L 1856 0 
Q 1194 0 917 276 
Q 641 553 641 1216 
L 641 2700 
L 84 2700 
L 84 3500 
L 641 3500 
L 641 4494 
L 1759 4494 
z
" transform="scale(0.015625)"/>
      <path id="DejaVuSans-Bold-69" d="M 538 3500 
L 1656 3500 
L 1656 0 
L 538 0 
L 538 3500 
z
M 538 4863 
L 1656 4863 
L 1656 3950 
L 538 3950 
L 538 4863 
z
" transform="scale(0.015625)"/>
      <path id="DejaVuSans-Bold-76" d="M 97 3500 
L 1216 3500 
L 2088 1081 
L 2956 3500 
L 4078 3500 
L 2700 0 
L 1472 0 
L 97 3500 
z
" transform="scale(0.015625)"/>
      <path id="DejaVuSans-Bold-79" d="M 78 3500 
L 1197 3500 
L 2138 1125 
L 2938 3500 
L 4056 3500 
L 2584 -331 
Q 2363 -916 2067 -1148 
Q 1772 -1381 1288 -1381 
L 641 -1381 
L 641 -647 
L 991 -647 
Q 1275 -647 1404 -556 
Q 1534 -466 1606 -231 
L 1638 -134 
L 78 3500 
z
" transform="scale(0.015625)"/>
      <path id="DejaVuSans-Bold-20" transform="scale(0.015625)"/>
      <path id="DejaVuSans-Bold-67" d="M 2919 594 
Q 2688 288 2409 144 
Q 2131 0 1766 0 
Q 1125 0 706 504 
Q 288 1009 288 1791 
Q 288 2575 706 3076 
Q 1125 3578 1766 3578 
Q 2131 3578 2409 3434 
Q 2688 3291 2919 2981 
L 2919 3500 
L 4044 3500 
L 4044 353 
Q 4044 -491 3511 -936 
Q 2978 -1381 1966 -1381 
Q 1638 -1381 1331 -1331 
Q 1025 -1281 716 -1178 
L 716 -306 
Q 1009 -475 1290 -558 
Q 1572 -641 1856 -641 
Q 2406 -641 2662 -400 
Q 2919 -159 2919 353 
L 2919 594 
z
M 2181 2772 
Q 1834 2772 1640 2515 
Q 1447 2259 1447 1791 
Q 1447 1309 1634 1061 
Q 1822 813 2181 813 
Q 2531 813 2725 1069 
Q 2919 1325 2919 1791 
Q 2919 2259 2725 2515 
Q 2531 2772 2181 2772 
z
" transform="scale(0.015625)"/>
      <path id="DejaVuSans-Bold-62" d="M 2400 722 
Q 2759 722 2948 984 
Q 3138 1247 3138 1747 
Q 3138 2247 2948 2509 
Q 2759 2772 2400 2772 
Q 2041 2772 1848 2508 
Q 1656 2244 1656 1747 
Q 1656 1250 1848 986 
Q 2041 722 2400 722 
z
M 1656 2988 
Q 1888 3294 2169 3439 
Q 2450 3584 2816 3584 
Q 3463 3584 3878 3070 
Q 4294 2556 4294 1747 
Q 4294 938 3878 423 
Q 3463 -91 2816 -91 
Q 2450 -91 2169 54 
Q 1888 200 1656 506 
L 1656 0 
L 538 0 
L 538 4863 
L 1656 4863 
L 1656 2988 
z
" transform="scale(0.015625)"/>
      <path id="DejaVuSans-Bold-75" d="M 500 1363 
L 500 3500 
L 1625 3500 
L 1625 3150 
Q 1625 2866 1622 2436 
Q 1619 2006 1619 1863 
Q 1619 1441 1641 1255 
Q 1663 1069 1716 984 
Q 1784 875 1895 815 
Q 2006 756 2150 756 
Q 2500 756 2700 1025 
Q 2900 1294 2900 1772 
L 2900 3500 
L 4019 3500 
L 4019 0 
L 2900 0 
L 2900 506 
Q 2647 200 2364 54 
Q 2081 -91 1741 -91 
Q 1134 -91 817 281 
Q 500 653 500 1363 
z
" transform="scale(0.015625)"/>
      <path id="DejaVuSans-Bold-65" d="M 4031 1759 
L 4031 1441 
L 1416 1441 
Q 1456 1047 1700 850 
Q 1944 653 2381 653 
Q 2734 653 3104 758 
Q 3475 863 3866 1075 
L 3866 213 
Q 3469 63 3072 -14 
Q 2675 -91 2278 -91 
Q 1328 -91 801 392 
Q 275 875 275 1747 
Q 275 2603 792 3093 
Q 1309 3584 2216 3584 
Q 3041 3584 3536 3087 
Q 4031 2591 4031 1759 
z
M 2881 2131 
Q 2881 2450 2695 2645 
Q 2509 2841 2209 2841 
Q 1884 2841 1681 2658 
Q 1478 2475 1428 2131 
L 2881 2131 
z
" transform="scale(0.015625)"/>
      <path id="DejaVuSans-Bold-42" d="M 2456 2859 
Q 2741 2859 2887 2984 
Q 3034 3109 3034 3353 
Q 3034 3594 2887 3720 
Q 2741 3847 2456 3847 
L 1791 3847 
L 1791 2859 
L 2456 2859 
z
M 2497 819 
Q 2859 819 3042 972 
Q 3225 1125 3225 1434 
Q 3225 1738 3044 1889 
Q 2863 2041 2497 2041 
L 1791 2041 
L 1791 819 
L 2497 819 
z
M 3616 2497 
Q 4003 2384 4215 2081 
Q 4428 1778 4428 1338 
Q 4428 663 3972 331 
Q 3516 0 2584 0 
L 588 0 
L 588 4666 
L 2394 4666 
Q 3366 4666 3802 4372 
Q 4238 4078 4238 3431 
Q 4238 3091 4078 2852 
Q 3919 2613 3616 2497 
z
" transform="scale(0.015625)"/>
      <path id="DejaVuSans-Bold-3d" d="M 678 3084 
L 4684 3084 
L 4684 2350 
L 678 2350 
L 678 3084 
z
M 678 1663 
L 4684 1663 
L 4684 922 
L 678 922 
L 678 1663 
z
" transform="scale(0.015625)"/>
      <path id="DejaVuSans-Bold-32" d="M 1844 884 
L 3897 884 
L 3897 0 
L 506 0 
L 506 884 
L 2209 2388 
Q 2438 2594 2547 2791 
Q 2656 2988 2656 3200 
Q 2656 3528 2436 3728 
Q 2216 3928 1850 3928 
Q 1569 3928 1234 3808 
Q 900 3688 519 3450 
L 519 4475 
Q 925 4609 1322 4679 
Q 1719 4750 2100 4750 
Q 2938 4750 3402 4381 
Q 3866 4013 3866 3353 
Q 3866 2972 3669 2642 
Q 3472 2313 2841 1759 
L 1844 884 
z
" transform="scale(0.015625)"/>
     </defs>
     <use xlink:href="#DejaVuSans-Bold-41"/>
     <use xlink:href="#DejaVuSans-Bold-64" transform="translate(77.392578 0)"/>
     <use xlink:href="#DejaVuSans-Bold-61" transform="translate(148.974609 0)"/>
     <use xlink:href="#DejaVuSans-Bold-70" transform="translate(216.455078 0)"/>
     <use xlink:href="#DejaVuSans-Bold-74" transform="translate(288.037109 0)"/>
     <use xlink:href="#DejaVuSans-Bold-69" transform="translate(335.839844 0)"/>
     <use xlink:href="#DejaVuSans-Bold-76" transform="translate(370.117188 0)"/>
     <use xlink:href="#DejaVuSans-Bold-69" transform="translate(435.302734 0)"/>
     <use xlink:href="#DejaVuSans-Bold-74" transform="translate(469.580078 0)"/>
     <use xlink:href="#DejaVuSans-Bold-79" transform="translate(517.382812 0)"/>
     <use xlink:href="#DejaVuSans-Bold-20" transform="translate(582.568359 0)"/>
     <use xlink:href="#DejaVuSans-Bold-67" transform="translate(617.382812 0)"/>
     <use xlink:href="#DejaVuSans-Bold-61" transform="translate(688.964844 0)"/>
     <use xlink:href="#DejaVuSans-Bold-70" transform="translate(756.445312 0)"/>
     <use xlink:href="#DejaVuSans-Bold-20" transform="translate(828.027344 0)"/>
     <use xlink:href="#DejaVuSans-Bold-61" transform="translate(862.841797 0)"/>
     <use xlink:href="#DejaVuSans-Bold-74" transform="translate(930.322266 0)"/>
     <use xlink:href="#DejaVuSans-Bold-20" transform="translate(978.125 0)"/>
     <use xlink:href="#DejaVuSans-Bold-62" transform="translate(1012.939453 0)"/>
     <use xlink:href="#DejaVuSans-Bold-75" transform="translate(1084.521484 0)"/>
     <use xlink:href="#DejaVuSans-Bold-64" transform="translate(1155.712891 0)"/>
     <use xlink:href="#DejaVuSans-Bold-67" transform="translate(1227.294922 0)"/>
     <use xlink:href="#DejaVuSans-Bold-65" transform="translate(1298.876953 0)"/>
     <use xlink:href="#DejaVuSans-Bold-74" transform="translate(1366.699219 0)"/>
     <use xlink:href="#DejaVuSans-Bold-20" transform="translate(1414.501953 0)"/>
     <use xlink:href="#DejaVuSans-Bold-42" transform="translate(1449.316406 0)"/>
     <use xlink:href="#DejaVuSans-Bold-20" transform="translate(1525.537109 0)"/>
     <use xlink:href="#DejaVuSans-Bold-3d" transform="translate(1560.351562 0)"/>
     <use xlink:href="#DejaVuSans-Bold-20" transform="translate(1644.140625 0)"/>
     <use xlink:href="#DejaVuSans-Bold-32" transform="translate(1678.955078 0)"/>
    </g>
   </g>
   <g id="legend_1">
    <g id="patch_8">
     <path d="M 262.151641 199.698594 
L 415.971484 199.698594 
Q 417.771484 199.698594 417.771484 197.898594 
L 417.771484 145.957344 
Q 417.771484 144.157344 415.971484 144.157344 
L 262.151641 144.157344 
Q 260.351641 144.157344 260.351641 145.957344 
L 260.351641 197.898594 
Q 260.351641 199.698594 262.151641 199.698594 
z
" style="fill: #ffffff; opacity: 0.8; stroke: #8e6f3e; stroke-linejoin: miter"/>
    </g>
    <g id="line2d_32">
     <path d="M 263.951641 151.445937 
L 272.951641 151.445937 
L 281.951641 151.445937 
" style="fill: none; stroke: #000000; stroke-width: 2.6; stroke-linecap: square"/>
    </g>
    <g id="text_19">
     <!-- adaptive  D = 1 -->
     <g transform="translate(289.151641 154.595937) scale(0.09 -0.09)">
      <defs>
       <path id="DejaVuSans-44" d="M 1259 4147 
L 1259 519 
L 2022 519 
Q 2988 519 3436 956 
Q 3884 1394 3884 2338 
Q 3884 3275 3436 3711 
Q 2988 4147 2022 4147 
L 1259 4147 
z
M 628 4666 
L 1925 4666 
Q 3281 4666 3915 4102 
Q 4550 3538 4550 2338 
Q 4550 1131 3912 565 
Q 3275 0 1925 0 
L 628 0 
L 628 4666 
z
" transform="scale(0.015625)"/>
      </defs>
      <use xlink:href="#DejaVuSans-61"/>
      <use xlink:href="#DejaVuSans-64" transform="translate(61.279297 0)"/>
      <use xlink:href="#DejaVuSans-61" transform="translate(124.755859 0)"/>
      <use xlink:href="#DejaVuSans-70" transform="translate(186.035156 0)"/>
      <use xlink:href="#DejaVuSans-74" transform="translate(249.511719 0)"/>
      <use xlink:href="#DejaVuSans-69" transform="translate(288.720703 0)"/>
      <use xlink:href="#DejaVuSans-76" transform="translate(316.503906 0)"/>
      <use xlink:href="#DejaVuSans-65" transform="translate(375.683594 0)"/>
      <use xlink:href="#DejaVuSans-20" transform="translate(437.207031 0)"/>
      <use xlink:href="#DejaVuSans-20" transform="translate(468.994141 0)"/>
      <use xlink:href="#DejaVuSans-44" transform="translate(500.78125 0)"/>
      <use xlink:href="#DejaVuSans-20" transform="translate(577.783203 0)"/>
      <use xlink:href="#DejaVuSans-3d" transform="translate(609.570312 0)"/>
      <use xlink:href="#DejaVuSans-20" transform="translate(693.359375 0)"/>
      <use xlink:href="#DejaVuSans-31" transform="translate(725.146484 0)"/>
     </g>
    </g>
    <g id="line2d_33">
     <path d="M 263.951641 164.65625 
L 272.951641 164.65625 
L 281.951641 164.65625 
" style="fill: none; stroke: #8e6f3e; stroke-width: 2.6; stroke-linecap: square"/>
    </g>
    <g id="text_20">
     <!-- sharp nonadaptive  D = 1/K -->
     <g transform="translate(289.151641 167.80625) scale(0.09 -0.09)">
      <use xlink:href="#DejaVuSans-73"/>
      <use xlink:href="#DejaVuSans-68" transform="translate(52.099609 0)"/>
      <use xlink:href="#DejaVuSans-61" transform="translate(115.478516 0)"/>
      <use xlink:href="#DejaVuSans-72" transform="translate(176.757812 0)"/>
      <use xlink:href="#DejaVuSans-70" transform="translate(217.871094 0)"/>
      <use xlink:href="#DejaVuSans-20" transform="translate(281.347656 0)"/>
      <use xlink:href="#DejaVuSans-6e" transform="translate(313.134766 0)"/>
      <use xlink:href="#DejaVuSans-6f" transform="translate(376.513672 0)"/>
      <use xlink:href="#DejaVuSans-6e" transform="translate(437.695312 0)"/>
      <use xlink:href="#DejaVuSans-61" transform="translate(501.074219 0)"/>
      <use xlink:href="#DejaVuSans-64" transform="translate(562.353516 0)"/>
      <use xlink:href="#DejaVuSans-61" transform="translate(625.830078 0)"/>
      <use xlink:href="#DejaVuSans-70" transform="translate(687.109375 0)"/>
      <use xlink:href="#DejaVuSans-74" transform="translate(750.585938 0)"/>
      <use xlink:href="#DejaVuSans-69" transform="translate(789.794922 0)"/>
      <use xlink:href="#DejaVuSans-76" transform="translate(817.578125 0)"/>
      <use xlink:href="#DejaVuSans-65" transform="translate(876.757812 0)"/>
      <use xlink:href="#DejaVuSans-20" transform="translate(938.28125 0)"/>
      <use xlink:href="#DejaVuSans-20" transform="translate(970.068359 0)"/>
      <use xlink:href="#DejaVuSans-44" transform="translate(1001.855469 0)"/>
      <use xlink:href="#DejaVuSans-20" transform="translate(1078.857422 0)"/>
      <use xlink:href="#DejaVuSans-3d" transform="translate(1110.644531 0)"/>
      <use xlink:href="#DejaVuSans-20" transform="translate(1194.433594 0)"/>
      <use xlink:href="#DejaVuSans-31" transform="translate(1226.220703 0)"/>
      <use xlink:href="#DejaVuSans-2f" transform="translate(1289.84375 0)"/>
      <use xlink:href="#DejaVuSans-4b" transform="translate(1323.535156 0)"/>
     </g>
    </g>
    <g id="line2d_34">
     <path d="M 263.951641 177.866562 
L 272.951641 177.866562 
L 281.951641 177.866562 
" style="fill: none; stroke-dasharray: 7.4,3.2; stroke-dashoffset: 0; stroke: #4a4a4a; stroke-width: 2"/>
    </g>
    <g id="text_21">
     <!-- k-pair habitat  D = 2/k -->
     <g transform="translate(289.151641 181.016562) scale(0.09 -0.09)">
      <use xlink:href="#DejaVuSans-6b"/>
      <use xlink:href="#DejaVuSans-2d" transform="translate(57.910156 0)"/>
      <use xlink:href="#DejaVuSans-70" transform="translate(93.994141 0)"/>
      <use xlink:href="#DejaVuSans-61" transform="translate(157.470703 0)"/>
      <use xlink:href="#DejaVuSans-69" transform="translate(218.75 0)"/>
      <use xlink:href="#DejaVuSans-72" transform="translate(246.533203 0)"/>
      <use xlink:href="#DejaVuSans-20" transform="translate(287.646484 0)"/>
      <use xlink:href="#DejaVuSans-68" transform="translate(319.433594 0)"/>
      <use xlink:href="#DejaVuSans-61" transform="translate(382.8125 0)"/>
      <use xlink:href="#DejaVuSans-62" transform="translate(444.091797 0)"/>
      <use xlink:href="#DejaVuSans-69" transform="translate(507.568359 0)"/>
      <use xlink:href="#DejaVuSans-74" transform="translate(535.351562 0)"/>
      <use xlink:href="#DejaVuSans-61" transform="translate(574.560547 0)"/>
      <use xlink:href="#DejaVuSans-74" transform="translate(635.839844 0)"/>
      <use xlink:href="#DejaVuSans-20" transform="translate(675.048828 0)"/>
      <use xlink:href="#DejaVuSans-20" transform="translate(706.835938 0)"/>
      <use xlink:href="#DejaVuSans-44" transform="translate(738.623047 0)"/>
      <use xlink:href="#DejaVuSans-20" transform="translate(815.625 0)"/>
      <use xlink:href="#DejaVuSans-3d" transform="translate(847.412109 0)"/>
      <use xlink:href="#DejaVuSans-20" transform="translate(931.201172 0)"/>
      <use xlink:href="#DejaVuSans-32" transform="translate(962.988281 0)"/>
      <use xlink:href="#DejaVuSans-2f" transform="translate(1026.611328 0)"/>
      <use xlink:href="#DejaVuSans-6b" transform="translate(1060.302734 0)"/>
     </g>
    </g>
    <g id="patch_9">
     <path d="M 263.951641 194.226875 
L 281.951641 194.226875 
L 281.951641 187.926875 
L 263.951641 187.926875 
z
" style="fill: #cfb991; fill-opacity: 0.45; stroke: #cfb991; stroke-opacity: 0.45; stroke-linejoin: miter"/>
    </g>
    <g id="text_22">
     <!-- Sharp gap G2(K) = 1 - 1/K -->
     <g transform="translate(289.151641 194.226875) scale(0.09 -0.09)">
      <defs>
       <path id="DejaVuSans-53" d="M 3425 4513 
L 3425 3897 
Q 3066 4069 2747 4153 
Q 2428 4238 2131 4238 
Q 1616 4238 1336 4038 
Q 1056 3838 1056 3469 
Q 1056 3159 1242 3001 
Q 1428 2844 1947 2747 
L 2328 2669 
Q 3034 2534 3370 2195 
Q 3706 1856 3706 1288 
Q 3706 609 3251 259 
Q 2797 -91 1919 -91 
Q 1588 -91 1214 -16 
Q 841 59 441 206 
L 441 856 
Q 825 641 1194 531 
Q 1563 422 1919 422 
Q 2459 422 2753 634 
Q 3047 847 3047 1241 
Q 3047 1584 2836 1778 
Q 2625 1972 2144 2069 
L 1759 2144 
Q 1053 2284 737 2584 
Q 422 2884 422 3419 
Q 422 4038 858 4394 
Q 1294 4750 2059 4750 
Q 2388 4750 2728 4690 
Q 3069 4631 3425 4513 
z
" transform="scale(0.015625)"/>
      </defs>
      <use xlink:href="#DejaVuSans-53"/>
      <use xlink:href="#DejaVuSans-68" transform="translate(63.476562 0)"/>
      <use xlink:href="#DejaVuSans-61" transform="translate(126.855469 0)"/>
      <use xlink:href="#DejaVuSans-72" transform="translate(188.134766 0)"/>
      <use xlink:href="#DejaVuSans-70" transform="translate(229.248047 0)"/>
      <use xlink:href="#DejaVuSans-20" transform="translate(292.724609 0)"/>
      <use xlink:href="#DejaVuSans-67" transform="translate(324.511719 0)"/>
      <use xlink:href="#DejaVuSans-61" transform="translate(387.988281 0)"/>
      <use xlink:href="#DejaVuSans-70" transform="translate(449.267578 0)"/>
      <use xlink:href="#DejaVuSans-20" transform="translate(512.744141 0)"/>
      <use xlink:href="#DejaVuSans-47" transform="translate(544.53125 0)"/>
      <use xlink:href="#DejaVuSans-32" transform="translate(622.021484 0)"/>
      <use xlink:href="#DejaVuSans-28" transform="translate(685.644531 0)"/>
      <use xlink:href="#DejaVuSans-4b" transform="translate(724.658203 0)"/>
      <use xlink:href="#DejaVuSans-29" transform="translate(790.234375 0)"/>
      <use xlink:href="#DejaVuSans-20" transform="translate(829.248047 0)"/>
      <use xlink:href="#DejaVuSans-3d" transform="translate(861.035156 0)"/>
      <use xlink:href="#DejaVuSans-20" transform="translate(944.824219 0)"/>
      <use xlink:href="#DejaVuSans-31" transform="translate(976.611328 0)"/>
      <use xlink:href="#DejaVuSans-20" transform="translate(1040.234375 0)"/>
      <use xlink:href="#DejaVuSans-2d" transform="translate(1072.021484 0)"/>
      <use xlink:href="#DejaVuSans-20" transform="translate(1108.105469 0)"/>
      <use xlink:href="#DejaVuSans-31" transform="translate(1139.892578 0)"/>
      <use xlink:href="#DejaVuSans-2f" transform="translate(1203.515625 0)"/>
      <use xlink:href="#DejaVuSans-4b" transform="translate(1237.207031 0)"/>
     </g>
    </g>
   </g>
  </g>
 </g>
 <defs>
  <clipPath id="pc6b9cd2096">
   <rect x="44.749063" y="29.077969" width="588.625" height="285.7"/>
  </clipPath>
 </defs>
</svg>
