<?xml version="1.0" encoding="utf-8" standalone="no"?>
<!DOCTYPE svg PUBLIC "-//W3C//DTD SVG 1.1//EN"
  "http://www.w3.org/Graphics/SVG/1.1/DTD/svg11.dtd">
<svg xmlns:xlink="http://www.w3.org/1999/xlink" width="759.051165pt" height="427.350795pt" viewBox="0 0 759.051165 427.350795" xmlns="http://www.w3.org/2000/svg" version="1.1">
 <metadata>
  <rdf:RDF xmlns:dc="http://purl.org/dc/elements/1.1/" xmlns:cc="http://creativecommons.org/ns#" xmlns:rdf="http://www.w3.org/1999/02/22-rdf-syntax-ns#">
   <cc:Work>
    <dc:type rdf:resource="http://purl.org/dc/dcmitype/StillImage"/>
    <dc:date>2026-07-12T17:27:13.174827</dc:date>
    <dc:format>image/svg+xml</dc:format>
    <dc:creator>
     <cc:Agent>
      <dc:title>Matplotlib v3.10.9, https://matplotlib.org/</dc:title>
     </cc:Agent>
    </dc:creator>
   </cc:Work>
  </rdf:RDF>
 </metadata>
 <defs>
  <style type="text/css">*{stroke-linejoin: round; stroke-linecap: butt}</style>
 </defs>
 <g id="figure_1">
  <g id="patch_1">
   <path d="M 0 427.350795 
L 759.051165 427.350795 
L 759.051165 0 
L 0 0 
z
"/>
  </g>
  <g id="axes_1">
   <g id="patch_2">
    <path d="M 53.938438 376.154545 
L 743.211165 376.154545 
L 743.211165 42.1 
L 53.938438 42.1 
z
"/>
   </g>
   <g id="matplotlib.axis_1">
    <g id="xtick_1">
     <g id="line2d_1">
      <path d="M 116.599595 376.154545 
L 116.599595 42.1 
" clip-path="url(#pb02b4c102e)" style="fill: none; stroke: #2a2a2a; stroke-width: 0.6; stroke-linecap: square"/>
     </g>
     <g id="line2d_2">
      <defs>
       <path id="mac39c9224a" d="M 0 0 
L 0 3.5 
" style="stroke: #8a8a8a; stroke-width: 0.7"/>
      </defs>
      <g>
       <use xlink:href="#mac39c9224a" x="116.599595" y="376.154545" style="fill: #8a8a8a; stroke: #8a8a8a; stroke-width: 0.7"/>
      </g>
     </g>
     <g id="text_1">
      <!-- 2.5 -->
      <g style="fill: #8a8a8a" transform="translate(109.443188 389.993139) scale(0.09 -0.09)">
       <defs>
        <path id="DejaVuSerif-32" d="M 819 3553 
L 469 3553 
L 469 4384 
Q 803 4563 1142 4656 
Q 1481 4750 1806 4750 
Q 2534 4750 2956 4397 
Q 3378 4044 3378 3438 
Q 3378 2753 2422 1800 
Q 2347 1728 2309 1691 
L 1131 513 
L 3078 513 
L 3078 1088 
L 3444 1088 
L 3444 0 
L 434 0 
L 434 341 
L 1850 1753 
Q 2319 2222 2519 2614 
Q 2719 3006 2719 3438 
Q 2719 3909 2473 4175 
Q 2228 4441 1797 4441 
Q 1350 4441 1106 4219 
Q 863 3997 819 3553 
z
" transform="scale(0.015625)"/>
        <path id="DejaVuSerif-2e" d="M 603 325 
Q 603 500 722 622 
Q 841 744 1019 744 
Q 1191 744 1312 622 
Q 1434 500 1434 325 
Q 1434 153 1312 31 
Q 1191 -91 1019 -91 
Q 841 -91 722 29 
Q 603 150 603 325 
z
" transform="scale(0.015625)"/>
        <path id="DejaVuSerif-35" d="M 3219 4666 
L 3219 4153 
L 1081 4153 
L 1081 2816 
Q 1244 2928 1461 2984 
Q 1678 3041 1947 3041 
Q 2703 3041 3140 2622 
Q 3578 2203 3578 1478 
Q 3578 738 3136 323 
Q 2694 -91 1894 -91 
Q 1572 -91 1234 -12 
Q 897 66 544 225 
L 544 1131 
L 897 1131 
Q 925 688 1179 453 
Q 1434 219 1894 219 
Q 2388 219 2653 544 
Q 2919 869 2919 1478 
Q 2919 2084 2655 2407 
Q 2391 2731 1894 2731 
Q 1613 2731 1398 2631 
Q 1184 2531 1019 2322 
L 750 2322 
L 750 4666 
L 3219 4666 
z
" transform="scale(0.015625)"/>
       </defs>
       <use xlink:href="#DejaVuSerif-32"/>
       <use xlink:href="#DejaVuSerif-2e" transform="translate(63.623047 0)"/>
       <use xlink:href="#DejaVuSerif-35" transform="translate(95.410156 0)"/>
      </g>
     </g>
    </g>
    <g id="xtick_2">
     <g id="line2d_3">
      <path d="M 199.048485 376.154545 
L 199.048485 42.1 
" clip-path="url(#pb02b4c102e)" style="fill: none; stroke: #2a2a2a; stroke-width: 0.6; stroke-linecap: square"/>
     </g>
     <g id="line2d_4">
      <g>
       <use xlink:href="#mac39c9224a" x="199.048485" y="376.154545" style="fill: #8a8a8a; stroke: #8a8a8a; stroke-width: 0.7"/>
      </g>
     </g>
     <g id="text_2">
      <!-- 5.0 -->
      <g style="fill: #8a8a8a" transform="translate(191.892079 389.993139) scale(0.09 -0.09)">
       <defs>
        <path id="DejaVuSerif-30" d="M 2034 219 
Q 2513 219 2750 744 
Q 2988 1269 2988 2328 
Q 2988 3391 2750 3916 
Q 2513 4441 2034 4441 
Q 1556 4441 1318 3916 
Q 1081 3391 1081 2328 
Q 1081 1269 1318 744 
Q 1556 219 2034 219 
z
M 2034 -91 
Q 1275 -91 848 546 
Q 422 1184 422 2328 
Q 422 3475 848 4112 
Q 1275 4750 2034 4750 
Q 2797 4750 3222 4112 
Q 3647 3475 3647 2328 
Q 3647 1184 3222 546 
Q 2797 -91 2034 -91 
z
" transform="scale(0.015625)"/>
       </defs>
       <use xlink:href="#DejaVuSerif-35"/>
       <use xlink:href="#DejaVuSerif-2e" transform="translate(63.623047 0)"/>
       <use xlink:href="#DejaVuSerif-30" transform="translate(95.410156 0)"/>
      </g>
     </g>
    </g>
    <g id="xtick_3">
     <g id="line2d_5">
      <path d="M 281.497376 376.154545 
L 281.497376 42.1 
" clip-path="url(#pb02b4c102e)" style="fill: none; stroke: #2a2a2a; stroke-width: 0.6; stroke-linecap: square"/>
     </g>
     <g id="line2d_6">
      <g>
       <use xlink:href="#mac39c9224a" x="281.497376" y="376.154545" style="fill: #8a8a8a; stroke: #8a8a8a; stroke-width: 0.7"/>
      </g>
     </g>
     <g id="text_3">
      <!-- 7.5 -->
      <g style="fill: #8a8a8a" transform="translate(274.34097 389.993139) scale(0.09 -0.09)">
       <defs>
        <path id="DejaVuSerif-37" d="M 3609 4347 
L 1784 0 
L 1319 0 
L 3059 4153 
L 903 4153 
L 903 3578 
L 538 3578 
L 538 4666 
L 3609 4666 
L 3609 4347 
z
" transform="scale(0.015625)"/>
       </defs>
       <use xlink:href="#DejaVuSerif-37"/>
       <use xlink:href="#DejaVuSerif-2e" transform="translate(63.623047 0)"/>
       <use xlink:href="#DejaVuSerif-35" transform="translate(95.410156 0)"/>
      </g>
     </g>
    </g>
    <g id="xtick_4">
     <g id="line2d_7">
      <path d="M 363.946267 376.154545 
L 363.946267 42.1 
" clip-path="url(#pb02b4c102e)" style="fill: none; stroke: #2a2a2a; stroke-width: 0.6; stroke-linecap: square"/>
     </g>
     <g id="line2d_8">
      <g>
       <use xlink:href="#mac39c9224a" x="363.946267" y="376.154545" style="fill: #8a8a8a; stroke: #8a8a8a; stroke-width: 0.7"/>
      </g>
     </g>
     <g id="text_4">
      <!-- 10.0 -->
      <g style="fill: #8a8a8a" transform="translate(353.926736 389.993139) scale(0.09 -0.09)">
       <defs>
        <path id="DejaVuSerif-31" d="M 909 0 
L 909 331 
L 1722 331 
L 1722 4213 
L 781 3603 
L 781 4013 
L 1919 4750 
L 2350 4750 
L 2350 331 
L 3163 331 
L 3163 0 
L 909 0 
z
" transform="scale(0.015625)"/>
       </defs>
       <use xlink:href="#DejaVuSerif-31"/>
       <use xlink:href="#DejaVuSerif-30" transform="translate(63.623047 0)"/>
       <use xlink:href="#DejaVuSerif-2e" transform="translate(127.246094 0)"/>
       <use xlink:href="#DejaVuSerif-30" transform="translate(159.033203 0)"/>
      </g>
     </g>
    </g>
    <g id="xtick_5">
     <g id="line2d_9">
      <path d="M 446.395158 376.154545 
L 446.395158 42.1 
" clip-path="url(#pb02b4c102e)" style="fill: none; stroke: #2a2a2a; stroke-width: 0.6; stroke-linecap: square"/>
     </g>
     <g id="line2d_10">
      <g>
       <use xlink:href="#mac39c9224a" x="446.395158" y="376.154545" style="fill: #8a8a8a; stroke: #8a8a8a; stroke-width: 0.7"/>
      </g>
     </g>
     <g id="text_5">
      <!-- 12.5 -->
      <g style="fill: #8a8a8a" transform="translate(436.375627 389.993139) scale(0.09 -0.09)">
       <use xlink:href="#DejaVuSerif-31"/>
       <use xlink:href="#DejaVuSerif-32" transform="translate(63.623047 0)"/>
       <use xlink:href="#DejaVuSerif-2e" transform="translate(127.246094 0)"/>
       <use xlink:href="#DejaVuSerif-35" transform="translate(159.033203 0)"/>
      </g>
     </g>
    </g>
    <g id="xtick_6">
     <g id="line2d_11">
      <path d="M 528.844049 376.154545 
L 528.844049 42.1 
" clip-path="url(#pb02b4c102e)" style="fill: none; stroke: #2a2a2a; stroke-width: 0.6; stroke-linecap: square"/>
     </g>
     <g id="line2d_12">
      <g>
       <use xlink:href="#mac39c9224a" x="528.844049" y="376.154545" style="fill: #8a8a8a; stroke: #8a8a8a; stroke-width: 0.7"/>
      </g>
     </g>
     <g id="text_6">
      <!-- 15.0 -->
      <g style="fill: #8a8a8a" transform="translate(518.824517 389.993139) scale(0.09 -0.09)">
       <use xlink:href="#DejaVuSerif-31"/>
       <use xlink:href="#DejaVuSerif-35" transform="translate(63.623047 0)"/>
       <use xlink:href="#DejaVuSerif-2e" transform="translate(127.246094 0)"/>
       <use xlink:href="#DejaVuSerif-30" transform="translate(159.033203 0)"/>
      </g>
     </g>
    </g>
    <g id="xtick_7">
     <g id="line2d_13">
      <path d="M 611.292939 376.154545 
L 611.292939 42.1 
" clip-path="url(#pb02b4c102e)" style="fill: none; stroke: #2a2a2a; stroke-width: 0.6; stroke-linecap: square"/>
     </g>
     <g id="line2d_14">
      <g>
       <use xlink:href="#mac39c9224a" x="611.292939" y="376.154545" style="fill: #8a8a8a; stroke: #8a8a8a; stroke-width: 0.7"/>
      </g>
     </g>
     <g id="text_7">
      <!-- 17.5 -->
      <g style="fill: #8a8a8a" transform="translate(601.273408 389.993139) scale(0.09 -0.09)">
       <use xlink:href="#DejaVuSerif-31"/>
       <use xlink:href="#DejaVuSerif-37" transform="translate(63.623047 0)"/>
       <use xlink:href="#DejaVuSerif-2e" transform="translate(127.246094 0)"/>
       <use xlink:href="#DejaVuSerif-35" transform="translate(159.033203 0)"/>
      </g>
     </g>
    </g>
    <g id="xtick_8">
     <g id="line2d_15">
      <path d="M 693.74183 376.154545 
L 693.74183 42.1 
" clip-path="url(#pb02b4c102e)" style="fill: none; stroke: #2a2a2a; stroke-width: 0.6; stroke-linecap: square"/>
     </g>
     <g id="line2d_16">
      <g>
       <use xlink:href="#mac39c9224a" x="693.74183" y="376.154545" style="fill: #8a8a8a; stroke: #8a8a8a; stroke-width: 0.7"/>
      </g>
     </g>
     <g id="text_8">
      <!-- 20.0 -->
      <g style="fill: #8a8a8a" transform="translate(683.722299 389.993139) scale(0.09 -0.09)">
       <use xlink:href="#DejaVuSerif-32"/>
       <use xlink:href="#DejaVuSerif-30" transform="translate(63.623047 0)"/>
       <use xlink:href="#DejaVuSerif-2e" transform="translate(127.246094 0)"/>
       <use xlink:href="#DejaVuSerif-30" transform="translate(159.033203 0)"/>
      </g>
     </g>
    </g>
    <g id="text_9">
     <!-- branches  $k$ -->
     <g style="fill: #8a8a8a" transform="translate(366.509801 409.223139) scale(0.11 -0.11)">
      <defs>
       <path id="DejaVuSerif-62" d="M 738 331 
L 738 4531 
L 184 4531 
L 184 4863 
L 1313 4863 
L 1313 2803 
Q 1481 3116 1742 3264 
Q 2003 3413 2388 3413 
Q 3000 3413 3387 2928 
Q 3775 2444 3775 1663 
Q 3775 881 3387 395 
Q 3000 -91 2388 -91 
Q 2003 -91 1742 57 
Q 1481 206 1313 519 
L 1313 0 
L 184 0 
L 184 331 
L 738 331 
z
M 1313 1497 
Q 1313 897 1542 583 
Q 1772 269 2209 269 
Q 2650 269 2876 622 
Q 3103 975 3103 1663 
Q 3103 2353 2876 2703 
Q 2650 3053 2209 3053 
Q 1772 3053 1542 2737 
Q 1313 2422 1313 1825 
L 1313 1497 
z
" transform="scale(0.015625)"/>
       <path id="DejaVuSerif-72" d="M 3059 3328 
L 3059 2497 
L 2728 2497 
Q 2713 2744 2591 2866 
Q 2469 2988 2234 2988 
Q 1809 2988 1582 2694 
Q 1356 2400 1356 1850 
L 1356 331 
L 2022 331 
L 2022 0 
L 263 0 
L 263 331 
L 781 331 
L 781 2994 
L 231 2994 
L 231 3322 
L 1356 3322 
L 1356 2731 
Q 1525 3078 1790 3245 
Q 2056 3413 2438 3413 
Q 2578 3413 2733 3391 
Q 2888 3369 3059 3328 
z
" transform="scale(0.015625)"/>
       <path id="DejaVuSerif-61" d="M 2547 1044 
L 2547 1747 
L 1806 1747 
Q 1378 1747 1168 1562 
Q 959 1378 959 997 
Q 959 650 1171 447 
Q 1384 244 1747 244 
Q 2106 244 2326 466 
Q 2547 688 2547 1044 
z
M 3122 2075 
L 3122 331 
L 3634 331 
L 3634 0 
L 2547 0 
L 2547 359 
Q 2356 128 2106 18 
Q 1856 -91 1522 -91 
Q 969 -91 644 203 
Q 319 497 319 997 
Q 319 1513 691 1797 
Q 1063 2081 1741 2081 
L 2547 2081 
L 2547 2309 
Q 2547 2688 2317 2895 
Q 2088 3103 1672 3103 
Q 1328 3103 1125 2947 
Q 922 2791 872 2484 
L 575 2484 
L 575 3156 
Q 875 3284 1158 3348 
Q 1441 3413 1709 3413 
Q 2400 3413 2761 3070 
Q 3122 2728 3122 2075 
z
" transform="scale(0.015625)"/>
       <path id="DejaVuSerif-6e" d="M 263 0 
L 263 331 
L 781 331 
L 781 2988 
L 231 2988 
L 231 3322 
L 1356 3322 
L 1356 2731 
Q 1516 3069 1770 3241 
Q 2025 3413 2363 3413 
Q 2913 3413 3172 3097 
Q 3431 2781 3431 2113 
L 3431 331 
L 3944 331 
L 3944 0 
L 2356 0 
L 2356 331 
L 2853 331 
L 2853 1931 
Q 2853 2541 2703 2767 
Q 2553 2994 2175 2994 
Q 1775 2994 1565 2701 
Q 1356 2409 1356 1850 
L 1356 331 
L 1856 331 
L 1856 0 
L 263 0 
z
" transform="scale(0.015625)"/>
       <path id="DejaVuSerif-63" d="M 3291 997 
Q 3169 466 2822 187 
Q 2475 -91 1925 -91 
Q 1200 -91 759 389 
Q 319 869 319 1663 
Q 319 2459 759 2936 
Q 1200 3413 1925 3413 
Q 2241 3413 2553 3339 
Q 2866 3266 3181 3116 
L 3181 2266 
L 2847 2266 
Q 2781 2703 2561 2903 
Q 2341 3103 1931 3103 
Q 1466 3103 1228 2742 
Q 991 2381 991 1663 
Q 991 944 1227 581 
Q 1463 219 1931 219 
Q 2303 219 2525 412 
Q 2747 606 2828 997 
L 3291 997 
z
" transform="scale(0.015625)"/>
       <path id="DejaVuSerif-68" d="M 263 0 
L 263 331 
L 781 331 
L 781 4531 
L 231 4531 
L 231 4863 
L 1356 4863 
L 1356 2731 
Q 1516 3069 1770 3241 
Q 2025 3413 2363 3413 
Q 2913 3413 3172 3097 
Q 3431 2781 3431 2113 
L 3431 331 
L 3944 331 
L 3944 0 
L 2356 0 
L 2356 331 
L 2853 331 
L 2853 1931 
Q 2853 2541 2704 2764 
Q 2556 2988 2175 2988 
Q 1775 2988 1565 2697 
Q 1356 2406 1356 1850 
L 1356 331 
L 1856 331 
L 1856 0 
L 263 0 
z
" transform="scale(0.015625)"/>
       <path id="DejaVuSerif-65" d="M 3469 1600 
L 991 1600 
L 991 1575 
Q 991 903 1244 561 
Q 1497 219 1991 219 
Q 2369 219 2611 417 
Q 2853 616 2950 1006 
L 3413 1006 
Q 3275 459 2904 184 
Q 2534 -91 1931 -91 
Q 1203 -91 761 389 
Q 319 869 319 1663 
Q 319 2450 753 2931 
Q 1188 3413 1894 3413 
Q 2647 3413 3050 2948 
Q 3453 2484 3469 1600 
z
M 2791 1931 
Q 2772 2513 2545 2808 
Q 2319 3103 1894 3103 
Q 1497 3103 1269 2806 
Q 1041 2509 991 1931 
L 2791 1931 
z
" transform="scale(0.015625)"/>
       <path id="DejaVuSerif-73" d="M 359 184 
L 359 959 
L 691 959 
Q 703 588 923 403 
Q 1144 219 1575 219 
Q 1963 219 2166 364 
Q 2369 509 2369 788 
Q 2369 1006 2220 1140 
Q 2072 1275 1594 1428 
L 1178 1569 
Q 750 1706 558 1912 
Q 366 2119 366 2438 
Q 366 2894 700 3153 
Q 1034 3413 1625 3413 
Q 1888 3413 2178 3344 
Q 2469 3275 2778 3144 
L 2778 2419 
L 2447 2419 
Q 2434 2741 2221 2922 
Q 2009 3103 1644 3103 
Q 1281 3103 1095 2975 
Q 909 2847 909 2591 
Q 909 2381 1050 2254 
Q 1191 2128 1613 1997 
L 2069 1856 
Q 2541 1709 2748 1489 
Q 2956 1269 2956 922 
Q 2956 450 2595 179 
Q 2234 -91 1600 -91 
Q 1278 -91 972 -22 
Q 666 47 359 184 
z
" transform="scale(0.015625)"/>
       <path id="DejaVuSerif-20" transform="scale(0.015625)"/>
       <path id="Cmmi10-6b" d="M 341 116 
Q 341 153 347 172 
L 1275 3872 
Q 1300 3981 1306 4044 
Q 1306 4147 891 4147 
Q 825 4147 825 4231 
Q 828 4247 839 4287 
Q 850 4328 867 4350 
Q 884 4372 916 4372 
L 1778 4441 
L 1797 4441 
Q 1797 4434 1819 4423 
Q 1841 4413 1844 4409 
Q 1856 4378 1856 4359 
L 1184 1684 
Q 1416 1781 1767 2145 
Q 2119 2509 2317 2668 
Q 2516 2828 2816 2828 
Q 2994 2828 3119 2706 
Q 3244 2584 3244 2406 
Q 3244 2294 3197 2198 
Q 3150 2103 3065 2043 
Q 2981 1984 2869 1984 
Q 2766 1984 2695 2048 
Q 2625 2113 2625 2216 
Q 2625 2369 2733 2473 
Q 2841 2578 2994 2578 
Q 2931 2663 2803 2663 
Q 2613 2663 2436 2553 
Q 2259 2444 2054 2239 
Q 1850 2034 1681 1864 
Q 1513 1694 1369 1606 
Q 1747 1563 2025 1408 
Q 2303 1253 2303 934 
Q 2303 869 2278 769 
Q 2222 528 2222 384 
Q 2222 97 2419 97 
Q 2650 97 2770 350 
Q 2891 603 2969 941 
Q 2981 978 3022 978 
L 3097 978 
Q 3122 978 3139 962 
Q 3156 947 3156 922 
Q 3156 916 3150 903 
Q 2909 -72 2406 -72 
Q 2225 -72 2086 12 
Q 1947 97 1872 242 
Q 1797 388 1797 569 
Q 1797 672 1825 781 
Q 1844 856 1844 922 
Q 1844 1169 1625 1297 
Q 1406 1425 1125 1453 
L 800 147 
Q 775 50 703 -11 
Q 631 -72 538 -72 
Q 456 -72 398 -17 
Q 341 38 341 116 
z
" transform="scale(0.015625)"/>
      </defs>
      <use xlink:href="#DejaVuSerif-62" transform="translate(0 0.015625)"/>
      <use xlink:href="#DejaVuSerif-72" transform="translate(64.013672 0.015625)"/>
      <use xlink:href="#DejaVuSerif-61" transform="translate(111.816406 0.015625)"/>
      <use xlink:href="#DejaVuSerif-6e" transform="translate(171.435547 0.015625)"/>
      <use xlink:href="#DejaVuSerif-63" transform="translate(235.839844 0.015625)"/>
      <use xlink:href="#DejaVuSerif-68" transform="translate(291.845703 0.015625)"/>
      <use xlink:href="#DejaVuSerif-65" transform="translate(356.25 0.015625)"/>
      <use xlink:href="#DejaVuSerif-73" transform="translate(415.429688 0.015625)"/>
      <use xlink:href="#DejaVuSerif-20" transform="translate(466.748047 0.015625)"/>
      <use xlink:href="#DejaVuSerif-20" transform="translate(498.535156 0.015625)"/>
      <use xlink:href="#Cmmi10-6b" transform="translate(530.322266 0.015625)"/>
     </g>
    </g>
   </g>
   <g id="matplotlib.axis_2">
    <g id="ytick_1">
     <g id="line2d_17">
      <path d="M 53.938438 376.154545 
L 743.211165 376.154545 
" clip-path="url(#pb02b4c102e)" style="fill: none; stroke: #2a2a2a; stroke-width: 0.6; stroke-linecap: square"/>
     </g>
     <g id="line2d_18">
      <defs>
       <path id="m836431b201" d="M 0 0 
L -3.5 0 
" style="stroke: #8a8a8a; stroke-width: 0.7"/>
      </defs>
      <g>
       <use xlink:href="#m836431b201" x="53.938438" y="376.154545" style="fill: #8a8a8a; stroke: #8a8a8a; stroke-width: 0.7"/>
      </g>
     </g>
     <g id="text_10">
      <!-- 0 -->
      <g style="fill: #8a8a8a" transform="translate(41.212188 379.573842) scale(0.09 -0.09)">
       <use xlink:href="#DejaVuSerif-30"/>
      </g>
     </g>
    </g>
    <g id="ytick_2">
     <g id="line2d_19">
      <path d="M 53.938438 303.533992 
L 743.211165 303.533992 
" clip-path="url(#pb02b4c102e)" style="fill: none; stroke: #2a2a2a; stroke-width: 0.6; stroke-linecap: square"/>
     </g>
     <g id="line2d_20">
      <g>
       <use xlink:href="#m836431b201" x="53.938438" y="303.533992" style="fill: #8a8a8a; stroke: #8a8a8a; stroke-width: 0.7"/>
      </g>
     </g>
     <g id="text_11">
      <!-- 10 -->
      <g style="fill: #8a8a8a" transform="translate(35.485938 306.953289) scale(0.09 -0.09)">
       <use xlink:href="#DejaVuSerif-31"/>
       <use xlink:href="#DejaVuSerif-30" transform="translate(63.623047 0)"/>
      </g>
     </g>
    </g>
    <g id="ytick_3">
     <g id="line2d_21">
      <path d="M 53.938438 230.913439 
L 743.211165 230.913439 
" clip-path="url(#pb02b4c102e)" style="fill: none; stroke: #2a2a2a; stroke-width: 0.6; stroke-linecap: square"/>
     </g>
     <g id="line2d_22">
      <g>
       <use xlink:href="#m836431b201" x="53.938438" y="230.913439" style="fill: #8a8a8a; stroke: #8a8a8a; stroke-width: 0.7"/>
      </g>
     </g>
     <g id="text_12">
      <!-- 20 -->
      <g style="fill: #8a8a8a" transform="translate(35.485938 234.332736) scale(0.09 -0.09)">
       <use xlink:href="#DejaVuSerif-32"/>
       <use xlink:href="#DejaVuSerif-30" transform="translate(63.623047 0)"/>
      </g>
     </g>
    </g>
    <g id="ytick_4">
     <g id="line2d_23">
      <path d="M 53.938438 158.292885 
L 743.211165 158.292885 
" clip-path="url(#pb02b4c102e)" style="fill: none; stroke: #2a2a2a; stroke-width: 0.6; stroke-linecap: square"/>
     </g>
     <g id="line2d_24">
      <g>
       <use xlink:href="#m836431b201" x="53.938438" y="158.292885" style="fill: #8a8a8a; stroke: #8a8a8a; stroke-width: 0.7"/>
      </g>
     </g>
     <g id="text_13">
      <!-- 30 -->
      <g style="fill: #8a8a8a" transform="translate(35.485938 161.712182) scale(0.09 -0.09)">
       <defs>
        <path id="DejaVuSerif-33" d="M 622 4469 
Q 988 4606 1323 4678 
Q 1659 4750 1953 4750 
Q 2638 4750 3022 4454 
Q 3406 4159 3406 3634 
Q 3406 3213 3140 2930 
Q 2875 2647 2388 2547 
Q 2963 2466 3280 2130 
Q 3597 1794 3597 1259 
Q 3597 606 3158 257 
Q 2719 -91 1894 -91 
Q 1528 -91 1179 -12 
Q 831 66 488 225 
L 488 1131 
L 838 1131 
Q 869 681 1141 450 
Q 1413 219 1906 219 
Q 2384 219 2661 495 
Q 2938 772 2938 1253 
Q 2938 1803 2653 2086 
Q 2369 2369 1819 2369 
L 1522 2369 
L 1522 2688 
L 1678 2688 
Q 2225 2688 2498 2914 
Q 2772 3141 2772 3597 
Q 2772 4006 2547 4223 
Q 2322 4441 1900 4441 
Q 1478 4441 1245 4241 
Q 1013 4041 972 3647 
L 622 3647 
L 622 4469 
z
" transform="scale(0.015625)"/>
       </defs>
       <use xlink:href="#DejaVuSerif-33"/>
       <use xlink:href="#DejaVuSerif-30" transform="translate(63.623047 0)"/>
      </g>
     </g>
    </g>
    <g id="ytick_5">
     <g id="line2d_25">
      <path d="M 53.938438 85.672332 
L 743.211165 85.672332 
" clip-path="url(#pb02b4c102e)" style="fill: none; stroke: #2a2a2a; stroke-width: 0.6; stroke-linecap: square"/>
     </g>
     <g id="line2d_26">
      <g>
       <use xlink:href="#m836431b201" x="53.938438" y="85.672332" style="fill: #8a8a8a; stroke: #8a8a8a; stroke-width: 0.7"/>
      </g>
     </g>
     <g id="text_14">
      <!-- 40 -->
      <g style="fill: #8a8a8a" transform="translate(35.485938 89.091629) scale(0.09 -0.09)">
       <defs>
        <path id="DejaVuSerif-34" d="M 2234 1581 
L 2234 4063 
L 641 1581 
L 2234 1581 
z
M 3609 0 
L 1484 0 
L 1484 331 
L 2234 331 
L 2234 1247 
L 197 1247 
L 197 1588 
L 2241 4750 
L 2859 4750 
L 2859 1581 
L 3750 1581 
L 3750 1247 
L 2859 1247 
L 2859 331 
L 3609 331 
L 3609 0 
z
" transform="scale(0.015625)"/>
       </defs>
       <use xlink:href="#DejaVuSerif-34"/>
       <use xlink:href="#DejaVuSerif-30" transform="translate(63.623047 0)"/>
      </g>
     </g>
    </g>
    <g id="text_15">
     <!-- $B^\star$ for TV $=1$ -->
     <g style="fill: #8a8a8a" transform="translate(24.198281 248.177273) rotate(-90) scale(0.11 -0.11)">
      <defs>
       <path id="Cmmi10-42" d="M 319 0 
Q 256 0 256 84 
Q 259 100 268 137 
Q 278 175 293 200 
Q 309 225 341 225 
Q 522 225 656 234 
Q 791 244 884 269 
Q 959 297 1006 441 
L 1881 3956 
Q 1894 4019 1894 4044 
Q 1894 4113 1819 4122 
Q 1697 4147 1356 4147 
Q 1294 4147 1294 4231 
Q 1297 4247 1306 4286 
Q 1316 4325 1333 4348 
Q 1350 4372 1375 4372 
L 3669 4372 
Q 3878 4372 4083 4320 
Q 4288 4269 4461 4156 
Q 4634 4044 4736 3876 
Q 4838 3709 4838 3488 
Q 4838 3247 4714 3040 
Q 4591 2834 4395 2681 
Q 4200 2528 3973 2429 
Q 3747 2331 3500 2284 
Q 3675 2284 3854 2215 
Q 4034 2147 4175 2028 
Q 4316 1909 4402 1743 
Q 4488 1578 4488 1388 
Q 4488 1003 4219 684 
Q 3950 366 3542 183 
Q 3134 0 2753 0 
L 319 0 
z
M 1497 275 
Q 1497 225 1716 225 
L 2631 225 
Q 2944 225 3231 398 
Q 3519 572 3692 859 
Q 3866 1147 3866 1459 
Q 3866 1650 3786 1820 
Q 3706 1991 3556 2089 
Q 3406 2188 3213 2188 
L 1966 2188 
L 1522 416 
Q 1497 328 1497 275 
z
M 2009 2356 
L 2981 2356 
Q 3288 2356 3577 2512 
Q 3866 2669 4048 2937 
Q 4231 3206 4231 3506 
Q 4231 3784 4057 3965 
Q 3884 4147 3609 4147 
L 2731 4147 
Q 2559 4147 2500 4115 
Q 2441 4084 2400 3928 
L 2009 2356 
z
" transform="scale(0.015625)"/>
       <path id="STIXGeneral-Regular-22c6" d="M 4256 2336 
L 2810 1459 
L 3494 -83 
L 2240 1062 
L 986 -83 
L 1670 1459 
L 224 2336 
L 1901 2144 
L 2240 3821 
L 2579 2144 
L 4256 2336 
z
" transform="scale(0.015625)"/>
       <path id="DejaVuSerif-66" d="M 2753 4078 
L 2450 4078 
Q 2447 4313 2317 4434 
Q 2188 4556 1941 4556 
Q 1619 4556 1487 4379 
Q 1356 4203 1356 3750 
L 1356 3322 
L 2284 3322 
L 2284 2988 
L 1356 2988 
L 1356 331 
L 2094 331 
L 2094 0 
L 231 0 
L 231 331 
L 781 331 
L 781 2988 
L 231 2988 
L 231 3322 
L 781 3322 
L 781 3738 
Q 781 4294 1070 4578 
Q 1359 4863 1919 4863 
Q 2128 4863 2337 4825 
Q 2547 4788 2753 4709 
L 2753 4078 
z
" transform="scale(0.015625)"/>
       <path id="DejaVuSerif-6f" d="M 1925 219 
Q 2388 219 2623 584 
Q 2859 950 2859 1663 
Q 2859 2375 2623 2739 
Q 2388 3103 1925 3103 
Q 1463 3103 1227 2739 
Q 991 2375 991 1663 
Q 991 950 1228 584 
Q 1466 219 1925 219 
z
M 1925 -91 
Q 1200 -91 759 389 
Q 319 869 319 1663 
Q 319 2456 758 2934 
Q 1197 3413 1925 3413 
Q 2653 3413 3092 2934 
Q 3531 2456 3531 1663 
Q 3531 869 3092 389 
Q 2653 -91 1925 -91 
z
" transform="scale(0.015625)"/>
       <path id="DejaVuSerif-54" d="M 1222 0 
L 1222 331 
L 1819 331 
L 1819 4294 
L 447 4294 
L 447 3566 
L 63 3566 
L 63 4666 
L 4206 4666 
L 4206 3566 
L 3822 3566 
L 3822 4294 
L 2450 4294 
L 2450 331 
L 3047 331 
L 3047 0 
L 1222 0 
z
" transform="scale(0.015625)"/>
       <path id="DejaVuSerif-56" d="M 1119 4331 
L 2497 750 
L 3872 4331 
L 3347 4331 
L 3347 4666 
L 4716 4666 
L 4716 4331 
L 4263 4331 
L 2597 0 
L 2059 0 
L 403 4331 
L -63 4331 
L -63 4666 
L 1638 4666 
L 1638 4331 
L 1119 4331 
z
" transform="scale(0.015625)"/>
       <path id="Cmr10-3d" d="M 481 850 
Q 428 850 393 890 
Q 359 931 359 978 
Q 359 1031 393 1068 
Q 428 1106 481 1106 
L 4500 1106 
Q 4547 1106 4581 1068 
Q 4616 1031 4616 978 
Q 4616 931 4581 890 
Q 4547 850 4500 850 
L 481 850 
z
M 481 2094 
Q 428 2094 393 2131 
Q 359 2169 359 2222 
Q 359 2269 393 2309 
Q 428 2350 481 2350 
L 4500 2350 
Q 4547 2350 4581 2309 
Q 4616 2269 4616 2222 
Q 4616 2169 4581 2131 
Q 4547 2094 4500 2094 
L 481 2094 
z
" transform="scale(0.015625)"/>
       <path id="Cmr10-31" d="M 594 0 
L 594 225 
Q 1394 225 1394 428 
L 1394 3788 
Q 1063 3628 556 3628 
L 556 3853 
Q 1341 3853 1741 4263 
L 1831 4263 
Q 1853 4263 1873 4245 
Q 1894 4228 1894 4206 
L 1894 428 
Q 1894 225 2694 225 
L 2694 0 
L 594 0 
z
" transform="scale(0.015625)"/>
      </defs>
      <use xlink:href="#Cmmi10-42" transform="translate(0 0.94375)"/>
      <use xlink:href="#STIXGeneral-Regular-22c6" transform="translate(99.441797 39.207812) scale(0.7)"/>
      <use xlink:href="#DejaVuSerif-20" transform="translate(167.110146 0.94375)"/>
      <use xlink:href="#DejaVuSerif-66" transform="translate(198.897255 0.94375)"/>
      <use xlink:href="#DejaVuSerif-6f" transform="translate(235.908974 0.94375)"/>
      <use xlink:href="#DejaVuSerif-72" transform="translate(296.114052 0.94375)"/>
      <use xlink:href="#DejaVuSerif-20" transform="translate(343.916786 0.94375)"/>
      <use xlink:href="#DejaVuSerif-54" transform="translate(375.703896 0.94375)"/>
      <use xlink:href="#DejaVuSerif-56" transform="translate(442.403114 0.94375)"/>
      <use xlink:href="#DejaVuSerif-20" transform="translate(514.619911 0.94375)"/>
      <use xlink:href="#Cmr10-3d" transform="translate(563.965614 0.94375)"/>
      <use xlink:href="#Cmr10-31" transform="translate(659.209755 0.94375)"/>
     </g>
    </g>
   </g>
   <g id="FillBetweenPolyCollection_1">
    <defs>
     <path id="m311ae1d595" d="M 67.13026 -65.720361 
L 67.13026 -72.982416 
L 100.109816 -72.982416 
L 133.089373 -72.982416 
L 166.068929 -72.982416 
L 199.048485 -72.982416 
L 232.028042 -72.982416 
L 265.007598 -72.982416 
L 297.987154 -72.982416 
L 330.966711 -72.982416 
L 363.946267 -72.982416 
L 396.925823 -72.982416 
L 429.90538 -72.982416 
L 462.884936 -72.982416 
L 495.864492 -72.982416 
L 528.844049 -72.982416 
L 561.823605 -72.982416 
L 594.803161 -72.982416 
L 627.782718 -72.982416 
L 660.762274 -72.982416 
L 693.74183 -72.982416 
L 726.721387 -72.982416 
L 726.721387 -356.202574 
L 726.721387 -356.202574 
L 693.74183 -341.678463 
L 660.762274 -327.154353 
L 627.782718 -312.630242 
L 594.803161 -298.106131 
L 561.823605 -283.582021 
L 528.844049 -269.05791 
L 495.864492 -254.533799 
L 462.884936 -240.009689 
L 429.90538 -225.485578 
L 396.925823 -210.961467 
L 363.946267 -196.437357 
L 330.966711 -181.913246 
L 297.987154 -167.389135 
L 265.007598 -152.865025 
L 232.028042 -138.340914 
L 199.048485 -123.816803 
L 166.068929 -109.292693 
L 133.089373 -94.768582 
L 100.109816 -80.244471 
L 67.13026 -65.720361 
z
" style="stroke: #f2f2f2; stroke-opacity: 0.06"/>
    </defs>
    <g clip-path="url(#pb02b4c102e)">
     <use xlink:href="#m311ae1d595" x="0" y="427.350795" style="fill: #f2f2f2; fill-opacity: 0.06; stroke: #f2f2f2; stroke-opacity: 0.06"/>
    </g>
   </g>
   <g id="patch_3">
    <path d="M 53.938438 376.154545 
L 53.938438 42.1 
" style="fill: none; stroke: #3a3a3a; stroke-linejoin: miter; stroke-linecap: square"/>
   </g>
   <g id="patch_4">
    <path d="M 53.938438 376.154545 
L 743.211165 376.154545 
" style="fill: none; stroke: #3a3a3a; stroke-linejoin: miter; stroke-linecap: square"/>
   </g>
   <g id="text_16">
    <!-- Budget to perfect separation  ·  parity $m=2$ -->
    <g style="fill: #f2f2f2" transform="translate(249.737301 26.1) scale(0.135 -0.135)">
     <defs>
      <path id="DejaVuSerif-42" d="M 1581 331 
L 2516 331 
Q 3078 331 3337 575 
Q 3597 819 3597 1350 
Q 3597 1878 3339 2120 
Q 3081 2363 2516 2363 
L 1581 2363 
L 1581 331 
z
M 1581 2694 
L 2375 2694 
Q 2888 2694 3123 2891 
Q 3359 3088 3359 3513 
Q 3359 3941 3123 4136 
Q 2888 4331 2375 4331 
L 1581 4331 
L 1581 2694 
z
M 353 0 
L 353 331 
L 947 331 
L 947 4331 
L 353 4331 
L 353 4666 
L 2656 4666 
Q 3363 4666 3720 4377 
Q 4078 4088 4078 3513 
Q 4078 3097 3829 2850 
Q 3581 2603 3103 2547 
Q 3697 2472 4005 2167 
Q 4313 1863 4313 1350 
Q 4313 656 3875 328 
Q 3438 0 2509 0 
L 353 0 
z
" transform="scale(0.015625)"/>
      <path id="DejaVuSerif-75" d="M 2266 3322 
L 3341 3322 
L 3341 331 
L 3884 331 
L 3884 0 
L 2766 0 
L 2766 588 
Q 2606 256 2353 82 
Q 2100 -91 1766 -91 
Q 1213 -91 952 223 
Q 691 538 691 1209 
L 691 2988 
L 172 2988 
L 172 3322 
L 1269 3322 
L 1269 1388 
Q 1269 781 1417 556 
Q 1566 331 1947 331 
Q 2347 331 2556 625 
Q 2766 919 2766 1478 
L 2766 2988 
L 2266 2988 
L 2266 3322 
z
" transform="scale(0.015625)"/>
      <path id="DejaVuSerif-64" d="M 3359 331 
L 3909 331 
L 3909 0 
L 2784 0 
L 2784 519 
Q 2616 206 2355 57 
Q 2094 -91 1709 -91 
Q 1097 -91 708 395 
Q 319 881 319 1663 
Q 319 2444 706 2928 
Q 1094 3413 1709 3413 
Q 2094 3413 2355 3264 
Q 2616 3116 2784 2803 
L 2784 4531 
L 2241 4531 
L 2241 4863 
L 3359 4863 
L 3359 331 
z
M 2784 1497 
L 2784 1825 
Q 2784 2422 2554 2737 
Q 2325 3053 1888 3053 
Q 1444 3053 1217 2703 
Q 991 2353 991 1663 
Q 991 975 1217 622 
Q 1444 269 1888 269 
Q 2325 269 2554 583 
Q 2784 897 2784 1497 
z
" transform="scale(0.015625)"/>
      <path id="DejaVuSerif-67" d="M 3359 2988 
L 3359 72 
Q 3359 -644 2965 -1033 
Q 2572 -1422 1844 -1422 
Q 1516 -1422 1216 -1362 
Q 916 -1303 641 -1184 
L 641 -488 
L 941 -488 
Q 997 -813 1206 -963 
Q 1416 -1113 1806 -1113 
Q 2313 -1113 2548 -827 
Q 2784 -541 2784 72 
L 2784 519 
Q 2616 206 2355 57 
Q 2094 -91 1709 -91 
Q 1097 -91 708 395 
Q 319 881 319 1663 
Q 319 2444 706 2928 
Q 1094 3413 1709 3413 
Q 2094 3413 2355 3264 
Q 2616 3116 2784 2803 
L 2784 3322 
L 3909 3322 
L 3909 2988 
L 3359 2988 
z
M 2784 1825 
Q 2784 2422 2554 2737 
Q 2325 3053 1888 3053 
Q 1444 3053 1217 2703 
Q 991 2353 991 1663 
Q 991 975 1217 622 
Q 1444 269 1888 269 
Q 2325 269 2554 583 
Q 2784 897 2784 1497 
L 2784 1825 
z
" transform="scale(0.015625)"/>
      <path id="DejaVuSerif-74" d="M 691 2988 
L 184 2988 
L 184 3322 
L 691 3322 
L 691 4353 
L 1269 4353 
L 1269 3322 
L 2350 3322 
L 2350 2988 
L 1269 2988 
L 1269 878 
Q 1269 456 1350 337 
Q 1431 219 1650 219 
Q 1875 219 1978 351 
Q 2081 484 2088 781 
L 2522 781 
Q 2497 328 2275 118 
Q 2053 -91 1600 -91 
Q 1103 -91 897 129 
Q 691 350 691 878 
L 691 2988 
z
" transform="scale(0.015625)"/>
      <path id="DejaVuSerif-70" d="M 1313 1825 
L 1313 1497 
Q 1313 897 1542 583 
Q 1772 269 2209 269 
Q 2650 269 2876 622 
Q 3103 975 3103 1663 
Q 3103 2353 2876 2703 
Q 2650 3053 2209 3053 
Q 1772 3053 1542 2737 
Q 1313 2422 1313 1825 
z
M 738 2988 
L 184 2988 
L 184 3322 
L 1313 3322 
L 1313 2803 
Q 1481 3116 1742 3264 
Q 2003 3413 2388 3413 
Q 3000 3413 3387 2928 
Q 3775 2444 3775 1663 
Q 3775 881 3387 395 
Q 3000 -91 2388 -91 
Q 2003 -91 1742 57 
Q 1481 206 1313 519 
L 1313 -997 
L 1856 -997 
L 1856 -1331 
L 184 -1331 
L 184 -997 
L 738 -997 
L 738 2988 
z
" transform="scale(0.015625)"/>
      <path id="DejaVuSerif-69" d="M 622 4353 
Q 622 4497 726 4603 
Q 831 4709 978 4709 
Q 1122 4709 1226 4603 
Q 1331 4497 1331 4353 
Q 1331 4206 1228 4103 
Q 1125 4000 978 4000 
Q 831 4000 726 4103 
Q 622 4206 622 4353 
z
M 1356 331 
L 1900 331 
L 1900 0 
L 231 0 
L 231 331 
L 781 331 
L 781 2988 
L 231 2988 
L 231 3322 
L 1356 3322 
L 1356 331 
z
" transform="scale(0.015625)"/>
      <path id="DejaVuSerif-b7" d="M 594 2222 
Q 594 2397 714 2517 
Q 834 2638 1013 2638 
Q 1184 2638 1306 2516 
Q 1428 2394 1428 2222 
Q 1428 2047 1306 1926 
Q 1184 1806 1013 1806 
Q 834 1806 714 1925 
Q 594 2044 594 2222 
z
" transform="scale(0.015625)"/>
      <path id="DejaVuSerif-79" d="M 1381 -609 
L 1600 -56 
L 359 2988 
L -19 2988 
L -19 3322 
L 1509 3322 
L 1509 2988 
L 978 2988 
L 1913 703 
L 2847 2988 
L 2350 2988 
L 2350 3322 
L 3597 3322 
L 3597 2988 
L 3225 2988 
L 1703 -750 
Q 1547 -1138 1356 -1280 
Q 1166 -1422 819 -1422 
Q 672 -1422 517 -1397 
Q 363 -1372 206 -1325 
L 206 -691 
L 500 -691 
Q 519 -903 608 -995 
Q 697 -1088 884 -1088 
Q 1056 -1088 1161 -992 
Q 1266 -897 1381 -609 
z
" transform="scale(0.015625)"/>
      <path id="Cmmi10-6d" d="M 494 109 
Q 494 147 500 166 
L 978 2075 
Q 1025 2253 1025 2388 
Q 1025 2663 838 2663 
Q 638 2663 541 2423 
Q 444 2184 353 1819 
Q 353 1800 334 1789 
Q 316 1778 300 1778 
L 225 1778 
Q 203 1778 187 1801 
Q 172 1825 172 1844 
Q 241 2122 305 2315 
Q 369 2509 505 2668 
Q 641 2828 844 2828 
Q 1084 2828 1268 2676 
Q 1453 2525 1453 2291 
Q 1644 2541 1900 2684 
Q 2156 2828 2444 2828 
Q 2747 2828 2967 2673 
Q 3188 2519 3188 2234 
Q 3384 2513 3648 2670 
Q 3913 2828 4225 2828 
Q 4556 2828 4757 2648 
Q 4959 2469 4959 2138 
Q 4959 1875 4842 1503 
Q 4725 1131 4550 672 
Q 4459 450 4459 288 
Q 4459 97 4609 97 
Q 4859 97 5025 365 
Q 5191 634 5259 941 
Q 5278 978 5313 978 
L 5388 978 
Q 5413 978 5430 961 
Q 5447 944 5447 922 
Q 5447 916 5441 903 
Q 5353 541 5136 234 
Q 4919 -72 4594 -72 
Q 4369 -72 4209 83 
Q 4050 238 4050 459 
Q 4050 572 4103 709 
Q 4284 1191 4404 1569 
Q 4525 1947 4525 2234 
Q 4525 2413 4453 2538 
Q 4381 2663 4213 2663 
Q 3863 2663 3606 2448 
Q 3350 2234 3163 1881 
Q 3150 1819 3144 1784 
L 2731 141 
Q 2709 53 2632 -9 
Q 2556 -72 2463 -72 
Q 2388 -72 2330 -22 
Q 2272 28 2272 109 
Q 2272 147 2278 166 
L 2688 1797 
Q 2753 2059 2753 2234 
Q 2753 2413 2679 2538 
Q 2606 2663 2431 2663 
Q 2197 2663 2000 2559 
Q 1803 2456 1656 2286 
Q 1509 2116 1388 1881 
L 953 141 
Q 931 53 854 -9 
Q 778 -72 684 -72 
Q 606 -72 550 -22 
Q 494 28 494 109 
z
" transform="scale(0.015625)"/>
      <path id="Cmr10-32" d="M 319 0 
L 319 172 
Q 319 188 331 206 
L 1325 1306 
Q 1550 1550 1690 1715 
Q 1831 1881 1968 2097 
Q 2106 2313 2186 2536 
Q 2266 2759 2266 3009 
Q 2266 3272 2169 3511 
Q 2072 3750 1880 3894 
Q 1688 4038 1416 4038 
Q 1138 4038 916 3870 
Q 694 3703 603 3438 
Q 628 3444 672 3444 
Q 816 3444 917 3347 
Q 1019 3250 1019 3097 
Q 1019 2950 917 2848 
Q 816 2747 672 2747 
Q 522 2747 420 2851 
Q 319 2956 319 3097 
Q 319 3338 409 3548 
Q 500 3759 670 3923 
Q 841 4088 1055 4175 
Q 1269 4263 1509 4263 
Q 1875 4263 2190 4108 
Q 2506 3953 2690 3670 
Q 2875 3388 2875 3009 
Q 2875 2731 2753 2481 
Q 2631 2231 2440 2026 
Q 2250 1822 1953 1562 
Q 1656 1303 1563 1216 
L 838 519 
L 1453 519 
Q 1906 519 2211 526 
Q 2516 534 2534 550 
Q 2609 631 2688 1141 
L 2875 1141 
L 2694 0 
L 319 0 
z
" transform="scale(0.015625)"/>
     </defs>
     <use xlink:href="#DejaVuSerif-42" transform="translate(0 0.015625)"/>
     <use xlink:href="#DejaVuSerif-75" transform="translate(73.486328 0.015625)"/>
     <use xlink:href="#DejaVuSerif-64" transform="translate(137.890625 0.015625)"/>
     <use xlink:href="#DejaVuSerif-67" transform="translate(201.904297 0.015625)"/>
     <use xlink:href="#DejaVuSerif-65" transform="translate(265.917969 0.015625)"/>
     <use xlink:href="#DejaVuSerif-74" transform="translate(325.097656 0.015625)"/>
     <use xlink:href="#DejaVuSerif-20" transform="translate(365.283203 0.015625)"/>
     <use xlink:href="#DejaVuSerif-74" transform="translate(397.070312 0.015625)"/>
     <use xlink:href="#DejaVuSerif-6f" transform="translate(437.255859 0.015625)"/>
     <use xlink:href="#DejaVuSerif-20" transform="translate(497.460938 0.015625)"/>
     <use xlink:href="#DejaVuSerif-70" transform="translate(529.248047 0.015625)"/>
     <use xlink:href="#DejaVuSerif-65" transform="translate(593.261719 0.015625)"/>
     <use xlink:href="#DejaVuSerif-72" transform="translate(652.441406 0.015625)"/>
     <use xlink:href="#DejaVuSerif-66" transform="translate(700.244141 0.015625)"/>
     <use xlink:href="#DejaVuSerif-65" transform="translate(737.255859 0.015625)"/>
     <use xlink:href="#DejaVuSerif-63" transform="translate(796.435547 0.015625)"/>
     <use xlink:href="#DejaVuSerif-74" transform="translate(852.441406 0.015625)"/>
     <use xlink:href="#DejaVuSerif-20" transform="translate(892.626953 0.015625)"/>
     <use xlink:href="#DejaVuSerif-73" transform="translate(924.414062 0.015625)"/>
     <use xlink:href="#DejaVuSerif-65" transform="translate(975.732422 0.015625)"/>
     <use xlink:href="#DejaVuSerif-70" transform="translate(1034.912109 0.015625)"/>
     <use xlink:href="#DejaVuSerif-61" transform="translate(1098.925781 0.015625)"/>
     <use xlink:href="#DejaVuSerif-72" transform="translate(1158.544922 0.015625)"/>
     <use xlink:href="#DejaVuSerif-61" transform="translate(1206.347656 0.015625)"/>
     <use xlink:href="#DejaVuSerif-74" transform="translate(1265.966797 0.015625)"/>
     <use xlink:href="#DejaVuSerif-69" transform="translate(1306.152344 0.015625)"/>
     <use xlink:href="#DejaVuSerif-6f" transform="translate(1338.134766 0.015625)"/>
     <use xlink:href="#DejaVuSerif-6e" transform="translate(1398.339844 0.015625)"/>
     <use xlink:href="#DejaVuSerif-20" transform="translate(1462.744141 0.015625)"/>
     <use xlink:href="#DejaVuSerif-20" transform="translate(1494.53125 0.015625)"/>
     <use xlink:href="#DejaVuSerif-b7" transform="translate(1526.318359 0.015625)"/>
     <use xlink:href="#DejaVuSerif-20" transform="translate(1558.105469 0.015625)"/>
     <use xlink:href="#DejaVuSerif-20" transform="translate(1589.892578 0.015625)"/>
     <use xlink:href="#DejaVuSerif-70" transform="translate(1621.679688 0.015625)"/>
     <use xlink:href="#DejaVuSerif-61" transform="translate(1685.693359 0.015625)"/>
     <use xlink:href="#DejaVuSerif-72" transform="translate(1745.3125 0.015625)"/>
     <use xlink:href="#DejaVuSerif-69" transform="translate(1793.115234 0.015625)"/>
     <use xlink:href="#DejaVuSerif-74" transform="translate(1825.097656 0.015625)"/>
     <use xlink:href="#DejaVuSerif-79" transform="translate(1865.283203 0.015625)"/>
     <use xlink:href="#DejaVuSerif-20" transform="translate(1921.777344 0.015625)"/>
     <use xlink:href="#Cmmi10-6d" transform="translate(1953.564453 0.015625)"/>
     <use xlink:href="#Cmr10-3d" transform="translate(2058.916016 0.015625)"/>
     <use xlink:href="#Cmr10-32" transform="translate(2154.160156 0.015625)"/>
    </g>
   </g>
   <g id="legend_1">
    <g id="patch_5">
     <path d="M 58.438437 81.16 
L 200.728437 81.16 
L 200.728437 46.6 
L 58.438437 46.6 
z
" style="fill: #0a0a0a; stroke: #3a3a3a; stroke-linejoin: miter"/>
    </g>
    <g id="line2d_27">
     <path d="M 64.288438 56.59 
L 73.288438 56.59 
L 82.288438 56.59 
" style="fill: none; stroke: #cfb991; stroke-width: 2; stroke-linecap: square"/>
     <defs>
      <path id="m9a38592725" d="M 0 2.25 
C 0.596707 2.25 1.169055 2.012926 1.59099 1.59099 
C 2.012926 1.169055 2.25 0.596707 2.25 0 
C 2.25 -0.596707 2.012926 -1.169055 1.59099 -1.59099 
C 1.169055 -2.012926 0.596707 -2.25 0 -2.25 
C -0.596707 -2.25 -1.169055 -2.012926 -1.59099 -1.59099 
C -2.012926 -1.169055 -2.25 -0.596707 -2.25 0 
C -2.25 0.596707 -2.012926 1.169055 -1.59099 1.59099 
C -1.169055 2.012926 -0.596707 2.25 0 2.25 
z
" style="stroke: #cfb991; stroke-width: 1.1"/>
     </defs>
     <g>
      <use xlink:href="#m9a38592725" x="73.288438" y="56.59" style="stroke: #cfb991; stroke-width: 1.1"/>
     </g>
    </g>
    <g id="text_17">
     <!-- adaptive  $B^\star=1+m$ -->
     <g style="fill: #d0d0d0" transform="translate(89.488438 59.74) scale(0.09 -0.09)">
      <defs>
       <path id="DejaVuSerif-76" d="M 1581 0 
L 359 2988 
L -19 2988 
L -19 3322 
L 1509 3322 
L 1509 2988 
L 978 2988 
L 1913 703 
L 2847 2988 
L 2350 2988 
L 2350 3322 
L 3597 3322 
L 3597 2988 
L 3225 2988 
L 2003 0 
L 1581 0 
z
" transform="scale(0.015625)"/>
       <path id="Cmr10-2b" d="M 481 1472 
Q 428 1472 393 1512 
Q 359 1553 359 1600 
Q 359 1647 393 1687 
Q 428 1728 481 1728 
L 2363 1728 
L 2363 3616 
Q 2363 3666 2400 3698 
Q 2438 3731 2491 3731 
Q 2538 3731 2578 3698 
Q 2619 3666 2619 3616 
L 2619 1728 
L 4500 1728 
Q 4547 1728 4581 1687 
Q 4616 1647 4616 1600 
Q 4616 1553 4581 1512 
Q 4547 1472 4500 1472 
L 2619 1472 
L 2619 -416 
Q 2619 -466 2578 -498 
Q 2538 -531 2491 -531 
Q 2438 -531 2400 -498 
Q 2363 -466 2363 -416 
L 2363 1472 
L 481 1472 
z
" transform="scale(0.015625)"/>
      </defs>
      <use xlink:href="#DejaVuSerif-61" transform="translate(0 0.94375)"/>
      <use xlink:href="#DejaVuSerif-64" transform="translate(59.619141 0.94375)"/>
      <use xlink:href="#DejaVuSerif-61" transform="translate(123.632812 0.94375)"/>
      <use xlink:href="#DejaVuSerif-70" transform="translate(183.251953 0.94375)"/>
      <use xlink:href="#DejaVuSerif-74" transform="translate(247.265625 0.94375)"/>
      <use xlink:href="#DejaVuSerif-69" transform="translate(287.451172 0.94375)"/>
      <use xlink:href="#DejaVuSerif-76" transform="translate(319.433594 0.94375)"/>
      <use xlink:href="#DejaVuSerif-65" transform="translate(375.927734 0.94375)"/>
      <use xlink:href="#DejaVuSerif-20" transform="translate(435.107422 0.94375)"/>
      <use xlink:href="#DejaVuSerif-20" transform="translate(466.894531 0.94375)"/>
      <use xlink:href="#Cmmi10-42" transform="translate(498.681641 0.94375)"/>
      <use xlink:href="#STIXGeneral-Regular-22c6" transform="translate(598.123438 39.207812) scale(0.7)"/>
      <use xlink:href="#Cmr10-3d" transform="translate(683.35038 0.94375)"/>
      <use xlink:href="#Cmr10-31" transform="translate(778.594521 0.94375)"/>
      <use xlink:href="#Cmr10-2b" transform="translate(846.153114 0.94375)"/>
      <use xlink:href="#Cmmi10-6d" transform="translate(941.397255 0.94375)"/>
     </g>
    </g>
    <g id="line2d_28">
     <path d="M 64.288438 70.27 
L 73.288438 70.27 
L 82.288438 70.27 
" style="fill: none; stroke: #f2f2f2; stroke-width: 2.2; stroke-linecap: square"/>
     <defs>
      <path id="m305d08dd5c" d="M -2 2 
L 2 2 
L 2 -2 
L -2 -2 
z
" style="stroke: #f2f2f2; stroke-linejoin: miter"/>
     </defs>
     <g>
      <use xlink:href="#m305d08dd5c" x="73.288438" y="70.27" style="stroke: #f2f2f2; stroke-linejoin: miter"/>
     </g>
    </g>
    <g id="text_18">
     <!-- nonadaptive  $B^\star=k\cdot m$ -->
     <g style="fill: #d0d0d0" transform="translate(89.488438 73.42) scale(0.09 -0.09)">
      <defs>
       <path id="Cmsy10-a2" d="M 538 1600 
Q 538 1691 584 1772 
Q 631 1853 714 1903 
Q 797 1953 891 1953 
Q 981 1953 1064 1903 
Q 1147 1853 1194 1772 
Q 1241 1691 1241 1600 
Q 1241 1456 1139 1351 
Q 1038 1247 891 1247 
Q 747 1247 642 1351 
Q 538 1456 538 1600 
z
" transform="scale(0.015625)"/>
      </defs>
      <use xlink:href="#DejaVuSerif-6e" transform="translate(0 0.94375)"/>
      <use xlink:href="#DejaVuSerif-6f" transform="translate(64.404297 0.94375)"/>
      <use xlink:href="#DejaVuSerif-6e" transform="translate(124.609375 0.94375)"/>
      <use xlink:href="#DejaVuSerif-61" transform="translate(189.013672 0.94375)"/>
      <use xlink:href="#DejaVuSerif-64" transform="translate(248.632812 0.94375)"/>
      <use xlink:href="#DejaVuSerif-61" transform="translate(312.646484 0.94375)"/>
      <use xlink:href="#DejaVuSerif-70" transform="translate(372.265625 0.94375)"/>
      <use xlink:href="#DejaVuSerif-74" transform="translate(436.279297 0.94375)"/>
      <use xlink:href="#DejaVuSerif-69" transform="translate(476.464844 0.94375)"/>
      <use xlink:href="#DejaVuSerif-76" transform="translate(508.447266 0.94375)"/>
      <use xlink:href="#DejaVuSerif-65" transform="translate(564.941406 0.94375)"/>
      <use xlink:href="#DejaVuSerif-20" transform="translate(624.121094 0.94375)"/>
      <use xlink:href="#DejaVuSerif-20" transform="translate(655.908203 0.94375)"/>
      <use xlink:href="#Cmmi10-42" transform="translate(687.695312 0.94375)"/>
      <use xlink:href="#STIXGeneral-Regular-22c6" transform="translate(787.137109 39.207812) scale(0.7)"/>
      <use xlink:href="#Cmr10-3d" transform="translate(872.364052 0.94375)"/>
      <use xlink:href="#Cmmi10-6b" transform="translate(967.608192 0.94375)"/>
      <use xlink:href="#Cmsy10-a2" transform="translate(1037.168739 0.94375)"/>
      <use xlink:href="#Cmmi10-6d" transform="translate(1082.41288 0.94375)"/>
     </g>
    </g>
   </g>
   <g id="line2d_29">
    <path d="M 67.13026 354.368379 
L 100.109816 354.368379 
L 133.089373 354.368379 
L 166.068929 354.368379 
L 199.048485 354.368379 
L 232.028042 354.368379 
L 265.007598 354.368379 
L 297.987154 354.368379 
L 330.966711 354.368379 
L 363.946267 354.368379 
L 396.925823 354.368379 
L 429.90538 354.368379 
L 462.884936 354.368379 
L 495.864492 354.368379 
L 528.844049 354.368379 
L 561.823605 354.368379 
L 594.803161 354.368379 
L 627.782718 354.368379 
L 660.762274 354.368379 
L 693.74183 354.368379 
L 726.721387 354.368379 
" clip-path="url(#pb02b4c102e)" style="fill: none; stroke: #cfb991; stroke-width: 2; stroke-linecap: square"/>
    <g clip-path="url(#pb02b4c102e)">
     <use xlink:href="#m9a38592725" x="67.13026" y="354.368379" style="stroke: #cfb991; stroke-width: 1.1"/>
     <use xlink:href="#m9a38592725" x="100.109816" y="354.368379" style="stroke: #cfb991; stroke-width: 1.1"/>
     <use xlink:href="#m9a38592725" x="133.089373" y="354.368379" style="stroke: #cfb991; stroke-width: 1.1"/>
     <use xlink:href="#m9a38592725" x="166.068929" y="354.368379" style="stroke: #cfb991; stroke-width: 1.1"/>
     <use xlink:href="#m9a38592725" x="199.048485" y="354.368379" style="stroke: #cfb991; stroke-width: 1.1"/>
     <use xlink:href="#m9a38592725" x="232.028042" y="354.368379" style="stroke: #cfb991; stroke-width: 1.1"/>
     <use xlink:href="#m9a38592725" x="265.007598" y="354.368379" style="stroke: #cfb991; stroke-width: 1.1"/>
     <use xlink:href="#m9a38592725" x="297.987154" y="354.368379" style="stroke: #cfb991; stroke-width: 1.1"/>
     <use xlink:href="#m9a38592725" x="330.966711" y="354.368379" style="stroke: #cfb991; stroke-width: 1.1"/>
     <use xlink:href="#m9a38592725" x="363.946267" y="354.368379" style="stroke: #cfb991; stroke-width: 1.1"/>
     <use xlink:href="#m9a38592725" x="396.925823" y="354.368379" style="stroke: #cfb991; stroke-width: 1.1"/>
     <use xlink:href="#m9a38592725" x="429.90538" y="354.368379" style="stroke: #cfb991; stroke-width: 1.1"/>
     <use xlink:href="#m9a38592725" x="462.884936" y="354.368379" style="stroke: #cfb991; stroke-width: 1.1"/>
     <use xlink:href="#m9a38592725" x="495.864492" y="354.368379" style="stroke: #cfb991; stroke-width: 1.1"/>
     <use xlink:href="#m9a38592725" x="528.844049" y="354.368379" style="stroke: #cfb991; stroke-width: 1.1"/>
     <use xlink:href="#m9a38592725" x="561.823605" y="354.368379" style="stroke: #cfb991; stroke-width: 1.1"/>
     <use xlink:href="#m9a38592725" x="594.803161" y="354.368379" style="stroke: #cfb991; stroke-width: 1.1"/>
     <use xlink:href="#m9a38592725" x="627.782718" y="354.368379" style="stroke: #cfb991; stroke-width: 1.1"/>
     <use xlink:href="#m9a38592725" x="660.762274" y="354.368379" style="stroke: #cfb991; stroke-width: 1.1"/>
     <use xlink:href="#m9a38592725" x="693.74183" y="354.368379" style="stroke: #cfb991; stroke-width: 1.1"/>
     <use xlink:href="#m9a38592725" x="726.721387" y="354.368379" style="stroke: #cfb991; stroke-width: 1.1"/>
    </g>
   </g>
   <g id="line2d_30">
    <path d="M 67.13026 361.630435 
L 100.109816 347.106324 
L 133.089373 332.582213 
L 166.068929 318.058103 
L 199.048485 303.533992 
L 232.028042 289.009881 
L 265.007598 274.485771 
L 297.987154 259.96166 
L 330.966711 245.437549 
L 363.946267 230.913439 
L 396.925823 216.389328 
L 429.90538 201.865217 
L 462.884936 187.341107 
L 495.864492 172.816996 
L 528.844049 158.292885 
L 561.823605 143.768775 
L 594.803161 129.244664 
L 627.782718 114.720553 
L 660.762274 100.196443 
L 693.74183 85.672332 
L 726.721387 71.148221 
" clip-path="url(#pb02b4c102e)" style="fill: none; stroke: #f2f2f2; stroke-width: 2.2; stroke-linecap: square"/>
    <g clip-path="url(#pb02b4c102e)">
     <use xlink:href="#m305d08dd5c" x="67.13026" y="361.630435" style="stroke: #f2f2f2; stroke-linejoin: miter"/>
     <use xlink:href="#m305d08dd5c" x="100.109816" y="347.106324" style="stroke: #f2f2f2; stroke-linejoin: miter"/>
     <use xlink:href="#m305d08dd5c" x="133.089373" y="332.582213" style="stroke: #f2f2f2; stroke-linejoin: miter"/>
     <use xlink:href="#m305d08dd5c" x="166.068929" y="318.058103" style="stroke: #f2f2f2; stroke-linejoin: miter"/>
     <use xlink:href="#m305d08dd5c" x="199.048485" y="303.533992" style="stroke: #f2f2f2; stroke-linejoin: miter"/>
     <use xlink:href="#m305d08dd5c" x="232.028042" y="289.009881" style="stroke: #f2f2f2; stroke-linejoin: miter"/>
     <use xlink:href="#m305d08dd5c" x="265.007598" y="274.485771" style="stroke: #f2f2f2; stroke-linejoin: miter"/>
     <use xlink:href="#m305d08dd5c" x="297.987154" y="259.96166" style="stroke: #f2f2f2; stroke-linejoin: miter"/>
     <use xlink:href="#m305d08dd5c" x="330.966711" y="245.437549" style="stroke: #f2f2f2; stroke-linejoin: miter"/>
     <use xlink:href="#m305d08dd5c" x="363.946267" y="230.913439" style="stroke: #f2f2f2; stroke-linejoin: miter"/>
     <use xlink:href="#m305d08dd5c" x="396.925823" y="216.389328" style="stroke: #f2f2f2; stroke-linejoin: miter"/>
     <use xlink:href="#m305d08dd5c" x="429.90538" y="201.865217" style="stroke: #f2f2f2; stroke-linejoin: miter"/>
     <use xlink:href="#m305d08dd5c" x="462.884936" y="187.341107" style="stroke: #f2f2f2; stroke-linejoin: miter"/>
     <use xlink:href="#m305d08dd5c" x="495.864492" y="172.816996" style="stroke: #f2f2f2; stroke-linejoin: miter"/>
     <use xlink:href="#m305d08dd5c" x="528.844049" y="158.292885" style="stroke: #f2f2f2; stroke-linejoin: miter"/>
     <use xlink:href="#m305d08dd5c" x="561.823605" y="143.768775" style="stroke: #f2f2f2; stroke-linejoin: miter"/>
     <use xlink:href="#m305d08dd5c" x="594.803161" y="129.244664" style="stroke: #f2f2f2; stroke-linejoin: miter"/>
     <use xlink:href="#m305d08dd5c" x="627.782718" y="114.720553" style="stroke: #f2f2f2; stroke-linejoin: miter"/>
     <use xlink:href="#m305d08dd5c" x="660.762274" y="100.196443" style="stroke: #f2f2f2; stroke-linejoin: miter"/>
     <use xlink:href="#m305d08dd5c" x="693.74183" y="85.672332" style="stroke: #f2f2f2; stroke-linejoin: miter"/>
     <use xlink:href="#m305d08dd5c" x="726.721387" y="71.148221" style="stroke: #f2f2f2; stroke-linejoin: miter"/>
    </g>
   </g>
   <g id="text_19">
    <g id="patch_6">
     <path d="M 392.650823 135.894664 
L 498.575823 135.894664 
L 498.575823 117.844664 
L 392.650823 117.844664 
z
" style="stroke: #d0d0d0; stroke-width: 0.9; stroke-linejoin: miter"/>
    </g>
    <!-- ratio $km/(m+1)\to\infty$ -->
    <g style="fill: #f2f2f2" transform="translate(396.925823 129.244664) scale(0.095 -0.095)">
     <defs>
      <path id="Cmmi10-3d" d="M 359 -1472 
Q 359 -1453 366 -1447 
L 2591 4722 
Q 2603 4759 2634 4779 
Q 2666 4800 2706 4800 
Q 2763 4800 2798 4765 
Q 2834 4731 2834 4672 
L 2834 4647 
L 609 -1522 
Q 572 -1600 488 -1600 
Q 434 -1600 396 -1562 
Q 359 -1525 359 -1472 
z
" transform="scale(0.015625)"/>
      <path id="Cmr10-28" d="M 1984 -1588 
Q 1628 -1306 1370 -942 
Q 1113 -578 948 -165 
Q 784 247 703 697 
Q 622 1147 622 1600 
Q 622 2059 703 2509 
Q 784 2959 951 3375 
Q 1119 3791 1378 4153 
Q 1638 4516 1984 4788 
Q 1984 4800 2016 4800 
L 2075 4800 
Q 2094 4800 2109 4783 
Q 2125 4766 2125 4744 
Q 2125 4716 2113 4703 
Q 1800 4397 1592 4047 
Q 1384 3697 1257 3301 
Q 1131 2906 1075 2482 
Q 1019 2059 1019 1600 
Q 1019 -434 2106 -1491 
Q 2125 -1509 2125 -1544 
Q 2125 -1559 2108 -1579 
Q 2091 -1600 2075 -1600 
L 2016 -1600 
Q 1984 -1600 1984 -1588 
z
" transform="scale(0.015625)"/>
      <path id="Cmr10-29" d="M 416 -1600 
Q 359 -1600 359 -1544 
Q 359 -1516 372 -1503 
Q 1466 -434 1466 1600 
Q 1466 3634 384 4691 
Q 359 4706 359 4744 
Q 359 4766 376 4783 
Q 394 4800 416 4800 
L 475 4800 
Q 494 4800 506 4788 
Q 966 4425 1272 3906 
Q 1578 3388 1720 2800 
Q 1863 2213 1863 1600 
Q 1863 1147 1786 708 
Q 1709 269 1542 -157 
Q 1375 -584 1119 -945 
Q 863 -1306 506 -1588 
Q 494 -1600 475 -1600 
L 416 -1600 
z
" transform="scale(0.015625)"/>
      <path id="Cmsy10-21" d="M 481 1472 
Q 428 1472 393 1512 
Q 359 1553 359 1600 
Q 359 1647 393 1687 
Q 428 1728 481 1728 
L 5338 1728 
Q 5094 1903 4906 2133 
Q 4719 2363 4594 2627 
Q 4469 2891 4416 3188 
Q 4416 3272 4481 3272 
L 4609 3272 
Q 4631 3272 4648 3253 
Q 4666 3234 4672 3213 
Q 4725 2938 4839 2702 
Q 4953 2466 5125 2262 
Q 5297 2059 5509 1912 
Q 5722 1766 5991 1672 
Q 6034 1644 6034 1600 
Q 6034 1550 5991 1538 
Q 5656 1422 5378 1192 
Q 5100 963 4919 652 
Q 4738 341 4672 -13 
Q 4666 -34 4647 -53 
Q 4628 -72 4609 -72 
L 4481 -72 
Q 4416 -72 4416 13 
Q 4497 450 4740 836 
Q 4984 1222 5338 1472 
L 481 1472 
z
" transform="scale(0.015625)"/>
      <path id="Cmsy10-31" d="M 1575 -72 
Q 1213 -72 933 140 
Q 653 353 506 690 
Q 359 1028 359 1381 
Q 359 1653 445 1912 
Q 531 2172 693 2378 
Q 856 2584 1086 2706 
Q 1316 2828 1594 2828 
Q 1881 2828 2150 2718 
Q 2419 2609 2642 2428 
Q 2866 2247 3059 2009 
L 3250 1753 
Q 3441 2056 3672 2295 
Q 3903 2534 4195 2681 
Q 4488 2828 4819 2828 
Q 5097 2828 5325 2704 
Q 5553 2581 5712 2368 
Q 5872 2156 5953 1898 
Q 6034 1641 6034 1381 
Q 6034 1019 5882 683 
Q 5731 347 5451 137 
Q 5172 -72 4800 -72 
Q 4381 -72 4004 153 
Q 3628 378 3334 750 
L 3144 1006 
Q 2850 528 2451 228 
Q 2053 -72 1575 -72 
z
M 1509 153 
Q 2322 153 2963 1241 
L 2625 1672 
Q 2331 2059 2078 2278 
Q 1825 2497 1491 2497 
Q 1206 2497 986 2336 
Q 766 2175 645 1915 
Q 525 1656 525 1375 
Q 525 1159 592 942 
Q 659 725 787 547 
Q 916 369 1098 261 
Q 1281 153 1509 153 
z
M 3769 1088 
Q 4063 700 4316 481 
Q 4569 263 4903 263 
Q 5116 263 5294 356 
Q 5472 450 5601 609 
Q 5731 769 5800 969 
Q 5869 1169 5869 1381 
Q 5869 1678 5750 1961 
Q 5631 2244 5407 2425 
Q 5184 2606 4884 2606 
Q 4072 2606 3431 1516 
L 3769 1088 
z
" transform="scale(0.015625)"/>
     </defs>
     <use xlink:href="#DejaVuSerif-72"/>
     <use xlink:href="#DejaVuSerif-61" transform="translate(47.802734 0)"/>
     <use xlink:href="#DejaVuSerif-74" transform="translate(107.421875 0)"/>
     <use xlink:href="#DejaVuSerif-69" transform="translate(147.607422 0)"/>
     <use xlink:href="#DejaVuSerif-6f" transform="translate(179.589844 0)"/>
     <use xlink:href="#DejaVuSerif-20" transform="translate(239.794922 0)"/>
     <use xlink:href="#Cmmi10-6b" transform="translate(271.582031 0)"/>
     <use xlink:href="#Cmmi10-6d" transform="translate(323.583984 0)"/>
     <use xlink:href="#Cmmi10-3d" transform="translate(411.376953 0)"/>
     <use xlink:href="#Cmr10-28" transform="translate(461.376953 0)"/>
     <use xlink:href="#Cmmi10-6d" transform="translate(500.195312 0)"/>
     <use xlink:href="#Cmr10-2b" transform="translate(605.546875 0)"/>
     <use xlink:href="#Cmr10-31" transform="translate(700.791016 0)"/>
     <use xlink:href="#Cmr10-29" transform="translate(750.791016 0)"/>
     <use xlink:href="#Cmsy10-21" transform="translate(807.167969 0)"/>
     <use xlink:href="#Cmsy10-31" transform="translate(924.726562 0)"/>
    </g>
   </g>
  </g>
 </g>
 <defs>
  <clipPath id="pb02b4c102e">
   <rect x="53.938438" y="42.1" width="689.272727" height="334.054545"/>
  </clipPath>
 </defs>
</svg>
