<?xml version="1.0" encoding="utf-8" standalone="no"?>
<!DOCTYPE svg PUBLIC "-//W3C//DTD SVG 1.1//EN"
  "http://www.w3.org/Graphics/SVG/1.1/DTD/svg11.dtd">
<svg xmlns:xlink="http://www.w3.org/1999/xlink" width="757.353722pt" height="426.285767pt" viewBox="0 0 757.353722 426.285767" xmlns="http://www.w3.org/2000/svg" version="1.1">
 <metadata>
  <rdf:RDF xmlns:dc="http://purl.org/dc/elements/1.1/" xmlns:cc="http://creativecommons.org/ns#" xmlns:rdf="http://www.w3.org/1999/02/22-rdf-syntax-ns#">
   <cc:Work>
    <dc:type rdf:resource="http://purl.org/dc/dcmitype/StillImage"/>
    <dc:date>2026-07-12T14:13:08.003862</dc:date>
    <dc:format>image/svg+xml</dc:format>
    <dc:creator>
     <cc:Agent>
      <dc:title>Matplotlib v3.10.9, https://matplotlib.org/</dc:title>
     </cc:Agent>
    </dc:creator>
   </cc:Work>
  </rdf:RDF>
 </metadata>
 <defs>
  <style type="text/css">*{stroke-linejoin: round; stroke-linecap: butt}</style>
 </defs>
 <g id="figure_1">
  <g id="patch_1">
   <path d="M 0 426.285767 
L 757.353722 426.285767 
L 757.353722 0 
L 0 0 
z
"/>
  </g>
  <g id="axes_1">
   <g id="patch_2">
    <path d="M 56.822813 374.845455 
L 741.513722 374.845455 
L 741.513722 42.1 
L 56.822813 42.1 
z
"/>
   </g>
   <g id="matplotlib.axis_1">
    <g id="xtick_1">
     <g id="line2d_1">
      <path d="M 130.872456 374.845455 
L 130.872456 42.1 
" clip-path="url(#pf9a77ebde4)" style="fill: none; stroke: #2a2a2a; stroke-width: 0.6; stroke-linecap: square"/>
     </g>
     <g id="line2d_2">
      <defs>
       <path id="ma1673ed5e7" d="M 0 0 
L 0 3.5 
" style="stroke: #8a8a8a; stroke-width: 0.7"/>
      </defs>
      <g>
       <use xlink:href="#ma1673ed5e7" x="130.872456" y="374.845455" style="fill: #8a8a8a; stroke: #8a8a8a; stroke-width: 0.7"/>
      </g>
     </g>
     <g id="text_1">
      <!-- 2 -->
      <g style="fill: #8a8a8a" transform="translate(128.009331 388.684048) scale(0.09 -0.09)">
       <defs>
        <path id="DejaVuSerif-32" d="M 819 3553 
L 469 3553 
L 469 4384 
Q 803 4563 1142 4656 
Q 1481 4750 1806 4750 
Q 2534 4750 2956 4397 
Q 3378 4044 3378 3438 
Q 3378 2753 2422 1800 
Q 2347 1728 2309 1691 
L 1131 513 
L 3078 513 
L 3078 1088 
L 3444 1088 
L 3444 0 
L 434 0 
L 434 341 
L 1850 1753 
Q 2319 2222 2519 2614 
Q 2719 3006 2719 3438 
Q 2719 3909 2473 4175 
Q 2228 4441 1797 4441 
Q 1350 4441 1106 4219 
Q 863 3997 819 3553 
z
" transform="scale(0.015625)"/>
       </defs>
       <use xlink:href="#DejaVuSerif-32"/>
      </g>
     </g>
    </g>
    <g id="xtick_2">
     <g id="line2d_3">
      <path d="M 265.020362 374.845455 
L 265.020362 42.1 
" clip-path="url(#pf9a77ebde4)" style="fill: none; stroke: #2a2a2a; stroke-width: 0.6; stroke-linecap: square"/>
     </g>
     <g id="line2d_4">
      <g>
       <use xlink:href="#ma1673ed5e7" x="265.020362" y="374.845455" style="fill: #8a8a8a; stroke: #8a8a8a; stroke-width: 0.7"/>
      </g>
     </g>
     <g id="text_2">
      <!-- 4 -->
      <g style="fill: #8a8a8a" transform="translate(262.157237 388.684048) scale(0.09 -0.09)">
       <defs>
        <path id="DejaVuSerif-34" d="M 2234 1581 
L 2234 4063 
L 641 1581 
L 2234 1581 
z
M 3609 0 
L 1484 0 
L 1484 331 
L 2234 331 
L 2234 1247 
L 197 1247 
L 197 1588 
L 2241 4750 
L 2859 4750 
L 2859 1581 
L 3750 1581 
L 3750 1247 
L 2859 1247 
L 2859 331 
L 3609 331 
L 3609 0 
z
" transform="scale(0.015625)"/>
       </defs>
       <use xlink:href="#DejaVuSerif-34"/>
      </g>
     </g>
    </g>
    <g id="xtick_3">
     <g id="line2d_5">
      <path d="M 399.168267 374.845455 
L 399.168267 42.1 
" clip-path="url(#pf9a77ebde4)" style="fill: none; stroke: #2a2a2a; stroke-width: 0.6; stroke-linecap: square"/>
     </g>
     <g id="line2d_6">
      <g>
       <use xlink:href="#ma1673ed5e7" x="399.168267" y="374.845455" style="fill: #8a8a8a; stroke: #8a8a8a; stroke-width: 0.7"/>
      </g>
     </g>
     <g id="text_3">
      <!-- 8 -->
      <g style="fill: #8a8a8a" transform="translate(396.305142 388.684048) scale(0.09 -0.09)">
       <defs>
        <path id="DejaVuSerif-38" d="M 2981 1275 
Q 2981 1775 2732 2051 
Q 2484 2328 2034 2328 
Q 1584 2328 1336 2051 
Q 1088 1775 1088 1275 
Q 1088 772 1336 495 
Q 1584 219 2034 219 
Q 2484 219 2732 495 
Q 2981 772 2981 1275 
z
M 2853 3541 
Q 2853 3966 2637 4203 
Q 2422 4441 2034 4441 
Q 1650 4441 1433 4203 
Q 1216 3966 1216 3541 
Q 1216 3113 1433 2875 
Q 1650 2638 2034 2638 
Q 2422 2638 2637 2875 
Q 2853 3113 2853 3541 
z
M 2516 2484 
Q 3047 2413 3344 2092 
Q 3641 1772 3641 1275 
Q 3641 619 3225 264 
Q 2809 -91 2034 -91 
Q 1263 -91 845 264 
Q 428 619 428 1275 
Q 428 1772 725 2092 
Q 1022 2413 1556 2484 
Q 1084 2569 832 2842 
Q 581 3116 581 3541 
Q 581 4103 968 4426 
Q 1356 4750 2034 4750 
Q 2713 4750 3100 4426 
Q 3488 4103 3488 3541 
Q 3488 3116 3236 2842 
Q 2984 2569 2516 2484 
z
" transform="scale(0.015625)"/>
       </defs>
       <use xlink:href="#DejaVuSerif-38"/>
      </g>
     </g>
    </g>
    <g id="xtick_4">
     <g id="line2d_7">
      <path d="M 533.316172 374.845455 
L 533.316172 42.1 
" clip-path="url(#pf9a77ebde4)" style="fill: none; stroke: #2a2a2a; stroke-width: 0.6; stroke-linecap: square"/>
     </g>
     <g id="line2d_8">
      <g>
       <use xlink:href="#ma1673ed5e7" x="533.316172" y="374.845455" style="fill: #8a8a8a; stroke: #8a8a8a; stroke-width: 0.7"/>
      </g>
     </g>
     <g id="text_4">
      <!-- 16 -->
      <g style="fill: #8a8a8a" transform="translate(527.589922 388.684048) scale(0.09 -0.09)">
       <defs>
        <path id="DejaVuSerif-31" d="M 909 0 
L 909 331 
L 1722 331 
L 1722 4213 
L 781 3603 
L 781 4013 
L 1919 4750 
L 2350 4750 
L 2350 331 
L 3163 331 
L 3163 0 
L 909 0 
z
" transform="scale(0.015625)"/>
        <path id="DejaVuSerif-36" d="M 2094 219 
Q 2534 219 2771 542 
Q 3009 866 3009 1472 
Q 3009 2078 2771 2401 
Q 2534 2725 2094 2725 
Q 1647 2725 1412 2412 
Q 1178 2100 1178 1509 
Q 1178 888 1415 553 
Q 1653 219 2094 219 
z
M 1075 2569 
Q 1288 2803 1556 2918 
Q 1825 3034 2163 3034 
Q 2859 3034 3264 2615 
Q 3669 2197 3669 1472 
Q 3669 763 3233 336 
Q 2797 -91 2069 -91 
Q 1278 -91 853 498 
Q 428 1088 428 2181 
Q 428 3406 931 4078 
Q 1434 4750 2350 4750 
Q 2597 4750 2869 4703 
Q 3141 4656 3425 4563 
L 3425 3794 
L 3072 3794 
Q 3034 4109 2831 4275 
Q 2628 4441 2284 4441 
Q 1678 4441 1381 3981 
Q 1084 3522 1075 2569 
z
" transform="scale(0.015625)"/>
       </defs>
       <use xlink:href="#DejaVuSerif-31"/>
       <use xlink:href="#DejaVuSerif-36" transform="translate(63.623047 0)"/>
      </g>
     </g>
    </g>
    <g id="xtick_5">
     <g id="line2d_9">
      <path d="M 667.464078 374.845455 
L 667.464078 42.1 
" clip-path="url(#pf9a77ebde4)" style="fill: none; stroke: #2a2a2a; stroke-width: 0.6; stroke-linecap: square"/>
     </g>
     <g id="line2d_10">
      <g>
       <use xlink:href="#ma1673ed5e7" x="667.464078" y="374.845455" style="fill: #8a8a8a; stroke: #8a8a8a; stroke-width: 0.7"/>
      </g>
     </g>
     <g id="text_5">
      <!-- 32 -->
      <g style="fill: #8a8a8a" transform="translate(661.737828 388.684048) scale(0.09 -0.09)">
       <defs>
        <path id="DejaVuSerif-33" d="M 622 4469 
Q 988 4606 1323 4678 
Q 1659 4750 1953 4750 
Q 2638 4750 3022 4454 
Q 3406 4159 3406 3634 
Q 3406 3213 3140 2930 
Q 2875 2647 2388 2547 
Q 2963 2466 3280 2130 
Q 3597 1794 3597 1259 
Q 3597 606 3158 257 
Q 2719 -91 1894 -91 
Q 1528 -91 1179 -12 
Q 831 66 488 225 
L 488 1131 
L 838 1131 
Q 869 681 1141 450 
Q 1413 219 1906 219 
Q 2384 219 2661 495 
Q 2938 772 2938 1253 
Q 2938 1803 2653 2086 
Q 2369 2369 1819 2369 
L 1522 2369 
L 1522 2688 
L 1678 2688 
Q 2225 2688 2498 2914 
Q 2772 3141 2772 3597 
Q 2772 4006 2547 4223 
Q 2322 4441 1900 4441 
Q 1478 4441 1245 4241 
Q 1013 4041 972 3647 
L 622 3647 
L 622 4469 
z
" transform="scale(0.015625)"/>
       </defs>
       <use xlink:href="#DejaVuSerif-33"/>
       <use xlink:href="#DejaVuSerif-32" transform="translate(63.623047 0)"/>
      </g>
     </g>
    </g>
    <g id="text_6">
     <!-- branching  $k$ -->
     <g style="fill: #8a8a8a" transform="translate(364.353267 407.915767) scale(0.11 -0.11)">
      <defs>
       <path id="DejaVuSerif-62" d="M 738 331 
L 738 4531 
L 184 4531 
L 184 4863 
L 1313 4863 
L 1313 2803 
Q 1481 3116 1742 3264 
Q 2003 3413 2388 3413 
Q 3000 3413 3387 2928 
Q 3775 2444 3775 1663 
Q 3775 881 3387 395 
Q 3000 -91 2388 -91 
Q 2003 -91 1742 57 
Q 1481 206 1313 519 
L 1313 0 
L 184 0 
L 184 331 
L 738 331 
z
M 1313 1497 
Q 1313 897 1542 583 
Q 1772 269 2209 269 
Q 2650 269 2876 622 
Q 3103 975 3103 1663 
Q 3103 2353 2876 2703 
Q 2650 3053 2209 3053 
Q 1772 3053 1542 2737 
Q 1313 2422 1313 1825 
L 1313 1497 
z
" transform="scale(0.015625)"/>
       <path id="DejaVuSerif-72" d="M 3059 3328 
L 3059 2497 
L 2728 2497 
Q 2713 2744 2591 2866 
Q 2469 2988 2234 2988 
Q 1809 2988 1582 2694 
Q 1356 2400 1356 1850 
L 1356 331 
L 2022 331 
L 2022 0 
L 263 0 
L 263 331 
L 781 331 
L 781 2994 
L 231 2994 
L 231 3322 
L 1356 3322 
L 1356 2731 
Q 1525 3078 1790 3245 
Q 2056 3413 2438 3413 
Q 2578 3413 2733 3391 
Q 2888 3369 3059 3328 
z
" transform="scale(0.015625)"/>
       <path id="DejaVuSerif-61" d="M 2547 1044 
L 2547 1747 
L 1806 1747 
Q 1378 1747 1168 1562 
Q 959 1378 959 997 
Q 959 650 1171 447 
Q 1384 244 1747 244 
Q 2106 244 2326 466 
Q 2547 688 2547 1044 
z
M 3122 2075 
L 3122 331 
L 3634 331 
L 3634 0 
L 2547 0 
L 2547 359 
Q 2356 128 2106 18 
Q 1856 -91 1522 -91 
Q 969 -91 644 203 
Q 319 497 319 997 
Q 319 1513 691 1797 
Q 1063 2081 1741 2081 
L 2547 2081 
L 2547 2309 
Q 2547 2688 2317 2895 
Q 2088 3103 1672 3103 
Q 1328 3103 1125 2947 
Q 922 2791 872 2484 
L 575 2484 
L 575 3156 
Q 875 3284 1158 3348 
Q 1441 3413 1709 3413 
Q 2400 3413 2761 3070 
Q 3122 2728 3122 2075 
z
" transform="scale(0.015625)"/>
       <path id="DejaVuSerif-6e" d="M 263 0 
L 263 331 
L 781 331 
L 781 2988 
L 231 2988 
L 231 3322 
L 1356 3322 
L 1356 2731 
Q 1516 3069 1770 3241 
Q 2025 3413 2363 3413 
Q 2913 3413 3172 3097 
Q 3431 2781 3431 2113 
L 3431 331 
L 3944 331 
L 3944 0 
L 2356 0 
L 2356 331 
L 2853 331 
L 2853 1931 
Q 2853 2541 2703 2767 
Q 2553 2994 2175 2994 
Q 1775 2994 1565 2701 
Q 1356 2409 1356 1850 
L 1356 331 
L 1856 331 
L 1856 0 
L 263 0 
z
" transform="scale(0.015625)"/>
       <path id="DejaVuSerif-63" d="M 3291 997 
Q 3169 466 2822 187 
Q 2475 -91 1925 -91 
Q 1200 -91 759 389 
Q 319 869 319 1663 
Q 319 2459 759 2936 
Q 1200 3413 1925 3413 
Q 2241 3413 2553 3339 
Q 2866 3266 3181 3116 
L 3181 2266 
L 2847 2266 
Q 2781 2703 2561 2903 
Q 2341 3103 1931 3103 
Q 1466 3103 1228 2742 
Q 991 2381 991 1663 
Q 991 944 1227 581 
Q 1463 219 1931 219 
Q 2303 219 2525 412 
Q 2747 606 2828 997 
L 3291 997 
z
" transform="scale(0.015625)"/>
       <path id="DejaVuSerif-68" d="M 263 0 
L 263 331 
L 781 331 
L 781 4531 
L 231 4531 
L 231 4863 
L 1356 4863 
L 1356 2731 
Q 1516 3069 1770 3241 
Q 2025 3413 2363 3413 
Q 2913 3413 3172 3097 
Q 3431 2781 3431 2113 
L 3431 331 
L 3944 331 
L 3944 0 
L 2356 0 
L 2356 331 
L 2853 331 
L 2853 1931 
Q 2853 2541 2704 2764 
Q 2556 2988 2175 2988 
Q 1775 2988 1565 2697 
Q 1356 2406 1356 1850 
L 1356 331 
L 1856 331 
L 1856 0 
L 263 0 
z
" transform="scale(0.015625)"/>
       <path id="DejaVuSerif-69" d="M 622 4353 
Q 622 4497 726 4603 
Q 831 4709 978 4709 
Q 1122 4709 1226 4603 
Q 1331 4497 1331 4353 
Q 1331 4206 1228 4103 
Q 1125 4000 978 4000 
Q 831 4000 726 4103 
Q 622 4206 622 4353 
z
M 1356 331 
L 1900 331 
L 1900 0 
L 231 0 
L 231 331 
L 781 331 
L 781 2988 
L 231 2988 
L 231 3322 
L 1356 3322 
L 1356 331 
z
" transform="scale(0.015625)"/>
       <path id="DejaVuSerif-67" d="M 3359 2988 
L 3359 72 
Q 3359 -644 2965 -1033 
Q 2572 -1422 1844 -1422 
Q 1516 -1422 1216 -1362 
Q 916 -1303 641 -1184 
L 641 -488 
L 941 -488 
Q 997 -813 1206 -963 
Q 1416 -1113 1806 -1113 
Q 2313 -1113 2548 -827 
Q 2784 -541 2784 72 
L 2784 519 
Q 2616 206 2355 57 
Q 2094 -91 1709 -91 
Q 1097 -91 708 395 
Q 319 881 319 1663 
Q 319 2444 706 2928 
Q 1094 3413 1709 3413 
Q 2094 3413 2355 3264 
Q 2616 3116 2784 2803 
L 2784 3322 
L 3909 3322 
L 3909 2988 
L 3359 2988 
z
M 2784 1825 
Q 2784 2422 2554 2737 
Q 2325 3053 1888 3053 
Q 1444 3053 1217 2703 
Q 991 2353 991 1663 
Q 991 975 1217 622 
Q 1444 269 1888 269 
Q 2325 269 2554 583 
Q 2784 897 2784 1497 
L 2784 1825 
z
" transform="scale(0.015625)"/>
       <path id="DejaVuSerif-20" transform="scale(0.015625)"/>
       <path id="Cmmi10-6b" d="M 341 116 
Q 341 153 347 172 
L 1275 3872 
Q 1300 3981 1306 4044 
Q 1306 4147 891 4147 
Q 825 4147 825 4231 
Q 828 4247 839 4287 
Q 850 4328 867 4350 
Q 884 4372 916 4372 
L 1778 4441 
L 1797 4441 
Q 1797 4434 1819 4423 
Q 1841 4413 1844 4409 
Q 1856 4378 1856 4359 
L 1184 1684 
Q 1416 1781 1767 2145 
Q 2119 2509 2317 2668 
Q 2516 2828 2816 2828 
Q 2994 2828 3119 2706 
Q 3244 2584 3244 2406 
Q 3244 2294 3197 2198 
Q 3150 2103 3065 2043 
Q 2981 1984 2869 1984 
Q 2766 1984 2695 2048 
Q 2625 2113 2625 2216 
Q 2625 2369 2733 2473 
Q 2841 2578 2994 2578 
Q 2931 2663 2803 2663 
Q 2613 2663 2436 2553 
Q 2259 2444 2054 2239 
Q 1850 2034 1681 1864 
Q 1513 1694 1369 1606 
Q 1747 1563 2025 1408 
Q 2303 1253 2303 934 
Q 2303 869 2278 769 
Q 2222 528 2222 384 
Q 2222 97 2419 97 
Q 2650 97 2770 350 
Q 2891 603 2969 941 
Q 2981 978 3022 978 
L 3097 978 
Q 3122 978 3139 962 
Q 3156 947 3156 922 
Q 3156 916 3150 903 
Q 2909 -72 2406 -72 
Q 2225 -72 2086 12 
Q 1947 97 1872 242 
Q 1797 388 1797 569 
Q 1797 672 1825 781 
Q 1844 856 1844 922 
Q 1844 1169 1625 1297 
Q 1406 1425 1125 1453 
L 800 147 
Q 775 50 703 -11 
Q 631 -72 538 -72 
Q 456 -72 398 -17 
Q 341 38 341 116 
z
" transform="scale(0.015625)"/>
      </defs>
      <use xlink:href="#DejaVuSerif-62" transform="translate(0 0.015625)"/>
      <use xlink:href="#DejaVuSerif-72" transform="translate(64.013672 0.015625)"/>
      <use xlink:href="#DejaVuSerif-61" transform="translate(111.816406 0.015625)"/>
      <use xlink:href="#DejaVuSerif-6e" transform="translate(171.435547 0.015625)"/>
      <use xlink:href="#DejaVuSerif-63" transform="translate(235.839844 0.015625)"/>
      <use xlink:href="#DejaVuSerif-68" transform="translate(291.845703 0.015625)"/>
      <use xlink:href="#DejaVuSerif-69" transform="translate(356.25 0.015625)"/>
      <use xlink:href="#DejaVuSerif-6e" transform="translate(388.232422 0.015625)"/>
      <use xlink:href="#DejaVuSerif-67" transform="translate(452.636719 0.015625)"/>
      <use xlink:href="#DejaVuSerif-20" transform="translate(516.650391 0.015625)"/>
      <use xlink:href="#DejaVuSerif-20" transform="translate(548.4375 0.015625)"/>
      <use xlink:href="#Cmmi10-6b" transform="translate(580.224609 0.015625)"/>
     </g>
    </g>
   </g>
   <g id="matplotlib.axis_2">
    <g id="ytick_1">
     <g id="line2d_11">
      <path d="M 56.822813 374.845455 
L 741.513722 374.845455 
" clip-path="url(#pf9a77ebde4)" style="fill: none; stroke: #2a2a2a; stroke-width: 0.6; stroke-linecap: square"/>
     </g>
     <g id="line2d_12">
      <defs>
       <path id="mbed1b6ffb2" d="M 0 0 
L -3.5 0 
" style="stroke: #8a8a8a; stroke-width: 0.7"/>
      </defs>
      <g>
       <use xlink:href="#mbed1b6ffb2" x="56.822813" y="374.845455" style="fill: #8a8a8a; stroke: #8a8a8a; stroke-width: 0.7"/>
      </g>
     </g>
     <g id="text_7">
      <!-- 0.0 -->
      <g style="fill: #8a8a8a" transform="translate(35.51 378.264751) scale(0.09 -0.09)">
       <defs>
        <path id="DejaVuSerif-30" d="M 2034 219 
Q 2513 219 2750 744 
Q 2988 1269 2988 2328 
Q 2988 3391 2750 3916 
Q 2513 4441 2034 4441 
Q 1556 4441 1318 3916 
Q 1081 3391 1081 2328 
Q 1081 1269 1318 744 
Q 1556 219 2034 219 
z
M 2034 -91 
Q 1275 -91 848 546 
Q 422 1184 422 2328 
Q 422 3475 848 4112 
Q 1275 4750 2034 4750 
Q 2797 4750 3222 4112 
Q 3647 3475 3647 2328 
Q 3647 1184 3222 546 
Q 2797 -91 2034 -91 
z
" transform="scale(0.015625)"/>
        <path id="DejaVuSerif-2e" d="M 603 325 
Q 603 500 722 622 
Q 841 744 1019 744 
Q 1191 744 1312 622 
Q 1434 500 1434 325 
Q 1434 153 1312 31 
Q 1191 -91 1019 -91 
Q 841 -91 722 29 
Q 603 150 603 325 
z
" transform="scale(0.015625)"/>
       </defs>
       <use xlink:href="#DejaVuSerif-30"/>
       <use xlink:href="#DejaVuSerif-2e" transform="translate(63.623047 0)"/>
       <use xlink:href="#DejaVuSerif-30" transform="translate(95.410156 0)"/>
      </g>
     </g>
    </g>
    <g id="ytick_2">
     <g id="line2d_13">
      <path d="M 56.822813 321.606182 
L 741.513722 321.606182 
" clip-path="url(#pf9a77ebde4)" style="fill: none; stroke: #2a2a2a; stroke-width: 0.6; stroke-linecap: square"/>
     </g>
     <g id="line2d_14">
      <g>
       <use xlink:href="#mbed1b6ffb2" x="56.822813" y="321.606182" style="fill: #8a8a8a; stroke: #8a8a8a; stroke-width: 0.7"/>
      </g>
     </g>
     <g id="text_8">
      <!-- 0.2 -->
      <g style="fill: #8a8a8a" transform="translate(35.51 325.025479) scale(0.09 -0.09)">
       <use xlink:href="#DejaVuSerif-30"/>
       <use xlink:href="#DejaVuSerif-2e" transform="translate(63.623047 0)"/>
       <use xlink:href="#DejaVuSerif-32" transform="translate(95.410156 0)"/>
      </g>
     </g>
    </g>
    <g id="ytick_3">
     <g id="line2d_15">
      <path d="M 56.822813 268.366909 
L 741.513722 268.366909 
" clip-path="url(#pf9a77ebde4)" style="fill: none; stroke: #2a2a2a; stroke-width: 0.6; stroke-linecap: square"/>
     </g>
     <g id="line2d_16">
      <g>
       <use xlink:href="#mbed1b6ffb2" x="56.822813" y="268.366909" style="fill: #8a8a8a; stroke: #8a8a8a; stroke-width: 0.7"/>
      </g>
     </g>
     <g id="text_9">
      <!-- 0.4 -->
      <g style="fill: #8a8a8a" transform="translate(35.51 271.786206) scale(0.09 -0.09)">
       <use xlink:href="#DejaVuSerif-30"/>
       <use xlink:href="#DejaVuSerif-2e" transform="translate(63.623047 0)"/>
       <use xlink:href="#DejaVuSerif-34" transform="translate(95.410156 0)"/>
      </g>
     </g>
    </g>
    <g id="ytick_4">
     <g id="line2d_17">
      <path d="M 56.822813 215.127636 
L 741.513722 215.127636 
" clip-path="url(#pf9a77ebde4)" style="fill: none; stroke: #2a2a2a; stroke-width: 0.6; stroke-linecap: square"/>
     </g>
     <g id="line2d_18">
      <g>
       <use xlink:href="#mbed1b6ffb2" x="56.822813" y="215.127636" style="fill: #8a8a8a; stroke: #8a8a8a; stroke-width: 0.7"/>
      </g>
     </g>
     <g id="text_10">
      <!-- 0.6 -->
      <g style="fill: #8a8a8a" transform="translate(35.51 218.546933) scale(0.09 -0.09)">
       <use xlink:href="#DejaVuSerif-30"/>
       <use xlink:href="#DejaVuSerif-2e" transform="translate(63.623047 0)"/>
       <use xlink:href="#DejaVuSerif-36" transform="translate(95.410156 0)"/>
      </g>
     </g>
    </g>
    <g id="ytick_5">
     <g id="line2d_19">
      <path d="M 56.822813 161.888364 
L 741.513722 161.888364 
" clip-path="url(#pf9a77ebde4)" style="fill: none; stroke: #2a2a2a; stroke-width: 0.6; stroke-linecap: square"/>
     </g>
     <g id="line2d_20">
      <g>
       <use xlink:href="#mbed1b6ffb2" x="56.822813" y="161.888364" style="fill: #8a8a8a; stroke: #8a8a8a; stroke-width: 0.7"/>
      </g>
     </g>
     <g id="text_11">
      <!-- 0.8 -->
      <g style="fill: #8a8a8a" transform="translate(35.51 165.307661) scale(0.09 -0.09)">
       <use xlink:href="#DejaVuSerif-30"/>
       <use xlink:href="#DejaVuSerif-2e" transform="translate(63.623047 0)"/>
       <use xlink:href="#DejaVuSerif-38" transform="translate(95.410156 0)"/>
      </g>
     </g>
    </g>
    <g id="ytick_6">
     <g id="line2d_21">
      <path d="M 56.822813 108.649091 
L 741.513722 108.649091 
" clip-path="url(#pf9a77ebde4)" style="fill: none; stroke: #2a2a2a; stroke-width: 0.6; stroke-linecap: square"/>
     </g>
     <g id="line2d_22">
      <g>
       <use xlink:href="#mbed1b6ffb2" x="56.822813" y="108.649091" style="fill: #8a8a8a; stroke: #8a8a8a; stroke-width: 0.7"/>
      </g>
     </g>
     <g id="text_12">
      <!-- 1.0 -->
      <g style="fill: #8a8a8a" transform="translate(35.51 112.068388) scale(0.09 -0.09)">
       <use xlink:href="#DejaVuSerif-31"/>
       <use xlink:href="#DejaVuSerif-2e" transform="translate(63.623047 0)"/>
       <use xlink:href="#DejaVuSerif-30" transform="translate(95.410156 0)"/>
      </g>
     </g>
    </g>
    <g id="ytick_7">
     <g id="line2d_23">
      <path d="M 56.822813 55.409818 
L 741.513722 55.409818 
" clip-path="url(#pf9a77ebde4)" style="fill: none; stroke: #2a2a2a; stroke-width: 0.6; stroke-linecap: square"/>
     </g>
     <g id="line2d_24">
      <g>
       <use xlink:href="#mbed1b6ffb2" x="56.822813" y="55.409818" style="fill: #8a8a8a; stroke: #8a8a8a; stroke-width: 0.7"/>
      </g>
     </g>
     <g id="text_13">
      <!-- 1.2 -->
      <g style="fill: #8a8a8a" transform="translate(35.51 58.829115) scale(0.09 -0.09)">
       <use xlink:href="#DejaVuSerif-31"/>
       <use xlink:href="#DejaVuSerif-2e" transform="translate(63.623047 0)"/>
       <use xlink:href="#DejaVuSerif-32" transform="translate(95.410156 0)"/>
      </g>
     </g>
    </g>
    <g id="text_14">
     <!-- $D_2$  (lower $=$ harder to tell apart) -->
     <g style="fill: #8a8a8a" transform="translate(24.2 301.972727) rotate(-90) scale(0.11 -0.11)">
      <defs>
       <path id="Cmmi10-44" d="M 313 0 
Q 250 0 250 84 
Q 253 100 262 139 
Q 272 178 289 201 
Q 306 225 331 225 
Q 722 225 878 269 
Q 959 297 997 441 
L 1875 3956 
Q 1888 4019 1888 4044 
Q 1888 4113 1813 4122 
Q 1691 4147 1350 4147 
Q 1288 4147 1288 4231 
Q 1291 4247 1300 4286 
Q 1309 4325 1326 4348 
Q 1344 4372 1369 4372 
L 3669 4372 
Q 4116 4372 4450 4155 
Q 4784 3938 4962 3570 
Q 5141 3203 5141 2759 
Q 5141 2269 4937 1778 
Q 4734 1288 4368 881 
Q 4003 475 3534 237 
Q 3066 0 2572 0 
L 313 0 
z
M 1509 275 
Q 1509 225 1728 225 
L 2472 225 
Q 2828 225 3159 372 
Q 3491 519 3750 775 
Q 3991 1016 4175 1406 
Q 4359 1797 4461 2222 
Q 4563 2647 4563 3003 
Q 4563 3263 4486 3472 
Q 4409 3681 4270 3831 
Q 4131 3981 3922 4064 
Q 3713 4147 3450 4147 
L 2747 4147 
Q 2572 4147 2515 4117 
Q 2459 4088 2413 3928 
L 1538 416 
Q 1509 338 1509 275 
z
" transform="scale(0.015625)"/>
       <path id="Cmr10-32" d="M 319 0 
L 319 172 
Q 319 188 331 206 
L 1325 1306 
Q 1550 1550 1690 1715 
Q 1831 1881 1968 2097 
Q 2106 2313 2186 2536 
Q 2266 2759 2266 3009 
Q 2266 3272 2169 3511 
Q 2072 3750 1880 3894 
Q 1688 4038 1416 4038 
Q 1138 4038 916 3870 
Q 694 3703 603 3438 
Q 628 3444 672 3444 
Q 816 3444 917 3347 
Q 1019 3250 1019 3097 
Q 1019 2950 917 2848 
Q 816 2747 672 2747 
Q 522 2747 420 2851 
Q 319 2956 319 3097 
Q 319 3338 409 3548 
Q 500 3759 670 3923 
Q 841 4088 1055 4175 
Q 1269 4263 1509 4263 
Q 1875 4263 2190 4108 
Q 2506 3953 2690 3670 
Q 2875 3388 2875 3009 
Q 2875 2731 2753 2481 
Q 2631 2231 2440 2026 
Q 2250 1822 1953 1562 
Q 1656 1303 1563 1216 
L 838 519 
L 1453 519 
Q 1906 519 2211 526 
Q 2516 534 2534 550 
Q 2609 631 2688 1141 
L 2875 1141 
L 2694 0 
L 319 0 
z
" transform="scale(0.015625)"/>
       <path id="DejaVuSerif-28" d="M 2041 -997 
Q 1281 -656 893 83 
Q 506 822 506 1931 
Q 506 3044 893 3783 
Q 1281 4522 2041 4863 
L 2041 4556 
Q 1559 4225 1350 3623 
Q 1141 3022 1141 1931 
Q 1141 844 1350 242 
Q 1559 -359 2041 -691 
L 2041 -997 
z
" transform="scale(0.015625)"/>
       <path id="DejaVuSerif-6c" d="M 1313 331 
L 1856 331 
L 1856 0 
L 184 0 
L 184 331 
L 738 331 
L 738 4531 
L 184 4531 
L 184 4863 
L 1313 4863 
L 1313 331 
z
" transform="scale(0.015625)"/>
       <path id="DejaVuSerif-6f" d="M 1925 219 
Q 2388 219 2623 584 
Q 2859 950 2859 1663 
Q 2859 2375 2623 2739 
Q 2388 3103 1925 3103 
Q 1463 3103 1227 2739 
Q 991 2375 991 1663 
Q 991 950 1228 584 
Q 1466 219 1925 219 
z
M 1925 -91 
Q 1200 -91 759 389 
Q 319 869 319 1663 
Q 319 2456 758 2934 
Q 1197 3413 1925 3413 
Q 2653 3413 3092 2934 
Q 3531 2456 3531 1663 
Q 3531 869 3092 389 
Q 2653 -91 1925 -91 
z
" transform="scale(0.015625)"/>
       <path id="DejaVuSerif-77" d="M 3072 3322 
L 3922 728 
L 4672 2988 
L 4191 2988 
L 4191 3322 
L 5394 3322 
L 5394 2988 
L 5025 2988 
L 4038 0 
L 3559 0 
L 2741 2484 
L 1919 0 
L 1459 0 
L 475 2988 
L 103 2988 
L 103 3322 
L 1606 3322 
L 1606 2988 
L 1069 2988 
L 1813 728 
L 2669 3322 
L 3072 3322 
z
" transform="scale(0.015625)"/>
       <path id="DejaVuSerif-65" d="M 3469 1600 
L 991 1600 
L 991 1575 
Q 991 903 1244 561 
Q 1497 219 1991 219 
Q 2369 219 2611 417 
Q 2853 616 2950 1006 
L 3413 1006 
Q 3275 459 2904 184 
Q 2534 -91 1931 -91 
Q 1203 -91 761 389 
Q 319 869 319 1663 
Q 319 2450 753 2931 
Q 1188 3413 1894 3413 
Q 2647 3413 3050 2948 
Q 3453 2484 3469 1600 
z
M 2791 1931 
Q 2772 2513 2545 2808 
Q 2319 3103 1894 3103 
Q 1497 3103 1269 2806 
Q 1041 2509 991 1931 
L 2791 1931 
z
" transform="scale(0.015625)"/>
       <path id="Cmr10-3d" d="M 481 850 
Q 428 850 393 890 
Q 359 931 359 978 
Q 359 1031 393 1068 
Q 428 1106 481 1106 
L 4500 1106 
Q 4547 1106 4581 1068 
Q 4616 1031 4616 978 
Q 4616 931 4581 890 
Q 4547 850 4500 850 
L 481 850 
z
M 481 2094 
Q 428 2094 393 2131 
Q 359 2169 359 2222 
Q 359 2269 393 2309 
Q 428 2350 481 2350 
L 4500 2350 
Q 4547 2350 4581 2309 
Q 4616 2269 4616 2222 
Q 4616 2169 4581 2131 
Q 4547 2094 4500 2094 
L 481 2094 
z
" transform="scale(0.015625)"/>
       <path id="DejaVuSerif-64" d="M 3359 331 
L 3909 331 
L 3909 0 
L 2784 0 
L 2784 519 
Q 2616 206 2355 57 
Q 2094 -91 1709 -91 
Q 1097 -91 708 395 
Q 319 881 319 1663 
Q 319 2444 706 2928 
Q 1094 3413 1709 3413 
Q 2094 3413 2355 3264 
Q 2616 3116 2784 2803 
L 2784 4531 
L 2241 4531 
L 2241 4863 
L 3359 4863 
L 3359 331 
z
M 2784 1497 
L 2784 1825 
Q 2784 2422 2554 2737 
Q 2325 3053 1888 3053 
Q 1444 3053 1217 2703 
Q 991 2353 991 1663 
Q 991 975 1217 622 
Q 1444 269 1888 269 
Q 2325 269 2554 583 
Q 2784 897 2784 1497 
z
" transform="scale(0.015625)"/>
       <path id="DejaVuSerif-74" d="M 691 2988 
L 184 2988 
L 184 3322 
L 691 3322 
L 691 4353 
L 1269 4353 
L 1269 3322 
L 2350 3322 
L 2350 2988 
L 1269 2988 
L 1269 878 
Q 1269 456 1350 337 
Q 1431 219 1650 219 
Q 1875 219 1978 351 
Q 2081 484 2088 781 
L 2522 781 
Q 2497 328 2275 118 
Q 2053 -91 1600 -91 
Q 1103 -91 897 129 
Q 691 350 691 878 
L 691 2988 
z
" transform="scale(0.015625)"/>
       <path id="DejaVuSerif-70" d="M 1313 1825 
L 1313 1497 
Q 1313 897 1542 583 
Q 1772 269 2209 269 
Q 2650 269 2876 622 
Q 3103 975 3103 1663 
Q 3103 2353 2876 2703 
Q 2650 3053 2209 3053 
Q 1772 3053 1542 2737 
Q 1313 2422 1313 1825 
z
M 738 2988 
L 184 2988 
L 184 3322 
L 1313 3322 
L 1313 2803 
Q 1481 3116 1742 3264 
Q 2003 3413 2388 3413 
Q 3000 3413 3387 2928 
Q 3775 2444 3775 1663 
Q 3775 881 3387 395 
Q 3000 -91 2388 -91 
Q 2003 -91 1742 57 
Q 1481 206 1313 519 
L 1313 -997 
L 1856 -997 
L 1856 -1331 
L 184 -1331 
L 184 -997 
L 738 -997 
L 738 2988 
z
" transform="scale(0.015625)"/>
       <path id="DejaVuSerif-29" d="M 453 -997 
L 453 -691 
Q 934 -359 1145 242 
Q 1356 844 1356 1931 
Q 1356 3022 1145 3623 
Q 934 4225 453 4556 
L 453 4863 
Q 1216 4522 1603 3783 
Q 1991 3044 1991 1931 
Q 1991 822 1603 83 
Q 1216 -656 453 -997 
z
" transform="scale(0.015625)"/>
      </defs>
      <use xlink:href="#Cmmi10-44" transform="translate(0 0.015625)"/>
      <use xlink:href="#Cmr10-32" transform="translate(82.714844 -16.990625) scale(0.7)"/>
      <use xlink:href="#DejaVuSerif-20" transform="translate(124.092187 0.015625)"/>
      <use xlink:href="#DejaVuSerif-20" transform="translate(155.879297 0.015625)"/>
      <use xlink:href="#DejaVuSerif-28" transform="translate(187.666406 0.015625)"/>
      <use xlink:href="#DejaVuSerif-6c" transform="translate(226.680078 0.015625)"/>
      <use xlink:href="#DejaVuSerif-6f" transform="translate(258.6625 0.015625)"/>
      <use xlink:href="#DejaVuSerif-77" transform="translate(318.867578 0.015625)"/>
      <use xlink:href="#DejaVuSerif-65" transform="translate(404.463281 0.015625)"/>
      <use xlink:href="#DejaVuSerif-72" transform="translate(463.642969 0.015625)"/>
      <use xlink:href="#DejaVuSerif-20" transform="translate(511.445703 0.015625)"/>
      <use xlink:href="#Cmr10-3d" transform="translate(560.791406 0.015625)"/>
      <use xlink:href="#DejaVuSerif-20" transform="translate(656.035547 0.015625)"/>
      <use xlink:href="#DejaVuSerif-68" transform="translate(687.822656 0.015625)"/>
      <use xlink:href="#DejaVuSerif-61" transform="translate(752.226953 0.015625)"/>
      <use xlink:href="#DejaVuSerif-72" transform="translate(811.846094 0.015625)"/>
      <use xlink:href="#DejaVuSerif-64" transform="translate(859.648828 0.015625)"/>
      <use xlink:href="#DejaVuSerif-65" transform="translate(923.6625 0.015625)"/>
      <use xlink:href="#DejaVuSerif-72" transform="translate(982.842188 0.015625)"/>
      <use xlink:href="#DejaVuSerif-20" transform="translate(1030.644922 0.015625)"/>
      <use xlink:href="#DejaVuSerif-74" transform="translate(1062.432031 0.015625)"/>
      <use xlink:href="#DejaVuSerif-6f" transform="translate(1102.617578 0.015625)"/>
      <use xlink:href="#DejaVuSerif-20" transform="translate(1162.822656 0.015625)"/>
      <use xlink:href="#DejaVuSerif-74" transform="translate(1194.609766 0.015625)"/>
      <use xlink:href="#DejaVuSerif-65" transform="translate(1234.795312 0.015625)"/>
      <use xlink:href="#DejaVuSerif-6c" transform="translate(1293.975 0.015625)"/>
      <use xlink:href="#DejaVuSerif-6c" transform="translate(1325.957422 0.015625)"/>
      <use xlink:href="#DejaVuSerif-20" transform="translate(1357.939844 0.015625)"/>
      <use xlink:href="#DejaVuSerif-61" transform="translate(1389.726953 0.015625)"/>
      <use xlink:href="#DejaVuSerif-70" transform="translate(1449.346094 0.015625)"/>
      <use xlink:href="#DejaVuSerif-61" transform="translate(1513.359766 0.015625)"/>
      <use xlink:href="#DejaVuSerif-72" transform="translate(1572.978906 0.015625)"/>
      <use xlink:href="#DejaVuSerif-74" transform="translate(1620.781641 0.015625)"/>
      <use xlink:href="#DejaVuSerif-29" transform="translate(1660.967187 0.015625)"/>
     </g>
    </g>
   </g>
   <g id="line2d_25">
    <path d="M 56.822813 108.649091 
L 741.513722 108.649091 
" clip-path="url(#pf9a77ebde4)" style="fill: none; stroke-dasharray: 0.8,1.32; stroke-dashoffset: 0; stroke: #3a3a3a; stroke-width: 0.8"/>
   </g>
   <g id="patch_3">
    <path d="M 56.822813 374.845455 
L 56.822813 42.1 
" style="fill: none; stroke: #3a3a3a; stroke-linejoin: miter; stroke-linecap: square"/>
   </g>
   <g id="patch_4">
    <path d="M 56.822813 374.845455 
L 741.513722 374.845455 
" style="fill: none; stroke: #3a3a3a; stroke-linejoin: miter; stroke-linecap: square"/>
   </g>
   <g id="text_15">
    <!-- At $B=2$: adaptive capacity zero vs checklist relief -->
    <g style="fill: #f2f2f2" transform="translate(229.540767 26.1) scale(0.135 -0.135)">
     <defs>
      <path id="DejaVuSerif-41" d="M 1281 1691 
L 2994 1691 
L 2138 3909 
L 1281 1691 
z
M -38 0 
L -38 331 
L 372 331 
L 2034 4666 
L 2559 4666 
L 4225 331 
L 4684 331 
L 4684 0 
L 2988 0 
L 2988 331 
L 3506 331 
L 3116 1356 
L 1153 1356 
L 763 331 
L 1275 331 
L 1275 0 
L -38 0 
z
" transform="scale(0.015625)"/>
      <path id="Cmmi10-42" d="M 319 0 
Q 256 0 256 84 
Q 259 100 268 137 
Q 278 175 293 200 
Q 309 225 341 225 
Q 522 225 656 234 
Q 791 244 884 269 
Q 959 297 1006 441 
L 1881 3956 
Q 1894 4019 1894 4044 
Q 1894 4113 1819 4122 
Q 1697 4147 1356 4147 
Q 1294 4147 1294 4231 
Q 1297 4247 1306 4286 
Q 1316 4325 1333 4348 
Q 1350 4372 1375 4372 
L 3669 4372 
Q 3878 4372 4083 4320 
Q 4288 4269 4461 4156 
Q 4634 4044 4736 3876 
Q 4838 3709 4838 3488 
Q 4838 3247 4714 3040 
Q 4591 2834 4395 2681 
Q 4200 2528 3973 2429 
Q 3747 2331 3500 2284 
Q 3675 2284 3854 2215 
Q 4034 2147 4175 2028 
Q 4316 1909 4402 1743 
Q 4488 1578 4488 1388 
Q 4488 1003 4219 684 
Q 3950 366 3542 183 
Q 3134 0 2753 0 
L 319 0 
z
M 1497 275 
Q 1497 225 1716 225 
L 2631 225 
Q 2944 225 3231 398 
Q 3519 572 3692 859 
Q 3866 1147 3866 1459 
Q 3866 1650 3786 1820 
Q 3706 1991 3556 2089 
Q 3406 2188 3213 2188 
L 1966 2188 
L 1522 416 
Q 1497 328 1497 275 
z
M 2009 2356 
L 2981 2356 
Q 3288 2356 3577 2512 
Q 3866 2669 4048 2937 
Q 4231 3206 4231 3506 
Q 4231 3784 4057 3965 
Q 3884 4147 3609 4147 
L 2731 4147 
Q 2559 4147 2500 4115 
Q 2441 4084 2400 3928 
L 2009 2356 
z
" transform="scale(0.015625)"/>
      <path id="DejaVuSerif-3a" d="M 666 325 
Q 666 500 786 622 
Q 906 744 1081 744 
Q 1256 744 1376 622 
Q 1497 500 1497 325 
Q 1497 150 1378 29 
Q 1259 -91 1081 -91 
Q 903 -91 784 29 
Q 666 150 666 325 
z
M 666 2363 
Q 666 2538 786 2658 
Q 906 2778 1081 2778 
Q 1259 2778 1378 2659 
Q 1497 2541 1497 2363 
Q 1497 2184 1378 2065 
Q 1259 1947 1081 1947 
Q 906 1947 786 2067 
Q 666 2188 666 2363 
z
" transform="scale(0.015625)"/>
      <path id="DejaVuSerif-76" d="M 1581 0 
L 359 2988 
L -19 2988 
L -19 3322 
L 1509 3322 
L 1509 2988 
L 978 2988 
L 1913 703 
L 2847 2988 
L 2350 2988 
L 2350 3322 
L 3597 3322 
L 3597 2988 
L 3225 2988 
L 2003 0 
L 1581 0 
z
" transform="scale(0.015625)"/>
      <path id="DejaVuSerif-79" d="M 1381 -609 
L 1600 -56 
L 359 2988 
L -19 2988 
L -19 3322 
L 1509 3322 
L 1509 2988 
L 978 2988 
L 1913 703 
L 2847 2988 
L 2350 2988 
L 2350 3322 
L 3597 3322 
L 3597 2988 
L 3225 2988 
L 1703 -750 
Q 1547 -1138 1356 -1280 
Q 1166 -1422 819 -1422 
Q 672 -1422 517 -1397 
Q 363 -1372 206 -1325 
L 206 -691 
L 500 -691 
Q 519 -903 608 -995 
Q 697 -1088 884 -1088 
Q 1056 -1088 1161 -992 
Q 1266 -897 1381 -609 
z
" transform="scale(0.015625)"/>
      <path id="DejaVuSerif-7a" d="M 256 0 
L 256 269 
L 2338 2988 
L 691 2988 
L 691 2413 
L 359 2413 
L 359 3322 
L 3078 3322 
L 3078 3053 
L 997 331 
L 2803 331 
L 2803 934 
L 3138 934 
L 3138 0 
L 256 0 
z
" transform="scale(0.015625)"/>
      <path id="DejaVuSerif-73" d="M 359 184 
L 359 959 
L 691 959 
Q 703 588 923 403 
Q 1144 219 1575 219 
Q 1963 219 2166 364 
Q 2369 509 2369 788 
Q 2369 1006 2220 1140 
Q 2072 1275 1594 1428 
L 1178 1569 
Q 750 1706 558 1912 
Q 366 2119 366 2438 
Q 366 2894 700 3153 
Q 1034 3413 1625 3413 
Q 1888 3413 2178 3344 
Q 2469 3275 2778 3144 
L 2778 2419 
L 2447 2419 
Q 2434 2741 2221 2922 
Q 2009 3103 1644 3103 
Q 1281 3103 1095 2975 
Q 909 2847 909 2591 
Q 909 2381 1050 2254 
Q 1191 2128 1613 1997 
L 2069 1856 
Q 2541 1709 2748 1489 
Q 2956 1269 2956 922 
Q 2956 450 2595 179 
Q 2234 -91 1600 -91 
Q 1278 -91 972 -22 
Q 666 47 359 184 
z
" transform="scale(0.015625)"/>
      <path id="DejaVuSerif-6b" d="M 1831 0 
L 219 0 
L 219 331 
L 738 331 
L 738 4531 
L 184 4531 
L 184 4863 
L 1313 4863 
L 1313 1697 
L 2713 2988 
L 2234 2988 
L 2234 3322 
L 3738 3322 
L 3738 2988 
L 3169 2988 
L 2181 2075 
L 3444 331 
L 3922 331 
L 3922 0 
L 2284 0 
L 2284 331 
L 2759 331 
L 1766 1697 
L 1313 1275 
L 1313 331 
L 1831 331 
L 1831 0 
z
" transform="scale(0.015625)"/>
      <path id="DejaVuSerif-66" d="M 2753 4078 
L 2450 4078 
Q 2447 4313 2317 4434 
Q 2188 4556 1941 4556 
Q 1619 4556 1487 4379 
Q 1356 4203 1356 3750 
L 1356 3322 
L 2284 3322 
L 2284 2988 
L 1356 2988 
L 1356 331 
L 2094 331 
L 2094 0 
L 231 0 
L 231 331 
L 781 331 
L 781 2988 
L 231 2988 
L 231 3322 
L 781 3322 
L 781 3738 
Q 781 4294 1070 4578 
Q 1359 4863 1919 4863 
Q 2128 4863 2337 4825 
Q 2547 4788 2753 4709 
L 2753 4078 
z
" transform="scale(0.015625)"/>
     </defs>
     <use xlink:href="#DejaVuSerif-41" transform="translate(0 0.015625)"/>
     <use xlink:href="#DejaVuSerif-74" transform="translate(72.216797 0.015625)"/>
     <use xlink:href="#DejaVuSerif-20" transform="translate(112.402344 0.015625)"/>
     <use xlink:href="#Cmmi10-42" transform="translate(144.189453 0.015625)"/>
     <use xlink:href="#Cmr10-3d" transform="translate(237.529297 0.015625)"/>
     <use xlink:href="#Cmr10-32" transform="translate(332.773438 0.015625)"/>
     <use xlink:href="#DejaVuSerif-3a" transform="translate(382.773438 0.015625)"/>
     <use xlink:href="#DejaVuSerif-20" transform="translate(416.464844 0.015625)"/>
     <use xlink:href="#DejaVuSerif-61" transform="translate(448.251953 0.015625)"/>
     <use xlink:href="#DejaVuSerif-64" transform="translate(507.871094 0.015625)"/>
     <use xlink:href="#DejaVuSerif-61" transform="translate(571.884766 0.015625)"/>
     <use xlink:href="#DejaVuSerif-70" transform="translate(631.503906 0.015625)"/>
     <use xlink:href="#DejaVuSerif-74" transform="translate(695.517578 0.015625)"/>
     <use xlink:href="#DejaVuSerif-69" transform="translate(735.703125 0.015625)"/>
     <use xlink:href="#DejaVuSerif-76" transform="translate(767.685547 0.015625)"/>
     <use xlink:href="#DejaVuSerif-65" transform="translate(824.179688 0.015625)"/>
     <use xlink:href="#DejaVuSerif-20" transform="translate(883.359375 0.015625)"/>
     <use xlink:href="#DejaVuSerif-63" transform="translate(915.146484 0.015625)"/>
     <use xlink:href="#DejaVuSerif-61" transform="translate(971.152344 0.015625)"/>
     <use xlink:href="#DejaVuSerif-70" transform="translate(1030.771484 0.015625)"/>
     <use xlink:href="#DejaVuSerif-61" transform="translate(1094.785156 0.015625)"/>
     <use xlink:href="#DejaVuSerif-63" transform="translate(1154.404297 0.015625)"/>
     <use xlink:href="#DejaVuSerif-69" transform="translate(1210.410156 0.015625)"/>
     <use xlink:href="#DejaVuSerif-74" transform="translate(1242.392578 0.015625)"/>
     <use xlink:href="#DejaVuSerif-79" transform="translate(1282.578125 0.015625)"/>
     <use xlink:href="#DejaVuSerif-20" transform="translate(1339.072266 0.015625)"/>
     <use xlink:href="#DejaVuSerif-7a" transform="translate(1370.859375 0.015625)"/>
     <use xlink:href="#DejaVuSerif-65" transform="translate(1423.544922 0.015625)"/>
     <use xlink:href="#DejaVuSerif-72" transform="translate(1482.724609 0.015625)"/>
     <use xlink:href="#DejaVuSerif-6f" transform="translate(1530.527344 0.015625)"/>
     <use xlink:href="#DejaVuSerif-20" transform="translate(1590.732422 0.015625)"/>
     <use xlink:href="#DejaVuSerif-76" transform="translate(1622.519531 0.015625)"/>
     <use xlink:href="#DejaVuSerif-73" transform="translate(1679.013672 0.015625)"/>
     <use xlink:href="#DejaVuSerif-20" transform="translate(1730.332031 0.015625)"/>
     <use xlink:href="#DejaVuSerif-63" transform="translate(1762.119141 0.015625)"/>
     <use xlink:href="#DejaVuSerif-68" transform="translate(1818.125 0.015625)"/>
     <use xlink:href="#DejaVuSerif-65" transform="translate(1882.529297 0.015625)"/>
     <use xlink:href="#DejaVuSerif-63" transform="translate(1941.708984 0.015625)"/>
     <use xlink:href="#DejaVuSerif-6b" transform="translate(1997.714844 0.015625)"/>
     <use xlink:href="#DejaVuSerif-6c" transform="translate(2058.310547 0.015625)"/>
     <use xlink:href="#DejaVuSerif-69" transform="translate(2090.292969 0.015625)"/>
     <use xlink:href="#DejaVuSerif-73" transform="translate(2122.275391 0.015625)"/>
     <use xlink:href="#DejaVuSerif-74" transform="translate(2173.59375 0.015625)"/>
     <use xlink:href="#DejaVuSerif-20" transform="translate(2213.779297 0.015625)"/>
     <use xlink:href="#DejaVuSerif-72" transform="translate(2245.566406 0.015625)"/>
     <use xlink:href="#DejaVuSerif-65" transform="translate(2293.369141 0.015625)"/>
     <use xlink:href="#DejaVuSerif-6c" transform="translate(2352.548828 0.015625)"/>
     <use xlink:href="#DejaVuSerif-69" transform="translate(2384.53125 0.015625)"/>
     <use xlink:href="#DejaVuSerif-65" transform="translate(2416.513672 0.015625)"/>
     <use xlink:href="#DejaVuSerif-66" transform="translate(2475.693359 0.015625)"/>
    </g>
   </g>
   <g id="patch_5">
    <path d="M 130.872456 374.845455 
L 173.799786 374.845455 
L 173.799786 108.649091 
L 130.872456 108.649091 
z
" clip-path="url(#pf9a77ebde4)" style="fill: #cfb991; opacity: 0.22"/>
   </g>
   <g id="patch_6">
    <path d="M 265.020362 374.845455 
L 307.947691 374.845455 
L 307.947691 241.747273 
L 265.020362 241.747273 
z
" clip-path="url(#pf9a77ebde4)" style="fill: #cfb991; opacity: 0.22"/>
   </g>
   <g id="patch_7">
    <path d="M 399.168267 374.845455 
L 442.095597 374.845455 
L 442.095597 308.296364 
L 399.168267 308.296364 
z
" clip-path="url(#pf9a77ebde4)" style="fill: #cfb991; opacity: 0.22"/>
   </g>
   <g id="patch_8">
    <path d="M 533.316172 374.845455 
L 576.243502 374.845455 
L 576.243502 341.570909 
L 533.316172 341.570909 
z
" clip-path="url(#pf9a77ebde4)" style="fill: #cfb991; opacity: 0.22"/>
   </g>
   <g id="patch_9">
    <path d="M 667.464078 374.845455 
L 710.391408 374.845455 
L 710.391408 358.208182 
L 667.464078 358.208182 
z
" clip-path="url(#pf9a77ebde4)" style="fill: #cfb991; opacity: 0.22"/>
   </g>
   <g id="patch_10">
    <path d="M 87.945127 374.845455 
L 130.872456 374.845455 
L 130.872456 108.649091 
L 87.945127 108.649091 
z
" clip-path="url(#pf9a77ebde4)" style="fill: #f2f2f2; opacity: 0.08"/>
   </g>
   <g id="patch_11">
    <path d="M 222.093032 374.845455 
L 265.020362 374.845455 
L 265.020362 108.649091 
L 222.093032 108.649091 
z
" clip-path="url(#pf9a77ebde4)" style="fill: #f2f2f2; opacity: 0.08"/>
   </g>
   <g id="patch_12">
    <path d="M 356.240937 374.845455 
L 399.168267 374.845455 
L 399.168267 108.649091 
L 356.240937 108.649091 
z
" clip-path="url(#pf9a77ebde4)" style="fill: #f2f2f2; opacity: 0.08"/>
   </g>
   <g id="patch_13">
    <path d="M 490.388843 374.845455 
L 533.316172 374.845455 
L 533.316172 108.649091 
L 490.388843 108.649091 
z
" clip-path="url(#pf9a77ebde4)" style="fill: #f2f2f2; opacity: 0.08"/>
   </g>
   <g id="patch_14">
    <path d="M 624.536748 374.845455 
L 667.464078 374.845455 
L 667.464078 108.649091 
L 624.536748 108.649091 
z
" clip-path="url(#pf9a77ebde4)" style="fill: #f2f2f2; opacity: 0.08"/>
   </g>
   <g id="patch_15">
    <path d="M 87.945127 374.845455 
L 130.872456 374.845455 
L 130.872456 108.649091 
L 87.945127 108.649091 
z
" clip-path="url(#pf9a77ebde4)" style="stroke: #f2f2f2; stroke-width: 1.3; stroke-linejoin: miter"/>
   </g>
   <g id="patch_16">
    <path d="M 222.093032 374.845455 
L 265.020362 374.845455 
L 265.020362 108.649091 
L 222.093032 108.649091 
z
" clip-path="url(#pf9a77ebde4)" style="stroke: #f2f2f2; stroke-width: 1.3; stroke-linejoin: miter"/>
   </g>
   <g id="patch_17">
    <path d="M 356.240937 374.845455 
L 399.168267 374.845455 
L 399.168267 108.649091 
L 356.240937 108.649091 
z
" clip-path="url(#pf9a77ebde4)" style="stroke: #f2f2f2; stroke-width: 1.3; stroke-linejoin: miter"/>
   </g>
   <g id="patch_18">
    <path d="M 490.388843 374.845455 
L 533.316172 374.845455 
L 533.316172 108.649091 
L 490.388843 108.649091 
z
" clip-path="url(#pf9a77ebde4)" style="stroke: #f2f2f2; stroke-width: 1.3; stroke-linejoin: miter"/>
   </g>
   <g id="patch_19">
    <path d="M 624.536748 374.845455 
L 667.464078 374.845455 
L 667.464078 108.649091 
L 624.536748 108.649091 
z
" clip-path="url(#pf9a77ebde4)" style="stroke: #f2f2f2; stroke-width: 1.3; stroke-linejoin: miter"/>
   </g>
   <g id="patch_20">
    <path d="M 130.872456 374.845455 
L 173.799786 374.845455 
L 173.799786 108.649091 
L 130.872456 108.649091 
z
" clip-path="url(#pf9a77ebde4)" style="stroke: #cfb991; stroke-width: 1.3; stroke-linejoin: miter"/>
   </g>
   <g id="patch_21">
    <path d="M 265.020362 374.845455 
L 307.947691 374.845455 
L 307.947691 241.747273 
L 265.020362 241.747273 
z
" clip-path="url(#pf9a77ebde4)" style="stroke: #cfb991; stroke-width: 1.3; stroke-linejoin: miter"/>
   </g>
   <g id="patch_22">
    <path d="M 399.168267 374.845455 
L 442.095597 374.845455 
L 442.095597 308.296364 
L 399.168267 308.296364 
z
" clip-path="url(#pf9a77ebde4)" style="stroke: #cfb991; stroke-width: 1.3; stroke-linejoin: miter"/>
   </g>
   <g id="patch_23">
    <path d="M 533.316172 374.845455 
L 576.243502 374.845455 
L 576.243502 341.570909 
L 533.316172 341.570909 
z
" clip-path="url(#pf9a77ebde4)" style="stroke: #cfb991; stroke-width: 1.3; stroke-linejoin: miter"/>
   </g>
   <g id="patch_24">
    <path d="M 667.464078 374.845455 
L 710.391408 374.845455 
L 710.391408 358.208182 
L 667.464078 358.208182 
z
" clip-path="url(#pf9a77ebde4)" style="stroke: #cfb991; stroke-width: 1.3; stroke-linejoin: miter"/>
   </g>
   <g id="legend_1">
    <g id="patch_25">
     <path d="M 543.548722 78.48 
L 737.263722 78.48 
L 737.263722 46.35 
L 543.548722 46.35 
z
" style="fill: #0a0a0a; stroke: #3a3a3a; stroke-linejoin: miter"/>
    </g>
    <g id="patch_26">
     <path d="M 549.073722 58.335 
L 566.073722 58.335 
L 566.073722 52.385 
L 549.073722 52.385 
z
" style="stroke: #f2f2f2; stroke-width: 1.3; stroke-linejoin: miter"/>
    </g>
    <g id="text_16">
     <!-- adaptive $D=1$  (cannot hide for $\varepsilon&lt;1$) -->
     <g style="fill: #d0d0d0" transform="translate(572.873722 58.335) scale(0.085 -0.085)">
      <defs>
       <path id="Cmr10-31" d="M 594 0 
L 594 225 
Q 1394 225 1394 428 
L 1394 3788 
Q 1063 3628 556 3628 
L 556 3853 
Q 1341 3853 1741 4263 
L 1831 4263 
Q 1853 4263 1873 4245 
Q 1894 4228 1894 4206 
L 1894 428 
Q 1894 225 2694 225 
L 2694 0 
L 594 0 
z
" transform="scale(0.015625)"/>
       <path id="Cmmi10-22" d="M 172 666 
Q 172 841 248 1006 
Q 325 1172 448 1303 
Q 572 1434 738 1538 
Q 494 1706 494 1972 
Q 494 2256 731 2470 
Q 969 2684 1312 2792 
Q 1656 2900 1931 2900 
Q 2047 2900 2242 2848 
Q 2438 2797 2584 2712 
Q 2731 2628 2731 2528 
Q 2731 2453 2673 2395 
Q 2616 2338 2547 2338 
Q 2519 2338 2405 2405 
Q 2291 2472 2162 2525 
Q 2034 2578 1881 2578 
Q 1650 2578 1373 2523 
Q 1097 2469 887 2333 
Q 678 2197 678 1978 
Q 678 1769 916 1625 
Q 1184 1747 1466 1747 
Q 1966 1747 1966 1569 
Q 1966 1428 1795 1389 
Q 1625 1350 1403 1350 
Q 1103 1350 909 1441 
Q 697 1328 531 1125 
Q 366 922 366 703 
Q 366 497 505 381 
Q 644 266 847 222 
Q 1050 178 1253 178 
Q 1606 178 1878 254 
Q 2150 331 2272 575 
Q 2291 616 2344 616 
Q 2413 594 2413 531 
Q 2413 525 2394 469 
Q 2291 266 2102 128 
Q 1913 -9 1680 -75 
Q 1447 -141 1203 -141 
Q 806 -141 489 71 
Q 172 284 172 666 
z
M 1159 1538 
Q 1272 1516 1416 1516 
Q 1697 1516 1766 1556 
Q 1678 1581 1459 1581 
Q 1300 1581 1159 1538 
z
" transform="scale(0.015625)"/>
       <path id="Cmmi10-3c" d="M 594 1491 
Q 531 1519 531 1600 
Q 531 1681 616 1722 
L 4269 3444 
Q 4294 3456 4313 3456 
Q 4369 3456 4405 3417 
Q 4441 3378 4441 3328 
Q 4441 3250 4366 3206 
L 959 1600 
L 4384 -19 
Q 4441 -38 4441 -128 
Q 4441 -178 4405 -217 
Q 4369 -256 4313 -256 
Q 4294 -256 4269 -244 
L 594 1491 
z
" transform="scale(0.015625)"/>
      </defs>
      <use xlink:href="#DejaVuSerif-61" transform="translate(0 0.015625)"/>
      <use xlink:href="#DejaVuSerif-64" transform="translate(59.619141 0.015625)"/>
      <use xlink:href="#DejaVuSerif-61" transform="translate(123.632812 0.015625)"/>
      <use xlink:href="#DejaVuSerif-70" transform="translate(183.251953 0.015625)"/>
      <use xlink:href="#DejaVuSerif-74" transform="translate(247.265625 0.015625)"/>
      <use xlink:href="#DejaVuSerif-69" transform="translate(287.451172 0.015625)"/>
      <use xlink:href="#DejaVuSerif-76" transform="translate(319.433594 0.015625)"/>
      <use xlink:href="#DejaVuSerif-65" transform="translate(375.927734 0.015625)"/>
      <use xlink:href="#DejaVuSerif-20" transform="translate(435.107422 0.015625)"/>
      <use xlink:href="#Cmmi10-44" transform="translate(466.894531 0.015625)"/>
      <use xlink:href="#Cmr10-3d" transform="translate(567.167969 0.015625)"/>
      <use xlink:href="#Cmr10-31" transform="translate(662.412109 0.015625)"/>
      <use xlink:href="#DejaVuSerif-20" transform="translate(712.412109 0.015625)"/>
      <use xlink:href="#DejaVuSerif-20" transform="translate(744.199219 0.015625)"/>
      <use xlink:href="#DejaVuSerif-28" transform="translate(775.986328 0.015625)"/>
      <use xlink:href="#DejaVuSerif-63" transform="translate(815 0.015625)"/>
      <use xlink:href="#DejaVuSerif-61" transform="translate(871.005859 0.015625)"/>
      <use xlink:href="#DejaVuSerif-6e" transform="translate(930.625 0.015625)"/>
      <use xlink:href="#DejaVuSerif-6e" transform="translate(995.029297 0.015625)"/>
      <use xlink:href="#DejaVuSerif-6f" transform="translate(1059.433594 0.015625)"/>
      <use xlink:href="#DejaVuSerif-74" transform="translate(1119.638672 0.015625)"/>
      <use xlink:href="#DejaVuSerif-20" transform="translate(1159.824219 0.015625)"/>
      <use xlink:href="#DejaVuSerif-68" transform="translate(1191.611328 0.015625)"/>
      <use xlink:href="#DejaVuSerif-69" transform="translate(1256.015625 0.015625)"/>
      <use xlink:href="#DejaVuSerif-64" transform="translate(1287.998047 0.015625)"/>
      <use xlink:href="#DejaVuSerif-65" transform="translate(1352.011719 0.015625)"/>
      <use xlink:href="#DejaVuSerif-20" transform="translate(1411.191406 0.015625)"/>
      <use xlink:href="#DejaVuSerif-66" transform="translate(1442.978516 0.015625)"/>
      <use xlink:href="#DejaVuSerif-6f" transform="translate(1479.990234 0.015625)"/>
      <use xlink:href="#DejaVuSerif-72" transform="translate(1540.195312 0.015625)"/>
      <use xlink:href="#DejaVuSerif-20" transform="translate(1587.998047 0.015625)"/>
      <use xlink:href="#Cmmi10-22" transform="translate(1619.785156 0.015625)"/>
      <use xlink:href="#Cmmi10-3c" transform="translate(1683.925781 0.015625)"/>
      <use xlink:href="#Cmr10-31" transform="translate(1779.169922 0.015625)"/>
      <use xlink:href="#DejaVuSerif-29" transform="translate(1829.169922 0.015625)"/>
     </g>
    </g>
    <g id="patch_27">
     <path d="M 549.073722 70.83 
L 566.073722 70.83 
L 566.073722 64.88 
L 549.073722 64.88 
z
" style="stroke: #cfb991; stroke-width: 1.3; stroke-linejoin: miter"/>
    </g>
    <g id="text_17">
     <!-- nonadaptive $D=2/k$ -->
     <g style="fill: #d0d0d0" transform="translate(572.873722 70.83) scale(0.085 -0.085)">
      <defs>
       <path id="Cmmi10-3d" d="M 359 -1472 
Q 359 -1453 366 -1447 
L 2591 4722 
Q 2603 4759 2634 4779 
Q 2666 4800 2706 4800 
Q 2763 4800 2798 4765 
Q 2834 4731 2834 4672 
L 2834 4647 
L 609 -1522 
Q 572 -1600 488 -1600 
Q 434 -1600 396 -1562 
Q 359 -1525 359 -1472 
z
" transform="scale(0.015625)"/>
      </defs>
      <use xlink:href="#DejaVuSerif-6e" transform="translate(0 0.015625)"/>
      <use xlink:href="#DejaVuSerif-6f" transform="translate(64.404297 0.015625)"/>
      <use xlink:href="#DejaVuSerif-6e" transform="translate(124.609375 0.015625)"/>
      <use xlink:href="#DejaVuSerif-61" transform="translate(189.013672 0.015625)"/>
      <use xlink:href="#DejaVuSerif-64" transform="translate(248.632812 0.015625)"/>
      <use xlink:href="#DejaVuSerif-61" transform="translate(312.646484 0.015625)"/>
      <use xlink:href="#DejaVuSerif-70" transform="translate(372.265625 0.015625)"/>
      <use xlink:href="#DejaVuSerif-74" transform="translate(436.279297 0.015625)"/>
      <use xlink:href="#DejaVuSerif-69" transform="translate(476.464844 0.015625)"/>
      <use xlink:href="#DejaVuSerif-76" transform="translate(508.447266 0.015625)"/>
      <use xlink:href="#DejaVuSerif-65" transform="translate(564.941406 0.015625)"/>
      <use xlink:href="#DejaVuSerif-20" transform="translate(624.121094 0.015625)"/>
      <use xlink:href="#Cmmi10-44" transform="translate(655.908203 0.015625)"/>
      <use xlink:href="#Cmr10-3d" transform="translate(756.181641 0.015625)"/>
      <use xlink:href="#Cmr10-32" transform="translate(851.425781 0.015625)"/>
      <use xlink:href="#Cmmi10-3d" transform="translate(901.425781 0.015625)"/>
      <use xlink:href="#Cmmi10-6b" transform="translate(951.425781 0.015625)"/>
     </g>
    </g>
   </g>
   <g id="text_18">
    <g id="patch_28">
     <path d="M 421.722848 253.456981 
L 591.225114 253.456981 
L 591.225114 225.074841 
L 421.722848 225.074841 
z
" style="stroke: #d0d0d0; stroke-width: 0.9; stroke-linejoin: miter"/>
    </g>
    <!-- more branches help a checklist -->
    <g style="fill: #f2f2f2" transform="translate(425.997848 236.433278) scale(0.095 -0.095)">
     <defs>
      <path id="DejaVuSerif-6d" d="M 3316 2675 
Q 3481 3041 3739 3227 
Q 3997 3413 4341 3413 
Q 4863 3413 5119 3089 
Q 5375 2766 5375 2113 
L 5375 331 
L 5894 331 
L 5894 0 
L 4300 0 
L 4300 331 
L 4800 331 
L 4800 2047 
Q 4800 2556 4650 2772 
Q 4500 2988 4153 2988 
Q 3769 2988 3567 2697 
Q 3366 2406 3366 1850 
L 3366 331 
L 3866 331 
L 3866 0 
L 2291 0 
L 2291 331 
L 2791 331 
L 2791 2069 
Q 2791 2566 2641 2777 
Q 2491 2988 2144 2988 
Q 1759 2988 1557 2697 
Q 1356 2406 1356 1850 
L 1356 331 
L 1856 331 
L 1856 0 
L 263 0 
L 263 331 
L 781 331 
L 781 2994 
L 231 2994 
L 231 3322 
L 1356 3322 
L 1356 2731 
Q 1516 3063 1762 3238 
Q 2009 3413 2322 3413 
Q 2709 3413 2968 3220 
Q 3228 3028 3316 2675 
z
" transform="scale(0.015625)"/>
     </defs>
     <use xlink:href="#DejaVuSerif-6d"/>
     <use xlink:href="#DejaVuSerif-6f" transform="translate(94.824219 0)"/>
     <use xlink:href="#DejaVuSerif-72" transform="translate(155.029297 0)"/>
     <use xlink:href="#DejaVuSerif-65" transform="translate(202.832031 0)"/>
     <use xlink:href="#DejaVuSerif-20" transform="translate(262.011719 0)"/>
     <use xlink:href="#DejaVuSerif-62" transform="translate(293.798828 0)"/>
     <use xlink:href="#DejaVuSerif-72" transform="translate(357.8125 0)"/>
     <use xlink:href="#DejaVuSerif-61" transform="translate(405.615234 0)"/>
     <use xlink:href="#DejaVuSerif-6e" transform="translate(465.234375 0)"/>
     <use xlink:href="#DejaVuSerif-63" transform="translate(529.638672 0)"/>
     <use xlink:href="#DejaVuSerif-68" transform="translate(585.644531 0)"/>
     <use xlink:href="#DejaVuSerif-65" transform="translate(650.048828 0)"/>
     <use xlink:href="#DejaVuSerif-73" transform="translate(709.228516 0)"/>
     <use xlink:href="#DejaVuSerif-20" transform="translate(760.546875 0)"/>
     <use xlink:href="#DejaVuSerif-68" transform="translate(792.333984 0)"/>
     <use xlink:href="#DejaVuSerif-65" transform="translate(856.738281 0)"/>
     <use xlink:href="#DejaVuSerif-6c" transform="translate(915.917969 0)"/>
     <use xlink:href="#DejaVuSerif-70" transform="translate(947.900391 0)"/>
     <use xlink:href="#DejaVuSerif-20" transform="translate(1011.914062 0)"/>
     <use xlink:href="#DejaVuSerif-61" transform="translate(1043.701172 0)"/>
     <use xlink:href="#DejaVuSerif-20" transform="translate(1103.320312 0)"/>
     <use xlink:href="#DejaVuSerif-63" transform="translate(1135.107422 0)"/>
     <use xlink:href="#DejaVuSerif-68" transform="translate(1191.113281 0)"/>
     <use xlink:href="#DejaVuSerif-65" transform="translate(1255.517578 0)"/>
     <use xlink:href="#DejaVuSerif-63" transform="translate(1314.697266 0)"/>
     <use xlink:href="#DejaVuSerif-6b" transform="translate(1370.703125 0)"/>
     <use xlink:href="#DejaVuSerif-6c" transform="translate(1431.298828 0)"/>
     <use xlink:href="#DejaVuSerif-69" transform="translate(1463.28125 0)"/>
     <use xlink:href="#DejaVuSerif-73" transform="translate(1495.263672 0)"/>
     <use xlink:href="#DejaVuSerif-74" transform="translate(1546.582031 0)"/>
    </g>
    <!-- NOT an adaptive T1  (this family) -->
    <g style="fill: #f2f2f2" transform="translate(425.997848 247.0712) scale(0.095 -0.095)">
     <defs>
      <path id="DejaVuSerif-4e" d="M 313 0 
L 313 331 
L 941 331 
L 941 4331 
L 313 4331 
L 313 4666 
L 1509 4666 
L 4306 984 
L 4306 4331 
L 3681 4331 
L 3681 4666 
L 5319 4666 
L 5319 4331 
L 4691 4331 
L 4691 -91 
L 4313 -91 
L 1325 3841 
L 1325 331 
L 1953 331 
L 1953 0 
L 313 0 
z
" transform="scale(0.015625)"/>
      <path id="DejaVuSerif-4f" d="M 2625 244 
Q 3391 244 3781 770 
Q 4172 1297 4172 2328 
Q 4172 3363 3781 3889 
Q 3391 4416 2625 4416 
Q 1856 4416 1465 3889 
Q 1075 3363 1075 2328 
Q 1075 1297 1465 770 
Q 1856 244 2625 244 
z
M 2625 -91 
Q 2150 -91 1751 65 
Q 1353 222 1050 525 
Q 700 875 529 1319 
Q 359 1763 359 2328 
Q 359 2894 529 3339 
Q 700 3784 1050 4134 
Q 1356 4441 1750 4595 
Q 2144 4750 2625 4750 
Q 3641 4750 4266 4084 
Q 4891 3419 4891 2328 
Q 4891 1769 4719 1320 
Q 4547 872 4197 525 
Q 3891 219 3497 64 
Q 3103 -91 2625 -91 
z
" transform="scale(0.015625)"/>
      <path id="DejaVuSerif-54" d="M 1222 0 
L 1222 331 
L 1819 331 
L 1819 4294 
L 447 4294 
L 447 3566 
L 63 3566 
L 63 4666 
L 4206 4666 
L 4206 3566 
L 3822 3566 
L 3822 4294 
L 2450 4294 
L 2450 331 
L 3047 331 
L 3047 0 
L 1222 0 
z
" transform="scale(0.015625)"/>
     </defs>
     <use xlink:href="#DejaVuSerif-4e"/>
     <use xlink:href="#DejaVuSerif-4f" transform="translate(87.5 0)"/>
     <use xlink:href="#DejaVuSerif-54" transform="translate(169.482422 0)"/>
     <use xlink:href="#DejaVuSerif-20" transform="translate(236.181641 0)"/>
     <use xlink:href="#DejaVuSerif-61" transform="translate(267.96875 0)"/>
     <use xlink:href="#DejaVuSerif-6e" transform="translate(327.587891 0)"/>
     <use xlink:href="#DejaVuSerif-20" transform="translate(391.992188 0)"/>
     <use xlink:href="#DejaVuSerif-61" transform="translate(423.779297 0)"/>
     <use xlink:href="#DejaVuSerif-64" transform="translate(483.398438 0)"/>
     <use xlink:href="#DejaVuSerif-61" transform="translate(547.412109 0)"/>
     <use xlink:href="#DejaVuSerif-70" transform="translate(607.03125 0)"/>
     <use xlink:href="#DejaVuSerif-74" transform="translate(671.044922 0)"/>
     <use xlink:href="#DejaVuSerif-69" transform="translate(711.230469 0)"/>
     <use xlink:href="#DejaVuSerif-76" transform="translate(743.212891 0)"/>
     <use xlink:href="#DejaVuSerif-65" transform="translate(799.707031 0)"/>
     <use xlink:href="#DejaVuSerif-20" transform="translate(858.886719 0)"/>
     <use xlink:href="#DejaVuSerif-54" transform="translate(890.673828 0)"/>
     <use xlink:href="#DejaVuSerif-31" transform="translate(957.373047 0)"/>
     <use xlink:href="#DejaVuSerif-20" transform="translate(1020.996094 0)"/>
     <use xlink:href="#DejaVuSerif-20" transform="translate(1052.783203 0)"/>
     <use xlink:href="#DejaVuSerif-28" transform="translate(1084.570312 0)"/>
     <use xlink:href="#DejaVuSerif-74" transform="translate(1123.583984 0)"/>
     <use xlink:href="#DejaVuSerif-68" transform="translate(1163.769531 0)"/>
     <use xlink:href="#DejaVuSerif-69" transform="translate(1228.173828 0)"/>
     <use xlink:href="#DejaVuSerif-73" transform="translate(1260.15625 0)"/>
     <use xlink:href="#DejaVuSerif-20" transform="translate(1311.474609 0)"/>
     <use xlink:href="#DejaVuSerif-66" transform="translate(1343.261719 0)"/>
     <use xlink:href="#DejaVuSerif-61" transform="translate(1380.273438 0)"/>
     <use xlink:href="#DejaVuSerif-6d" transform="translate(1439.892578 0)"/>
     <use xlink:href="#DejaVuSerif-69" transform="translate(1534.716797 0)"/>
     <use xlink:href="#DejaVuSerif-6c" transform="translate(1566.699219 0)"/>
     <use xlink:href="#DejaVuSerif-79" transform="translate(1598.681641 0)"/>
     <use xlink:href="#DejaVuSerif-29" transform="translate(1655.175781 0)"/>
    </g>
   </g>
  </g>
 </g>
 <defs>
  <clipPath id="pf9a77ebde4">
   <rect x="56.822813" y="42.1" width="684.690909" height="332.745455"/>
  </clipPath>
 </defs>
</svg>
