<?xml version="1.0" encoding="utf-8" standalone="no"?>
<!DOCTYPE svg PUBLIC "-//W3C//DTD SVG 1.1//EN"
  "http://www.w3.org/Graphics/SVG/1.1/DTD/svg11.dtd">
<svg xmlns:xlink="http://www.w3.org/1999/xlink" width="638.28pt" height="670.064pt" viewBox="0 0 638.28 670.064" xmlns="http://www.w3.org/2000/svg" version="1.1">
 <metadata>
  <rdf:RDF xmlns:dc="http://purl.org/dc/elements/1.1/" xmlns:cc="http://creativecommons.org/ns#" xmlns:rdf="http://www.w3.org/1999/02/22-rdf-syntax-ns#">
   <cc:Work>
    <dc:type rdf:resource="http://purl.org/dc/dcmitype/StillImage"/>
    <dc:date>2026-07-12T17:43:57.721194</dc:date>
    <dc:format>image/svg+xml</dc:format>
    <dc:creator>
     <cc:Agent>
      <dc:title>Matplotlib v3.10.9, https://matplotlib.org/</dc:title>
     </cc:Agent>
    </dc:creator>
   </cc:Work>
  </rdf:RDF>
 </metadata>
 <defs>
  <style type="text/css">*{stroke-linejoin: round; stroke-linecap: butt}</style>
 </defs>
 <g id="figure_1">
  <g id="patch_1">
   <path d="M 0 670.064 
L 638.28 670.064 
L 638.28 0 
L 0 0 
z
"/>
  </g>
  <g id="axes_1">
   <g id="patch_2">
    <path d="M 557.28 319.14 
C 557.28 287.867742 551.120047 256.899567 539.152672 228.007767 
C 527.185297 199.115968 509.643235 172.862417 487.530409 150.749591 
C 465.417583 128.636765 439.164032 111.094703 410.272233 99.127328 
C 381.380433 87.159953 350.412258 81 319.14 81 
C 287.867742 81 256.899567 87.159953 228.007767 99.127328 
C 199.115968 111.094703 172.862417 128.636765 150.749591 150.749591 
C 128.636765 172.862417 111.094703 199.115968 99.127328 228.007767 
C 87.159953 256.899567 81 287.867742 81 319.14 
C 81 350.412258 87.159953 381.380433 99.127328 410.272233 
C 111.094703 439.164032 128.636765 465.417583 150.749591 487.530409 
C 172.862417 509.643235 199.115968 527.185297 228.007767 539.152672 
C 256.899567 551.120047 287.867742 557.28 319.14 557.28 
C 350.412258 557.28 381.380433 551.120047 410.272233 539.152672 
C 439.164032 527.185297 465.417583 509.643235 487.530409 487.530409 
C 509.643235 465.417583 527.185297 439.164032 539.152672 410.272233 
C 551.120047 381.380433 557.28 350.412258 557.28 319.14 
M 541.404 319.14 
C 541.404 348.327441 535.654711 377.231071 524.48516 404.19675 
C 513.31561 431.16243 496.943019 455.665744 476.304382 476.304382 
C 455.665744 496.943019 431.16243 513.31561 404.19675 524.48516 
C 377.231071 535.654711 348.327441 541.404 319.14 541.404 
C 289.952559 541.404 261.048929 535.654711 234.08325 524.48516 
C 207.11757 513.31561 182.614256 496.943019 161.975618 476.304382 
C 141.336981 455.665744 124.96439 431.16243 113.79484 404.19675 
C 102.625289 377.231071 96.876 348.327441 96.876 319.14 
C 96.876 289.952559 102.625289 261.048929 113.79484 234.08325 
C 124.96439 207.11757 141.336981 182.614256 161.975618 161.975618 
C 182.614256 141.336981 207.11757 124.96439 234.08325 113.79484 
C 261.048929 102.625289 289.952559 96.876 319.14 96.876 
C 348.327441 96.876 377.231071 102.625289 404.19675 113.79484 
C 431.16243 124.96439 455.665744 141.336981 476.304382 161.975618 
C 496.943019 182.614256 513.31561 207.11757 524.48516 234.08325 
C 535.654711 261.048929 541.404 289.952559 541.404 319.14 
z
" clip-path="url(#p7e69e62e40)" style="stroke: #d0d0d0; stroke-width: 1.2; stroke-linejoin: miter"/>
   </g>
   <g id="patch_3">
    <path d="M 542.918401 237.691323 
C 523.774157 185.092945 486.684928 140.891723 438.21 112.90471 
C 389.735072 84.917698 332.911077 74.898094 277.787423 84.617882 
" clip-path="url(#p7e69e62e40)" style="fill: none; opacity: 0.85; stroke: #cfb991; stroke-width: 1.4; stroke-linejoin: miter"/>
   </g>
   <g id="patch_4">
    <path d="M 319.14 179.658 
C 325.455547 179.658 331.513275 177.148807 335.979041 172.683041 
C 340.444807 168.217275 342.954 162.159547 342.954 155.844 
C 342.954 149.528453 340.444807 143.470725 335.979041 139.004959 
C 331.513275 134.539193 325.455547 132.03 319.14 132.03 
C 312.824453 132.03 306.766725 134.539193 302.300959 139.004959 
C 297.835193 143.470725 295.326 149.528453 295.326 155.844 
C 295.326 162.159547 297.835193 168.217275 302.300959 172.683041 
C 306.766725 177.148807 312.824453 179.658 319.14 179.658 
z
" clip-path="url(#p7e69e62e40)" style="stroke: #f2f2f2; stroke-width: 1.1; stroke-linejoin: miter"/>
   </g>
   <g id="patch_5">
    <path d="M 400.788 201.535516 
C 407.103547 201.535516 413.161275 199.026322 417.627041 194.560557 
C 422.092807 190.094791 424.602 184.037062 424.602 177.721516 
C 424.602 171.405969 422.092807 165.348241 417.627041 160.882475 
C 413.161275 156.416709 407.103547 153.907516 400.788 153.907516 
C 394.472453 153.907516 388.414725 156.416709 383.948959 160.882475 
C 379.483193 165.348241 376.974 171.405969 376.974 177.721516 
C 376.974 184.037062 379.483193 190.094791 383.948959 194.560557 
C 388.414725 199.026322 394.472453 201.535516 400.788 201.535516 
z
" clip-path="url(#p7e69e62e40)" style="stroke: #3a3a3a; stroke-width: 1.1; stroke-linejoin: miter"/>
   </g>
   <g id="patch_6">
    <path d="M 460.558484 261.306 
C 466.874031 261.306 472.931759 258.796807 477.397525 254.331041 
C 481.863291 249.865275 484.372484 243.807547 484.372484 237.492 
C 484.372484 231.176453 481.863291 225.118725 477.397525 220.652959 
C 472.931759 216.187193 466.874031 213.678 460.558484 213.678 
C 454.242938 213.678 448.185209 216.187193 443.719443 220.652959 
C 439.253678 225.118725 436.744484 231.176453 436.744484 237.492 
C 436.744484 243.807547 439.253678 249.865275 443.719443 254.331041 
C 448.185209 258.796807 454.242938 261.306 460.558484 261.306 
z
" clip-path="url(#p7e69e62e40)" style="stroke: #3a3a3a; stroke-width: 1.1; stroke-linejoin: miter"/>
   </g>
   <g id="patch_7">
    <path d="M 482.436 342.954 
C 488.751547 342.954 494.809275 340.444807 499.275041 335.979041 
C 503.740807 331.513275 506.25 325.455547 506.25 319.14 
C 506.25 312.824453 503.740807 306.766725 499.275041 302.300959 
C 494.809275 297.835193 488.751547 295.326 482.436 295.326 
C 476.120453 295.326 470.062725 297.835193 465.596959 302.300959 
C 461.131193 306.766725 458.622 312.824453 458.622 319.14 
C 458.622 325.455547 461.131193 331.513275 465.596959 335.979041 
C 470.062725 340.444807 476.120453 342.954 482.436 342.954 
z
" clip-path="url(#p7e69e62e40)" style="stroke: #f2f2f2; stroke-width: 1.1; stroke-linejoin: miter"/>
   </g>
   <g id="patch_8">
    <path d="M 460.558484 424.602 
C 466.874031 424.602 472.931759 422.092807 477.397525 417.627041 
C 481.863291 413.161275 484.372484 407.103547 484.372484 400.788 
C 484.372484 394.472453 481.863291 388.414725 477.397525 383.948959 
C 472.931759 379.483193 466.874031 376.974 460.558484 376.974 
C 454.242938 376.974 448.185209 379.483193 443.719443 383.948959 
C 439.253678 388.414725 436.744484 394.472453 436.744484 400.788 
C 436.744484 407.103547 439.253678 413.161275 443.719443 417.627041 
C 448.185209 422.092807 454.242938 424.602 460.558484 424.602 
z
" clip-path="url(#p7e69e62e40)" style="stroke: #3a3a3a; stroke-width: 1.1; stroke-linejoin: miter"/>
   </g>
   <g id="patch_9">
    <path d="M 400.788 484.372484 
C 407.103547 484.372484 413.161275 481.863291 417.627041 477.397525 
C 422.092807 472.931759 424.602 466.874031 424.602 460.558484 
C 424.602 454.242938 422.092807 448.185209 417.627041 443.719443 
C 413.161275 439.253678 407.103547 436.744484 400.788 436.744484 
C 394.472453 436.744484 388.414725 439.253678 383.948959 443.719443 
C 379.483193 448.185209 376.974 454.242938 376.974 460.558484 
C 376.974 466.874031 379.483193 472.931759 383.948959 477.397525 
C 388.414725 481.863291 394.472453 484.372484 400.788 484.372484 
z
" clip-path="url(#p7e69e62e40)" style="stroke: #3a3a3a; stroke-width: 1.1; stroke-linejoin: miter"/>
   </g>
   <g id="patch_10">
    <path d="M 319.14 506.25 
C 325.455547 506.25 331.513275 503.740807 335.979041 499.275041 
C 340.444807 494.809275 342.954 488.751547 342.954 482.436 
C 342.954 476.120453 340.444807 470.062725 335.979041 465.596959 
C 331.513275 461.131193 325.455547 458.622 319.14 458.622 
C 312.824453 458.622 306.766725 461.131193 302.300959 465.596959 
C 297.835193 470.062725 295.326 476.120453 295.326 482.436 
C 295.326 488.751547 297.835193 494.809275 302.300959 499.275041 
C 306.766725 503.740807 312.824453 506.25 319.14 506.25 
z
" clip-path="url(#p7e69e62e40)" style="stroke: #f2f2f2; stroke-width: 1.1; stroke-linejoin: miter"/>
   </g>
   <g id="patch_11">
    <path d="M 237.492 484.372484 
C 243.807547 484.372484 249.865275 481.863291 254.331041 477.397525 
C 258.796807 472.931759 261.306 466.874031 261.306 460.558484 
C 261.306 454.242938 258.796807 448.185209 254.331041 443.719443 
C 249.865275 439.253678 243.807547 436.744484 237.492 436.744484 
C 231.176453 436.744484 225.118725 439.253678 220.652959 443.719443 
C 216.187193 448.185209 213.678 454.242938 213.678 460.558484 
C 213.678 466.874031 216.187193 472.931759 220.652959 477.397525 
C 225.118725 481.863291 231.176453 484.372484 237.492 484.372484 
z
" clip-path="url(#p7e69e62e40)" style="stroke: #3a3a3a; stroke-width: 1.1; stroke-linejoin: miter"/>
   </g>
   <g id="patch_12">
    <path d="M 177.721516 424.602 
C 184.037062 424.602 190.094791 422.092807 194.560557 417.627041 
C 199.026322 413.161275 201.535516 407.103547 201.535516 400.788 
C 201.535516 394.472453 199.026322 388.414725 194.560557 383.948959 
C 190.094791 379.483193 184.037062 376.974 177.721516 376.974 
C 171.405969 376.974 165.348241 379.483193 160.882475 383.948959 
C 156.416709 388.414725 153.907516 394.472453 153.907516 400.788 
C 153.907516 407.103547 156.416709 413.161275 160.882475 417.627041 
C 165.348241 422.092807 171.405969 424.602 177.721516 424.602 
z
" clip-path="url(#p7e69e62e40)" style="stroke: #3a3a3a; stroke-width: 1.1; stroke-linejoin: miter"/>
   </g>
   <g id="patch_13">
    <path d="M 155.844 342.954 
C 162.159547 342.954 168.217275 340.444807 172.683041 335.979041 
C 177.148807 331.513275 179.658 325.455547 179.658 319.14 
C 179.658 312.824453 177.148807 306.766725 172.683041 302.300959 
C 168.217275 297.835193 162.159547 295.326 155.844 295.326 
C 149.528453 295.326 143.470725 297.835193 139.004959 302.300959 
C 134.539193 306.766725 132.03 312.824453 132.03 319.14 
C 132.03 325.455547 134.539193 331.513275 139.004959 335.979041 
C 143.470725 340.444807 149.528453 342.954 155.844 342.954 
z
" clip-path="url(#p7e69e62e40)" style="stroke: #f2f2f2; stroke-width: 1.1; stroke-linejoin: miter"/>
   </g>
   <g id="patch_14">
    <path d="M 177.721516 261.306 
C 184.037062 261.306 190.094791 258.796807 194.560557 254.331041 
C 199.026322 249.865275 201.535516 243.807547 201.535516 237.492 
C 201.535516 231.176453 199.026322 225.118725 194.560557 220.652959 
C 190.094791 216.187193 184.037062 213.678 177.721516 213.678 
C 171.405969 213.678 165.348241 216.187193 160.882475 220.652959 
C 156.416709 225.118725 153.907516 231.176453 153.907516 237.492 
C 153.907516 243.807547 156.416709 249.865275 160.882475 254.331041 
C 165.348241 258.796807 171.405969 261.306 177.721516 261.306 
z
" clip-path="url(#p7e69e62e40)" style="stroke: #3a3a3a; stroke-width: 1.1; stroke-linejoin: miter"/>
   </g>
   <g id="patch_15">
    <path d="M 237.492 201.535516 
C 243.807547 201.535516 249.865275 199.026322 254.331041 194.560557 
C 258.796807 190.094791 261.306 184.037062 261.306 177.721516 
C 261.306 171.405969 258.796807 165.348241 254.331041 160.882475 
C 249.865275 156.416709 243.807547 153.907516 237.492 153.907516 
C 231.176453 153.907516 225.118725 156.416709 220.652959 160.882475 
C 216.187193 165.348241 213.678 171.405969 213.678 177.721516 
C 213.678 184.037062 216.187193 190.094791 220.652959 194.560557 
C 225.118725 199.026322 231.176453 201.535516 237.492 201.535516 
z
" clip-path="url(#p7e69e62e40)" style="stroke: #3a3a3a; stroke-width: 1.1; stroke-linejoin: miter"/>
   </g>
   <g id="patch_16">
    <path d="M 319.14 382.644 
C 335.981458 382.644 352.1354 375.952818 364.044109 364.044109 
C 375.952818 352.1354 382.644 335.981458 382.644 319.14 
C 382.644 302.298542 375.952818 286.1446 364.044109 274.235891 
C 352.1354 262.327182 335.981458 255.636 319.14 255.636 
C 302.298542 255.636 286.1446 262.327182 274.235891 274.235891 
C 262.327182 286.1446 255.636 302.298542 255.636 319.14 
C 255.636 335.981458 262.327182 352.1354 274.235891 364.044109 
C 286.1446 375.952818 302.298542 382.644 319.14 382.644 
z
" clip-path="url(#p7e69e62e40)" style="stroke: #d0d0d0; stroke-width: 1.2; stroke-linejoin: miter"/>
   </g>
   <g id="line2d_1">
    <path d="M 319.14 291.924 
L 319.14 187.596 
" clip-path="url(#p7e69e62e40)" style="fill: none; stroke: #2a2a2a; stroke-width: 0.7; stroke-linecap: square"/>
   </g>
   <g id="line2d_2">
    <path d="M 332.748 295.570253 
L 384.912 205.219554 
" clip-path="url(#p7e69e62e40)" style="fill: none; stroke: #2a2a2a; stroke-width: 0.7; stroke-linecap: square"/>
   </g>
   <g id="line2d_3">
    <path d="M 342.709747 305.532 
L 433.060446 253.368 
" clip-path="url(#p7e69e62e40)" style="fill: none; stroke: #2a2a2a; stroke-width: 0.7; stroke-linecap: square"/>
   </g>
   <g id="line2d_4">
    <path d="M 346.356 319.14 
L 450.684 319.14 
" clip-path="url(#p7e69e62e40)" style="fill: none; stroke: #2a2a2a; stroke-width: 0.7; stroke-linecap: square"/>
   </g>
   <g id="line2d_5">
    <path d="M 342.709747 332.748 
L 433.060446 384.912 
" clip-path="url(#p7e69e62e40)" style="fill: none; stroke: #2a2a2a; stroke-width: 0.7; stroke-linecap: square"/>
   </g>
   <g id="line2d_6">
    <path d="M 332.748 342.709747 
L 384.912 433.060446 
" clip-path="url(#p7e69e62e40)" style="fill: none; stroke: #2a2a2a; stroke-width: 0.7; stroke-linecap: square"/>
   </g>
   <g id="line2d_7">
    <path d="M 319.14 346.356 
L 319.14 450.684 
" clip-path="url(#p7e69e62e40)" style="fill: none; stroke: #2a2a2a; stroke-width: 0.7; stroke-linecap: square"/>
   </g>
   <g id="line2d_8">
    <path d="M 305.532 342.709747 
L 253.368 433.060446 
" clip-path="url(#p7e69e62e40)" style="fill: none; stroke: #2a2a2a; stroke-width: 0.7; stroke-linecap: square"/>
   </g>
   <g id="line2d_9">
    <path d="M 295.570253 332.748 
L 205.219554 384.912 
" clip-path="url(#p7e69e62e40)" style="fill: none; stroke: #2a2a2a; stroke-width: 0.7; stroke-linecap: square"/>
   </g>
   <g id="line2d_10">
    <path d="M 291.924 319.14 
L 187.596 319.14 
" clip-path="url(#p7e69e62e40)" style="fill: none; stroke: #2a2a2a; stroke-width: 0.7; stroke-linecap: square"/>
   </g>
   <g id="line2d_11">
    <path d="M 295.570253 305.532 
L 205.219554 253.368 
" clip-path="url(#p7e69e62e40)" style="fill: none; stroke: #2a2a2a; stroke-width: 0.7; stroke-linecap: square"/>
   </g>
   <g id="line2d_12">
    <path d="M 305.532 295.570253 
L 253.368 205.219554 
" clip-path="url(#p7e69e62e40)" style="fill: none; stroke: #2a2a2a; stroke-width: 0.7; stroke-linecap: square"/>
   </g>
   <g id="text_1">
    <!-- Cyclic gate  ·  address construction -->
    <g style="fill: #f2f2f2" transform="translate(184.977891 46.476422) scale(0.15 -0.15)">
     <defs>
      <path id="DejaVuSerif-43" d="M 4513 1234 
Q 4306 581 3820 245 
Q 3334 -91 2591 -91 
Q 2134 -91 1743 65 
Q 1353 222 1050 525 
Q 700 875 529 1320 
Q 359 1766 359 2328 
Q 359 3416 987 4083 
Q 1616 4750 2644 4750 
Q 3025 4750 3456 4650 
Q 3888 4550 4384 4347 
L 4384 3272 
L 4031 3272 
Q 3916 3859 3567 4137 
Q 3219 4416 2591 4416 
Q 1844 4416 1459 3886 
Q 1075 3356 1075 2328 
Q 1075 1303 1459 773 
Q 1844 244 2591 244 
Q 3113 244 3450 492 
Q 3788 741 3938 1234 
L 4513 1234 
z
" transform="scale(0.015625)"/>
      <path id="DejaVuSerif-79" d="M 1381 -609 
L 1600 -56 
L 359 2988 
L -19 2988 
L -19 3322 
L 1509 3322 
L 1509 2988 
L 978 2988 
L 1913 703 
L 2847 2988 
L 2350 2988 
L 2350 3322 
L 3597 3322 
L 3597 2988 
L 3225 2988 
L 1703 -750 
Q 1547 -1138 1356 -1280 
Q 1166 -1422 819 -1422 
Q 672 -1422 517 -1397 
Q 363 -1372 206 -1325 
L 206 -691 
L 500 -691 
Q 519 -903 608 -995 
Q 697 -1088 884 -1088 
Q 1056 -1088 1161 -992 
Q 1266 -897 1381 -609 
z
" transform="scale(0.015625)"/>
      <path id="DejaVuSerif-63" d="M 3291 997 
Q 3169 466 2822 187 
Q 2475 -91 1925 -91 
Q 1200 -91 759 389 
Q 319 869 319 1663 
Q 319 2459 759 2936 
Q 1200 3413 1925 3413 
Q 2241 3413 2553 3339 
Q 2866 3266 3181 3116 
L 3181 2266 
L 2847 2266 
Q 2781 2703 2561 2903 
Q 2341 3103 1931 3103 
Q 1466 3103 1228 2742 
Q 991 2381 991 1663 
Q 991 944 1227 581 
Q 1463 219 1931 219 
Q 2303 219 2525 412 
Q 2747 606 2828 997 
L 3291 997 
z
" transform="scale(0.015625)"/>
      <path id="DejaVuSerif-6c" d="M 1313 331 
L 1856 331 
L 1856 0 
L 184 0 
L 184 331 
L 738 331 
L 738 4531 
L 184 4531 
L 184 4863 
L 1313 4863 
L 1313 331 
z
" transform="scale(0.015625)"/>
      <path id="DejaVuSerif-69" d="M 622 4353 
Q 622 4497 726 4603 
Q 831 4709 978 4709 
Q 1122 4709 1226 4603 
Q 1331 4497 1331 4353 
Q 1331 4206 1228 4103 
Q 1125 4000 978 4000 
Q 831 4000 726 4103 
Q 622 4206 622 4353 
z
M 1356 331 
L 1900 331 
L 1900 0 
L 231 0 
L 231 331 
L 781 331 
L 781 2988 
L 231 2988 
L 231 3322 
L 1356 3322 
L 1356 331 
z
" transform="scale(0.015625)"/>
      <path id="DejaVuSerif-20" transform="scale(0.015625)"/>
      <path id="DejaVuSerif-67" d="M 3359 2988 
L 3359 72 
Q 3359 -644 2965 -1033 
Q 2572 -1422 1844 -1422 
Q 1516 -1422 1216 -1362 
Q 916 -1303 641 -1184 
L 641 -488 
L 941 -488 
Q 997 -813 1206 -963 
Q 1416 -1113 1806 -1113 
Q 2313 -1113 2548 -827 
Q 2784 -541 2784 72 
L 2784 519 
Q 2616 206 2355 57 
Q 2094 -91 1709 -91 
Q 1097 -91 708 395 
Q 319 881 319 1663 
Q 319 2444 706 2928 
Q 1094 3413 1709 3413 
Q 2094 3413 2355 3264 
Q 2616 3116 2784 2803 
L 2784 3322 
L 3909 3322 
L 3909 2988 
L 3359 2988 
z
M 2784 1825 
Q 2784 2422 2554 2737 
Q 2325 3053 1888 3053 
Q 1444 3053 1217 2703 
Q 991 2353 991 1663 
Q 991 975 1217 622 
Q 1444 269 1888 269 
Q 2325 269 2554 583 
Q 2784 897 2784 1497 
L 2784 1825 
z
" transform="scale(0.015625)"/>
      <path id="DejaVuSerif-61" d="M 2547 1044 
L 2547 1747 
L 1806 1747 
Q 1378 1747 1168 1562 
Q 959 1378 959 997 
Q 959 650 1171 447 
Q 1384 244 1747 244 
Q 2106 244 2326 466 
Q 2547 688 2547 1044 
z
M 3122 2075 
L 3122 331 
L 3634 331 
L 3634 0 
L 2547 0 
L 2547 359 
Q 2356 128 2106 18 
Q 1856 -91 1522 -91 
Q 969 -91 644 203 
Q 319 497 319 997 
Q 319 1513 691 1797 
Q 1063 2081 1741 2081 
L 2547 2081 
L 2547 2309 
Q 2547 2688 2317 2895 
Q 2088 3103 1672 3103 
Q 1328 3103 1125 2947 
Q 922 2791 872 2484 
L 575 2484 
L 575 3156 
Q 875 3284 1158 3348 
Q 1441 3413 1709 3413 
Q 2400 3413 2761 3070 
Q 3122 2728 3122 2075 
z
" transform="scale(0.015625)"/>
      <path id="DejaVuSerif-74" d="M 691 2988 
L 184 2988 
L 184 3322 
L 691 3322 
L 691 4353 
L 1269 4353 
L 1269 3322 
L 2350 3322 
L 2350 2988 
L 1269 2988 
L 1269 878 
Q 1269 456 1350 337 
Q 1431 219 1650 219 
Q 1875 219 1978 351 
Q 2081 484 2088 781 
L 2522 781 
Q 2497 328 2275 118 
Q 2053 -91 1600 -91 
Q 1103 -91 897 129 
Q 691 350 691 878 
L 691 2988 
z
" transform="scale(0.015625)"/>
      <path id="DejaVuSerif-65" d="M 3469 1600 
L 991 1600 
L 991 1575 
Q 991 903 1244 561 
Q 1497 219 1991 219 
Q 2369 219 2611 417 
Q 2853 616 2950 1006 
L 3413 1006 
Q 3275 459 2904 184 
Q 2534 -91 1931 -91 
Q 1203 -91 761 389 
Q 319 869 319 1663 
Q 319 2450 753 2931 
Q 1188 3413 1894 3413 
Q 2647 3413 3050 2948 
Q 3453 2484 3469 1600 
z
M 2791 1931 
Q 2772 2513 2545 2808 
Q 2319 3103 1894 3103 
Q 1497 3103 1269 2806 
Q 1041 2509 991 1931 
L 2791 1931 
z
" transform="scale(0.015625)"/>
      <path id="DejaVuSerif-b7" d="M 594 2222 
Q 594 2397 714 2517 
Q 834 2638 1013 2638 
Q 1184 2638 1306 2516 
Q 1428 2394 1428 2222 
Q 1428 2047 1306 1926 
Q 1184 1806 1013 1806 
Q 834 1806 714 1925 
Q 594 2044 594 2222 
z
" transform="scale(0.015625)"/>
      <path id="DejaVuSerif-64" d="M 3359 331 
L 3909 331 
L 3909 0 
L 2784 0 
L 2784 519 
Q 2616 206 2355 57 
Q 2094 -91 1709 -91 
Q 1097 -91 708 395 
Q 319 881 319 1663 
Q 319 2444 706 2928 
Q 1094 3413 1709 3413 
Q 2094 3413 2355 3264 
Q 2616 3116 2784 2803 
L 2784 4531 
L 2241 4531 
L 2241 4863 
L 3359 4863 
L 3359 331 
z
M 2784 1497 
L 2784 1825 
Q 2784 2422 2554 2737 
Q 2325 3053 1888 3053 
Q 1444 3053 1217 2703 
Q 991 2353 991 1663 
Q 991 975 1217 622 
Q 1444 269 1888 269 
Q 2325 269 2554 583 
Q 2784 897 2784 1497 
z
" transform="scale(0.015625)"/>
      <path id="DejaVuSerif-72" d="M 3059 3328 
L 3059 2497 
L 2728 2497 
Q 2713 2744 2591 2866 
Q 2469 2988 2234 2988 
Q 1809 2988 1582 2694 
Q 1356 2400 1356 1850 
L 1356 331 
L 2022 331 
L 2022 0 
L 263 0 
L 263 331 
L 781 331 
L 781 2994 
L 231 2994 
L 231 3322 
L 1356 3322 
L 1356 2731 
Q 1525 3078 1790 3245 
Q 2056 3413 2438 3413 
Q 2578 3413 2733 3391 
Q 2888 3369 3059 3328 
z
" transform="scale(0.015625)"/>
      <path id="DejaVuSerif-73" d="M 359 184 
L 359 959 
L 691 959 
Q 703 588 923 403 
Q 1144 219 1575 219 
Q 1963 219 2166 364 
Q 2369 509 2369 788 
Q 2369 1006 2220 1140 
Q 2072 1275 1594 1428 
L 1178 1569 
Q 750 1706 558 1912 
Q 366 2119 366 2438 
Q 366 2894 700 3153 
Q 1034 3413 1625 3413 
Q 1888 3413 2178 3344 
Q 2469 3275 2778 3144 
L 2778 2419 
L 2447 2419 
Q 2434 2741 2221 2922 
Q 2009 3103 1644 3103 
Q 1281 3103 1095 2975 
Q 909 2847 909 2591 
Q 909 2381 1050 2254 
Q 1191 2128 1613 1997 
L 2069 1856 
Q 2541 1709 2748 1489 
Q 2956 1269 2956 922 
Q 2956 450 2595 179 
Q 2234 -91 1600 -91 
Q 1278 -91 972 -22 
Q 666 47 359 184 
z
" transform="scale(0.015625)"/>
      <path id="DejaVuSerif-6f" d="M 1925 219 
Q 2388 219 2623 584 
Q 2859 950 2859 1663 
Q 2859 2375 2623 2739 
Q 2388 3103 1925 3103 
Q 1463 3103 1227 2739 
Q 991 2375 991 1663 
Q 991 950 1228 584 
Q 1466 219 1925 219 
z
M 1925 -91 
Q 1200 -91 759 389 
Q 319 869 319 1663 
Q 319 2456 758 2934 
Q 1197 3413 1925 3413 
Q 2653 3413 3092 2934 
Q 3531 2456 3531 1663 
Q 3531 869 3092 389 
Q 2653 -91 1925 -91 
z
" transform="scale(0.015625)"/>
      <path id="DejaVuSerif-6e" d="M 263 0 
L 263 331 
L 781 331 
L 781 2988 
L 231 2988 
L 231 3322 
L 1356 3322 
L 1356 2731 
Q 1516 3069 1770 3241 
Q 2025 3413 2363 3413 
Q 2913 3413 3172 3097 
Q 3431 2781 3431 2113 
L 3431 331 
L 3944 331 
L 3944 0 
L 2356 0 
L 2356 331 
L 2853 331 
L 2853 1931 
Q 2853 2541 2703 2767 
Q 2553 2994 2175 2994 
Q 1775 2994 1565 2701 
Q 1356 2409 1356 1850 
L 1356 331 
L 1856 331 
L 1856 0 
L 263 0 
z
" transform="scale(0.015625)"/>
      <path id="DejaVuSerif-75" d="M 2266 3322 
L 3341 3322 
L 3341 331 
L 3884 331 
L 3884 0 
L 2766 0 
L 2766 588 
Q 2606 256 2353 82 
Q 2100 -91 1766 -91 
Q 1213 -91 952 223 
Q 691 538 691 1209 
L 691 2988 
L 172 2988 
L 172 3322 
L 1269 3322 
L 1269 1388 
Q 1269 781 1417 556 
Q 1566 331 1947 331 
Q 2347 331 2556 625 
Q 2766 919 2766 1478 
L 2766 2988 
L 2266 2988 
L 2266 3322 
z
" transform="scale(0.015625)"/>
     </defs>
     <use xlink:href="#DejaVuSerif-43"/>
     <use xlink:href="#DejaVuSerif-79" transform="translate(76.513672 0)"/>
     <use xlink:href="#DejaVuSerif-63" transform="translate(133.007812 0)"/>
     <use xlink:href="#DejaVuSerif-6c" transform="translate(189.013672 0)"/>
     <use xlink:href="#DejaVuSerif-69" transform="translate(220.996094 0)"/>
     <use xlink:href="#DejaVuSerif-63" transform="translate(252.978516 0)"/>
     <use xlink:href="#DejaVuSerif-20" transform="translate(308.984375 0)"/>
     <use xlink:href="#DejaVuSerif-67" transform="translate(340.771484 0)"/>
     <use xlink:href="#DejaVuSerif-61" transform="translate(404.785156 0)"/>
     <use xlink:href="#DejaVuSerif-74" transform="translate(464.404297 0)"/>
     <use xlink:href="#DejaVuSerif-65" transform="translate(504.589844 0)"/>
     <use xlink:href="#DejaVuSerif-20" transform="translate(563.769531 0)"/>
     <use xlink:href="#DejaVuSerif-20" transform="translate(595.556641 0)"/>
     <use xlink:href="#DejaVuSerif-b7" transform="translate(627.34375 0)"/>
     <use xlink:href="#DejaVuSerif-20" transform="translate(659.130859 0)"/>
     <use xlink:href="#DejaVuSerif-20" transform="translate(690.917969 0)"/>
     <use xlink:href="#DejaVuSerif-61" transform="translate(722.705078 0)"/>
     <use xlink:href="#DejaVuSerif-64" transform="translate(782.324219 0)"/>
     <use xlink:href="#DejaVuSerif-64" transform="translate(846.337891 0)"/>
     <use xlink:href="#DejaVuSerif-72" transform="translate(910.351562 0)"/>
     <use xlink:href="#DejaVuSerif-65" transform="translate(958.154297 0)"/>
     <use xlink:href="#DejaVuSerif-73" transform="translate(1017.333984 0)"/>
     <use xlink:href="#DejaVuSerif-73" transform="translate(1068.652344 0)"/>
     <use xlink:href="#DejaVuSerif-20" transform="translate(1119.970703 0)"/>
     <use xlink:href="#DejaVuSerif-63" transform="translate(1151.757812 0)"/>
     <use xlink:href="#DejaVuSerif-6f" transform="translate(1207.763672 0)"/>
     <use xlink:href="#DejaVuSerif-6e" transform="translate(1267.96875 0)"/>
     <use xlink:href="#DejaVuSerif-73" transform="translate(1332.373047 0)"/>
     <use xlink:href="#DejaVuSerif-74" transform="translate(1383.691406 0)"/>
     <use xlink:href="#DejaVuSerif-72" transform="translate(1423.876953 0)"/>
     <use xlink:href="#DejaVuSerif-75" transform="translate(1471.679688 0)"/>
     <use xlink:href="#DejaVuSerif-63" transform="translate(1536.083984 0)"/>
     <use xlink:href="#DejaVuSerif-74" transform="translate(1592.089844 0)"/>
     <use xlink:href="#DejaVuSerif-69" transform="translate(1632.275391 0)"/>
     <use xlink:href="#DejaVuSerif-6f" transform="translate(1664.257812 0)"/>
     <use xlink:href="#DejaVuSerif-6e" transform="translate(1724.462891 0)"/>
    </g>
   </g>
   <g id="text_2">
    <!-- pedagogical analogue of $g(i,x)=i$  on  $K$ branches  (shown $K{=}12$) -->
    <g style="fill: #8a8a8a" transform="translate(161.7725 67.5465) scale(0.095 -0.095)">
     <defs>
      <path id="DejaVuSerif-Italic-70" d="M 1466 1825 
L 1400 1497 
Q 1353 1250 1353 1053 
Q 1353 769 1453 581 
Q 1622 269 2059 269 
Q 2500 269 2795 622 
Q 3091 975 3225 1663 
Q 3284 1978 3284 2225 
Q 3284 2513 3200 2703 
Q 3041 3053 2600 3053 
Q 2163 3053 1872 2737 
Q 1581 2422 1466 1825 
z
M 1116 2988 
L 563 2988 
L 628 3322 
L 1756 3322 
L 1656 2803 
Q 1884 3116 2175 3264 
Q 2466 3413 2850 3413 
Q 3463 3413 3753 2928 
Q 3947 2609 3947 2163 
Q 3947 1928 3897 1663 
Q 3744 881 3262 395 
Q 2781 -91 2169 -91 
Q 1784 -91 1551 57 
Q 1319 206 1213 519 
L 850 -1331 
L 275 -1331 
L 1116 2988 
z
" transform="scale(0.015625)"/>
      <path id="DejaVuSerif-Italic-65" d="M 938 1275 
Q 925 1156 925 1050 
Q 925 756 1031 563 
Q 1216 219 1709 219 
Q 2072 219 2250 328 
Q 2569 525 2644 778 
L 3066 778 
Q 2941 381 2475 103 
Q 2150 -91 1506 -91 
Q 863 -91 516 388 
Q 272 722 272 1206 
Q 272 1419 319 1659 
Q 472 2450 1000 2931 
Q 1528 3413 2278 3413 
Q 3500 3413 3500 2547 
Q 3500 1913 2859 1603 
Q 2206 1288 938 1275 
z
M 2541 1975 
Q 2891 2181 2891 2569 
Q 2891 3103 2181 3103 
Q 1763 3103 1472 2784 
Q 1181 2466 1003 1606 
Q 2006 1653 2541 1975 
z
" transform="scale(0.015625)"/>
      <path id="DejaVuSerif-Italic-64" d="M 3841 4863 
L 2897 0 
L 2322 0 
L 2422 519 
Q 2191 206 1902 57 
Q 1613 -91 1228 -91 
Q 616 -91 322 394 
Q 125 716 125 1166 
Q 125 1397 178 1663 
Q 331 2444 812 2928 
Q 1294 3413 1909 3413 
Q 2294 3413 2525 3264 
Q 2756 3116 2866 2803 
L 3200 4531 
L 2656 4531 
L 2722 4863 
L 3841 4863 
z
M 2613 1497 
L 2675 1825 
Q 2722 2069 2722 2266 
Q 2722 2550 2622 2738 
Q 2456 3053 2019 3053 
Q 1575 3053 1279 2703 
Q 984 2353 850 1663 
Q 788 1347 788 1103 
Q 788 813 875 622 
Q 1031 269 1475 269 
Q 1913 269 2203 583 
Q 2494 897 2613 1497 
z
" transform="scale(0.015625)"/>
      <path id="DejaVuSerif-Italic-61" d="M 2325 519 
Q 1909 -91 1238 -91 
Q 688 -91 409 281 
Q 216 544 216 919 
Q 216 1078 250 1256 
Q 463 2359 1231 2928 
Q 1884 3413 2675 3413 
Q 3206 3413 3388 3322 
L 2806 331 
L 3300 331 
L 3238 0 
L 2225 0 
L 2325 519 
z
M 822 938 
Q 822 269 1469 269 
Q 1863 269 2130 583 
Q 2397 897 2516 1497 
L 2806 3003 
L 2806 3003 
Q 2806 3094 2556 3094 
Q 1956 3094 1491 2625 
Q 1028 2153 863 1297 
Q 822 1097 822 938 
z
" transform="scale(0.015625)"/>
      <path id="DejaVuSerif-Italic-67" d="M 3822 3322 
L 3188 72 
Q 3044 -672 2581 -1031 
Q 2078 -1422 1381 -1422 
Q 1053 -1422 765 -1362 
Q 478 -1303 225 -1184 
L 363 -488 
L 663 -488 
Q 653 -813 834 -963 
Q 1016 -1113 1406 -1113 
Q 1913 -1113 2203 -825 
Q 2494 -544 2613 72 
L 2700 519 
Q 2472 206 2181 57 
Q 1891 -91 1525 -91 
Q 975 -91 697 281 
Q 522 516 503 841 
Q 491 1031 534 1256 
Q 750 2359 1516 2928 
Q 2169 3409 2931 3413 
Q 3631 3416 3822 3322 
z
M 3184 2988 
Q 3181 3094 2844 3094 
Q 2234 3094 1775 2625 
Q 1316 2153 1147 1297 
Q 1100 1044 1113 853 
Q 1125 659 1203 528 
Q 1356 269 1756 269 
Q 2194 269 2484 583 
Q 2775 897 2891 1497 
L 2953 1825 
L 3184 2988 
z
" transform="scale(0.015625)"/>
      <path id="DejaVuSerif-Italic-6f" d="M 1644 219 
Q 2106 219 2414 584 
Q 2722 950 2859 1663 
Q 2922 1988 2922 2241 
Q 2922 2541 2834 2738 
Q 2669 3103 2206 3103 
Q 1744 3103 1436 2739 
Q 1128 2375 991 1663 
Q 928 1338 928 1088 
Q 928 784 1019 584 
Q 1184 219 1644 219 
z
M 1584 -91 
Q 859 -91 513 388 
Q 272 722 272 1203 
Q 272 1419 319 1663 
Q 472 2456 1005 2934 
Q 1538 3413 2266 3413 
Q 2994 3413 3341 2934 
Q 3578 2603 3578 2122 
Q 3578 1906 3531 1663 
Q 3378 869 2845 389 
Q 2313 -91 1584 -91 
z
" transform="scale(0.015625)"/>
      <path id="DejaVuSerif-Italic-69" d="M 1009 4353 
Q 1038 4497 1163 4603 
Q 1288 4709 1434 4709 
Q 1578 4709 1663 4603 
Q 1728 4522 1728 4422 
Q 1728 4388 1719 4353 
Q 1691 4206 1567 4103 
Q 1444 4000 1297 4000 
Q 1150 4000 1066 4103 
Q 1003 4181 1003 4281 
Q 1003 4316 1009 4353 
z
M 963 331 
L 1506 331 
L 1444 0 
L 325 0 
L 903 2988 
L 353 2988 
L 419 3322 
L 1544 3322 
L 963 331 
z
" transform="scale(0.015625)"/>
      <path id="DejaVuSerif-Italic-63" d="M 3163 997 
Q 2938 466 2536 187 
Q 2134 -91 1584 -91 
Q 859 -91 513 388 
Q 272 722 272 1203 
Q 272 1419 319 1663 
Q 475 2459 1008 2936 
Q 1541 3413 2266 3413 
Q 2581 3413 2879 3339 
Q 3178 3266 3463 3116 
L 3300 2266 
L 2966 2266 
Q 2966 2309 2966 2347 
Q 2966 2722 2803 2903 
Q 2622 3103 2213 3103 
Q 1747 3103 1439 2742 
Q 1131 2381 991 1663 
Q 928 1334 928 1078 
Q 928 778 1016 581 
Q 1181 219 1650 219 
Q 2022 219 2281 412 
Q 2541 606 2700 997 
L 3163 997 
z
" transform="scale(0.015625)"/>
      <path id="DejaVuSerif-Italic-6c" d="M 903 331 
L 1447 331 
L 1384 0 
L 266 0 
L 1147 4531 
L 594 4531 
L 656 4863 
L 1784 4863 
L 903 331 
z
" transform="scale(0.015625)"/>
      <path id="DejaVuSerif-Italic-20" transform="scale(0.015625)"/>
      <path id="DejaVuSerif-Italic-6e" d="M 450 0 
L 1031 2988 
L 481 2988 
L 544 3322 
L 1669 3322 
L 1556 2731 
Q 1781 3069 2068 3241 
Q 2356 3413 2694 3413 
Q 3244 3413 3444 3097 
Q 3563 2906 3563 2588 
Q 3563 2378 3509 2113 
L 3163 331 
L 3675 331 
L 3613 0 
L 2522 0 
L 2897 1931 
Q 2959 2253 2959 2469 
Q 2959 2659 2909 2769 
Q 2803 2994 2425 2994 
Q 2025 2994 1759 2701 
Q 1494 2409 1384 1850 
L 1025 0 
L 450 0 
z
" transform="scale(0.015625)"/>
      <path id="DejaVuSerif-Italic-75" d="M 3097 3322 
L 3672 3322 
L 3091 331 
L 3634 331 
L 3572 0 
L 2453 0 
L 2566 588 
Q 2341 256 2055 82 
Q 1769 -91 1434 -91 
Q 881 -91 681 225 
Q 559 413 559 734 
Q 559 944 613 1209 
L 956 2988 
L 438 2988 
L 503 3322 
L 1600 3322 
L 1225 1388 
Q 1163 1066 1163 853 
Q 1163 663 1213 556 
Q 1316 331 1697 331 
Q 2097 331 2364 625 
Q 2631 919 2738 1478 
L 3097 3322 
z
" transform="scale(0.015625)"/>
      <path id="DejaVuSerif-Italic-66" d="M 3191 4078 
L 2888 4078 
Q 2900 4144 2900 4203 
Q 2900 4347 2825 4434 
Q 2719 4556 2472 4556 
Q 2150 4556 1984 4379 
Q 1819 4203 1731 3750 
L 1647 3322 
L 2575 3322 
L 2509 2988 
L 1581 2988 
L 963 -206 
Q 853 -763 509 -1047 
Q 166 -1331 -394 -1331 
L -356 -1025 
Q -28 -1025 131 -850 
Q 297 -663 388 -206 
L 1006 2988 
L 456 2988 
L 522 3322 
L 1072 3322 
L 1153 3738 
Q 1263 4297 1606 4578 
Q 1950 4863 2509 4863 
Q 2719 4863 2920 4825 
Q 3122 4788 3316 4709 
L 3191 4078 
z
" transform="scale(0.015625)"/>
      <path id="Cmmi10-67" d="M 91 -916 
Q 91 -759 198 -642 
Q 306 -525 459 -525 
Q 563 -525 633 -589 
Q 703 -653 703 -756 
Q 703 -872 637 -964 
Q 572 -1056 469 -1094 
Q 641 -1147 1006 -1147 
Q 1300 -1147 1544 -920 
Q 1788 -694 1863 -397 
L 2047 353 
Q 1700 0 1325 0 
Q 1050 0 854 140 
Q 659 281 556 515 
Q 453 750 453 1013 
Q 453 1306 573 1628 
Q 694 1950 911 2225 
Q 1128 2500 1409 2664 
Q 1691 2828 2003 2828 
Q 2191 2828 2341 2725 
Q 2491 2622 2578 2450 
Q 2641 2700 2853 2700 
Q 2934 2700 2990 2651 
Q 3047 2603 3047 2522 
Q 3047 2503 3045 2493 
Q 3044 2484 3041 2472 
L 2309 -434 
Q 2259 -634 2125 -800 
Q 1991 -966 1809 -1077 
Q 1628 -1188 1412 -1250 
Q 1197 -1313 997 -1313 
Q 631 -1313 361 -1242 
Q 91 -1172 91 -916 
z
M 1338 166 
Q 1747 166 2144 728 
L 2497 2125 
Q 2453 2347 2322 2505 
Q 2191 2663 1991 2663 
Q 1778 2663 1589 2489 
Q 1400 2316 1275 2075 
Q 1156 1844 1045 1411 
Q 934 978 934 728 
Q 934 509 1034 337 
Q 1134 166 1338 166 
z
" transform="scale(0.015625)"/>
      <path id="Cmr10-28" d="M 1984 -1588 
Q 1628 -1306 1370 -942 
Q 1113 -578 948 -165 
Q 784 247 703 697 
Q 622 1147 622 1600 
Q 622 2059 703 2509 
Q 784 2959 951 3375 
Q 1119 3791 1378 4153 
Q 1638 4516 1984 4788 
Q 1984 4800 2016 4800 
L 2075 4800 
Q 2094 4800 2109 4783 
Q 2125 4766 2125 4744 
Q 2125 4716 2113 4703 
Q 1800 4397 1592 4047 
Q 1384 3697 1257 3301 
Q 1131 2906 1075 2482 
Q 1019 2059 1019 1600 
Q 1019 -434 2106 -1491 
Q 2125 -1509 2125 -1544 
Q 2125 -1559 2108 -1579 
Q 2091 -1600 2075 -1600 
L 2016 -1600 
Q 1984 -1600 1984 -1588 
z
" transform="scale(0.015625)"/>
      <path id="Cmmi10-69" d="M 500 459 
Q 500 578 550 709 
L 1069 2088 
Q 1153 2322 1153 2472 
Q 1153 2663 1013 2663 
Q 759 2663 595 2402 
Q 431 2141 353 1819 
Q 341 1778 300 1778 
L 225 1778 
Q 172 1778 172 1838 
L 172 1856 
Q 275 2238 487 2533 
Q 700 2828 1025 2828 
Q 1253 2828 1411 2678 
Q 1569 2528 1569 2297 
Q 1569 2178 1516 2047 
L 997 672 
Q 909 459 909 288 
Q 909 97 1056 97 
Q 1306 97 1473 364 
Q 1641 631 1709 941 
Q 1722 978 1759 978 
L 1838 978 
Q 1863 978 1878 961 
Q 1894 944 1894 922 
Q 1894 916 1888 903 
Q 1800 541 1583 234 
Q 1366 -72 1044 -72 
Q 819 -72 659 83 
Q 500 238 500 459 
z
M 1222 3878 
Q 1222 4013 1334 4122 
Q 1447 4231 1581 4231 
Q 1691 4231 1761 4164 
Q 1831 4097 1831 3994 
Q 1831 3850 1717 3742 
Q 1603 3634 1466 3634 
Q 1363 3634 1292 3704 
Q 1222 3775 1222 3878 
z
" transform="scale(0.015625)"/>
      <path id="Cmmi10-3b" d="M 634 -1153 
Q 634 -1125 659 -1100 
Q 891 -878 1019 -587 
Q 1147 -297 1147 25 
L 1147 103 
Q 1044 0 891 0 
Q 744 0 641 103 
Q 538 206 538 353 
Q 538 503 641 603 
Q 744 703 891 703 
Q 1119 703 1216 492 
Q 1313 281 1313 25 
Q 1313 -331 1170 -651 
Q 1028 -972 769 -1228 
Q 744 -1241 728 -1241 
Q 697 -1241 665 -1212 
Q 634 -1184 634 -1153 
z
" transform="scale(0.015625)"/>
      <path id="Cmmi10-78" d="M 500 184 
Q 613 97 819 97 
Q 1019 97 1172 289 
Q 1325 481 1381 709 
L 1672 1844 
Q 1741 2153 1741 2266 
Q 1741 2425 1652 2544 
Q 1563 2663 1403 2663 
Q 1200 2663 1022 2536 
Q 844 2409 722 2214 
Q 600 2019 550 1819 
Q 538 1778 500 1778 
L 422 1778 
Q 372 1778 372 1838 
L 372 1856 
Q 434 2094 584 2320 
Q 734 2547 951 2687 
Q 1169 2828 1416 2828 
Q 1650 2828 1839 2703 
Q 2028 2578 2106 2363 
Q 2216 2559 2386 2693 
Q 2556 2828 2759 2828 
Q 2897 2828 3040 2779 
Q 3184 2731 3275 2631 
Q 3366 2531 3366 2381 
Q 3366 2219 3261 2101 
Q 3156 1984 2994 1984 
Q 2891 1984 2822 2050 
Q 2753 2116 2753 2216 
Q 2753 2350 2845 2451 
Q 2938 2553 3066 2572 
Q 2950 2663 2747 2663 
Q 2541 2663 2389 2472 
Q 2238 2281 2175 2047 
L 1894 916 
Q 1825 659 1825 494 
Q 1825 331 1917 214 
Q 2009 97 2163 97 
Q 2463 97 2698 361 
Q 2934 625 3009 941 
Q 3022 978 3059 978 
L 3138 978 
Q 3163 978 3178 961 
Q 3194 944 3194 922 
Q 3194 916 3188 903 
Q 3097 522 2806 225 
Q 2516 -72 2150 -72 
Q 1916 -72 1727 54 
Q 1538 181 1459 397 
Q 1359 209 1182 68 
Q 1006 -72 806 -72 
Q 669 -72 523 -23 
Q 378 25 287 125 
Q 197 225 197 378 
Q 197 528 301 651 
Q 406 775 563 775 
Q 669 775 741 711 
Q 813 647 813 544 
Q 813 409 723 309 
Q 634 209 500 184 
z
" transform="scale(0.015625)"/>
      <path id="Cmr10-29" d="M 416 -1600 
Q 359 -1600 359 -1544 
Q 359 -1516 372 -1503 
Q 1466 -434 1466 1600 
Q 1466 3634 384 4691 
Q 359 4706 359 4744 
Q 359 4766 376 4783 
Q 394 4800 416 4800 
L 475 4800 
Q 494 4800 506 4788 
Q 966 4425 1272 3906 
Q 1578 3388 1720 2800 
Q 1863 2213 1863 1600 
Q 1863 1147 1786 708 
Q 1709 269 1542 -157 
Q 1375 -584 1119 -945 
Q 863 -1306 506 -1588 
Q 494 -1600 475 -1600 
L 416 -1600 
z
" transform="scale(0.015625)"/>
      <path id="Cmr10-3d" d="M 481 850 
Q 428 850 393 890 
Q 359 931 359 978 
Q 359 1031 393 1068 
Q 428 1106 481 1106 
L 4500 1106 
Q 4547 1106 4581 1068 
Q 4616 1031 4616 978 
Q 4616 931 4581 890 
Q 4547 850 4500 850 
L 481 850 
z
M 481 2094 
Q 428 2094 393 2131 
Q 359 2169 359 2222 
Q 359 2269 393 2309 
Q 428 2350 481 2350 
L 4500 2350 
Q 4547 2350 4581 2309 
Q 4616 2269 4616 2222 
Q 4616 2169 4581 2131 
Q 4547 2094 4500 2094 
L 481 2094 
z
" transform="scale(0.015625)"/>
      <path id="Cmmi10-4b" d="M 300 0 
Q 238 0 238 84 
Q 241 100 250 139 
Q 259 178 276 201 
Q 294 225 319 225 
Q 709 225 863 269 
Q 947 297 984 441 
L 1863 3956 
Q 1875 4019 1875 4044 
Q 1875 4113 1797 4122 
Q 1678 4147 1338 4147 
Q 1275 4147 1275 4231 
Q 1297 4313 1309 4342 
Q 1322 4372 1381 4372 
L 3103 4372 
Q 3169 4372 3169 4288 
Q 3166 4272 3156 4234 
Q 3147 4197 3131 4172 
Q 3116 4147 3084 4147 
Q 2694 4147 2541 4103 
Q 2456 4072 2419 3928 
L 1900 1856 
L 4409 3794 
Q 4416 3806 4489 3879 
Q 4563 3953 4563 4025 
Q 4563 4147 4347 4147 
Q 4281 4147 4281 4231 
Q 4294 4281 4301 4309 
Q 4309 4338 4329 4355 
Q 4350 4372 4391 4372 
L 5631 4372 
Q 5666 4372 5681 4347 
Q 5697 4322 5697 4288 
Q 5694 4272 5683 4231 
Q 5672 4191 5655 4169 
Q 5638 4147 5606 4147 
Q 5138 4147 4581 3713 
Q 4578 3709 4572 3707 
Q 4566 3706 4559 3704 
Q 4553 3703 4550 3700 
L 3231 2675 
L 4191 428 
Q 4278 288 4378 256 
Q 4478 225 4684 225 
Q 4750 225 4750 141 
Q 4731 66 4712 33 
Q 4694 0 4641 0 
L 3156 0 
Q 3097 0 3097 84 
Q 3106 150 3118 187 
Q 3131 225 3181 225 
Q 3344 225 3458 258 
Q 3572 291 3572 409 
Q 3572 453 3566 475 
L 2772 2322 
L 1838 1600 
L 1544 416 
Q 1528 338 1528 325 
Q 1528 259 1606 250 
Q 1728 225 2069 225 
Q 2131 225 2131 141 
Q 2109 50 2096 25 
Q 2084 0 2022 0 
L 300 0 
z
" transform="scale(0.015625)"/>
      <path id="DejaVuSerif-Italic-62" d="M 1153 4531 
L 600 4531 
L 666 4863 
L 1794 4863 
L 1394 2803 
Q 1622 3116 1912 3264 
Q 2203 3413 2588 3413 
Q 3200 3413 3494 2928 
Q 3688 2609 3688 2163 
Q 3688 1928 3634 1663 
Q 3481 881 3000 395 
Q 2519 -91 1906 -91 
Q 1522 -91 1289 57 
Q 1056 206 950 519 
L 850 0 
L 275 0 
L 1153 4531 
z
M 1141 1497 
Q 1091 1250 1091 1053 
Q 1091 769 1191 581 
Q 1359 269 1797 269 
Q 2238 269 2533 622 
Q 2828 975 2963 1663 
Q 3025 1978 3025 2225 
Q 3025 2513 2938 2703 
Q 2781 3053 2338 3053 
Q 1900 3053 1609 2737 
Q 1319 2422 1203 1825 
L 1141 1497 
z
" transform="scale(0.015625)"/>
      <path id="DejaVuSerif-Italic-72" d="M 3375 3328 
L 3213 2497 
L 2881 2497 
Q 2891 2559 2891 2613 
Q 2891 2775 2816 2866 
Q 2719 2988 2484 2988 
Q 2059 2988 1775 2694 
Q 1491 2400 1384 1850 
L 1025 0 
L 450 0 
L 1031 2994 
L 481 2994 
L 544 3322 
L 1669 3322 
L 1556 2731 
Q 1791 3078 2089 3245 
Q 2388 3413 2769 3413 
Q 2909 3413 3059 3391 
Q 3209 3369 3375 3328 
z
" transform="scale(0.015625)"/>
      <path id="DejaVuSerif-Italic-68" d="M 309 0 
L 1191 4531 
L 641 4531 
L 703 4863 
L 1828 4863 
L 1416 2731 
Q 1641 3069 1928 3241 
Q 2216 3413 2553 3413 
Q 3103 3413 3300 3097 
Q 3422 2906 3422 2588 
Q 3422 2378 3369 2113 
L 3022 331 
L 3534 331 
L 3472 0 
L 2381 0 
L 2756 1931 
Q 2819 2253 2819 2469 
Q 2819 2659 2769 2763 
Q 2666 2988 2284 2988 
Q 1884 2988 1617 2697 
Q 1350 2406 1244 1850 
L 884 0 
L 309 0 
z
" transform="scale(0.015625)"/>
      <path id="DejaVuSerif-Italic-73" d="M 222 959 
L 553 959 
Q 541 869 541 788 
Q 541 219 1313 219 
Q 2088 219 2200 788 
Q 2209 844 2209 944 
Q 2209 1041 2103 1158 
Q 1997 1275 1550 1428 
L 1159 1569 
Q 759 1706 629 1882 
Q 500 2059 500 2263 
Q 500 2344 516 2438 
Q 606 2894 990 3153 
Q 1375 3413 1931 3413 
Q 2484 3413 3066 3144 
L 2925 2419 
L 2594 2419 
Q 2606 2491 2606 2553 
Q 2606 2781 2448 2942 
Q 2291 3103 1925 3103 
Q 1191 3103 1091 2591 
Q 1078 2538 1078 2444 
Q 1078 2347 1179 2237 
Q 1281 2128 1678 1997 
L 2106 1856 
Q 2550 1709 2716 1488 
Q 2831 1331 2831 1178 
Q 2831 522 2306 181 
Q 1894 -91 1262 -91 
Q 631 -91 72 184 
L 222 959 
z
" transform="scale(0.015625)"/>
      <path id="DejaVuSerif-Italic-28" d="M 1472 -997 
Q 778 -656 534 83 
Q 291 822 506 1931 
Q 722 3044 1253 3783 
Q 1784 4522 2609 4863 
L 2550 4556 
Q 2006 4225 1679 3623 
Q 1353 3022 1141 1931 
Q 928 844 1020 242 
Q 1113 -359 1531 -691 
L 1472 -997 
z
" transform="scale(0.015625)"/>
      <path id="DejaVuSerif-Italic-77" d="M 3741 728 
Q 4156 1178 4250 1344 
Q 4594 1969 4931 2988 
L 4447 2984 
L 4513 3322 
L 5347 3322 
L 5281 2984 
L 5278 2984 
Q 4959 1825 4656 1266 
Q 4209 469 3719 0 
L 3241 0 
L 2900 2484 
L 1597 0 
L 1138 0 
L 734 2988 
L 359 2981 
L 425 3322 
L 1281 3322 
L 1631 728 
L 2991 3322 
L 3394 3322 
L 3741 728 
z
" transform="scale(0.015625)"/>
      <path id="Cmr10-31" d="M 594 0 
L 594 225 
Q 1394 225 1394 428 
L 1394 3788 
Q 1063 3628 556 3628 
L 556 3853 
Q 1341 3853 1741 4263 
L 1831 4263 
Q 1853 4263 1873 4245 
Q 1894 4228 1894 4206 
L 1894 428 
Q 1894 225 2694 225 
L 2694 0 
L 594 0 
z
" transform="scale(0.015625)"/>
      <path id="Cmr10-32" d="M 319 0 
L 319 172 
Q 319 188 331 206 
L 1325 1306 
Q 1550 1550 1690 1715 
Q 1831 1881 1968 2097 
Q 2106 2313 2186 2536 
Q 2266 2759 2266 3009 
Q 2266 3272 2169 3511 
Q 2072 3750 1880 3894 
Q 1688 4038 1416 4038 
Q 1138 4038 916 3870 
Q 694 3703 603 3438 
Q 628 3444 672 3444 
Q 816 3444 917 3347 
Q 1019 3250 1019 3097 
Q 1019 2950 917 2848 
Q 816 2747 672 2747 
Q 522 2747 420 2851 
Q 319 2956 319 3097 
Q 319 3338 409 3548 
Q 500 3759 670 3923 
Q 841 4088 1055 4175 
Q 1269 4263 1509 4263 
Q 1875 4263 2190 4108 
Q 2506 3953 2690 3670 
Q 2875 3388 2875 3009 
Q 2875 2731 2753 2481 
Q 2631 2231 2440 2026 
Q 2250 1822 1953 1562 
Q 1656 1303 1563 1216 
L 838 519 
L 1453 519 
Q 1906 519 2211 526 
Q 2516 534 2534 550 
Q 2609 631 2688 1141 
L 2875 1141 
L 2694 0 
L 319 0 
z
" transform="scale(0.015625)"/>
      <path id="DejaVuSerif-Italic-29" d="M -113 -997 
L -53 -691 
Q 491 -359 819 242 
Q 1147 844 1359 1931 
Q 1572 3022 1478 3623 
Q 1384 4225 966 4556 
L 1025 4863 
Q 1722 4522 1965 3783 
Q 2209 3044 1994 1931 
Q 1778 822 1247 83 
Q 716 -656 -113 -997 
z
" transform="scale(0.015625)"/>
     </defs>
     <use xlink:href="#DejaVuSerif-Italic-70" transform="translate(0 0.015625)"/>
     <use xlink:href="#DejaVuSerif-Italic-65" transform="translate(64.013672 0.015625)"/>
     <use xlink:href="#DejaVuSerif-Italic-64" transform="translate(123.193359 0.015625)"/>
     <use xlink:href="#DejaVuSerif-Italic-61" transform="translate(187.207031 0.015625)"/>
     <use xlink:href="#DejaVuSerif-Italic-67" transform="translate(246.826172 0.015625)"/>
     <use xlink:href="#DejaVuSerif-Italic-6f" transform="translate(310.839844 0.015625)"/>
     <use xlink:href="#DejaVuSerif-Italic-67" transform="translate(371.044922 0.015625)"/>
     <use xlink:href="#DejaVuSerif-Italic-69" transform="translate(435.058594 0.015625)"/>
     <use xlink:href="#DejaVuSerif-Italic-63" transform="translate(467.041016 0.015625)"/>
     <use xlink:href="#DejaVuSerif-Italic-61" transform="translate(523.046875 0.015625)"/>
     <use xlink:href="#DejaVuSerif-Italic-6c" transform="translate(582.666016 0.015625)"/>
     <use xlink:href="#DejaVuSerif-Italic-20" transform="translate(614.648438 0.015625)"/>
     <use xlink:href="#DejaVuSerif-Italic-61" transform="translate(646.435547 0.015625)"/>
     <use xlink:href="#DejaVuSerif-Italic-6e" transform="translate(706.054688 0.015625)"/>
     <use xlink:href="#DejaVuSerif-Italic-61" transform="translate(770.458984 0.015625)"/>
     <use xlink:href="#DejaVuSerif-Italic-6c" transform="translate(830.078125 0.015625)"/>
     <use xlink:href="#DejaVuSerif-Italic-6f" transform="translate(862.060547 0.015625)"/>
     <use xlink:href="#DejaVuSerif-Italic-67" transform="translate(922.265625 0.015625)"/>
     <use xlink:href="#DejaVuSerif-Italic-75" transform="translate(986.279297 0.015625)"/>
     <use xlink:href="#DejaVuSerif-Italic-65" transform="translate(1050.683594 0.015625)"/>
     <use xlink:href="#DejaVuSerif-Italic-20" transform="translate(1109.863281 0.015625)"/>
     <use xlink:href="#DejaVuSerif-Italic-6f" transform="translate(1141.650391 0.015625)"/>
     <use xlink:href="#DejaVuSerif-Italic-66" transform="translate(1201.855469 0.015625)"/>
     <use xlink:href="#DejaVuSerif-Italic-20" transform="translate(1238.867188 0.015625)"/>
     <use xlink:href="#Cmmi10-67" transform="translate(1270.654297 0.015625)"/>
     <use xlink:href="#Cmr10-28" transform="translate(1318.359375 0.015625)"/>
     <use xlink:href="#Cmmi10-69" transform="translate(1357.177734 0.015625)"/>
     <use xlink:href="#Cmmi10-3b" transform="translate(1391.601562 0.015625)"/>
     <use xlink:href="#Cmmi10-78" transform="translate(1436.845703 0.015625)"/>
     <use xlink:href="#Cmr10-29" transform="translate(1493.925781 0.015625)"/>
     <use xlink:href="#Cmr10-3d" transform="translate(1550.302734 0.015625)"/>
     <use xlink:href="#Cmmi10-69" transform="translate(1645.546875 0.015625)"/>
     <use xlink:href="#DejaVuSerif-Italic-20" transform="translate(1679.970703 0.015625)"/>
     <use xlink:href="#DejaVuSerif-Italic-20" transform="translate(1711.757812 0.015625)"/>
     <use xlink:href="#DejaVuSerif-Italic-6f" transform="translate(1743.544922 0.015625)"/>
     <use xlink:href="#DejaVuSerif-Italic-6e" transform="translate(1803.75 0.015625)"/>
     <use xlink:href="#DejaVuSerif-Italic-20" transform="translate(1868.154297 0.015625)"/>
     <use xlink:href="#DejaVuSerif-Italic-20" transform="translate(1899.941406 0.015625)"/>
     <use xlink:href="#Cmmi10-4b" transform="translate(1931.728516 0.015625)"/>
     <use xlink:href="#DejaVuSerif-Italic-20" transform="translate(2016.640625 0.015625)"/>
     <use xlink:href="#DejaVuSerif-Italic-62" transform="translate(2048.427734 0.015625)"/>
     <use xlink:href="#DejaVuSerif-Italic-72" transform="translate(2112.441406 0.015625)"/>
     <use xlink:href="#DejaVuSerif-Italic-61" transform="translate(2160.244141 0.015625)"/>
     <use xlink:href="#DejaVuSerif-Italic-6e" transform="translate(2219.863281 0.015625)"/>
     <use xlink:href="#DejaVuSerif-Italic-63" transform="translate(2284.267578 0.015625)"/>
     <use xlink:href="#DejaVuSerif-Italic-68" transform="translate(2340.273438 0.015625)"/>
     <use xlink:href="#DejaVuSerif-Italic-65" transform="translate(2404.677734 0.015625)"/>
     <use xlink:href="#DejaVuSerif-Italic-73" transform="translate(2463.857422 0.015625)"/>
     <use xlink:href="#DejaVuSerif-Italic-20" transform="translate(2515.175781 0.015625)"/>
     <use xlink:href="#DejaVuSerif-Italic-20" transform="translate(2546.962891 0.015625)"/>
     <use xlink:href="#DejaVuSerif-Italic-28" transform="translate(2578.75 0.015625)"/>
     <use xlink:href="#DejaVuSerif-Italic-73" transform="translate(2617.763672 0.015625)"/>
     <use xlink:href="#DejaVuSerif-Italic-68" transform="translate(2669.082031 0.015625)"/>
     <use xlink:href="#DejaVuSerif-Italic-6f" transform="translate(2733.486328 0.015625)"/>
     <use xlink:href="#DejaVuSerif-Italic-77" transform="translate(2793.691406 0.015625)"/>
     <use xlink:href="#DejaVuSerif-Italic-6e" transform="translate(2879.287109 0.015625)"/>
     <use xlink:href="#DejaVuSerif-Italic-20" transform="translate(2943.691406 0.015625)"/>
     <use xlink:href="#Cmmi10-4b" transform="translate(2975.478516 0.015625)"/>
     <use xlink:href="#Cmr10-3d" transform="translate(3077.949219 0.015625)"/>
     <use xlink:href="#Cmr10-31" transform="translate(3173.193359 0.015625)"/>
     <use xlink:href="#Cmr10-32" transform="translate(3223.193359 0.015625)"/>
     <use xlink:href="#DejaVuSerif-Italic-29" transform="translate(3273.193359 0.015625)"/>
    </g>
   </g>
   <g id="patch_17">
    <path d="M 299.863089 78.087072 
Q 346.032107 95.326044 390.630021 111.978384 
" style="fill: none; stroke: #cfb991; stroke-width: 1.5; stroke-linecap: round"/>
    <path d="M 386.363242 107.396399 
L 390.630021 111.978384 
L 384.404365 112.642617 
z
" style="fill: #cfb991; stroke: #cfb991; stroke-width: 1.5; stroke-linecap: round"/>
   </g>
   <g id="text_3">
    <!-- ouroboros -->
    <g style="fill: #cfb991" transform="translate(275.677553 57.593723) rotate(-8) scale(0.08 -0.08)">
     <defs>
      <path id="DejaVuSerif-62" d="M 738 331 
L 738 4531 
L 184 4531 
L 184 4863 
L 1313 4863 
L 1313 2803 
Q 1481 3116 1742 3264 
Q 2003 3413 2388 3413 
Q 3000 3413 3387 2928 
Q 3775 2444 3775 1663 
Q 3775 881 3387 395 
Q 3000 -91 2388 -91 
Q 2003 -91 1742 57 
Q 1481 206 1313 519 
L 1313 0 
L 184 0 
L 184 331 
L 738 331 
z
M 1313 1497 
Q 1313 897 1542 583 
Q 1772 269 2209 269 
Q 2650 269 2876 622 
Q 3103 975 3103 1663 
Q 3103 2353 2876 2703 
Q 2650 3053 2209 3053 
Q 1772 3053 1542 2737 
Q 1313 2422 1313 1825 
L 1313 1497 
z
" transform="scale(0.015625)"/>
     </defs>
     <use xlink:href="#DejaVuSerif-6f"/>
     <use xlink:href="#DejaVuSerif-75" transform="translate(60.205078 0)"/>
     <use xlink:href="#DejaVuSerif-72" transform="translate(124.609375 0)"/>
     <use xlink:href="#DejaVuSerif-6f" transform="translate(172.412109 0)"/>
     <use xlink:href="#DejaVuSerif-62" transform="translate(232.617188 0)"/>
     <use xlink:href="#DejaVuSerif-6f" transform="translate(296.630859 0)"/>
     <use xlink:href="#DejaVuSerif-72" transform="translate(356.835938 0)"/>
     <use xlink:href="#DejaVuSerif-6f" transform="translate(404.638672 0)"/>
     <use xlink:href="#DejaVuSerif-73" transform="translate(464.84375 0)"/>
    </g>
   </g>
   <g id="text_4">
    <!-- C -->
    <g style="fill: #f2f2f2" transform="translate(315.888086 158.189469) scale(0.085 -0.085)">
     <use xlink:href="#DejaVuSerif-43"/>
    </g>
   </g>
   <g id="text_5">
    <!-- G -->
    <g style="fill: #f2f2f2" transform="translate(397.392648 180.066984) scale(0.085 -0.085)">
     <defs>
      <path id="DejaVuSerif-47" d="M 4097 3272 
Q 3988 3856 3641 4136 
Q 3294 4416 2675 4416 
Q 1869 4416 1472 3897 
Q 1075 3378 1075 2328 
Q 1075 1300 1484 772 
Q 1894 244 2688 244 
Q 3041 244 3362 331 
Q 3684 419 3975 594 
L 3975 1797 
L 3097 1797 
L 3097 2131 
L 4609 2131 
L 4609 391 
Q 4194 150 3714 29 
Q 3234 -91 2688 -91 
Q 1631 -91 995 570 
Q 359 1231 359 2328 
Q 359 3434 996 4092 
Q 1634 4750 2713 4750 
Q 3113 4750 3539 4658 
Q 3966 4566 4447 4378 
L 4447 3272 
L 4097 3272 
z
" transform="scale(0.015625)"/>
     </defs>
     <use xlink:href="#DejaVuSerif-47"/>
    </g>
   </g>
   <g id="text_6">
    <!-- D -->
    <g style="fill: #f2f2f2" transform="translate(457.15118 239.837469) scale(0.085 -0.085)">
     <defs>
      <path id="DejaVuSerif-44" d="M 1581 331 
L 2163 331 
Q 3072 331 3558 850 
Q 4044 1369 4044 2338 
Q 4044 3306 3559 3818 
Q 3075 4331 2163 4331 
L 1581 4331 
L 1581 331 
z
M 353 0 
L 353 331 
L 947 331 
L 947 4331 
L 353 4331 
L 353 4666 
L 2209 4666 
Q 3416 4666 4089 4050 
Q 4763 3434 4763 2338 
Q 4763 1238 4088 619 
Q 3413 0 2209 0 
L 353 0 
z
" transform="scale(0.015625)"/>
     </defs>
     <use xlink:href="#DejaVuSerif-44"/>
    </g>
   </g>
   <g id="text_7">
    <!-- A -->
    <g style="fill: #f2f2f2" transform="translate(479.366703 321.485469) scale(0.085 -0.085)">
     <defs>
      <path id="DejaVuSerif-41" d="M 1281 1691 
L 2994 1691 
L 2138 3909 
L 1281 1691 
z
M -38 0 
L -38 331 
L 372 331 
L 2034 4666 
L 2559 4666 
L 4225 331 
L 4684 331 
L 4684 0 
L 2988 0 
L 2988 331 
L 3506 331 
L 3116 1356 
L 1153 1356 
L 763 331 
L 1275 331 
L 1275 0 
L -38 0 
z
" transform="scale(0.015625)"/>
     </defs>
     <use xlink:href="#DejaVuSerif-41"/>
    </g>
   </g>
   <g id="text_8">
    <!-- E -->
    <g style="fill: #f2f2f2" transform="translate(457.455984 403.133469) scale(0.085 -0.085)">
     <defs>
      <path id="DejaVuSerif-45" d="M 353 0 
L 353 331 
L 947 331 
L 947 4331 
L 353 4331 
L 353 4666 
L 4109 4666 
L 4109 3628 
L 3725 3628 
L 3725 4281 
L 1581 4281 
L 1581 2719 
L 3109 2719 
L 3109 3303 
L 3494 3303 
L 3494 1753 
L 3109 1753 
L 3109 2338 
L 1581 2338 
L 1581 384 
L 3775 384 
L 3775 1038 
L 4159 1038 
L 4159 0 
L 353 0 
z
" transform="scale(0.015625)"/>
     </defs>
     <use xlink:href="#DejaVuSerif-45"/>
    </g>
   </g>
   <g id="text_9">
    <!-- B -->
    <g style="fill: #f2f2f2" transform="translate(397.664914 462.903953) scale(0.085 -0.085)">
     <defs>
      <path id="DejaVuSerif-42" d="M 1581 331 
L 2516 331 
Q 3078 331 3337 575 
Q 3597 819 3597 1350 
Q 3597 1878 3339 2120 
Q 3081 2363 2516 2363 
L 1581 2363 
L 1581 331 
z
M 1581 2694 
L 2375 2694 
Q 2888 2694 3123 2891 
Q 3359 3088 3359 3513 
Q 3359 3941 3123 4136 
Q 2888 4331 2375 4331 
L 1581 4331 
L 1581 2694 
z
M 353 0 
L 353 331 
L 947 331 
L 947 4331 
L 353 4331 
L 353 4666 
L 2656 4666 
Q 3363 4666 3720 4377 
Q 4078 4088 4078 3513 
Q 4078 3097 3829 2850 
Q 3581 2603 3103 2547 
Q 3697 2472 4005 2167 
Q 4313 1863 4313 1350 
Q 4313 656 3875 328 
Q 3438 0 2509 0 
L 353 0 
z
" transform="scale(0.015625)"/>
     </defs>
     <use xlink:href="#DejaVuSerif-42"/>
    </g>
   </g>
   <g id="text_10">
    <!-- F# -->
    <g style="fill: #f2f2f2" transform="translate(312.629531 484.781469) scale(0.085 -0.085)">
     <defs>
      <path id="DejaVuSerif-46" d="M 353 0 
L 353 331 
L 947 331 
L 947 4331 
L 353 4331 
L 353 4666 
L 4172 4666 
L 4172 3628 
L 3788 3628 
L 3788 4281 
L 1581 4281 
L 1581 2719 
L 3175 2719 
L 3175 3303 
L 3559 3303 
L 3559 1753 
L 3175 1753 
L 3175 2338 
L 1581 2338 
L 1581 331 
L 2328 331 
L 2328 0 
L 353 0 
z
" transform="scale(0.015625)"/>
      <path id="DejaVuSerif-23" d="M 3256 2816 
L 2375 2816 
L 2113 1772 
L 3003 1772 
L 3256 2816 
z
M 2816 4594 
L 2497 3297 
L 3378 3297 
L 3700 4594 
L 4238 4594 
L 3909 3297 
L 4872 3297 
L 4872 2816 
L 3788 2816 
L 3531 1772 
L 4513 1772 
L 4513 1294 
L 3413 1294 
L 3091 0 
L 2553 0 
L 2881 1294 
L 1997 1294 
L 1672 0 
L 1141 0 
L 1459 1294 
L 494 1294 
L 494 1772 
L 1581 1772 
L 1838 2816 
L 850 2816 
L 850 3297 
L 1959 3297 
L 2284 4594 
L 2816 4594 
z
" transform="scale(0.015625)"/>
     </defs>
     <use xlink:href="#DejaVuSerif-46"/>
     <use xlink:href="#DejaVuSerif-23" transform="translate(69.384766 0)"/>
    </g>
   </g>
   <g id="text_11">
    <!-- Db -->
    <g style="fill: #f2f2f2" transform="translate(231.364031 462.903953) scale(0.085 -0.085)">
     <use xlink:href="#DejaVuSerif-44"/>
     <use xlink:href="#DejaVuSerif-62" transform="translate(80.175781 0)"/>
    </g>
   </g>
   <g id="text_12">
    <!-- Ab -->
    <g style="fill: #f2f2f2" transform="translate(171.931555 403.133469) scale(0.085 -0.085)">
     <use xlink:href="#DejaVuSerif-41"/>
     <use xlink:href="#DejaVuSerif-62" transform="translate(72.216797 0)"/>
    </g>
   </g>
   <g id="text_13">
    <!-- Eb -->
    <g style="fill: #f2f2f2" transform="translate(150.020836 321.485469) scale(0.085 -0.085)">
     <use xlink:href="#DejaVuSerif-45"/>
     <use xlink:href="#DejaVuSerif-62" transform="translate(72.998047 0)"/>
    </g>
   </g>
   <g id="text_14">
    <!-- Bb -->
    <g style="fill: #f2f2f2" transform="translate(171.877766 239.837469) scale(0.085 -0.085)">
     <use xlink:href="#DejaVuSerif-42"/>
     <use xlink:href="#DejaVuSerif-62" transform="translate(73.486328 0)"/>
    </g>
   </g>
   <g id="text_15">
    <!-- F -->
    <g style="fill: #f2f2f2" transform="translate(234.542898 180.066984) scale(0.085 -0.085)">
     <use xlink:href="#DejaVuSerif-46"/>
    </g>
   </g>
   <g id="text_16">
    <!-- $g$ -->
    <g style="fill: #f2f2f2" transform="translate(315.3 309.9145) scale(0.16 -0.16)">
     <use xlink:href="#Cmmi10-67" transform="translate(0 0.8125)"/>
    </g>
   </g>
   <g id="text_17">
    <!-- then -->
    <g style="fill: #8a8a8a" transform="translate(310.0125 344.0275) scale(0.08 -0.08)">
     <defs>
      <path id="DejaVuSerif-Italic-74" d="M 856 2988 
L 350 2988 
L 416 3322 
L 922 3322 
L 1122 4353 
L 1700 4353 
L 1500 3322 
L 2581 3322 
L 2516 2988 
L 1434 2988 
L 1025 878 
Q 978 631 978 488 
Q 978 388 1000 338 
Q 1059 219 1278 219 
Q 1503 219 1633 351 
Q 1763 484 1825 781 
L 2259 781 
Q 2147 328 1884 118 
Q 1622 -91 1169 -91 
Q 672 -91 506 131 
Q 406 266 406 516 
Q 406 675 447 878 
L 856 2988 
z
" transform="scale(0.015625)"/>
     </defs>
     <use xlink:href="#DejaVuSerif-Italic-74"/>
     <use xlink:href="#DejaVuSerif-Italic-68" transform="translate(40.185547 0)"/>
     <use xlink:href="#DejaVuSerif-Italic-65" transform="translate(104.589844 0)"/>
     <use xlink:href="#DejaVuSerif-Italic-6e" transform="translate(163.769531 0)"/>
    </g>
   </g>
   <g id="text_18">
    <!-- $b_i$ -->
    <g style="fill: #cfb991" transform="translate(314.7 367.81125) scale(0.12 -0.12)">
     <defs>
      <path id="Cmmi10-62" d="M 1106 -72 
Q 719 -72 503 231 
Q 288 534 288 941 
Q 288 1000 317 1173 
Q 347 1347 347 1388 
L 966 3872 
Q 991 3981 997 4044 
Q 997 4147 581 4147 
Q 519 4147 519 4231 
Q 522 4247 533 4287 
Q 544 4328 561 4350 
Q 578 4372 609 4372 
L 1472 4441 
Q 1550 4441 1550 4359 
L 1075 2472 
Q 1438 2828 1806 2828 
Q 2078 2828 2273 2684 
Q 2469 2541 2566 2306 
Q 2663 2072 2663 1806 
Q 2663 1497 2542 1167 
Q 2422 838 2209 555 
Q 1997 272 1712 100 
Q 1428 -72 1106 -72 
z
M 1119 97 
Q 1338 97 1528 280 
Q 1719 463 1838 691 
Q 1966 947 2077 1386 
Q 2188 1825 2188 2088 
Q 2188 2316 2092 2489 
Q 1997 2663 1791 2663 
Q 1559 2663 1348 2492 
Q 1138 2322 978 2088 
L 800 1363 
Q 697 959 691 716 
Q 691 475 795 286 
Q 900 97 1119 97 
z
" transform="scale(0.015625)"/>
     </defs>
     <use xlink:href="#Cmmi10-62" transform="translate(0 0.609375)"/>
     <use xlink:href="#Cmmi10-69" transform="translate(42.919922 -16.396875) scale(0.7)"/>
    </g>
   </g>
   <g id="patch_18">
    <path d="M 442.291741 573.118568 
Q 421.644206 376.414025 401.101715 180.710214 
" style="fill: none; stroke: #8a8a8a; stroke-width: 0.9; stroke-linecap: round"/>
    <path d="M 399.687368 184.478453 
L 401.101715 180.710214 
L 403.267698 184.102635 
" style="fill: none; stroke: #8a8a8a; stroke-width: 0.9; stroke-linecap: round"/>
   </g>
   <g id="text_19">
    <g id="patch_19">
     <path d="M 378.127266 600.857719 
L 509.632734 600.857719 
L 509.632734 575.513437 
L 378.127266 575.513437 
z
" style="stroke: #3a3a3a; stroke-width: 0.8; stroke-linejoin: miter"/>
    </g>
    <!-- adaptive: name the degree, -->
    <g style="fill: #d0d0d0" transform="translate(381.277266 585.63) scale(0.09 -0.09)">
     <defs>
      <path id="DejaVuSerif-70" d="M 1313 1825 
L 1313 1497 
Q 1313 897 1542 583 
Q 1772 269 2209 269 
Q 2650 269 2876 622 
Q 3103 975 3103 1663 
Q 3103 2353 2876 2703 
Q 2650 3053 2209 3053 
Q 1772 3053 1542 2737 
Q 1313 2422 1313 1825 
z
M 738 2988 
L 184 2988 
L 184 3322 
L 1313 3322 
L 1313 2803 
Q 1481 3116 1742 3264 
Q 2003 3413 2388 3413 
Q 3000 3413 3387 2928 
Q 3775 2444 3775 1663 
Q 3775 881 3387 395 
Q 3000 -91 2388 -91 
Q 2003 -91 1742 57 
Q 1481 206 1313 519 
L 1313 -997 
L 1856 -997 
L 1856 -1331 
L 184 -1331 
L 184 -997 
L 738 -997 
L 738 2988 
z
" transform="scale(0.015625)"/>
      <path id="DejaVuSerif-76" d="M 1581 0 
L 359 2988 
L -19 2988 
L -19 3322 
L 1509 3322 
L 1509 2988 
L 978 2988 
L 1913 703 
L 2847 2988 
L 2350 2988 
L 2350 3322 
L 3597 3322 
L 3597 2988 
L 3225 2988 
L 2003 0 
L 1581 0 
z
" transform="scale(0.015625)"/>
      <path id="DejaVuSerif-3a" d="M 666 325 
Q 666 500 786 622 
Q 906 744 1081 744 
Q 1256 744 1376 622 
Q 1497 500 1497 325 
Q 1497 150 1378 29 
Q 1259 -91 1081 -91 
Q 903 -91 784 29 
Q 666 150 666 325 
z
M 666 2363 
Q 666 2538 786 2658 
Q 906 2778 1081 2778 
Q 1259 2778 1378 2659 
Q 1497 2541 1497 2363 
Q 1497 2184 1378 2065 
Q 1259 1947 1081 1947 
Q 906 1947 786 2067 
Q 666 2188 666 2363 
z
" transform="scale(0.015625)"/>
      <path id="DejaVuSerif-6d" d="M 3316 2675 
Q 3481 3041 3739 3227 
Q 3997 3413 4341 3413 
Q 4863 3413 5119 3089 
Q 5375 2766 5375 2113 
L 5375 331 
L 5894 331 
L 5894 0 
L 4300 0 
L 4300 331 
L 4800 331 
L 4800 2047 
Q 4800 2556 4650 2772 
Q 4500 2988 4153 2988 
Q 3769 2988 3567 2697 
Q 3366 2406 3366 1850 
L 3366 331 
L 3866 331 
L 3866 0 
L 2291 0 
L 2291 331 
L 2791 331 
L 2791 2069 
Q 2791 2566 2641 2777 
Q 2491 2988 2144 2988 
Q 1759 2988 1557 2697 
Q 1356 2406 1356 1850 
L 1356 331 
L 1856 331 
L 1856 0 
L 263 0 
L 263 331 
L 781 331 
L 781 2994 
L 231 2994 
L 231 3322 
L 1356 3322 
L 1356 2731 
Q 1516 3063 1762 3238 
Q 2009 3413 2322 3413 
Q 2709 3413 2968 3220 
Q 3228 3028 3316 2675 
z
" transform="scale(0.015625)"/>
      <path id="DejaVuSerif-68" d="M 263 0 
L 263 331 
L 781 331 
L 781 4531 
L 231 4531 
L 231 4863 
L 1356 4863 
L 1356 2731 
Q 1516 3069 1770 3241 
Q 2025 3413 2363 3413 
Q 2913 3413 3172 3097 
Q 3431 2781 3431 2113 
L 3431 331 
L 3944 331 
L 3944 0 
L 2356 0 
L 2356 331 
L 2853 331 
L 2853 1931 
Q 2853 2541 2704 2764 
Q 2556 2988 2175 2988 
Q 1775 2988 1565 2697 
Q 1356 2406 1356 1850 
L 1356 331 
L 1856 331 
L 1856 0 
L 263 0 
z
" transform="scale(0.015625)"/>
      <path id="DejaVuSerif-2c" d="M 231 -622 
Q 525 -406 662 -114 
Q 800 178 800 594 
L 800 709 
L 1416 709 
Q 1391 175 1164 -208 
Q 938 -591 481 -872 
L 231 -622 
z
" transform="scale(0.015625)"/>
     </defs>
     <use xlink:href="#DejaVuSerif-61"/>
     <use xlink:href="#DejaVuSerif-64" transform="translate(59.619141 0)"/>
     <use xlink:href="#DejaVuSerif-61" transform="translate(123.632812 0)"/>
     <use xlink:href="#DejaVuSerif-70" transform="translate(183.251953 0)"/>
     <use xlink:href="#DejaVuSerif-74" transform="translate(247.265625 0)"/>
     <use xlink:href="#DejaVuSerif-69" transform="translate(287.451172 0)"/>
     <use xlink:href="#DejaVuSerif-76" transform="translate(319.433594 0)"/>
     <use xlink:href="#DejaVuSerif-65" transform="translate(375.927734 0)"/>
     <use xlink:href="#DejaVuSerif-3a" transform="translate(435.107422 0)"/>
     <use xlink:href="#DejaVuSerif-20" transform="translate(468.798828 0)"/>
     <use xlink:href="#DejaVuSerif-6e" transform="translate(500.585938 0)"/>
     <use xlink:href="#DejaVuSerif-61" transform="translate(564.990234 0)"/>
     <use xlink:href="#DejaVuSerif-6d" transform="translate(624.609375 0)"/>
     <use xlink:href="#DejaVuSerif-65" transform="translate(719.433594 0)"/>
     <use xlink:href="#DejaVuSerif-20" transform="translate(778.613281 0)"/>
     <use xlink:href="#DejaVuSerif-74" transform="translate(810.400391 0)"/>
     <use xlink:href="#DejaVuSerif-68" transform="translate(850.585938 0)"/>
     <use xlink:href="#DejaVuSerif-65" transform="translate(914.990234 0)"/>
     <use xlink:href="#DejaVuSerif-20" transform="translate(974.169922 0)"/>
     <use xlink:href="#DejaVuSerif-64" transform="translate(1005.957031 0)"/>
     <use xlink:href="#DejaVuSerif-65" transform="translate(1069.970703 0)"/>
     <use xlink:href="#DejaVuSerif-67" transform="translate(1129.150391 0)"/>
     <use xlink:href="#DejaVuSerif-72" transform="translate(1193.164062 0)"/>
     <use xlink:href="#DejaVuSerif-65" transform="translate(1240.966797 0)"/>
     <use xlink:href="#DejaVuSerif-65" transform="translate(1300.146484 0)"/>
     <use xlink:href="#DejaVuSerif-2c" transform="translate(1359.326172 0)"/>
    </g>
    <!-- then sound the local bit -->
    <g style="fill: #d0d0d0" transform="translate(389.906016 595.836) scale(0.09 -0.09)">
     <use xlink:href="#DejaVuSerif-74"/>
     <use xlink:href="#DejaVuSerif-68" transform="translate(40.185547 0)"/>
     <use xlink:href="#DejaVuSerif-65" transform="translate(104.589844 0)"/>
     <use xlink:href="#DejaVuSerif-6e" transform="translate(163.769531 0)"/>
     <use xlink:href="#DejaVuSerif-20" transform="translate(228.173828 0)"/>
     <use xlink:href="#DejaVuSerif-73" transform="translate(259.960938 0)"/>
     <use xlink:href="#DejaVuSerif-6f" transform="translate(311.279297 0)"/>
     <use xlink:href="#DejaVuSerif-75" transform="translate(371.484375 0)"/>
     <use xlink:href="#DejaVuSerif-6e" transform="translate(435.888672 0)"/>
     <use xlink:href="#DejaVuSerif-64" transform="translate(500.292969 0)"/>
     <use xlink:href="#DejaVuSerif-20" transform="translate(564.306641 0)"/>
     <use xlink:href="#DejaVuSerif-74" transform="translate(596.09375 0)"/>
     <use xlink:href="#DejaVuSerif-68" transform="translate(636.279297 0)"/>
     <use xlink:href="#DejaVuSerif-65" transform="translate(700.683594 0)"/>
     <use xlink:href="#DejaVuSerif-20" transform="translate(759.863281 0)"/>
     <use xlink:href="#DejaVuSerif-6c" transform="translate(791.650391 0)"/>
     <use xlink:href="#DejaVuSerif-6f" transform="translate(823.632812 0)"/>
     <use xlink:href="#DejaVuSerif-63" transform="translate(883.837891 0)"/>
     <use xlink:href="#DejaVuSerif-61" transform="translate(939.84375 0)"/>
     <use xlink:href="#DejaVuSerif-6c" transform="translate(999.462891 0)"/>
     <use xlink:href="#DejaVuSerif-20" transform="translate(1031.445312 0)"/>
     <use xlink:href="#DejaVuSerif-62" transform="translate(1063.232422 0)"/>
     <use xlink:href="#DejaVuSerif-69" transform="translate(1127.246094 0)"/>
     <use xlink:href="#DejaVuSerif-74" transform="translate(1159.228516 0)"/>
    </g>
   </g>
   <g id="text_20">
    <!-- nonadaptive budget 2: any fixed pair covers mass $1/K$  ·  $D^{\mathrm{na}}=1/K$  ·  $D^{\mathrm{ad}}=1$ -->
    <g style="fill: #8a8a8a" transform="translate(145.215 632.124) scale(0.09 -0.09)">
     <defs>
      <path id="DejaVuSerif-32" d="M 819 3553 
L 469 3553 
L 469 4384 
Q 803 4563 1142 4656 
Q 1481 4750 1806 4750 
Q 2534 4750 2956 4397 
Q 3378 4044 3378 3438 
Q 3378 2753 2422 1800 
Q 2347 1728 2309 1691 
L 1131 513 
L 3078 513 
L 3078 1088 
L 3444 1088 
L 3444 0 
L 434 0 
L 434 341 
L 1850 1753 
Q 2319 2222 2519 2614 
Q 2719 3006 2719 3438 
Q 2719 3909 2473 4175 
Q 2228 4441 1797 4441 
Q 1350 4441 1106 4219 
Q 863 3997 819 3553 
z
" transform="scale(0.015625)"/>
      <path id="DejaVuSerif-66" d="M 2753 4078 
L 2450 4078 
Q 2447 4313 2317 4434 
Q 2188 4556 1941 4556 
Q 1619 4556 1487 4379 
Q 1356 4203 1356 3750 
L 1356 3322 
L 2284 3322 
L 2284 2988 
L 1356 2988 
L 1356 331 
L 2094 331 
L 2094 0 
L 231 0 
L 231 331 
L 781 331 
L 781 2988 
L 231 2988 
L 231 3322 
L 781 3322 
L 781 3738 
Q 781 4294 1070 4578 
Q 1359 4863 1919 4863 
Q 2128 4863 2337 4825 
Q 2547 4788 2753 4709 
L 2753 4078 
z
" transform="scale(0.015625)"/>
      <path id="DejaVuSerif-78" d="M 1863 2028 
L 2559 2988 
L 2113 2988 
L 2113 3322 
L 3391 3322 
L 3391 2988 
L 2950 2988 
L 2059 1759 
L 3097 331 
L 3531 331 
L 3531 0 
L 1997 0 
L 1997 331 
L 2419 331 
L 1697 1325 
L 972 331 
L 1403 331 
L 1403 0 
L 141 0 
L 141 331 
L 581 331 
L 1497 1594 
L 488 2988 
L 78 2988 
L 78 3322 
L 1563 3322 
L 1563 2988 
L 1166 2988 
L 1863 2028 
z
" transform="scale(0.015625)"/>
      <path id="Cmmi10-3d" d="M 359 -1472 
Q 359 -1453 366 -1447 
L 2591 4722 
Q 2603 4759 2634 4779 
Q 2666 4800 2706 4800 
Q 2763 4800 2798 4765 
Q 2834 4731 2834 4672 
L 2834 4647 
L 609 -1522 
Q 572 -1600 488 -1600 
Q 434 -1600 396 -1562 
Q 359 -1525 359 -1472 
z
" transform="scale(0.015625)"/>
      <path id="Cmmi10-44" d="M 313 0 
Q 250 0 250 84 
Q 253 100 262 139 
Q 272 178 289 201 
Q 306 225 331 225 
Q 722 225 878 269 
Q 959 297 997 441 
L 1875 3956 
Q 1888 4019 1888 4044 
Q 1888 4113 1813 4122 
Q 1691 4147 1350 4147 
Q 1288 4147 1288 4231 
Q 1291 4247 1300 4286 
Q 1309 4325 1326 4348 
Q 1344 4372 1369 4372 
L 3669 4372 
Q 4116 4372 4450 4155 
Q 4784 3938 4962 3570 
Q 5141 3203 5141 2759 
Q 5141 2269 4937 1778 
Q 4734 1288 4368 881 
Q 4003 475 3534 237 
Q 3066 0 2572 0 
L 313 0 
z
M 1509 275 
Q 1509 225 1728 225 
L 2472 225 
Q 2828 225 3159 372 
Q 3491 519 3750 775 
Q 3991 1016 4175 1406 
Q 4359 1797 4461 2222 
Q 4563 2647 4563 3003 
Q 4563 3263 4486 3472 
Q 4409 3681 4270 3831 
Q 4131 3981 3922 4064 
Q 3713 4147 3450 4147 
L 2747 4147 
Q 2572 4147 2515 4117 
Q 2459 4088 2413 3928 
L 1538 416 
Q 1509 338 1509 275 
z
" transform="scale(0.015625)"/>
      <path id="Cmr10-6e" d="M 191 0 
L 191 225 
Q 409 225 550 259 
Q 691 294 691 428 
L 691 2175 
Q 691 2347 639 2423 
Q 588 2500 491 2517 
Q 394 2534 191 2534 
L 191 2759 
L 1119 2828 
L 1119 2203 
Q 1247 2478 1498 2653 
Q 1750 2828 2047 2828 
Q 2491 2828 2714 2615 
Q 2938 2403 2938 1966 
L 2938 428 
Q 2938 294 3078 259 
Q 3219 225 3438 225 
L 3438 0 
L 1972 0 
L 1972 225 
Q 2191 225 2331 259 
Q 2472 294 2472 428 
L 2472 1947 
Q 2472 2259 2381 2461 
Q 2291 2663 2009 2663 
Q 1638 2663 1398 2366 
Q 1159 2069 1159 1691 
L 1159 428 
Q 1159 294 1300 259 
Q 1441 225 1656 225 
L 1656 0 
L 191 0 
z
" transform="scale(0.015625)"/>
      <path id="Cmr10-61" d="M 256 628 
Q 256 1009 556 1248 
Q 856 1488 1276 1586 
Q 1697 1684 2075 1684 
L 2075 1947 
Q 2075 2131 1994 2304 
Q 1913 2478 1759 2589 
Q 1606 2700 1422 2700 
Q 997 2700 775 2509 
Q 897 2509 976 2417 
Q 1056 2325 1056 2203 
Q 1056 2075 965 1984 
Q 875 1894 750 1894 
Q 622 1894 531 1984 
Q 441 2075 441 2203 
Q 441 2541 747 2705 
Q 1053 2869 1422 2869 
Q 1681 2869 1943 2758 
Q 2206 2647 2373 2440 
Q 2541 2234 2541 1959 
L 2541 519 
Q 2541 394 2594 289 
Q 2647 184 2759 184 
Q 2866 184 2917 290 
Q 2969 397 2969 519 
L 2969 928 
L 3156 928 
L 3156 519 
Q 3156 375 3081 245 
Q 3006 116 2879 39 
Q 2753 -38 2606 -38 
Q 2419 -38 2283 107 
Q 2147 253 2131 453 
Q 2013 213 1781 70 
Q 1550 -72 1288 -72 
Q 1044 -72 808 0 
Q 572 72 414 226 
Q 256 381 256 628 
z
M 775 628 
Q 775 403 940 250 
Q 1106 97 1331 97 
Q 1538 97 1706 200 
Q 1875 303 1975 481 
Q 2075 659 2075 856 
L 2075 1522 
Q 1784 1522 1479 1426 
Q 1175 1331 975 1128 
Q 775 925 775 628 
z
" transform="scale(0.015625)"/>
      <path id="Cmr10-64" d="M 1563 -72 
Q 1184 -72 871 133 
Q 559 338 386 672 
Q 213 1006 213 1381 
Q 213 1769 402 2101 
Q 591 2434 916 2631 
Q 1241 2828 1631 2828 
Q 1866 2828 2075 2729 
Q 2284 2631 2438 2456 
L 2438 3788 
Q 2438 3959 2386 4036 
Q 2334 4113 2239 4130 
Q 2144 4147 1941 4147 
L 1941 4372 
L 2888 4441 
L 2888 581 
Q 2888 413 2939 336 
Q 2991 259 3086 242 
Q 3181 225 3384 225 
L 3384 0 
L 2419 -72 
L 2419 331 
Q 2253 141 2025 34 
Q 1797 -72 1563 -72 
z
M 909 556 
Q 1019 347 1201 222 
Q 1384 97 1600 97 
Q 1866 97 2087 250 
Q 2309 403 2419 647 
L 2419 2181 
Q 2344 2322 2230 2433 
Q 2116 2544 1973 2603 
Q 1831 2663 1672 2663 
Q 1338 2663 1134 2473 
Q 931 2284 850 1990 
Q 769 1697 769 1375 
Q 769 1119 795 928 
Q 822 738 909 556 
z
" transform="scale(0.015625)"/>
     </defs>
     <use xlink:href="#DejaVuSerif-6e" transform="translate(0 0.1625)"/>
     <use xlink:href="#DejaVuSerif-6f" transform="translate(64.404297 0.1625)"/>
     <use xlink:href="#DejaVuSerif-6e" transform="translate(124.609375 0.1625)"/>
     <use xlink:href="#DejaVuSerif-61" transform="translate(189.013672 0.1625)"/>
     <use xlink:href="#DejaVuSerif-64" transform="translate(248.632812 0.1625)"/>
     <use xlink:href="#DejaVuSerif-61" transform="translate(312.646484 0.1625)"/>
     <use xlink:href="#DejaVuSerif-70" transform="translate(372.265625 0.1625)"/>
     <use xlink:href="#DejaVuSerif-74" transform="translate(436.279297 0.1625)"/>
     <use xlink:href="#DejaVuSerif-69" transform="translate(476.464844 0.1625)"/>
     <use xlink:href="#DejaVuSerif-76" transform="translate(508.447266 0.1625)"/>
     <use xlink:href="#DejaVuSerif-65" transform="translate(564.941406 0.1625)"/>
     <use xlink:href="#DejaVuSerif-20" transform="translate(624.121094 0.1625)"/>
     <use xlink:href="#DejaVuSerif-62" transform="translate(655.908203 0.1625)"/>
     <use xlink:href="#DejaVuSerif-75" transform="translate(719.921875 0.1625)"/>
     <use xlink:href="#DejaVuSerif-64" transform="translate(784.326172 0.1625)"/>
     <use xlink:href="#DejaVuSerif-67" transform="translate(848.339844 0.1625)"/>
     <use xlink:href="#DejaVuSerif-65" transform="translate(912.353516 0.1625)"/>
     <use xlink:href="#DejaVuSerif-74" transform="translate(971.533203 0.1625)"/>
     <use xlink:href="#DejaVuSerif-20" transform="translate(1011.71875 0.1625)"/>
     <use xlink:href="#DejaVuSerif-32" transform="translate(1043.505859 0.1625)"/>
     <use xlink:href="#DejaVuSerif-3a" transform="translate(1107.128906 0.1625)"/>
     <use xlink:href="#DejaVuSerif-20" transform="translate(1140.820312 0.1625)"/>
     <use xlink:href="#DejaVuSerif-61" transform="translate(1172.607422 0.1625)"/>
     <use xlink:href="#DejaVuSerif-6e" transform="translate(1232.226562 0.1625)"/>
     <use xlink:href="#DejaVuSerif-79" transform="translate(1296.630859 0.1625)"/>
     <use xlink:href="#DejaVuSerif-20" transform="translate(1353.125 0.1625)"/>
     <use xlink:href="#DejaVuSerif-66" transform="translate(1384.912109 0.1625)"/>
     <use xlink:href="#DejaVuSerif-69" transform="translate(1421.923828 0.1625)"/>
     <use xlink:href="#DejaVuSerif-78" transform="translate(1453.90625 0.1625)"/>
     <use xlink:href="#DejaVuSerif-65" transform="translate(1510.302734 0.1625)"/>
     <use xlink:href="#DejaVuSerif-64" transform="translate(1569.482422 0.1625)"/>
     <use xlink:href="#DejaVuSerif-20" transform="translate(1633.496094 0.1625)"/>
     <use xlink:href="#DejaVuSerif-70" transform="translate(1665.283203 0.1625)"/>
     <use xlink:href="#DejaVuSerif-61" transform="translate(1729.296875 0.1625)"/>
     <use xlink:href="#DejaVuSerif-69" transform="translate(1788.916016 0.1625)"/>
     <use xlink:href="#DejaVuSerif-72" transform="translate(1820.898438 0.1625)"/>
     <use xlink:href="#DejaVuSerif-20" transform="translate(1868.701172 0.1625)"/>
     <use xlink:href="#DejaVuSerif-63" transform="translate(1900.488281 0.1625)"/>
     <use xlink:href="#DejaVuSerif-6f" transform="translate(1956.494141 0.1625)"/>
     <use xlink:href="#DejaVuSerif-76" transform="translate(2016.699219 0.1625)"/>
     <use xlink:href="#DejaVuSerif-65" transform="translate(2073.193359 0.1625)"/>
     <use xlink:href="#DejaVuSerif-72" transform="translate(2132.373047 0.1625)"/>
     <use xlink:href="#DejaVuSerif-73" transform="translate(2180.175781 0.1625)"/>
     <use xlink:href="#DejaVuSerif-20" transform="translate(2231.494141 0.1625)"/>
     <use xlink:href="#DejaVuSerif-6d" transform="translate(2263.28125 0.1625)"/>
     <use xlink:href="#DejaVuSerif-61" transform="translate(2358.105469 0.1625)"/>
     <use xlink:href="#DejaVuSerif-73" transform="translate(2417.724609 0.1625)"/>
     <use xlink:href="#DejaVuSerif-73" transform="translate(2469.042969 0.1625)"/>
     <use xlink:href="#DejaVuSerif-20" transform="translate(2520.361328 0.1625)"/>
     <use xlink:href="#Cmr10-31" transform="translate(2552.148438 0.1625)"/>
     <use xlink:href="#Cmmi10-3d" transform="translate(2602.148438 0.1625)"/>
     <use xlink:href="#Cmmi10-4b" transform="translate(2652.148438 0.1625)"/>
     <use xlink:href="#DejaVuSerif-20" transform="translate(2737.060547 0.1625)"/>
     <use xlink:href="#DejaVuSerif-20" transform="translate(2768.847656 0.1625)"/>
     <use xlink:href="#DejaVuSerif-b7" transform="translate(2800.634766 0.1625)"/>
     <use xlink:href="#DejaVuSerif-20" transform="translate(2832.421875 0.1625)"/>
     <use xlink:href="#DejaVuSerif-20" transform="translate(2864.208984 0.1625)"/>
     <use xlink:href="#Cmmi10-44" transform="translate(2895.996094 0.1625)"/>
     <use xlink:href="#Cmr10-6e" transform="translate(2990.080469 38.426562) scale(0.7)"/>
     <use xlink:href="#Cmr10-61" transform="translate(3028.942773 38.426562) scale(0.7)"/>
     <use xlink:href="#Cmr10-3d" transform="translate(3087.878711 0.1625)"/>
     <use xlink:href="#Cmr10-31" transform="translate(3183.122852 0.1625)"/>
     <use xlink:href="#Cmmi10-3d" transform="translate(3233.122852 0.1625)"/>
     <use xlink:href="#Cmmi10-4b" transform="translate(3283.122852 0.1625)"/>
     <use xlink:href="#DejaVuSerif-20" transform="translate(3368.034961 0.1625)"/>
     <use xlink:href="#DejaVuSerif-20" transform="translate(3399.82207 0.1625)"/>
     <use xlink:href="#DejaVuSerif-b7" transform="translate(3431.60918 0.1625)"/>
     <use xlink:href="#DejaVuSerif-20" transform="translate(3463.396289 0.1625)"/>
     <use xlink:href="#DejaVuSerif-20" transform="translate(3495.183398 0.1625)"/>
     <use xlink:href="#Cmmi10-44" transform="translate(3526.970508 0.1625)"/>
     <use xlink:href="#Cmr10-61" transform="translate(3621.054883 38.426562) scale(0.7)"/>
     <use xlink:href="#Cmr10-64" transform="translate(3656.054883 38.426562) scale(0.7)"/>
     <use xlink:href="#Cmr10-3d" transform="translate(3718.853125 0.1625)"/>
     <use xlink:href="#Cmr10-31" transform="translate(3814.097266 0.1625)"/>
    </g>
   </g>
   <g id="text_21">
    <!-- bounds meet:  $G_2(K)=1-1/K$   (ouroboros — upper bound eaten by construction) -->
    <g style="fill: #cfb991" transform="translate(129.114 654.804) scale(0.092 -0.092)">
     <defs>
      <path id="Cmmi10-47" d="M 934 1403 
Q 934 1006 1092 707 
Q 1250 409 1547 246 
Q 1844 84 2234 84 
Q 2616 84 2959 264 
Q 3303 444 3391 781 
L 3531 1331 
Q 3534 1350 3537 1370 
Q 3541 1391 3541 1403 
Q 3541 1469 3500 1478 
Q 3341 1522 2859 1522 
Q 2797 1522 2797 1606 
Q 2816 1684 2831 1715 
Q 2847 1747 2906 1747 
L 4556 1747 
Q 4622 1747 4622 1663 
Q 4619 1647 4609 1609 
Q 4600 1572 4584 1547 
Q 4569 1522 4538 1522 
Q 4325 1522 4226 1487 
Q 4128 1453 4091 1306 
L 3950 756 
L 3769 44 
Q 3759 0 3713 0 
Q 3659 0 3559 144 
Q 3459 288 3419 384 
Q 3197 122 2825 -9 
Q 2453 -141 2059 -141 
Q 1563 -141 1164 84 
Q 766 309 545 709 
Q 325 1109 325 1613 
Q 325 2150 564 2673 
Q 803 3197 1212 3611 
Q 1622 4025 2142 4269 
Q 2663 4513 3194 4513 
Q 3406 4513 3601 4447 
Q 3797 4381 3964 4251 
Q 4131 4122 4238 3950 
L 4744 4500 
Q 4744 4513 4775 4513 
L 4813 4513 
Q 4838 4513 4855 4492 
Q 4872 4472 4872 4447 
L 4434 2719 
Q 4434 2675 4384 2675 
L 4269 2675 
Q 4219 2675 4219 2747 
Q 4244 2888 4244 3078 
Q 4244 3394 4137 3672 
Q 4031 3950 3806 4119 
Q 3581 4288 3256 4288 
Q 2741 4288 2303 4027 
Q 1866 3766 1562 3337 
Q 1259 2909 1096 2396 
Q 934 1884 934 1403 
z
" transform="scale(0.015625)"/>
      <path id="Cmsy10-a1" d="M 653 1472 
Q 600 1472 565 1512 
Q 531 1553 531 1600 
Q 531 1647 565 1687 
Q 600 1728 653 1728 
L 4325 1728 
Q 4375 1728 4408 1687 
Q 4441 1647 4441 1600 
Q 4441 1553 4408 1512 
Q 4375 1472 4325 1472 
L 653 1472 
z
" transform="scale(0.015625)"/>
      <path id="DejaVuSerif-28" d="M 2041 -997 
Q 1281 -656 893 83 
Q 506 822 506 1931 
Q 506 3044 893 3783 
Q 1281 4522 2041 4863 
L 2041 4556 
Q 1559 4225 1350 3623 
Q 1141 3022 1141 1931 
Q 1141 844 1350 242 
Q 1559 -359 2041 -691 
L 2041 -997 
z
" transform="scale(0.015625)"/>
      <path id="DejaVuSerif-2014" d="M 281 1906 
L 6119 1906 
L 6119 1491 
L 281 1491 
L 281 1906 
z
" transform="scale(0.015625)"/>
      <path id="DejaVuSerif-29" d="M 453 -997 
L 453 -691 
Q 934 -359 1145 242 
Q 1356 844 1356 1931 
Q 1356 3022 1145 3623 
Q 934 4225 453 4556 
L 453 4863 
Q 1216 4522 1603 3783 
Q 1991 3044 1991 1931 
Q 1991 822 1603 83 
Q 1216 -656 453 -997 
z
" transform="scale(0.015625)"/>
     </defs>
     <use xlink:href="#DejaVuSerif-62" transform="translate(0 0.015625)"/>
     <use xlink:href="#DejaVuSerif-6f" transform="translate(64.013672 0.015625)"/>
     <use xlink:href="#DejaVuSerif-75" transform="translate(124.21875 0.015625)"/>
     <use xlink:href="#DejaVuSerif-6e" transform="translate(188.623047 0.015625)"/>
     <use xlink:href="#DejaVuSerif-64" transform="translate(253.027344 0.015625)"/>
     <use xlink:href="#DejaVuSerif-73" transform="translate(317.041016 0.015625)"/>
     <use xlink:href="#DejaVuSerif-20" transform="translate(368.359375 0.015625)"/>
     <use xlink:href="#DejaVuSerif-6d" transform="translate(400.146484 0.015625)"/>
     <use xlink:href="#DejaVuSerif-65" transform="translate(494.970703 0.015625)"/>
     <use xlink:href="#DejaVuSerif-65" transform="translate(554.150391 0.015625)"/>
     <use xlink:href="#DejaVuSerif-74" transform="translate(613.330078 0.015625)"/>
     <use xlink:href="#DejaVuSerif-3a" transform="translate(653.515625 0.015625)"/>
     <use xlink:href="#DejaVuSerif-20" transform="translate(687.207031 0.015625)"/>
     <use xlink:href="#DejaVuSerif-20" transform="translate(718.994141 0.015625)"/>
     <use xlink:href="#Cmmi10-47" transform="translate(750.78125 0.015625)"/>
     <use xlink:href="#Cmr10-32" transform="translate(829.394531 -16.990625) scale(0.7)"/>
     <use xlink:href="#Cmr10-28" transform="translate(870.771875 0.015625)"/>
     <use xlink:href="#Cmmi10-4b" transform="translate(909.590234 0.015625)"/>
     <use xlink:href="#Cmr10-29" transform="translate(994.502344 0.015625)"/>
     <use xlink:href="#Cmr10-3d" transform="translate(1050.879297 0.015625)"/>
     <use xlink:href="#Cmr10-31" transform="translate(1146.123437 0.015625)"/>
     <use xlink:href="#Cmsy10-a1" transform="translate(1213.682031 0.015625)"/>
     <use xlink:href="#Cmr10-31" transform="translate(1308.926172 0.015625)"/>
     <use xlink:href="#Cmmi10-3d" transform="translate(1358.926172 0.015625)"/>
     <use xlink:href="#Cmmi10-4b" transform="translate(1408.926172 0.015625)"/>
     <use xlink:href="#DejaVuSerif-20" transform="translate(1493.838281 0.015625)"/>
     <use xlink:href="#DejaVuSerif-20" transform="translate(1525.625391 0.015625)"/>
     <use xlink:href="#DejaVuSerif-20" transform="translate(1557.4125 0.015625)"/>
     <use xlink:href="#DejaVuSerif-28" transform="translate(1589.199609 0.015625)"/>
     <use xlink:href="#DejaVuSerif-6f" transform="translate(1628.213281 0.015625)"/>
     <use xlink:href="#DejaVuSerif-75" transform="translate(1688.418359 0.015625)"/>
     <use xlink:href="#DejaVuSerif-72" transform="translate(1752.822656 0.015625)"/>
     <use xlink:href="#DejaVuSerif-6f" transform="translate(1800.625391 0.015625)"/>
     <use xlink:href="#DejaVuSerif-62" transform="translate(1860.830469 0.015625)"/>
     <use xlink:href="#DejaVuSerif-6f" transform="translate(1924.844141 0.015625)"/>
     <use xlink:href="#DejaVuSerif-72" transform="translate(1985.049219 0.015625)"/>
     <use xlink:href="#DejaVuSerif-6f" transform="translate(2032.851953 0.015625)"/>
     <use xlink:href="#DejaVuSerif-73" transform="translate(2093.057031 0.015625)"/>
     <use xlink:href="#DejaVuSerif-20" transform="translate(2144.375391 0.015625)"/>
     <use xlink:href="#DejaVuSerif-2014" transform="translate(2176.1625 0.015625)"/>
     <use xlink:href="#DejaVuSerif-20" transform="translate(2276.1625 0.015625)"/>
     <use xlink:href="#DejaVuSerif-75" transform="translate(2307.949609 0.015625)"/>
     <use xlink:href="#DejaVuSerif-70" transform="translate(2372.353906 0.015625)"/>
     <use xlink:href="#DejaVuSerif-70" transform="translate(2436.367578 0.015625)"/>
     <use xlink:href="#DejaVuSerif-65" transform="translate(2500.38125 0.015625)"/>
     <use xlink:href="#DejaVuSerif-72" transform="translate(2559.560937 0.015625)"/>
     <use xlink:href="#DejaVuSerif-20" transform="translate(2607.363672 0.015625)"/>
     <use xlink:href="#DejaVuSerif-62" transform="translate(2639.150781 0.015625)"/>
     <use xlink:href="#DejaVuSerif-6f" transform="translate(2703.164453 0.015625)"/>
     <use xlink:href="#DejaVuSerif-75" transform="translate(2763.369531 0.015625)"/>
     <use xlink:href="#DejaVuSerif-6e" transform="translate(2827.773828 0.015625)"/>
     <use xlink:href="#DejaVuSerif-64" transform="translate(2892.178125 0.015625)"/>
     <use xlink:href="#DejaVuSerif-20" transform="translate(2956.191797 0.015625)"/>
     <use xlink:href="#DejaVuSerif-65" transform="translate(2987.978906 0.015625)"/>
     <use xlink:href="#DejaVuSerif-61" transform="translate(3047.158594 0.015625)"/>
     <use xlink:href="#DejaVuSerif-74" transform="translate(3106.777734 0.015625)"/>
     <use xlink:href="#DejaVuSerif-65" transform="translate(3146.963281 0.015625)"/>
     <use xlink:href="#DejaVuSerif-6e" transform="translate(3206.142969 0.015625)"/>
     <use xlink:href="#DejaVuSerif-20" transform="translate(3270.547266 0.015625)"/>
     <use xlink:href="#DejaVuSerif-62" transform="translate(3302.334375 0.015625)"/>
     <use xlink:href="#DejaVuSerif-79" transform="translate(3366.348047 0.015625)"/>
     <use xlink:href="#DejaVuSerif-20" transform="translate(3422.842187 0.015625)"/>
     <use xlink:href="#DejaVuSerif-63" transform="translate(3454.629297 0.015625)"/>
     <use xlink:href="#DejaVuSerif-6f" transform="translate(3510.635156 0.015625)"/>
     <use xlink:href="#DejaVuSerif-6e" transform="translate(3570.840234 0.015625)"/>
     <use xlink:href="#DejaVuSerif-73" transform="translate(3635.244531 0.015625)"/>
     <use xlink:href="#DejaVuSerif-74" transform="translate(3686.562891 0.015625)"/>
     <use xlink:href="#DejaVuSerif-72" transform="translate(3726.748437 0.015625)"/>
     <use xlink:href="#DejaVuSerif-75" transform="translate(3774.551172 0.015625)"/>
     <use xlink:href="#DejaVuSerif-63" transform="translate(3838.955469 0.015625)"/>
     <use xlink:href="#DejaVuSerif-74" transform="translate(3894.961328 0.015625)"/>
     <use xlink:href="#DejaVuSerif-69" transform="translate(3935.146875 0.015625)"/>
     <use xlink:href="#DejaVuSerif-6f" transform="translate(3967.129297 0.015625)"/>
     <use xlink:href="#DejaVuSerif-6e" transform="translate(4027.334375 0.015625)"/>
     <use xlink:href="#DejaVuSerif-29" transform="translate(4091.738672 0.015625)"/>
    </g>
   </g>
  </g>
 </g>
 <defs>
  <clipPath id="p7e69e62e40">
   <rect x="12.96" y="12.96" width="612.36" height="635.04"/>
  </clipPath>
 </defs>
</svg>
