<?xml version="1.0" encoding="utf-8" standalone="no"?>
<!DOCTYPE svg PUBLIC "-//W3C//DTD SVG 1.1//EN"
  "http://www.w3.org/Graphics/SVG/1.1/DTD/svg11.dtd">
<svg xmlns:xlink="http://www.w3.org/1999/xlink" width="542.101935pt" height="594.908534pt" viewBox="0 0 542.101935 594.908534" xmlns="http://www.w3.org/2000/svg" version="1.1">
 <metadata>
  <rdf:RDF xmlns:dc="http://purl.org/dc/elements/1.1/" xmlns:cc="http://creativecommons.org/ns#" xmlns:rdf="http://www.w3.org/1999/02/22-rdf-syntax-ns#">
   <cc:Work>
    <dc:type rdf:resource="http://purl.org/dc/dcmitype/StillImage"/>
    <dc:date>2026-07-12T18:04:44.487731</dc:date>
    <dc:format>image/svg+xml</dc:format>
    <dc:creator>
     <cc:Agent>
      <dc:title>Matplotlib v3.10.9, https://matplotlib.org/</dc:title>
     </cc:Agent>
    </dc:creator>
   </cc:Work>
  </rdf:RDF>
 </metadata>
 <defs>
  <style type="text/css">*{stroke-linejoin: round; stroke-linecap: butt}</style>
 </defs>
 <g id="figure_1">
  <g id="patch_1">
   <path d="M 0 594.908534 
L 542.101935 594.908534 
L 542.101935 0 
L 0 0 
z
"/>
  </g>
  <g id="axes_1">
   <g id="patch_2">
    <path d="M 271.050968 495.192774 
C 322.842977 495.192774 372.520693 474.615591 409.143174 437.993109 
C 445.765655 401.370628 466.342839 351.692913 466.342839 299.900903 
C 466.342839 248.108894 445.765655 198.431178 409.143174 161.808697 
C 372.520693 125.186216 322.842977 104.609032 271.050968 104.609032 
C 219.258958 104.609032 169.581243 125.186216 132.958761 161.808697 
C 96.33628 198.431178 75.759097 248.108894 75.759097 299.900903 
C 75.759097 351.692913 96.33628 401.370628 132.958761 437.993109 
C 169.581243 474.615591 219.258958 495.192774 271.050968 495.192774 
z
" clip-path="url(#pb49980a628)" style="stroke: #d0d0d0; stroke-width: 1.4; stroke-linejoin: miter"/>
   </g>
   <g id="patch_3">
    <path d="M 271.050968 488.978942 
C 321.19505 488.978942 369.292111 469.056487 404.749331 433.599267 
C 440.206552 398.142046 460.129006 350.044985 460.129006 299.900903 
C 460.129006 249.756821 440.206552 201.65976 404.749331 166.20254 
C 369.292111 130.745319 321.19505 110.822865 271.050968 110.822865 
C 220.906886 110.822865 172.809825 130.745319 137.352604 166.20254 
C 101.895384 201.65976 81.972929 249.756821 81.972929 299.900903 
C 81.972929 350.044985 101.895384 398.142046 137.352604 433.599267 
C 172.809825 469.056487 220.906886 488.978942 271.050968 488.978942 
z
" clip-path="url(#pb49980a628)" style="stroke: #cfb991; stroke-width: 0.8; stroke-linejoin: miter"/>
   </g>
   <g id="text_1">
    <!-- Cyclic gate -->
    <g style="fill: #f2f2f2" transform="translate(223.129561 38.163885) scale(0.17 -0.17)">
     <defs>
      <path id="DejaVuSerif-43" d="M 4513 1234 
Q 4306 581 3820 245 
Q 3334 -91 2591 -91 
Q 2134 -91 1743 65 
Q 1353 222 1050 525 
Q 700 875 529 1320 
Q 359 1766 359 2328 
Q 359 3416 987 4083 
Q 1616 4750 2644 4750 
Q 3025 4750 3456 4650 
Q 3888 4550 4384 4347 
L 4384 3272 
L 4031 3272 
Q 3916 3859 3567 4137 
Q 3219 4416 2591 4416 
Q 1844 4416 1459 3886 
Q 1075 3356 1075 2328 
Q 1075 1303 1459 773 
Q 1844 244 2591 244 
Q 3113 244 3450 492 
Q 3788 741 3938 1234 
L 4513 1234 
z
" transform="scale(0.015625)"/>
      <path id="DejaVuSerif-79" d="M 1381 -609 
L 1600 -56 
L 359 2988 
L -19 2988 
L -19 3322 
L 1509 3322 
L 1509 2988 
L 978 2988 
L 1913 703 
L 2847 2988 
L 2350 2988 
L 2350 3322 
L 3597 3322 
L 3597 2988 
L 3225 2988 
L 1703 -750 
Q 1547 -1138 1356 -1280 
Q 1166 -1422 819 -1422 
Q 672 -1422 517 -1397 
Q 363 -1372 206 -1325 
L 206 -691 
L 500 -691 
Q 519 -903 608 -995 
Q 697 -1088 884 -1088 
Q 1056 -1088 1161 -992 
Q 1266 -897 1381 -609 
z
" transform="scale(0.015625)"/>
      <path id="DejaVuSerif-63" d="M 3291 997 
Q 3169 466 2822 187 
Q 2475 -91 1925 -91 
Q 1200 -91 759 389 
Q 319 869 319 1663 
Q 319 2459 759 2936 
Q 1200 3413 1925 3413 
Q 2241 3413 2553 3339 
Q 2866 3266 3181 3116 
L 3181 2266 
L 2847 2266 
Q 2781 2703 2561 2903 
Q 2341 3103 1931 3103 
Q 1466 3103 1228 2742 
Q 991 2381 991 1663 
Q 991 944 1227 581 
Q 1463 219 1931 219 
Q 2303 219 2525 412 
Q 2747 606 2828 997 
L 3291 997 
z
" transform="scale(0.015625)"/>
      <path id="DejaVuSerif-6c" d="M 1313 331 
L 1856 331 
L 1856 0 
L 184 0 
L 184 331 
L 738 331 
L 738 4531 
L 184 4531 
L 184 4863 
L 1313 4863 
L 1313 331 
z
" transform="scale(0.015625)"/>
      <path id="DejaVuSerif-69" d="M 622 4353 
Q 622 4497 726 4603 
Q 831 4709 978 4709 
Q 1122 4709 1226 4603 
Q 1331 4497 1331 4353 
Q 1331 4206 1228 4103 
Q 1125 4000 978 4000 
Q 831 4000 726 4103 
Q 622 4206 622 4353 
z
M 1356 331 
L 1900 331 
L 1900 0 
L 231 0 
L 231 331 
L 781 331 
L 781 2988 
L 231 2988 
L 231 3322 
L 1356 3322 
L 1356 331 
z
" transform="scale(0.015625)"/>
      <path id="DejaVuSerif-20" transform="scale(0.015625)"/>
      <path id="DejaVuSerif-67" d="M 3359 2988 
L 3359 72 
Q 3359 -644 2965 -1033 
Q 2572 -1422 1844 -1422 
Q 1516 -1422 1216 -1362 
Q 916 -1303 641 -1184 
L 641 -488 
L 941 -488 
Q 997 -813 1206 -963 
Q 1416 -1113 1806 -1113 
Q 2313 -1113 2548 -827 
Q 2784 -541 2784 72 
L 2784 519 
Q 2616 206 2355 57 
Q 2094 -91 1709 -91 
Q 1097 -91 708 395 
Q 319 881 319 1663 
Q 319 2444 706 2928 
Q 1094 3413 1709 3413 
Q 2094 3413 2355 3264 
Q 2616 3116 2784 2803 
L 2784 3322 
L 3909 3322 
L 3909 2988 
L 3359 2988 
z
M 2784 1825 
Q 2784 2422 2554 2737 
Q 2325 3053 1888 3053 
Q 1444 3053 1217 2703 
Q 991 2353 991 1663 
Q 991 975 1217 622 
Q 1444 269 1888 269 
Q 2325 269 2554 583 
Q 2784 897 2784 1497 
L 2784 1825 
z
" transform="scale(0.015625)"/>
      <path id="DejaVuSerif-61" d="M 2547 1044 
L 2547 1747 
L 1806 1747 
Q 1378 1747 1168 1562 
Q 959 1378 959 997 
Q 959 650 1171 447 
Q 1384 244 1747 244 
Q 2106 244 2326 466 
Q 2547 688 2547 1044 
z
M 3122 2075 
L 3122 331 
L 3634 331 
L 3634 0 
L 2547 0 
L 2547 359 
Q 2356 128 2106 18 
Q 1856 -91 1522 -91 
Q 969 -91 644 203 
Q 319 497 319 997 
Q 319 1513 691 1797 
Q 1063 2081 1741 2081 
L 2547 2081 
L 2547 2309 
Q 2547 2688 2317 2895 
Q 2088 3103 1672 3103 
Q 1328 3103 1125 2947 
Q 922 2791 872 2484 
L 575 2484 
L 575 3156 
Q 875 3284 1158 3348 
Q 1441 3413 1709 3413 
Q 2400 3413 2761 3070 
Q 3122 2728 3122 2075 
z
" transform="scale(0.015625)"/>
      <path id="DejaVuSerif-74" d="M 691 2988 
L 184 2988 
L 184 3322 
L 691 3322 
L 691 4353 
L 1269 4353 
L 1269 3322 
L 2350 3322 
L 2350 2988 
L 1269 2988 
L 1269 878 
Q 1269 456 1350 337 
Q 1431 219 1650 219 
Q 1875 219 1978 351 
Q 2081 484 2088 781 
L 2522 781 
Q 2497 328 2275 118 
Q 2053 -91 1600 -91 
Q 1103 -91 897 129 
Q 691 350 691 878 
L 691 2988 
z
" transform="scale(0.015625)"/>
      <path id="DejaVuSerif-65" d="M 3469 1600 
L 991 1600 
L 991 1575 
Q 991 903 1244 561 
Q 1497 219 1991 219 
Q 2369 219 2611 417 
Q 2853 616 2950 1006 
L 3413 1006 
Q 3275 459 2904 184 
Q 2534 -91 1931 -91 
Q 1203 -91 761 389 
Q 319 869 319 1663 
Q 319 2450 753 2931 
Q 1188 3413 1894 3413 
Q 2647 3413 3050 2948 
Q 3453 2484 3469 1600 
z
M 2791 1931 
Q 2772 2513 2545 2808 
Q 2319 3103 1894 3103 
Q 1497 3103 1269 2806 
Q 1041 2509 991 1931 
L 2791 1931 
z
" transform="scale(0.015625)"/>
     </defs>
     <use xlink:href="#DejaVuSerif-43"/>
     <use xlink:href="#DejaVuSerif-79" transform="translate(76.513672 0)"/>
     <use xlink:href="#DejaVuSerif-63" transform="translate(133.007812 0)"/>
     <use xlink:href="#DejaVuSerif-6c" transform="translate(189.013672 0)"/>
     <use xlink:href="#DejaVuSerif-69" transform="translate(220.996094 0)"/>
     <use xlink:href="#DejaVuSerif-63" transform="translate(252.978516 0)"/>
     <use xlink:href="#DejaVuSerif-20" transform="translate(308.984375 0)"/>
     <use xlink:href="#DejaVuSerif-67" transform="translate(340.771484 0)"/>
     <use xlink:href="#DejaVuSerif-61" transform="translate(404.785156 0)"/>
     <use xlink:href="#DejaVuSerif-74" transform="translate(464.404297 0)"/>
     <use xlink:href="#DejaVuSerif-65" transform="translate(504.589844 0)"/>
    </g>
   </g>
   <g id="text_2">
    <!-- Matching construction for $G_2(K)=1-1/K$  (shown at $K=12$) -->
    <g style="fill: #8a8a8a" transform="translate(119.400968 58.336065) scale(0.1 -0.1)">
     <defs>
      <path id="DejaVuSerif-4d" d="M 353 0 
L 353 331 
L 947 331 
L 947 4331 
L 319 4331 
L 319 4666 
L 1678 4666 
L 3316 1344 
L 4953 4666 
L 6228 4666 
L 6228 4331 
L 5606 4331 
L 5606 331 
L 6203 331 
L 6203 0 
L 4378 0 
L 4378 331 
L 4972 331 
L 4972 3938 
L 3372 684 
L 2931 684 
L 1331 3938 
L 1331 331 
L 1925 331 
L 1925 0 
L 353 0 
z
" transform="scale(0.015625)"/>
      <path id="DejaVuSerif-68" d="M 263 0 
L 263 331 
L 781 331 
L 781 4531 
L 231 4531 
L 231 4863 
L 1356 4863 
L 1356 2731 
Q 1516 3069 1770 3241 
Q 2025 3413 2363 3413 
Q 2913 3413 3172 3097 
Q 3431 2781 3431 2113 
L 3431 331 
L 3944 331 
L 3944 0 
L 2356 0 
L 2356 331 
L 2853 331 
L 2853 1931 
Q 2853 2541 2704 2764 
Q 2556 2988 2175 2988 
Q 1775 2988 1565 2697 
Q 1356 2406 1356 1850 
L 1356 331 
L 1856 331 
L 1856 0 
L 263 0 
z
" transform="scale(0.015625)"/>
      <path id="DejaVuSerif-6e" d="M 263 0 
L 263 331 
L 781 331 
L 781 2988 
L 231 2988 
L 231 3322 
L 1356 3322 
L 1356 2731 
Q 1516 3069 1770 3241 
Q 2025 3413 2363 3413 
Q 2913 3413 3172 3097 
Q 3431 2781 3431 2113 
L 3431 331 
L 3944 331 
L 3944 0 
L 2356 0 
L 2356 331 
L 2853 331 
L 2853 1931 
Q 2853 2541 2703 2767 
Q 2553 2994 2175 2994 
Q 1775 2994 1565 2701 
Q 1356 2409 1356 1850 
L 1356 331 
L 1856 331 
L 1856 0 
L 263 0 
z
" transform="scale(0.015625)"/>
      <path id="DejaVuSerif-6f" d="M 1925 219 
Q 2388 219 2623 584 
Q 2859 950 2859 1663 
Q 2859 2375 2623 2739 
Q 2388 3103 1925 3103 
Q 1463 3103 1227 2739 
Q 991 2375 991 1663 
Q 991 950 1228 584 
Q 1466 219 1925 219 
z
M 1925 -91 
Q 1200 -91 759 389 
Q 319 869 319 1663 
Q 319 2456 758 2934 
Q 1197 3413 1925 3413 
Q 2653 3413 3092 2934 
Q 3531 2456 3531 1663 
Q 3531 869 3092 389 
Q 2653 -91 1925 -91 
z
" transform="scale(0.015625)"/>
      <path id="DejaVuSerif-73" d="M 359 184 
L 359 959 
L 691 959 
Q 703 588 923 403 
Q 1144 219 1575 219 
Q 1963 219 2166 364 
Q 2369 509 2369 788 
Q 2369 1006 2220 1140 
Q 2072 1275 1594 1428 
L 1178 1569 
Q 750 1706 558 1912 
Q 366 2119 366 2438 
Q 366 2894 700 3153 
Q 1034 3413 1625 3413 
Q 1888 3413 2178 3344 
Q 2469 3275 2778 3144 
L 2778 2419 
L 2447 2419 
Q 2434 2741 2221 2922 
Q 2009 3103 1644 3103 
Q 1281 3103 1095 2975 
Q 909 2847 909 2591 
Q 909 2381 1050 2254 
Q 1191 2128 1613 1997 
L 2069 1856 
Q 2541 1709 2748 1489 
Q 2956 1269 2956 922 
Q 2956 450 2595 179 
Q 2234 -91 1600 -91 
Q 1278 -91 972 -22 
Q 666 47 359 184 
z
" transform="scale(0.015625)"/>
      <path id="DejaVuSerif-72" d="M 3059 3328 
L 3059 2497 
L 2728 2497 
Q 2713 2744 2591 2866 
Q 2469 2988 2234 2988 
Q 1809 2988 1582 2694 
Q 1356 2400 1356 1850 
L 1356 331 
L 2022 331 
L 2022 0 
L 263 0 
L 263 331 
L 781 331 
L 781 2994 
L 231 2994 
L 231 3322 
L 1356 3322 
L 1356 2731 
Q 1525 3078 1790 3245 
Q 2056 3413 2438 3413 
Q 2578 3413 2733 3391 
Q 2888 3369 3059 3328 
z
" transform="scale(0.015625)"/>
      <path id="DejaVuSerif-75" d="M 2266 3322 
L 3341 3322 
L 3341 331 
L 3884 331 
L 3884 0 
L 2766 0 
L 2766 588 
Q 2606 256 2353 82 
Q 2100 -91 1766 -91 
Q 1213 -91 952 223 
Q 691 538 691 1209 
L 691 2988 
L 172 2988 
L 172 3322 
L 1269 3322 
L 1269 1388 
Q 1269 781 1417 556 
Q 1566 331 1947 331 
Q 2347 331 2556 625 
Q 2766 919 2766 1478 
L 2766 2988 
L 2266 2988 
L 2266 3322 
z
" transform="scale(0.015625)"/>
      <path id="DejaVuSerif-66" d="M 2753 4078 
L 2450 4078 
Q 2447 4313 2317 4434 
Q 2188 4556 1941 4556 
Q 1619 4556 1487 4379 
Q 1356 4203 1356 3750 
L 1356 3322 
L 2284 3322 
L 2284 2988 
L 1356 2988 
L 1356 331 
L 2094 331 
L 2094 0 
L 231 0 
L 231 331 
L 781 331 
L 781 2988 
L 231 2988 
L 231 3322 
L 781 3322 
L 781 3738 
Q 781 4294 1070 4578 
Q 1359 4863 1919 4863 
Q 2128 4863 2337 4825 
Q 2547 4788 2753 4709 
L 2753 4078 
z
" transform="scale(0.015625)"/>
      <path id="Cmmi10-47" d="M 934 1403 
Q 934 1006 1092 707 
Q 1250 409 1547 246 
Q 1844 84 2234 84 
Q 2616 84 2959 264 
Q 3303 444 3391 781 
L 3531 1331 
Q 3534 1350 3537 1370 
Q 3541 1391 3541 1403 
Q 3541 1469 3500 1478 
Q 3341 1522 2859 1522 
Q 2797 1522 2797 1606 
Q 2816 1684 2831 1715 
Q 2847 1747 2906 1747 
L 4556 1747 
Q 4622 1747 4622 1663 
Q 4619 1647 4609 1609 
Q 4600 1572 4584 1547 
Q 4569 1522 4538 1522 
Q 4325 1522 4226 1487 
Q 4128 1453 4091 1306 
L 3950 756 
L 3769 44 
Q 3759 0 3713 0 
Q 3659 0 3559 144 
Q 3459 288 3419 384 
Q 3197 122 2825 -9 
Q 2453 -141 2059 -141 
Q 1563 -141 1164 84 
Q 766 309 545 709 
Q 325 1109 325 1613 
Q 325 2150 564 2673 
Q 803 3197 1212 3611 
Q 1622 4025 2142 4269 
Q 2663 4513 3194 4513 
Q 3406 4513 3601 4447 
Q 3797 4381 3964 4251 
Q 4131 4122 4238 3950 
L 4744 4500 
Q 4744 4513 4775 4513 
L 4813 4513 
Q 4838 4513 4855 4492 
Q 4872 4472 4872 4447 
L 4434 2719 
Q 4434 2675 4384 2675 
L 4269 2675 
Q 4219 2675 4219 2747 
Q 4244 2888 4244 3078 
Q 4244 3394 4137 3672 
Q 4031 3950 3806 4119 
Q 3581 4288 3256 4288 
Q 2741 4288 2303 4027 
Q 1866 3766 1562 3337 
Q 1259 2909 1096 2396 
Q 934 1884 934 1403 
z
" transform="scale(0.015625)"/>
      <path id="Cmr10-32" d="M 319 0 
L 319 172 
Q 319 188 331 206 
L 1325 1306 
Q 1550 1550 1690 1715 
Q 1831 1881 1968 2097 
Q 2106 2313 2186 2536 
Q 2266 2759 2266 3009 
Q 2266 3272 2169 3511 
Q 2072 3750 1880 3894 
Q 1688 4038 1416 4038 
Q 1138 4038 916 3870 
Q 694 3703 603 3438 
Q 628 3444 672 3444 
Q 816 3444 917 3347 
Q 1019 3250 1019 3097 
Q 1019 2950 917 2848 
Q 816 2747 672 2747 
Q 522 2747 420 2851 
Q 319 2956 319 3097 
Q 319 3338 409 3548 
Q 500 3759 670 3923 
Q 841 4088 1055 4175 
Q 1269 4263 1509 4263 
Q 1875 4263 2190 4108 
Q 2506 3953 2690 3670 
Q 2875 3388 2875 3009 
Q 2875 2731 2753 2481 
Q 2631 2231 2440 2026 
Q 2250 1822 1953 1562 
Q 1656 1303 1563 1216 
L 838 519 
L 1453 519 
Q 1906 519 2211 526 
Q 2516 534 2534 550 
Q 2609 631 2688 1141 
L 2875 1141 
L 2694 0 
L 319 0 
z
" transform="scale(0.015625)"/>
      <path id="Cmr10-28" d="M 1984 -1588 
Q 1628 -1306 1370 -942 
Q 1113 -578 948 -165 
Q 784 247 703 697 
Q 622 1147 622 1600 
Q 622 2059 703 2509 
Q 784 2959 951 3375 
Q 1119 3791 1378 4153 
Q 1638 4516 1984 4788 
Q 1984 4800 2016 4800 
L 2075 4800 
Q 2094 4800 2109 4783 
Q 2125 4766 2125 4744 
Q 2125 4716 2113 4703 
Q 1800 4397 1592 4047 
Q 1384 3697 1257 3301 
Q 1131 2906 1075 2482 
Q 1019 2059 1019 1600 
Q 1019 -434 2106 -1491 
Q 2125 -1509 2125 -1544 
Q 2125 -1559 2108 -1579 
Q 2091 -1600 2075 -1600 
L 2016 -1600 
Q 1984 -1600 1984 -1588 
z
" transform="scale(0.015625)"/>
      <path id="Cmmi10-4b" d="M 300 0 
Q 238 0 238 84 
Q 241 100 250 139 
Q 259 178 276 201 
Q 294 225 319 225 
Q 709 225 863 269 
Q 947 297 984 441 
L 1863 3956 
Q 1875 4019 1875 4044 
Q 1875 4113 1797 4122 
Q 1678 4147 1338 4147 
Q 1275 4147 1275 4231 
Q 1297 4313 1309 4342 
Q 1322 4372 1381 4372 
L 3103 4372 
Q 3169 4372 3169 4288 
Q 3166 4272 3156 4234 
Q 3147 4197 3131 4172 
Q 3116 4147 3084 4147 
Q 2694 4147 2541 4103 
Q 2456 4072 2419 3928 
L 1900 1856 
L 4409 3794 
Q 4416 3806 4489 3879 
Q 4563 3953 4563 4025 
Q 4563 4147 4347 4147 
Q 4281 4147 4281 4231 
Q 4294 4281 4301 4309 
Q 4309 4338 4329 4355 
Q 4350 4372 4391 4372 
L 5631 4372 
Q 5666 4372 5681 4347 
Q 5697 4322 5697 4288 
Q 5694 4272 5683 4231 
Q 5672 4191 5655 4169 
Q 5638 4147 5606 4147 
Q 5138 4147 4581 3713 
Q 4578 3709 4572 3707 
Q 4566 3706 4559 3704 
Q 4553 3703 4550 3700 
L 3231 2675 
L 4191 428 
Q 4278 288 4378 256 
Q 4478 225 4684 225 
Q 4750 225 4750 141 
Q 4731 66 4712 33 
Q 4694 0 4641 0 
L 3156 0 
Q 3097 0 3097 84 
Q 3106 150 3118 187 
Q 3131 225 3181 225 
Q 3344 225 3458 258 
Q 3572 291 3572 409 
Q 3572 453 3566 475 
L 2772 2322 
L 1838 1600 
L 1544 416 
Q 1528 338 1528 325 
Q 1528 259 1606 250 
Q 1728 225 2069 225 
Q 2131 225 2131 141 
Q 2109 50 2096 25 
Q 2084 0 2022 0 
L 300 0 
z
" transform="scale(0.015625)"/>
      <path id="Cmr10-29" d="M 416 -1600 
Q 359 -1600 359 -1544 
Q 359 -1516 372 -1503 
Q 1466 -434 1466 1600 
Q 1466 3634 384 4691 
Q 359 4706 359 4744 
Q 359 4766 376 4783 
Q 394 4800 416 4800 
L 475 4800 
Q 494 4800 506 4788 
Q 966 4425 1272 3906 
Q 1578 3388 1720 2800 
Q 1863 2213 1863 1600 
Q 1863 1147 1786 708 
Q 1709 269 1542 -157 
Q 1375 -584 1119 -945 
Q 863 -1306 506 -1588 
Q 494 -1600 475 -1600 
L 416 -1600 
z
" transform="scale(0.015625)"/>
      <path id="Cmr10-3d" d="M 481 850 
Q 428 850 393 890 
Q 359 931 359 978 
Q 359 1031 393 1068 
Q 428 1106 481 1106 
L 4500 1106 
Q 4547 1106 4581 1068 
Q 4616 1031 4616 978 
Q 4616 931 4581 890 
Q 4547 850 4500 850 
L 481 850 
z
M 481 2094 
Q 428 2094 393 2131 
Q 359 2169 359 2222 
Q 359 2269 393 2309 
Q 428 2350 481 2350 
L 4500 2350 
Q 4547 2350 4581 2309 
Q 4616 2269 4616 2222 
Q 4616 2169 4581 2131 
Q 4547 2094 4500 2094 
L 481 2094 
z
" transform="scale(0.015625)"/>
      <path id="Cmr10-31" d="M 594 0 
L 594 225 
Q 1394 225 1394 428 
L 1394 3788 
Q 1063 3628 556 3628 
L 556 3853 
Q 1341 3853 1741 4263 
L 1831 4263 
Q 1853 4263 1873 4245 
Q 1894 4228 1894 4206 
L 1894 428 
Q 1894 225 2694 225 
L 2694 0 
L 594 0 
z
" transform="scale(0.015625)"/>
      <path id="Cmsy10-a1" d="M 653 1472 
Q 600 1472 565 1512 
Q 531 1553 531 1600 
Q 531 1647 565 1687 
Q 600 1728 653 1728 
L 4325 1728 
Q 4375 1728 4408 1687 
Q 4441 1647 4441 1600 
Q 4441 1553 4408 1512 
Q 4375 1472 4325 1472 
L 653 1472 
z
" transform="scale(0.015625)"/>
      <path id="Cmmi10-3d" d="M 359 -1472 
Q 359 -1453 366 -1447 
L 2591 4722 
Q 2603 4759 2634 4779 
Q 2666 4800 2706 4800 
Q 2763 4800 2798 4765 
Q 2834 4731 2834 4672 
L 2834 4647 
L 609 -1522 
Q 572 -1600 488 -1600 
Q 434 -1600 396 -1562 
Q 359 -1525 359 -1472 
z
" transform="scale(0.015625)"/>
      <path id="DejaVuSerif-28" d="M 2041 -997 
Q 1281 -656 893 83 
Q 506 822 506 1931 
Q 506 3044 893 3783 
Q 1281 4522 2041 4863 
L 2041 4556 
Q 1559 4225 1350 3623 
Q 1141 3022 1141 1931 
Q 1141 844 1350 242 
Q 1559 -359 2041 -691 
L 2041 -997 
z
" transform="scale(0.015625)"/>
      <path id="DejaVuSerif-77" d="M 3072 3322 
L 3922 728 
L 4672 2988 
L 4191 2988 
L 4191 3322 
L 5394 3322 
L 5394 2988 
L 5025 2988 
L 4038 0 
L 3559 0 
L 2741 2484 
L 1919 0 
L 1459 0 
L 475 2988 
L 103 2988 
L 103 3322 
L 1606 3322 
L 1606 2988 
L 1069 2988 
L 1813 728 
L 2669 3322 
L 3072 3322 
z
" transform="scale(0.015625)"/>
      <path id="DejaVuSerif-29" d="M 453 -997 
L 453 -691 
Q 934 -359 1145 242 
Q 1356 844 1356 1931 
Q 1356 3022 1145 3623 
Q 934 4225 453 4556 
L 453 4863 
Q 1216 4522 1603 3783 
Q 1991 3044 1991 1931 
Q 1991 822 1603 83 
Q 1216 -656 453 -997 
z
" transform="scale(0.015625)"/>
     </defs>
     <use xlink:href="#DejaVuSerif-4d" transform="translate(0 0.015625)"/>
     <use xlink:href="#DejaVuSerif-61" transform="translate(102.392578 0.015625)"/>
     <use xlink:href="#DejaVuSerif-74" transform="translate(162.011719 0.015625)"/>
     <use xlink:href="#DejaVuSerif-63" transform="translate(202.197266 0.015625)"/>
     <use xlink:href="#DejaVuSerif-68" transform="translate(258.203125 0.015625)"/>
     <use xlink:href="#DejaVuSerif-69" transform="translate(322.607422 0.015625)"/>
     <use xlink:href="#DejaVuSerif-6e" transform="translate(354.589844 0.015625)"/>
     <use xlink:href="#DejaVuSerif-67" transform="translate(418.994141 0.015625)"/>
     <use xlink:href="#DejaVuSerif-20" transform="translate(483.007812 0.015625)"/>
     <use xlink:href="#DejaVuSerif-63" transform="translate(514.794922 0.015625)"/>
     <use xlink:href="#DejaVuSerif-6f" transform="translate(570.800781 0.015625)"/>
     <use xlink:href="#DejaVuSerif-6e" transform="translate(631.005859 0.015625)"/>
     <use xlink:href="#DejaVuSerif-73" transform="translate(695.410156 0.015625)"/>
     <use xlink:href="#DejaVuSerif-74" transform="translate(746.728516 0.015625)"/>
     <use xlink:href="#DejaVuSerif-72" transform="translate(786.914062 0.015625)"/>
     <use xlink:href="#DejaVuSerif-75" transform="translate(834.716797 0.015625)"/>
     <use xlink:href="#DejaVuSerif-63" transform="translate(899.121094 0.015625)"/>
     <use xlink:href="#DejaVuSerif-74" transform="translate(955.126953 0.015625)"/>
     <use xlink:href="#DejaVuSerif-69" transform="translate(995.3125 0.015625)"/>
     <use xlink:href="#DejaVuSerif-6f" transform="translate(1027.294922 0.015625)"/>
     <use xlink:href="#DejaVuSerif-6e" transform="translate(1087.5 0.015625)"/>
     <use xlink:href="#DejaVuSerif-20" transform="translate(1151.904297 0.015625)"/>
     <use xlink:href="#DejaVuSerif-66" transform="translate(1183.691406 0.015625)"/>
     <use xlink:href="#DejaVuSerif-6f" transform="translate(1220.703125 0.015625)"/>
     <use xlink:href="#DejaVuSerif-72" transform="translate(1280.908203 0.015625)"/>
     <use xlink:href="#DejaVuSerif-20" transform="translate(1328.710938 0.015625)"/>
     <use xlink:href="#Cmmi10-47" transform="translate(1360.498047 0.015625)"/>
     <use xlink:href="#Cmr10-32" transform="translate(1439.111328 -16.990625) scale(0.7)"/>
     <use xlink:href="#Cmr10-28" transform="translate(1480.488672 0.015625)"/>
     <use xlink:href="#Cmmi10-4b" transform="translate(1519.307031 0.015625)"/>
     <use xlink:href="#Cmr10-29" transform="translate(1604.219141 0.015625)"/>
     <use xlink:href="#Cmr10-3d" transform="translate(1660.596094 0.015625)"/>
     <use xlink:href="#Cmr10-31" transform="translate(1755.840234 0.015625)"/>
     <use xlink:href="#Cmsy10-a1" transform="translate(1823.398828 0.015625)"/>
     <use xlink:href="#Cmr10-31" transform="translate(1918.642969 0.015625)"/>
     <use xlink:href="#Cmmi10-3d" transform="translate(1968.642969 0.015625)"/>
     <use xlink:href="#Cmmi10-4b" transform="translate(2018.642969 0.015625)"/>
     <use xlink:href="#DejaVuSerif-20" transform="translate(2103.555078 0.015625)"/>
     <use xlink:href="#DejaVuSerif-20" transform="translate(2135.342187 0.015625)"/>
     <use xlink:href="#DejaVuSerif-28" transform="translate(2167.129297 0.015625)"/>
     <use xlink:href="#DejaVuSerif-73" transform="translate(2206.142969 0.015625)"/>
     <use xlink:href="#DejaVuSerif-68" transform="translate(2257.461328 0.015625)"/>
     <use xlink:href="#DejaVuSerif-6f" transform="translate(2321.865625 0.015625)"/>
     <use xlink:href="#DejaVuSerif-77" transform="translate(2382.070703 0.015625)"/>
     <use xlink:href="#DejaVuSerif-6e" transform="translate(2467.666406 0.015625)"/>
     <use xlink:href="#DejaVuSerif-20" transform="translate(2532.070703 0.015625)"/>
     <use xlink:href="#DejaVuSerif-61" transform="translate(2563.857812 0.015625)"/>
     <use xlink:href="#DejaVuSerif-74" transform="translate(2623.476953 0.015625)"/>
     <use xlink:href="#DejaVuSerif-20" transform="translate(2663.6625 0.015625)"/>
     <use xlink:href="#Cmmi10-4b" transform="translate(2695.449609 0.015625)"/>
     <use xlink:href="#Cmr10-3d" transform="translate(2797.920312 0.015625)"/>
     <use xlink:href="#Cmr10-31" transform="translate(2893.164453 0.015625)"/>
     <use xlink:href="#Cmr10-32" transform="translate(2943.164453 0.015625)"/>
     <use xlink:href="#DejaVuSerif-29" transform="translate(2993.164453 0.015625)"/>
    </g>
   </g>
   <g id="patch_4">
    <path d="M 271.050968 464.123613 
C 314.603339 464.123613 356.377782 446.820072 387.173959 416.023895 
C 417.970137 385.227717 435.273677 343.453275 435.273677 299.900903 
C 435.273677 256.348532 417.970137 214.574089 387.173959 183.777912 
C 356.377782 152.981734 314.603339 135.678194 271.050968 135.678194 
C 227.498596 135.678194 185.724153 152.981734 154.927976 183.777912 
C 124.131799 214.574089 106.828258 256.348532 106.828258 299.900903 
C 106.828258 343.453275 124.131799 385.227717 154.927976 416.023895 
C 185.724153 446.820072 227.498596 464.123613 271.050968 464.123613 
z
" clip-path="url(#pb49980a628)" style="stroke: #cfb991; stroke-width: 2; stroke-linejoin: miter"/>
   </g>
   <g id="text_3">
    <!-- Adaptive ($B{=}2$): observe $g{=}i$, then $b_i$  $\Rightarrow$  $D_2^{\mathrm{ad}}=1$ -->
    <g style="fill: #d0d0d0" transform="translate(149.383968 548.10329) scale(0.098 -0.098)">
     <defs>
      <path id="DejaVuSerif-41" d="M 1281 1691 
L 2994 1691 
L 2138 3909 
L 1281 1691 
z
M -38 0 
L -38 331 
L 372 331 
L 2034 4666 
L 2559 4666 
L 4225 331 
L 4684 331 
L 4684 0 
L 2988 0 
L 2988 331 
L 3506 331 
L 3116 1356 
L 1153 1356 
L 763 331 
L 1275 331 
L 1275 0 
L -38 0 
z
" transform="scale(0.015625)"/>
      <path id="DejaVuSerif-64" d="M 3359 331 
L 3909 331 
L 3909 0 
L 2784 0 
L 2784 519 
Q 2616 206 2355 57 
Q 2094 -91 1709 -91 
Q 1097 -91 708 395 
Q 319 881 319 1663 
Q 319 2444 706 2928 
Q 1094 3413 1709 3413 
Q 2094 3413 2355 3264 
Q 2616 3116 2784 2803 
L 2784 4531 
L 2241 4531 
L 2241 4863 
L 3359 4863 
L 3359 331 
z
M 2784 1497 
L 2784 1825 
Q 2784 2422 2554 2737 
Q 2325 3053 1888 3053 
Q 1444 3053 1217 2703 
Q 991 2353 991 1663 
Q 991 975 1217 622 
Q 1444 269 1888 269 
Q 2325 269 2554 583 
Q 2784 897 2784 1497 
z
" transform="scale(0.015625)"/>
      <path id="DejaVuSerif-70" d="M 1313 1825 
L 1313 1497 
Q 1313 897 1542 583 
Q 1772 269 2209 269 
Q 2650 269 2876 622 
Q 3103 975 3103 1663 
Q 3103 2353 2876 2703 
Q 2650 3053 2209 3053 
Q 1772 3053 1542 2737 
Q 1313 2422 1313 1825 
z
M 738 2988 
L 184 2988 
L 184 3322 
L 1313 3322 
L 1313 2803 
Q 1481 3116 1742 3264 
Q 2003 3413 2388 3413 
Q 3000 3413 3387 2928 
Q 3775 2444 3775 1663 
Q 3775 881 3387 395 
Q 3000 -91 2388 -91 
Q 2003 -91 1742 57 
Q 1481 206 1313 519 
L 1313 -997 
L 1856 -997 
L 1856 -1331 
L 184 -1331 
L 184 -997 
L 738 -997 
L 738 2988 
z
" transform="scale(0.015625)"/>
      <path id="DejaVuSerif-76" d="M 1581 0 
L 359 2988 
L -19 2988 
L -19 3322 
L 1509 3322 
L 1509 2988 
L 978 2988 
L 1913 703 
L 2847 2988 
L 2350 2988 
L 2350 3322 
L 3597 3322 
L 3597 2988 
L 3225 2988 
L 2003 0 
L 1581 0 
z
" transform="scale(0.015625)"/>
      <path id="Cmmi10-42" d="M 319 0 
Q 256 0 256 84 
Q 259 100 268 137 
Q 278 175 293 200 
Q 309 225 341 225 
Q 522 225 656 234 
Q 791 244 884 269 
Q 959 297 1006 441 
L 1881 3956 
Q 1894 4019 1894 4044 
Q 1894 4113 1819 4122 
Q 1697 4147 1356 4147 
Q 1294 4147 1294 4231 
Q 1297 4247 1306 4286 
Q 1316 4325 1333 4348 
Q 1350 4372 1375 4372 
L 3669 4372 
Q 3878 4372 4083 4320 
Q 4288 4269 4461 4156 
Q 4634 4044 4736 3876 
Q 4838 3709 4838 3488 
Q 4838 3247 4714 3040 
Q 4591 2834 4395 2681 
Q 4200 2528 3973 2429 
Q 3747 2331 3500 2284 
Q 3675 2284 3854 2215 
Q 4034 2147 4175 2028 
Q 4316 1909 4402 1743 
Q 4488 1578 4488 1388 
Q 4488 1003 4219 684 
Q 3950 366 3542 183 
Q 3134 0 2753 0 
L 319 0 
z
M 1497 275 
Q 1497 225 1716 225 
L 2631 225 
Q 2944 225 3231 398 
Q 3519 572 3692 859 
Q 3866 1147 3866 1459 
Q 3866 1650 3786 1820 
Q 3706 1991 3556 2089 
Q 3406 2188 3213 2188 
L 1966 2188 
L 1522 416 
Q 1497 328 1497 275 
z
M 2009 2356 
L 2981 2356 
Q 3288 2356 3577 2512 
Q 3866 2669 4048 2937 
Q 4231 3206 4231 3506 
Q 4231 3784 4057 3965 
Q 3884 4147 3609 4147 
L 2731 4147 
Q 2559 4147 2500 4115 
Q 2441 4084 2400 3928 
L 2009 2356 
z
" transform="scale(0.015625)"/>
      <path id="DejaVuSerif-3a" d="M 666 325 
Q 666 500 786 622 
Q 906 744 1081 744 
Q 1256 744 1376 622 
Q 1497 500 1497 325 
Q 1497 150 1378 29 
Q 1259 -91 1081 -91 
Q 903 -91 784 29 
Q 666 150 666 325 
z
M 666 2363 
Q 666 2538 786 2658 
Q 906 2778 1081 2778 
Q 1259 2778 1378 2659 
Q 1497 2541 1497 2363 
Q 1497 2184 1378 2065 
Q 1259 1947 1081 1947 
Q 906 1947 786 2067 
Q 666 2188 666 2363 
z
" transform="scale(0.015625)"/>
      <path id="DejaVuSerif-62" d="M 738 331 
L 738 4531 
L 184 4531 
L 184 4863 
L 1313 4863 
L 1313 2803 
Q 1481 3116 1742 3264 
Q 2003 3413 2388 3413 
Q 3000 3413 3387 2928 
Q 3775 2444 3775 1663 
Q 3775 881 3387 395 
Q 3000 -91 2388 -91 
Q 2003 -91 1742 57 
Q 1481 206 1313 519 
L 1313 0 
L 184 0 
L 184 331 
L 738 331 
z
M 1313 1497 
Q 1313 897 1542 583 
Q 1772 269 2209 269 
Q 2650 269 2876 622 
Q 3103 975 3103 1663 
Q 3103 2353 2876 2703 
Q 2650 3053 2209 3053 
Q 1772 3053 1542 2737 
Q 1313 2422 1313 1825 
L 1313 1497 
z
" transform="scale(0.015625)"/>
      <path id="Cmmi10-67" d="M 91 -916 
Q 91 -759 198 -642 
Q 306 -525 459 -525 
Q 563 -525 633 -589 
Q 703 -653 703 -756 
Q 703 -872 637 -964 
Q 572 -1056 469 -1094 
Q 641 -1147 1006 -1147 
Q 1300 -1147 1544 -920 
Q 1788 -694 1863 -397 
L 2047 353 
Q 1700 0 1325 0 
Q 1050 0 854 140 
Q 659 281 556 515 
Q 453 750 453 1013 
Q 453 1306 573 1628 
Q 694 1950 911 2225 
Q 1128 2500 1409 2664 
Q 1691 2828 2003 2828 
Q 2191 2828 2341 2725 
Q 2491 2622 2578 2450 
Q 2641 2700 2853 2700 
Q 2934 2700 2990 2651 
Q 3047 2603 3047 2522 
Q 3047 2503 3045 2493 
Q 3044 2484 3041 2472 
L 2309 -434 
Q 2259 -634 2125 -800 
Q 1991 -966 1809 -1077 
Q 1628 -1188 1412 -1250 
Q 1197 -1313 997 -1313 
Q 631 -1313 361 -1242 
Q 91 -1172 91 -916 
z
M 1338 166 
Q 1747 166 2144 728 
L 2497 2125 
Q 2453 2347 2322 2505 
Q 2191 2663 1991 2663 
Q 1778 2663 1589 2489 
Q 1400 2316 1275 2075 
Q 1156 1844 1045 1411 
Q 934 978 934 728 
Q 934 509 1034 337 
Q 1134 166 1338 166 
z
" transform="scale(0.015625)"/>
      <path id="Cmmi10-69" d="M 500 459 
Q 500 578 550 709 
L 1069 2088 
Q 1153 2322 1153 2472 
Q 1153 2663 1013 2663 
Q 759 2663 595 2402 
Q 431 2141 353 1819 
Q 341 1778 300 1778 
L 225 1778 
Q 172 1778 172 1838 
L 172 1856 
Q 275 2238 487 2533 
Q 700 2828 1025 2828 
Q 1253 2828 1411 2678 
Q 1569 2528 1569 2297 
Q 1569 2178 1516 2047 
L 997 672 
Q 909 459 909 288 
Q 909 97 1056 97 
Q 1306 97 1473 364 
Q 1641 631 1709 941 
Q 1722 978 1759 978 
L 1838 978 
Q 1863 978 1878 961 
Q 1894 944 1894 922 
Q 1894 916 1888 903 
Q 1800 541 1583 234 
Q 1366 -72 1044 -72 
Q 819 -72 659 83 
Q 500 238 500 459 
z
M 1222 3878 
Q 1222 4013 1334 4122 
Q 1447 4231 1581 4231 
Q 1691 4231 1761 4164 
Q 1831 4097 1831 3994 
Q 1831 3850 1717 3742 
Q 1603 3634 1466 3634 
Q 1363 3634 1292 3704 
Q 1222 3775 1222 3878 
z
" transform="scale(0.015625)"/>
      <path id="DejaVuSerif-2c" d="M 231 -622 
Q 525 -406 662 -114 
Q 800 178 800 594 
L 800 709 
L 1416 709 
Q 1391 175 1164 -208 
Q 938 -591 481 -872 
L 231 -622 
z
" transform="scale(0.015625)"/>
      <path id="Cmmi10-62" d="M 1106 -72 
Q 719 -72 503 231 
Q 288 534 288 941 
Q 288 1000 317 1173 
Q 347 1347 347 1388 
L 966 3872 
Q 991 3981 997 4044 
Q 997 4147 581 4147 
Q 519 4147 519 4231 
Q 522 4247 533 4287 
Q 544 4328 561 4350 
Q 578 4372 609 4372 
L 1472 4441 
Q 1550 4441 1550 4359 
L 1075 2472 
Q 1438 2828 1806 2828 
Q 2078 2828 2273 2684 
Q 2469 2541 2566 2306 
Q 2663 2072 2663 1806 
Q 2663 1497 2542 1167 
Q 2422 838 2209 555 
Q 1997 272 1712 100 
Q 1428 -72 1106 -72 
z
M 1119 97 
Q 1338 97 1528 280 
Q 1719 463 1838 691 
Q 1966 947 2077 1386 
Q 2188 1825 2188 2088 
Q 2188 2316 2092 2489 
Q 1997 2663 1791 2663 
Q 1559 2663 1348 2492 
Q 1138 2322 978 2088 
L 800 1363 
Q 697 959 691 716 
Q 691 475 795 286 
Q 900 97 1119 97 
z
" transform="scale(0.015625)"/>
      <path id="Cmsy10-29" d="M 481 850 
Q 428 850 393 890 
Q 359 931 359 978 
Q 359 1031 393 1068 
Q 428 1106 481 1106 
L 4634 1106 
Q 5009 1416 5453 1600 
Q 5009 1784 4634 2094 
L 481 2094 
Q 428 2094 393 2131 
Q 359 2169 359 2222 
Q 359 2269 393 2309 
Q 428 2350 481 2350 
L 4353 2350 
Q 4194 2516 3950 2850 
Q 3706 3184 3706 3291 
Q 3706 3319 3723 3339 
Q 3741 3359 3769 3359 
L 3897 3359 
Q 3938 3359 3950 3322 
Q 4109 3009 4314 2750 
Q 4519 2491 4787 2272 
Q 5056 2053 5353 1906 
Q 5650 1759 5991 1672 
Q 6034 1644 6034 1600 
Q 6034 1550 5991 1538 
Q 5325 1369 4792 934 
Q 4259 500 3950 -122 
Q 3938 -159 3897 -159 
L 3769 -159 
Q 3706 -159 3706 -91 
Q 3706 -16 3832 179 
Q 3959 375 4111 567 
Q 4263 759 4353 850 
L 481 850 
z
" transform="scale(0.015625)"/>
      <path id="Cmmi10-44" d="M 313 0 
Q 250 0 250 84 
Q 253 100 262 139 
Q 272 178 289 201 
Q 306 225 331 225 
Q 722 225 878 269 
Q 959 297 997 441 
L 1875 3956 
Q 1888 4019 1888 4044 
Q 1888 4113 1813 4122 
Q 1691 4147 1350 4147 
Q 1288 4147 1288 4231 
Q 1291 4247 1300 4286 
Q 1309 4325 1326 4348 
Q 1344 4372 1369 4372 
L 3669 4372 
Q 4116 4372 4450 4155 
Q 4784 3938 4962 3570 
Q 5141 3203 5141 2759 
Q 5141 2269 4937 1778 
Q 4734 1288 4368 881 
Q 4003 475 3534 237 
Q 3066 0 2572 0 
L 313 0 
z
M 1509 275 
Q 1509 225 1728 225 
L 2472 225 
Q 2828 225 3159 372 
Q 3491 519 3750 775 
Q 3991 1016 4175 1406 
Q 4359 1797 4461 2222 
Q 4563 2647 4563 3003 
Q 4563 3263 4486 3472 
Q 4409 3681 4270 3831 
Q 4131 3981 3922 4064 
Q 3713 4147 3450 4147 
L 2747 4147 
Q 2572 4147 2515 4117 
Q 2459 4088 2413 3928 
L 1538 416 
Q 1509 338 1509 275 
z
" transform="scale(0.015625)"/>
      <path id="Cmr10-61" d="M 256 628 
Q 256 1009 556 1248 
Q 856 1488 1276 1586 
Q 1697 1684 2075 1684 
L 2075 1947 
Q 2075 2131 1994 2304 
Q 1913 2478 1759 2589 
Q 1606 2700 1422 2700 
Q 997 2700 775 2509 
Q 897 2509 976 2417 
Q 1056 2325 1056 2203 
Q 1056 2075 965 1984 
Q 875 1894 750 1894 
Q 622 1894 531 1984 
Q 441 2075 441 2203 
Q 441 2541 747 2705 
Q 1053 2869 1422 2869 
Q 1681 2869 1943 2758 
Q 2206 2647 2373 2440 
Q 2541 2234 2541 1959 
L 2541 519 
Q 2541 394 2594 289 
Q 2647 184 2759 184 
Q 2866 184 2917 290 
Q 2969 397 2969 519 
L 2969 928 
L 3156 928 
L 3156 519 
Q 3156 375 3081 245 
Q 3006 116 2879 39 
Q 2753 -38 2606 -38 
Q 2419 -38 2283 107 
Q 2147 253 2131 453 
Q 2013 213 1781 70 
Q 1550 -72 1288 -72 
Q 1044 -72 808 0 
Q 572 72 414 226 
Q 256 381 256 628 
z
M 775 628 
Q 775 403 940 250 
Q 1106 97 1331 97 
Q 1538 97 1706 200 
Q 1875 303 1975 481 
Q 2075 659 2075 856 
L 2075 1522 
Q 1784 1522 1479 1426 
Q 1175 1331 975 1128 
Q 775 925 775 628 
z
" transform="scale(0.015625)"/>
      <path id="Cmr10-64" d="M 1563 -72 
Q 1184 -72 871 133 
Q 559 338 386 672 
Q 213 1006 213 1381 
Q 213 1769 402 2101 
Q 591 2434 916 2631 
Q 1241 2828 1631 2828 
Q 1866 2828 2075 2729 
Q 2284 2631 2438 2456 
L 2438 3788 
Q 2438 3959 2386 4036 
Q 2334 4113 2239 4130 
Q 2144 4147 1941 4147 
L 1941 4372 
L 2888 4441 
L 2888 581 
Q 2888 413 2939 336 
Q 2991 259 3086 242 
Q 3181 225 3384 225 
L 3384 0 
L 2419 -72 
L 2419 331 
Q 2253 141 2025 34 
Q 1797 -72 1563 -72 
z
M 909 556 
Q 1019 347 1201 222 
Q 1384 97 1600 97 
Q 1866 97 2087 250 
Q 2309 403 2419 647 
L 2419 2181 
Q 2344 2322 2230 2433 
Q 2116 2544 1973 2603 
Q 1831 2663 1672 2663 
Q 1338 2663 1134 2473 
Q 931 2284 850 1990 
Q 769 1697 769 1375 
Q 769 1119 795 928 
Q 822 738 909 556 
z
" transform="scale(0.015625)"/>
     </defs>
     <use xlink:href="#DejaVuSerif-41" transform="translate(0 0.1625)"/>
     <use xlink:href="#DejaVuSerif-64" transform="translate(72.216797 0.1625)"/>
     <use xlink:href="#DejaVuSerif-61" transform="translate(136.230469 0.1625)"/>
     <use xlink:href="#DejaVuSerif-70" transform="translate(195.849609 0.1625)"/>
     <use xlink:href="#DejaVuSerif-74" transform="translate(259.863281 0.1625)"/>
     <use xlink:href="#DejaVuSerif-69" transform="translate(300.048828 0.1625)"/>
     <use xlink:href="#DejaVuSerif-76" transform="translate(332.03125 0.1625)"/>
     <use xlink:href="#DejaVuSerif-65" transform="translate(388.525391 0.1625)"/>
     <use xlink:href="#DejaVuSerif-20" transform="translate(447.705078 0.1625)"/>
     <use xlink:href="#DejaVuSerif-28" transform="translate(479.492188 0.1625)"/>
     <use xlink:href="#Cmmi10-42" transform="translate(518.505859 0.1625)"/>
     <use xlink:href="#Cmr10-3d" transform="translate(611.845703 0.1625)"/>
     <use xlink:href="#Cmr10-32" transform="translate(707.089844 0.1625)"/>
     <use xlink:href="#DejaVuSerif-29" transform="translate(757.089844 0.1625)"/>
     <use xlink:href="#DejaVuSerif-3a" transform="translate(796.103516 0.1625)"/>
     <use xlink:href="#DejaVuSerif-20" transform="translate(829.794922 0.1625)"/>
     <use xlink:href="#DejaVuSerif-6f" transform="translate(861.582031 0.1625)"/>
     <use xlink:href="#DejaVuSerif-62" transform="translate(921.787109 0.1625)"/>
     <use xlink:href="#DejaVuSerif-73" transform="translate(985.800781 0.1625)"/>
     <use xlink:href="#DejaVuSerif-65" transform="translate(1037.119141 0.1625)"/>
     <use xlink:href="#DejaVuSerif-72" transform="translate(1096.298828 0.1625)"/>
     <use xlink:href="#DejaVuSerif-76" transform="translate(1144.101562 0.1625)"/>
     <use xlink:href="#DejaVuSerif-65" transform="translate(1200.595703 0.1625)"/>
     <use xlink:href="#DejaVuSerif-20" transform="translate(1259.775391 0.1625)"/>
     <use xlink:href="#Cmmi10-67" transform="translate(1291.5625 0.1625)"/>
     <use xlink:href="#Cmr10-3d" transform="translate(1356.826172 0.1625)"/>
     <use xlink:href="#Cmmi10-69" transform="translate(1452.070312 0.1625)"/>
     <use xlink:href="#DejaVuSerif-2c" transform="translate(1486.494141 0.1625)"/>
     <use xlink:href="#DejaVuSerif-20" transform="translate(1518.28125 0.1625)"/>
     <use xlink:href="#DejaVuSerif-74" transform="translate(1550.068359 0.1625)"/>
     <use xlink:href="#DejaVuSerif-68" transform="translate(1590.253906 0.1625)"/>
     <use xlink:href="#DejaVuSerif-65" transform="translate(1654.658203 0.1625)"/>
     <use xlink:href="#DejaVuSerif-6e" transform="translate(1713.837891 0.1625)"/>
     <use xlink:href="#DejaVuSerif-20" transform="translate(1778.242188 0.1625)"/>
     <use xlink:href="#Cmmi10-62" transform="translate(1810.029297 0.1625)"/>
     <use xlink:href="#Cmmi10-69" transform="translate(1852.949219 -16.84375) scale(0.7)"/>
     <use xlink:href="#DejaVuSerif-20" transform="translate(1883.423242 0.1625)"/>
     <use xlink:href="#DejaVuSerif-20" transform="translate(1915.210352 0.1625)"/>
     <use xlink:href="#Cmsy10-29" transform="translate(1964.556055 0.1625)"/>
     <use xlink:href="#DejaVuSerif-20" transform="translate(2082.114648 0.1625)"/>
     <use xlink:href="#DejaVuSerif-20" transform="translate(2113.901758 0.1625)"/>
     <use xlink:href="#Cmmi10-44" transform="translate(2145.688867 0.1625)"/>
     <use xlink:href="#Cmr10-61" transform="translate(2239.773242 38.426563) scale(0.7)"/>
     <use xlink:href="#Cmr10-64" transform="translate(2274.773242 38.426563) scale(0.7)"/>
     <use xlink:href="#Cmr10-32" transform="translate(2228.403711 -25.346875) scale(0.7)"/>
     <use xlink:href="#Cmr10-3d" transform="translate(2337.571484 0.1625)"/>
     <use xlink:href="#Cmr10-31" transform="translate(2432.815625 0.1625)"/>
    </g>
    <!-- Nonadaptive ($B{=}2$): any fixed pair of queries  $\Rightarrow$  $D_2^{\mathrm{na}}=1/K$ -->
    <g style="fill: #d0d0d0" transform="translate(122.531968 562.56809) scale(0.098 -0.098)">
     <defs>
      <path id="DejaVuSerif-4e" d="M 313 0 
L 313 331 
L 941 331 
L 941 4331 
L 313 4331 
L 313 4666 
L 1509 4666 
L 4306 984 
L 4306 4331 
L 3681 4331 
L 3681 4666 
L 5319 4666 
L 5319 4331 
L 4691 4331 
L 4691 -91 
L 4313 -91 
L 1325 3841 
L 1325 331 
L 1953 331 
L 1953 0 
L 313 0 
z
" transform="scale(0.015625)"/>
      <path id="DejaVuSerif-78" d="M 1863 2028 
L 2559 2988 
L 2113 2988 
L 2113 3322 
L 3391 3322 
L 3391 2988 
L 2950 2988 
L 2059 1759 
L 3097 331 
L 3531 331 
L 3531 0 
L 1997 0 
L 1997 331 
L 2419 331 
L 1697 1325 
L 972 331 
L 1403 331 
L 1403 0 
L 141 0 
L 141 331 
L 581 331 
L 1497 1594 
L 488 2988 
L 78 2988 
L 78 3322 
L 1563 3322 
L 1563 2988 
L 1166 2988 
L 1863 2028 
z
" transform="scale(0.015625)"/>
      <path id="DejaVuSerif-71" d="M 3359 2988 
L 3359 -997 
L 3909 -997 
L 3909 -1331 
L 2241 -1331 
L 2241 -997 
L 2784 -997 
L 2784 519 
Q 2616 206 2355 57 
Q 2094 -91 1709 -91 
Q 1097 -91 708 395 
Q 319 881 319 1663 
Q 319 2444 706 2928 
Q 1094 3413 1709 3413 
Q 2094 3413 2355 3264 
Q 2616 3116 2784 2803 
L 2784 3322 
L 3909 3322 
L 3909 2988 
L 3359 2988 
z
M 2784 1825 
Q 2784 2422 2554 2737 
Q 2325 3053 1888 3053 
Q 1444 3053 1217 2703 
Q 991 2353 991 1663 
Q 991 975 1217 622 
Q 1444 269 1888 269 
Q 2325 269 2554 583 
Q 2784 897 2784 1497 
L 2784 1825 
z
" transform="scale(0.015625)"/>
      <path id="Cmr10-6e" d="M 191 0 
L 191 225 
Q 409 225 550 259 
Q 691 294 691 428 
L 691 2175 
Q 691 2347 639 2423 
Q 588 2500 491 2517 
Q 394 2534 191 2534 
L 191 2759 
L 1119 2828 
L 1119 2203 
Q 1247 2478 1498 2653 
Q 1750 2828 2047 2828 
Q 2491 2828 2714 2615 
Q 2938 2403 2938 1966 
L 2938 428 
Q 2938 294 3078 259 
Q 3219 225 3438 225 
L 3438 0 
L 1972 0 
L 1972 225 
Q 2191 225 2331 259 
Q 2472 294 2472 428 
L 2472 1947 
Q 2472 2259 2381 2461 
Q 2291 2663 2009 2663 
Q 1638 2663 1398 2366 
Q 1159 2069 1159 1691 
L 1159 428 
Q 1159 294 1300 259 
Q 1441 225 1656 225 
L 1656 0 
L 191 0 
z
" transform="scale(0.015625)"/>
     </defs>
     <use xlink:href="#DejaVuSerif-4e" transform="translate(0 0.015625)"/>
     <use xlink:href="#DejaVuSerif-6f" transform="translate(87.5 0.015625)"/>
     <use xlink:href="#DejaVuSerif-6e" transform="translate(147.705078 0.015625)"/>
     <use xlink:href="#DejaVuSerif-61" transform="translate(212.109375 0.015625)"/>
     <use xlink:href="#DejaVuSerif-64" transform="translate(271.728516 0.015625)"/>
     <use xlink:href="#DejaVuSerif-61" transform="translate(335.742188 0.015625)"/>
     <use xlink:href="#DejaVuSerif-70" transform="translate(395.361328 0.015625)"/>
     <use xlink:href="#DejaVuSerif-74" transform="translate(459.375 0.015625)"/>
     <use xlink:href="#DejaVuSerif-69" transform="translate(499.560547 0.015625)"/>
     <use xlink:href="#DejaVuSerif-76" transform="translate(531.542969 0.015625)"/>
     <use xlink:href="#DejaVuSerif-65" transform="translate(588.037109 0.015625)"/>
     <use xlink:href="#DejaVuSerif-20" transform="translate(647.216797 0.015625)"/>
     <use xlink:href="#DejaVuSerif-28" transform="translate(679.003906 0.015625)"/>
     <use xlink:href="#Cmmi10-42" transform="translate(718.017578 0.015625)"/>
     <use xlink:href="#Cmr10-3d" transform="translate(811.357422 0.015625)"/>
     <use xlink:href="#Cmr10-32" transform="translate(906.601562 0.015625)"/>
     <use xlink:href="#DejaVuSerif-29" transform="translate(956.601562 0.015625)"/>
     <use xlink:href="#DejaVuSerif-3a" transform="translate(995.615234 0.015625)"/>
     <use xlink:href="#DejaVuSerif-20" transform="translate(1029.306641 0.015625)"/>
     <use xlink:href="#DejaVuSerif-61" transform="translate(1061.09375 0.015625)"/>
     <use xlink:href="#DejaVuSerif-6e" transform="translate(1120.712891 0.015625)"/>
     <use xlink:href="#DejaVuSerif-79" transform="translate(1185.117188 0.015625)"/>
     <use xlink:href="#DejaVuSerif-20" transform="translate(1241.611328 0.015625)"/>
     <use xlink:href="#DejaVuSerif-66" transform="translate(1273.398438 0.015625)"/>
     <use xlink:href="#DejaVuSerif-69" transform="translate(1310.410156 0.015625)"/>
     <use xlink:href="#DejaVuSerif-78" transform="translate(1342.392578 0.015625)"/>
     <use xlink:href="#DejaVuSerif-65" transform="translate(1398.789062 0.015625)"/>
     <use xlink:href="#DejaVuSerif-64" transform="translate(1457.96875 0.015625)"/>
     <use xlink:href="#DejaVuSerif-20" transform="translate(1521.982422 0.015625)"/>
     <use xlink:href="#DejaVuSerif-70" transform="translate(1553.769531 0.015625)"/>
     <use xlink:href="#DejaVuSerif-61" transform="translate(1617.783203 0.015625)"/>
     <use xlink:href="#DejaVuSerif-69" transform="translate(1677.402344 0.015625)"/>
     <use xlink:href="#DejaVuSerif-72" transform="translate(1709.384766 0.015625)"/>
     <use xlink:href="#DejaVuSerif-20" transform="translate(1757.1875 0.015625)"/>
     <use xlink:href="#DejaVuSerif-6f" transform="translate(1788.974609 0.015625)"/>
     <use xlink:href="#DejaVuSerif-66" transform="translate(1849.179688 0.015625)"/>
     <use xlink:href="#DejaVuSerif-20" transform="translate(1886.191406 0.015625)"/>
     <use xlink:href="#DejaVuSerif-71" transform="translate(1917.978516 0.015625)"/>
     <use xlink:href="#DejaVuSerif-75" transform="translate(1981.992188 0.015625)"/>
     <use xlink:href="#DejaVuSerif-65" transform="translate(2046.396484 0.015625)"/>
     <use xlink:href="#DejaVuSerif-72" transform="translate(2105.576172 0.015625)"/>
     <use xlink:href="#DejaVuSerif-69" transform="translate(2153.378906 0.015625)"/>
     <use xlink:href="#DejaVuSerif-65" transform="translate(2185.361328 0.015625)"/>
     <use xlink:href="#DejaVuSerif-73" transform="translate(2244.541016 0.015625)"/>
     <use xlink:href="#DejaVuSerif-20" transform="translate(2295.859375 0.015625)"/>
     <use xlink:href="#DejaVuSerif-20" transform="translate(2327.646484 0.015625)"/>
     <use xlink:href="#Cmsy10-29" transform="translate(2376.992188 0.015625)"/>
     <use xlink:href="#DejaVuSerif-20" transform="translate(2494.550781 0.015625)"/>
     <use xlink:href="#DejaVuSerif-20" transform="translate(2526.337891 0.015625)"/>
     <use xlink:href="#Cmmi10-44" transform="translate(2558.125 0.015625)"/>
     <use xlink:href="#Cmr10-6e" transform="translate(2652.209375 38.279687) scale(0.7)"/>
     <use xlink:href="#Cmr10-61" transform="translate(2691.07168 38.279687) scale(0.7)"/>
     <use xlink:href="#Cmr10-32" transform="translate(2640.839844 -25.49375) scale(0.7)"/>
     <use xlink:href="#Cmr10-3d" transform="translate(2750.007617 0.015625)"/>
     <use xlink:href="#Cmr10-31" transform="translate(2845.251758 0.015625)"/>
     <use xlink:href="#Cmmi10-3d" transform="translate(2895.251758 0.015625)"/>
     <use xlink:href="#Cmmi10-4b" transform="translate(2945.251758 0.015625)"/>
    </g>
    <!-- Clockwise fifths from C at 12 o'clock (mnemonic for branch index $i$) -->
    <g style="fill: #d0d0d0" transform="translate(102.637968 577.03044) scale(0.098 -0.098)">
     <defs>
      <path id="DejaVuSerif-6b" d="M 1831 0 
L 219 0 
L 219 331 
L 738 331 
L 738 4531 
L 184 4531 
L 184 4863 
L 1313 4863 
L 1313 1697 
L 2713 2988 
L 2234 2988 
L 2234 3322 
L 3738 3322 
L 3738 2988 
L 3169 2988 
L 2181 2075 
L 3444 331 
L 3922 331 
L 3922 0 
L 2284 0 
L 2284 331 
L 2759 331 
L 1766 1697 
L 1313 1275 
L 1313 331 
L 1831 331 
L 1831 0 
z
" transform="scale(0.015625)"/>
      <path id="DejaVuSerif-6d" d="M 3316 2675 
Q 3481 3041 3739 3227 
Q 3997 3413 4341 3413 
Q 4863 3413 5119 3089 
Q 5375 2766 5375 2113 
L 5375 331 
L 5894 331 
L 5894 0 
L 4300 0 
L 4300 331 
L 4800 331 
L 4800 2047 
Q 4800 2556 4650 2772 
Q 4500 2988 4153 2988 
Q 3769 2988 3567 2697 
Q 3366 2406 3366 1850 
L 3366 331 
L 3866 331 
L 3866 0 
L 2291 0 
L 2291 331 
L 2791 331 
L 2791 2069 
Q 2791 2566 2641 2777 
Q 2491 2988 2144 2988 
Q 1759 2988 1557 2697 
Q 1356 2406 1356 1850 
L 1356 331 
L 1856 331 
L 1856 0 
L 263 0 
L 263 331 
L 781 331 
L 781 2994 
L 231 2994 
L 231 3322 
L 1356 3322 
L 1356 2731 
Q 1516 3063 1762 3238 
Q 2009 3413 2322 3413 
Q 2709 3413 2968 3220 
Q 3228 3028 3316 2675 
z
" transform="scale(0.015625)"/>
      <path id="DejaVuSerif-31" d="M 909 0 
L 909 331 
L 1722 331 
L 1722 4213 
L 781 3603 
L 781 4013 
L 1919 4750 
L 2350 4750 
L 2350 331 
L 3163 331 
L 3163 0 
L 909 0 
z
" transform="scale(0.015625)"/>
      <path id="DejaVuSerif-32" d="M 819 3553 
L 469 3553 
L 469 4384 
Q 803 4563 1142 4656 
Q 1481 4750 1806 4750 
Q 2534 4750 2956 4397 
Q 3378 4044 3378 3438 
Q 3378 2753 2422 1800 
Q 2347 1728 2309 1691 
L 1131 513 
L 3078 513 
L 3078 1088 
L 3444 1088 
L 3444 0 
L 434 0 
L 434 341 
L 1850 1753 
Q 2319 2222 2519 2614 
Q 2719 3006 2719 3438 
Q 2719 3909 2473 4175 
Q 2228 4441 1797 4441 
Q 1350 4441 1106 4219 
Q 863 3997 819 3553 
z
" transform="scale(0.015625)"/>
      <path id="DejaVuSerif-27" d="M 1125 4666 
L 1125 2931 
L 628 2931 
L 628 4666 
L 1125 4666 
z
" transform="scale(0.015625)"/>
     </defs>
     <use xlink:href="#DejaVuSerif-43" transform="translate(0 0.015625)"/>
     <use xlink:href="#DejaVuSerif-6c" transform="translate(76.513672 0.015625)"/>
     <use xlink:href="#DejaVuSerif-6f" transform="translate(108.496094 0.015625)"/>
     <use xlink:href="#DejaVuSerif-63" transform="translate(168.701172 0.015625)"/>
     <use xlink:href="#DejaVuSerif-6b" transform="translate(224.707031 0.015625)"/>
     <use xlink:href="#DejaVuSerif-77" transform="translate(285.302734 0.015625)"/>
     <use xlink:href="#DejaVuSerif-69" transform="translate(370.898438 0.015625)"/>
     <use xlink:href="#DejaVuSerif-73" transform="translate(402.880859 0.015625)"/>
     <use xlink:href="#DejaVuSerif-65" transform="translate(454.199219 0.015625)"/>
     <use xlink:href="#DejaVuSerif-20" transform="translate(513.378906 0.015625)"/>
     <use xlink:href="#DejaVuSerif-66" transform="translate(545.166016 0.015625)"/>
     <use xlink:href="#DejaVuSerif-69" transform="translate(582.177734 0.015625)"/>
     <use xlink:href="#DejaVuSerif-66" transform="translate(614.160156 0.015625)"/>
     <use xlink:href="#DejaVuSerif-74" transform="translate(651.171875 0.015625)"/>
     <use xlink:href="#DejaVuSerif-68" transform="translate(691.357422 0.015625)"/>
     <use xlink:href="#DejaVuSerif-73" transform="translate(755.761719 0.015625)"/>
     <use xlink:href="#DejaVuSerif-20" transform="translate(807.080078 0.015625)"/>
     <use xlink:href="#DejaVuSerif-66" transform="translate(838.867188 0.015625)"/>
     <use xlink:href="#DejaVuSerif-72" transform="translate(875.878906 0.015625)"/>
     <use xlink:href="#DejaVuSerif-6f" transform="translate(923.681641 0.015625)"/>
     <use xlink:href="#DejaVuSerif-6d" transform="translate(983.886719 0.015625)"/>
     <use xlink:href="#DejaVuSerif-20" transform="translate(1078.710938 0.015625)"/>
     <use xlink:href="#DejaVuSerif-43" transform="translate(1110.498047 0.015625)"/>
     <use xlink:href="#DejaVuSerif-20" transform="translate(1187.011719 0.015625)"/>
     <use xlink:href="#DejaVuSerif-61" transform="translate(1218.798828 0.015625)"/>
     <use xlink:href="#DejaVuSerif-74" transform="translate(1278.417969 0.015625)"/>
     <use xlink:href="#DejaVuSerif-20" transform="translate(1318.603516 0.015625)"/>
     <use xlink:href="#DejaVuSerif-31" transform="translate(1350.390625 0.015625)"/>
     <use xlink:href="#DejaVuSerif-32" transform="translate(1414.013672 0.015625)"/>
     <use xlink:href="#DejaVuSerif-20" transform="translate(1477.636719 0.015625)"/>
     <use xlink:href="#DejaVuSerif-6f" transform="translate(1509.423828 0.015625)"/>
     <use xlink:href="#DejaVuSerif-27" transform="translate(1569.628906 0.015625)"/>
     <use xlink:href="#DejaVuSerif-63" transform="translate(1597.119141 0.015625)"/>
     <use xlink:href="#DejaVuSerif-6c" transform="translate(1653.125 0.015625)"/>
     <use xlink:href="#DejaVuSerif-6f" transform="translate(1685.107422 0.015625)"/>
     <use xlink:href="#DejaVuSerif-63" transform="translate(1745.3125 0.015625)"/>
     <use xlink:href="#DejaVuSerif-6b" transform="translate(1801.318359 0.015625)"/>
     <use xlink:href="#DejaVuSerif-20" transform="translate(1861.914062 0.015625)"/>
     <use xlink:href="#DejaVuSerif-28" transform="translate(1893.701172 0.015625)"/>
     <use xlink:href="#DejaVuSerif-6d" transform="translate(1932.714844 0.015625)"/>
     <use xlink:href="#DejaVuSerif-6e" transform="translate(2027.539062 0.015625)"/>
     <use xlink:href="#DejaVuSerif-65" transform="translate(2091.943359 0.015625)"/>
     <use xlink:href="#DejaVuSerif-6d" transform="translate(2151.123047 0.015625)"/>
     <use xlink:href="#DejaVuSerif-6f" transform="translate(2245.947266 0.015625)"/>
     <use xlink:href="#DejaVuSerif-6e" transform="translate(2306.152344 0.015625)"/>
     <use xlink:href="#DejaVuSerif-69" transform="translate(2370.556641 0.015625)"/>
     <use xlink:href="#DejaVuSerif-63" transform="translate(2402.539062 0.015625)"/>
     <use xlink:href="#DejaVuSerif-20" transform="translate(2458.544922 0.015625)"/>
     <use xlink:href="#DejaVuSerif-66" transform="translate(2490.332031 0.015625)"/>
     <use xlink:href="#DejaVuSerif-6f" transform="translate(2527.34375 0.015625)"/>
     <use xlink:href="#DejaVuSerif-72" transform="translate(2587.548828 0.015625)"/>
     <use xlink:href="#DejaVuSerif-20" transform="translate(2635.351562 0.015625)"/>
     <use xlink:href="#DejaVuSerif-62" transform="translate(2667.138672 0.015625)"/>
     <use xlink:href="#DejaVuSerif-72" transform="translate(2731.152344 0.015625)"/>
     <use xlink:href="#DejaVuSerif-61" transform="translate(2778.955078 0.015625)"/>
     <use xlink:href="#DejaVuSerif-6e" transform="translate(2838.574219 0.015625)"/>
     <use xlink:href="#DejaVuSerif-63" transform="translate(2902.978516 0.015625)"/>
     <use xlink:href="#DejaVuSerif-68" transform="translate(2958.984375 0.015625)"/>
     <use xlink:href="#DejaVuSerif-20" transform="translate(3023.388672 0.015625)"/>
     <use xlink:href="#DejaVuSerif-69" transform="translate(3055.175781 0.015625)"/>
     <use xlink:href="#DejaVuSerif-6e" transform="translate(3087.158203 0.015625)"/>
     <use xlink:href="#DejaVuSerif-64" transform="translate(3151.5625 0.015625)"/>
     <use xlink:href="#DejaVuSerif-65" transform="translate(3215.576172 0.015625)"/>
     <use xlink:href="#DejaVuSerif-78" transform="translate(3274.755859 0.015625)"/>
     <use xlink:href="#DejaVuSerif-20" transform="translate(3331.152344 0.015625)"/>
     <use xlink:href="#Cmmi10-69" transform="translate(3362.939453 0.015625)"/>
     <use xlink:href="#DejaVuSerif-29" transform="translate(3397.363281 0.015625)"/>
    </g>
   </g>
   <g id="line2d_1">
    <path d="M 260.137788 259.17236 
L 228.547003 141.273947 
" clip-path="url(#pb49980a628)" style="fill: none; stroke: #cfb991; stroke-width: 1.15; stroke-linecap: square"/>
   </g>
   <g id="line2d_2">
    <path d="M 281.964148 259.17236 
L 313.554933 141.273947 
" clip-path="url(#pb49980a628)" style="fill: none; stroke: #cfb991; stroke-width: 1.15; stroke-linecap: square"/>
   </g>
   <g id="line2d_3">
    <path d="M 300.86633 270.085541 
L 387.173959 183.777912 
" clip-path="url(#pb49980a628)" style="fill: none; stroke: #cfb991; stroke-width: 1.15; stroke-linecap: square"/>
   </g>
   <g id="line2d_4">
    <path d="M 311.779511 288.987723 
L 429.677924 257.396938 
" clip-path="url(#pb49980a628)" style="fill: none; stroke: #cfb991; stroke-width: 1.15; stroke-linecap: square"/>
   </g>
   <g id="line2d_5">
    <path d="M 311.779511 310.814083 
L 429.677924 342.404868 
" clip-path="url(#pb49980a628)" style="fill: none; stroke: #cfb991; stroke-width: 1.15; stroke-linecap: square"/>
   </g>
   <g id="line2d_6">
    <path d="M 300.86633 329.716266 
L 387.173959 416.023895 
" clip-path="url(#pb49980a628)" style="fill: none; stroke: #cfb991; stroke-width: 1.15; stroke-linecap: square"/>
   </g>
   <g id="line2d_7">
    <path d="M 281.964148 340.629446 
L 313.554933 458.52786 
" clip-path="url(#pb49980a628)" style="fill: none; stroke: #cfb991; stroke-width: 1.15; stroke-linecap: square"/>
   </g>
   <g id="line2d_8">
    <path d="M 260.137788 340.629446 
L 228.547003 458.52786 
" clip-path="url(#pb49980a628)" style="fill: none; stroke: #cfb991; stroke-width: 1.15; stroke-linecap: square"/>
   </g>
   <g id="line2d_9">
    <path d="M 241.235605 329.716266 
L 154.927976 416.023895 
" clip-path="url(#pb49980a628)" style="fill: none; stroke: #cfb991; stroke-width: 1.15; stroke-linecap: square"/>
   </g>
   <g id="line2d_10">
    <path d="M 230.322425 310.814083 
L 112.424011 342.404868 
" clip-path="url(#pb49980a628)" style="fill: none; stroke: #cfb991; stroke-width: 1.15; stroke-linecap: square"/>
   </g>
   <g id="line2d_11">
    <path d="M 230.322425 288.987723 
L 112.424011 257.396938 
" clip-path="url(#pb49980a628)" style="fill: none; stroke: #cfb991; stroke-width: 1.15; stroke-linecap: square"/>
   </g>
   <g id="line2d_12">
    <path d="M 241.235605 270.085541 
L 154.927976 183.777912 
" clip-path="url(#pb49980a628)" style="fill: none; stroke: #cfb991; stroke-width: 1.15; stroke-linecap: square"/>
   </g>
   <g id="patch_5">
    <path d="M 271.050968 342.066194 
C 282.233333 342.066194 292.959204 337.623393 300.86633 329.716266 
C 308.773457 321.809139 313.216258 311.083269 313.216258 299.900903 
C 313.216258 288.718538 308.773457 277.992667 300.86633 270.085541 
C 292.959204 262.178414 282.233333 257.735613 271.050968 257.735613 
C 259.868602 257.735613 249.142732 262.178414 241.235605 270.085541 
C 233.328478 277.992667 228.885677 288.718538 228.885677 299.900903 
C 228.885677 311.083269 233.328478 321.809139 241.235605 329.716266 
C 249.142732 337.623393 259.868602 342.066194 271.050968 342.066194 
z
" clip-path="url(#pb49980a628)" style="stroke: #cfb991; stroke-width: 1.5; stroke-linejoin: miter"/>
   </g>
   <g id="text_4">
    <!-- C -->
    <g style="fill: #f2f2f2" transform="translate(266.077452 192.5268) scale(0.13 -0.13)">
     <use xlink:href="#DejaVuSerif-43"/>
    </g>
   </g>
   <g id="text_5">
    <!-- 1 -->
    <g style="fill: #8a8a8a" transform="translate(268.346905 160.21592) scale(0.085 -0.085)">
     <use xlink:href="#DejaVuSerif-31"/>
    </g>
   </g>
   <g id="text_6">
    <!-- G -->
    <g style="fill: #f2f2f2" transform="translate(321.338722 207.392794) scale(0.13 -0.13)">
     <defs>
      <path id="DejaVuSerif-47" d="M 4097 3272 
Q 3988 3856 3641 4136 
Q 3294 4416 2675 4416 
Q 1869 4416 1472 3897 
Q 1075 3378 1075 2328 
Q 1075 1300 1484 772 
Q 1894 244 2688 244 
Q 3041 244 3362 331 
Q 3684 419 3975 594 
L 3975 1797 
L 3097 1797 
L 3097 2131 
L 4609 2131 
L 4609 391 
Q 4194 150 3714 29 
Q 3234 -91 2688 -91 
Q 1631 -91 995 570 
Q 359 1231 359 2328 
Q 359 3434 996 4092 
Q 1634 4750 2713 4750 
Q 3113 4750 3539 4658 
Q 3966 4566 4447 4378 
L 4447 3272 
L 4097 3272 
z
" transform="scale(0.015625)"/>
     </defs>
     <use xlink:href="#DejaVuSerif-47"/>
    </g>
   </g>
   <g id="text_7">
    <!-- 2 -->
    <g style="fill: #8a8a8a" transform="translate(339.362131 179.244393) scale(0.085 -0.085)">
     <use xlink:href="#DejaVuSerif-32"/>
    </g>
   </g>
   <g id="text_8">
    <!-- D -->
    <g style="fill: #f2f2f2" transform="translate(361.935092 248.007446) scale(0.13 -0.13)">
     <defs>
      <path id="DejaVuSerif-44" d="M 1581 331 
L 2163 331 
Q 3072 331 3558 850 
Q 4044 1369 4044 2338 
Q 4044 3306 3559 3818 
Q 3075 4331 2163 4331 
L 1581 4331 
L 1581 331 
z
M 353 0 
L 353 331 
L 947 331 
L 947 4331 
L 353 4331 
L 353 4666 
L 2209 4666 
Q 3416 4666 4089 4050 
Q 4763 3434 4763 2338 
Q 4763 1238 4088 619 
Q 3413 0 2209 0 
L 353 0 
z
" transform="scale(0.015625)"/>
     </defs>
     <use xlink:href="#DejaVuSerif-44"/>
    </g>
   </g>
   <g id="text_9">
    <!-- 3 -->
    <g style="fill: #8a8a8a" transform="translate(391.348884 231.231146) scale(0.085 -0.085)">
     <defs>
      <path id="DejaVuSerif-33" d="M 622 4469 
Q 988 4606 1323 4678 
Q 1659 4750 1953 4750 
Q 2638 4750 3022 4454 
Q 3406 4159 3406 3634 
Q 3406 3213 3140 2930 
Q 2875 2647 2388 2547 
Q 2963 2466 3280 2130 
Q 3597 1794 3597 1259 
Q 3597 606 3158 257 
Q 2719 -91 1894 -91 
Q 1528 -91 1179 -12 
Q 831 66 488 225 
L 488 1131 
L 838 1131 
Q 869 681 1141 450 
Q 1413 219 1906 219 
Q 2384 219 2661 495 
Q 2938 772 2938 1253 
Q 2938 1803 2653 2086 
Q 2369 2369 1819 2369 
L 1522 2369 
L 1522 2688 
L 1678 2688 
Q 2225 2688 2498 2914 
Q 2772 3141 2772 3597 
Q 2772 4006 2547 4223 
Q 2322 4441 1900 4441 
Q 1478 4441 1245 4241 
Q 1013 4041 972 3647 
L 622 3647 
L 622 4469 
z
" transform="scale(0.015625)"/>
     </defs>
     <use xlink:href="#DejaVuSerif-33"/>
    </g>
   </g>
   <g id="text_10">
    <!-- A -->
    <g style="fill: #f2f2f2" transform="translate(377.318039 303.488091) scale(0.13 -0.13)">
     <use xlink:href="#DejaVuSerif-41"/>
    </g>
   </g>
   <g id="text_11">
    <!-- 4 -->
    <g style="fill: #8a8a8a" transform="translate(410.377357 302.246372) scale(0.085 -0.085)">
     <defs>
      <path id="DejaVuSerif-34" d="M 2234 1581 
L 2234 4063 
L 641 1581 
L 2234 1581 
z
M 3609 0 
L 1484 0 
L 1484 331 
L 2234 331 
L 2234 1247 
L 197 1247 
L 197 1588 
L 2241 4750 
L 2859 4750 
L 2859 1581 
L 3750 1581 
L 3750 1247 
L 2859 1247 
L 2859 331 
L 3609 331 
L 3609 0 
z
" transform="scale(0.015625)"/>
     </defs>
     <use xlink:href="#DejaVuSerif-34"/>
    </g>
   </g>
   <g id="text_12">
    <!-- E -->
    <g style="fill: #f2f2f2" transform="translate(362.401264 358.968736) scale(0.13 -0.13)">
     <defs>
      <path id="DejaVuSerif-45" d="M 353 0 
L 353 331 
L 947 331 
L 947 4331 
L 353 4331 
L 353 4666 
L 4109 4666 
L 4109 3628 
L 3725 3628 
L 3725 4281 
L 1581 4281 
L 1581 2719 
L 3109 2719 
L 3109 3303 
L 3494 3303 
L 3494 1753 
L 3109 1753 
L 3109 2338 
L 1581 2338 
L 1581 384 
L 3775 384 
L 3775 1038 
L 4159 1038 
L 4159 0 
L 353 0 
z
" transform="scale(0.015625)"/>
     </defs>
     <use xlink:href="#DejaVuSerif-45"/>
    </g>
   </g>
   <g id="text_13">
    <!-- 5 -->
    <g style="fill: #8a8a8a" transform="translate(391.348884 373.261598) scale(0.085 -0.085)">
     <defs>
      <path id="DejaVuSerif-35" d="M 3219 4666 
L 3219 4153 
L 1081 4153 
L 1081 2816 
Q 1244 2928 1461 2984 
Q 1678 3041 1947 3041 
Q 2703 3041 3140 2622 
Q 3578 2203 3578 1478 
Q 3578 738 3136 323 
Q 2694 -91 1894 -91 
Q 1572 -91 1234 -12 
Q 897 66 544 225 
L 544 1131 
L 897 1131 
Q 925 688 1179 453 
Q 1434 219 1894 219 
Q 2388 219 2653 544 
Q 2919 869 2919 1478 
Q 2919 2084 2655 2407 
Q 2391 2731 1894 2731 
Q 1613 2731 1398 2631 
Q 1184 2531 1019 2322 
L 750 2322 
L 750 4666 
L 3219 4666 
z
" transform="scale(0.015625)"/>
     </defs>
     <use xlink:href="#DejaVuSerif-35"/>
    </g>
   </g>
   <g id="text_14">
    <!-- B -->
    <g style="fill: #f2f2f2" transform="translate(321.755129 399.583387) scale(0.13 -0.13)">
     <defs>
      <path id="DejaVuSerif-42" d="M 1581 331 
L 2516 331 
Q 3078 331 3337 575 
Q 3597 819 3597 1350 
Q 3597 1878 3339 2120 
Q 3081 2363 2516 2363 
L 1581 2363 
L 1581 331 
z
M 1581 2694 
L 2375 2694 
Q 2888 2694 3123 2891 
Q 3359 3088 3359 3513 
Q 3359 3941 3123 4136 
Q 2888 4331 2375 4331 
L 1581 4331 
L 1581 2694 
z
M 353 0 
L 353 331 
L 947 331 
L 947 4331 
L 353 4331 
L 353 4666 
L 2656 4666 
Q 3363 4666 3720 4377 
Q 4078 4088 4078 3513 
Q 4078 3097 3829 2850 
Q 3581 2603 3103 2547 
Q 3697 2472 4005 2167 
Q 4313 1863 4313 1350 
Q 4313 656 3875 328 
Q 3438 0 2509 0 
L 353 0 
z
" transform="scale(0.015625)"/>
     </defs>
     <use xlink:href="#DejaVuSerif-42"/>
    </g>
   </g>
   <g id="text_15">
    <!-- 6 -->
    <g style="fill: #8a8a8a" transform="translate(339.362131 425.248351) scale(0.085 -0.085)">
     <defs>
      <path id="DejaVuSerif-36" d="M 2094 219 
Q 2534 219 2771 542 
Q 3009 866 3009 1472 
Q 3009 2078 2771 2401 
Q 2534 2725 2094 2725 
Q 1647 2725 1412 2412 
Q 1178 2100 1178 1509 
Q 1178 888 1415 553 
Q 1653 219 2094 219 
z
M 1075 2569 
Q 1288 2803 1556 2918 
Q 1825 3034 2163 3034 
Q 2859 3034 3264 2615 
Q 3669 2197 3669 1472 
Q 3669 763 3233 336 
Q 2797 -91 2069 -91 
Q 1278 -91 853 498 
Q 428 1088 428 2181 
Q 428 3406 931 4078 
Q 1434 4750 2350 4750 
Q 2597 4750 2869 4703 
Q 3141 4656 3425 4563 
L 3425 3794 
L 3072 3794 
Q 3034 4109 2831 4275 
Q 2628 4441 2284 4441 
Q 1678 4441 1381 3981 
Q 1084 3522 1075 2569 
z
" transform="scale(0.015625)"/>
     </defs>
     <use xlink:href="#DejaVuSerif-36"/>
    </g>
   </g>
   <g id="text_16">
    <!-- F# -->
    <g style="fill: #f2f2f2" transform="translate(261.09378 414.449381) scale(0.13 -0.13)">
     <defs>
      <path id="DejaVuSerif-46" d="M 353 0 
L 353 331 
L 947 331 
L 947 4331 
L 353 4331 
L 353 4666 
L 4172 4666 
L 4172 3628 
L 3788 3628 
L 3788 4281 
L 1581 4281 
L 1581 2719 
L 3175 2719 
L 3175 3303 
L 3559 3303 
L 3559 1753 
L 3175 1753 
L 3175 2338 
L 1581 2338 
L 1581 331 
L 2328 331 
L 2328 0 
L 353 0 
z
" transform="scale(0.015625)"/>
      <path id="DejaVuSerif-23" d="M 3256 2816 
L 2375 2816 
L 2113 1772 
L 3003 1772 
L 3256 2816 
z
M 2816 4594 
L 2497 3297 
L 3378 3297 
L 3700 4594 
L 4238 4594 
L 3909 3297 
L 4872 3297 
L 4872 2816 
L 3788 2816 
L 3531 1772 
L 4513 1772 
L 4513 1294 
L 3413 1294 
L 3091 0 
L 2553 0 
L 2881 1294 
L 1997 1294 
L 1672 0 
L 1141 0 
L 1459 1294 
L 494 1294 
L 494 1772 
L 1581 1772 
L 1838 2816 
L 850 2816 
L 850 3297 
L 1959 3297 
L 2284 4594 
L 2816 4594 
z
" transform="scale(0.015625)"/>
     </defs>
     <use xlink:href="#DejaVuSerif-46"/>
     <use xlink:href="#DejaVuSerif-23" transform="translate(69.384766 0)"/>
    </g>
   </g>
   <g id="text_17">
    <!-- 7 -->
    <g style="fill: #8a8a8a" transform="translate(268.346905 444.276824) scale(0.085 -0.085)">
     <defs>
      <path id="DejaVuSerif-37" d="M 3609 4347 
L 1784 0 
L 1319 0 
L 3059 4153 
L 903 4153 
L 903 3578 
L 538 3578 
L 538 4666 
L 3609 4666 
L 3609 4347 
z
" transform="scale(0.015625)"/>
     </defs>
     <use xlink:href="#DejaVuSerif-37"/>
    </g>
   </g>
   <g id="text_18">
    <!-- Db -->
    <g style="fill: #f2f2f2" transform="translate(206.198135 399.583387) scale(0.13 -0.13)">
     <use xlink:href="#DejaVuSerif-44"/>
     <use xlink:href="#DejaVuSerif-62" transform="translate(80.175781 0)"/>
    </g>
   </g>
   <g id="text_19">
    <!-- 8 -->
    <g style="fill: #8a8a8a" transform="translate(197.331679 425.248351) scale(0.085 -0.085)">
     <defs>
      <path id="DejaVuSerif-38" d="M 2981 1275 
Q 2981 1775 2732 2051 
Q 2484 2328 2034 2328 
Q 1584 2328 1336 2051 
Q 1088 1775 1088 1275 
Q 1088 772 1336 495 
Q 1584 219 2034 219 
Q 2484 219 2732 495 
Q 2981 772 2981 1275 
z
M 2853 3541 
Q 2853 3966 2637 4203 
Q 2422 4441 2034 4441 
Q 1650 4441 1433 4203 
Q 1216 3966 1216 3541 
Q 1216 3113 1433 2875 
Q 1650 2638 2034 2638 
Q 2422 2638 2637 2875 
Q 2853 3113 2853 3541 
z
M 2516 2484 
Q 3047 2413 3344 2092 
Q 3641 1772 3641 1275 
Q 3641 619 3225 264 
Q 2809 -91 2034 -91 
Q 1263 -91 845 264 
Q 428 619 428 1275 
Q 428 1772 725 2092 
Q 1022 2413 1556 2484 
Q 1084 2569 832 2842 
Q 581 3116 581 3541 
Q 581 4103 968 4426 
Q 1356 4750 2034 4750 
Q 2713 4750 3100 4426 
Q 3488 4103 3488 3541 
Q 3488 3116 3236 2842 
Q 2984 2569 2516 2484 
z
" transform="scale(0.015625)"/>
     </defs>
     <use xlink:href="#DejaVuSerif-38"/>
    </g>
   </g>
   <g id="text_20">
    <!-- Ab -->
    <g style="fill: #f2f2f2" transform="translate(166.100437 358.968736) scale(0.13 -0.13)">
     <use xlink:href="#DejaVuSerif-41"/>
     <use xlink:href="#DejaVuSerif-62" transform="translate(72.216797 0)"/>
    </g>
   </g>
   <g id="text_21">
    <!-- 9 -->
    <g style="fill: #8a8a8a" transform="translate(145.344926 373.261598) scale(0.085 -0.085)">
     <defs>
      <path id="DejaVuSerif-39" d="M 2994 2091 
Q 2784 1856 2512 1740 
Q 2241 1625 1900 1625 
Q 1206 1625 804 2044 
Q 403 2463 403 3188 
Q 403 3897 839 4323 
Q 1275 4750 2003 4750 
Q 2794 4750 3217 4161 
Q 3641 3572 3641 2478 
Q 3641 1253 3137 581 
Q 2634 -91 1722 -91 
Q 1475 -91 1203 -44 
Q 931 3 647 97 
L 647 872 
L 997 872 
Q 1038 556 1241 387 
Q 1444 219 1784 219 
Q 2391 219 2687 676 
Q 2984 1134 2994 2091 
z
M 1978 4441 
Q 1534 4441 1298 4117 
Q 1063 3794 1063 3188 
Q 1063 2581 1298 2256 
Q 1534 1931 1978 1931 
Q 2422 1931 2658 2245 
Q 2894 2559 2894 3150 
Q 2894 3772 2656 4106 
Q 2419 4441 1978 4441 
z
" transform="scale(0.015625)"/>
     </defs>
     <use xlink:href="#DejaVuSerif-39"/>
    </g>
   </g>
   <g id="text_22">
    <!-- Eb -->
    <g style="fill: #f2f2f2" transform="translate(151.183662 303.488091) scale(0.13 -0.13)">
     <use xlink:href="#DejaVuSerif-45"/>
     <use xlink:href="#DejaVuSerif-62" transform="translate(72.998047 0)"/>
    </g>
   </g>
   <g id="text_23">
    <!-- 10 -->
    <g style="fill: #8a8a8a" transform="translate(123.612391 302.246372) scale(0.085 -0.085)">
     <defs>
      <path id="DejaVuSerif-30" d="M 2034 219 
Q 2513 219 2750 744 
Q 2988 1269 2988 2328 
Q 2988 3391 2750 3916 
Q 2513 4441 2034 4441 
Q 1556 4441 1318 3916 
Q 1081 3391 1081 2328 
Q 1081 1269 1318 744 
Q 1556 219 2034 219 
z
M 2034 -91 
Q 1275 -91 848 546 
Q 422 1184 422 2328 
Q 422 3475 848 4112 
Q 1275 4750 2034 4750 
Q 2797 4750 3222 4112 
Q 3647 3475 3647 2328 
Q 3647 1184 3222 546 
Q 2797 -91 2034 -91 
z
" transform="scale(0.015625)"/>
     </defs>
     <use xlink:href="#DejaVuSerif-31"/>
     <use xlink:href="#DejaVuSerif-30" transform="translate(63.623047 0)"/>
    </g>
   </g>
   <g id="text_24">
    <!-- Bb -->
    <g style="fill: #f2f2f2" transform="translate(166.018171 248.007446) scale(0.13 -0.13)">
     <use xlink:href="#DejaVuSerif-42"/>
     <use xlink:href="#DejaVuSerif-62" transform="translate(73.486328 0)"/>
    </g>
   </g>
   <g id="text_25">
    <!-- 11 -->
    <g style="fill: #8a8a8a" transform="translate(142.640864 231.231146) scale(0.085 -0.085)">
     <use xlink:href="#DejaVuSerif-31"/>
     <use xlink:href="#DejaVuSerif-31" transform="translate(63.623047 0)"/>
    </g>
   </g>
   <g id="text_26">
    <!-- F -->
    <g style="fill: #f2f2f2" transform="translate(211.059932 207.392794) scale(0.13 -0.13)">
     <use xlink:href="#DejaVuSerif-46"/>
    </g>
   </g>
   <g id="text_27">
    <!-- 12 -->
    <g style="fill: #8a8a8a" transform="translate(194.627617 179.244393) scale(0.085 -0.085)">
     <use xlink:href="#DejaVuSerif-31"/>
     <use xlink:href="#DejaVuSerif-32" transform="translate(63.623047 0)"/>
    </g>
   </g>
   <g id="text_28">
    <!-- $g$ -->
    <g style="fill: #f2f2f2" transform="translate(266.250968 294.282899) scale(0.2 -0.2)">
     <use xlink:href="#Cmmi10-67" transform="translate(0 0.8125)"/>
    </g>
   </g>
   <g id="text_29">
    <!-- $b_i$ -->
    <g style="fill: #cfb991" transform="translate(265.870968 330.394738) scale(0.14 -0.14)">
     <use xlink:href="#Cmmi10-62" transform="translate(0 0.609375)"/>
     <use xlink:href="#Cmmi10-69" transform="translate(42.919922 -16.396875) scale(0.7)"/>
    </g>
   </g>
  </g>
 </g>
 <defs>
  <clipPath id="pb49980a628">
   <rect x="15.84" y="15.84" width="510.421935" height="550.368"/>
  </clipPath>
 </defs>
</svg>
