<?xml version="1.0" encoding="utf-8" standalone="no"?>
<!DOCTYPE svg PUBLIC "-//W3C//DTD SVG 1.1//EN"
  "http://www.w3.org/Graphics/SVG/1.1/DTD/svg11.dtd">
<svg xmlns:xlink="http://www.w3.org/1999/xlink" width="570.904615pt" height="592.704pt" viewBox="0 0 570.904615 592.704" xmlns="http://www.w3.org/2000/svg" version="1.1">
 <metadata>
  <rdf:RDF xmlns:dc="http://purl.org/dc/elements/1.1/" xmlns:cc="http://creativecommons.org/ns#" xmlns:rdf="http://www.w3.org/1999/02/22-rdf-syntax-ns#">
   <cc:Work>
    <dc:type rdf:resource="http://purl.org/dc/dcmitype/StillImage"/>
    <dc:date>2026-07-12T17:59:49.285057</dc:date>
    <dc:format>image/svg+xml</dc:format>
    <dc:creator>
     <cc:Agent>
      <dc:title>Matplotlib v3.10.9, https://matplotlib.org/</dc:title>
     </cc:Agent>
    </dc:creator>
   </cc:Work>
  </rdf:RDF>
 </metadata>
 <defs>
  <style type="text/css">*{stroke-linejoin: round; stroke-linecap: butt}</style>
 </defs>
 <g id="figure_1">
  <g id="patch_1">
   <path d="M 0 592.704 
L 570.904615 592.704 
L 570.904615 0 
L 0 0 
z
"/>
  </g>
  <g id="axes_1">
   <g id="text_1">
    <!-- Cyclic gate -->
    <g style="fill: #f2f2f2" transform="translate(240.349808 41.240573) scale(0.16 -0.16)">
     <defs>
      <path id="DejaVuSerif-43" d="M 4513 1234 
Q 4306 581 3820 245 
Q 3334 -91 2591 -91 
Q 2134 -91 1743 65 
Q 1353 222 1050 525 
Q 700 875 529 1320 
Q 359 1766 359 2328 
Q 359 3416 987 4083 
Q 1616 4750 2644 4750 
Q 3025 4750 3456 4650 
Q 3888 4550 4384 4347 
L 4384 3272 
L 4031 3272 
Q 3916 3859 3567 4137 
Q 3219 4416 2591 4416 
Q 1844 4416 1459 3886 
Q 1075 3356 1075 2328 
Q 1075 1303 1459 773 
Q 1844 244 2591 244 
Q 3113 244 3450 492 
Q 3788 741 3938 1234 
L 4513 1234 
z
" transform="scale(0.015625)"/>
      <path id="DejaVuSerif-79" d="M 1381 -609 
L 1600 -56 
L 359 2988 
L -19 2988 
L -19 3322 
L 1509 3322 
L 1509 2988 
L 978 2988 
L 1913 703 
L 2847 2988 
L 2350 2988 
L 2350 3322 
L 3597 3322 
L 3597 2988 
L 3225 2988 
L 1703 -750 
Q 1547 -1138 1356 -1280 
Q 1166 -1422 819 -1422 
Q 672 -1422 517 -1397 
Q 363 -1372 206 -1325 
L 206 -691 
L 500 -691 
Q 519 -903 608 -995 
Q 697 -1088 884 -1088 
Q 1056 -1088 1161 -992 
Q 1266 -897 1381 -609 
z
" transform="scale(0.015625)"/>
      <path id="DejaVuSerif-63" d="M 3291 997 
Q 3169 466 2822 187 
Q 2475 -91 1925 -91 
Q 1200 -91 759 389 
Q 319 869 319 1663 
Q 319 2459 759 2936 
Q 1200 3413 1925 3413 
Q 2241 3413 2553 3339 
Q 2866 3266 3181 3116 
L 3181 2266 
L 2847 2266 
Q 2781 2703 2561 2903 
Q 2341 3103 1931 3103 
Q 1466 3103 1228 2742 
Q 991 2381 991 1663 
Q 991 944 1227 581 
Q 1463 219 1931 219 
Q 2303 219 2525 412 
Q 2747 606 2828 997 
L 3291 997 
z
" transform="scale(0.015625)"/>
      <path id="DejaVuSerif-6c" d="M 1313 331 
L 1856 331 
L 1856 0 
L 184 0 
L 184 331 
L 738 331 
L 738 4531 
L 184 4531 
L 184 4863 
L 1313 4863 
L 1313 331 
z
" transform="scale(0.015625)"/>
      <path id="DejaVuSerif-69" d="M 622 4353 
Q 622 4497 726 4603 
Q 831 4709 978 4709 
Q 1122 4709 1226 4603 
Q 1331 4497 1331 4353 
Q 1331 4206 1228 4103 
Q 1125 4000 978 4000 
Q 831 4000 726 4103 
Q 622 4206 622 4353 
z
M 1356 331 
L 1900 331 
L 1900 0 
L 231 0 
L 231 331 
L 781 331 
L 781 2988 
L 231 2988 
L 231 3322 
L 1356 3322 
L 1356 331 
z
" transform="scale(0.015625)"/>
      <path id="DejaVuSerif-20" transform="scale(0.015625)"/>
      <path id="DejaVuSerif-67" d="M 3359 2988 
L 3359 72 
Q 3359 -644 2965 -1033 
Q 2572 -1422 1844 -1422 
Q 1516 -1422 1216 -1362 
Q 916 -1303 641 -1184 
L 641 -488 
L 941 -488 
Q 997 -813 1206 -963 
Q 1416 -1113 1806 -1113 
Q 2313 -1113 2548 -827 
Q 2784 -541 2784 72 
L 2784 519 
Q 2616 206 2355 57 
Q 2094 -91 1709 -91 
Q 1097 -91 708 395 
Q 319 881 319 1663 
Q 319 2444 706 2928 
Q 1094 3413 1709 3413 
Q 2094 3413 2355 3264 
Q 2616 3116 2784 2803 
L 2784 3322 
L 3909 3322 
L 3909 2988 
L 3359 2988 
z
M 2784 1825 
Q 2784 2422 2554 2737 
Q 2325 3053 1888 3053 
Q 1444 3053 1217 2703 
Q 991 2353 991 1663 
Q 991 975 1217 622 
Q 1444 269 1888 269 
Q 2325 269 2554 583 
Q 2784 897 2784 1497 
L 2784 1825 
z
" transform="scale(0.015625)"/>
      <path id="DejaVuSerif-61" d="M 2547 1044 
L 2547 1747 
L 1806 1747 
Q 1378 1747 1168 1562 
Q 959 1378 959 997 
Q 959 650 1171 447 
Q 1384 244 1747 244 
Q 2106 244 2326 466 
Q 2547 688 2547 1044 
z
M 3122 2075 
L 3122 331 
L 3634 331 
L 3634 0 
L 2547 0 
L 2547 359 
Q 2356 128 2106 18 
Q 1856 -91 1522 -91 
Q 969 -91 644 203 
Q 319 497 319 997 
Q 319 1513 691 1797 
Q 1063 2081 1741 2081 
L 2547 2081 
L 2547 2309 
Q 2547 2688 2317 2895 
Q 2088 3103 1672 3103 
Q 1328 3103 1125 2947 
Q 922 2791 872 2484 
L 575 2484 
L 575 3156 
Q 875 3284 1158 3348 
Q 1441 3413 1709 3413 
Q 2400 3413 2761 3070 
Q 3122 2728 3122 2075 
z
" transform="scale(0.015625)"/>
      <path id="DejaVuSerif-74" d="M 691 2988 
L 184 2988 
L 184 3322 
L 691 3322 
L 691 4353 
L 1269 4353 
L 1269 3322 
L 2350 3322 
L 2350 2988 
L 1269 2988 
L 1269 878 
Q 1269 456 1350 337 
Q 1431 219 1650 219 
Q 1875 219 1978 351 
Q 2081 484 2088 781 
L 2522 781 
Q 2497 328 2275 118 
Q 2053 -91 1600 -91 
Q 1103 -91 897 129 
Q 691 350 691 878 
L 691 2988 
z
" transform="scale(0.015625)"/>
      <path id="DejaVuSerif-65" d="M 3469 1600 
L 991 1600 
L 991 1575 
Q 991 903 1244 561 
Q 1497 219 1991 219 
Q 2369 219 2611 417 
Q 2853 616 2950 1006 
L 3413 1006 
Q 3275 459 2904 184 
Q 2534 -91 1931 -91 
Q 1203 -91 761 389 
Q 319 869 319 1663 
Q 319 2450 753 2931 
Q 1188 3413 1894 3413 
Q 2647 3413 3050 2948 
Q 3453 2484 3469 1600 
z
M 2791 1931 
Q 2772 2513 2545 2808 
Q 2319 3103 1894 3103 
Q 1497 3103 1269 2806 
Q 1041 2509 991 1931 
L 2791 1931 
z
" transform="scale(0.015625)"/>
     </defs>
     <use xlink:href="#DejaVuSerif-43"/>
     <use xlink:href="#DejaVuSerif-79" transform="translate(76.513672 0)"/>
     <use xlink:href="#DejaVuSerif-63" transform="translate(133.007812 0)"/>
     <use xlink:href="#DejaVuSerif-6c" transform="translate(189.013672 0)"/>
     <use xlink:href="#DejaVuSerif-69" transform="translate(220.996094 0)"/>
     <use xlink:href="#DejaVuSerif-63" transform="translate(252.978516 0)"/>
     <use xlink:href="#DejaVuSerif-20" transform="translate(308.984375 0)"/>
     <use xlink:href="#DejaVuSerif-67" transform="translate(340.771484 0)"/>
     <use xlink:href="#DejaVuSerif-61" transform="translate(404.785156 0)"/>
     <use xlink:href="#DejaVuSerif-74" transform="translate(464.404297 0)"/>
     <use xlink:href="#DejaVuSerif-65" transform="translate(504.589844 0)"/>
    </g>
   </g>
   <g id="text_2">
    <!-- address construction  ·  $g(i,x)=i$, then $b_i$  ·  $K=12$ shown -->
    <g style="fill: #8a8a8a" transform="translate(143.152308 61.288708) scale(0.1 -0.1)">
     <defs>
      <path id="DejaVuSerif-Italic-61" d="M 2325 519 
Q 1909 -91 1238 -91 
Q 688 -91 409 281 
Q 216 544 216 919 
Q 216 1078 250 1256 
Q 463 2359 1231 2928 
Q 1884 3413 2675 3413 
Q 3206 3413 3388 3322 
L 2806 331 
L 3300 331 
L 3238 0 
L 2225 0 
L 2325 519 
z
M 822 938 
Q 822 269 1469 269 
Q 1863 269 2130 583 
Q 2397 897 2516 1497 
L 2806 3003 
L 2806 3003 
Q 2806 3094 2556 3094 
Q 1956 3094 1491 2625 
Q 1028 2153 863 1297 
Q 822 1097 822 938 
z
" transform="scale(0.015625)"/>
      <path id="DejaVuSerif-Italic-64" d="M 3841 4863 
L 2897 0 
L 2322 0 
L 2422 519 
Q 2191 206 1902 57 
Q 1613 -91 1228 -91 
Q 616 -91 322 394 
Q 125 716 125 1166 
Q 125 1397 178 1663 
Q 331 2444 812 2928 
Q 1294 3413 1909 3413 
Q 2294 3413 2525 3264 
Q 2756 3116 2866 2803 
L 3200 4531 
L 2656 4531 
L 2722 4863 
L 3841 4863 
z
M 2613 1497 
L 2675 1825 
Q 2722 2069 2722 2266 
Q 2722 2550 2622 2738 
Q 2456 3053 2019 3053 
Q 1575 3053 1279 2703 
Q 984 2353 850 1663 
Q 788 1347 788 1103 
Q 788 813 875 622 
Q 1031 269 1475 269 
Q 1913 269 2203 583 
Q 2494 897 2613 1497 
z
" transform="scale(0.015625)"/>
      <path id="DejaVuSerif-Italic-72" d="M 3375 3328 
L 3213 2497 
L 2881 2497 
Q 2891 2559 2891 2613 
Q 2891 2775 2816 2866 
Q 2719 2988 2484 2988 
Q 2059 2988 1775 2694 
Q 1491 2400 1384 1850 
L 1025 0 
L 450 0 
L 1031 2994 
L 481 2994 
L 544 3322 
L 1669 3322 
L 1556 2731 
Q 1791 3078 2089 3245 
Q 2388 3413 2769 3413 
Q 2909 3413 3059 3391 
Q 3209 3369 3375 3328 
z
" transform="scale(0.015625)"/>
      <path id="DejaVuSerif-Italic-65" d="M 938 1275 
Q 925 1156 925 1050 
Q 925 756 1031 563 
Q 1216 219 1709 219 
Q 2072 219 2250 328 
Q 2569 525 2644 778 
L 3066 778 
Q 2941 381 2475 103 
Q 2150 -91 1506 -91 
Q 863 -91 516 388 
Q 272 722 272 1206 
Q 272 1419 319 1659 
Q 472 2450 1000 2931 
Q 1528 3413 2278 3413 
Q 3500 3413 3500 2547 
Q 3500 1913 2859 1603 
Q 2206 1288 938 1275 
z
M 2541 1975 
Q 2891 2181 2891 2569 
Q 2891 3103 2181 3103 
Q 1763 3103 1472 2784 
Q 1181 2466 1003 1606 
Q 2006 1653 2541 1975 
z
" transform="scale(0.015625)"/>
      <path id="DejaVuSerif-Italic-73" d="M 222 959 
L 553 959 
Q 541 869 541 788 
Q 541 219 1313 219 
Q 2088 219 2200 788 
Q 2209 844 2209 944 
Q 2209 1041 2103 1158 
Q 1997 1275 1550 1428 
L 1159 1569 
Q 759 1706 629 1882 
Q 500 2059 500 2263 
Q 500 2344 516 2438 
Q 606 2894 990 3153 
Q 1375 3413 1931 3413 
Q 2484 3413 3066 3144 
L 2925 2419 
L 2594 2419 
Q 2606 2491 2606 2553 
Q 2606 2781 2448 2942 
Q 2291 3103 1925 3103 
Q 1191 3103 1091 2591 
Q 1078 2538 1078 2444 
Q 1078 2347 1179 2237 
Q 1281 2128 1678 1997 
L 2106 1856 
Q 2550 1709 2716 1488 
Q 2831 1331 2831 1178 
Q 2831 522 2306 181 
Q 1894 -91 1262 -91 
Q 631 -91 72 184 
L 222 959 
z
" transform="scale(0.015625)"/>
      <path id="DejaVuSerif-Italic-20" transform="scale(0.015625)"/>
      <path id="DejaVuSerif-Italic-63" d="M 3163 997 
Q 2938 466 2536 187 
Q 2134 -91 1584 -91 
Q 859 -91 513 388 
Q 272 722 272 1203 
Q 272 1419 319 1663 
Q 475 2459 1008 2936 
Q 1541 3413 2266 3413 
Q 2581 3413 2879 3339 
Q 3178 3266 3463 3116 
L 3300 2266 
L 2966 2266 
Q 2966 2309 2966 2347 
Q 2966 2722 2803 2903 
Q 2622 3103 2213 3103 
Q 1747 3103 1439 2742 
Q 1131 2381 991 1663 
Q 928 1334 928 1078 
Q 928 778 1016 581 
Q 1181 219 1650 219 
Q 2022 219 2281 412 
Q 2541 606 2700 997 
L 3163 997 
z
" transform="scale(0.015625)"/>
      <path id="DejaVuSerif-Italic-6f" d="M 1644 219 
Q 2106 219 2414 584 
Q 2722 950 2859 1663 
Q 2922 1988 2922 2241 
Q 2922 2541 2834 2738 
Q 2669 3103 2206 3103 
Q 1744 3103 1436 2739 
Q 1128 2375 991 1663 
Q 928 1338 928 1088 
Q 928 784 1019 584 
Q 1184 219 1644 219 
z
M 1584 -91 
Q 859 -91 513 388 
Q 272 722 272 1203 
Q 272 1419 319 1663 
Q 472 2456 1005 2934 
Q 1538 3413 2266 3413 
Q 2994 3413 3341 2934 
Q 3578 2603 3578 2122 
Q 3578 1906 3531 1663 
Q 3378 869 2845 389 
Q 2313 -91 1584 -91 
z
" transform="scale(0.015625)"/>
      <path id="DejaVuSerif-Italic-6e" d="M 450 0 
L 1031 2988 
L 481 2988 
L 544 3322 
L 1669 3322 
L 1556 2731 
Q 1781 3069 2068 3241 
Q 2356 3413 2694 3413 
Q 3244 3413 3444 3097 
Q 3563 2906 3563 2588 
Q 3563 2378 3509 2113 
L 3163 331 
L 3675 331 
L 3613 0 
L 2522 0 
L 2897 1931 
Q 2959 2253 2959 2469 
Q 2959 2659 2909 2769 
Q 2803 2994 2425 2994 
Q 2025 2994 1759 2701 
Q 1494 2409 1384 1850 
L 1025 0 
L 450 0 
z
" transform="scale(0.015625)"/>
      <path id="DejaVuSerif-Italic-74" d="M 856 2988 
L 350 2988 
L 416 3322 
L 922 3322 
L 1122 4353 
L 1700 4353 
L 1500 3322 
L 2581 3322 
L 2516 2988 
L 1434 2988 
L 1025 878 
Q 978 631 978 488 
Q 978 388 1000 338 
Q 1059 219 1278 219 
Q 1503 219 1633 351 
Q 1763 484 1825 781 
L 2259 781 
Q 2147 328 1884 118 
Q 1622 -91 1169 -91 
Q 672 -91 506 131 
Q 406 266 406 516 
Q 406 675 447 878 
L 856 2988 
z
" transform="scale(0.015625)"/>
      <path id="DejaVuSerif-Italic-75" d="M 3097 3322 
L 3672 3322 
L 3091 331 
L 3634 331 
L 3572 0 
L 2453 0 
L 2566 588 
Q 2341 256 2055 82 
Q 1769 -91 1434 -91 
Q 881 -91 681 225 
Q 559 413 559 734 
Q 559 944 613 1209 
L 956 2988 
L 438 2988 
L 503 3322 
L 1600 3322 
L 1225 1388 
Q 1163 1066 1163 853 
Q 1163 663 1213 556 
Q 1316 331 1697 331 
Q 2097 331 2364 625 
Q 2631 919 2738 1478 
L 3097 3322 
z
" transform="scale(0.015625)"/>
      <path id="DejaVuSerif-Italic-69" d="M 1009 4353 
Q 1038 4497 1163 4603 
Q 1288 4709 1434 4709 
Q 1578 4709 1663 4603 
Q 1728 4522 1728 4422 
Q 1728 4388 1719 4353 
Q 1691 4206 1567 4103 
Q 1444 4000 1297 4000 
Q 1150 4000 1066 4103 
Q 1003 4181 1003 4281 
Q 1003 4316 1009 4353 
z
M 963 331 
L 1506 331 
L 1444 0 
L 325 0 
L 903 2988 
L 353 2988 
L 419 3322 
L 1544 3322 
L 963 331 
z
" transform="scale(0.015625)"/>
      <path id="DejaVuSerif-Italic-b7" d="M 594 2222 
Q 628 2397 772 2517 
Q 916 2638 1094 2638 
Q 1266 2638 1364 2516 
Q 1463 2394 1428 2222 
Q 1394 2047 1248 1926 
Q 1103 1806 931 1806 
Q 753 1806 656 1925 
Q 559 2044 594 2222 
z
" transform="scale(0.015625)"/>
      <path id="Cmmi10-67" d="M 91 -916 
Q 91 -759 198 -642 
Q 306 -525 459 -525 
Q 563 -525 633 -589 
Q 703 -653 703 -756 
Q 703 -872 637 -964 
Q 572 -1056 469 -1094 
Q 641 -1147 1006 -1147 
Q 1300 -1147 1544 -920 
Q 1788 -694 1863 -397 
L 2047 353 
Q 1700 0 1325 0 
Q 1050 0 854 140 
Q 659 281 556 515 
Q 453 750 453 1013 
Q 453 1306 573 1628 
Q 694 1950 911 2225 
Q 1128 2500 1409 2664 
Q 1691 2828 2003 2828 
Q 2191 2828 2341 2725 
Q 2491 2622 2578 2450 
Q 2641 2700 2853 2700 
Q 2934 2700 2990 2651 
Q 3047 2603 3047 2522 
Q 3047 2503 3045 2493 
Q 3044 2484 3041 2472 
L 2309 -434 
Q 2259 -634 2125 -800 
Q 1991 -966 1809 -1077 
Q 1628 -1188 1412 -1250 
Q 1197 -1313 997 -1313 
Q 631 -1313 361 -1242 
Q 91 -1172 91 -916 
z
M 1338 166 
Q 1747 166 2144 728 
L 2497 2125 
Q 2453 2347 2322 2505 
Q 2191 2663 1991 2663 
Q 1778 2663 1589 2489 
Q 1400 2316 1275 2075 
Q 1156 1844 1045 1411 
Q 934 978 934 728 
Q 934 509 1034 337 
Q 1134 166 1338 166 
z
" transform="scale(0.015625)"/>
      <path id="Cmr10-28" d="M 1984 -1588 
Q 1628 -1306 1370 -942 
Q 1113 -578 948 -165 
Q 784 247 703 697 
Q 622 1147 622 1600 
Q 622 2059 703 2509 
Q 784 2959 951 3375 
Q 1119 3791 1378 4153 
Q 1638 4516 1984 4788 
Q 1984 4800 2016 4800 
L 2075 4800 
Q 2094 4800 2109 4783 
Q 2125 4766 2125 4744 
Q 2125 4716 2113 4703 
Q 1800 4397 1592 4047 
Q 1384 3697 1257 3301 
Q 1131 2906 1075 2482 
Q 1019 2059 1019 1600 
Q 1019 -434 2106 -1491 
Q 2125 -1509 2125 -1544 
Q 2125 -1559 2108 -1579 
Q 2091 -1600 2075 -1600 
L 2016 -1600 
Q 1984 -1600 1984 -1588 
z
" transform="scale(0.015625)"/>
      <path id="Cmmi10-69" d="M 500 459 
Q 500 578 550 709 
L 1069 2088 
Q 1153 2322 1153 2472 
Q 1153 2663 1013 2663 
Q 759 2663 595 2402 
Q 431 2141 353 1819 
Q 341 1778 300 1778 
L 225 1778 
Q 172 1778 172 1838 
L 172 1856 
Q 275 2238 487 2533 
Q 700 2828 1025 2828 
Q 1253 2828 1411 2678 
Q 1569 2528 1569 2297 
Q 1569 2178 1516 2047 
L 997 672 
Q 909 459 909 288 
Q 909 97 1056 97 
Q 1306 97 1473 364 
Q 1641 631 1709 941 
Q 1722 978 1759 978 
L 1838 978 
Q 1863 978 1878 961 
Q 1894 944 1894 922 
Q 1894 916 1888 903 
Q 1800 541 1583 234 
Q 1366 -72 1044 -72 
Q 819 -72 659 83 
Q 500 238 500 459 
z
M 1222 3878 
Q 1222 4013 1334 4122 
Q 1447 4231 1581 4231 
Q 1691 4231 1761 4164 
Q 1831 4097 1831 3994 
Q 1831 3850 1717 3742 
Q 1603 3634 1466 3634 
Q 1363 3634 1292 3704 
Q 1222 3775 1222 3878 
z
" transform="scale(0.015625)"/>
      <path id="Cmmi10-3b" d="M 634 -1153 
Q 634 -1125 659 -1100 
Q 891 -878 1019 -587 
Q 1147 -297 1147 25 
L 1147 103 
Q 1044 0 891 0 
Q 744 0 641 103 
Q 538 206 538 353 
Q 538 503 641 603 
Q 744 703 891 703 
Q 1119 703 1216 492 
Q 1313 281 1313 25 
Q 1313 -331 1170 -651 
Q 1028 -972 769 -1228 
Q 744 -1241 728 -1241 
Q 697 -1241 665 -1212 
Q 634 -1184 634 -1153 
z
" transform="scale(0.015625)"/>
      <path id="Cmmi10-78" d="M 500 184 
Q 613 97 819 97 
Q 1019 97 1172 289 
Q 1325 481 1381 709 
L 1672 1844 
Q 1741 2153 1741 2266 
Q 1741 2425 1652 2544 
Q 1563 2663 1403 2663 
Q 1200 2663 1022 2536 
Q 844 2409 722 2214 
Q 600 2019 550 1819 
Q 538 1778 500 1778 
L 422 1778 
Q 372 1778 372 1838 
L 372 1856 
Q 434 2094 584 2320 
Q 734 2547 951 2687 
Q 1169 2828 1416 2828 
Q 1650 2828 1839 2703 
Q 2028 2578 2106 2363 
Q 2216 2559 2386 2693 
Q 2556 2828 2759 2828 
Q 2897 2828 3040 2779 
Q 3184 2731 3275 2631 
Q 3366 2531 3366 2381 
Q 3366 2219 3261 2101 
Q 3156 1984 2994 1984 
Q 2891 1984 2822 2050 
Q 2753 2116 2753 2216 
Q 2753 2350 2845 2451 
Q 2938 2553 3066 2572 
Q 2950 2663 2747 2663 
Q 2541 2663 2389 2472 
Q 2238 2281 2175 2047 
L 1894 916 
Q 1825 659 1825 494 
Q 1825 331 1917 214 
Q 2009 97 2163 97 
Q 2463 97 2698 361 
Q 2934 625 3009 941 
Q 3022 978 3059 978 
L 3138 978 
Q 3163 978 3178 961 
Q 3194 944 3194 922 
Q 3194 916 3188 903 
Q 3097 522 2806 225 
Q 2516 -72 2150 -72 
Q 1916 -72 1727 54 
Q 1538 181 1459 397 
Q 1359 209 1182 68 
Q 1006 -72 806 -72 
Q 669 -72 523 -23 
Q 378 25 287 125 
Q 197 225 197 378 
Q 197 528 301 651 
Q 406 775 563 775 
Q 669 775 741 711 
Q 813 647 813 544 
Q 813 409 723 309 
Q 634 209 500 184 
z
" transform="scale(0.015625)"/>
      <path id="Cmr10-29" d="M 416 -1600 
Q 359 -1600 359 -1544 
Q 359 -1516 372 -1503 
Q 1466 -434 1466 1600 
Q 1466 3634 384 4691 
Q 359 4706 359 4744 
Q 359 4766 376 4783 
Q 394 4800 416 4800 
L 475 4800 
Q 494 4800 506 4788 
Q 966 4425 1272 3906 
Q 1578 3388 1720 2800 
Q 1863 2213 1863 1600 
Q 1863 1147 1786 708 
Q 1709 269 1542 -157 
Q 1375 -584 1119 -945 
Q 863 -1306 506 -1588 
Q 494 -1600 475 -1600 
L 416 -1600 
z
" transform="scale(0.015625)"/>
      <path id="Cmr10-3d" d="M 481 850 
Q 428 850 393 890 
Q 359 931 359 978 
Q 359 1031 393 1068 
Q 428 1106 481 1106 
L 4500 1106 
Q 4547 1106 4581 1068 
Q 4616 1031 4616 978 
Q 4616 931 4581 890 
Q 4547 850 4500 850 
L 481 850 
z
M 481 2094 
Q 428 2094 393 2131 
Q 359 2169 359 2222 
Q 359 2269 393 2309 
Q 428 2350 481 2350 
L 4500 2350 
Q 4547 2350 4581 2309 
Q 4616 2269 4616 2222 
Q 4616 2169 4581 2131 
Q 4547 2094 4500 2094 
L 481 2094 
z
" transform="scale(0.015625)"/>
      <path id="DejaVuSerif-Italic-2c" d="M 125 -622 
Q 463 -406 656 -114 
Q 850 178 931 594 
L 953 709 
L 1569 709 
Q 1441 175 1139 -208 
Q 838 -591 328 -872 
L 125 -622 
z
" transform="scale(0.015625)"/>
      <path id="DejaVuSerif-Italic-68" d="M 309 0 
L 1191 4531 
L 641 4531 
L 703 4863 
L 1828 4863 
L 1416 2731 
Q 1641 3069 1928 3241 
Q 2216 3413 2553 3413 
Q 3103 3413 3300 3097 
Q 3422 2906 3422 2588 
Q 3422 2378 3369 2113 
L 3022 331 
L 3534 331 
L 3472 0 
L 2381 0 
L 2756 1931 
Q 2819 2253 2819 2469 
Q 2819 2659 2769 2763 
Q 2666 2988 2284 2988 
Q 1884 2988 1617 2697 
Q 1350 2406 1244 1850 
L 884 0 
L 309 0 
z
" transform="scale(0.015625)"/>
      <path id="Cmmi10-62" d="M 1106 -72 
Q 719 -72 503 231 
Q 288 534 288 941 
Q 288 1000 317 1173 
Q 347 1347 347 1388 
L 966 3872 
Q 991 3981 997 4044 
Q 997 4147 581 4147 
Q 519 4147 519 4231 
Q 522 4247 533 4287 
Q 544 4328 561 4350 
Q 578 4372 609 4372 
L 1472 4441 
Q 1550 4441 1550 4359 
L 1075 2472 
Q 1438 2828 1806 2828 
Q 2078 2828 2273 2684 
Q 2469 2541 2566 2306 
Q 2663 2072 2663 1806 
Q 2663 1497 2542 1167 
Q 2422 838 2209 555 
Q 1997 272 1712 100 
Q 1428 -72 1106 -72 
z
M 1119 97 
Q 1338 97 1528 280 
Q 1719 463 1838 691 
Q 1966 947 2077 1386 
Q 2188 1825 2188 2088 
Q 2188 2316 2092 2489 
Q 1997 2663 1791 2663 
Q 1559 2663 1348 2492 
Q 1138 2322 978 2088 
L 800 1363 
Q 697 959 691 716 
Q 691 475 795 286 
Q 900 97 1119 97 
z
" transform="scale(0.015625)"/>
      <path id="Cmmi10-4b" d="M 300 0 
Q 238 0 238 84 
Q 241 100 250 139 
Q 259 178 276 201 
Q 294 225 319 225 
Q 709 225 863 269 
Q 947 297 984 441 
L 1863 3956 
Q 1875 4019 1875 4044 
Q 1875 4113 1797 4122 
Q 1678 4147 1338 4147 
Q 1275 4147 1275 4231 
Q 1297 4313 1309 4342 
Q 1322 4372 1381 4372 
L 3103 4372 
Q 3169 4372 3169 4288 
Q 3166 4272 3156 4234 
Q 3147 4197 3131 4172 
Q 3116 4147 3084 4147 
Q 2694 4147 2541 4103 
Q 2456 4072 2419 3928 
L 1900 1856 
L 4409 3794 
Q 4416 3806 4489 3879 
Q 4563 3953 4563 4025 
Q 4563 4147 4347 4147 
Q 4281 4147 4281 4231 
Q 4294 4281 4301 4309 
Q 4309 4338 4329 4355 
Q 4350 4372 4391 4372 
L 5631 4372 
Q 5666 4372 5681 4347 
Q 5697 4322 5697 4288 
Q 5694 4272 5683 4231 
Q 5672 4191 5655 4169 
Q 5638 4147 5606 4147 
Q 5138 4147 4581 3713 
Q 4578 3709 4572 3707 
Q 4566 3706 4559 3704 
Q 4553 3703 4550 3700 
L 3231 2675 
L 4191 428 
Q 4278 288 4378 256 
Q 4478 225 4684 225 
Q 4750 225 4750 141 
Q 4731 66 4712 33 
Q 4694 0 4641 0 
L 3156 0 
Q 3097 0 3097 84 
Q 3106 150 3118 187 
Q 3131 225 3181 225 
Q 3344 225 3458 258 
Q 3572 291 3572 409 
Q 3572 453 3566 475 
L 2772 2322 
L 1838 1600 
L 1544 416 
Q 1528 338 1528 325 
Q 1528 259 1606 250 
Q 1728 225 2069 225 
Q 2131 225 2131 141 
Q 2109 50 2096 25 
Q 2084 0 2022 0 
L 300 0 
z
" transform="scale(0.015625)"/>
      <path id="Cmr10-31" d="M 594 0 
L 594 225 
Q 1394 225 1394 428 
L 1394 3788 
Q 1063 3628 556 3628 
L 556 3853 
Q 1341 3853 1741 4263 
L 1831 4263 
Q 1853 4263 1873 4245 
Q 1894 4228 1894 4206 
L 1894 428 
Q 1894 225 2694 225 
L 2694 0 
L 594 0 
z
" transform="scale(0.015625)"/>
      <path id="Cmr10-32" d="M 319 0 
L 319 172 
Q 319 188 331 206 
L 1325 1306 
Q 1550 1550 1690 1715 
Q 1831 1881 1968 2097 
Q 2106 2313 2186 2536 
Q 2266 2759 2266 3009 
Q 2266 3272 2169 3511 
Q 2072 3750 1880 3894 
Q 1688 4038 1416 4038 
Q 1138 4038 916 3870 
Q 694 3703 603 3438 
Q 628 3444 672 3444 
Q 816 3444 917 3347 
Q 1019 3250 1019 3097 
Q 1019 2950 917 2848 
Q 816 2747 672 2747 
Q 522 2747 420 2851 
Q 319 2956 319 3097 
Q 319 3338 409 3548 
Q 500 3759 670 3923 
Q 841 4088 1055 4175 
Q 1269 4263 1509 4263 
Q 1875 4263 2190 4108 
Q 2506 3953 2690 3670 
Q 2875 3388 2875 3009 
Q 2875 2731 2753 2481 
Q 2631 2231 2440 2026 
Q 2250 1822 1953 1562 
Q 1656 1303 1563 1216 
L 838 519 
L 1453 519 
Q 1906 519 2211 526 
Q 2516 534 2534 550 
Q 2609 631 2688 1141 
L 2875 1141 
L 2694 0 
L 319 0 
z
" transform="scale(0.015625)"/>
      <path id="DejaVuSerif-Italic-77" d="M 3741 728 
Q 4156 1178 4250 1344 
Q 4594 1969 4931 2988 
L 4447 2984 
L 4513 3322 
L 5347 3322 
L 5281 2984 
L 5278 2984 
Q 4959 1825 4656 1266 
Q 4209 469 3719 0 
L 3241 0 
L 2900 2484 
L 1597 0 
L 1138 0 
L 734 2988 
L 359 2981 
L 425 3322 
L 1281 3322 
L 1631 728 
L 2991 3322 
L 3394 3322 
L 3741 728 
z
" transform="scale(0.015625)"/>
     </defs>
     <use xlink:href="#DejaVuSerif-Italic-61" transform="translate(0 0.015625)"/>
     <use xlink:href="#DejaVuSerif-Italic-64" transform="translate(59.619141 0.015625)"/>
     <use xlink:href="#DejaVuSerif-Italic-64" transform="translate(123.632812 0.015625)"/>
     <use xlink:href="#DejaVuSerif-Italic-72" transform="translate(187.646484 0.015625)"/>
     <use xlink:href="#DejaVuSerif-Italic-65" transform="translate(235.449219 0.015625)"/>
     <use xlink:href="#DejaVuSerif-Italic-73" transform="translate(294.628906 0.015625)"/>
     <use xlink:href="#DejaVuSerif-Italic-73" transform="translate(345.947266 0.015625)"/>
     <use xlink:href="#DejaVuSerif-Italic-20" transform="translate(397.265625 0.015625)"/>
     <use xlink:href="#DejaVuSerif-Italic-63" transform="translate(429.052734 0.015625)"/>
     <use xlink:href="#DejaVuSerif-Italic-6f" transform="translate(485.058594 0.015625)"/>
     <use xlink:href="#DejaVuSerif-Italic-6e" transform="translate(545.263672 0.015625)"/>
     <use xlink:href="#DejaVuSerif-Italic-73" transform="translate(609.667969 0.015625)"/>
     <use xlink:href="#DejaVuSerif-Italic-74" transform="translate(660.986328 0.015625)"/>
     <use xlink:href="#DejaVuSerif-Italic-72" transform="translate(701.171875 0.015625)"/>
     <use xlink:href="#DejaVuSerif-Italic-75" transform="translate(748.974609 0.015625)"/>
     <use xlink:href="#DejaVuSerif-Italic-63" transform="translate(813.378906 0.015625)"/>
     <use xlink:href="#DejaVuSerif-Italic-74" transform="translate(869.384766 0.015625)"/>
     <use xlink:href="#DejaVuSerif-Italic-69" transform="translate(909.570312 0.015625)"/>
     <use xlink:href="#DejaVuSerif-Italic-6f" transform="translate(941.552734 0.015625)"/>
     <use xlink:href="#DejaVuSerif-Italic-6e" transform="translate(1001.757812 0.015625)"/>
     <use xlink:href="#DejaVuSerif-Italic-20" transform="translate(1066.162109 0.015625)"/>
     <use xlink:href="#DejaVuSerif-Italic-20" transform="translate(1097.949219 0.015625)"/>
     <use xlink:href="#DejaVuSerif-Italic-b7" transform="translate(1129.736328 0.015625)"/>
     <use xlink:href="#DejaVuSerif-Italic-20" transform="translate(1161.523438 0.015625)"/>
     <use xlink:href="#DejaVuSerif-Italic-20" transform="translate(1193.310547 0.015625)"/>
     <use xlink:href="#Cmmi10-67" transform="translate(1225.097656 0.015625)"/>
     <use xlink:href="#Cmr10-28" transform="translate(1272.802734 0.015625)"/>
     <use xlink:href="#Cmmi10-69" transform="translate(1311.621094 0.015625)"/>
     <use xlink:href="#Cmmi10-3b" transform="translate(1346.044922 0.015625)"/>
     <use xlink:href="#Cmmi10-78" transform="translate(1391.289062 0.015625)"/>
     <use xlink:href="#Cmr10-29" transform="translate(1448.369141 0.015625)"/>
     <use xlink:href="#Cmr10-3d" transform="translate(1504.746094 0.015625)"/>
     <use xlink:href="#Cmmi10-69" transform="translate(1599.990234 0.015625)"/>
     <use xlink:href="#DejaVuSerif-Italic-2c" transform="translate(1634.414062 0.015625)"/>
     <use xlink:href="#DejaVuSerif-Italic-20" transform="translate(1666.201172 0.015625)"/>
     <use xlink:href="#DejaVuSerif-Italic-74" transform="translate(1697.988281 0.015625)"/>
     <use xlink:href="#DejaVuSerif-Italic-68" transform="translate(1738.173828 0.015625)"/>
     <use xlink:href="#DejaVuSerif-Italic-65" transform="translate(1802.578125 0.015625)"/>
     <use xlink:href="#DejaVuSerif-Italic-6e" transform="translate(1861.757812 0.015625)"/>
     <use xlink:href="#DejaVuSerif-Italic-20" transform="translate(1926.162109 0.015625)"/>
     <use xlink:href="#Cmmi10-62" transform="translate(1957.949219 0.015625)"/>
     <use xlink:href="#Cmmi10-69" transform="translate(2000.869141 -16.990625) scale(0.7)"/>
     <use xlink:href="#DejaVuSerif-Italic-20" transform="translate(2031.343164 0.015625)"/>
     <use xlink:href="#DejaVuSerif-Italic-20" transform="translate(2063.130273 0.015625)"/>
     <use xlink:href="#DejaVuSerif-Italic-b7" transform="translate(2094.917383 0.015625)"/>
     <use xlink:href="#DejaVuSerif-Italic-20" transform="translate(2126.704492 0.015625)"/>
     <use xlink:href="#DejaVuSerif-Italic-20" transform="translate(2158.491602 0.015625)"/>
     <use xlink:href="#Cmmi10-4b" transform="translate(2190.278711 0.015625)"/>
     <use xlink:href="#Cmr10-3d" transform="translate(2292.749414 0.015625)"/>
     <use xlink:href="#Cmr10-31" transform="translate(2387.993555 0.015625)"/>
     <use xlink:href="#Cmr10-32" transform="translate(2437.993555 0.015625)"/>
     <use xlink:href="#DejaVuSerif-Italic-20" transform="translate(2487.993555 0.015625)"/>
     <use xlink:href="#DejaVuSerif-Italic-73" transform="translate(2519.780664 0.015625)"/>
     <use xlink:href="#DejaVuSerif-Italic-68" transform="translate(2571.099023 0.015625)"/>
     <use xlink:href="#DejaVuSerif-Italic-6f" transform="translate(2635.50332 0.015625)"/>
     <use xlink:href="#DejaVuSerif-Italic-77" transform="translate(2695.708398 0.015625)"/>
     <use xlink:href="#DejaVuSerif-Italic-6e" transform="translate(2781.304102 0.015625)"/>
    </g>
   </g>
   <g id="line2d_1">
    <path d="M 507.806031 285.452308 
L 507.65477 277.252076 
L 507.201194 269.063001 
L 506.445921 260.896224 
L 505.389976 252.762856 
L 504.034798 244.673964 
L 502.382229 236.640553 
L 500.434519 228.673552 
L 498.194317 220.7838 
L 495.66467 212.982033 
L 492.849022 205.278864 
L 489.751202 197.684775 
L 486.375426 190.210097 
L 482.726285 182.864999 
L 478.808746 175.659476 
L 474.628137 168.60333 
L 470.190148 161.706162 
L 465.500815 154.977355 
L 460.566519 148.426065 
L 455.393973 142.061204 
L 449.990214 135.891432 
L 444.362596 129.925145 
L 438.518774 124.170457 
L 432.466698 118.635201 
L 426.214604 113.326905 
L 419.770997 108.252793 
L 413.144644 103.419768 
L 406.344561 98.834406 
L 399.379999 94.502944 
L 392.260434 90.431277 
L 384.995552 86.624944 
L 377.595237 83.089123 
L 370.069559 79.828625 
L 362.428755 76.847886 
L 354.683222 74.150962 
L 346.843498 71.741522 
L 338.920248 69.622844 
L 330.924253 67.79781 
L 322.866392 66.268904 
L 314.757627 65.038206 
L 306.608991 64.107389 
L 298.431571 63.477722 
L 290.236492 63.150059 
L 282.034904 63.124848 
L 273.837965 63.402121 
L 265.656829 63.981503 
L 257.502624 64.862205 
L 249.386447 66.043028 
L 241.319338 67.522367 
L 233.312274 69.298207 
L 225.376149 71.368134 
L 217.521759 73.729331 
L 209.759792 76.378586 
L 202.100808 79.312293 
L 194.555226 82.526462 
L 187.133314 86.01672 
L 179.845169 89.778318 
L 172.700706 93.806138 
L 165.709646 98.0947 
L 158.881501 102.63817 
L 152.22556 107.430365 
L 145.75088 112.464767 
L 139.466269 117.734525 
L 133.380278 123.232469 
L 127.501187 128.95112 
L 121.836995 134.882698 
L 116.395407 141.019131 
L 111.183829 147.352071 
L 106.209349 153.872902 
L 101.478737 160.572752 
L 96.998428 167.442506 
L 92.774518 174.472816 
L 88.812754 181.654119 
L 85.118526 188.976643 
L 81.696859 196.430426 
L 78.55241 204.005327 
L 75.689457 211.69104 
L 73.111894 219.477108 
L 70.823229 227.352937 
L 68.826575 235.307814 
L 67.12465 243.330914 
L 65.719767 251.411321 
L 64.613839 259.538043 
L 63.808371 267.700022 
L 63.304459 275.886154 
L 63.102787 284.085301 
L 63.20363 292.286308 
L 63.606852 300.478017 
L 64.311903 308.649283 
L 65.317825 316.788988 
L 66.623248 324.886059 
L 68.226397 332.929478 
L 70.12509 340.908303 
L 72.316744 348.811678 
L 74.798378 356.62885 
L 77.566615 364.349183 
L 80.617689 371.962174 
L 83.947448 379.457465 
L 87.551362 386.824858 
L 91.424529 394.05433 
L 95.561678 401.136045 
L 99.957181 408.060367 
L 104.605057 414.817876 
L 109.498984 421.399378 
L 114.632301 427.795919 
L 119.998026 433.998795 
L 125.588858 439.999568 
L 131.397191 445.790074 
L 137.415122 451.362433 
L 143.634463 456.709066 
L 150.046753 461.822696 
L 156.643268 466.696368 
L 163.415033 471.32345 
L 170.352834 475.697647 
L 177.447232 479.813008 
L 184.688576 483.663933 
L 192.067012 487.245184 
L 199.572503 490.551887 
L 207.194837 493.579544 
L 214.923644 496.324036 
L 222.748407 498.781628 
L 230.658482 500.948978 
L 238.643105 502.823135 
L 246.691415 504.401551 
L 254.79246 505.682078 
L 262.935219 506.662974 
L 271.108614 507.342904 
L 279.301523 507.720943 
L 287.502802 507.796576 
L 295.70129 507.569701 
L 303.885834 507.040627 
L 312.045299 506.210073 
L 320.168583 505.07917 
L 328.244633 503.649455 
L 336.262464 501.922874 
L 344.211165 499.901777 
L 352.079922 497.588913 
L 359.85803 494.987428 
L 367.534906 492.100863 
L 375.100105 488.933144 
L 382.543335 485.488581 
L 389.854468 481.771861 
L 397.023559 477.78804 
L 404.040852 473.54254 
L 410.896801 469.041134 
L 417.582078 464.289949 
L 424.087586 459.295449 
L 430.404476 454.064427 
L 436.524153 448.604003 
L 442.438291 442.921604 
L 448.138843 437.024962 
L 453.618054 430.922099 
L 458.868468 424.621318 
L 463.882943 418.131193 
L 468.654656 411.460553 
L 473.177114 404.618474 
L 477.444166 397.614264 
L 481.450005 390.457454 
L 485.189182 383.15778 
L 488.656609 375.725173 
L 491.847568 368.169747 
L 494.757718 360.501781 
L 497.3831 352.731707 
L 499.720141 344.870096 
L 501.765663 336.927646 
L 503.516882 328.915161 
L 504.971415 320.843543 
L 506.127284 312.723774 
L 506.982916 304.566901 
L 507.537147 296.384022 
L 507.789222 288.186269 
L 507.806031 285.452308 
L 507.806031 285.452308 
" clip-path="url(#p92273a8acd)" style="fill: none; stroke: #d0d0d0; stroke-width: 2; stroke-linecap: square"/>
   </g>
   <g id="patch_2">
    <path d="M 285.452308 455.487508 
C 330.54617 455.487508 373.799175 437.571526 405.685351 405.685351 
C 437.571526 373.799175 455.487508 330.54617 455.487508 285.452308 
C 455.487508 240.358446 437.571526 197.10544 405.685351 165.219265 
C 373.799175 133.333089 330.54617 115.417108 285.452308 115.417108 
C 240.358446 115.417108 197.10544 133.333089 165.219265 165.219265 
C 133.333089 197.10544 115.417108 240.358446 115.417108 285.452308 
C 115.417108 330.54617 133.333089 373.799175 165.219265 405.685351 
C 197.10544 437.571526 240.358446 455.487508 285.452308 455.487508 
z
" clip-path="url(#p92273a8acd)" style="stroke: #cfb991; stroke-width: 2; stroke-linejoin: miter"/>
   </g>
   <g id="text_3">
    <!-- adaptive budget 2: read $g$, then $b_i$ on that branch  $\Rightarrow$  $D=1$ -->
    <g style="fill: #d0d0d0" transform="translate(143.902308 549.905046) scale(0.095 -0.095)">
     <defs>
      <path id="DejaVuSerif-64" d="M 3359 331 
L 3909 331 
L 3909 0 
L 2784 0 
L 2784 519 
Q 2616 206 2355 57 
Q 2094 -91 1709 -91 
Q 1097 -91 708 395 
Q 319 881 319 1663 
Q 319 2444 706 2928 
Q 1094 3413 1709 3413 
Q 2094 3413 2355 3264 
Q 2616 3116 2784 2803 
L 2784 4531 
L 2241 4531 
L 2241 4863 
L 3359 4863 
L 3359 331 
z
M 2784 1497 
L 2784 1825 
Q 2784 2422 2554 2737 
Q 2325 3053 1888 3053 
Q 1444 3053 1217 2703 
Q 991 2353 991 1663 
Q 991 975 1217 622 
Q 1444 269 1888 269 
Q 2325 269 2554 583 
Q 2784 897 2784 1497 
z
" transform="scale(0.015625)"/>
      <path id="DejaVuSerif-70" d="M 1313 1825 
L 1313 1497 
Q 1313 897 1542 583 
Q 1772 269 2209 269 
Q 2650 269 2876 622 
Q 3103 975 3103 1663 
Q 3103 2353 2876 2703 
Q 2650 3053 2209 3053 
Q 1772 3053 1542 2737 
Q 1313 2422 1313 1825 
z
M 738 2988 
L 184 2988 
L 184 3322 
L 1313 3322 
L 1313 2803 
Q 1481 3116 1742 3264 
Q 2003 3413 2388 3413 
Q 3000 3413 3387 2928 
Q 3775 2444 3775 1663 
Q 3775 881 3387 395 
Q 3000 -91 2388 -91 
Q 2003 -91 1742 57 
Q 1481 206 1313 519 
L 1313 -997 
L 1856 -997 
L 1856 -1331 
L 184 -1331 
L 184 -997 
L 738 -997 
L 738 2988 
z
" transform="scale(0.015625)"/>
      <path id="DejaVuSerif-76" d="M 1581 0 
L 359 2988 
L -19 2988 
L -19 3322 
L 1509 3322 
L 1509 2988 
L 978 2988 
L 1913 703 
L 2847 2988 
L 2350 2988 
L 2350 3322 
L 3597 3322 
L 3597 2988 
L 3225 2988 
L 2003 0 
L 1581 0 
z
" transform="scale(0.015625)"/>
      <path id="DejaVuSerif-62" d="M 738 331 
L 738 4531 
L 184 4531 
L 184 4863 
L 1313 4863 
L 1313 2803 
Q 1481 3116 1742 3264 
Q 2003 3413 2388 3413 
Q 3000 3413 3387 2928 
Q 3775 2444 3775 1663 
Q 3775 881 3387 395 
Q 3000 -91 2388 -91 
Q 2003 -91 1742 57 
Q 1481 206 1313 519 
L 1313 0 
L 184 0 
L 184 331 
L 738 331 
z
M 1313 1497 
Q 1313 897 1542 583 
Q 1772 269 2209 269 
Q 2650 269 2876 622 
Q 3103 975 3103 1663 
Q 3103 2353 2876 2703 
Q 2650 3053 2209 3053 
Q 1772 3053 1542 2737 
Q 1313 2422 1313 1825 
L 1313 1497 
z
" transform="scale(0.015625)"/>
      <path id="DejaVuSerif-75" d="M 2266 3322 
L 3341 3322 
L 3341 331 
L 3884 331 
L 3884 0 
L 2766 0 
L 2766 588 
Q 2606 256 2353 82 
Q 2100 -91 1766 -91 
Q 1213 -91 952 223 
Q 691 538 691 1209 
L 691 2988 
L 172 2988 
L 172 3322 
L 1269 3322 
L 1269 1388 
Q 1269 781 1417 556 
Q 1566 331 1947 331 
Q 2347 331 2556 625 
Q 2766 919 2766 1478 
L 2766 2988 
L 2266 2988 
L 2266 3322 
z
" transform="scale(0.015625)"/>
      <path id="DejaVuSerif-32" d="M 819 3553 
L 469 3553 
L 469 4384 
Q 803 4563 1142 4656 
Q 1481 4750 1806 4750 
Q 2534 4750 2956 4397 
Q 3378 4044 3378 3438 
Q 3378 2753 2422 1800 
Q 2347 1728 2309 1691 
L 1131 513 
L 3078 513 
L 3078 1088 
L 3444 1088 
L 3444 0 
L 434 0 
L 434 341 
L 1850 1753 
Q 2319 2222 2519 2614 
Q 2719 3006 2719 3438 
Q 2719 3909 2473 4175 
Q 2228 4441 1797 4441 
Q 1350 4441 1106 4219 
Q 863 3997 819 3553 
z
" transform="scale(0.015625)"/>
      <path id="DejaVuSerif-3a" d="M 666 325 
Q 666 500 786 622 
Q 906 744 1081 744 
Q 1256 744 1376 622 
Q 1497 500 1497 325 
Q 1497 150 1378 29 
Q 1259 -91 1081 -91 
Q 903 -91 784 29 
Q 666 150 666 325 
z
M 666 2363 
Q 666 2538 786 2658 
Q 906 2778 1081 2778 
Q 1259 2778 1378 2659 
Q 1497 2541 1497 2363 
Q 1497 2184 1378 2065 
Q 1259 1947 1081 1947 
Q 906 1947 786 2067 
Q 666 2188 666 2363 
z
" transform="scale(0.015625)"/>
      <path id="DejaVuSerif-72" d="M 3059 3328 
L 3059 2497 
L 2728 2497 
Q 2713 2744 2591 2866 
Q 2469 2988 2234 2988 
Q 1809 2988 1582 2694 
Q 1356 2400 1356 1850 
L 1356 331 
L 2022 331 
L 2022 0 
L 263 0 
L 263 331 
L 781 331 
L 781 2994 
L 231 2994 
L 231 3322 
L 1356 3322 
L 1356 2731 
Q 1525 3078 1790 3245 
Q 2056 3413 2438 3413 
Q 2578 3413 2733 3391 
Q 2888 3369 3059 3328 
z
" transform="scale(0.015625)"/>
      <path id="DejaVuSerif-2c" d="M 231 -622 
Q 525 -406 662 -114 
Q 800 178 800 594 
L 800 709 
L 1416 709 
Q 1391 175 1164 -208 
Q 938 -591 481 -872 
L 231 -622 
z
" transform="scale(0.015625)"/>
      <path id="DejaVuSerif-68" d="M 263 0 
L 263 331 
L 781 331 
L 781 4531 
L 231 4531 
L 231 4863 
L 1356 4863 
L 1356 2731 
Q 1516 3069 1770 3241 
Q 2025 3413 2363 3413 
Q 2913 3413 3172 3097 
Q 3431 2781 3431 2113 
L 3431 331 
L 3944 331 
L 3944 0 
L 2356 0 
L 2356 331 
L 2853 331 
L 2853 1931 
Q 2853 2541 2704 2764 
Q 2556 2988 2175 2988 
Q 1775 2988 1565 2697 
Q 1356 2406 1356 1850 
L 1356 331 
L 1856 331 
L 1856 0 
L 263 0 
z
" transform="scale(0.015625)"/>
      <path id="DejaVuSerif-6e" d="M 263 0 
L 263 331 
L 781 331 
L 781 2988 
L 231 2988 
L 231 3322 
L 1356 3322 
L 1356 2731 
Q 1516 3069 1770 3241 
Q 2025 3413 2363 3413 
Q 2913 3413 3172 3097 
Q 3431 2781 3431 2113 
L 3431 331 
L 3944 331 
L 3944 0 
L 2356 0 
L 2356 331 
L 2853 331 
L 2853 1931 
Q 2853 2541 2703 2767 
Q 2553 2994 2175 2994 
Q 1775 2994 1565 2701 
Q 1356 2409 1356 1850 
L 1356 331 
L 1856 331 
L 1856 0 
L 263 0 
z
" transform="scale(0.015625)"/>
      <path id="DejaVuSerif-6f" d="M 1925 219 
Q 2388 219 2623 584 
Q 2859 950 2859 1663 
Q 2859 2375 2623 2739 
Q 2388 3103 1925 3103 
Q 1463 3103 1227 2739 
Q 991 2375 991 1663 
Q 991 950 1228 584 
Q 1466 219 1925 219 
z
M 1925 -91 
Q 1200 -91 759 389 
Q 319 869 319 1663 
Q 319 2456 758 2934 
Q 1197 3413 1925 3413 
Q 2653 3413 3092 2934 
Q 3531 2456 3531 1663 
Q 3531 869 3092 389 
Q 2653 -91 1925 -91 
z
" transform="scale(0.015625)"/>
      <path id="Cmsy10-29" d="M 481 850 
Q 428 850 393 890 
Q 359 931 359 978 
Q 359 1031 393 1068 
Q 428 1106 481 1106 
L 4634 1106 
Q 5009 1416 5453 1600 
Q 5009 1784 4634 2094 
L 481 2094 
Q 428 2094 393 2131 
Q 359 2169 359 2222 
Q 359 2269 393 2309 
Q 428 2350 481 2350 
L 4353 2350 
Q 4194 2516 3950 2850 
Q 3706 3184 3706 3291 
Q 3706 3319 3723 3339 
Q 3741 3359 3769 3359 
L 3897 3359 
Q 3938 3359 3950 3322 
Q 4109 3009 4314 2750 
Q 4519 2491 4787 2272 
Q 5056 2053 5353 1906 
Q 5650 1759 5991 1672 
Q 6034 1644 6034 1600 
Q 6034 1550 5991 1538 
Q 5325 1369 4792 934 
Q 4259 500 3950 -122 
Q 3938 -159 3897 -159 
L 3769 -159 
Q 3706 -159 3706 -91 
Q 3706 -16 3832 179 
Q 3959 375 4111 567 
Q 4263 759 4353 850 
L 481 850 
z
" transform="scale(0.015625)"/>
      <path id="Cmmi10-44" d="M 313 0 
Q 250 0 250 84 
Q 253 100 262 139 
Q 272 178 289 201 
Q 306 225 331 225 
Q 722 225 878 269 
Q 959 297 997 441 
L 1875 3956 
Q 1888 4019 1888 4044 
Q 1888 4113 1813 4122 
Q 1691 4147 1350 4147 
Q 1288 4147 1288 4231 
Q 1291 4247 1300 4286 
Q 1309 4325 1326 4348 
Q 1344 4372 1369 4372 
L 3669 4372 
Q 4116 4372 4450 4155 
Q 4784 3938 4962 3570 
Q 5141 3203 5141 2759 
Q 5141 2269 4937 1778 
Q 4734 1288 4368 881 
Q 4003 475 3534 237 
Q 3066 0 2572 0 
L 313 0 
z
M 1509 275 
Q 1509 225 1728 225 
L 2472 225 
Q 2828 225 3159 372 
Q 3491 519 3750 775 
Q 3991 1016 4175 1406 
Q 4359 1797 4461 2222 
Q 4563 2647 4563 3003 
Q 4563 3263 4486 3472 
Q 4409 3681 4270 3831 
Q 4131 3981 3922 4064 
Q 3713 4147 3450 4147 
L 2747 4147 
Q 2572 4147 2515 4117 
Q 2459 4088 2413 3928 
L 1538 416 
Q 1509 338 1509 275 
z
" transform="scale(0.015625)"/>
     </defs>
     <use xlink:href="#DejaVuSerif-61" transform="translate(0 0.015625)"/>
     <use xlink:href="#DejaVuSerif-64" transform="translate(59.619141 0.015625)"/>
     <use xlink:href="#DejaVuSerif-61" transform="translate(123.632812 0.015625)"/>
     <use xlink:href="#DejaVuSerif-70" transform="translate(183.251953 0.015625)"/>
     <use xlink:href="#DejaVuSerif-74" transform="translate(247.265625 0.015625)"/>
     <use xlink:href="#DejaVuSerif-69" transform="translate(287.451172 0.015625)"/>
     <use xlink:href="#DejaVuSerif-76" transform="translate(319.433594 0.015625)"/>
     <use xlink:href="#DejaVuSerif-65" transform="translate(375.927734 0.015625)"/>
     <use xlink:href="#DejaVuSerif-20" transform="translate(435.107422 0.015625)"/>
     <use xlink:href="#DejaVuSerif-62" transform="translate(466.894531 0.015625)"/>
     <use xlink:href="#DejaVuSerif-75" transform="translate(530.908203 0.015625)"/>
     <use xlink:href="#DejaVuSerif-64" transform="translate(595.3125 0.015625)"/>
     <use xlink:href="#DejaVuSerif-67" transform="translate(659.326172 0.015625)"/>
     <use xlink:href="#DejaVuSerif-65" transform="translate(723.339844 0.015625)"/>
     <use xlink:href="#DejaVuSerif-74" transform="translate(782.519531 0.015625)"/>
     <use xlink:href="#DejaVuSerif-20" transform="translate(822.705078 0.015625)"/>
     <use xlink:href="#DejaVuSerif-32" transform="translate(854.492188 0.015625)"/>
     <use xlink:href="#DejaVuSerif-3a" transform="translate(918.115234 0.015625)"/>
     <use xlink:href="#DejaVuSerif-20" transform="translate(951.806641 0.015625)"/>
     <use xlink:href="#DejaVuSerif-72" transform="translate(983.59375 0.015625)"/>
     <use xlink:href="#DejaVuSerif-65" transform="translate(1031.396484 0.015625)"/>
     <use xlink:href="#DejaVuSerif-61" transform="translate(1090.576172 0.015625)"/>
     <use xlink:href="#DejaVuSerif-64" transform="translate(1150.195312 0.015625)"/>
     <use xlink:href="#DejaVuSerif-20" transform="translate(1214.208984 0.015625)"/>
     <use xlink:href="#Cmmi10-67" transform="translate(1245.996094 0.015625)"/>
     <use xlink:href="#DejaVuSerif-2c" transform="translate(1293.701172 0.015625)"/>
     <use xlink:href="#DejaVuSerif-20" transform="translate(1325.488281 0.015625)"/>
     <use xlink:href="#DejaVuSerif-74" transform="translate(1357.275391 0.015625)"/>
     <use xlink:href="#DejaVuSerif-68" transform="translate(1397.460938 0.015625)"/>
     <use xlink:href="#DejaVuSerif-65" transform="translate(1461.865234 0.015625)"/>
     <use xlink:href="#DejaVuSerif-6e" transform="translate(1521.044922 0.015625)"/>
     <use xlink:href="#DejaVuSerif-20" transform="translate(1585.449219 0.015625)"/>
     <use xlink:href="#Cmmi10-62" transform="translate(1617.236328 0.015625)"/>
     <use xlink:href="#Cmmi10-69" transform="translate(1660.15625 -16.990625) scale(0.7)"/>
     <use xlink:href="#DejaVuSerif-20" transform="translate(1690.630273 0.015625)"/>
     <use xlink:href="#DejaVuSerif-6f" transform="translate(1722.417383 0.015625)"/>
     <use xlink:href="#DejaVuSerif-6e" transform="translate(1782.622461 0.015625)"/>
     <use xlink:href="#DejaVuSerif-20" transform="translate(1847.026758 0.015625)"/>
     <use xlink:href="#DejaVuSerif-74" transform="translate(1878.813867 0.015625)"/>
     <use xlink:href="#DejaVuSerif-68" transform="translate(1918.999414 0.015625)"/>
     <use xlink:href="#DejaVuSerif-61" transform="translate(1983.403711 0.015625)"/>
     <use xlink:href="#DejaVuSerif-74" transform="translate(2043.022852 0.015625)"/>
     <use xlink:href="#DejaVuSerif-20" transform="translate(2083.208398 0.015625)"/>
     <use xlink:href="#DejaVuSerif-62" transform="translate(2114.995508 0.015625)"/>
     <use xlink:href="#DejaVuSerif-72" transform="translate(2179.00918 0.015625)"/>
     <use xlink:href="#DejaVuSerif-61" transform="translate(2226.811914 0.015625)"/>
     <use xlink:href="#DejaVuSerif-6e" transform="translate(2286.431055 0.015625)"/>
     <use xlink:href="#DejaVuSerif-63" transform="translate(2350.835352 0.015625)"/>
     <use xlink:href="#DejaVuSerif-68" transform="translate(2406.841211 0.015625)"/>
     <use xlink:href="#DejaVuSerif-20" transform="translate(2471.245508 0.015625)"/>
     <use xlink:href="#DejaVuSerif-20" transform="translate(2503.032617 0.015625)"/>
     <use xlink:href="#Cmsy10-29" transform="translate(2552.37832 0.015625)"/>
     <use xlink:href="#DejaVuSerif-20" transform="translate(2669.936914 0.015625)"/>
     <use xlink:href="#DejaVuSerif-20" transform="translate(2701.724023 0.015625)"/>
     <use xlink:href="#Cmmi10-44" transform="translate(2733.511133 0.015625)"/>
     <use xlink:href="#Cmr10-3d" transform="translate(2833.78457 0.015625)"/>
     <use xlink:href="#Cmr10-31" transform="translate(2929.028711 0.015625)"/>
    </g>
    <!-- nonadaptive budget 2: any fixed pair  $\Rightarrow$  $D=1/K$ -->
    <g style="fill: #d0d0d0" transform="translate(166.132308 563.281046) scale(0.095 -0.095)">
     <defs>
      <path id="DejaVuSerif-66" d="M 2753 4078 
L 2450 4078 
Q 2447 4313 2317 4434 
Q 2188 4556 1941 4556 
Q 1619 4556 1487 4379 
Q 1356 4203 1356 3750 
L 1356 3322 
L 2284 3322 
L 2284 2988 
L 1356 2988 
L 1356 331 
L 2094 331 
L 2094 0 
L 231 0 
L 231 331 
L 781 331 
L 781 2988 
L 231 2988 
L 231 3322 
L 781 3322 
L 781 3738 
Q 781 4294 1070 4578 
Q 1359 4863 1919 4863 
Q 2128 4863 2337 4825 
Q 2547 4788 2753 4709 
L 2753 4078 
z
" transform="scale(0.015625)"/>
      <path id="DejaVuSerif-78" d="M 1863 2028 
L 2559 2988 
L 2113 2988 
L 2113 3322 
L 3391 3322 
L 3391 2988 
L 2950 2988 
L 2059 1759 
L 3097 331 
L 3531 331 
L 3531 0 
L 1997 0 
L 1997 331 
L 2419 331 
L 1697 1325 
L 972 331 
L 1403 331 
L 1403 0 
L 141 0 
L 141 331 
L 581 331 
L 1497 1594 
L 488 2988 
L 78 2988 
L 78 3322 
L 1563 3322 
L 1563 2988 
L 1166 2988 
L 1863 2028 
z
" transform="scale(0.015625)"/>
      <path id="Cmmi10-3d" d="M 359 -1472 
Q 359 -1453 366 -1447 
L 2591 4722 
Q 2603 4759 2634 4779 
Q 2666 4800 2706 4800 
Q 2763 4800 2798 4765 
Q 2834 4731 2834 4672 
L 2834 4647 
L 609 -1522 
Q 572 -1600 488 -1600 
Q 434 -1600 396 -1562 
Q 359 -1525 359 -1472 
z
" transform="scale(0.015625)"/>
     </defs>
     <use xlink:href="#DejaVuSerif-6e" transform="translate(0 0.015625)"/>
     <use xlink:href="#DejaVuSerif-6f" transform="translate(64.404297 0.015625)"/>
     <use xlink:href="#DejaVuSerif-6e" transform="translate(124.609375 0.015625)"/>
     <use xlink:href="#DejaVuSerif-61" transform="translate(189.013672 0.015625)"/>
     <use xlink:href="#DejaVuSerif-64" transform="translate(248.632812 0.015625)"/>
     <use xlink:href="#DejaVuSerif-61" transform="translate(312.646484 0.015625)"/>
     <use xlink:href="#DejaVuSerif-70" transform="translate(372.265625 0.015625)"/>
     <use xlink:href="#DejaVuSerif-74" transform="translate(436.279297 0.015625)"/>
     <use xlink:href="#DejaVuSerif-69" transform="translate(476.464844 0.015625)"/>
     <use xlink:href="#DejaVuSerif-76" transform="translate(508.447266 0.015625)"/>
     <use xlink:href="#DejaVuSerif-65" transform="translate(564.941406 0.015625)"/>
     <use xlink:href="#DejaVuSerif-20" transform="translate(624.121094 0.015625)"/>
     <use xlink:href="#DejaVuSerif-62" transform="translate(655.908203 0.015625)"/>
     <use xlink:href="#DejaVuSerif-75" transform="translate(719.921875 0.015625)"/>
     <use xlink:href="#DejaVuSerif-64" transform="translate(784.326172 0.015625)"/>
     <use xlink:href="#DejaVuSerif-67" transform="translate(848.339844 0.015625)"/>
     <use xlink:href="#DejaVuSerif-65" transform="translate(912.353516 0.015625)"/>
     <use xlink:href="#DejaVuSerif-74" transform="translate(971.533203 0.015625)"/>
     <use xlink:href="#DejaVuSerif-20" transform="translate(1011.71875 0.015625)"/>
     <use xlink:href="#DejaVuSerif-32" transform="translate(1043.505859 0.015625)"/>
     <use xlink:href="#DejaVuSerif-3a" transform="translate(1107.128906 0.015625)"/>
     <use xlink:href="#DejaVuSerif-20" transform="translate(1140.820312 0.015625)"/>
     <use xlink:href="#DejaVuSerif-61" transform="translate(1172.607422 0.015625)"/>
     <use xlink:href="#DejaVuSerif-6e" transform="translate(1232.226562 0.015625)"/>
     <use xlink:href="#DejaVuSerif-79" transform="translate(1296.630859 0.015625)"/>
     <use xlink:href="#DejaVuSerif-20" transform="translate(1353.125 0.015625)"/>
     <use xlink:href="#DejaVuSerif-66" transform="translate(1384.912109 0.015625)"/>
     <use xlink:href="#DejaVuSerif-69" transform="translate(1421.923828 0.015625)"/>
     <use xlink:href="#DejaVuSerif-78" transform="translate(1453.90625 0.015625)"/>
     <use xlink:href="#DejaVuSerif-65" transform="translate(1510.302734 0.015625)"/>
     <use xlink:href="#DejaVuSerif-64" transform="translate(1569.482422 0.015625)"/>
     <use xlink:href="#DejaVuSerif-20" transform="translate(1633.496094 0.015625)"/>
     <use xlink:href="#DejaVuSerif-70" transform="translate(1665.283203 0.015625)"/>
     <use xlink:href="#DejaVuSerif-61" transform="translate(1729.296875 0.015625)"/>
     <use xlink:href="#DejaVuSerif-69" transform="translate(1788.916016 0.015625)"/>
     <use xlink:href="#DejaVuSerif-72" transform="translate(1820.898438 0.015625)"/>
     <use xlink:href="#DejaVuSerif-20" transform="translate(1868.701172 0.015625)"/>
     <use xlink:href="#DejaVuSerif-20" transform="translate(1900.488281 0.015625)"/>
     <use xlink:href="#Cmsy10-29" transform="translate(1949.833984 0.015625)"/>
     <use xlink:href="#DejaVuSerif-20" transform="translate(2067.392578 0.015625)"/>
     <use xlink:href="#DejaVuSerif-20" transform="translate(2099.179688 0.015625)"/>
     <use xlink:href="#Cmmi10-44" transform="translate(2130.966797 0.015625)"/>
     <use xlink:href="#Cmr10-3d" transform="translate(2231.240234 0.015625)"/>
     <use xlink:href="#Cmr10-31" transform="translate(2326.484375 0.015625)"/>
     <use xlink:href="#Cmmi10-3d" transform="translate(2376.484375 0.015625)"/>
     <use xlink:href="#Cmmi10-4b" transform="translate(2426.484375 0.015625)"/>
    </g>
    <!-- ouroboros: upper bound meets construction  $\Rightarrow$  $G_2(K)=1-1/K$ -->
    <g style="fill: #d0d0d0" transform="translate(131.504808 576.847046) scale(0.095 -0.095)">
     <defs>
      <path id="DejaVuSerif-73" d="M 359 184 
L 359 959 
L 691 959 
Q 703 588 923 403 
Q 1144 219 1575 219 
Q 1963 219 2166 364 
Q 2369 509 2369 788 
Q 2369 1006 2220 1140 
Q 2072 1275 1594 1428 
L 1178 1569 
Q 750 1706 558 1912 
Q 366 2119 366 2438 
Q 366 2894 700 3153 
Q 1034 3413 1625 3413 
Q 1888 3413 2178 3344 
Q 2469 3275 2778 3144 
L 2778 2419 
L 2447 2419 
Q 2434 2741 2221 2922 
Q 2009 3103 1644 3103 
Q 1281 3103 1095 2975 
Q 909 2847 909 2591 
Q 909 2381 1050 2254 
Q 1191 2128 1613 1997 
L 2069 1856 
Q 2541 1709 2748 1489 
Q 2956 1269 2956 922 
Q 2956 450 2595 179 
Q 2234 -91 1600 -91 
Q 1278 -91 972 -22 
Q 666 47 359 184 
z
" transform="scale(0.015625)"/>
      <path id="DejaVuSerif-6d" d="M 3316 2675 
Q 3481 3041 3739 3227 
Q 3997 3413 4341 3413 
Q 4863 3413 5119 3089 
Q 5375 2766 5375 2113 
L 5375 331 
L 5894 331 
L 5894 0 
L 4300 0 
L 4300 331 
L 4800 331 
L 4800 2047 
Q 4800 2556 4650 2772 
Q 4500 2988 4153 2988 
Q 3769 2988 3567 2697 
Q 3366 2406 3366 1850 
L 3366 331 
L 3866 331 
L 3866 0 
L 2291 0 
L 2291 331 
L 2791 331 
L 2791 2069 
Q 2791 2566 2641 2777 
Q 2491 2988 2144 2988 
Q 1759 2988 1557 2697 
Q 1356 2406 1356 1850 
L 1356 331 
L 1856 331 
L 1856 0 
L 263 0 
L 263 331 
L 781 331 
L 781 2994 
L 231 2994 
L 231 3322 
L 1356 3322 
L 1356 2731 
Q 1516 3063 1762 3238 
Q 2009 3413 2322 3413 
Q 2709 3413 2968 3220 
Q 3228 3028 3316 2675 
z
" transform="scale(0.015625)"/>
      <path id="Cmmi10-47" d="M 934 1403 
Q 934 1006 1092 707 
Q 1250 409 1547 246 
Q 1844 84 2234 84 
Q 2616 84 2959 264 
Q 3303 444 3391 781 
L 3531 1331 
Q 3534 1350 3537 1370 
Q 3541 1391 3541 1403 
Q 3541 1469 3500 1478 
Q 3341 1522 2859 1522 
Q 2797 1522 2797 1606 
Q 2816 1684 2831 1715 
Q 2847 1747 2906 1747 
L 4556 1747 
Q 4622 1747 4622 1663 
Q 4619 1647 4609 1609 
Q 4600 1572 4584 1547 
Q 4569 1522 4538 1522 
Q 4325 1522 4226 1487 
Q 4128 1453 4091 1306 
L 3950 756 
L 3769 44 
Q 3759 0 3713 0 
Q 3659 0 3559 144 
Q 3459 288 3419 384 
Q 3197 122 2825 -9 
Q 2453 -141 2059 -141 
Q 1563 -141 1164 84 
Q 766 309 545 709 
Q 325 1109 325 1613 
Q 325 2150 564 2673 
Q 803 3197 1212 3611 
Q 1622 4025 2142 4269 
Q 2663 4513 3194 4513 
Q 3406 4513 3601 4447 
Q 3797 4381 3964 4251 
Q 4131 4122 4238 3950 
L 4744 4500 
Q 4744 4513 4775 4513 
L 4813 4513 
Q 4838 4513 4855 4492 
Q 4872 4472 4872 4447 
L 4434 2719 
Q 4434 2675 4384 2675 
L 4269 2675 
Q 4219 2675 4219 2747 
Q 4244 2888 4244 3078 
Q 4244 3394 4137 3672 
Q 4031 3950 3806 4119 
Q 3581 4288 3256 4288 
Q 2741 4288 2303 4027 
Q 1866 3766 1562 3337 
Q 1259 2909 1096 2396 
Q 934 1884 934 1403 
z
" transform="scale(0.015625)"/>
      <path id="Cmsy10-a1" d="M 653 1472 
Q 600 1472 565 1512 
Q 531 1553 531 1600 
Q 531 1647 565 1687 
Q 600 1728 653 1728 
L 4325 1728 
Q 4375 1728 4408 1687 
Q 4441 1647 4441 1600 
Q 4441 1553 4408 1512 
Q 4375 1472 4325 1472 
L 653 1472 
z
" transform="scale(0.015625)"/>
     </defs>
     <use xlink:href="#DejaVuSerif-6f" transform="translate(0 0.015625)"/>
     <use xlink:href="#DejaVuSerif-75" transform="translate(60.205078 0.015625)"/>
     <use xlink:href="#DejaVuSerif-72" transform="translate(124.609375 0.015625)"/>
     <use xlink:href="#DejaVuSerif-6f" transform="translate(172.412109 0.015625)"/>
     <use xlink:href="#DejaVuSerif-62" transform="translate(232.617188 0.015625)"/>
     <use xlink:href="#DejaVuSerif-6f" transform="translate(296.630859 0.015625)"/>
     <use xlink:href="#DejaVuSerif-72" transform="translate(356.835938 0.015625)"/>
     <use xlink:href="#DejaVuSerif-6f" transform="translate(404.638672 0.015625)"/>
     <use xlink:href="#DejaVuSerif-73" transform="translate(464.84375 0.015625)"/>
     <use xlink:href="#DejaVuSerif-3a" transform="translate(516.162109 0.015625)"/>
     <use xlink:href="#DejaVuSerif-20" transform="translate(549.853516 0.015625)"/>
     <use xlink:href="#DejaVuSerif-75" transform="translate(581.640625 0.015625)"/>
     <use xlink:href="#DejaVuSerif-70" transform="translate(646.044922 0.015625)"/>
     <use xlink:href="#DejaVuSerif-70" transform="translate(710.058594 0.015625)"/>
     <use xlink:href="#DejaVuSerif-65" transform="translate(774.072266 0.015625)"/>
     <use xlink:href="#DejaVuSerif-72" transform="translate(833.251953 0.015625)"/>
     <use xlink:href="#DejaVuSerif-20" transform="translate(881.054688 0.015625)"/>
     <use xlink:href="#DejaVuSerif-62" transform="translate(912.841797 0.015625)"/>
     <use xlink:href="#DejaVuSerif-6f" transform="translate(976.855469 0.015625)"/>
     <use xlink:href="#DejaVuSerif-75" transform="translate(1037.060547 0.015625)"/>
     <use xlink:href="#DejaVuSerif-6e" transform="translate(1101.464844 0.015625)"/>
     <use xlink:href="#DejaVuSerif-64" transform="translate(1165.869141 0.015625)"/>
     <use xlink:href="#DejaVuSerif-20" transform="translate(1229.882812 0.015625)"/>
     <use xlink:href="#DejaVuSerif-6d" transform="translate(1261.669922 0.015625)"/>
     <use xlink:href="#DejaVuSerif-65" transform="translate(1356.494141 0.015625)"/>
     <use xlink:href="#DejaVuSerif-65" transform="translate(1415.673828 0.015625)"/>
     <use xlink:href="#DejaVuSerif-74" transform="translate(1474.853516 0.015625)"/>
     <use xlink:href="#DejaVuSerif-73" transform="translate(1515.039062 0.015625)"/>
     <use xlink:href="#DejaVuSerif-20" transform="translate(1566.357422 0.015625)"/>
     <use xlink:href="#DejaVuSerif-63" transform="translate(1598.144531 0.015625)"/>
     <use xlink:href="#DejaVuSerif-6f" transform="translate(1654.150391 0.015625)"/>
     <use xlink:href="#DejaVuSerif-6e" transform="translate(1714.355469 0.015625)"/>
     <use xlink:href="#DejaVuSerif-73" transform="translate(1778.759766 0.015625)"/>
     <use xlink:href="#DejaVuSerif-74" transform="translate(1830.078125 0.015625)"/>
     <use xlink:href="#DejaVuSerif-72" transform="translate(1870.263672 0.015625)"/>
     <use xlink:href="#DejaVuSerif-75" transform="translate(1918.066406 0.015625)"/>
     <use xlink:href="#DejaVuSerif-63" transform="translate(1982.470703 0.015625)"/>
     <use xlink:href="#DejaVuSerif-74" transform="translate(2038.476562 0.015625)"/>
     <use xlink:href="#DejaVuSerif-69" transform="translate(2078.662109 0.015625)"/>
     <use xlink:href="#DejaVuSerif-6f" transform="translate(2110.644531 0.015625)"/>
     <use xlink:href="#DejaVuSerif-6e" transform="translate(2170.849609 0.015625)"/>
     <use xlink:href="#DejaVuSerif-20" transform="translate(2235.253906 0.015625)"/>
     <use xlink:href="#DejaVuSerif-20" transform="translate(2267.041016 0.015625)"/>
     <use xlink:href="#Cmsy10-29" transform="translate(2316.386719 0.015625)"/>
     <use xlink:href="#DejaVuSerif-20" transform="translate(2433.945312 0.015625)"/>
     <use xlink:href="#DejaVuSerif-20" transform="translate(2465.732422 0.015625)"/>
     <use xlink:href="#Cmmi10-47" transform="translate(2497.519531 0.015625)"/>
     <use xlink:href="#Cmr10-32" transform="translate(2576.132812 -16.990625) scale(0.7)"/>
     <use xlink:href="#Cmr10-28" transform="translate(2617.510156 0.015625)"/>
     <use xlink:href="#Cmmi10-4b" transform="translate(2656.328516 0.015625)"/>
     <use xlink:href="#Cmr10-29" transform="translate(2741.240625 0.015625)"/>
     <use xlink:href="#Cmr10-3d" transform="translate(2797.617578 0.015625)"/>
     <use xlink:href="#Cmr10-31" transform="translate(2892.861719 0.015625)"/>
     <use xlink:href="#Cmsy10-a1" transform="translate(2960.420312 0.015625)"/>
     <use xlink:href="#Cmr10-31" transform="translate(3055.664453 0.015625)"/>
     <use xlink:href="#Cmmi10-3d" transform="translate(3105.664453 0.015625)"/>
     <use xlink:href="#Cmmi10-4b" transform="translate(3155.664453 0.015625)"/>
    </g>
   </g>
   <g id="line2d_2">
    <path d="M 501.702203 285.452308 
L 501.555095 277.47718 
L 501.11397 269.512903 
L 500.379429 261.570312 
L 499.352471 253.660214 
L 498.034494 245.79337 
L 496.42729 237.980483 
L 494.533046 230.232184 
L 492.35434 222.559014 
L 489.894135 214.971413 
L 487.155779 207.479704 
L 484.142997 200.09408 
L 480.859889 192.824589 
L 477.310921 185.681121 
L 473.500922 178.673397 
L 469.435075 171.810949 
L 465.118913 165.103115 
L 460.558307 158.55902 
L 455.759462 152.187569 
L 450.728907 145.99743 
L 445.473488 139.997025 
L 440.000353 134.194518 
L 434.316949 128.597802 
L 428.431009 123.214494 
L 422.350541 118.051916 
L 416.083817 113.117094 
L 409.639364 108.41674 
L 403.02595 103.95725 
L 396.252572 99.744692 
L 389.328446 95.784796 
L 382.262992 92.08295 
L 375.065824 88.64419 
L 367.746732 85.473196 
L 360.315676 82.574282 
L 352.782766 79.951391 
L 345.158249 77.608092 
L 337.452501 75.547574 
L 329.676004 73.772639 
L 321.839338 72.285703 
L 313.953167 71.088789 
L 306.02822 70.183524 
L 298.075278 69.571142 
L 290.105162 69.252474 
L 282.128715 69.227954 
L 274.15679 69.497617 
L 266.200234 70.061094 
L 258.269871 70.91762 
L 250.37649 72.066028 
L 242.530831 73.504757 
L 234.743569 75.231849 
L 227.025298 77.244955 
L 219.38652 79.541334 
L 211.837626 82.117864 
L 204.388888 84.971039 
L 197.05044 88.096976 
L 189.832267 91.491422 
L 182.744188 95.149761 
L 175.795848 99.067013 
L 168.996699 103.23785 
L 162.355994 107.656597 
L 155.882765 112.317242 
L 149.585821 117.213444 
L 143.473729 122.338542 
L 137.554804 127.685563 
L 131.8371 133.247231 
L 126.328395 139.015981 
L 121.036185 144.983963 
L 115.967669 151.143058 
L 111.129744 157.484886 
L 106.528992 164.000818 
L 102.171672 170.68199 
L 98.063712 177.519312 
L 94.210702 184.503481 
L 90.617884 191.624994 
L 87.290146 198.874164 
L 84.232015 206.241126 
L 81.447653 213.715859 
L 78.940847 221.288192 
L 76.715008 228.947822 
L 74.773164 236.684329 
L 73.117958 244.487187 
L 71.751641 252.34578 
L 70.676072 260.249415 
L 69.892715 268.18734 
L 69.402635 276.148754 
L 69.206499 284.122827 
L 69.304574 292.098708 
L 69.696727 300.065546 
L 70.382424 308.012503 
L 71.360732 315.928765 
L 72.63032 323.803564 
L 74.189461 331.626183 
L 76.036033 339.385982 
L 78.167524 347.072401 
L 80.581035 354.674984 
L 83.273281 362.183387 
L 86.2406 369.587394 
L 89.478954 376.876931 
L 92.983937 384.042082 
L 96.750782 391.073098 
L 100.774362 397.960413 
L 105.049204 404.694655 
L 109.569492 411.266664 
L 114.329075 417.667498 
L 119.321478 423.888447 
L 124.539909 429.921048 
L 129.977267 435.757094 
L 135.626155 441.388645 
L 141.478888 446.808038 
L 147.527502 452.0079 
L 153.763769 456.981156 
L 160.179202 461.721041 
L 166.765075 466.221105 
L 173.512427 470.475226 
L 180.412077 474.477616 
L 187.454639 478.22283 
L 194.63053 481.705771 
L 201.929988 484.921702 
L 209.343082 487.866247 
L 216.859725 490.5354 
L 224.469691 492.925529 
L 232.162626 495.033383 
L 239.928064 496.856093 
L 247.755439 498.39118 
L 255.634103 499.636555 
L 263.553335 500.590524 
L 271.502362 501.251789 
L 279.470369 501.619451 
L 287.446514 501.693008 
L 295.419945 501.472361 
L 303.379816 500.95781 
L 311.315295 500.150056 
L 319.215587 499.050197 
L 327.069942 497.659729 
L 334.867675 495.980545 
L 342.598177 494.014929 
L 350.250929 491.765555 
L 357.81552 489.235484 
L 365.281658 486.428157 
L 372.639185 483.347395 
L 379.878091 479.997389 
L 386.988527 476.382697 
L 393.960819 472.508236 
L 400.78548 468.379278 
L 407.453227 464.001441 
L 413.954986 459.380681 
L 420.281912 454.523284 
L 426.425397 449.435859 
L 432.377083 444.125329 
L 438.128872 438.598917 
L 443.672938 432.864144 
L 449.001739 426.92881 
L 454.108024 420.800993 
L 458.984847 414.489028 
L 463.625571 408.001503 
L 468.023884 401.347246 
L 472.173801 394.535308 
L 476.069676 387.57496 
L 479.706209 380.475669 
L 483.078451 373.247095 
L 486.181815 365.899073 
L 489.012079 358.441599 
L 491.565392 350.884821 
L 493.838279 343.23902 
L 495.827649 335.514597 
L 497.530796 327.722063 
L 498.945401 319.872019 
L 500.06954 311.975145 
L 500.901684 304.042186 
L 501.4407 296.083935 
L 501.685856 288.111219 
L 501.702203 285.452308 
L 501.702203 285.452308 
" clip-path="url(#p92273a8acd)" style="fill: none; stroke: #cfb991; stroke-opacity: 0.85; stroke-width: 0.9; stroke-linecap: square"/>
   </g>
   <g id="line2d_3">
    <path d="M 285.452308 246.213415 
L 285.452308 115.417108 
" clip-path="url(#p92273a8acd)" style="fill: none; stroke: #cfb991; stroke-width: 1.15; stroke-linecap: square"/>
   </g>
   <g id="line2d_4">
    <path d="M 305.071754 251.47043 
L 370.469908 138.197505 
" clip-path="url(#p92273a8acd)" style="fill: none; stroke: #cfb991; stroke-width: 1.15; stroke-linecap: square"/>
   </g>
   <g id="line2d_5">
    <path d="M 319.434185 265.832862 
L 432.70711 200.434708 
" clip-path="url(#p92273a8acd)" style="fill: none; stroke: #cfb991; stroke-width: 1.15; stroke-linecap: square"/>
   </g>
   <g id="line2d_6">
    <path d="M 324.6912 285.452308 
L 455.487508 285.452308 
" clip-path="url(#p92273a8acd)" style="fill: none; stroke: #cfb991; stroke-width: 1.15; stroke-linecap: square"/>
   </g>
   <g id="line2d_7">
    <path d="M 319.434185 305.071754 
L 432.70711 370.469908 
" clip-path="url(#p92273a8acd)" style="fill: none; stroke: #cfb991; stroke-width: 1.15; stroke-linecap: square"/>
   </g>
   <g id="line2d_8">
    <path d="M 305.071754 319.434185 
L 370.469908 432.70711 
" clip-path="url(#p92273a8acd)" style="fill: none; stroke: #cfb991; stroke-width: 1.15; stroke-linecap: square"/>
   </g>
   <g id="line2d_9">
    <path d="M 285.452308 324.6912 
L 285.452308 455.487508 
" clip-path="url(#p92273a8acd)" style="fill: none; stroke: #cfb991; stroke-width: 1.15; stroke-linecap: square"/>
   </g>
   <g id="line2d_10">
    <path d="M 265.832862 319.434185 
L 200.434708 432.70711 
" clip-path="url(#p92273a8acd)" style="fill: none; stroke: #cfb991; stroke-width: 1.15; stroke-linecap: square"/>
   </g>
   <g id="line2d_11">
    <path d="M 251.47043 305.071754 
L 138.197505 370.469908 
" clip-path="url(#p92273a8acd)" style="fill: none; stroke: #cfb991; stroke-width: 1.15; stroke-linecap: square"/>
   </g>
   <g id="line2d_12">
    <path d="M 246.213415 285.452308 
L 115.417108 285.452308 
" clip-path="url(#p92273a8acd)" style="fill: none; stroke: #cfb991; stroke-width: 1.15; stroke-linecap: square"/>
   </g>
   <g id="line2d_13">
    <path d="M 251.47043 265.832862 
L 138.197505 200.434708 
" clip-path="url(#p92273a8acd)" style="fill: none; stroke: #cfb991; stroke-width: 1.15; stroke-linecap: square"/>
   </g>
   <g id="line2d_14">
    <path d="M 265.832862 251.47043 
L 200.434708 138.197505 
" clip-path="url(#p92273a8acd)" style="fill: none; stroke: #cfb991; stroke-width: 1.15; stroke-linecap: square"/>
   </g>
   <g id="patch_3">
    <path d="M 285.452308 324.6912 
C 295.858584 324.6912 305.840046 320.556743 313.198395 313.198395 
C 320.556743 305.840046 324.6912 295.858584 324.6912 285.452308 
C 324.6912 275.046032 320.556743 265.064569 313.198395 257.706221 
C 305.840046 250.347873 295.858584 246.213415 285.452308 246.213415 
C 275.046032 246.213415 265.064569 250.347873 257.706221 257.706221 
C 250.347873 265.064569 246.213415 275.046032 246.213415 285.452308 
C 246.213415 295.858584 250.347873 305.840046 257.706221 313.198395 
C 265.064569 320.556743 275.046032 324.6912 285.452308 324.6912 
z
" clip-path="url(#p92273a8acd)" style="stroke: #cfb991; stroke-width: 1.4; stroke-linejoin: miter"/>
   </g>
   <g id="text_4">
    <!-- C -->
    <g style="fill: #f2f2f2" transform="translate(310.200269 179.269297) scale(0.12 -0.12)">
     <use xlink:href="#DejaVuSerif-43"/>
    </g>
   </g>
   <g id="text_5">
    <!-- 1 -->
    <g style="fill: #8a8a8a" transform="translate(321.27356 144.475005) scale(0.08 -0.08)">
     <defs>
      <path id="DejaVuSerif-31" d="M 909 0 
L 909 331 
L 1722 331 
L 1722 4213 
L 781 3603 
L 781 4013 
L 1919 4750 
L 2350 4750 
L 2350 331 
L 3163 331 
L 3163 0 
L 909 0 
z
" transform="scale(0.015625)"/>
     </defs>
     <use xlink:href="#DejaVuSerif-31"/>
    </g>
   </g>
   <g id="text_6">
    <!-- G -->
    <g style="fill: #f2f2f2" transform="translate(360.814232 208.608196) scale(0.12 -0.12)">
     <defs>
      <path id="DejaVuSerif-47" d="M 4097 3272 
Q 3988 3856 3641 4136 
Q 3294 4416 2675 4416 
Q 1869 4416 1472 3897 
Q 1075 3378 1075 2328 
Q 1075 1300 1484 772 
Q 1894 244 2688 244 
Q 3041 244 3362 331 
Q 3684 419 3975 594 
L 3975 1797 
L 3097 1797 
L 3097 2131 
L 4609 2131 
L 4609 391 
Q 4194 150 3714 29 
Q 3234 -91 2688 -91 
Q 1631 -91 995 570 
Q 359 1231 359 2328 
Q 359 3434 996 4092 
Q 1634 4750 2713 4750 
Q 3113 4750 3539 4658 
Q 3966 4566 4447 4378 
L 4447 3272 
L 4097 3272 
z
" transform="scale(0.015625)"/>
     </defs>
     <use xlink:href="#DejaVuSerif-47"/>
    </g>
   </g>
   <g id="text_7">
    <!-- 2 -->
    <g style="fill: #8a8a8a" transform="translate(387.725858 182.841257) scale(0.08 -0.08)">
     <use xlink:href="#DejaVuSerif-32"/>
    </g>
   </g>
   <g id="text_8">
    <!-- D -->
    <g style="fill: #f2f2f2" transform="translate(390.136256 259.424659) scale(0.12 -0.12)">
     <defs>
      <path id="DejaVuSerif-44" d="M 1581 331 
L 2163 331 
Q 3072 331 3558 850 
Q 4044 1369 4044 2338 
Q 4044 3306 3559 3818 
Q 3075 4331 2163 4331 
L 1581 4331 
L 1581 331 
z
M 353 0 
L 353 331 
L 947 331 
L 947 4331 
L 353 4331 
L 353 4666 
L 2209 4666 
Q 3416 4666 4089 4050 
Q 4763 3434 4763 2338 
Q 4763 1238 4088 619 
Q 3413 0 2209 0 
L 353 0 
z
" transform="scale(0.015625)"/>
     </defs>
     <use xlink:href="#DejaVuSerif-44"/>
    </g>
   </g>
   <g id="text_9">
    <!-- 3 -->
    <g style="fill: #8a8a8a" transform="translate(426.09211 249.293556) scale(0.08 -0.08)">
     <defs>
      <path id="DejaVuSerif-33" d="M 622 4469 
Q 988 4606 1323 4678 
Q 1659 4750 1953 4750 
Q 2638 4750 3022 4454 
Q 3406 4159 3406 3634 
Q 3406 3213 3140 2930 
Q 2875 2647 2388 2547 
Q 2963 2466 3280 2130 
Q 3597 1794 3597 1259 
Q 3597 606 3158 257 
Q 2719 -91 1894 -91 
Q 1528 -91 1179 -12 
Q 831 66 488 225 
L 488 1131 
L 838 1131 
Q 869 681 1141 450 
Q 1413 219 1906 219 
Q 2384 219 2661 495 
Q 2938 772 2938 1253 
Q 2938 1803 2653 2086 
Q 2369 2369 1819 2369 
L 1522 2369 
L 1522 2688 
L 1678 2688 
Q 2225 2688 2498 2914 
Q 2772 3141 2772 3597 
Q 2772 4006 2547 4223 
Q 2322 4441 1900 4441 
Q 1478 4441 1245 4241 
Q 1013 4041 972 3647 
L 622 3647 
L 622 4469 
z
" transform="scale(0.015625)"/>
     </defs>
     <use xlink:href="#DejaVuSerif-33"/>
    </g>
   </g>
   <g id="text_10">
    <!-- A -->
    <g style="fill: #f2f2f2" transform="translate(390.613443 318.102456) scale(0.12 -0.12)">
     <defs>
      <path id="DejaVuSerif-41" d="M 1281 1691 
L 2994 1691 
L 2138 3909 
L 1281 1691 
z
M -38 0 
L -38 331 
L 372 331 
L 2034 4666 
L 2559 4666 
L 4225 331 
L 4684 331 
L 4684 0 
L 2988 0 
L 2988 331 
L 3506 331 
L 3116 1356 
L 1153 1356 
L 763 331 
L 1275 331 
L 1275 0 
L -38 0 
z
" transform="scale(0.015625)"/>
     </defs>
     <use xlink:href="#DejaVuSerif-41"/>
    </g>
   </g>
   <g id="text_11">
    <!-- 4 -->
    <g style="fill: #8a8a8a" transform="translate(426.09211 326.02606) scale(0.08 -0.08)">
     <defs>
      <path id="DejaVuSerif-34" d="M 2234 1581 
L 2234 4063 
L 641 1581 
L 2234 1581 
z
M 3609 0 
L 1484 0 
L 1484 331 
L 2234 331 
L 2234 1247 
L 197 1247 
L 197 1588 
L 2241 4750 
L 2859 4750 
L 2859 1581 
L 3750 1581 
L 3750 1247 
L 2859 1247 
L 2859 331 
L 3609 331 
L 3609 0 
z
" transform="scale(0.015625)"/>
     </defs>
     <use xlink:href="#DejaVuSerif-34"/>
    </g>
   </g>
   <g id="text_12">
    <!-- E -->
    <g style="fill: #f2f2f2" transform="translate(361.22767 368.91892) scale(0.12 -0.12)">
     <defs>
      <path id="DejaVuSerif-45" d="M 353 0 
L 353 331 
L 947 331 
L 947 4331 
L 353 4331 
L 353 4666 
L 4109 4666 
L 4109 3628 
L 3725 3628 
L 3725 4281 
L 1581 4281 
L 1581 2719 
L 3109 2719 
L 3109 3303 
L 3494 3303 
L 3494 1753 
L 3109 1753 
L 3109 2338 
L 1581 2338 
L 1581 384 
L 3775 384 
L 3775 1038 
L 4159 1038 
L 4159 0 
L 353 0 
z
" transform="scale(0.015625)"/>
     </defs>
     <use xlink:href="#DejaVuSerif-45"/>
    </g>
   </g>
   <g id="text_13">
    <!-- 5 -->
    <g style="fill: #8a8a8a" transform="translate(387.725858 392.478358) scale(0.08 -0.08)">
     <defs>
      <path id="DejaVuSerif-35" d="M 3219 4666 
L 3219 4153 
L 1081 4153 
L 1081 2816 
Q 1244 2928 1461 2984 
Q 1678 3041 1947 3041 
Q 2703 3041 3140 2622 
Q 3578 2203 3578 1478 
Q 3578 738 3136 323 
Q 2694 -91 1894 -91 
Q 1572 -91 1234 -12 
Q 897 66 544 225 
L 544 1131 
L 897 1131 
Q 925 688 1179 453 
Q 1434 219 1894 219 
Q 2388 219 2653 544 
Q 2919 869 2919 1478 
Q 2919 2084 2655 2407 
Q 2391 2731 1894 2731 
Q 1613 2731 1398 2631 
Q 1184 2531 1019 2322 
L 750 2322 
L 750 4666 
L 3219 4666 
z
" transform="scale(0.015625)"/>
     </defs>
     <use xlink:href="#DejaVuSerif-35"/>
    </g>
   </g>
   <g id="text_14">
    <!-- B -->
    <g style="fill: #f2f2f2" transform="translate(310.382144 398.257818) scale(0.12 -0.12)">
     <defs>
      <path id="DejaVuSerif-42" d="M 1581 331 
L 2516 331 
Q 3078 331 3337 575 
Q 3597 819 3597 1350 
Q 3597 1878 3339 2120 
Q 3081 2363 2516 2363 
L 1581 2363 
L 1581 331 
z
M 1581 2694 
L 2375 2694 
Q 2888 2694 3123 2891 
Q 3359 3088 3359 3513 
Q 3359 3941 3123 4136 
Q 2888 4331 2375 4331 
L 1581 4331 
L 1581 2694 
z
M 353 0 
L 353 331 
L 947 331 
L 947 4331 
L 353 4331 
L 353 4666 
L 2656 4666 
Q 3363 4666 3720 4377 
Q 4078 4088 4078 3513 
Q 4078 3097 3829 2850 
Q 3581 2603 3103 2547 
Q 3697 2472 4005 2167 
Q 4313 1863 4313 1350 
Q 4313 656 3875 328 
Q 3438 0 2509 0 
L 353 0 
z
" transform="scale(0.015625)"/>
     </defs>
     <use xlink:href="#DejaVuSerif-42"/>
    </g>
   </g>
   <g id="text_15">
    <!-- 6 -->
    <g style="fill: #8a8a8a" transform="translate(321.27356 430.84461) scale(0.08 -0.08)">
     <defs>
      <path id="DejaVuSerif-36" d="M 2094 219 
Q 2534 219 2771 542 
Q 3009 866 3009 1472 
Q 3009 2078 2771 2401 
Q 2534 2725 2094 2725 
Q 1647 2725 1412 2412 
Q 1178 2100 1178 1509 
Q 1178 888 1415 553 
Q 1653 219 2094 219 
z
M 1075 2569 
Q 1288 2803 1556 2918 
Q 1825 3034 2163 3034 
Q 2859 3034 3264 2615 
Q 3669 2197 3669 1472 
Q 3669 763 3233 336 
Q 2797 -91 2069 -91 
Q 1278 -91 853 498 
Q 428 1088 428 2181 
Q 428 3406 931 4078 
Q 1434 4750 2350 4750 
Q 2597 4750 2869 4703 
Q 3141 4656 3425 4563 
L 3425 3794 
L 3072 3794 
Q 3034 4109 2831 4275 
Q 2628 4441 2284 4441 
Q 1678 4441 1381 3981 
Q 1084 3522 1075 2569 
z
" transform="scale(0.015625)"/>
     </defs>
     <use xlink:href="#DejaVuSerif-36"/>
    </g>
   </g>
   <g id="text_16">
    <!-- F♯ -->
    <g style="fill: #f2f2f2" transform="translate(249.046534 398.257818) scale(0.12 -0.12)">
     <defs>
      <path id="DejaVuSerif-46" d="M 353 0 
L 353 331 
L 947 331 
L 947 4331 
L 353 4331 
L 353 4666 
L 4172 4666 
L 4172 3628 
L 3788 3628 
L 3788 4281 
L 1581 4281 
L 1581 2719 
L 3175 2719 
L 3175 3303 
L 3559 3303 
L 3559 1753 
L 3175 1753 
L 3175 2338 
L 1581 2338 
L 1581 331 
L 2328 331 
L 2328 0 
L 353 0 
z
" transform="scale(0.015625)"/>
      <path id="DejaVuSerif-266f" d="M 2022 4678 
L 2166 4678 
L 2181 4663 
L 2181 3713 
L 2553 3900 
L 2563 3894 
L 2563 3453 
Q 2553 3431 2181 3244 
L 2181 2078 
L 2563 2250 
L 2563 1828 
Q 2559 1816 2181 1606 
L 2181 678 
L 2166 666 
L 2022 666 
L 2006 678 
L 2006 1531 
L 1106 1094 
L 1106 13 
L 1091 0 
L 959 0 
L 944 13 
L 944 1016 
L 541 828 
L 541 1272 
Q 541 1291 944 1478 
L 944 2663 
L 938 2663 
L 541 2488 
L 541 2922 
L 944 3125 
L 944 4022 
L 959 4034 
L 1091 4034 
L 1106 4022 
L 1106 3203 
L 2006 3622 
L 2006 4663 
L 2022 4678 
z
M 1106 2731 
L 1106 1553 
L 2006 1988 
L 2006 3150 
L 1106 2731 
z
" transform="scale(0.015625)"/>
     </defs>
     <use xlink:href="#DejaVuSerif-46"/>
     <use xlink:href="#DejaVuSerif-266f" transform="translate(69.384766 0)"/>
    </g>
   </g>
   <g id="text_17">
    <!-- 7 -->
    <g style="fill: #8a8a8a" transform="translate(244.541056 430.84461) scale(0.08 -0.08)">
     <defs>
      <path id="DejaVuSerif-37" d="M 3609 4347 
L 1784 0 
L 1319 0 
L 3059 4153 
L 903 4153 
L 903 3578 
L 538 3578 
L 538 4666 
L 3609 4666 
L 3609 4347 
z
" transform="scale(0.015625)"/>
     </defs>
     <use xlink:href="#DejaVuSerif-37"/>
    </g>
   </g>
   <g id="text_18">
    <!-- D♭ -->
    <g style="fill: #f2f2f2" transform="translate(197.656321 368.91892) scale(0.12 -0.12)">
     <defs>
      <path id="DejaVuSerif-266d" d="M 584 4678 
L 725 4678 
L 741 4659 
L 741 1656 
L 750 1656 
Q 1281 2397 1734 2397 
Q 2444 2388 2506 1584 
Q 2416 256 575 -19 
L 566 -9 
L 566 4659 
L 584 4678 
z
M 741 1322 
L 741 213 
Q 2047 522 2047 1475 
Q 2088 2013 1584 2041 
Q 1213 2041 741 1322 
z
" transform="scale(0.015625)"/>
     </defs>
     <use xlink:href="#DejaVuSerif-44"/>
     <use xlink:href="#DejaVuSerif-266d" transform="translate(80.175781 0)"/>
    </g>
   </g>
   <g id="text_19">
    <!-- 8 -->
    <g style="fill: #8a8a8a" transform="translate(178.088757 392.478358) scale(0.08 -0.08)">
     <defs>
      <path id="DejaVuSerif-38" d="M 2981 1275 
Q 2981 1775 2732 2051 
Q 2484 2328 2034 2328 
Q 1584 2328 1336 2051 
Q 1088 1775 1088 1275 
Q 1088 772 1336 495 
Q 1584 219 2034 219 
Q 2484 219 2732 495 
Q 2981 772 2981 1275 
z
M 2853 3541 
Q 2853 3966 2637 4203 
Q 2422 4441 2034 4441 
Q 1650 4441 1433 4203 
Q 1216 3966 1216 3541 
Q 1216 3113 1433 2875 
Q 1650 2638 2034 2638 
Q 2422 2638 2637 2875 
Q 2853 3113 2853 3541 
z
M 2516 2484 
Q 3047 2413 3344 2092 
Q 3641 1772 3641 1275 
Q 3641 619 3225 264 
Q 2809 -91 2034 -91 
Q 1263 -91 845 264 
Q 428 619 428 1275 
Q 428 1772 725 2092 
Q 1022 2413 1556 2484 
Q 1084 2569 832 2842 
Q 581 3116 581 3541 
Q 581 4103 968 4426 
Q 1356 4750 2034 4750 
Q 2713 4750 3100 4426 
Q 3488 4103 3488 3541 
Q 3488 3116 3236 2842 
Q 2984 2569 2516 2484 
z
" transform="scale(0.015625)"/>
     </defs>
     <use xlink:href="#DejaVuSerif-38"/>
    </g>
   </g>
   <g id="text_20">
    <!-- A♭ -->
    <g style="fill: #f2f2f2" transform="translate(168.794609 318.102456) scale(0.12 -0.12)">
     <use xlink:href="#DejaVuSerif-41"/>
     <use xlink:href="#DejaVuSerif-266d" transform="translate(72.216797 0)"/>
    </g>
   </g>
   <g id="text_21">
    <!-- 9 -->
    <g style="fill: #8a8a8a" transform="translate(139.722505 326.02606) scale(0.08 -0.08)">
     <defs>
      <path id="DejaVuSerif-39" d="M 2994 2091 
Q 2784 1856 2512 1740 
Q 2241 1625 1900 1625 
Q 1206 1625 804 2044 
Q 403 2463 403 3188 
Q 403 3897 839 4323 
Q 1275 4750 2003 4750 
Q 2794 4750 3217 4161 
Q 3641 3572 3641 2478 
Q 3641 1253 3137 581 
Q 2634 -91 1722 -91 
Q 1475 -91 1203 -44 
Q 931 3 647 97 
L 647 872 
L 997 872 
Q 1038 556 1241 387 
Q 1444 219 1784 219 
Q 2391 219 2687 676 
Q 2984 1134 2994 2091 
z
M 1978 4441 
Q 1534 4441 1298 4117 
Q 1063 3794 1063 3188 
Q 1063 2581 1298 2256 
Q 1534 1931 1978 1931 
Q 2422 1931 2658 2245 
Q 2894 2559 2894 3150 
Q 2894 3772 2656 4106 
Q 2419 4441 1978 4441 
z
" transform="scale(0.015625)"/>
     </defs>
     <use xlink:href="#DejaVuSerif-39"/>
    </g>
   </g>
   <g id="text_22">
    <!-- E♭ -->
    <g style="fill: #f2f2f2" transform="translate(168.747734 259.424659) scale(0.12 -0.12)">
     <use xlink:href="#DejaVuSerif-45"/>
     <use xlink:href="#DejaVuSerif-266d" transform="translate(72.998047 0)"/>
    </g>
   </g>
   <g id="text_23">
    <!-- 10 -->
    <g style="fill: #8a8a8a" transform="translate(137.177505 249.293556) scale(0.08 -0.08)">
     <defs>
      <path id="DejaVuSerif-30" d="M 2034 219 
Q 2513 219 2750 744 
Q 2988 1269 2988 2328 
Q 2988 3391 2750 3916 
Q 2513 4441 2034 4441 
Q 1556 4441 1318 3916 
Q 1081 3391 1081 2328 
Q 1081 1269 1318 744 
Q 1556 219 2034 219 
z
M 2034 -91 
Q 1275 -91 848 546 
Q 422 1184 422 2328 
Q 422 3475 848 4112 
Q 1275 4750 2034 4750 
Q 2797 4750 3222 4112 
Q 3647 3475 3647 2328 
Q 3647 1184 3222 546 
Q 2797 -91 2034 -91 
z
" transform="scale(0.015625)"/>
     </defs>
     <use xlink:href="#DejaVuSerif-31"/>
     <use xlink:href="#DejaVuSerif-30" transform="translate(63.623047 0)"/>
    </g>
   </g>
   <g id="text_24">
    <!-- B♭ -->
    <g style="fill: #f2f2f2" transform="translate(198.057571 208.608196) scale(0.12 -0.12)">
     <use xlink:href="#DejaVuSerif-42"/>
     <use xlink:href="#DejaVuSerif-266d" transform="translate(73.486328 0)"/>
    </g>
   </g>
   <g id="text_25">
    <!-- 11 -->
    <g style="fill: #8a8a8a" transform="translate(175.543757 182.841257) scale(0.08 -0.08)">
     <use xlink:href="#DejaVuSerif-31"/>
     <use xlink:href="#DejaVuSerif-31" transform="translate(63.623047 0)"/>
    </g>
   </g>
   <g id="text_26">
    <!-- F -->
    <g style="fill: #f2f2f2" transform="translate(251.949971 179.269297) scale(0.12 -0.12)">
     <use xlink:href="#DejaVuSerif-46"/>
    </g>
   </g>
   <g id="text_27">
    <!-- 12 -->
    <g style="fill: #8a8a8a" transform="translate(241.996056 144.475005) scale(0.08 -0.08)">
     <use xlink:href="#DejaVuSerif-31"/>
     <use xlink:href="#DejaVuSerif-32" transform="translate(63.623047 0)"/>
    </g>
   </g>
   <g id="text_28">
    <!-- $g$ -->
    <g style="fill: #f2f2f2" transform="translate(281.132308 281.662866) scale(0.18 -0.18)">
     <use xlink:href="#Cmmi10-67" transform="translate(0 0.8125)"/>
    </g>
   </g>
   <g id="text_29">
    <!-- $b_i$ -->
    <g style="fill: #cfb991" transform="translate(280.642308 310.83888) scale(0.13 -0.13)">
     <use xlink:href="#Cmmi10-62" transform="translate(0 0.609375)"/>
     <use xlink:href="#Cmmi10-69" transform="translate(42.919922 -16.396875) scale(0.7)"/>
    </g>
   </g>
   <g id="patch_4">
    <path d="M 261.63648 63.098585 
L 296.842486 74.488763 
L 290.629662 63.098585 
L 296.842486 51.708406 
z
" clip-path="url(#p92273a8acd)" style="stroke: #d0d0d0; stroke-width: 1.35; stroke-linejoin: miter"/>
   </g>
   <g id="patch_5">
    <path d="M 261.63648 507.806031 
L 296.842486 519.196209 
L 290.629662 507.806031 
L 296.842486 496.415852 
z
" clip-path="url(#p92273a8acd)" style="stroke: #d0d0d0; stroke-width: 1.35; stroke-linejoin: miter"/>
   </g>
   <g id="patch_6">
    <path d="M 280.274954 69.311409 
C 280.934018 69.311409 281.566177 69.04956 282.032206 68.583532 
C 282.498235 68.117503 282.760084 67.485344 282.760084 66.826279 
C 282.760084 66.167215 282.498235 65.535056 282.032206 65.069027 
C 281.566177 64.602998 280.934018 64.34115 280.274954 64.34115 
C 279.61589 64.34115 278.98373 64.602998 278.517702 65.069027 
C 278.051673 65.535056 277.789824 66.167215 277.789824 66.826279 
C 277.789824 67.485344 278.051673 68.117503 278.517702 68.583532 
C 278.98373 69.04956 279.61589 69.311409 280.274954 69.311409 
z
" clip-path="url(#p92273a8acd)" style="fill: #cfb991; stroke: #000000; stroke-width: 0.4; stroke-linejoin: miter"/>
   </g>
   <g id="patch_7">
    <path d="M 280.274954 514.018855 
C 280.934018 514.018855 281.566177 513.757006 282.032206 513.290978 
C 282.498235 512.824949 282.760084 512.19279 282.760084 511.533726 
C 282.760084 510.874661 282.498235 510.242502 282.032206 509.776473 
C 281.566177 509.310445 280.934018 509.048596 280.274954 509.048596 
C 279.61589 509.048596 278.98373 509.310445 278.517702 509.776473 
C 278.051673 510.242502 277.789824 510.874661 277.789824 511.533726 
C 277.789824 512.19279 278.051673 512.824949 278.517702 513.290978 
C 278.98373 513.757006 279.61589 514.018855 280.274954 514.018855 
z
" clip-path="url(#p92273a8acd)" style="fill: #cfb991; stroke: #000000; stroke-width: 0.4; stroke-linejoin: miter"/>
   </g>
  </g>
 </g>
 <defs>
  <clipPath id="p92273a8acd">
   <rect x="12.96" y="12.96" width="544.984615" height="566.784"/>
  </clipPath>
 </defs>
</svg>
