<?xml version="1.0" encoding="utf-8" standalone="no"?>
<!DOCTYPE svg PUBLIC "-//W3C//DTD SVG 1.1//EN"
  "http://www.w3.org/Graphics/SVG/1.1/DTD/svg11.dtd">
<svg xmlns:xlink="http://www.w3.org/1999/xlink" width="545.76pt" height="727.2pt" viewBox="0 0 545.76 727.2" xmlns="http://www.w3.org/2000/svg" version="1.1">
 <metadata>
  <rdf:RDF xmlns:dc="http://purl.org/dc/elements/1.1/" xmlns:cc="http://creativecommons.org/ns#" xmlns:rdf="http://www.w3.org/1999/02/22-rdf-syntax-ns#">
   <cc:Work>
    <dc:type rdf:resource="http://purl.org/dc/dcmitype/StillImage"/>
    <dc:date>2026-07-12T14:13:28.208284</dc:date>
    <dc:format>image/svg+xml</dc:format>
    <dc:creator>
     <cc:Agent>
      <dc:title>Matplotlib v3.10.9, https://matplotlib.org/</dc:title>
     </cc:Agent>
    </dc:creator>
   </cc:Work>
  </rdf:RDF>
 </metadata>
 <defs>
  <style type="text/css">*{stroke-linejoin: round; stroke-linecap: butt}</style>
 </defs>
 <g id="figure_1">
  <g id="patch_1">
   <path d="M 0 727.2 
L 545.76 727.2 
L 545.76 0 
L 0 0 
z
"/>
  </g>
  <g id="axes_1">
   <g id="patch_2">
    <path d="M 108.3744 123.6456 
L 437.3856 123.6456 
L 437.3856 85.392 
L 108.3744 85.392 
z
" style="stroke: #f2f2f2; stroke-width: 1.1; stroke-linejoin: miter"/>
   </g>
   <g id="line2d_1">
    <path d="M 15.84 78.4368 
L 529.92 78.4368 
" style="fill: none; stroke: #3a3a3a; stroke-width: 0.8; stroke-linecap: square"/>
   </g>
   <g id="text_1">
    <!-- CHARM13  ·  closed forms -->
    <g style="fill: #f2f2f2" transform="translate(162.372187 48.103256) scale(0.15 -0.15)">
     <defs>
      <path id="DejaVuSerif-Bold-43" d="M 4769 1331 
Q 4584 609 4106 259 
Q 3628 -91 2822 -91 
Q 1641 -91 955 561 
Q 269 1213 269 2328 
Q 269 3447 955 4098 
Q 1641 4750 2822 4750 
Q 3238 4750 3688 4650 
Q 4138 4550 4641 4347 
L 4641 3200 
L 4244 3200 
Q 4122 3788 3800 4080 
Q 3478 4372 2950 4372 
Q 2269 4372 1937 3870 
Q 1606 3369 1606 2328 
Q 1606 1288 1937 788 
Q 2269 288 2956 288 
Q 3422 288 3717 547 
Q 4013 806 4147 1331 
L 4769 1331 
z
" transform="scale(0.015625)"/>
      <path id="DejaVuSerif-Bold-48" d="M 300 0 
L 300 378 
L 897 378 
L 897 4288 
L 300 4288 
L 300 4666 
L 2700 4666 
L 2700 4288 
L 2100 4288 
L 2100 2719 
L 3956 2719 
L 3956 4288 
L 3359 4288 
L 3359 4666 
L 5759 4666 
L 5759 4288 
L 5159 4288 
L 5159 378 
L 5759 378 
L 5759 0 
L 3359 0 
L 3359 378 
L 3956 378 
L 3956 2291 
L 2100 2291 
L 2100 378 
L 2700 378 
L 2700 0 
L 300 0 
z
" transform="scale(0.015625)"/>
      <path id="DejaVuSerif-Bold-41" d="M -50 0 
L -50 378 
L 331 378 
L 2088 4666 
L 2834 4666 
L 4594 378 
L 5038 378 
L 5038 0 
L 2853 0 
L 2853 378 
L 3309 378 
L 2925 1331 
L 1172 1331 
L 781 378 
L 1338 378 
L 1338 0 
L -50 0 
z
M 1325 1709 
L 2772 1709 
L 2053 3494 
L 1325 1709 
z
" transform="scale(0.015625)"/>
      <path id="DejaVuSerif-Bold-52" d="M 3397 2278 
Q 3675 2238 3865 2094 
Q 4056 1950 4197 1678 
L 4878 378 
L 5356 378 
L 5356 0 
L 3822 0 
L 3078 1409 
Q 2863 1847 2711 1967 
Q 2559 2088 2291 2088 
L 2100 2088 
L 2100 378 
L 2700 378 
L 2700 0 
L 300 0 
L 300 378 
L 897 378 
L 897 4288 
L 300 4288 
L 300 4666 
L 2963 4666 
Q 3775 4666 4217 4339 
Q 4659 4013 4659 3413 
Q 4659 2925 4345 2642 
Q 4031 2359 3397 2278 
z
M 2100 2463 
L 2509 2463 
Q 2947 2463 3183 2700 
Q 3419 2938 3419 3378 
Q 3419 3819 3183 4053 
Q 2947 4288 2509 4288 
L 2100 4288 
L 2100 2463 
z
" transform="scale(0.015625)"/>
      <path id="DejaVuSerif-Bold-4d" d="M 269 0 
L 269 378 
L 863 378 
L 863 4288 
L 269 4288 
L 269 4666 
L 2194 4666 
L 3525 1672 
L 4863 4666 
L 6784 4666 
L 6784 4288 
L 6188 4288 
L 6188 378 
L 6784 378 
L 6784 0 
L 4384 0 
L 4384 378 
L 4978 378 
L 4978 3938 
L 3531 684 
L 2741 684 
L 1300 3938 
L 1300 378 
L 1894 378 
L 1894 0 
L 269 0 
z
" transform="scale(0.015625)"/>
      <path id="DejaVuSerif-Bold-31" d="M 878 0 
L 878 378 
L 1753 378 
L 1753 4153 
L 781 3578 
L 781 4044 
L 1953 4750 
L 2938 4750 
L 2938 378 
L 3816 378 
L 3816 0 
L 878 0 
z
" transform="scale(0.015625)"/>
      <path id="DejaVuSerif-Bold-33" d="M 550 4531 
Q 963 4641 1350 4695 
Q 1738 4750 2106 4750 
Q 2950 4750 3401 4448 
Q 3853 4147 3853 3584 
Q 3853 3163 3593 2900 
Q 3334 2638 2834 2547 
Q 3444 2450 3744 2131 
Q 4044 1813 4044 1259 
Q 4044 606 3526 257 
Q 3009 -91 2028 -91 
Q 1659 -91 1267 -28 
Q 875 34 447 159 
L 447 1184 
L 825 1184 
Q 859 741 1103 508 
Q 1347 275 1778 275 
Q 2253 275 2512 539 
Q 2772 803 2772 1288 
Q 2772 1794 2501 2069 
Q 2231 2344 1734 2344 
L 1528 2344 
L 1528 2719 
L 1691 2719 
Q 2150 2719 2381 2931 
Q 2613 3144 2613 3566 
Q 2613 3963 2395 4173 
Q 2178 4384 1772 4384 
Q 1403 4384 1187 4182 
Q 972 3981 928 3597 
L 550 3597 
L 550 4531 
z
" transform="scale(0.015625)"/>
      <path id="DejaVuSerif-Bold-20" transform="scale(0.015625)"/>
      <path id="DejaVuSerif-Bold-b7" d="M 519 2222 
Q 519 2466 694 2641 
Q 869 2816 1113 2816 
Q 1359 2816 1534 2641 
Q 1709 2466 1709 2222 
Q 1709 1978 1534 1804 
Q 1359 1631 1113 1631 
Q 869 1631 694 1804 
Q 519 1978 519 2222 
z
" transform="scale(0.015625)"/>
      <path id="DejaVuSerif-Bold-63" d="M 3609 1038 
Q 3491 469 3123 189 
Q 2756 -91 2125 -91 
Q 1238 -91 750 368 
Q 263 828 263 1663 
Q 263 2488 744 2950 
Q 1225 3413 2081 3413 
Q 2428 3413 2781 3347 
Q 3134 3281 3500 3150 
L 3500 2228 
L 3150 2228 
Q 3100 2650 2903 2854 
Q 2706 3059 2350 3059 
Q 1888 3059 1692 2746 
Q 1497 2434 1497 1663 
Q 1497 909 1687 586 
Q 1878 263 2309 263 
Q 2644 263 2845 463 
Q 3047 663 3091 1038 
L 3609 1038 
z
" transform="scale(0.015625)"/>
      <path id="DejaVuSerif-Bold-6c" d="M 1797 378 
L 2272 378 
L 2272 0 
L 219 0 
L 219 378 
L 691 378 
L 691 4488 
L 219 4488 
L 219 4863 
L 1797 4863 
L 1797 378 
z
" transform="scale(0.015625)"/>
      <path id="DejaVuSerif-Bold-6f" d="M 2138 263 
Q 2488 263 2630 563 
Q 2772 863 2772 1663 
Q 2772 2463 2631 2761 
Q 2491 3059 2138 3059 
Q 1784 3059 1640 2757 
Q 1497 2456 1497 1663 
Q 1497 869 1640 566 
Q 1784 263 2138 263 
z
M 2138 -91 
Q 1259 -91 761 376 
Q 263 844 263 1663 
Q 263 2484 761 2948 
Q 1259 3413 2138 3413 
Q 3019 3413 3516 2948 
Q 4013 2484 4013 1663 
Q 4013 844 3514 376 
Q 3016 -91 2138 -91 
z
" transform="scale(0.015625)"/>
      <path id="DejaVuSerif-Bold-73" d="M 300 97 
L 300 1025 
L 653 1025 
Q 697 653 931 458 
Q 1166 263 1569 263 
Q 1906 263 2086 380 
Q 2266 497 2266 716 
Q 2266 916 2152 1025 
Q 2038 1134 1709 1216 
L 1253 1331 
Q 738 1459 506 1698 
Q 275 1938 275 2344 
Q 275 2884 650 3148 
Q 1025 3413 1806 3413 
Q 2100 3413 2433 3364 
Q 2766 3316 3169 3213 
L 3169 2375 
L 2816 2375 
Q 2788 2716 2573 2887 
Q 2359 3059 1959 3059 
Q 1622 3059 1448 2951 
Q 1275 2844 1275 2638 
Q 1275 2469 1375 2372 
Q 1475 2275 1734 2209 
L 2188 2094 
Q 2841 1928 3091 1684 
Q 3341 1441 3341 1006 
Q 3341 444 2939 176 
Q 2538 -91 1691 -91 
Q 1381 -91 1034 -44 
Q 688 3 300 97 
z
" transform="scale(0.015625)"/>
      <path id="DejaVuSerif-Bold-65" d="M 2566 1875 
Q 2566 2531 2444 2795 
Q 2322 3059 2028 3059 
Q 1744 3059 1620 2800 
Q 1497 2541 1497 1931 
L 1497 1875 
L 2566 1875 
z
M 3781 1503 
L 1497 1503 
L 1497 1478 
Q 1497 834 1690 548 
Q 1884 263 2316 263 
Q 2675 263 2897 453 
Q 3119 644 3181 1006 
L 3700 1006 
Q 3566 441 3166 175 
Q 2766 -91 2047 -91 
Q 1184 -91 723 364 
Q 263 819 263 1663 
Q 263 2488 734 2950 
Q 1206 3413 2047 3413 
Q 2872 3413 3312 2927 
Q 3753 2441 3781 1503 
z
" transform="scale(0.015625)"/>
      <path id="DejaVuSerif-Bold-64" d="M 2747 1497 
L 2747 1825 
Q 2747 2406 2597 2665 
Q 2447 2925 2119 2925 
Q 1775 2925 1636 2651 
Q 1497 2378 1497 1663 
Q 1497 947 1637 672 
Q 1778 397 2119 397 
Q 2447 397 2597 656 
Q 2747 916 2747 1497 
z
M 3853 378 
L 4325 378 
L 4325 0 
L 2747 0 
L 2747 422 
Q 2606 163 2367 36 
Q 2128 -91 1778 -91 
Q 1072 -91 667 378 
Q 263 847 263 1663 
Q 263 2481 667 2947 
Q 1072 3413 1778 3413 
Q 2128 3413 2367 3286 
Q 2606 3159 2747 2900 
L 2747 4488 
L 2272 4488 
L 2272 4863 
L 3853 4863 
L 3853 378 
z
" transform="scale(0.015625)"/>
      <path id="DejaVuSerif-Bold-66" d="M 3097 4031 
L 2747 4031 
Q 2722 4275 2605 4394 
Q 2488 4513 2272 4513 
Q 2022 4513 1909 4333 
Q 1797 4153 1797 3750 
L 1797 3322 
L 2631 3322 
L 2631 2944 
L 1797 2944 
L 1797 378 
L 2438 378 
L 2438 0 
L 219 0 
L 219 378 
L 691 378 
L 691 2944 
L 197 2944 
L 197 3322 
L 691 3322 
L 691 3738 
Q 691 4291 1044 4577 
Q 1397 4863 2081 4863 
Q 2347 4863 2600 4833 
Q 2853 4803 3097 4744 
L 3097 4031 
z
" transform="scale(0.015625)"/>
      <path id="DejaVuSerif-Bold-72" d="M 3438 3359 
L 3438 2369 
L 3084 2369 
Q 3066 2634 2941 2764 
Q 2816 2894 2578 2894 
Q 2216 2894 2006 2575 
Q 1797 2256 1797 1691 
L 1797 378 
L 2400 378 
L 2400 0 
L 219 0 
L 219 378 
L 691 378 
L 691 2944 
L 184 2944 
L 184 3322 
L 1797 3322 
L 1797 2731 
Q 1959 3078 2226 3245 
Q 2494 3413 2881 3413 
Q 2978 3413 3117 3398 
Q 3256 3384 3438 3359 
z
" transform="scale(0.015625)"/>
      <path id="DejaVuSerif-Bold-6d" d="M 3884 2778 
Q 4116 3109 4384 3261 
Q 4653 3413 5013 3413 
Q 5584 3413 5867 3089 
Q 6150 2766 6150 2113 
L 6150 378 
L 6625 378 
L 6625 0 
L 4647 0 
L 4647 378 
L 5044 378 
L 5044 1947 
Q 5044 2569 4948 2731 
Q 4853 2894 4594 2894 
Q 4300 2894 4137 2667 
Q 3975 2441 3975 2022 
L 3975 378 
L 4372 378 
L 4372 0 
L 2472 0 
L 2472 378 
L 2869 378 
L 2869 1947 
Q 2869 2569 2772 2731 
Q 2675 2894 2419 2894 
Q 2122 2894 1959 2667 
Q 1797 2441 1797 2022 
L 1797 378 
L 2194 378 
L 2194 0 
L 219 0 
L 219 378 
L 691 378 
L 691 2944 
L 219 2944 
L 219 3322 
L 1797 3322 
L 1797 2853 
Q 1991 3144 2241 3278 
Q 2491 3413 2834 3413 
Q 3241 3413 3494 3258 
Q 3747 3103 3884 2778 
z
" transform="scale(0.015625)"/>
     </defs>
     <use xlink:href="#DejaVuSerif-Bold-43"/>
     <use xlink:href="#DejaVuSerif-Bold-48" transform="translate(79.589844 0)"/>
     <use xlink:href="#DejaVuSerif-Bold-41" transform="translate(174.072266 0)"/>
     <use xlink:href="#DejaVuSerif-Bold-52" transform="translate(251.660156 0)"/>
     <use xlink:href="#DejaVuSerif-Bold-4d" transform="translate(334.765625 0)"/>
     <use xlink:href="#DejaVuSerif-Bold-31" transform="translate(445.458984 0)"/>
     <use xlink:href="#DejaVuSerif-Bold-33" transform="translate(515.039062 0)"/>
     <use xlink:href="#DejaVuSerif-Bold-20" transform="translate(584.619141 0)"/>
     <use xlink:href="#DejaVuSerif-Bold-20" transform="translate(619.433594 0)"/>
     <use xlink:href="#DejaVuSerif-Bold-b7" transform="translate(654.248047 0)"/>
     <use xlink:href="#DejaVuSerif-Bold-20" transform="translate(689.0625 0)"/>
     <use xlink:href="#DejaVuSerif-Bold-20" transform="translate(723.876953 0)"/>
     <use xlink:href="#DejaVuSerif-Bold-63" transform="translate(758.691406 0)"/>
     <use xlink:href="#DejaVuSerif-Bold-6c" transform="translate(819.580078 0)"/>
     <use xlink:href="#DejaVuSerif-Bold-6f" transform="translate(857.568359 0)"/>
     <use xlink:href="#DejaVuSerif-Bold-73" transform="translate(924.267578 0)"/>
     <use xlink:href="#DejaVuSerif-Bold-65" transform="translate(980.566406 0)"/>
     <use xlink:href="#DejaVuSerif-Bold-64" transform="translate(1044.189453 0)"/>
     <use xlink:href="#DejaVuSerif-Bold-20" transform="translate(1114.111328 0)"/>
     <use xlink:href="#DejaVuSerif-Bold-66" transform="translate(1148.925781 0)"/>
     <use xlink:href="#DejaVuSerif-Bold-6f" transform="translate(1191.943359 0)"/>
     <use xlink:href="#DejaVuSerif-Bold-72" transform="translate(1258.642578 0)"/>
     <use xlink:href="#DejaVuSerif-Bold-6d" transform="translate(1311.328125 0)"/>
     <use xlink:href="#DejaVuSerif-Bold-73" transform="translate(1417.138672 0)"/>
    </g>
   </g>
   <g id="text_2">
    <!-- finite-model ladder  ·  proved in the frozen OPEN model -->
    <g style="fill: #8a8a8a" transform="translate(138.066836 68.267316) scale(0.095 -0.095)">
     <defs>
      <path id="DejaVuSerif-Italic-66" d="M 3191 4078 
L 2888 4078 
Q 2900 4144 2900 4203 
Q 2900 4347 2825 4434 
Q 2719 4556 2472 4556 
Q 2150 4556 1984 4379 
Q 1819 4203 1731 3750 
L 1647 3322 
L 2575 3322 
L 2509 2988 
L 1581 2988 
L 963 -206 
Q 853 -763 509 -1047 
Q 166 -1331 -394 -1331 
L -356 -1025 
Q -28 -1025 131 -850 
Q 297 -663 388 -206 
L 1006 2988 
L 456 2988 
L 522 3322 
L 1072 3322 
L 1153 3738 
Q 1263 4297 1606 4578 
Q 1950 4863 2509 4863 
Q 2719 4863 2920 4825 
Q 3122 4788 3316 4709 
L 3191 4078 
z
" transform="scale(0.015625)"/>
      <path id="DejaVuSerif-Italic-69" d="M 1009 4353 
Q 1038 4497 1163 4603 
Q 1288 4709 1434 4709 
Q 1578 4709 1663 4603 
Q 1728 4522 1728 4422 
Q 1728 4388 1719 4353 
Q 1691 4206 1567 4103 
Q 1444 4000 1297 4000 
Q 1150 4000 1066 4103 
Q 1003 4181 1003 4281 
Q 1003 4316 1009 4353 
z
M 963 331 
L 1506 331 
L 1444 0 
L 325 0 
L 903 2988 
L 353 2988 
L 419 3322 
L 1544 3322 
L 963 331 
z
" transform="scale(0.015625)"/>
      <path id="DejaVuSerif-Italic-6e" d="M 450 0 
L 1031 2988 
L 481 2988 
L 544 3322 
L 1669 3322 
L 1556 2731 
Q 1781 3069 2068 3241 
Q 2356 3413 2694 3413 
Q 3244 3413 3444 3097 
Q 3563 2906 3563 2588 
Q 3563 2378 3509 2113 
L 3163 331 
L 3675 331 
L 3613 0 
L 2522 0 
L 2897 1931 
Q 2959 2253 2959 2469 
Q 2959 2659 2909 2769 
Q 2803 2994 2425 2994 
Q 2025 2994 1759 2701 
Q 1494 2409 1384 1850 
L 1025 0 
L 450 0 
z
" transform="scale(0.015625)"/>
      <path id="DejaVuSerif-Italic-74" d="M 856 2988 
L 350 2988 
L 416 3322 
L 922 3322 
L 1122 4353 
L 1700 4353 
L 1500 3322 
L 2581 3322 
L 2516 2988 
L 1434 2988 
L 1025 878 
Q 978 631 978 488 
Q 978 388 1000 338 
Q 1059 219 1278 219 
Q 1503 219 1633 351 
Q 1763 484 1825 781 
L 2259 781 
Q 2147 328 1884 118 
Q 1622 -91 1169 -91 
Q 672 -91 506 131 
Q 406 266 406 516 
Q 406 675 447 878 
L 856 2988 
z
" transform="scale(0.015625)"/>
      <path id="DejaVuSerif-Italic-65" d="M 938 1275 
Q 925 1156 925 1050 
Q 925 756 1031 563 
Q 1216 219 1709 219 
Q 2072 219 2250 328 
Q 2569 525 2644 778 
L 3066 778 
Q 2941 381 2475 103 
Q 2150 -91 1506 -91 
Q 863 -91 516 388 
Q 272 722 272 1206 
Q 272 1419 319 1659 
Q 472 2450 1000 2931 
Q 1528 3413 2278 3413 
Q 3500 3413 3500 2547 
Q 3500 1913 2859 1603 
Q 2206 1288 938 1275 
z
M 2541 1975 
Q 2891 2181 2891 2569 
Q 2891 3103 2181 3103 
Q 1763 3103 1472 2784 
Q 1181 2466 1003 1606 
Q 2006 1653 2541 1975 
z
" transform="scale(0.015625)"/>
      <path id="DejaVuSerif-Italic-2d" d="M 328 1959 
L 1928 1959 
L 1834 1472 
L 234 1472 
L 328 1959 
z
" transform="scale(0.015625)"/>
      <path id="DejaVuSerif-Italic-6d" d="M 3503 2675 
Q 3741 3041 4034 3227 
Q 4328 3413 4672 3413 
Q 5194 3413 5388 3088 
Q 5503 2894 5503 2578 
Q 5503 2372 5453 2113 
L 5106 331 
L 5625 331 
L 5563 0 
L 4469 0 
L 4866 2047 
Q 4913 2291 4913 2466 
Q 4913 2659 4856 2772 
Q 4750 2988 4403 2988 
Q 4019 2988 3761 2697 
Q 3503 2406 3394 1850 
L 3034 0 
L 2459 0 
L 2863 2069 
Q 2906 2303 2906 2472 
Q 2906 2666 2850 2775 
Q 2741 2988 2394 2988 
Q 2009 2988 1751 2697 
Q 1494 2406 1384 1850 
L 1025 0 
L 450 0 
L 1031 2994 
L 481 2994 
L 544 3322 
L 1669 3322 
L 1556 2731 
Q 1778 3063 2059 3238 
Q 2341 3413 2653 3413 
Q 3041 3413 3262 3220 
Q 3484 3028 3503 2675 
z
" transform="scale(0.015625)"/>
      <path id="DejaVuSerif-Italic-6f" d="M 1644 219 
Q 2106 219 2414 584 
Q 2722 950 2859 1663 
Q 2922 1988 2922 2241 
Q 2922 2541 2834 2738 
Q 2669 3103 2206 3103 
Q 1744 3103 1436 2739 
Q 1128 2375 991 1663 
Q 928 1338 928 1088 
Q 928 784 1019 584 
Q 1184 219 1644 219 
z
M 1584 -91 
Q 859 -91 513 388 
Q 272 722 272 1203 
Q 272 1419 319 1663 
Q 472 2456 1005 2934 
Q 1538 3413 2266 3413 
Q 2994 3413 3341 2934 
Q 3578 2603 3578 2122 
Q 3578 1906 3531 1663 
Q 3378 869 2845 389 
Q 2313 -91 1584 -91 
z
" transform="scale(0.015625)"/>
      <path id="DejaVuSerif-Italic-64" d="M 3841 4863 
L 2897 0 
L 2322 0 
L 2422 519 
Q 2191 206 1902 57 
Q 1613 -91 1228 -91 
Q 616 -91 322 394 
Q 125 716 125 1166 
Q 125 1397 178 1663 
Q 331 2444 812 2928 
Q 1294 3413 1909 3413 
Q 2294 3413 2525 3264 
Q 2756 3116 2866 2803 
L 3200 4531 
L 2656 4531 
L 2722 4863 
L 3841 4863 
z
M 2613 1497 
L 2675 1825 
Q 2722 2069 2722 2266 
Q 2722 2550 2622 2738 
Q 2456 3053 2019 3053 
Q 1575 3053 1279 2703 
Q 984 2353 850 1663 
Q 788 1347 788 1103 
Q 788 813 875 622 
Q 1031 269 1475 269 
Q 1913 269 2203 583 
Q 2494 897 2613 1497 
z
" transform="scale(0.015625)"/>
      <path id="DejaVuSerif-Italic-6c" d="M 903 331 
L 1447 331 
L 1384 0 
L 266 0 
L 1147 4531 
L 594 4531 
L 656 4863 
L 1784 4863 
L 903 331 
z
" transform="scale(0.015625)"/>
      <path id="DejaVuSerif-Italic-20" transform="scale(0.015625)"/>
      <path id="DejaVuSerif-Italic-61" d="M 2325 519 
Q 1909 -91 1238 -91 
Q 688 -91 409 281 
Q 216 544 216 919 
Q 216 1078 250 1256 
Q 463 2359 1231 2928 
Q 1884 3413 2675 3413 
Q 3206 3413 3388 3322 
L 2806 331 
L 3300 331 
L 3238 0 
L 2225 0 
L 2325 519 
z
M 822 938 
Q 822 269 1469 269 
Q 1863 269 2130 583 
Q 2397 897 2516 1497 
L 2806 3003 
L 2806 3003 
Q 2806 3094 2556 3094 
Q 1956 3094 1491 2625 
Q 1028 2153 863 1297 
Q 822 1097 822 938 
z
" transform="scale(0.015625)"/>
      <path id="DejaVuSerif-Italic-72" d="M 3375 3328 
L 3213 2497 
L 2881 2497 
Q 2891 2559 2891 2613 
Q 2891 2775 2816 2866 
Q 2719 2988 2484 2988 
Q 2059 2988 1775 2694 
Q 1491 2400 1384 1850 
L 1025 0 
L 450 0 
L 1031 2994 
L 481 2994 
L 544 3322 
L 1669 3322 
L 1556 2731 
Q 1791 3078 2089 3245 
Q 2388 3413 2769 3413 
Q 2909 3413 3059 3391 
Q 3209 3369 3375 3328 
z
" transform="scale(0.015625)"/>
      <path id="DejaVuSerif-Italic-b7" d="M 594 2222 
Q 628 2397 772 2517 
Q 916 2638 1094 2638 
Q 1266 2638 1364 2516 
Q 1463 2394 1428 2222 
Q 1394 2047 1248 1926 
Q 1103 1806 931 1806 
Q 753 1806 656 1925 
Q 559 2044 594 2222 
z
" transform="scale(0.015625)"/>
      <path id="DejaVuSerif-Italic-70" d="M 1466 1825 
L 1400 1497 
Q 1353 1250 1353 1053 
Q 1353 769 1453 581 
Q 1622 269 2059 269 
Q 2500 269 2795 622 
Q 3091 975 3225 1663 
Q 3284 1978 3284 2225 
Q 3284 2513 3200 2703 
Q 3041 3053 2600 3053 
Q 2163 3053 1872 2737 
Q 1581 2422 1466 1825 
z
M 1116 2988 
L 563 2988 
L 628 3322 
L 1756 3322 
L 1656 2803 
Q 1884 3116 2175 3264 
Q 2466 3413 2850 3413 
Q 3463 3413 3753 2928 
Q 3947 2609 3947 2163 
Q 3947 1928 3897 1663 
Q 3744 881 3262 395 
Q 2781 -91 2169 -91 
Q 1784 -91 1551 57 
Q 1319 206 1213 519 
L 850 -1331 
L 275 -1331 
L 1116 2988 
z
" transform="scale(0.015625)"/>
      <path id="DejaVuSerif-Italic-76" d="M 1681 0 
L 1259 0 
L 619 2988 
L 241 2988 
L 303 3322 
L 1163 3322 
L 1725 703 
Q 2084 1016 2325 1413 
Q 2825 2238 3003 2988 
L 2622 2988 
L 2688 3322 
L 3547 3322 
Q 3206 2034 2775 1313 
Q 2400 688 1681 0 
z
" transform="scale(0.015625)"/>
      <path id="DejaVuSerif-Italic-68" d="M 309 0 
L 1191 4531 
L 641 4531 
L 703 4863 
L 1828 4863 
L 1416 2731 
Q 1641 3069 1928 3241 
Q 2216 3413 2553 3413 
Q 3103 3413 3300 3097 
Q 3422 2906 3422 2588 
Q 3422 2378 3369 2113 
L 3022 331 
L 3534 331 
L 3472 0 
L 2381 0 
L 2756 1931 
Q 2819 2253 2819 2469 
Q 2819 2659 2769 2763 
Q 2666 2988 2284 2988 
Q 1884 2988 1617 2697 
Q 1350 2406 1244 1850 
L 884 0 
L 309 0 
z
" transform="scale(0.015625)"/>
      <path id="DejaVuSerif-Italic-7a" d="M 2550 3047 
Q 2888 3047 3216 3322 
L 3403 3322 
L 3353 3053 
L 1081 684 
Q 1113 675 1203 647 
Q 1309 613 1416 544 
L 1569 450 
Q 1863 272 2075 272 
Q 2484 272 2966 741 
L 2891 363 
Q 2356 -163 1950 -163 
Q 1703 -156 1356 59 
Q 1009 275 791 275 
Q 453 275 125 0 
L -63 0 
L -13 269 
L 2263 2634 
Q 2228 2647 2138 2675 
Q 2031 2709 1925 2778 
L 1772 2872 
Q 1478 3050 1266 3050 
Q 856 3050 375 2581 
L 450 2959 
Q 984 3484 1391 3484 
Q 1638 3478 1984 3262 
Q 2331 3047 2550 3047 
z
" transform="scale(0.015625)"/>
      <path id="DejaVuSerif-Italic-4f" d="M 2219 244 
Q 2984 244 3478 770 
Q 3972 1297 4172 2328 
Q 4372 3363 4084 3889 
Q 3797 4416 3031 4416 
Q 2263 4416 1769 3889 
Q 1275 3363 1075 2328 
Q 875 1297 1162 770 
Q 1450 244 2219 244 
z
M 2153 -91 
Q 1678 -91 1311 65 
Q 944 222 700 525 
Q 419 875 334 1319 
Q 250 1763 359 2328 
Q 469 2894 725 3339 
Q 981 3784 1400 4134 
Q 1766 4441 2191 4595 
Q 2616 4750 3097 4750 
Q 4113 4750 4608 4084 
Q 5103 3419 4891 2328 
Q 4781 1769 4522 1320 
Q 4263 872 3847 525 
Q 3481 219 3056 64 
Q 2631 -91 2153 -91 
z
" transform="scale(0.015625)"/>
      <path id="DejaVuSerif-Italic-50" d="M 1594 2375 
L 2419 2375 
Q 2884 2375 3176 2626 
Q 3469 2878 3559 3353 
Q 3653 3831 3458 4081 
Q 3263 4331 2797 4331 
L 1972 4331 
L 1594 2375 
z
M -97 0 
L -34 331 
L 559 331 
L 1338 4331 
L 744 4331 
L 809 4666 
L 3016 4666 
Q 3716 4666 4056 4311 
Q 4397 3956 4278 3353 
Q 4163 2753 3684 2397 
Q 3206 2041 2506 2041 
L 1528 2041 
L 1194 331 
L 1916 331 
L 1853 0 
L -97 0 
z
" transform="scale(0.015625)"/>
      <path id="DejaVuSerif-Italic-45" d="M -97 0 
L -34 331 
L 559 331 
L 1338 4331 
L 744 4331 
L 809 4666 
L 4566 4666 
L 4366 3628 
L 3981 3628 
L 4106 4281 
L 1963 4281 
L 1659 2719 
L 3188 2719 
L 3300 3303 
L 3684 3303 
L 3384 1753 
L 3000 1753 
L 3113 2338 
L 1584 2338 
L 1206 384 
L 3400 384 
L 3525 1038 
L 3909 1038 
L 3709 0 
L -97 0 
z
" transform="scale(0.015625)"/>
      <path id="DejaVuSerif-Italic-4e" d="M -128 0 
L -66 331 
L 563 331 
L 1341 4331 
L 713 4331 
L 778 4666 
L 1975 4666 
L 4056 984 
L 4706 4331 
L 4081 4331 
L 4147 4666 
L 5784 4666 
L 5719 4331 
L 5091 4331 
L 4231 -91 
L 3853 -91 
L 1631 3841 
L 947 331 
L 1575 331 
L 1513 0 
L -128 0 
z
" transform="scale(0.015625)"/>
     </defs>
     <use xlink:href="#DejaVuSerif-Italic-66"/>
     <use xlink:href="#DejaVuSerif-Italic-69" transform="translate(37.011719 0)"/>
     <use xlink:href="#DejaVuSerif-Italic-6e" transform="translate(68.994141 0)"/>
     <use xlink:href="#DejaVuSerif-Italic-69" transform="translate(133.398438 0)"/>
     <use xlink:href="#DejaVuSerif-Italic-74" transform="translate(165.380859 0)"/>
     <use xlink:href="#DejaVuSerif-Italic-65" transform="translate(205.566406 0)"/>
     <use xlink:href="#DejaVuSerif-Italic-2d" transform="translate(264.746094 0)"/>
     <use xlink:href="#DejaVuSerif-Italic-6d" transform="translate(298.535156 0)"/>
     <use xlink:href="#DejaVuSerif-Italic-6f" transform="translate(393.359375 0)"/>
     <use xlink:href="#DejaVuSerif-Italic-64" transform="translate(453.564453 0)"/>
     <use xlink:href="#DejaVuSerif-Italic-65" transform="translate(517.578125 0)"/>
     <use xlink:href="#DejaVuSerif-Italic-6c" transform="translate(576.757812 0)"/>
     <use xlink:href="#DejaVuSerif-Italic-20" transform="translate(608.740234 0)"/>
     <use xlink:href="#DejaVuSerif-Italic-6c" transform="translate(640.527344 0)"/>
     <use xlink:href="#DejaVuSerif-Italic-61" transform="translate(672.509766 0)"/>
     <use xlink:href="#DejaVuSerif-Italic-64" transform="translate(732.128906 0)"/>
     <use xlink:href="#DejaVuSerif-Italic-64" transform="translate(796.142578 0)"/>
     <use xlink:href="#DejaVuSerif-Italic-65" transform="translate(860.15625 0)"/>
     <use xlink:href="#DejaVuSerif-Italic-72" transform="translate(919.335938 0)"/>
     <use xlink:href="#DejaVuSerif-Italic-20" transform="translate(967.138672 0)"/>
     <use xlink:href="#DejaVuSerif-Italic-20" transform="translate(998.925781 0)"/>
     <use xlink:href="#DejaVuSerif-Italic-b7" transform="translate(1030.712891 0)"/>
     <use xlink:href="#DejaVuSerif-Italic-20" transform="translate(1062.5 0)"/>
     <use xlink:href="#DejaVuSerif-Italic-20" transform="translate(1094.287109 0)"/>
     <use xlink:href="#DejaVuSerif-Italic-70" transform="translate(1126.074219 0)"/>
     <use xlink:href="#DejaVuSerif-Italic-72" transform="translate(1190.087891 0)"/>
     <use xlink:href="#DejaVuSerif-Italic-6f" transform="translate(1237.890625 0)"/>
     <use xlink:href="#DejaVuSerif-Italic-76" transform="translate(1298.095703 0)"/>
     <use xlink:href="#DejaVuSerif-Italic-65" transform="translate(1354.589844 0)"/>
     <use xlink:href="#DejaVuSerif-Italic-64" transform="translate(1413.769531 0)"/>
     <use xlink:href="#DejaVuSerif-Italic-20" transform="translate(1477.783203 0)"/>
     <use xlink:href="#DejaVuSerif-Italic-69" transform="translate(1509.570312 0)"/>
     <use xlink:href="#DejaVuSerif-Italic-6e" transform="translate(1541.552734 0)"/>
     <use xlink:href="#DejaVuSerif-Italic-20" transform="translate(1605.957031 0)"/>
     <use xlink:href="#DejaVuSerif-Italic-74" transform="translate(1637.744141 0)"/>
     <use xlink:href="#DejaVuSerif-Italic-68" transform="translate(1677.929688 0)"/>
     <use xlink:href="#DejaVuSerif-Italic-65" transform="translate(1742.333984 0)"/>
     <use xlink:href="#DejaVuSerif-Italic-20" transform="translate(1801.513672 0)"/>
     <use xlink:href="#DejaVuSerif-Italic-66" transform="translate(1833.300781 0)"/>
     <use xlink:href="#DejaVuSerif-Italic-72" transform="translate(1870.3125 0)"/>
     <use xlink:href="#DejaVuSerif-Italic-6f" transform="translate(1918.115234 0)"/>
     <use xlink:href="#DejaVuSerif-Italic-7a" transform="translate(1978.320312 0)"/>
     <use xlink:href="#DejaVuSerif-Italic-65" transform="translate(2031.005859 0)"/>
     <use xlink:href="#DejaVuSerif-Italic-6e" transform="translate(2090.185547 0)"/>
     <use xlink:href="#DejaVuSerif-Italic-20" transform="translate(2154.589844 0)"/>
     <use xlink:href="#DejaVuSerif-Italic-4f" transform="translate(2186.376953 0)"/>
     <use xlink:href="#DejaVuSerif-Italic-50" transform="translate(2268.359375 0)"/>
     <use xlink:href="#DejaVuSerif-Italic-45" transform="translate(2335.644531 0)"/>
     <use xlink:href="#DejaVuSerif-Italic-4e" transform="translate(2408.642578 0)"/>
     <use xlink:href="#DejaVuSerif-Italic-20" transform="translate(2496.142578 0)"/>
     <use xlink:href="#DejaVuSerif-Italic-6d" transform="translate(2527.929688 0)"/>
     <use xlink:href="#DejaVuSerif-Italic-6f" transform="translate(2622.753906 0)"/>
     <use xlink:href="#DejaVuSerif-Italic-64" transform="translate(2682.958984 0)"/>
     <use xlink:href="#DejaVuSerif-Italic-65" transform="translate(2746.972656 0)"/>
     <use xlink:href="#DejaVuSerif-Italic-6c" transform="translate(2806.152344 0)"/>
    </g>
   </g>
   <g id="text_3">
    <!-- $G_2(K)=1-1/K$ -->
    <g style="fill: #f2f2f2" transform="translate(218.94 102.9274) scale(0.145 -0.145)">
     <defs>
      <path id="Cmmi10-47" d="M 934 1403 
Q 934 1006 1092 707 
Q 1250 409 1547 246 
Q 1844 84 2234 84 
Q 2616 84 2959 264 
Q 3303 444 3391 781 
L 3531 1331 
Q 3534 1350 3537 1370 
Q 3541 1391 3541 1403 
Q 3541 1469 3500 1478 
Q 3341 1522 2859 1522 
Q 2797 1522 2797 1606 
Q 2816 1684 2831 1715 
Q 2847 1747 2906 1747 
L 4556 1747 
Q 4622 1747 4622 1663 
Q 4619 1647 4609 1609 
Q 4600 1572 4584 1547 
Q 4569 1522 4538 1522 
Q 4325 1522 4226 1487 
Q 4128 1453 4091 1306 
L 3950 756 
L 3769 44 
Q 3759 0 3713 0 
Q 3659 0 3559 144 
Q 3459 288 3419 384 
Q 3197 122 2825 -9 
Q 2453 -141 2059 -141 
Q 1563 -141 1164 84 
Q 766 309 545 709 
Q 325 1109 325 1613 
Q 325 2150 564 2673 
Q 803 3197 1212 3611 
Q 1622 4025 2142 4269 
Q 2663 4513 3194 4513 
Q 3406 4513 3601 4447 
Q 3797 4381 3964 4251 
Q 4131 4122 4238 3950 
L 4744 4500 
Q 4744 4513 4775 4513 
L 4813 4513 
Q 4838 4513 4855 4492 
Q 4872 4472 4872 4447 
L 4434 2719 
Q 4434 2675 4384 2675 
L 4269 2675 
Q 4219 2675 4219 2747 
Q 4244 2888 4244 3078 
Q 4244 3394 4137 3672 
Q 4031 3950 3806 4119 
Q 3581 4288 3256 4288 
Q 2741 4288 2303 4027 
Q 1866 3766 1562 3337 
Q 1259 2909 1096 2396 
Q 934 1884 934 1403 
z
" transform="scale(0.015625)"/>
      <path id="Cmr10-32" d="M 319 0 
L 319 172 
Q 319 188 331 206 
L 1325 1306 
Q 1550 1550 1690 1715 
Q 1831 1881 1968 2097 
Q 2106 2313 2186 2536 
Q 2266 2759 2266 3009 
Q 2266 3272 2169 3511 
Q 2072 3750 1880 3894 
Q 1688 4038 1416 4038 
Q 1138 4038 916 3870 
Q 694 3703 603 3438 
Q 628 3444 672 3444 
Q 816 3444 917 3347 
Q 1019 3250 1019 3097 
Q 1019 2950 917 2848 
Q 816 2747 672 2747 
Q 522 2747 420 2851 
Q 319 2956 319 3097 
Q 319 3338 409 3548 
Q 500 3759 670 3923 
Q 841 4088 1055 4175 
Q 1269 4263 1509 4263 
Q 1875 4263 2190 4108 
Q 2506 3953 2690 3670 
Q 2875 3388 2875 3009 
Q 2875 2731 2753 2481 
Q 2631 2231 2440 2026 
Q 2250 1822 1953 1562 
Q 1656 1303 1563 1216 
L 838 519 
L 1453 519 
Q 1906 519 2211 526 
Q 2516 534 2534 550 
Q 2609 631 2688 1141 
L 2875 1141 
L 2694 0 
L 319 0 
z
" transform="scale(0.015625)"/>
      <path id="Cmr10-28" d="M 1984 -1588 
Q 1628 -1306 1370 -942 
Q 1113 -578 948 -165 
Q 784 247 703 697 
Q 622 1147 622 1600 
Q 622 2059 703 2509 
Q 784 2959 951 3375 
Q 1119 3791 1378 4153 
Q 1638 4516 1984 4788 
Q 1984 4800 2016 4800 
L 2075 4800 
Q 2094 4800 2109 4783 
Q 2125 4766 2125 4744 
Q 2125 4716 2113 4703 
Q 1800 4397 1592 4047 
Q 1384 3697 1257 3301 
Q 1131 2906 1075 2482 
Q 1019 2059 1019 1600 
Q 1019 -434 2106 -1491 
Q 2125 -1509 2125 -1544 
Q 2125 -1559 2108 -1579 
Q 2091 -1600 2075 -1600 
L 2016 -1600 
Q 1984 -1600 1984 -1588 
z
" transform="scale(0.015625)"/>
      <path id="Cmmi10-4b" d="M 300 0 
Q 238 0 238 84 
Q 241 100 250 139 
Q 259 178 276 201 
Q 294 225 319 225 
Q 709 225 863 269 
Q 947 297 984 441 
L 1863 3956 
Q 1875 4019 1875 4044 
Q 1875 4113 1797 4122 
Q 1678 4147 1338 4147 
Q 1275 4147 1275 4231 
Q 1297 4313 1309 4342 
Q 1322 4372 1381 4372 
L 3103 4372 
Q 3169 4372 3169 4288 
Q 3166 4272 3156 4234 
Q 3147 4197 3131 4172 
Q 3116 4147 3084 4147 
Q 2694 4147 2541 4103 
Q 2456 4072 2419 3928 
L 1900 1856 
L 4409 3794 
Q 4416 3806 4489 3879 
Q 4563 3953 4563 4025 
Q 4563 4147 4347 4147 
Q 4281 4147 4281 4231 
Q 4294 4281 4301 4309 
Q 4309 4338 4329 4355 
Q 4350 4372 4391 4372 
L 5631 4372 
Q 5666 4372 5681 4347 
Q 5697 4322 5697 4288 
Q 5694 4272 5683 4231 
Q 5672 4191 5655 4169 
Q 5638 4147 5606 4147 
Q 5138 4147 4581 3713 
Q 4578 3709 4572 3707 
Q 4566 3706 4559 3704 
Q 4553 3703 4550 3700 
L 3231 2675 
L 4191 428 
Q 4278 288 4378 256 
Q 4478 225 4684 225 
Q 4750 225 4750 141 
Q 4731 66 4712 33 
Q 4694 0 4641 0 
L 3156 0 
Q 3097 0 3097 84 
Q 3106 150 3118 187 
Q 3131 225 3181 225 
Q 3344 225 3458 258 
Q 3572 291 3572 409 
Q 3572 453 3566 475 
L 2772 2322 
L 1838 1600 
L 1544 416 
Q 1528 338 1528 325 
Q 1528 259 1606 250 
Q 1728 225 2069 225 
Q 2131 225 2131 141 
Q 2109 50 2096 25 
Q 2084 0 2022 0 
L 300 0 
z
" transform="scale(0.015625)"/>
      <path id="Cmr10-29" d="M 416 -1600 
Q 359 -1600 359 -1544 
Q 359 -1516 372 -1503 
Q 1466 -434 1466 1600 
Q 1466 3634 384 4691 
Q 359 4706 359 4744 
Q 359 4766 376 4783 
Q 394 4800 416 4800 
L 475 4800 
Q 494 4800 506 4788 
Q 966 4425 1272 3906 
Q 1578 3388 1720 2800 
Q 1863 2213 1863 1600 
Q 1863 1147 1786 708 
Q 1709 269 1542 -157 
Q 1375 -584 1119 -945 
Q 863 -1306 506 -1588 
Q 494 -1600 475 -1600 
L 416 -1600 
z
" transform="scale(0.015625)"/>
      <path id="Cmr10-3d" d="M 481 850 
Q 428 850 393 890 
Q 359 931 359 978 
Q 359 1031 393 1068 
Q 428 1106 481 1106 
L 4500 1106 
Q 4547 1106 4581 1068 
Q 4616 1031 4616 978 
Q 4616 931 4581 890 
Q 4547 850 4500 850 
L 481 850 
z
M 481 2094 
Q 428 2094 393 2131 
Q 359 2169 359 2222 
Q 359 2269 393 2309 
Q 428 2350 481 2350 
L 4500 2350 
Q 4547 2350 4581 2309 
Q 4616 2269 4616 2222 
Q 4616 2169 4581 2131 
Q 4547 2094 4500 2094 
L 481 2094 
z
" transform="scale(0.015625)"/>
      <path id="Cmr10-31" d="M 594 0 
L 594 225 
Q 1394 225 1394 428 
L 1394 3788 
Q 1063 3628 556 3628 
L 556 3853 
Q 1341 3853 1741 4263 
L 1831 4263 
Q 1853 4263 1873 4245 
Q 1894 4228 1894 4206 
L 1894 428 
Q 1894 225 2694 225 
L 2694 0 
L 594 0 
z
" transform="scale(0.015625)"/>
      <path id="Cmsy10-a1" d="M 653 1472 
Q 600 1472 565 1512 
Q 531 1553 531 1600 
Q 531 1647 565 1687 
Q 600 1728 653 1728 
L 4325 1728 
Q 4375 1728 4408 1687 
Q 4441 1647 4441 1600 
Q 4441 1553 4408 1512 
Q 4375 1472 4325 1472 
L 653 1472 
z
" transform="scale(0.015625)"/>
      <path id="Cmmi10-3d" d="M 359 -1472 
Q 359 -1453 366 -1447 
L 2591 4722 
Q 2603 4759 2634 4779 
Q 2666 4800 2706 4800 
Q 2763 4800 2798 4765 
Q 2834 4731 2834 4672 
L 2834 4647 
L 609 -1522 
Q 572 -1600 488 -1600 
Q 434 -1600 396 -1562 
Q 359 -1525 359 -1472 
z
" transform="scale(0.015625)"/>
     </defs>
     <use xlink:href="#Cmmi10-47"/>
     <use xlink:href="#Cmr10-32" transform="translate(78.613281 -17.00625) scale(0.7)"/>
     <use xlink:href="#Cmr10-28" transform="translate(119.990625 0)"/>
     <use xlink:href="#Cmmi10-4b" transform="translate(158.808984 0)"/>
     <use xlink:href="#Cmr10-29" transform="translate(243.721094 0)"/>
     <use xlink:href="#Cmr10-3d" transform="translate(300.098047 0)"/>
     <use xlink:href="#Cmr10-31" transform="translate(395.342188 0)"/>
     <use xlink:href="#Cmsy10-a1" transform="translate(462.900781 0)"/>
     <use xlink:href="#Cmr10-31" transform="translate(558.144922 0)"/>
     <use xlink:href="#Cmmi10-3d" transform="translate(608.144922 0)"/>
     <use xlink:href="#Cmmi10-4b" transform="translate(658.144922 0)"/>
    </g>
   </g>
   <g id="text_4">
    <!-- sharp budget-2 adaptivity gap under active arity at most K -->
    <g style="fill: #8a8a8a" transform="translate(131.370078 141.296916) scale(0.095 -0.095)">
     <defs>
      <path id="DejaVuSerif-Italic-73" d="M 222 959 
L 553 959 
Q 541 869 541 788 
Q 541 219 1313 219 
Q 2088 219 2200 788 
Q 2209 844 2209 944 
Q 2209 1041 2103 1158 
Q 1997 1275 1550 1428 
L 1159 1569 
Q 759 1706 629 1882 
Q 500 2059 500 2263 
Q 500 2344 516 2438 
Q 606 2894 990 3153 
Q 1375 3413 1931 3413 
Q 2484 3413 3066 3144 
L 2925 2419 
L 2594 2419 
Q 2606 2491 2606 2553 
Q 2606 2781 2448 2942 
Q 2291 3103 1925 3103 
Q 1191 3103 1091 2591 
Q 1078 2538 1078 2444 
Q 1078 2347 1179 2237 
Q 1281 2128 1678 1997 
L 2106 1856 
Q 2550 1709 2716 1488 
Q 2831 1331 2831 1178 
Q 2831 522 2306 181 
Q 1894 -91 1262 -91 
Q 631 -91 72 184 
L 222 959 
z
" transform="scale(0.015625)"/>
      <path id="DejaVuSerif-Italic-62" d="M 1153 4531 
L 600 4531 
L 666 4863 
L 1794 4863 
L 1394 2803 
Q 1622 3116 1912 3264 
Q 2203 3413 2588 3413 
Q 3200 3413 3494 2928 
Q 3688 2609 3688 2163 
Q 3688 1928 3634 1663 
Q 3481 881 3000 395 
Q 2519 -91 1906 -91 
Q 1522 -91 1289 57 
Q 1056 206 950 519 
L 850 0 
L 275 0 
L 1153 4531 
z
M 1141 1497 
Q 1091 1250 1091 1053 
Q 1091 769 1191 581 
Q 1359 269 1797 269 
Q 2238 269 2533 622 
Q 2828 975 2963 1663 
Q 3025 1978 3025 2225 
Q 3025 2513 2938 2703 
Q 2781 3053 2338 3053 
Q 1900 3053 1609 2737 
Q 1319 2422 1203 1825 
L 1141 1497 
z
" transform="scale(0.015625)"/>
      <path id="DejaVuSerif-Italic-75" d="M 3097 3322 
L 3672 3322 
L 3091 331 
L 3634 331 
L 3572 0 
L 2453 0 
L 2566 588 
Q 2341 256 2055 82 
Q 1769 -91 1434 -91 
Q 881 -91 681 225 
Q 559 413 559 734 
Q 559 944 613 1209 
L 956 2988 
L 438 2988 
L 503 3322 
L 1600 3322 
L 1225 1388 
Q 1163 1066 1163 853 
Q 1163 663 1213 556 
Q 1316 331 1697 331 
Q 2097 331 2364 625 
Q 2631 919 2738 1478 
L 3097 3322 
z
" transform="scale(0.015625)"/>
      <path id="DejaVuSerif-Italic-67" d="M 3822 3322 
L 3188 72 
Q 3044 -672 2581 -1031 
Q 2078 -1422 1381 -1422 
Q 1053 -1422 765 -1362 
Q 478 -1303 225 -1184 
L 363 -488 
L 663 -488 
Q 653 -813 834 -963 
Q 1016 -1113 1406 -1113 
Q 1913 -1113 2203 -825 
Q 2494 -544 2613 72 
L 2700 519 
Q 2472 206 2181 57 
Q 1891 -91 1525 -91 
Q 975 -91 697 281 
Q 522 516 503 841 
Q 491 1031 534 1256 
Q 750 2359 1516 2928 
Q 2169 3409 2931 3413 
Q 3631 3416 3822 3322 
z
M 3184 2988 
Q 3181 3094 2844 3094 
Q 2234 3094 1775 2625 
Q 1316 2153 1147 1297 
Q 1100 1044 1113 853 
Q 1125 659 1203 528 
Q 1356 269 1756 269 
Q 2194 269 2484 583 
Q 2775 897 2891 1497 
L 2953 1825 
L 3184 2988 
z
" transform="scale(0.015625)"/>
      <path id="DejaVuSerif-Italic-32" d="M 1050 3553 
L 700 3553 
L 863 4384 
Q 1231 4563 1589 4656 
Q 1947 4750 2272 4750 
Q 3000 4750 3353 4397 
Q 3706 4044 3588 3438 
Q 3456 2753 2313 1800 
Q 2225 1728 2178 1691 
L 772 513 
L 2719 513 
L 2831 1088 
L 3197 1088 
L 2984 0 
L -25 0 
L 41 341 
L 1731 1753 
Q 2291 2222 2567 2614 
Q 2844 3006 2928 3438 
Q 3019 3909 2825 4175 
Q 2631 4441 2200 4441 
Q 1753 4441 1467 4219 
Q 1181 3997 1050 3553 
z
" transform="scale(0.015625)"/>
      <path id="DejaVuSerif-Italic-79" d="M 3681 3294 
Q 3372 1506 2828 563 
Q 2031 -822 1391 -1238 
Q 1106 -1422 356 -1422 
Q 209 -1422 60 -1397 
Q -88 -1372 -238 -1325 
L -113 -691 
L 181 -691 
Q 175 -741 175 -788 
Q 175 -919 231 -994 
Q 309 -1100 513 -1100 
Q 1063 -1100 1541 -622 
L 756 2988 
L 378 2988 
L 444 3322 
L 1303 3322 
L 2041 25 
Q 2544 778 2666 1088 
Q 3059 2059 3138 2959 
L 2759 2959 
L 2825 3294 
L 3681 3294 
z
" transform="scale(0.015625)"/>
      <path id="DejaVuSerif-Italic-63" d="M 3163 997 
Q 2938 466 2536 187 
Q 2134 -91 1584 -91 
Q 859 -91 513 388 
Q 272 722 272 1203 
Q 272 1419 319 1663 
Q 475 2459 1008 2936 
Q 1541 3413 2266 3413 
Q 2581 3413 2879 3339 
Q 3178 3266 3463 3116 
L 3300 2266 
L 2966 2266 
Q 2966 2309 2966 2347 
Q 2966 2722 2803 2903 
Q 2622 3103 2213 3103 
Q 1747 3103 1439 2742 
Q 1131 2381 991 1663 
Q 928 1334 928 1078 
Q 928 778 1016 581 
Q 1181 219 1650 219 
Q 2022 219 2281 412 
Q 2541 606 2700 997 
L 3163 997 
z
" transform="scale(0.015625)"/>
      <path id="DejaVuSerif-Italic-4b" d="M -97 0 
L -34 331 
L 559 331 
L 1338 4331 
L 744 4331 
L 809 4666 
L 2631 4666 
L 2566 4331 
L 1972 4331 
L 1628 2566 
L 3981 4331 
L 3475 4331 
L 3541 4666 
L 5091 4666 
L 5025 4331 
L 4500 4331 
L 2156 2572 
L 3959 331 
L 4491 331 
L 4428 0 
L 3344 0 
L 1563 2216 
L 1194 331 
L 1788 331 
L 1725 0 
L -97 0 
z
" transform="scale(0.015625)"/>
     </defs>
     <use xlink:href="#DejaVuSerif-Italic-73"/>
     <use xlink:href="#DejaVuSerif-Italic-68" transform="translate(51.318359 0)"/>
     <use xlink:href="#DejaVuSerif-Italic-61" transform="translate(115.722656 0)"/>
     <use xlink:href="#DejaVuSerif-Italic-72" transform="translate(175.341797 0)"/>
     <use xlink:href="#DejaVuSerif-Italic-70" transform="translate(223.144531 0)"/>
     <use xlink:href="#DejaVuSerif-Italic-20" transform="translate(287.158203 0)"/>
     <use xlink:href="#DejaVuSerif-Italic-62" transform="translate(318.945312 0)"/>
     <use xlink:href="#DejaVuSerif-Italic-75" transform="translate(382.958984 0)"/>
     <use xlink:href="#DejaVuSerif-Italic-64" transform="translate(447.363281 0)"/>
     <use xlink:href="#DejaVuSerif-Italic-67" transform="translate(511.376953 0)"/>
     <use xlink:href="#DejaVuSerif-Italic-65" transform="translate(575.390625 0)"/>
     <use xlink:href="#DejaVuSerif-Italic-74" transform="translate(634.570312 0)"/>
     <use xlink:href="#DejaVuSerif-Italic-2d" transform="translate(674.755859 0)"/>
     <use xlink:href="#DejaVuSerif-Italic-32" transform="translate(708.544922 0)"/>
     <use xlink:href="#DejaVuSerif-Italic-20" transform="translate(772.167969 0)"/>
     <use xlink:href="#DejaVuSerif-Italic-61" transform="translate(803.955078 0)"/>
     <use xlink:href="#DejaVuSerif-Italic-64" transform="translate(863.574219 0)"/>
     <use xlink:href="#DejaVuSerif-Italic-61" transform="translate(927.587891 0)"/>
     <use xlink:href="#DejaVuSerif-Italic-70" transform="translate(987.207031 0)"/>
     <use xlink:href="#DejaVuSerif-Italic-74" transform="translate(1051.220703 0)"/>
     <use xlink:href="#DejaVuSerif-Italic-69" transform="translate(1091.40625 0)"/>
     <use xlink:href="#DejaVuSerif-Italic-76" transform="translate(1123.388672 0)"/>
     <use xlink:href="#DejaVuSerif-Italic-69" transform="translate(1179.882812 0)"/>
     <use xlink:href="#DejaVuSerif-Italic-74" transform="translate(1211.865234 0)"/>
     <use xlink:href="#DejaVuSerif-Italic-79" transform="translate(1252.050781 0)"/>
     <use xlink:href="#DejaVuSerif-Italic-20" transform="translate(1308.544922 0)"/>
     <use xlink:href="#DejaVuSerif-Italic-67" transform="translate(1340.332031 0)"/>
     <use xlink:href="#DejaVuSerif-Italic-61" transform="translate(1404.345703 0)"/>
     <use xlink:href="#DejaVuSerif-Italic-70" transform="translate(1463.964844 0)"/>
     <use xlink:href="#DejaVuSerif-Italic-20" transform="translate(1527.978516 0)"/>
     <use xlink:href="#DejaVuSerif-Italic-75" transform="translate(1559.765625 0)"/>
     <use xlink:href="#DejaVuSerif-Italic-6e" transform="translate(1624.169922 0)"/>
     <use xlink:href="#DejaVuSerif-Italic-64" transform="translate(1688.574219 0)"/>
     <use xlink:href="#DejaVuSerif-Italic-65" transform="translate(1752.587891 0)"/>
     <use xlink:href="#DejaVuSerif-Italic-72" transform="translate(1811.767578 0)"/>
     <use xlink:href="#DejaVuSerif-Italic-20" transform="translate(1859.570312 0)"/>
     <use xlink:href="#DejaVuSerif-Italic-61" transform="translate(1891.357422 0)"/>
     <use xlink:href="#DejaVuSerif-Italic-63" transform="translate(1950.976562 0)"/>
     <use xlink:href="#DejaVuSerif-Italic-74" transform="translate(2006.982422 0)"/>
     <use xlink:href="#DejaVuSerif-Italic-69" transform="translate(2047.167969 0)"/>
     <use xlink:href="#DejaVuSerif-Italic-76" transform="translate(2079.150391 0)"/>
     <use xlink:href="#DejaVuSerif-Italic-65" transform="translate(2135.644531 0)"/>
     <use xlink:href="#DejaVuSerif-Italic-20" transform="translate(2194.824219 0)"/>
     <use xlink:href="#DejaVuSerif-Italic-61" transform="translate(2226.611328 0)"/>
     <use xlink:href="#DejaVuSerif-Italic-72" transform="translate(2286.230469 0)"/>
     <use xlink:href="#DejaVuSerif-Italic-69" transform="translate(2334.033203 0)"/>
     <use xlink:href="#DejaVuSerif-Italic-74" transform="translate(2366.015625 0)"/>
     <use xlink:href="#DejaVuSerif-Italic-79" transform="translate(2406.201172 0)"/>
     <use xlink:href="#DejaVuSerif-Italic-20" transform="translate(2462.695312 0)"/>
     <use xlink:href="#DejaVuSerif-Italic-61" transform="translate(2494.482422 0)"/>
     <use xlink:href="#DejaVuSerif-Italic-74" transform="translate(2554.101562 0)"/>
     <use xlink:href="#DejaVuSerif-Italic-20" transform="translate(2594.287109 0)"/>
     <use xlink:href="#DejaVuSerif-Italic-6d" transform="translate(2626.074219 0)"/>
     <use xlink:href="#DejaVuSerif-Italic-6f" transform="translate(2720.898438 0)"/>
     <use xlink:href="#DejaVuSerif-Italic-73" transform="translate(2781.103516 0)"/>
     <use xlink:href="#DejaVuSerif-Italic-74" transform="translate(2832.421875 0)"/>
     <use xlink:href="#DejaVuSerif-Italic-20" transform="translate(2872.607422 0)"/>
     <use xlink:href="#DejaVuSerif-Italic-4b" transform="translate(2904.394531 0)"/>
    </g>
   </g>
   <g id="text_5">
    <!-- $D_2^{ad}=1,\ \ D_2^{na}=1/K$ -->
    <g style="fill: #f2f2f2" transform="translate(206.325 215.0081) scale(0.145 -0.145)">
     <defs>
      <path id="Cmmi10-44" d="M 313 0 
Q 250 0 250 84 
Q 253 100 262 139 
Q 272 178 289 201 
Q 306 225 331 225 
Q 722 225 878 269 
Q 959 297 997 441 
L 1875 3956 
Q 1888 4019 1888 4044 
Q 1888 4113 1813 4122 
Q 1691 4147 1350 4147 
Q 1288 4147 1288 4231 
Q 1291 4247 1300 4286 
Q 1309 4325 1326 4348 
Q 1344 4372 1369 4372 
L 3669 4372 
Q 4116 4372 4450 4155 
Q 4784 3938 4962 3570 
Q 5141 3203 5141 2759 
Q 5141 2269 4937 1778 
Q 4734 1288 4368 881 
Q 4003 475 3534 237 
Q 3066 0 2572 0 
L 313 0 
z
M 1509 275 
Q 1509 225 1728 225 
L 2472 225 
Q 2828 225 3159 372 
Q 3491 519 3750 775 
Q 3991 1016 4175 1406 
Q 4359 1797 4461 2222 
Q 4563 2647 4563 3003 
Q 4563 3263 4486 3472 
Q 4409 3681 4270 3831 
Q 4131 3981 3922 4064 
Q 3713 4147 3450 4147 
L 2747 4147 
Q 2572 4147 2515 4117 
Q 2459 4088 2413 3928 
L 1538 416 
Q 1509 338 1509 275 
z
" transform="scale(0.015625)"/>
      <path id="Cmmi10-61" d="M 1113 -72 
Q 709 -72 476 233 
Q 244 538 244 953 
Q 244 1363 456 1803 
Q 669 2244 1030 2536 
Q 1391 2828 1806 2828 
Q 1997 2828 2147 2725 
Q 2297 2622 2381 2444 
Q 2453 2700 2663 2700 
Q 2744 2700 2798 2651 
Q 2853 2603 2853 2522 
Q 2853 2503 2851 2493 
Q 2850 2484 2847 2472 
L 2400 684 
Q 2356 494 2356 372 
Q 2356 97 2541 97 
Q 2741 97 2845 351 
Q 2950 606 3022 941 
Q 3034 978 3072 978 
L 3150 978 
Q 3175 978 3190 956 
Q 3206 934 3206 916 
Q 3094 469 2961 198 
Q 2828 -72 2528 -72 
Q 2313 -72 2147 54 
Q 1981 181 1941 391 
Q 1528 -72 1113 -72 
z
M 1119 97 
Q 1350 97 1567 270 
Q 1784 444 1941 678 
Q 1947 684 1947 697 
L 2291 2088 
L 2297 2106 
Q 2259 2334 2132 2498 
Q 2006 2663 1791 2663 
Q 1575 2663 1389 2486 
Q 1203 2309 1075 2069 
Q 950 1813 836 1366 
Q 722 919 722 672 
Q 722 450 817 273 
Q 913 97 1119 97 
z
" transform="scale(0.015625)"/>
      <path id="Cmmi10-64" d="M 1113 -72 
Q 709 -72 476 233 
Q 244 538 244 953 
Q 244 1363 456 1803 
Q 669 2244 1030 2536 
Q 1391 2828 1806 2828 
Q 1994 2828 2145 2723 
Q 2297 2619 2381 2444 
L 2741 3872 
Q 2766 3981 2772 4044 
Q 2772 4147 2356 4147 
Q 2291 4147 2291 4231 
Q 2294 4247 2305 4287 
Q 2316 4328 2333 4350 
Q 2350 4372 2381 4372 
L 3244 4441 
Q 3322 4441 3322 4359 
L 2400 678 
Q 2356 572 2356 372 
Q 2356 97 2541 97 
Q 2741 97 2845 351 
Q 2950 606 3022 941 
Q 3034 978 3072 978 
L 3150 978 
Q 3175 978 3190 956 
Q 3206 934 3206 916 
Q 3094 469 2961 198 
Q 2828 -72 2528 -72 
Q 2313 -72 2147 54 
Q 1981 181 1941 391 
Q 1528 -72 1113 -72 
z
M 1119 97 
Q 1350 97 1567 270 
Q 1784 444 1941 678 
Q 1947 684 1947 703 
L 2297 2113 
Q 2259 2338 2131 2500 
Q 2003 2663 1791 2663 
Q 1575 2663 1389 2486 
Q 1203 2309 1075 2069 
Q 950 1813 836 1366 
Q 722 919 722 672 
Q 722 450 817 273 
Q 913 97 1119 97 
z
" transform="scale(0.015625)"/>
      <path id="Cmmi10-3b" d="M 634 -1153 
Q 634 -1125 659 -1100 
Q 891 -878 1019 -587 
Q 1147 -297 1147 25 
L 1147 103 
Q 1044 0 891 0 
Q 744 0 641 103 
Q 538 206 538 353 
Q 538 503 641 603 
Q 744 703 891 703 
Q 1119 703 1216 492 
Q 1313 281 1313 25 
Q 1313 -331 1170 -651 
Q 1028 -972 769 -1228 
Q 744 -1241 728 -1241 
Q 697 -1241 665 -1212 
Q 634 -1184 634 -1153 
z
" transform="scale(0.015625)"/>
      <path id="Cmmi10-6e" d="M 494 109 
Q 494 147 500 166 
L 978 2075 
Q 1025 2253 1025 2388 
Q 1025 2663 838 2663 
Q 638 2663 541 2423 
Q 444 2184 353 1819 
Q 353 1800 334 1789 
Q 316 1778 300 1778 
L 225 1778 
Q 203 1778 187 1801 
Q 172 1825 172 1844 
Q 241 2122 305 2315 
Q 369 2509 505 2668 
Q 641 2828 844 2828 
Q 1084 2828 1268 2676 
Q 1453 2525 1453 2291 
Q 1644 2541 1900 2684 
Q 2156 2828 2444 2828 
Q 2672 2828 2837 2750 
Q 3003 2672 3095 2514 
Q 3188 2356 3188 2138 
Q 3188 1875 3070 1503 
Q 2953 1131 2778 672 
Q 2688 463 2688 288 
Q 2688 97 2834 97 
Q 3084 97 3251 365 
Q 3419 634 3488 941 
Q 3500 978 3541 978 
L 3616 978 
Q 3641 978 3658 962 
Q 3675 947 3675 922 
Q 3675 916 3669 903 
Q 3581 541 3364 234 
Q 3147 -72 2822 -72 
Q 2597 -72 2437 83 
Q 2278 238 2278 459 
Q 2278 578 2328 709 
Q 2409 919 2514 1209 
Q 2619 1500 2686 1765 
Q 2753 2031 2753 2234 
Q 2753 2413 2679 2538 
Q 2606 2663 2431 2663 
Q 2197 2663 2000 2559 
Q 1803 2456 1656 2286 
Q 1509 2116 1388 1881 
L 953 141 
Q 931 53 854 -9 
Q 778 -72 684 -72 
Q 606 -72 550 -22 
Q 494 28 494 109 
z
" transform="scale(0.015625)"/>
     </defs>
     <use xlink:href="#Cmmi10-44" transform="translate(0 0.1625)"/>
     <use xlink:href="#Cmmi10-61" transform="translate(94.084375 38.426563) scale(0.7)"/>
     <use xlink:href="#Cmmi10-64" transform="translate(131.032617 38.426563) scale(0.7)"/>
     <use xlink:href="#Cmr10-32" transform="translate(82.714844 -25.346875) scale(0.7)"/>
     <use xlink:href="#Cmr10-3d" transform="translate(191.369922 0.1625)"/>
     <use xlink:href="#Cmr10-31" transform="translate(286.614062 0.1625)"/>
     <use xlink:href="#Cmmi10-3b" transform="translate(336.614062 0.1625)"/>
     <use xlink:href="#Cmmi10-44" transform="translate(440.386264 0.1625)"/>
     <use xlink:href="#Cmmi10-6e" transform="translate(534.470639 38.426562) scale(0.7)"/>
     <use xlink:href="#Cmmi10-61" transform="translate(576.477475 38.426562) scale(0.7)"/>
     <use xlink:href="#Cmr10-32" transform="translate(523.101107 -25.346875) scale(0.7)"/>
     <use xlink:href="#Cmr10-3d" transform="translate(637.361654 0.1625)"/>
     <use xlink:href="#Cmr10-31" transform="translate(732.605795 0.1625)"/>
     <use xlink:href="#Cmmi10-3d" transform="translate(782.605795 0.1625)"/>
     <use xlink:href="#Cmmi10-4b" transform="translate(832.605795 0.1625)"/>
    </g>
   </g>
   <g id="text_6">
    <!-- matching address-function construction -->
    <g style="fill: #8a8a8a" transform="translate(176.655391 252.580116) scale(0.095 -0.095)">
     <use xlink:href="#DejaVuSerif-Italic-6d"/>
     <use xlink:href="#DejaVuSerif-Italic-61" transform="translate(94.824219 0)"/>
     <use xlink:href="#DejaVuSerif-Italic-74" transform="translate(154.443359 0)"/>
     <use xlink:href="#DejaVuSerif-Italic-63" transform="translate(194.628906 0)"/>
     <use xlink:href="#DejaVuSerif-Italic-68" transform="translate(250.634766 0)"/>
     <use xlink:href="#DejaVuSerif-Italic-69" transform="translate(315.039062 0)"/>
     <use xlink:href="#DejaVuSerif-Italic-6e" transform="translate(347.021484 0)"/>
     <use xlink:href="#DejaVuSerif-Italic-67" transform="translate(411.425781 0)"/>
     <use xlink:href="#DejaVuSerif-Italic-20" transform="translate(475.439453 0)"/>
     <use xlink:href="#DejaVuSerif-Italic-61" transform="translate(507.226562 0)"/>
     <use xlink:href="#DejaVuSerif-Italic-64" transform="translate(566.845703 0)"/>
     <use xlink:href="#DejaVuSerif-Italic-64" transform="translate(630.859375 0)"/>
     <use xlink:href="#DejaVuSerif-Italic-72" transform="translate(694.873047 0)"/>
     <use xlink:href="#DejaVuSerif-Italic-65" transform="translate(742.675781 0)"/>
     <use xlink:href="#DejaVuSerif-Italic-73" transform="translate(801.855469 0)"/>
     <use xlink:href="#DejaVuSerif-Italic-73" transform="translate(853.173828 0)"/>
     <use xlink:href="#DejaVuSerif-Italic-2d" transform="translate(904.492188 0)"/>
     <use xlink:href="#DejaVuSerif-Italic-66" transform="translate(938.28125 0)"/>
     <use xlink:href="#DejaVuSerif-Italic-75" transform="translate(975.292969 0)"/>
     <use xlink:href="#DejaVuSerif-Italic-6e" transform="translate(1039.697266 0)"/>
     <use xlink:href="#DejaVuSerif-Italic-63" transform="translate(1104.101562 0)"/>
     <use xlink:href="#DejaVuSerif-Italic-74" transform="translate(1160.107422 0)"/>
     <use xlink:href="#DejaVuSerif-Italic-69" transform="translate(1200.292969 0)"/>
     <use xlink:href="#DejaVuSerif-Italic-6f" transform="translate(1232.275391 0)"/>
     <use xlink:href="#DejaVuSerif-Italic-6e" transform="translate(1292.480469 0)"/>
     <use xlink:href="#DejaVuSerif-Italic-20" transform="translate(1356.884766 0)"/>
     <use xlink:href="#DejaVuSerif-Italic-63" transform="translate(1388.671875 0)"/>
     <use xlink:href="#DejaVuSerif-Italic-6f" transform="translate(1444.677734 0)"/>
     <use xlink:href="#DejaVuSerif-Italic-6e" transform="translate(1504.882812 0)"/>
     <use xlink:href="#DejaVuSerif-Italic-73" transform="translate(1569.287109 0)"/>
     <use xlink:href="#DejaVuSerif-Italic-74" transform="translate(1620.605469 0)"/>
     <use xlink:href="#DejaVuSerif-Italic-72" transform="translate(1660.791016 0)"/>
     <use xlink:href="#DejaVuSerif-Italic-75" transform="translate(1708.59375 0)"/>
     <use xlink:href="#DejaVuSerif-Italic-63" transform="translate(1772.998047 0)"/>
     <use xlink:href="#DejaVuSerif-Italic-74" transform="translate(1829.003906 0)"/>
     <use xlink:href="#DejaVuSerif-Italic-69" transform="translate(1869.189453 0)"/>
     <use xlink:href="#DejaVuSerif-Italic-6f" transform="translate(1901.171875 0)"/>
     <use xlink:href="#DejaVuSerif-Italic-6e" transform="translate(1961.376953 0)"/>
    </g>
   </g>
   <g id="text_7">
    <!-- $r \leq B+1 \Rightarrow D_B^{ad}=D_B^{na}$ -->
    <g style="fill: #f2f2f2" transform="translate(200.525 326.2913) scale(0.145 -0.145)">
     <defs>
      <path id="Cmmi10-72" d="M 494 109 
Q 494 147 500 166 
L 978 2075 
Q 1025 2253 1025 2388 
Q 1025 2663 838 2663 
Q 638 2663 541 2423 
Q 444 2184 353 1819 
Q 353 1800 334 1789 
Q 316 1778 300 1778 
L 225 1778 
Q 203 1778 187 1801 
Q 172 1825 172 1844 
Q 241 2122 305 2315 
Q 369 2509 505 2668 
Q 641 2828 844 2828 
Q 1066 2828 1233 2700 
Q 1400 2572 1441 2363 
Q 1603 2575 1811 2701 
Q 2019 2828 2266 2828 
Q 2469 2828 2623 2709 
Q 2778 2591 2778 2388 
Q 2778 2225 2676 2104 
Q 2575 1984 2406 1984 
Q 2303 1984 2233 2048 
Q 2163 2113 2163 2216 
Q 2163 2356 2266 2467 
Q 2369 2578 2503 2578 
Q 2400 2663 2253 2663 
Q 1978 2663 1775 2467 
Q 1572 2272 1409 1972 
L 953 141 
Q 931 53 854 -9 
Q 778 -72 684 -72 
Q 606 -72 550 -22 
Q 494 28 494 109 
z
" transform="scale(0.015625)"/>
      <path id="Cmsy10-2219" d="M 653 -878 
Q 600 -878 565 -837 
Q 531 -797 531 -750 
Q 531 -697 565 -659 
Q 600 -622 653 -622 
L 4325 -622 
Q 4375 -622 4408 -659 
Q 4441 -697 4441 -750 
Q 4441 -797 4408 -837 
Q 4375 -878 4325 -878 
L 653 -878 
z
M 594 2113 
Q 531 2131 531 2222 
Q 531 2303 616 2338 
L 4269 4063 
Q 4281 4072 4313 4072 
Q 4366 4072 4403 4034 
Q 4441 3997 4441 3944 
Q 4441 3859 4366 3828 
L 959 2222 
L 4384 603 
Q 4441 572 4441 494 
Q 4441 438 4403 402 
Q 4366 366 4313 366 
Q 4281 366 4269 378 
L 594 2113 
z
" transform="scale(0.015625)"/>
      <path id="Cmmi10-42" d="M 319 0 
Q 256 0 256 84 
Q 259 100 268 137 
Q 278 175 293 200 
Q 309 225 341 225 
Q 522 225 656 234 
Q 791 244 884 269 
Q 959 297 1006 441 
L 1881 3956 
Q 1894 4019 1894 4044 
Q 1894 4113 1819 4122 
Q 1697 4147 1356 4147 
Q 1294 4147 1294 4231 
Q 1297 4247 1306 4286 
Q 1316 4325 1333 4348 
Q 1350 4372 1375 4372 
L 3669 4372 
Q 3878 4372 4083 4320 
Q 4288 4269 4461 4156 
Q 4634 4044 4736 3876 
Q 4838 3709 4838 3488 
Q 4838 3247 4714 3040 
Q 4591 2834 4395 2681 
Q 4200 2528 3973 2429 
Q 3747 2331 3500 2284 
Q 3675 2284 3854 2215 
Q 4034 2147 4175 2028 
Q 4316 1909 4402 1743 
Q 4488 1578 4488 1388 
Q 4488 1003 4219 684 
Q 3950 366 3542 183 
Q 3134 0 2753 0 
L 319 0 
z
M 1497 275 
Q 1497 225 1716 225 
L 2631 225 
Q 2944 225 3231 398 
Q 3519 572 3692 859 
Q 3866 1147 3866 1459 
Q 3866 1650 3786 1820 
Q 3706 1991 3556 2089 
Q 3406 2188 3213 2188 
L 1966 2188 
L 1522 416 
Q 1497 328 1497 275 
z
M 2009 2356 
L 2981 2356 
Q 3288 2356 3577 2512 
Q 3866 2669 4048 2937 
Q 4231 3206 4231 3506 
Q 4231 3784 4057 3965 
Q 3884 4147 3609 4147 
L 2731 4147 
Q 2559 4147 2500 4115 
Q 2441 4084 2400 3928 
L 2009 2356 
z
" transform="scale(0.015625)"/>
      <path id="Cmr10-2b" d="M 481 1472 
Q 428 1472 393 1512 
Q 359 1553 359 1600 
Q 359 1647 393 1687 
Q 428 1728 481 1728 
L 2363 1728 
L 2363 3616 
Q 2363 3666 2400 3698 
Q 2438 3731 2491 3731 
Q 2538 3731 2578 3698 
Q 2619 3666 2619 3616 
L 2619 1728 
L 4500 1728 
Q 4547 1728 4581 1687 
Q 4616 1647 4616 1600 
Q 4616 1553 4581 1512 
Q 4547 1472 4500 1472 
L 2619 1472 
L 2619 -416 
Q 2619 -466 2578 -498 
Q 2538 -531 2491 -531 
Q 2438 -531 2400 -498 
Q 2363 -466 2363 -416 
L 2363 1472 
L 481 1472 
z
" transform="scale(0.015625)"/>
      <path id="Cmsy10-29" d="M 481 850 
Q 428 850 393 890 
Q 359 931 359 978 
Q 359 1031 393 1068 
Q 428 1106 481 1106 
L 4634 1106 
Q 5009 1416 5453 1600 
Q 5009 1784 4634 2094 
L 481 2094 
Q 428 2094 393 2131 
Q 359 2169 359 2222 
Q 359 2269 393 2309 
Q 428 2350 481 2350 
L 4353 2350 
Q 4194 2516 3950 2850 
Q 3706 3184 3706 3291 
Q 3706 3319 3723 3339 
Q 3741 3359 3769 3359 
L 3897 3359 
Q 3938 3359 3950 3322 
Q 4109 3009 4314 2750 
Q 4519 2491 4787 2272 
Q 5056 2053 5353 1906 
Q 5650 1759 5991 1672 
Q 6034 1644 6034 1600 
Q 6034 1550 5991 1538 
Q 5325 1369 4792 934 
Q 4259 500 3950 -122 
Q 3938 -159 3897 -159 
L 3769 -159 
Q 3706 -159 3706 -91 
Q 3706 -16 3832 179 
Q 3959 375 4111 567 
Q 4263 759 4353 850 
L 481 850 
z
" transform="scale(0.015625)"/>
     </defs>
     <use xlink:href="#Cmmi10-72" transform="translate(0 0.1625)"/>
     <use xlink:href="#Cmsy10-2219" transform="translate(62.675781 0.1625)"/>
     <use xlink:href="#Cmmi10-42" transform="translate(157.919922 0.1625)"/>
     <use xlink:href="#Cmr10-2b" transform="translate(251.259766 0.1625)"/>
     <use xlink:href="#Cmr10-31" transform="translate(346.503906 0.1625)"/>
     <use xlink:href="#Cmsy10-29" transform="translate(414.0625 0.1625)"/>
     <use xlink:href="#Cmmi10-44" transform="translate(531.621094 0.1625)"/>
     <use xlink:href="#Cmmi10-61" transform="translate(625.705469 38.426563) scale(0.7)"/>
     <use xlink:href="#Cmmi10-64" transform="translate(662.653711 38.426563) scale(0.7)"/>
     <use xlink:href="#Cmmi10-42" transform="translate(614.335938 -25.346875) scale(0.7)"/>
     <use xlink:href="#Cmr10-3d" transform="translate(722.991016 0.1625)"/>
     <use xlink:href="#Cmmi10-44" transform="translate(818.235156 0.1625)"/>
     <use xlink:href="#Cmmi10-6e" transform="translate(912.319531 38.426562) scale(0.7)"/>
     <use xlink:href="#Cmmi10-61" transform="translate(954.326367 38.426562) scale(0.7)"/>
     <use xlink:href="#Cmmi10-42" transform="translate(900.95 -25.346875) scale(0.7)"/>
    </g>
   </g>
   <g id="text_8">
    <!-- flattening: small active support kills the OPEN gap -->
    <g style="fill: #8a8a8a" transform="translate(150.169688 363.863316) scale(0.095 -0.095)">
     <defs>
      <path id="DejaVuSerif-Italic-3a" d="M 529 29 
Q 434 150 468 325 
Q 503 500 647 622 
Q 791 744 966 744 
Q 1141 744 1237 622 
Q 1334 500 1300 325 
Q 1266 150 1123 29 
Q 981 -91 803 -91 
Q 625 -91 529 29 
z
M 926 2067 
Q 828 2188 862 2363 
Q 897 2538 1040 2658 
Q 1184 2778 1359 2778 
Q 1538 2778 1633 2659 
Q 1728 2541 1693 2362 
Q 1659 2184 1518 2065 
Q 1378 1947 1200 1947 
Q 1025 1947 926 2067 
z
" transform="scale(0.015625)"/>
      <path id="DejaVuSerif-Italic-6b" d="M 2113 2075 
L 3034 331 
L 3513 331 
L 3450 0 
L 2528 0 
L 1622 1697 
L 1088 1275 
L 841 0 
L 266 0 
L 1147 4531 
L 594 4531 
L 656 4863 
L 1784 4863 
L 1169 1697 
L 2822 2988 
L 2344 2988 
L 2406 3322 
L 3341 3322 
L 3278 2988 
L 2113 2075 
z
" transform="scale(0.015625)"/>
     </defs>
     <use xlink:href="#DejaVuSerif-Italic-66"/>
     <use xlink:href="#DejaVuSerif-Italic-6c" transform="translate(37.011719 0)"/>
     <use xlink:href="#DejaVuSerif-Italic-61" transform="translate(68.994141 0)"/>
     <use xlink:href="#DejaVuSerif-Italic-74" transform="translate(128.613281 0)"/>
     <use xlink:href="#DejaVuSerif-Italic-74" transform="translate(168.798828 0)"/>
     <use xlink:href="#DejaVuSerif-Italic-65" transform="translate(208.984375 0)"/>
     <use xlink:href="#DejaVuSerif-Italic-6e" transform="translate(268.164062 0)"/>
     <use xlink:href="#DejaVuSerif-Italic-69" transform="translate(332.568359 0)"/>
     <use xlink:href="#DejaVuSerif-Italic-6e" transform="translate(364.550781 0)"/>
     <use xlink:href="#DejaVuSerif-Italic-67" transform="translate(428.955078 0)"/>
     <use xlink:href="#DejaVuSerif-Italic-3a" transform="translate(492.96875 0)"/>
     <use xlink:href="#DejaVuSerif-Italic-20" transform="translate(526.660156 0)"/>
     <use xlink:href="#DejaVuSerif-Italic-73" transform="translate(558.447266 0)"/>
     <use xlink:href="#DejaVuSerif-Italic-6d" transform="translate(609.765625 0)"/>
     <use xlink:href="#DejaVuSerif-Italic-61" transform="translate(704.589844 0)"/>
     <use xlink:href="#DejaVuSerif-Italic-6c" transform="translate(764.208984 0)"/>
     <use xlink:href="#DejaVuSerif-Italic-6c" transform="translate(796.191406 0)"/>
     <use xlink:href="#DejaVuSerif-Italic-20" transform="translate(828.173828 0)"/>
     <use xlink:href="#DejaVuSerif-Italic-61" transform="translate(859.960938 0)"/>
     <use xlink:href="#DejaVuSerif-Italic-63" transform="translate(919.580078 0)"/>
     <use xlink:href="#DejaVuSerif-Italic-74" transform="translate(975.585938 0)"/>
     <use xlink:href="#DejaVuSerif-Italic-69" transform="translate(1015.771484 0)"/>
     <use xlink:href="#DejaVuSerif-Italic-76" transform="translate(1047.753906 0)"/>
     <use xlink:href="#DejaVuSerif-Italic-65" transform="translate(1104.248047 0)"/>
     <use xlink:href="#DejaVuSerif-Italic-20" transform="translate(1163.427734 0)"/>
     <use xlink:href="#DejaVuSerif-Italic-73" transform="translate(1195.214844 0)"/>
     <use xlink:href="#DejaVuSerif-Italic-75" transform="translate(1246.533203 0)"/>
     <use xlink:href="#DejaVuSerif-Italic-70" transform="translate(1310.9375 0)"/>
     <use xlink:href="#DejaVuSerif-Italic-70" transform="translate(1374.951172 0)"/>
     <use xlink:href="#DejaVuSerif-Italic-6f" transform="translate(1438.964844 0)"/>
     <use xlink:href="#DejaVuSerif-Italic-72" transform="translate(1499.169922 0)"/>
     <use xlink:href="#DejaVuSerif-Italic-74" transform="translate(1546.972656 0)"/>
     <use xlink:href="#DejaVuSerif-Italic-20" transform="translate(1587.158203 0)"/>
     <use xlink:href="#DejaVuSerif-Italic-6b" transform="translate(1618.945312 0)"/>
     <use xlink:href="#DejaVuSerif-Italic-69" transform="translate(1679.541016 0)"/>
     <use xlink:href="#DejaVuSerif-Italic-6c" transform="translate(1711.523438 0)"/>
     <use xlink:href="#DejaVuSerif-Italic-6c" transform="translate(1743.505859 0)"/>
     <use xlink:href="#DejaVuSerif-Italic-73" transform="translate(1775.488281 0)"/>
     <use xlink:href="#DejaVuSerif-Italic-20" transform="translate(1826.806641 0)"/>
     <use xlink:href="#DejaVuSerif-Italic-74" transform="translate(1858.59375 0)"/>
     <use xlink:href="#DejaVuSerif-Italic-68" transform="translate(1898.779297 0)"/>
     <use xlink:href="#DejaVuSerif-Italic-65" transform="translate(1963.183594 0)"/>
     <use xlink:href="#DejaVuSerif-Italic-20" transform="translate(2022.363281 0)"/>
     <use xlink:href="#DejaVuSerif-Italic-4f" transform="translate(2054.150391 0)"/>
     <use xlink:href="#DejaVuSerif-Italic-50" transform="translate(2136.132812 0)"/>
     <use xlink:href="#DejaVuSerif-Italic-45" transform="translate(2203.417969 0)"/>
     <use xlink:href="#DejaVuSerif-Italic-4e" transform="translate(2276.416016 0)"/>
     <use xlink:href="#DejaVuSerif-Italic-20" transform="translate(2363.916016 0)"/>
     <use xlink:href="#DejaVuSerif-Italic-67" transform="translate(2395.703125 0)"/>
     <use xlink:href="#DejaVuSerif-Italic-61" transform="translate(2459.716797 0)"/>
     <use xlink:href="#DejaVuSerif-Italic-70" transform="translate(2519.335938 0)"/>
    </g>
   </g>
   <g id="text_9">
    <!-- $D_B^{na}=\min(B,k)/k$ -->
    <g style="fill: #f2f2f2" transform="translate(214.01 436.7045) scale(0.145 -0.145)">
     <defs>
      <path id="Cmr10-6d" d="M 191 0 
L 191 225 
Q 409 225 550 259 
Q 691 294 691 428 
L 691 2175 
Q 691 2347 639 2423 
Q 588 2500 491 2517 
Q 394 2534 191 2534 
L 191 2759 
L 1119 2828 
L 1119 2203 
Q 1247 2478 1498 2653 
Q 1750 2828 2047 2828 
Q 2784 2828 2913 2228 
Q 3041 2497 3287 2662 
Q 3534 2828 3828 2828 
Q 4119 2828 4317 2734 
Q 4516 2641 4616 2448 
Q 4716 2256 4716 1966 
L 4716 428 
Q 4716 294 4858 259 
Q 5000 225 5216 225 
L 5216 0 
L 3750 0 
L 3750 225 
Q 3969 225 4109 259 
Q 4250 294 4250 428 
L 4250 1947 
Q 4250 2269 4159 2466 
Q 4069 2663 3788 2663 
Q 3419 2663 3178 2366 
Q 2938 2069 2938 1691 
L 2938 428 
Q 2938 294 3078 259 
Q 3219 225 3438 225 
L 3438 0 
L 1972 0 
L 1972 225 
Q 2191 225 2331 259 
Q 2472 294 2472 428 
L 2472 1947 
Q 2472 2259 2381 2461 
Q 2291 2663 2009 2663 
Q 1638 2663 1398 2366 
Q 1159 2069 1159 1691 
L 1159 428 
Q 1159 294 1300 259 
Q 1441 225 1656 225 
L 1656 0 
L 191 0 
z
" transform="scale(0.015625)"/>
      <path id="Cmr10-69" d="M 197 0 
L 197 225 
Q 416 225 556 259 
Q 697 294 697 428 
L 697 2175 
Q 697 2422 601 2478 
Q 506 2534 225 2534 
L 225 2759 
L 1147 2828 
L 1147 428 
Q 1147 294 1269 259 
Q 1391 225 1594 225 
L 1594 0 
L 197 0 
z
M 469 3928 
Q 469 4069 575 4175 
Q 681 4281 819 4281 
Q 909 4281 993 4234 
Q 1078 4188 1125 4103 
Q 1172 4019 1172 3928 
Q 1172 3791 1065 3684 
Q 959 3578 819 3578 
Q 681 3578 575 3684 
Q 469 3791 469 3928 
z
" transform="scale(0.015625)"/>
      <path id="Cmr10-6e" d="M 191 0 
L 191 225 
Q 409 225 550 259 
Q 691 294 691 428 
L 691 2175 
Q 691 2347 639 2423 
Q 588 2500 491 2517 
Q 394 2534 191 2534 
L 191 2759 
L 1119 2828 
L 1119 2203 
Q 1247 2478 1498 2653 
Q 1750 2828 2047 2828 
Q 2491 2828 2714 2615 
Q 2938 2403 2938 1966 
L 2938 428 
Q 2938 294 3078 259 
Q 3219 225 3438 225 
L 3438 0 
L 1972 0 
L 1972 225 
Q 2191 225 2331 259 
Q 2472 294 2472 428 
L 2472 1947 
Q 2472 2259 2381 2461 
Q 2291 2663 2009 2663 
Q 1638 2663 1398 2366 
Q 1159 2069 1159 1691 
L 1159 428 
Q 1159 294 1300 259 
Q 1441 225 1656 225 
L 1656 0 
L 191 0 
z
" transform="scale(0.015625)"/>
      <path id="Cmmi10-6b" d="M 341 116 
Q 341 153 347 172 
L 1275 3872 
Q 1300 3981 1306 4044 
Q 1306 4147 891 4147 
Q 825 4147 825 4231 
Q 828 4247 839 4287 
Q 850 4328 867 4350 
Q 884 4372 916 4372 
L 1778 4441 
L 1797 4441 
Q 1797 4434 1819 4423 
Q 1841 4413 1844 4409 
Q 1856 4378 1856 4359 
L 1184 1684 
Q 1416 1781 1767 2145 
Q 2119 2509 2317 2668 
Q 2516 2828 2816 2828 
Q 2994 2828 3119 2706 
Q 3244 2584 3244 2406 
Q 3244 2294 3197 2198 
Q 3150 2103 3065 2043 
Q 2981 1984 2869 1984 
Q 2766 1984 2695 2048 
Q 2625 2113 2625 2216 
Q 2625 2369 2733 2473 
Q 2841 2578 2994 2578 
Q 2931 2663 2803 2663 
Q 2613 2663 2436 2553 
Q 2259 2444 2054 2239 
Q 1850 2034 1681 1864 
Q 1513 1694 1369 1606 
Q 1747 1563 2025 1408 
Q 2303 1253 2303 934 
Q 2303 869 2278 769 
Q 2222 528 2222 384 
Q 2222 97 2419 97 
Q 2650 97 2770 350 
Q 2891 603 2969 941 
Q 2981 978 3022 978 
L 3097 978 
Q 3122 978 3139 962 
Q 3156 947 3156 922 
Q 3156 916 3150 903 
Q 2909 -72 2406 -72 
Q 2225 -72 2086 12 
Q 1947 97 1872 242 
Q 1797 388 1797 569 
Q 1797 672 1825 781 
Q 1844 856 1844 922 
Q 1844 1169 1625 1297 
Q 1406 1425 1125 1453 
L 800 147 
Q 775 50 703 -11 
Q 631 -72 538 -72 
Q 456 -72 398 -17 
Q 341 38 341 116 
z
" transform="scale(0.015625)"/>
     </defs>
     <use xlink:href="#Cmmi10-44"/>
     <use xlink:href="#Cmmi10-6e" transform="translate(94.084375 38.264063) scale(0.7)"/>
     <use xlink:href="#Cmmi10-61" transform="translate(136.091211 38.264063) scale(0.7)"/>
     <use xlink:href="#Cmmi10-42" transform="translate(82.714844 -25.509375) scale(0.7)"/>
     <use xlink:href="#Cmr10-3d" transform="translate(196.975391 0)"/>
     <use xlink:href="#Cmr10-6d" transform="translate(292.219531 0)"/>
     <use xlink:href="#Cmr10-69" transform="translate(375.520312 0)"/>
     <use xlink:href="#Cmr10-6e" transform="translate(403.205859 0)"/>
     <use xlink:href="#Cmr10-28" transform="translate(458.723437 0)"/>
     <use xlink:href="#Cmmi10-42" transform="translate(497.541797 0)"/>
     <use xlink:href="#Cmmi10-3b" transform="translate(573.323047 0)"/>
     <use xlink:href="#Cmmi10-6b" transform="translate(618.567188 0)"/>
     <use xlink:href="#Cmr10-29" transform="translate(670.569141 0)"/>
     <use xlink:href="#Cmmi10-3d" transform="translate(709.3875 0)"/>
     <use xlink:href="#Cmmi10-6b" transform="translate(759.3875 0)"/>
    </g>
   </g>
   <g id="text_10">
    <!-- k-pair habitat closed form (not the sharp envelope) -->
    <g style="fill: #8a8a8a" transform="translate(149.876523 475.146516) scale(0.095 -0.095)">
     <defs>
      <path id="DejaVuSerif-Italic-28" d="M 1472 -997 
Q 778 -656 534 83 
Q 291 822 506 1931 
Q 722 3044 1253 3783 
Q 1784 4522 2609 4863 
L 2550 4556 
Q 2006 4225 1679 3623 
Q 1353 3022 1141 1931 
Q 928 844 1020 242 
Q 1113 -359 1531 -691 
L 1472 -997 
z
" transform="scale(0.015625)"/>
      <path id="DejaVuSerif-Italic-29" d="M -113 -997 
L -53 -691 
Q 491 -359 819 242 
Q 1147 844 1359 1931 
Q 1572 3022 1478 3623 
Q 1384 4225 966 4556 
L 1025 4863 
Q 1722 4522 1965 3783 
Q 2209 3044 1994 1931 
Q 1778 822 1247 83 
Q 716 -656 -113 -997 
z
" transform="scale(0.015625)"/>
     </defs>
     <use xlink:href="#DejaVuSerif-Italic-6b"/>
     <use xlink:href="#DejaVuSerif-Italic-2d" transform="translate(58.845703 0)"/>
     <use xlink:href="#DejaVuSerif-Italic-70" transform="translate(92.634766 0)"/>
     <use xlink:href="#DejaVuSerif-Italic-61" transform="translate(156.648438 0)"/>
     <use xlink:href="#DejaVuSerif-Italic-69" transform="translate(216.267578 0)"/>
     <use xlink:href="#DejaVuSerif-Italic-72" transform="translate(248.25 0)"/>
     <use xlink:href="#DejaVuSerif-Italic-20" transform="translate(296.052734 0)"/>
     <use xlink:href="#DejaVuSerif-Italic-68" transform="translate(327.839844 0)"/>
     <use xlink:href="#DejaVuSerif-Italic-61" transform="translate(392.244141 0)"/>
     <use xlink:href="#DejaVuSerif-Italic-62" transform="translate(451.863281 0)"/>
     <use xlink:href="#DejaVuSerif-Italic-69" transform="translate(515.876953 0)"/>
     <use xlink:href="#DejaVuSerif-Italic-74" transform="translate(547.859375 0)"/>
     <use xlink:href="#DejaVuSerif-Italic-61" transform="translate(588.044922 0)"/>
     <use xlink:href="#DejaVuSerif-Italic-74" transform="translate(647.664062 0)"/>
     <use xlink:href="#DejaVuSerif-Italic-20" transform="translate(687.849609 0)"/>
     <use xlink:href="#DejaVuSerif-Italic-63" transform="translate(719.636719 0)"/>
     <use xlink:href="#DejaVuSerif-Italic-6c" transform="translate(775.642578 0)"/>
     <use xlink:href="#DejaVuSerif-Italic-6f" transform="translate(807.625 0)"/>
     <use xlink:href="#DejaVuSerif-Italic-73" transform="translate(867.830078 0)"/>
     <use xlink:href="#DejaVuSerif-Italic-65" transform="translate(919.148438 0)"/>
     <use xlink:href="#DejaVuSerif-Italic-64" transform="translate(978.328125 0)"/>
     <use xlink:href="#DejaVuSerif-Italic-20" transform="translate(1042.341797 0)"/>
     <use xlink:href="#DejaVuSerif-Italic-66" transform="translate(1074.128906 0)"/>
     <use xlink:href="#DejaVuSerif-Italic-6f" transform="translate(1111.140625 0)"/>
     <use xlink:href="#DejaVuSerif-Italic-72" transform="translate(1171.345703 0)"/>
     <use xlink:href="#DejaVuSerif-Italic-6d" transform="translate(1219.148438 0)"/>
     <use xlink:href="#DejaVuSerif-Italic-20" transform="translate(1313.972656 0)"/>
     <use xlink:href="#DejaVuSerif-Italic-28" transform="translate(1345.759766 0)"/>
     <use xlink:href="#DejaVuSerif-Italic-6e" transform="translate(1384.773438 0)"/>
     <use xlink:href="#DejaVuSerif-Italic-6f" transform="translate(1449.177734 0)"/>
     <use xlink:href="#DejaVuSerif-Italic-74" transform="translate(1509.382812 0)"/>
     <use xlink:href="#DejaVuSerif-Italic-20" transform="translate(1549.568359 0)"/>
     <use xlink:href="#DejaVuSerif-Italic-74" transform="translate(1581.355469 0)"/>
     <use xlink:href="#DejaVuSerif-Italic-68" transform="translate(1621.541016 0)"/>
     <use xlink:href="#DejaVuSerif-Italic-65" transform="translate(1685.945312 0)"/>
     <use xlink:href="#DejaVuSerif-Italic-20" transform="translate(1745.125 0)"/>
     <use xlink:href="#DejaVuSerif-Italic-73" transform="translate(1776.912109 0)"/>
     <use xlink:href="#DejaVuSerif-Italic-68" transform="translate(1828.230469 0)"/>
     <use xlink:href="#DejaVuSerif-Italic-61" transform="translate(1892.634766 0)"/>
     <use xlink:href="#DejaVuSerif-Italic-72" transform="translate(1952.253906 0)"/>
     <use xlink:href="#DejaVuSerif-Italic-70" transform="translate(2000.056641 0)"/>
     <use xlink:href="#DejaVuSerif-Italic-20" transform="translate(2064.070312 0)"/>
     <use xlink:href="#DejaVuSerif-Italic-65" transform="translate(2095.857422 0)"/>
     <use xlink:href="#DejaVuSerif-Italic-6e" transform="translate(2155.037109 0)"/>
     <use xlink:href="#DejaVuSerif-Italic-76" transform="translate(2219.441406 0)"/>
     <use xlink:href="#DejaVuSerif-Italic-65" transform="translate(2275.935547 0)"/>
     <use xlink:href="#DejaVuSerif-Italic-6c" transform="translate(2335.115234 0)"/>
     <use xlink:href="#DejaVuSerif-Italic-6f" transform="translate(2367.097656 0)"/>
     <use xlink:href="#DejaVuSerif-Italic-70" transform="translate(2427.302734 0)"/>
     <use xlink:href="#DejaVuSerif-Italic-65" transform="translate(2491.316406 0)"/>
     <use xlink:href="#DejaVuSerif-Italic-29" transform="translate(2550.496094 0)"/>
    </g>
   </g>
   <g id="text_11">
    <!-- $B^*_{ad}=1+m,\ \ B^*_{na}=k\cdot m$ -->
    <g style="fill: #f2f2f2" transform="translate(193.13 547.6252) scale(0.145 -0.145)">
     <defs>
      <path id="Cmsy10-a4" d="M 603 813 
Q 531 813 473 873 
Q 416 934 416 1006 
Q 416 1116 506 1159 
L 1428 1600 
L 506 2034 
Q 416 2072 416 2188 
Q 416 2259 473 2320 
Q 531 2381 603 2381 
Q 650 2381 691 2350 
L 1509 1753 
L 1416 2797 
Q 1416 2875 1469 2925 
Q 1522 2975 1600 2975 
Q 1675 2975 1726 2928 
Q 1778 2881 1778 2809 
L 1778 2797 
L 1684 1753 
L 2503 2350 
Q 2544 2381 2591 2381 
Q 2669 2381 2723 2320 
Q 2778 2259 2778 2188 
Q 2778 2072 2688 2034 
L 1766 1600 
L 2688 1159 
Q 2778 1116 2778 1006 
Q 2778 934 2723 873 
Q 2669 813 2591 813 
Q 2544 813 2503 844 
L 1684 1441 
L 1778 403 
L 1778 384 
Q 1778 313 1723 266 
Q 1669 219 1600 219 
Q 1525 219 1470 270 
Q 1416 322 1416 397 
L 1509 1441 
L 691 844 
Q 650 813 603 813 
z
" transform="scale(0.015625)"/>
      <path id="Cmmi10-6d" d="M 494 109 
Q 494 147 500 166 
L 978 2075 
Q 1025 2253 1025 2388 
Q 1025 2663 838 2663 
Q 638 2663 541 2423 
Q 444 2184 353 1819 
Q 353 1800 334 1789 
Q 316 1778 300 1778 
L 225 1778 
Q 203 1778 187 1801 
Q 172 1825 172 1844 
Q 241 2122 305 2315 
Q 369 2509 505 2668 
Q 641 2828 844 2828 
Q 1084 2828 1268 2676 
Q 1453 2525 1453 2291 
Q 1644 2541 1900 2684 
Q 2156 2828 2444 2828 
Q 2747 2828 2967 2673 
Q 3188 2519 3188 2234 
Q 3384 2513 3648 2670 
Q 3913 2828 4225 2828 
Q 4556 2828 4757 2648 
Q 4959 2469 4959 2138 
Q 4959 1875 4842 1503 
Q 4725 1131 4550 672 
Q 4459 450 4459 288 
Q 4459 97 4609 97 
Q 4859 97 5025 365 
Q 5191 634 5259 941 
Q 5278 978 5313 978 
L 5388 978 
Q 5413 978 5430 961 
Q 5447 944 5447 922 
Q 5447 916 5441 903 
Q 5353 541 5136 234 
Q 4919 -72 4594 -72 
Q 4369 -72 4209 83 
Q 4050 238 4050 459 
Q 4050 572 4103 709 
Q 4284 1191 4404 1569 
Q 4525 1947 4525 2234 
Q 4525 2413 4453 2538 
Q 4381 2663 4213 2663 
Q 3863 2663 3606 2448 
Q 3350 2234 3163 1881 
Q 3150 1819 3144 1784 
L 2731 141 
Q 2709 53 2632 -9 
Q 2556 -72 2463 -72 
Q 2388 -72 2330 -22 
Q 2272 28 2272 109 
Q 2272 147 2278 166 
L 2688 1797 
Q 2753 2059 2753 2234 
Q 2753 2413 2679 2538 
Q 2606 2663 2431 2663 
Q 2197 2663 2000 2559 
Q 1803 2456 1656 2286 
Q 1509 2116 1388 1881 
L 953 141 
Q 931 53 854 -9 
Q 778 -72 684 -72 
Q 606 -72 550 -22 
Q 494 28 494 109 
z
" transform="scale(0.015625)"/>
      <path id="Cmsy10-a2" d="M 538 1600 
Q 538 1691 584 1772 
Q 631 1853 714 1903 
Q 797 1953 891 1953 
Q 981 1953 1064 1903 
Q 1147 1853 1194 1772 
Q 1241 1691 1241 1600 
Q 1241 1456 1139 1351 
Q 1038 1247 891 1247 
Q 747 1247 642 1351 
Q 538 1456 538 1600 
z
" transform="scale(0.015625)"/>
     </defs>
     <use xlink:href="#Cmmi10-42" transform="translate(0 0.196875)"/>
     <use xlink:href="#Cmsy10-a4" transform="translate(99.441797 38.460938) scale(0.7)"/>
     <use xlink:href="#Cmmi10-61" transform="translate(75.78125 -25.3125) scale(0.7)"/>
     <use xlink:href="#Cmmi10-64" transform="translate(112.729492 -25.3125) scale(0.7)"/>
     <use xlink:href="#Cmr10-3d" transform="translate(173.066797 0.196875)"/>
     <use xlink:href="#Cmr10-31" transform="translate(268.310938 0.196875)"/>
     <use xlink:href="#Cmr10-2b" transform="translate(335.869531 0.196875)"/>
     <use xlink:href="#Cmmi10-6d" transform="translate(431.113672 0.196875)"/>
     <use xlink:href="#Cmmi10-3b" transform="translate(518.906641 0.196875)"/>
     <use xlink:href="#Cmmi10-42" transform="translate(622.678842 0.196875)"/>
     <use xlink:href="#Cmsy10-a4" transform="translate(722.120639 38.460938) scale(0.7)"/>
     <use xlink:href="#Cmmi10-6e" transform="translate(698.460092 -25.3125) scale(0.7)"/>
     <use xlink:href="#Cmmi10-61" transform="translate(740.466928 -25.3125) scale(0.7)"/>
     <use xlink:href="#Cmr10-3d" transform="translate(801.351107 0.196875)"/>
     <use xlink:href="#Cmmi10-6b" transform="translate(896.595248 0.196875)"/>
     <use xlink:href="#Cmsy10-a2" transform="translate(966.155795 0.196875)"/>
     <use xlink:href="#Cmmi10-6d" transform="translate(1011.399936 0.196875)"/>
    </g>
   </g>
   <g id="text_12">
    <!-- parity perfect-separation budgets -->
    <g style="fill: #8a8a8a" transform="translate(191.828672 586.429716) scale(0.095 -0.095)">
     <use xlink:href="#DejaVuSerif-Italic-70"/>
     <use xlink:href="#DejaVuSerif-Italic-61" transform="translate(64.013672 0)"/>
     <use xlink:href="#DejaVuSerif-Italic-72" transform="translate(123.632812 0)"/>
     <use xlink:href="#DejaVuSerif-Italic-69" transform="translate(171.435547 0)"/>
     <use xlink:href="#DejaVuSerif-Italic-74" transform="translate(203.417969 0)"/>
     <use xlink:href="#DejaVuSerif-Italic-79" transform="translate(243.603516 0)"/>
     <use xlink:href="#DejaVuSerif-Italic-20" transform="translate(300.097656 0)"/>
     <use xlink:href="#DejaVuSerif-Italic-70" transform="translate(331.884766 0)"/>
     <use xlink:href="#DejaVuSerif-Italic-65" transform="translate(395.898438 0)"/>
     <use xlink:href="#DejaVuSerif-Italic-72" transform="translate(455.078125 0)"/>
     <use xlink:href="#DejaVuSerif-Italic-66" transform="translate(502.880859 0)"/>
     <use xlink:href="#DejaVuSerif-Italic-65" transform="translate(539.892578 0)"/>
     <use xlink:href="#DejaVuSerif-Italic-63" transform="translate(599.072266 0)"/>
     <use xlink:href="#DejaVuSerif-Italic-74" transform="translate(655.078125 0)"/>
     <use xlink:href="#DejaVuSerif-Italic-2d" transform="translate(695.263672 0)"/>
     <use xlink:href="#DejaVuSerif-Italic-73" transform="translate(729.052734 0)"/>
     <use xlink:href="#DejaVuSerif-Italic-65" transform="translate(780.371094 0)"/>
     <use xlink:href="#DejaVuSerif-Italic-70" transform="translate(839.550781 0)"/>
     <use xlink:href="#DejaVuSerif-Italic-61" transform="translate(903.564453 0)"/>
     <use xlink:href="#DejaVuSerif-Italic-72" transform="translate(963.183594 0)"/>
     <use xlink:href="#DejaVuSerif-Italic-61" transform="translate(1010.986328 0)"/>
     <use xlink:href="#DejaVuSerif-Italic-74" transform="translate(1070.605469 0)"/>
     <use xlink:href="#DejaVuSerif-Italic-69" transform="translate(1110.791016 0)"/>
     <use xlink:href="#DejaVuSerif-Italic-6f" transform="translate(1142.773438 0)"/>
     <use xlink:href="#DejaVuSerif-Italic-6e" transform="translate(1202.978516 0)"/>
     <use xlink:href="#DejaVuSerif-Italic-20" transform="translate(1267.382812 0)"/>
     <use xlink:href="#DejaVuSerif-Italic-62" transform="translate(1299.169922 0)"/>
     <use xlink:href="#DejaVuSerif-Italic-75" transform="translate(1363.183594 0)"/>
     <use xlink:href="#DejaVuSerif-Italic-64" transform="translate(1427.587891 0)"/>
     <use xlink:href="#DejaVuSerif-Italic-67" transform="translate(1491.601562 0)"/>
     <use xlink:href="#DejaVuSerif-Italic-65" transform="translate(1555.615234 0)"/>
     <use xlink:href="#DejaVuSerif-Italic-74" transform="translate(1614.794922 0)"/>
     <use xlink:href="#DejaVuSerif-Italic-73" transform="translate(1654.980469 0)"/>
    </g>
   </g>
   <g id="text_13">
    <!-- refused = (any bad)  or  (S &gt;= 0.6) -->
    <g style="fill: #f2f2f2" transform="translate(143.820938 659.616408) scale(0.145 -0.145)">
     <defs>
      <path id="DejaVuSerif-72" d="M 3059 3328 
L 3059 2497 
L 2728 2497 
Q 2713 2744 2591 2866 
Q 2469 2988 2234 2988 
Q 1809 2988 1582 2694 
Q 1356 2400 1356 1850 
L 1356 331 
L 2022 331 
L 2022 0 
L 263 0 
L 263 331 
L 781 331 
L 781 2994 
L 231 2994 
L 231 3322 
L 1356 3322 
L 1356 2731 
Q 1525 3078 1790 3245 
Q 2056 3413 2438 3413 
Q 2578 3413 2733 3391 
Q 2888 3369 3059 3328 
z
" transform="scale(0.015625)"/>
      <path id="DejaVuSerif-65" d="M 3469 1600 
L 991 1600 
L 991 1575 
Q 991 903 1244 561 
Q 1497 219 1991 219 
Q 2369 219 2611 417 
Q 2853 616 2950 1006 
L 3413 1006 
Q 3275 459 2904 184 
Q 2534 -91 1931 -91 
Q 1203 -91 761 389 
Q 319 869 319 1663 
Q 319 2450 753 2931 
Q 1188 3413 1894 3413 
Q 2647 3413 3050 2948 
Q 3453 2484 3469 1600 
z
M 2791 1931 
Q 2772 2513 2545 2808 
Q 2319 3103 1894 3103 
Q 1497 3103 1269 2806 
Q 1041 2509 991 1931 
L 2791 1931 
z
" transform="scale(0.015625)"/>
      <path id="DejaVuSerif-66" d="M 2753 4078 
L 2450 4078 
Q 2447 4313 2317 4434 
Q 2188 4556 1941 4556 
Q 1619 4556 1487 4379 
Q 1356 4203 1356 3750 
L 1356 3322 
L 2284 3322 
L 2284 2988 
L 1356 2988 
L 1356 331 
L 2094 331 
L 2094 0 
L 231 0 
L 231 331 
L 781 331 
L 781 2988 
L 231 2988 
L 231 3322 
L 781 3322 
L 781 3738 
Q 781 4294 1070 4578 
Q 1359 4863 1919 4863 
Q 2128 4863 2337 4825 
Q 2547 4788 2753 4709 
L 2753 4078 
z
" transform="scale(0.015625)"/>
      <path id="DejaVuSerif-75" d="M 2266 3322 
L 3341 3322 
L 3341 331 
L 3884 331 
L 3884 0 
L 2766 0 
L 2766 588 
Q 2606 256 2353 82 
Q 2100 -91 1766 -91 
Q 1213 -91 952 223 
Q 691 538 691 1209 
L 691 2988 
L 172 2988 
L 172 3322 
L 1269 3322 
L 1269 1388 
Q 1269 781 1417 556 
Q 1566 331 1947 331 
Q 2347 331 2556 625 
Q 2766 919 2766 1478 
L 2766 2988 
L 2266 2988 
L 2266 3322 
z
" transform="scale(0.015625)"/>
      <path id="DejaVuSerif-73" d="M 359 184 
L 359 959 
L 691 959 
Q 703 588 923 403 
Q 1144 219 1575 219 
Q 1963 219 2166 364 
Q 2369 509 2369 788 
Q 2369 1006 2220 1140 
Q 2072 1275 1594 1428 
L 1178 1569 
Q 750 1706 558 1912 
Q 366 2119 366 2438 
Q 366 2894 700 3153 
Q 1034 3413 1625 3413 
Q 1888 3413 2178 3344 
Q 2469 3275 2778 3144 
L 2778 2419 
L 2447 2419 
Q 2434 2741 2221 2922 
Q 2009 3103 1644 3103 
Q 1281 3103 1095 2975 
Q 909 2847 909 2591 
Q 909 2381 1050 2254 
Q 1191 2128 1613 1997 
L 2069 1856 
Q 2541 1709 2748 1489 
Q 2956 1269 2956 922 
Q 2956 450 2595 179 
Q 2234 -91 1600 -91 
Q 1278 -91 972 -22 
Q 666 47 359 184 
z
" transform="scale(0.015625)"/>
      <path id="DejaVuSerif-64" d="M 3359 331 
L 3909 331 
L 3909 0 
L 2784 0 
L 2784 519 
Q 2616 206 2355 57 
Q 2094 -91 1709 -91 
Q 1097 -91 708 395 
Q 319 881 319 1663 
Q 319 2444 706 2928 
Q 1094 3413 1709 3413 
Q 2094 3413 2355 3264 
Q 2616 3116 2784 2803 
L 2784 4531 
L 2241 4531 
L 2241 4863 
L 3359 4863 
L 3359 331 
z
M 2784 1497 
L 2784 1825 
Q 2784 2422 2554 2737 
Q 2325 3053 1888 3053 
Q 1444 3053 1217 2703 
Q 991 2353 991 1663 
Q 991 975 1217 622 
Q 1444 269 1888 269 
Q 2325 269 2554 583 
Q 2784 897 2784 1497 
z
" transform="scale(0.015625)"/>
      <path id="DejaVuSerif-20" transform="scale(0.015625)"/>
      <path id="DejaVuSerif-3d" d="M 678 2894 
L 4684 2894 
L 4684 2394 
L 678 2394 
L 678 2894 
z
M 678 1619 
L 4684 1619 
L 4684 1119 
L 678 1119 
L 678 1619 
z
" transform="scale(0.015625)"/>
      <path id="DejaVuSerif-28" d="M 2041 -997 
Q 1281 -656 893 83 
Q 506 822 506 1931 
Q 506 3044 893 3783 
Q 1281 4522 2041 4863 
L 2041 4556 
Q 1559 4225 1350 3623 
Q 1141 3022 1141 1931 
Q 1141 844 1350 242 
Q 1559 -359 2041 -691 
L 2041 -997 
z
" transform="scale(0.015625)"/>
      <path id="DejaVuSerif-61" d="M 2547 1044 
L 2547 1747 
L 1806 1747 
Q 1378 1747 1168 1562 
Q 959 1378 959 997 
Q 959 650 1171 447 
Q 1384 244 1747 244 
Q 2106 244 2326 466 
Q 2547 688 2547 1044 
z
M 3122 2075 
L 3122 331 
L 3634 331 
L 3634 0 
L 2547 0 
L 2547 359 
Q 2356 128 2106 18 
Q 1856 -91 1522 -91 
Q 969 -91 644 203 
Q 319 497 319 997 
Q 319 1513 691 1797 
Q 1063 2081 1741 2081 
L 2547 2081 
L 2547 2309 
Q 2547 2688 2317 2895 
Q 2088 3103 1672 3103 
Q 1328 3103 1125 2947 
Q 922 2791 872 2484 
L 575 2484 
L 575 3156 
Q 875 3284 1158 3348 
Q 1441 3413 1709 3413 
Q 2400 3413 2761 3070 
Q 3122 2728 3122 2075 
z
" transform="scale(0.015625)"/>
      <path id="DejaVuSerif-6e" d="M 263 0 
L 263 331 
L 781 331 
L 781 2988 
L 231 2988 
L 231 3322 
L 1356 3322 
L 1356 2731 
Q 1516 3069 1770 3241 
Q 2025 3413 2363 3413 
Q 2913 3413 3172 3097 
Q 3431 2781 3431 2113 
L 3431 331 
L 3944 331 
L 3944 0 
L 2356 0 
L 2356 331 
L 2853 331 
L 2853 1931 
Q 2853 2541 2703 2767 
Q 2553 2994 2175 2994 
Q 1775 2994 1565 2701 
Q 1356 2409 1356 1850 
L 1356 331 
L 1856 331 
L 1856 0 
L 263 0 
z
" transform="scale(0.015625)"/>
      <path id="DejaVuSerif-79" d="M 1381 -609 
L 1600 -56 
L 359 2988 
L -19 2988 
L -19 3322 
L 1509 3322 
L 1509 2988 
L 978 2988 
L 1913 703 
L 2847 2988 
L 2350 2988 
L 2350 3322 
L 3597 3322 
L 3597 2988 
L 3225 2988 
L 1703 -750 
Q 1547 -1138 1356 -1280 
Q 1166 -1422 819 -1422 
Q 672 -1422 517 -1397 
Q 363 -1372 206 -1325 
L 206 -691 
L 500 -691 
Q 519 -903 608 -995 
Q 697 -1088 884 -1088 
Q 1056 -1088 1161 -992 
Q 1266 -897 1381 -609 
z
" transform="scale(0.015625)"/>
      <path id="DejaVuSerif-62" d="M 738 331 
L 738 4531 
L 184 4531 
L 184 4863 
L 1313 4863 
L 1313 2803 
Q 1481 3116 1742 3264 
Q 2003 3413 2388 3413 
Q 3000 3413 3387 2928 
Q 3775 2444 3775 1663 
Q 3775 881 3387 395 
Q 3000 -91 2388 -91 
Q 2003 -91 1742 57 
Q 1481 206 1313 519 
L 1313 0 
L 184 0 
L 184 331 
L 738 331 
z
M 1313 1497 
Q 1313 897 1542 583 
Q 1772 269 2209 269 
Q 2650 269 2876 622 
Q 3103 975 3103 1663 
Q 3103 2353 2876 2703 
Q 2650 3053 2209 3053 
Q 1772 3053 1542 2737 
Q 1313 2422 1313 1825 
L 1313 1497 
z
" transform="scale(0.015625)"/>
      <path id="DejaVuSerif-29" d="M 453 -997 
L 453 -691 
Q 934 -359 1145 242 
Q 1356 844 1356 1931 
Q 1356 3022 1145 3623 
Q 934 4225 453 4556 
L 453 4863 
Q 1216 4522 1603 3783 
Q 1991 3044 1991 1931 
Q 1991 822 1603 83 
Q 1216 -656 453 -997 
z
" transform="scale(0.015625)"/>
      <path id="DejaVuSerif-6f" d="M 1925 219 
Q 2388 219 2623 584 
Q 2859 950 2859 1663 
Q 2859 2375 2623 2739 
Q 2388 3103 1925 3103 
Q 1463 3103 1227 2739 
Q 991 2375 991 1663 
Q 991 950 1228 584 
Q 1466 219 1925 219 
z
M 1925 -91 
Q 1200 -91 759 389 
Q 319 869 319 1663 
Q 319 2456 758 2934 
Q 1197 3413 1925 3413 
Q 2653 3413 3092 2934 
Q 3531 2456 3531 1663 
Q 3531 869 3092 389 
Q 2653 -91 1925 -91 
z
" transform="scale(0.015625)"/>
      <path id="DejaVuSerif-53" d="M 594 225 
L 594 1288 
L 953 1284 
Q 969 753 1261 498 
Q 1553 244 2150 244 
Q 2706 244 2998 464 
Q 3291 684 3291 1106 
Q 3291 1444 3114 1625 
Q 2938 1806 2369 1978 
L 1753 2163 
Q 1084 2366 811 2669 
Q 538 2972 538 3500 
Q 538 4094 959 4422 
Q 1381 4750 2144 4750 
Q 2469 4750 2856 4679 
Q 3244 4609 3681 4475 
L 3681 3481 
L 3328 3481 
Q 3275 3975 2998 4195 
Q 2722 4416 2156 4416 
Q 1663 4416 1405 4214 
Q 1147 4013 1147 3628 
Q 1147 3294 1340 3103 
Q 1534 2913 2163 2725 
L 2741 2553 
Q 3375 2363 3645 2067 
Q 3916 1772 3916 1275 
Q 3916 597 3481 253 
Q 3047 -91 2188 -91 
Q 1803 -91 1404 -12 
Q 1006 66 594 225 
z
" transform="scale(0.015625)"/>
      <path id="DejaVuSerif-3e" d="M 678 3188 
L 678 3719 
L 4684 2266 
L 4684 1747 
L 678 294 
L 678 825 
L 3922 2003 
L 678 3188 
z
" transform="scale(0.015625)"/>
      <path id="DejaVuSerif-30" d="M 2034 219 
Q 2513 219 2750 744 
Q 2988 1269 2988 2328 
Q 2988 3391 2750 3916 
Q 2513 4441 2034 4441 
Q 1556 4441 1318 3916 
Q 1081 3391 1081 2328 
Q 1081 1269 1318 744 
Q 1556 219 2034 219 
z
M 2034 -91 
Q 1275 -91 848 546 
Q 422 1184 422 2328 
Q 422 3475 848 4112 
Q 1275 4750 2034 4750 
Q 2797 4750 3222 4112 
Q 3647 3475 3647 2328 
Q 3647 1184 3222 546 
Q 2797 -91 2034 -91 
z
" transform="scale(0.015625)"/>
      <path id="DejaVuSerif-2e" d="M 603 325 
Q 603 500 722 622 
Q 841 744 1019 744 
Q 1191 744 1312 622 
Q 1434 500 1434 325 
Q 1434 153 1312 31 
Q 1191 -91 1019 -91 
Q 841 -91 722 29 
Q 603 150 603 325 
z
" transform="scale(0.015625)"/>
      <path id="DejaVuSerif-36" d="M 2094 219 
Q 2534 219 2771 542 
Q 3009 866 3009 1472 
Q 3009 2078 2771 2401 
Q 2534 2725 2094 2725 
Q 1647 2725 1412 2412 
Q 1178 2100 1178 1509 
Q 1178 888 1415 553 
Q 1653 219 2094 219 
z
M 1075 2569 
Q 1288 2803 1556 2918 
Q 1825 3034 2163 3034 
Q 2859 3034 3264 2615 
Q 3669 2197 3669 1472 
Q 3669 763 3233 336 
Q 2797 -91 2069 -91 
Q 1278 -91 853 498 
Q 428 1088 428 2181 
Q 428 3406 931 4078 
Q 1434 4750 2350 4750 
Q 2597 4750 2869 4703 
Q 3141 4656 3425 4563 
L 3425 3794 
L 3072 3794 
Q 3034 4109 2831 4275 
Q 2628 4441 2284 4441 
Q 1678 4441 1381 3981 
Q 1084 3522 1075 2569 
z
" transform="scale(0.015625)"/>
     </defs>
     <use xlink:href="#DejaVuSerif-72"/>
     <use xlink:href="#DejaVuSerif-65" transform="translate(47.802734 0)"/>
     <use xlink:href="#DejaVuSerif-66" transform="translate(106.982422 0)"/>
     <use xlink:href="#DejaVuSerif-75" transform="translate(143.994141 0)"/>
     <use xlink:href="#DejaVuSerif-73" transform="translate(208.398438 0)"/>
     <use xlink:href="#DejaVuSerif-65" transform="translate(259.716797 0)"/>
     <use xlink:href="#DejaVuSerif-64" transform="translate(318.896484 0)"/>
     <use xlink:href="#DejaVuSerif-20" transform="translate(382.910156 0)"/>
     <use xlink:href="#DejaVuSerif-3d" transform="translate(414.697266 0)"/>
     <use xlink:href="#DejaVuSerif-20" transform="translate(498.486328 0)"/>
     <use xlink:href="#DejaVuSerif-28" transform="translate(530.273438 0)"/>
     <use xlink:href="#DejaVuSerif-61" transform="translate(569.287109 0)"/>
     <use xlink:href="#DejaVuSerif-6e" transform="translate(628.90625 0)"/>
     <use xlink:href="#DejaVuSerif-79" transform="translate(693.310547 0)"/>
     <use xlink:href="#DejaVuSerif-20" transform="translate(749.804688 0)"/>
     <use xlink:href="#DejaVuSerif-62" transform="translate(781.591797 0)"/>
     <use xlink:href="#DejaVuSerif-61" transform="translate(845.605469 0)"/>
     <use xlink:href="#DejaVuSerif-64" transform="translate(905.224609 0)"/>
     <use xlink:href="#DejaVuSerif-29" transform="translate(969.238281 0)"/>
     <use xlink:href="#DejaVuSerif-20" transform="translate(1008.251953 0)"/>
     <use xlink:href="#DejaVuSerif-20" transform="translate(1040.039062 0)"/>
     <use xlink:href="#DejaVuSerif-6f" transform="translate(1071.826172 0)"/>
     <use xlink:href="#DejaVuSerif-72" transform="translate(1132.03125 0)"/>
     <use xlink:href="#DejaVuSerif-20" transform="translate(1179.833984 0)"/>
     <use xlink:href="#DejaVuSerif-20" transform="translate(1211.621094 0)"/>
     <use xlink:href="#DejaVuSerif-28" transform="translate(1243.408203 0)"/>
     <use xlink:href="#DejaVuSerif-53" transform="translate(1282.421875 0)"/>
     <use xlink:href="#DejaVuSerif-20" transform="translate(1350.927734 0)"/>
     <use xlink:href="#DejaVuSerif-3e" transform="translate(1382.714844 0)"/>
     <use xlink:href="#DejaVuSerif-3d" transform="translate(1466.503906 0)"/>
     <use xlink:href="#DejaVuSerif-20" transform="translate(1550.292969 0)"/>
     <use xlink:href="#DejaVuSerif-30" transform="translate(1582.080078 0)"/>
     <use xlink:href="#DejaVuSerif-2e" transform="translate(1645.703125 0)"/>
     <use xlink:href="#DejaVuSerif-36" transform="translate(1677.490234 0)"/>
     <use xlink:href="#DejaVuSerif-29" transform="translate(1741.113281 0)"/>
    </g>
   </g>
   <g id="text_14">
    <!-- product dual gate — S is a severity monoid, not a probability -->
    <g style="fill: #8a8a8a" transform="translate(126.22375 697.712916) scale(0.095 -0.095)">
     <defs>
      <path id="DejaVuSerif-Italic-2014" d="M 322 1906 
L 6159 1906 
L 6078 1491 
L 241 1491 
L 322 1906 
z
" transform="scale(0.015625)"/>
      <path id="DejaVuSerif-Italic-53" d="M 184 225 
L 391 1288 
L 750 1284 
Q 663 753 905 498 
Q 1147 244 1744 244 
Q 2300 244 2636 464 
Q 2972 684 3053 1106 
Q 3119 1444 2976 1625 
Q 2834 1806 2300 1978 
L 1722 2163 
Q 1091 2366 877 2669 
Q 663 2972 766 3500 
Q 881 4094 1367 4422 
Q 1853 4750 2616 4750 
Q 2941 4750 3314 4679 
Q 3688 4609 4097 4475 
L 3906 3481 
L 3553 3481 
Q 3594 3975 3361 4195 
Q 3128 4416 2563 4416 
Q 2069 4416 1772 4214 
Q 1475 4013 1400 3628 
Q 1334 3294 1490 3103 
Q 1647 2913 2241 2725 
L 2784 2553 
Q 3381 2363 3593 2067 
Q 3806 1772 3709 1275 
Q 3578 597 3076 253 
Q 2575 -91 1716 -91 
Q 1331 -91 948 -12 
Q 566 66 184 225 
z
" transform="scale(0.015625)"/>
      <path id="DejaVuSerif-Italic-2c" d="M 125 -622 
Q 463 -406 656 -114 
Q 850 178 931 594 
L 953 709 
L 1569 709 
Q 1441 175 1139 -208 
Q 838 -591 328 -872 
L 125 -622 
z
" transform="scale(0.015625)"/>
     </defs>
     <use xlink:href="#DejaVuSerif-Italic-70"/>
     <use xlink:href="#DejaVuSerif-Italic-72" transform="translate(64.013672 0)"/>
     <use xlink:href="#DejaVuSerif-Italic-6f" transform="translate(111.816406 0)"/>
     <use xlink:href="#DejaVuSerif-Italic-64" transform="translate(172.021484 0)"/>
     <use xlink:href="#DejaVuSerif-Italic-75" transform="translate(236.035156 0)"/>
     <use xlink:href="#DejaVuSerif-Italic-63" transform="translate(300.439453 0)"/>
     <use xlink:href="#DejaVuSerif-Italic-74" transform="translate(356.445312 0)"/>
     <use xlink:href="#DejaVuSerif-Italic-20" transform="translate(396.630859 0)"/>
     <use xlink:href="#DejaVuSerif-Italic-64" transform="translate(428.417969 0)"/>
     <use xlink:href="#DejaVuSerif-Italic-75" transform="translate(492.431641 0)"/>
     <use xlink:href="#DejaVuSerif-Italic-61" transform="translate(556.835938 0)"/>
     <use xlink:href="#DejaVuSerif-Italic-6c" transform="translate(616.455078 0)"/>
     <use xlink:href="#DejaVuSerif-Italic-20" transform="translate(648.4375 0)"/>
     <use xlink:href="#DejaVuSerif-Italic-67" transform="translate(680.224609 0)"/>
     <use xlink:href="#DejaVuSerif-Italic-61" transform="translate(744.238281 0)"/>
     <use xlink:href="#DejaVuSerif-Italic-74" transform="translate(803.857422 0)"/>
     <use xlink:href="#DejaVuSerif-Italic-65" transform="translate(844.042969 0)"/>
     <use xlink:href="#DejaVuSerif-Italic-20" transform="translate(903.222656 0)"/>
     <use xlink:href="#DejaVuSerif-Italic-2014" transform="translate(935.009766 0)"/>
     <use xlink:href="#DejaVuSerif-Italic-20" transform="translate(1035.009766 0)"/>
     <use xlink:href="#DejaVuSerif-Italic-53" transform="translate(1066.796875 0)"/>
     <use xlink:href="#DejaVuSerif-Italic-20" transform="translate(1135.302734 0)"/>
     <use xlink:href="#DejaVuSerif-Italic-69" transform="translate(1167.089844 0)"/>
     <use xlink:href="#DejaVuSerif-Italic-73" transform="translate(1199.072266 0)"/>
     <use xlink:href="#DejaVuSerif-Italic-20" transform="translate(1250.390625 0)"/>
     <use xlink:href="#DejaVuSerif-Italic-61" transform="translate(1282.177734 0)"/>
     <use xlink:href="#DejaVuSerif-Italic-20" transform="translate(1341.796875 0)"/>
     <use xlink:href="#DejaVuSerif-Italic-73" transform="translate(1373.583984 0)"/>
     <use xlink:href="#DejaVuSerif-Italic-65" transform="translate(1424.902344 0)"/>
     <use xlink:href="#DejaVuSerif-Italic-76" transform="translate(1484.082031 0)"/>
     <use xlink:href="#DejaVuSerif-Italic-65" transform="translate(1540.576172 0)"/>
     <use xlink:href="#DejaVuSerif-Italic-72" transform="translate(1599.755859 0)"/>
     <use xlink:href="#DejaVuSerif-Italic-69" transform="translate(1647.558594 0)"/>
     <use xlink:href="#DejaVuSerif-Italic-74" transform="translate(1679.541016 0)"/>
     <use xlink:href="#DejaVuSerif-Italic-79" transform="translate(1719.726562 0)"/>
     <use xlink:href="#DejaVuSerif-Italic-20" transform="translate(1776.220703 0)"/>
     <use xlink:href="#DejaVuSerif-Italic-6d" transform="translate(1808.007812 0)"/>
     <use xlink:href="#DejaVuSerif-Italic-6f" transform="translate(1902.832031 0)"/>
     <use xlink:href="#DejaVuSerif-Italic-6e" transform="translate(1963.037109 0)"/>
     <use xlink:href="#DejaVuSerif-Italic-6f" transform="translate(2027.441406 0)"/>
     <use xlink:href="#DejaVuSerif-Italic-69" transform="translate(2087.646484 0)"/>
     <use xlink:href="#DejaVuSerif-Italic-64" transform="translate(2119.628906 0)"/>
     <use xlink:href="#DejaVuSerif-Italic-2c" transform="translate(2183.642578 0)"/>
     <use xlink:href="#DejaVuSerif-Italic-20" transform="translate(2215.429688 0)"/>
     <use xlink:href="#DejaVuSerif-Italic-6e" transform="translate(2247.216797 0)"/>
     <use xlink:href="#DejaVuSerif-Italic-6f" transform="translate(2311.621094 0)"/>
     <use xlink:href="#DejaVuSerif-Italic-74" transform="translate(2371.826172 0)"/>
     <use xlink:href="#DejaVuSerif-Italic-20" transform="translate(2412.011719 0)"/>
     <use xlink:href="#DejaVuSerif-Italic-61" transform="translate(2443.798828 0)"/>
     <use xlink:href="#DejaVuSerif-Italic-20" transform="translate(2503.417969 0)"/>
     <use xlink:href="#DejaVuSerif-Italic-70" transform="translate(2535.205078 0)"/>
     <use xlink:href="#DejaVuSerif-Italic-72" transform="translate(2599.21875 0)"/>
     <use xlink:href="#DejaVuSerif-Italic-6f" transform="translate(2647.021484 0)"/>
     <use xlink:href="#DejaVuSerif-Italic-62" transform="translate(2707.226562 0)"/>
     <use xlink:href="#DejaVuSerif-Italic-61" transform="translate(2771.240234 0)"/>
     <use xlink:href="#DejaVuSerif-Italic-62" transform="translate(2830.859375 0)"/>
     <use xlink:href="#DejaVuSerif-Italic-69" transform="translate(2894.873047 0)"/>
     <use xlink:href="#DejaVuSerif-Italic-6c" transform="translate(2926.855469 0)"/>
     <use xlink:href="#DejaVuSerif-Italic-69" transform="translate(2958.837891 0)"/>
     <use xlink:href="#DejaVuSerif-Italic-74" transform="translate(2990.820312 0)"/>
     <use xlink:href="#DejaVuSerif-Italic-79" transform="translate(3031.005859 0)"/>
    </g>
   </g>
  </g>
 </g>
</svg>
