<?xml version="1.0" encoding="utf-8" standalone="no"?>
<!DOCTYPE svg PUBLIC "-//W3C//DTD SVG 1.1//EN"
  "http://www.w3.org/Graphics/SVG/1.1/DTD/svg11.dtd">
<svg xmlns:xlink="http://www.w3.org/1999/xlink" width="712.8pt" height="511.2pt" viewBox="0 0 712.8 511.2" xmlns="http://www.w3.org/2000/svg" version="1.1">
 <metadata>
  <rdf:RDF xmlns:dc="http://purl.org/dc/elements/1.1/" xmlns:cc="http://creativecommons.org/ns#" xmlns:rdf="http://www.w3.org/1999/02/22-rdf-syntax-ns#">
   <cc:Work>
    <dc:type rdf:resource="http://purl.org/dc/dcmitype/StillImage"/>
    <dc:date>2026-07-12T14:09:23.440545</dc:date>
    <dc:format>image/svg+xml</dc:format>
    <dc:creator>
     <cc:Agent>
      <dc:title>Matplotlib v3.10.9, https://matplotlib.org/</dc:title>
     </cc:Agent>
    </dc:creator>
   </cc:Work>
  </rdf:RDF>
 </metadata>
 <defs>
  <style type="text/css">*{stroke-linejoin: round; stroke-linecap: butt}</style>
 </defs>
 <g id="figure_1">
  <g id="patch_1">
   <path d="M 0 511.2 
L 712.8 511.2 
L 712.8 0 
L 0 0 
z
"/>
  </g>
  <g id="axes_1">
   <g id="patch_2">
    <path d="M 38.628 176.112 
L 674.172 176.112 
Q 684.648 176.112 684.648 168.66 
L 684.648 104.076 
Q 684.648 96.624 674.172 96.624 
L 38.628 96.624 
Q 28.152 96.624 28.152 104.076 
L 28.152 168.66 
Q 28.152 176.112 38.628 176.112 
z
" clip-path="url(#pa7eaea0153)" style="fill: #cfb991; stroke: #8e6f3e; stroke-width: 1.6; stroke-linejoin: miter"/>
   </g>
   <g id="patch_3">
    <path d="M 38.628 255.6 
L 674.172 255.6 
Q 684.648 255.6 684.648 248.148 
L 684.648 183.564 
Q 684.648 176.112 674.172 176.112 
L 38.628 176.112 
Q 28.152 176.112 28.152 183.564 
L 28.152 248.148 
Q 28.152 255.6 38.628 255.6 
z
" clip-path="url(#pa7eaea0153)" style="fill: #cfb991; stroke: #8e6f3e; stroke-width: 1.6; stroke-linejoin: miter"/>
   </g>
   <g id="patch_4">
    <path d="M 38.628 335.088 
L 674.172 335.088 
Q 684.648 335.088 684.648 327.636 
L 684.648 263.052 
Q 684.648 255.6 674.172 255.6 
L 38.628 255.6 
Q 28.152 255.6 28.152 263.052 
L 28.152 327.636 
Q 28.152 335.088 38.628 335.088 
z
" clip-path="url(#pa7eaea0153)" style="fill: #cfb991; stroke: #8e6f3e; stroke-width: 1.6; stroke-linejoin: miter"/>
   </g>
   <g id="patch_5">
    <path d="M 38.628 414.576 
L 674.172 414.576 
Q 684.648 414.576 684.648 407.124 
L 684.648 342.54 
Q 684.648 335.088 674.172 335.088 
L 38.628 335.088 
Q 28.152 335.088 28.152 342.54 
L 28.152 407.124 
Q 28.152 414.576 38.628 414.576 
z
" clip-path="url(#pa7eaea0153)" style="fill: #cfb991; stroke: #8e6f3e; stroke-width: 1.6; stroke-linejoin: miter"/>
   </g>
   <g id="patch_6">
    <path d="M 38.628 494.064 
L 674.172 494.064 
Q 684.648 494.064 684.648 486.612 
L 684.648 422.028 
Q 684.648 414.576 674.172 414.576 
L 38.628 414.576 
Q 28.152 414.576 28.152 422.028 
L 28.152 486.612 
Q 28.152 494.064 38.628 494.064 
z
" clip-path="url(#pa7eaea0153)" style="fill: #cfb991; stroke: #8e6f3e; stroke-width: 1.6; stroke-linejoin: miter"/>
   </g>
   <g id="text_1">
    <!-- CHARM13  ·  closed forms that punch -->
    <g style="fill: #cfb991" transform="translate(199.130859 34.524) scale(0.15 -0.15)">
     <defs>
      <path id="DejaVuSans-Bold-43" d="M 4288 256 
Q 3956 84 3597 -3 
Q 3238 -91 2847 -91 
Q 1681 -91 1000 561 
Q 319 1213 319 2328 
Q 319 3447 1000 4098 
Q 1681 4750 2847 4750 
Q 3238 4750 3597 4662 
Q 3956 4575 4288 4403 
L 4288 3438 
Q 3953 3666 3628 3772 
Q 3303 3878 2944 3878 
Q 2300 3878 1931 3465 
Q 1563 3053 1563 2328 
Q 1563 1606 1931 1193 
Q 2300 781 2944 781 
Q 3303 781 3628 887 
Q 3953 994 4288 1222 
L 4288 256 
z
" transform="scale(0.015625)"/>
      <path id="DejaVuSans-Bold-48" d="M 588 4666 
L 1791 4666 
L 1791 2888 
L 3566 2888 
L 3566 4666 
L 4769 4666 
L 4769 0 
L 3566 0 
L 3566 1978 
L 1791 1978 
L 1791 0 
L 588 0 
L 588 4666 
z
" transform="scale(0.015625)"/>
      <path id="DejaVuSans-Bold-41" d="M 3419 850 
L 1538 850 
L 1241 0 
L 31 0 
L 1759 4666 
L 3194 4666 
L 4922 0 
L 3713 0 
L 3419 850 
z
M 1838 1716 
L 3116 1716 
L 2478 3572 
L 1838 1716 
z
" transform="scale(0.015625)"/>
      <path id="DejaVuSans-Bold-52" d="M 2297 2597 
Q 2675 2597 2839 2737 
Q 3003 2878 3003 3200 
Q 3003 3519 2839 3656 
Q 2675 3794 2297 3794 
L 1791 3794 
L 1791 2597 
L 2297 2597 
z
M 1791 1766 
L 1791 0 
L 588 0 
L 588 4666 
L 2425 4666 
Q 3347 4666 3776 4356 
Q 4206 4047 4206 3378 
Q 4206 2916 3982 2619 
Q 3759 2322 3309 2181 
Q 3556 2125 3751 1926 
Q 3947 1728 4147 1325 
L 4800 0 
L 3519 0 
L 2950 1159 
Q 2778 1509 2601 1637 
Q 2425 1766 2131 1766 
L 1791 1766 
z
" transform="scale(0.015625)"/>
      <path id="DejaVuSans-Bold-4d" d="M 588 4666 
L 2119 4666 
L 3181 2169 
L 4250 4666 
L 5778 4666 
L 5778 0 
L 4641 0 
L 4641 3413 
L 3566 897 
L 2803 897 
L 1728 3413 
L 1728 0 
L 588 0 
L 588 4666 
z
" transform="scale(0.015625)"/>
      <path id="DejaVuSans-Bold-31" d="M 750 831 
L 1813 831 
L 1813 3847 
L 722 3622 
L 722 4441 
L 1806 4666 
L 2950 4666 
L 2950 831 
L 4013 831 
L 4013 0 
L 750 0 
L 750 831 
z
" transform="scale(0.015625)"/>
      <path id="DejaVuSans-Bold-33" d="M 2981 2516 
Q 3453 2394 3698 2092 
Q 3944 1791 3944 1325 
Q 3944 631 3412 270 
Q 2881 -91 1863 -91 
Q 1503 -91 1142 -33 
Q 781 25 428 141 
L 428 1069 
Q 766 900 1098 814 
Q 1431 728 1753 728 
Q 2231 728 2486 893 
Q 2741 1059 2741 1369 
Q 2741 1688 2480 1852 
Q 2219 2016 1709 2016 
L 1228 2016 
L 1228 2791 
L 1734 2791 
Q 2188 2791 2409 2933 
Q 2631 3075 2631 3366 
Q 2631 3634 2415 3781 
Q 2200 3928 1806 3928 
Q 1516 3928 1219 3862 
Q 922 3797 628 3669 
L 628 4550 
Q 984 4650 1334 4700 
Q 1684 4750 2022 4750 
Q 2931 4750 3382 4451 
Q 3834 4153 3834 3553 
Q 3834 3144 3618 2883 
Q 3403 2622 2981 2516 
z
" transform="scale(0.015625)"/>
      <path id="DejaVuSans-Bold-20" transform="scale(0.015625)"/>
      <path id="DejaVuSans-Bold-b7" d="M 653 2828 
L 1778 2828 
L 1778 1619 
L 653 1619 
L 653 2828 
z
" transform="scale(0.015625)"/>
      <path id="DejaVuSans-Bold-63" d="M 3366 3391 
L 3366 2478 
Q 3138 2634 2908 2709 
Q 2678 2784 2431 2784 
Q 1963 2784 1702 2511 
Q 1441 2238 1441 1747 
Q 1441 1256 1702 982 
Q 1963 709 2431 709 
Q 2694 709 2930 787 
Q 3166 866 3366 1019 
L 3366 103 
Q 3103 6 2833 -42 
Q 2563 -91 2291 -91 
Q 1344 -91 809 395 
Q 275 881 275 1747 
Q 275 2613 809 3098 
Q 1344 3584 2291 3584 
Q 2566 3584 2833 3536 
Q 3100 3488 3366 3391 
z
" transform="scale(0.015625)"/>
      <path id="DejaVuSans-Bold-6c" d="M 538 4863 
L 1656 4863 
L 1656 0 
L 538 0 
L 538 4863 
z
" transform="scale(0.015625)"/>
      <path id="DejaVuSans-Bold-6f" d="M 2203 2784 
Q 1831 2784 1636 2517 
Q 1441 2250 1441 1747 
Q 1441 1244 1636 976 
Q 1831 709 2203 709 
Q 2569 709 2762 976 
Q 2956 1244 2956 1747 
Q 2956 2250 2762 2517 
Q 2569 2784 2203 2784 
z
M 2203 3584 
Q 3106 3584 3614 3096 
Q 4122 2609 4122 1747 
Q 4122 884 3614 396 
Q 3106 -91 2203 -91 
Q 1297 -91 786 396 
Q 275 884 275 1747 
Q 275 2609 786 3096 
Q 1297 3584 2203 3584 
z
" transform="scale(0.015625)"/>
      <path id="DejaVuSans-Bold-73" d="M 3272 3391 
L 3272 2541 
Q 2913 2691 2578 2766 
Q 2244 2841 1947 2841 
Q 1628 2841 1473 2761 
Q 1319 2681 1319 2516 
Q 1319 2381 1436 2309 
Q 1553 2238 1856 2203 
L 2053 2175 
Q 2913 2066 3209 1816 
Q 3506 1566 3506 1031 
Q 3506 472 3093 190 
Q 2681 -91 1863 -91 
Q 1516 -91 1145 -36 
Q 775 19 384 128 
L 384 978 
Q 719 816 1070 734 
Q 1422 653 1784 653 
Q 2113 653 2278 743 
Q 2444 834 2444 1013 
Q 2444 1163 2330 1236 
Q 2216 1309 1875 1350 
L 1678 1375 
Q 931 1469 631 1722 
Q 331 1975 331 2491 
Q 331 3047 712 3315 
Q 1094 3584 1881 3584 
Q 2191 3584 2531 3537 
Q 2872 3491 3272 3391 
z
" transform="scale(0.015625)"/>
      <path id="DejaVuSans-Bold-65" d="M 4031 1759 
L 4031 1441 
L 1416 1441 
Q 1456 1047 1700 850 
Q 1944 653 2381 653 
Q 2734 653 3104 758 
Q 3475 863 3866 1075 
L 3866 213 
Q 3469 63 3072 -14 
Q 2675 -91 2278 -91 
Q 1328 -91 801 392 
Q 275 875 275 1747 
Q 275 2603 792 3093 
Q 1309 3584 2216 3584 
Q 3041 3584 3536 3087 
Q 4031 2591 4031 1759 
z
M 2881 2131 
Q 2881 2450 2695 2645 
Q 2509 2841 2209 2841 
Q 1884 2841 1681 2658 
Q 1478 2475 1428 2131 
L 2881 2131 
z
" transform="scale(0.015625)"/>
      <path id="DejaVuSans-Bold-64" d="M 2919 2988 
L 2919 4863 
L 4044 4863 
L 4044 0 
L 2919 0 
L 2919 506 
Q 2688 197 2409 53 
Q 2131 -91 1766 -91 
Q 1119 -91 703 423 
Q 288 938 288 1747 
Q 288 2556 703 3070 
Q 1119 3584 1766 3584 
Q 2128 3584 2408 3439 
Q 2688 3294 2919 2988 
z
M 2181 722 
Q 2541 722 2730 984 
Q 2919 1247 2919 1747 
Q 2919 2247 2730 2509 
Q 2541 2772 2181 2772 
Q 1825 2772 1636 2509 
Q 1447 2247 1447 1747 
Q 1447 1247 1636 984 
Q 1825 722 2181 722 
z
" transform="scale(0.015625)"/>
      <path id="DejaVuSans-Bold-66" d="M 2841 4863 
L 2841 4128 
L 2222 4128 
Q 1984 4128 1890 4042 
Q 1797 3956 1797 3744 
L 1797 3500 
L 2753 3500 
L 2753 2700 
L 1797 2700 
L 1797 0 
L 678 0 
L 678 2700 
L 122 2700 
L 122 3500 
L 678 3500 
L 678 3744 
Q 678 4316 997 4589 
Q 1316 4863 1984 4863 
L 2841 4863 
z
" transform="scale(0.015625)"/>
      <path id="DejaVuSans-Bold-72" d="M 3138 2547 
Q 2991 2616 2845 2648 
Q 2700 2681 2553 2681 
Q 2122 2681 1889 2404 
Q 1656 2128 1656 1613 
L 1656 0 
L 538 0 
L 538 3500 
L 1656 3500 
L 1656 2925 
Q 1872 3269 2151 3426 
Q 2431 3584 2822 3584 
Q 2878 3584 2943 3579 
Q 3009 3575 3134 3559 
L 3138 2547 
z
" transform="scale(0.015625)"/>
      <path id="DejaVuSans-Bold-6d" d="M 3781 2919 
Q 3994 3244 4286 3414 
Q 4578 3584 4928 3584 
Q 5531 3584 5847 3212 
Q 6163 2841 6163 2131 
L 6163 0 
L 5038 0 
L 5038 1825 
Q 5041 1866 5042 1909 
Q 5044 1953 5044 2034 
Q 5044 2406 4934 2573 
Q 4825 2741 4581 2741 
Q 4263 2741 4089 2478 
Q 3916 2216 3909 1719 
L 3909 0 
L 2784 0 
L 2784 1825 
Q 2784 2406 2684 2573 
Q 2584 2741 2328 2741 
Q 2006 2741 1831 2477 
Q 1656 2213 1656 1722 
L 1656 0 
L 531 0 
L 531 3500 
L 1656 3500 
L 1656 2988 
Q 1863 3284 2130 3434 
Q 2397 3584 2719 3584 
Q 3081 3584 3359 3409 
Q 3638 3234 3781 2919 
z
" transform="scale(0.015625)"/>
      <path id="DejaVuSans-Bold-74" d="M 1759 4494 
L 1759 3500 
L 2913 3500 
L 2913 2700 
L 1759 2700 
L 1759 1216 
Q 1759 972 1856 886 
Q 1953 800 2241 800 
L 2816 800 
L 2816 0 
L 1856 0 
Q 1194 0 917 276 
Q 641 553 641 1216 
L 641 2700 
L 84 2700 
L 84 3500 
L 641 3500 
L 641 4494 
L 1759 4494 
z
" transform="scale(0.015625)"/>
      <path id="DejaVuSans-Bold-68" d="M 4056 2131 
L 4056 0 
L 2931 0 
L 2931 347 
L 2931 1625 
Q 2931 2084 2911 2256 
Q 2891 2428 2841 2509 
Q 2775 2619 2662 2680 
Q 2550 2741 2406 2741 
Q 2056 2741 1856 2470 
Q 1656 2200 1656 1722 
L 1656 0 
L 538 0 
L 538 4863 
L 1656 4863 
L 1656 2988 
Q 1909 3294 2193 3439 
Q 2478 3584 2822 3584 
Q 3428 3584 3742 3212 
Q 4056 2841 4056 2131 
z
" transform="scale(0.015625)"/>
      <path id="DejaVuSans-Bold-61" d="M 2106 1575 
Q 1756 1575 1579 1456 
Q 1403 1338 1403 1106 
Q 1403 894 1545 773 
Q 1688 653 1941 653 
Q 2256 653 2472 879 
Q 2688 1106 2688 1447 
L 2688 1575 
L 2106 1575 
z
M 3816 1997 
L 3816 0 
L 2688 0 
L 2688 519 
Q 2463 200 2181 54 
Q 1900 -91 1497 -91 
Q 953 -91 614 226 
Q 275 544 275 1050 
Q 275 1666 698 1953 
Q 1122 2241 2028 2241 
L 2688 2241 
L 2688 2328 
Q 2688 2594 2478 2717 
Q 2269 2841 1825 2841 
Q 1466 2841 1156 2769 
Q 847 2697 581 2553 
L 581 3406 
Q 941 3494 1303 3539 
Q 1666 3584 2028 3584 
Q 2975 3584 3395 3211 
Q 3816 2838 3816 1997 
z
" transform="scale(0.015625)"/>
      <path id="DejaVuSans-Bold-70" d="M 1656 506 
L 1656 -1331 
L 538 -1331 
L 538 3500 
L 1656 3500 
L 1656 2988 
Q 1888 3294 2169 3439 
Q 2450 3584 2816 3584 
Q 3463 3584 3878 3070 
Q 4294 2556 4294 1747 
Q 4294 938 3878 423 
Q 3463 -91 2816 -91 
Q 2450 -91 2169 54 
Q 1888 200 1656 506 
z
M 2400 2772 
Q 2041 2772 1848 2508 
Q 1656 2244 1656 1747 
Q 1656 1250 1848 986 
Q 2041 722 2400 722 
Q 2759 722 2948 984 
Q 3138 1247 3138 1747 
Q 3138 2247 2948 2509 
Q 2759 2772 2400 2772 
z
" transform="scale(0.015625)"/>
      <path id="DejaVuSans-Bold-75" d="M 500 1363 
L 500 3500 
L 1625 3500 
L 1625 3150 
Q 1625 2866 1622 2436 
Q 1619 2006 1619 1863 
Q 1619 1441 1641 1255 
Q 1663 1069 1716 984 
Q 1784 875 1895 815 
Q 2006 756 2150 756 
Q 2500 756 2700 1025 
Q 2900 1294 2900 1772 
L 2900 3500 
L 4019 3500 
L 4019 0 
L 2900 0 
L 2900 506 
Q 2647 200 2364 54 
Q 2081 -91 1741 -91 
Q 1134 -91 817 281 
Q 500 653 500 1363 
z
" transform="scale(0.015625)"/>
      <path id="DejaVuSans-Bold-6e" d="M 4056 2131 
L 4056 0 
L 2931 0 
L 2931 347 
L 2931 1631 
Q 2931 2084 2911 2256 
Q 2891 2428 2841 2509 
Q 2775 2619 2662 2680 
Q 2550 2741 2406 2741 
Q 2056 2741 1856 2470 
Q 1656 2200 1656 1722 
L 1656 0 
L 538 0 
L 538 3500 
L 1656 3500 
L 1656 2988 
Q 1909 3294 2193 3439 
Q 2478 3584 2822 3584 
Q 3428 3584 3742 3212 
Q 4056 2841 4056 2131 
z
" transform="scale(0.015625)"/>
     </defs>
     <use xlink:href="#DejaVuSans-Bold-43"/>
     <use xlink:href="#DejaVuSans-Bold-48" transform="translate(73.388672 0)"/>
     <use xlink:href="#DejaVuSans-Bold-41" transform="translate(157.080078 0)"/>
     <use xlink:href="#DejaVuSans-Bold-52" transform="translate(234.472656 0)"/>
     <use xlink:href="#DejaVuSans-Bold-4d" transform="translate(311.474609 0)"/>
     <use xlink:href="#DejaVuSans-Bold-31" transform="translate(410.986328 0)"/>
     <use xlink:href="#DejaVuSans-Bold-33" transform="translate(480.566406 0)"/>
     <use xlink:href="#DejaVuSans-Bold-20" transform="translate(550.146484 0)"/>
     <use xlink:href="#DejaVuSans-Bold-20" transform="translate(584.960938 0)"/>
     <use xlink:href="#DejaVuSans-Bold-b7" transform="translate(619.775391 0)"/>
     <use xlink:href="#DejaVuSans-Bold-20" transform="translate(657.763672 0)"/>
     <use xlink:href="#DejaVuSans-Bold-20" transform="translate(692.578125 0)"/>
     <use xlink:href="#DejaVuSans-Bold-63" transform="translate(727.392578 0)"/>
     <use xlink:href="#DejaVuSans-Bold-6c" transform="translate(786.669922 0)"/>
     <use xlink:href="#DejaVuSans-Bold-6f" transform="translate(820.947266 0)"/>
     <use xlink:href="#DejaVuSans-Bold-73" transform="translate(889.648438 0)"/>
     <use xlink:href="#DejaVuSans-Bold-65" transform="translate(949.169922 0)"/>
     <use xlink:href="#DejaVuSans-Bold-64" transform="translate(1016.992188 0)"/>
     <use xlink:href="#DejaVuSans-Bold-20" transform="translate(1088.574219 0)"/>
     <use xlink:href="#DejaVuSans-Bold-66" transform="translate(1123.388672 0)"/>
     <use xlink:href="#DejaVuSans-Bold-6f" transform="translate(1166.894531 0)"/>
     <use xlink:href="#DejaVuSans-Bold-72" transform="translate(1235.595703 0)"/>
     <use xlink:href="#DejaVuSans-Bold-6d" transform="translate(1284.912109 0)"/>
     <use xlink:href="#DejaVuSans-Bold-73" transform="translate(1389.111328 0)"/>
     <use xlink:href="#DejaVuSans-Bold-20" transform="translate(1448.632812 0)"/>
     <use xlink:href="#DejaVuSans-Bold-74" transform="translate(1483.447266 0)"/>
     <use xlink:href="#DejaVuSans-Bold-68" transform="translate(1531.25 0)"/>
     <use xlink:href="#DejaVuSans-Bold-61" transform="translate(1602.441406 0)"/>
     <use xlink:href="#DejaVuSans-Bold-74" transform="translate(1669.921875 0)"/>
     <use xlink:href="#DejaVuSans-Bold-20" transform="translate(1717.724609 0)"/>
     <use xlink:href="#DejaVuSans-Bold-70" transform="translate(1752.539062 0)"/>
     <use xlink:href="#DejaVuSans-Bold-75" transform="translate(1824.121094 0)"/>
     <use xlink:href="#DejaVuSans-Bold-6e" transform="translate(1895.3125 0)"/>
     <use xlink:href="#DejaVuSans-Bold-63" transform="translate(1966.503906 0)"/>
     <use xlink:href="#DejaVuSans-Bold-68" transform="translate(2025.78125 0)"/>
    </g>
   </g>
   <g id="text_2">
    <!-- finite-model ladder  ·  Purdue black &amp; old gold -->
    <g style="fill: #cfb991" transform="translate(252.885938 59.364) scale(0.09 -0.09)">
     <defs>
      <path id="DejaVuSans-66" d="M 2375 4863 
L 2375 4384 
L 1825 4384 
Q 1516 4384 1395 4259 
Q 1275 4134 1275 3809 
L 1275 3500 
L 2222 3500 
L 2222 3053 
L 1275 3053 
L 1275 0 
L 697 0 
L 697 3053 
L 147 3053 
L 147 3500 
L 697 3500 
L 697 3744 
Q 697 4328 969 4595 
Q 1241 4863 1831 4863 
L 2375 4863 
z
" transform="scale(0.015625)"/>
      <path id="DejaVuSans-69" d="M 603 3500 
L 1178 3500 
L 1178 0 
L 603 0 
L 603 3500 
z
M 603 4863 
L 1178 4863 
L 1178 4134 
L 603 4134 
L 603 4863 
z
" transform="scale(0.015625)"/>
      <path id="DejaVuSans-6e" d="M 3513 2113 
L 3513 0 
L 2938 0 
L 2938 2094 
Q 2938 2591 2744 2837 
Q 2550 3084 2163 3084 
Q 1697 3084 1428 2787 
Q 1159 2491 1159 1978 
L 1159 0 
L 581 0 
L 581 3500 
L 1159 3500 
L 1159 2956 
Q 1366 3272 1645 3428 
Q 1925 3584 2291 3584 
Q 2894 3584 3203 3211 
Q 3513 2838 3513 2113 
z
" transform="scale(0.015625)"/>
      <path id="DejaVuSans-74" d="M 1172 4494 
L 1172 3500 
L 2356 3500 
L 2356 3053 
L 1172 3053 
L 1172 1153 
Q 1172 725 1289 603 
Q 1406 481 1766 481 
L 2356 481 
L 2356 0 
L 1766 0 
Q 1100 0 847 248 
Q 594 497 594 1153 
L 594 3053 
L 172 3053 
L 172 3500 
L 594 3500 
L 594 4494 
L 1172 4494 
z
" transform="scale(0.015625)"/>
      <path id="DejaVuSans-65" d="M 3597 1894 
L 3597 1613 
L 953 1613 
Q 991 1019 1311 708 
Q 1631 397 2203 397 
Q 2534 397 2845 478 
Q 3156 559 3463 722 
L 3463 178 
Q 3153 47 2828 -22 
Q 2503 -91 2169 -91 
Q 1331 -91 842 396 
Q 353 884 353 1716 
Q 353 2575 817 3079 
Q 1281 3584 2069 3584 
Q 2775 3584 3186 3129 
Q 3597 2675 3597 1894 
z
M 3022 2063 
Q 3016 2534 2758 2815 
Q 2500 3097 2075 3097 
Q 1594 3097 1305 2825 
Q 1016 2553 972 2059 
L 3022 2063 
z
" transform="scale(0.015625)"/>
      <path id="DejaVuSans-2d" d="M 313 2009 
L 1997 2009 
L 1997 1497 
L 313 1497 
L 313 2009 
z
" transform="scale(0.015625)"/>
      <path id="DejaVuSans-6d" d="M 3328 2828 
Q 3544 3216 3844 3400 
Q 4144 3584 4550 3584 
Q 5097 3584 5394 3201 
Q 5691 2819 5691 2113 
L 5691 0 
L 5113 0 
L 5113 2094 
Q 5113 2597 4934 2840 
Q 4756 3084 4391 3084 
Q 3944 3084 3684 2787 
Q 3425 2491 3425 1978 
L 3425 0 
L 2847 0 
L 2847 2094 
Q 2847 2600 2669 2842 
Q 2491 3084 2119 3084 
Q 1678 3084 1418 2786 
Q 1159 2488 1159 1978 
L 1159 0 
L 581 0 
L 581 3500 
L 1159 3500 
L 1159 2956 
Q 1356 3278 1631 3431 
Q 1906 3584 2284 3584 
Q 2666 3584 2933 3390 
Q 3200 3197 3328 2828 
z
" transform="scale(0.015625)"/>
      <path id="DejaVuSans-6f" d="M 1959 3097 
Q 1497 3097 1228 2736 
Q 959 2375 959 1747 
Q 959 1119 1226 758 
Q 1494 397 1959 397 
Q 2419 397 2687 759 
Q 2956 1122 2956 1747 
Q 2956 2369 2687 2733 
Q 2419 3097 1959 3097 
z
M 1959 3584 
Q 2709 3584 3137 3096 
Q 3566 2609 3566 1747 
Q 3566 888 3137 398 
Q 2709 -91 1959 -91 
Q 1206 -91 779 398 
Q 353 888 353 1747 
Q 353 2609 779 3096 
Q 1206 3584 1959 3584 
z
" transform="scale(0.015625)"/>
      <path id="DejaVuSans-64" d="M 2906 2969 
L 2906 4863 
L 3481 4863 
L 3481 0 
L 2906 0 
L 2906 525 
Q 2725 213 2448 61 
Q 2172 -91 1784 -91 
Q 1150 -91 751 415 
Q 353 922 353 1747 
Q 353 2572 751 3078 
Q 1150 3584 1784 3584 
Q 2172 3584 2448 3432 
Q 2725 3281 2906 2969 
z
M 947 1747 
Q 947 1113 1208 752 
Q 1469 391 1925 391 
Q 2381 391 2643 752 
Q 2906 1113 2906 1747 
Q 2906 2381 2643 2742 
Q 2381 3103 1925 3103 
Q 1469 3103 1208 2742 
Q 947 2381 947 1747 
z
" transform="scale(0.015625)"/>
      <path id="DejaVuSans-6c" d="M 603 4863 
L 1178 4863 
L 1178 0 
L 603 0 
L 603 4863 
z
" transform="scale(0.015625)"/>
      <path id="DejaVuSans-20" transform="scale(0.015625)"/>
      <path id="DejaVuSans-61" d="M 2194 1759 
Q 1497 1759 1228 1600 
Q 959 1441 959 1056 
Q 959 750 1161 570 
Q 1363 391 1709 391 
Q 2188 391 2477 730 
Q 2766 1069 2766 1631 
L 2766 1759 
L 2194 1759 
z
M 3341 1997 
L 3341 0 
L 2766 0 
L 2766 531 
Q 2569 213 2275 61 
Q 1981 -91 1556 -91 
Q 1019 -91 701 211 
Q 384 513 384 1019 
Q 384 1609 779 1909 
Q 1175 2209 1959 2209 
L 2766 2209 
L 2766 2266 
Q 2766 2663 2505 2880 
Q 2244 3097 1772 3097 
Q 1472 3097 1187 3025 
Q 903 2953 641 2809 
L 641 3341 
Q 956 3463 1253 3523 
Q 1550 3584 1831 3584 
Q 2591 3584 2966 3190 
Q 3341 2797 3341 1997 
z
" transform="scale(0.015625)"/>
      <path id="DejaVuSans-72" d="M 2631 2963 
Q 2534 3019 2420 3045 
Q 2306 3072 2169 3072 
Q 1681 3072 1420 2755 
Q 1159 2438 1159 1844 
L 1159 0 
L 581 0 
L 581 3500 
L 1159 3500 
L 1159 2956 
Q 1341 3275 1631 3429 
Q 1922 3584 2338 3584 
Q 2397 3584 2469 3576 
Q 2541 3569 2628 3553 
L 2631 2963 
z
" transform="scale(0.015625)"/>
      <path id="DejaVuSans-b7" d="M 684 2619 
L 1344 2619 
L 1344 1825 
L 684 1825 
L 684 2619 
z
" transform="scale(0.015625)"/>
      <path id="DejaVuSans-50" d="M 1259 4147 
L 1259 2394 
L 2053 2394 
Q 2494 2394 2734 2622 
Q 2975 2850 2975 3272 
Q 2975 3691 2734 3919 
Q 2494 4147 2053 4147 
L 1259 4147 
z
M 628 4666 
L 2053 4666 
Q 2838 4666 3239 4311 
Q 3641 3956 3641 3272 
Q 3641 2581 3239 2228 
Q 2838 1875 2053 1875 
L 1259 1875 
L 1259 0 
L 628 0 
L 628 4666 
z
" transform="scale(0.015625)"/>
      <path id="DejaVuSans-75" d="M 544 1381 
L 544 3500 
L 1119 3500 
L 1119 1403 
Q 1119 906 1312 657 
Q 1506 409 1894 409 
Q 2359 409 2629 706 
Q 2900 1003 2900 1516 
L 2900 3500 
L 3475 3500 
L 3475 0 
L 2900 0 
L 2900 538 
Q 2691 219 2414 64 
Q 2138 -91 1772 -91 
Q 1169 -91 856 284 
Q 544 659 544 1381 
z
M 1991 3584 
L 1991 3584 
z
" transform="scale(0.015625)"/>
      <path id="DejaVuSans-62" d="M 3116 1747 
Q 3116 2381 2855 2742 
Q 2594 3103 2138 3103 
Q 1681 3103 1420 2742 
Q 1159 2381 1159 1747 
Q 1159 1113 1420 752 
Q 1681 391 2138 391 
Q 2594 391 2855 752 
Q 3116 1113 3116 1747 
z
M 1159 2969 
Q 1341 3281 1617 3432 
Q 1894 3584 2278 3584 
Q 2916 3584 3314 3078 
Q 3713 2572 3713 1747 
Q 3713 922 3314 415 
Q 2916 -91 2278 -91 
Q 1894 -91 1617 61 
Q 1341 213 1159 525 
L 1159 0 
L 581 0 
L 581 4863 
L 1159 4863 
L 1159 2969 
z
" transform="scale(0.015625)"/>
      <path id="DejaVuSans-63" d="M 3122 3366 
L 3122 2828 
Q 2878 2963 2633 3030 
Q 2388 3097 2138 3097 
Q 1578 3097 1268 2742 
Q 959 2388 959 1747 
Q 959 1106 1268 751 
Q 1578 397 2138 397 
Q 2388 397 2633 464 
Q 2878 531 3122 666 
L 3122 134 
Q 2881 22 2623 -34 
Q 2366 -91 2075 -91 
Q 1284 -91 818 406 
Q 353 903 353 1747 
Q 353 2603 823 3093 
Q 1294 3584 2113 3584 
Q 2378 3584 2631 3529 
Q 2884 3475 3122 3366 
z
" transform="scale(0.015625)"/>
      <path id="DejaVuSans-6b" d="M 581 4863 
L 1159 4863 
L 1159 1991 
L 2875 3500 
L 3609 3500 
L 1753 1863 
L 3688 0 
L 2938 0 
L 1159 1709 
L 1159 0 
L 581 0 
L 581 4863 
z
" transform="scale(0.015625)"/>
      <path id="DejaVuSans-26" d="M 1556 2509 
Q 1272 2256 1139 2004 
Q 1006 1753 1006 1478 
Q 1006 1022 1337 719 
Q 1669 416 2169 416 
Q 2466 416 2725 514 
Q 2984 613 3213 813 
L 1556 2509 
z
M 1997 2859 
L 3584 1234 
Q 3769 1513 3872 1830 
Q 3975 2147 3994 2503 
L 4575 2503 
Q 4538 2091 4375 1687 
Q 4213 1284 3922 891 
L 4794 0 
L 4006 0 
L 3559 459 
Q 3234 181 2878 45 
Q 2522 -91 2113 -91 
Q 1359 -91 881 339 
Q 403 769 403 1441 
Q 403 1841 612 2192 
Q 822 2544 1241 2853 
Q 1091 3050 1012 3245 
Q 934 3441 934 3628 
Q 934 4134 1281 4442 
Q 1628 4750 2203 4750 
Q 2463 4750 2720 4694 
Q 2978 4638 3244 4525 
L 3244 3956 
Q 2972 4103 2725 4179 
Q 2478 4256 2266 4256 
Q 1938 4256 1733 4082 
Q 1528 3909 1528 3634 
Q 1528 3475 1620 3314 
Q 1713 3153 1997 2859 
z
" transform="scale(0.015625)"/>
      <path id="DejaVuSans-67" d="M 2906 1791 
Q 2906 2416 2648 2759 
Q 2391 3103 1925 3103 
Q 1463 3103 1205 2759 
Q 947 2416 947 1791 
Q 947 1169 1205 825 
Q 1463 481 1925 481 
Q 2391 481 2648 825 
Q 2906 1169 2906 1791 
z
M 3481 434 
Q 3481 -459 3084 -895 
Q 2688 -1331 1869 -1331 
Q 1566 -1331 1297 -1286 
Q 1028 -1241 775 -1147 
L 775 -588 
Q 1028 -725 1275 -790 
Q 1522 -856 1778 -856 
Q 2344 -856 2625 -561 
Q 2906 -266 2906 331 
L 2906 616 
Q 2728 306 2450 153 
Q 2172 0 1784 0 
Q 1141 0 747 490 
Q 353 981 353 1791 
Q 353 2603 747 3093 
Q 1141 3584 1784 3584 
Q 2172 3584 2450 3431 
Q 2728 3278 2906 2969 
L 2906 3500 
L 3481 3500 
L 3481 434 
z
" transform="scale(0.015625)"/>
     </defs>
     <use xlink:href="#DejaVuSans-66"/>
     <use xlink:href="#DejaVuSans-69" transform="translate(35.205078 0)"/>
     <use xlink:href="#DejaVuSans-6e" transform="translate(62.988281 0)"/>
     <use xlink:href="#DejaVuSans-69" transform="translate(126.367188 0)"/>
     <use xlink:href="#DejaVuSans-74" transform="translate(154.150391 0)"/>
     <use xlink:href="#DejaVuSans-65" transform="translate(193.359375 0)"/>
     <use xlink:href="#DejaVuSans-2d" transform="translate(254.882812 0)"/>
     <use xlink:href="#DejaVuSans-6d" transform="translate(290.966797 0)"/>
     <use xlink:href="#DejaVuSans-6f" transform="translate(388.378906 0)"/>
     <use xlink:href="#DejaVuSans-64" transform="translate(449.560547 0)"/>
     <use xlink:href="#DejaVuSans-65" transform="translate(513.037109 0)"/>
     <use xlink:href="#DejaVuSans-6c" transform="translate(574.560547 0)"/>
     <use xlink:href="#DejaVuSans-20" transform="translate(602.34375 0)"/>
     <use xlink:href="#DejaVuSans-6c" transform="translate(634.130859 0)"/>
     <use xlink:href="#DejaVuSans-61" transform="translate(661.914062 0)"/>
     <use xlink:href="#DejaVuSans-64" transform="translate(723.193359 0)"/>
     <use xlink:href="#DejaVuSans-64" transform="translate(786.669922 0)"/>
     <use xlink:href="#DejaVuSans-65" transform="translate(850.146484 0)"/>
     <use xlink:href="#DejaVuSans-72" transform="translate(911.669922 0)"/>
     <use xlink:href="#DejaVuSans-20" transform="translate(952.783203 0)"/>
     <use xlink:href="#DejaVuSans-20" transform="translate(984.570312 0)"/>
     <use xlink:href="#DejaVuSans-b7" transform="translate(1016.357422 0)"/>
     <use xlink:href="#DejaVuSans-20" transform="translate(1048.144531 0)"/>
     <use xlink:href="#DejaVuSans-20" transform="translate(1079.931641 0)"/>
     <use xlink:href="#DejaVuSans-50" transform="translate(1111.71875 0)"/>
     <use xlink:href="#DejaVuSans-75" transform="translate(1170.271484 0)"/>
     <use xlink:href="#DejaVuSans-72" transform="translate(1233.650391 0)"/>
     <use xlink:href="#DejaVuSans-64" transform="translate(1273.013672 0)"/>
     <use xlink:href="#DejaVuSans-75" transform="translate(1336.490234 0)"/>
     <use xlink:href="#DejaVuSans-65" transform="translate(1399.869141 0)"/>
     <use xlink:href="#DejaVuSans-20" transform="translate(1461.392578 0)"/>
     <use xlink:href="#DejaVuSans-62" transform="translate(1493.179688 0)"/>
     <use xlink:href="#DejaVuSans-6c" transform="translate(1556.65625 0)"/>
     <use xlink:href="#DejaVuSans-61" transform="translate(1584.439453 0)"/>
     <use xlink:href="#DejaVuSans-63" transform="translate(1645.71875 0)"/>
     <use xlink:href="#DejaVuSans-6b" transform="translate(1700.699219 0)"/>
     <use xlink:href="#DejaVuSans-20" transform="translate(1758.609375 0)"/>
     <use xlink:href="#DejaVuSans-26" transform="translate(1790.396484 0)"/>
     <use xlink:href="#DejaVuSans-20" transform="translate(1868.375 0)"/>
     <use xlink:href="#DejaVuSans-6f" transform="translate(1900.162109 0)"/>
     <use xlink:href="#DejaVuSans-6c" transform="translate(1961.34375 0)"/>
     <use xlink:href="#DejaVuSans-64" transform="translate(1989.126953 0)"/>
     <use xlink:href="#DejaVuSans-20" transform="translate(2052.603516 0)"/>
     <use xlink:href="#DejaVuSans-67" transform="translate(2084.390625 0)"/>
     <use xlink:href="#DejaVuSans-6f" transform="translate(2147.867188 0)"/>
     <use xlink:href="#DejaVuSans-6c" transform="translate(2209.048828 0)"/>
     <use xlink:href="#DejaVuSans-64" transform="translate(2236.832031 0)"/>
    </g>
   </g>
   <g id="text_3">
    <!-- G_2(K) = 1 - 1/K -->
    <g transform="translate(288.9725 136.368) scale(0.14 -0.14)">
     <defs>
      <path id="DejaVuSansMono-Bold-47" d="M 2725 844 
L 2725 1734 
L 2094 1734 
L 2094 2509 
L 3531 2509 
L 3531 372 
Q 3266 144 2945 26 
Q 2625 -91 2259 -91 
Q 1353 -91 859 539 
Q 366 1169 366 2328 
Q 366 3506 864 4128 
Q 1363 4750 2303 4750 
Q 2584 4750 2856 4670 
Q 3128 4591 3366 4441 
L 3366 3419 
Q 3172 3669 2920 3795 
Q 2669 3922 2369 3922 
Q 1844 3922 1584 3526 
Q 1325 3131 1325 2328 
Q 1325 1550 1575 1144 
Q 1825 738 2303 738 
Q 2447 738 2553 764 
Q 2659 791 2725 844 
z
" transform="scale(0.015625)"/>
      <path id="DejaVuSansMono-Bold-5f" d="M 3853 -916 
L 3853 -1509 
L 0 -1509 
L 0 -916 
L 3853 -916 
z
" transform="scale(0.015625)"/>
      <path id="DejaVuSansMono-Bold-32" d="M 1356 813 
L 3322 813 
L 3322 0 
L 359 0 
L 359 788 
L 859 1319 
Q 1750 2266 1941 2484 
Q 2175 2753 2278 2961 
Q 2381 3169 2381 3372 
Q 2381 3684 2192 3854 
Q 2003 4025 1656 4025 
Q 1409 4025 1101 3926 
Q 794 3828 459 3641 
L 459 4500 
Q 794 4622 1114 4686 
Q 1434 4750 1728 4750 
Q 2469 4750 2892 4404 
Q 3316 4059 3316 3463 
Q 3316 3188 3223 2947 
Q 3131 2706 2906 2413 
Q 2741 2200 1997 1456 
Q 1594 1053 1356 813 
z
" transform="scale(0.015625)"/>
      <path id="DejaVuSansMono-Bold-28" d="M 2888 4856 
Q 2475 4109 2275 3409 
Q 2075 2709 2075 2009 
Q 2075 1316 2275 611 
Q 2475 -94 2888 -844 
L 2175 -844 
Q 1678 -122 1437 579 
Q 1197 1281 1197 2009 
Q 1197 2734 1439 3439 
Q 1681 4144 2175 4856 
L 2888 4856 
z
" transform="scale(0.015625)"/>
      <path id="DejaVuSansMono-Bold-4b" d="M 366 4666 
L 1288 4666 
L 1288 2822 
L 2731 4666 
L 3775 4666 
L 2303 2828 
L 3828 0 
L 2803 0 
L 1697 2100 
L 1288 1581 
L 1288 0 
L 366 0 
L 366 4666 
z
" transform="scale(0.015625)"/>
      <path id="DejaVuSansMono-Bold-29" d="M 966 4856 
L 1678 4856 
Q 2172 4144 2414 3439 
Q 2656 2734 2656 2009 
Q 2656 1281 2415 579 
Q 2175 -122 1678 -844 
L 966 -844 
Q 1378 -94 1578 611 
Q 1778 1316 1778 2009 
Q 1778 2709 1578 3409 
Q 1378 4109 966 4856 
z
" transform="scale(0.015625)"/>
      <path id="DejaVuSansMono-Bold-20" transform="scale(0.015625)"/>
      <path id="DejaVuSansMono-Bold-3d" d="M 275 1663 
L 3578 1663 
L 3578 922 
L 275 922 
L 275 1663 
z
M 275 3084 
L 3578 3084 
L 3578 2350 
L 275 2350 
L 275 3084 
z
" transform="scale(0.015625)"/>
      <path id="DejaVuSansMono-Bold-31" d="M 588 813 
L 1619 813 
L 1619 3841 
L 659 3603 
L 659 4434 
L 1625 4666 
L 2516 4666 
L 2516 813 
L 3547 813 
L 3547 0 
L 588 0 
L 588 813 
z
" transform="scale(0.015625)"/>
      <path id="DejaVuSansMono-Bold-2d" d="M 941 2297 
L 2913 2297 
L 2913 1388 
L 941 1388 
L 941 2297 
z
" transform="scale(0.015625)"/>
      <path id="DejaVuSansMono-Bold-2f" d="M 2809 4666 
L 3500 4666 
L 1044 -594 
L 353 -594 
L 2809 4666 
z
" transform="scale(0.015625)"/>
     </defs>
     <use xlink:href="#DejaVuSansMono-Bold-47"/>
     <use xlink:href="#DejaVuSansMono-Bold-5f" transform="translate(60.205078 0)"/>
     <use xlink:href="#DejaVuSansMono-Bold-32" transform="translate(120.410156 0)"/>
     <use xlink:href="#DejaVuSansMono-Bold-28" transform="translate(180.615234 0)"/>
     <use xlink:href="#DejaVuSansMono-Bold-4b" transform="translate(240.820312 0)"/>
     <use xlink:href="#DejaVuSansMono-Bold-29" transform="translate(301.025391 0)"/>
     <use xlink:href="#DejaVuSansMono-Bold-20" transform="translate(361.230469 0)"/>
     <use xlink:href="#DejaVuSansMono-Bold-3d" transform="translate(421.435547 0)"/>
     <use xlink:href="#DejaVuSansMono-Bold-20" transform="translate(481.640625 0)"/>
     <use xlink:href="#DejaVuSansMono-Bold-31" transform="translate(541.845703 0)"/>
     <use xlink:href="#DejaVuSansMono-Bold-20" transform="translate(602.050781 0)"/>
     <use xlink:href="#DejaVuSansMono-Bold-2d" transform="translate(662.255859 0)"/>
     <use xlink:href="#DejaVuSansMono-Bold-20" transform="translate(722.460938 0)"/>
     <use xlink:href="#DejaVuSansMono-Bold-31" transform="translate(782.666016 0)"/>
     <use xlink:href="#DejaVuSansMono-Bold-2f" transform="translate(842.871094 0)"/>
     <use xlink:href="#DejaVuSansMono-Bold-4b" transform="translate(903.076172 0)"/>
    </g>
   </g>
   <g id="text_4">
    <!-- sharp budget-2 adaptivity gap (arity &lt;= K) -->
    <g style="fill: #8e6f3e" transform="translate(259.371563 158.724) scale(0.09 -0.09)">
     <defs>
      <path id="DejaVuSans-Oblique-73" d="M 3200 3397 
L 3091 2853 
Q 2863 2978 2609 3040 
Q 2356 3103 2088 3103 
Q 1634 3103 1373 2948 
Q 1113 2794 1113 2528 
Q 1113 2219 1719 2053 
Q 1766 2041 1788 2034 
L 1972 1978 
Q 2547 1819 2739 1644 
Q 2931 1469 2931 1166 
Q 2931 609 2489 259 
Q 2047 -91 1331 -91 
Q 1053 -91 747 -37 
Q 441 16 72 128 
L 184 722 
Q 500 559 806 475 
Q 1113 391 1394 391 
Q 1816 391 2080 572 
Q 2344 753 2344 1031 
Q 2344 1331 1650 1516 
L 1591 1531 
L 1394 1581 
Q 956 1697 753 1886 
Q 550 2075 550 2369 
Q 550 2928 970 3256 
Q 1391 3584 2113 3584 
Q 2397 3584 2667 3537 
Q 2938 3491 3200 3397 
z
" transform="scale(0.015625)"/>
      <path id="DejaVuSans-Oblique-68" d="M 3566 2113 
L 3156 0 
L 2578 0 
L 2988 2091 
Q 3016 2238 3031 2350 
Q 3047 2463 3047 2528 
Q 3047 2791 2881 2937 
Q 2716 3084 2419 3084 
Q 1956 3084 1617 2771 
Q 1278 2459 1178 1941 
L 800 0 
L 225 0 
L 1172 4863 
L 1747 4863 
L 1375 2950 
Q 1594 3244 1934 3414 
Q 2275 3584 2650 3584 
Q 3113 3584 3367 3334 
Q 3622 3084 3622 2631 
Q 3622 2519 3608 2391 
Q 3594 2263 3566 2113 
z
" transform="scale(0.015625)"/>
      <path id="DejaVuSans-Oblique-61" d="M 3438 1997 
L 3047 0 
L 2472 0 
L 2578 531 
Q 2325 219 2001 64 
Q 1678 -91 1281 -91 
Q 834 -91 548 182 
Q 263 456 263 884 
Q 263 1497 752 1853 
Q 1241 2209 2100 2209 
L 2900 2209 
L 2931 2363 
Q 2938 2388 2941 2417 
Q 2944 2447 2944 2509 
Q 2944 2788 2717 2942 
Q 2491 3097 2081 3097 
Q 1800 3097 1504 3025 
Q 1209 2953 897 2809 
L 997 3341 
Q 1322 3463 1633 3523 
Q 1944 3584 2234 3584 
Q 2853 3584 3176 3315 
Q 3500 3047 3500 2534 
Q 3500 2431 3484 2292 
Q 3469 2153 3438 1997 
z
M 2816 1759 
L 2241 1759 
Q 1534 1759 1195 1570 
Q 856 1381 856 984 
Q 856 709 1029 553 
Q 1203 397 1509 397 
Q 1978 397 2328 733 
Q 2678 1069 2791 1631 
L 2816 1759 
z
" transform="scale(0.015625)"/>
      <path id="DejaVuSans-Oblique-72" d="M 2853 2969 
Q 2766 3016 2653 3041 
Q 2541 3066 2413 3066 
Q 1953 3066 1609 2717 
Q 1266 2369 1153 1784 
L 800 0 
L 225 0 
L 909 3500 
L 1484 3500 
L 1375 2956 
Q 1603 3259 1920 3421 
Q 2238 3584 2597 3584 
Q 2691 3584 2781 3573 
Q 2872 3563 2963 3538 
L 2853 2969 
z
" transform="scale(0.015625)"/>
      <path id="DejaVuSans-Oblique-70" d="M 3175 2156 
Q 3175 2616 2975 2859 
Q 2775 3103 2400 3103 
Q 2144 3103 1911 2972 
Q 1678 2841 1497 2591 
Q 1319 2344 1212 1994 
Q 1106 1644 1106 1300 
Q 1106 863 1306 627 
Q 1506 391 1875 391 
Q 2147 391 2380 519 
Q 2613 647 2778 891 
Q 2956 1147 3065 1494 
Q 3175 1841 3175 2156 
z
M 1394 2969 
Q 1625 3272 1939 3428 
Q 2253 3584 2638 3584 
Q 3175 3584 3472 3232 
Q 3769 2881 3769 2247 
Q 3769 1728 3584 1258 
Q 3400 788 3053 416 
Q 2822 169 2531 39 
Q 2241 -91 1919 -91 
Q 1547 -91 1294 64 
Q 1041 219 916 525 
L 556 -1331 
L -19 -1331 
L 922 3500 
L 1497 3500 
L 1394 2969 
z
" transform="scale(0.015625)"/>
      <path id="DejaVuSans-Oblique-20" transform="scale(0.015625)"/>
      <path id="DejaVuSans-Oblique-62" d="M 3169 2138 
Q 3169 2591 2961 2847 
Q 2753 3103 2388 3103 
Q 2122 3103 1889 2973 
Q 1656 2844 1484 2597 
Q 1303 2338 1198 1995 
Q 1094 1653 1094 1313 
Q 1094 881 1298 636 
Q 1503 391 1863 391 
Q 2134 391 2365 517 
Q 2597 644 2772 891 
Q 2950 1147 3059 1487 
Q 3169 1828 3169 2138 
z
M 1381 2969 
Q 1594 3256 1914 3420 
Q 2234 3584 2584 3584 
Q 3122 3584 3439 3221 
Q 3756 2859 3756 2241 
Q 3756 1734 3570 1259 
Q 3384 784 3041 416 
Q 2816 172 2522 40 
Q 2228 -91 1906 -91 
Q 1566 -91 1316 65 
Q 1066 222 909 531 
L 806 0 
L 231 0 
L 1178 4863 
L 1753 4863 
L 1381 2969 
z
" transform="scale(0.015625)"/>
      <path id="DejaVuSans-Oblique-75" d="M 428 1388 
L 838 3500 
L 1416 3500 
L 1006 1409 
Q 975 1256 961 1147 
Q 947 1038 947 966 
Q 947 700 1109 554 
Q 1272 409 1569 409 
Q 2031 409 2368 721 
Q 2706 1034 2809 1563 
L 3194 3500 
L 3769 3500 
L 3091 0 
L 2516 0 
L 2631 550 
Q 2388 244 2052 76 
Q 1716 -91 1338 -91 
Q 878 -91 622 161 
Q 366 413 366 863 
Q 366 956 381 1097 
Q 397 1238 428 1388 
z
" transform="scale(0.015625)"/>
      <path id="DejaVuSans-Oblique-64" d="M 2675 525 
Q 2444 222 2128 65 
Q 1813 -91 1428 -91 
Q 903 -91 598 267 
Q 294 625 294 1247 
Q 294 1766 478 2236 
Q 663 2706 1013 3078 
Q 1244 3325 1534 3454 
Q 1825 3584 2144 3584 
Q 2481 3584 2739 3421 
Q 2997 3259 3138 2956 
L 3513 4863 
L 4091 4863 
L 3144 0 
L 2566 0 
L 2675 525 
z
M 891 1350 
Q 891 897 1095 644 
Q 1300 391 1663 391 
Q 1931 391 2161 520 
Q 2391 650 2566 903 
Q 2750 1166 2856 1509 
Q 2963 1853 2963 2188 
Q 2963 2622 2758 2865 
Q 2553 3109 2194 3109 
Q 1922 3109 1687 2981 
Q 1453 2853 1288 2613 
Q 1106 2353 998 2009 
Q 891 1666 891 1350 
z
" transform="scale(0.015625)"/>
      <path id="DejaVuSans-Oblique-67" d="M 3816 3500 
L 3219 434 
Q 3047 -456 2561 -893 
Q 2075 -1331 1253 -1331 
Q 950 -1331 690 -1286 
Q 431 -1241 206 -1147 
L 313 -588 
Q 525 -725 762 -790 
Q 1000 -856 1269 -856 
Q 1816 -856 2167 -557 
Q 2519 -259 2631 300 
L 2681 563 
Q 2441 288 2122 144 
Q 1803 0 1434 0 
Q 903 0 598 351 
Q 294 703 294 1319 
Q 294 1803 478 2267 
Q 663 2731 997 3091 
Q 1219 3328 1514 3456 
Q 1809 3584 2131 3584 
Q 2484 3584 2746 3420 
Q 3009 3256 3138 2956 
L 3238 3500 
L 3816 3500 
z
M 2950 2216 
Q 2950 2641 2750 2872 
Q 2550 3103 2181 3103 
Q 1953 3103 1747 3012 
Q 1541 2922 1394 2759 
Q 1156 2491 1023 2127 
Q 891 1763 891 1375 
Q 891 944 1092 712 
Q 1294 481 1672 481 
Q 2219 481 2584 976 
Q 2950 1472 2950 2216 
z
" transform="scale(0.015625)"/>
      <path id="DejaVuSans-Oblique-65" d="M 3078 2063 
Q 3088 2113 3092 2166 
Q 3097 2219 3097 2272 
Q 3097 2653 2873 2875 
Q 2650 3097 2266 3097 
Q 1838 3097 1509 2826 
Q 1181 2556 1013 2059 
L 3078 2063 
z
M 3578 1613 
L 903 1613 
Q 884 1494 878 1425 
Q 872 1356 872 1306 
Q 872 872 1139 634 
Q 1406 397 1894 397 
Q 2269 397 2603 481 
Q 2938 566 3225 728 
L 3116 159 
Q 2806 34 2476 -28 
Q 2147 -91 1806 -91 
Q 1078 -91 686 257 
Q 294 606 294 1247 
Q 294 1794 489 2264 
Q 684 2734 1063 3103 
Q 1306 3334 1642 3459 
Q 1978 3584 2356 3584 
Q 2950 3584 3301 3228 
Q 3653 2872 3653 2272 
Q 3653 2128 3634 1964 
Q 3616 1800 3578 1613 
z
" transform="scale(0.015625)"/>
      <path id="DejaVuSans-Oblique-74" d="M 2706 3500 
L 2619 3053 
L 1472 3053 
L 1100 1153 
Q 1081 1047 1072 975 
Q 1063 903 1063 863 
Q 1063 663 1183 572 
Q 1303 481 1569 481 
L 2150 481 
L 2053 0 
L 1503 0 
Q 991 0 739 200 
Q 488 400 488 806 
Q 488 878 497 964 
Q 506 1050 525 1153 
L 897 3053 
L 409 3053 
L 500 3500 
L 978 3500 
L 1172 4494 
L 1747 4494 
L 1556 3500 
L 2706 3500 
z
" transform="scale(0.015625)"/>
      <path id="DejaVuSans-Oblique-2d" d="M 391 2009 
L 2075 2009 
L 1978 1497 
L 288 1497 
L 391 2009 
z
" transform="scale(0.015625)"/>
      <path id="DejaVuSans-Oblique-32" d="M 2950 2253 
L 934 525 
L 3163 525 
L 3053 0 
L 25 0 
L 128 531 
L 2234 2338 
Q 2656 2703 2832 2979 
Q 3009 3256 3009 3547 
Q 3009 3850 2796 4040 
Q 2584 4231 2241 4231 
Q 1944 4231 1581 4125 
Q 1219 4019 806 3816 
L 922 4441 
Q 1309 4594 1662 4672 
Q 2016 4750 2316 4750 
Q 2928 4750 3301 4425 
Q 3675 4100 3675 3572 
Q 3675 3216 3497 2892 
Q 3319 2569 2950 2253 
z
" transform="scale(0.015625)"/>
      <path id="DejaVuSans-Oblique-69" d="M 1172 4863 
L 1747 4863 
L 1606 4134 
L 1031 4134 
L 1172 4863 
z
M 909 3500 
L 1484 3500 
L 800 0 
L 225 0 
L 909 3500 
z
" transform="scale(0.015625)"/>
      <path id="DejaVuSans-Oblique-76" d="M 459 3500 
L 1069 3500 
L 1581 525 
L 3256 3500 
L 3866 3500 
L 1875 0 
L 1100 0 
L 459 3500 
z
" transform="scale(0.015625)"/>
      <path id="DejaVuSans-Oblique-79" d="M 1588 -325 
Q 1188 -997 936 -1164 
Q 684 -1331 294 -1331 
L -159 -1331 
L -63 -850 
L 269 -850 
Q 509 -850 678 -719 
Q 847 -588 1056 -206 
L 1234 128 
L 459 3500 
L 1069 3500 
L 1650 819 
L 3256 3500 
L 3859 3500 
L 1588 -325 
z
" transform="scale(0.015625)"/>
      <path id="DejaVuSans-Oblique-28" d="M 2731 4856 
Q 1903 3822 1495 2892 
Q 1088 1963 1088 1100 
Q 1088 606 1206 120 
Q 1325 -366 1563 -844 
L 1063 -844 
Q 775 -306 634 201 
Q 494 709 494 1197 
Q 494 2125 923 3036 
Q 1353 3947 2222 4856 
L 2731 4856 
z
" transform="scale(0.015625)"/>
      <path id="DejaVuSans-Oblique-3c" d="M 4684 3150 
L 1459 2003 
L 4684 863 
L 4684 294 
L 678 1747 
L 678 2266 
L 4684 3719 
L 4684 3150 
z
" transform="scale(0.015625)"/>
      <path id="DejaVuSans-Oblique-3d" d="M 678 2906 
L 4684 2906 
L 4684 2381 
L 678 2381 
L 678 2906 
z
M 678 1631 
L 4684 1631 
L 4684 1100 
L 678 1100 
L 678 1631 
z
" transform="scale(0.015625)"/>
      <path id="DejaVuSans-Oblique-4b" d="M 1081 4666 
L 1716 4666 
L 1331 2700 
L 3781 4666 
L 4622 4666 
L 1850 2438 
L 3878 0 
L 3109 0 
L 1247 2272 
L 806 0 
L 172 0 
L 1081 4666 
z
" transform="scale(0.015625)"/>
      <path id="DejaVuSans-Oblique-29" d="M -397 -844 
Q 434 191 840 1120 
Q 1247 2050 1247 2913 
Q 1247 3406 1130 3892 
Q 1013 4378 775 4856 
L 1275 4856 
Q 1563 4316 1703 3812 
Q 1844 3309 1844 2822 
Q 1844 1891 1411 973 
Q 978 56 116 -844 
L -397 -844 
z
" transform="scale(0.015625)"/>
     </defs>
     <use xlink:href="#DejaVuSans-Oblique-73"/>
     <use xlink:href="#DejaVuSans-Oblique-68" transform="translate(52.099609 0)"/>
     <use xlink:href="#DejaVuSans-Oblique-61" transform="translate(115.478516 0)"/>
     <use xlink:href="#DejaVuSans-Oblique-72" transform="translate(176.757812 0)"/>
     <use xlink:href="#DejaVuSans-Oblique-70" transform="translate(217.871094 0)"/>
     <use xlink:href="#DejaVuSans-Oblique-20" transform="translate(281.347656 0)"/>
     <use xlink:href="#DejaVuSans-Oblique-62" transform="translate(313.134766 0)"/>
     <use xlink:href="#DejaVuSans-Oblique-75" transform="translate(376.611328 0)"/>
     <use xlink:href="#DejaVuSans-Oblique-64" transform="translate(439.990234 0)"/>
     <use xlink:href="#DejaVuSans-Oblique-67" transform="translate(503.466797 0)"/>
     <use xlink:href="#DejaVuSans-Oblique-65" transform="translate(566.943359 0)"/>
     <use xlink:href="#DejaVuSans-Oblique-74" transform="translate(628.466797 0)"/>
     <use xlink:href="#DejaVuSans-Oblique-2d" transform="translate(667.675781 0)"/>
     <use xlink:href="#DejaVuSans-Oblique-32" transform="translate(703.759766 0)"/>
     <use xlink:href="#DejaVuSans-Oblique-20" transform="translate(767.382812 0)"/>
     <use xlink:href="#DejaVuSans-Oblique-61" transform="translate(799.169922 0)"/>
     <use xlink:href="#DejaVuSans-Oblique-64" transform="translate(860.449219 0)"/>
     <use xlink:href="#DejaVuSans-Oblique-61" transform="translate(923.925781 0)"/>
     <use xlink:href="#DejaVuSans-Oblique-70" transform="translate(985.205078 0)"/>
     <use xlink:href="#DejaVuSans-Oblique-74" transform="translate(1048.681641 0)"/>
     <use xlink:href="#DejaVuSans-Oblique-69" transform="translate(1087.890625 0)"/>
     <use xlink:href="#DejaVuSans-Oblique-76" transform="translate(1115.673828 0)"/>
     <use xlink:href="#DejaVuSans-Oblique-69" transform="translate(1174.853516 0)"/>
     <use xlink:href="#DejaVuSans-Oblique-74" transform="translate(1202.636719 0)"/>
     <use xlink:href="#DejaVuSans-Oblique-79" transform="translate(1241.845703 0)"/>
     <use xlink:href="#DejaVuSans-Oblique-20" transform="translate(1301.025391 0)"/>
     <use xlink:href="#DejaVuSans-Oblique-67" transform="translate(1332.8125 0)"/>
     <use xlink:href="#DejaVuSans-Oblique-61" transform="translate(1396.289062 0)"/>
     <use xlink:href="#DejaVuSans-Oblique-70" transform="translate(1457.568359 0)"/>
     <use xlink:href="#DejaVuSans-Oblique-20" transform="translate(1521.044922 0)"/>
     <use xlink:href="#DejaVuSans-Oblique-28" transform="translate(1552.832031 0)"/>
     <use xlink:href="#DejaVuSans-Oblique-61" transform="translate(1591.845703 0)"/>
     <use xlink:href="#DejaVuSans-Oblique-72" transform="translate(1653.125 0)"/>
     <use xlink:href="#DejaVuSans-Oblique-69" transform="translate(1694.238281 0)"/>
     <use xlink:href="#DejaVuSans-Oblique-74" transform="translate(1722.021484 0)"/>
     <use xlink:href="#DejaVuSans-Oblique-79" transform="translate(1761.230469 0)"/>
     <use xlink:href="#DejaVuSans-Oblique-20" transform="translate(1820.410156 0)"/>
     <use xlink:href="#DejaVuSans-Oblique-3c" transform="translate(1852.197266 0)"/>
     <use xlink:href="#DejaVuSans-Oblique-3d" transform="translate(1935.986328 0)"/>
     <use xlink:href="#DejaVuSans-Oblique-20" transform="translate(2019.775391 0)"/>
     <use xlink:href="#DejaVuSans-Oblique-4b" transform="translate(2051.5625 0)"/>
     <use xlink:href="#DejaVuSans-Oblique-29" transform="translate(2117.138672 0)"/>
    </g>
   </g>
   <g id="text_5">
    <!-- D_ad=1, D_na=1/K -->
    <g transform="translate(288.9725 215.856) scale(0.14 -0.14)">
     <defs>
      <path id="DejaVuSansMono-Bold-44" d="M 1350 3834 
L 1350 831 
L 1600 831 
Q 2144 831 2375 1173 
Q 2606 1516 2606 2338 
Q 2606 3153 2375 3493 
Q 2144 3834 1600 3834 
L 1350 3834 
z
M 428 4666 
L 1416 4666 
Q 2559 4666 3062 4120 
Q 3566 3575 3566 2338 
Q 3566 1097 3062 548 
Q 2559 0 1416 0 
L 428 0 
L 428 4666 
z
" transform="scale(0.015625)"/>
      <path id="DejaVuSansMono-Bold-61" d="M 2188 1644 
Q 1675 1644 1472 1512 
Q 1269 1381 1269 1063 
Q 1269 825 1409 684 
Q 1550 544 1791 544 
Q 2153 544 2353 817 
Q 2553 1091 2553 1581 
L 2553 1644 
L 2188 1644 
z
M 3463 1997 
L 3463 0 
L 2553 0 
L 2553 391 
Q 2388 159 2128 34 
Q 1869 -91 1556 -91 
Q 959 -91 626 225 
Q 294 541 294 1106 
Q 294 1719 691 2011 
Q 1088 2303 1919 2303 
L 2553 2303 
L 2553 2456 
Q 2553 2678 2392 2792 
Q 2231 2906 1919 2906 
Q 1591 2906 1283 2823 
Q 975 2741 641 2559 
L 641 3341 
Q 944 3466 1256 3525 
Q 1569 3584 1919 3584 
Q 2772 3584 3117 3237 
Q 3463 2891 3463 1997 
z
" transform="scale(0.015625)"/>
      <path id="DejaVuSansMono-Bold-64" d="M 2472 3003 
L 2472 4863 
L 3384 4863 
L 3384 0 
L 2472 0 
L 2472 519 
Q 2325 216 2092 62 
Q 1859 -91 1544 -91 
Q 944 -91 612 390 
Q 281 872 281 1747 
Q 281 2634 617 3109 
Q 953 3584 1575 3584 
Q 1856 3584 2079 3439 
Q 2303 3294 2472 3003 
z
M 1197 1741 
Q 1197 1234 1365 946 
Q 1534 659 1831 659 
Q 2128 659 2300 946 
Q 2472 1234 2472 1741 
Q 2472 2247 2300 2534 
Q 2128 2822 1831 2822 
Q 1534 2822 1365 2534 
Q 1197 2247 1197 1741 
z
" transform="scale(0.015625)"/>
      <path id="DejaVuSansMono-Bold-2c" d="M 1441 1147 
L 2419 1147 
L 2419 300 
L 1806 -897 
L 1131 -897 
L 1441 300 
L 1441 1147 
z
" transform="scale(0.015625)"/>
      <path id="DejaVuSansMono-Bold-6e" d="M 3347 2272 
L 3347 0 
L 2438 0 
L 2438 2131 
Q 2438 2513 2330 2677 
Q 2222 2841 1978 2841 
Q 1731 2841 1589 2619 
Q 1447 2397 1447 2003 
L 1447 0 
L 538 0 
L 538 3500 
L 1447 3500 
L 1447 2975 
Q 1544 3266 1778 3425 
Q 2013 3584 2344 3584 
Q 2841 3584 3094 3254 
Q 3347 2925 3347 2272 
z
" transform="scale(0.015625)"/>
     </defs>
     <use xlink:href="#DejaVuSansMono-Bold-44"/>
     <use xlink:href="#DejaVuSansMono-Bold-5f" transform="translate(60.205078 0)"/>
     <use xlink:href="#DejaVuSansMono-Bold-61" transform="translate(120.410156 0)"/>
     <use xlink:href="#DejaVuSansMono-Bold-64" transform="translate(180.615234 0)"/>
     <use xlink:href="#DejaVuSansMono-Bold-3d" transform="translate(240.820312 0)"/>
     <use xlink:href="#DejaVuSansMono-Bold-31" transform="translate(301.025391 0)"/>
     <use xlink:href="#DejaVuSansMono-Bold-2c" transform="translate(361.230469 0)"/>
     <use xlink:href="#DejaVuSansMono-Bold-20" transform="translate(421.435547 0)"/>
     <use xlink:href="#DejaVuSansMono-Bold-44" transform="translate(481.640625 0)"/>
     <use xlink:href="#DejaVuSansMono-Bold-5f" transform="translate(541.845703 0)"/>
     <use xlink:href="#DejaVuSansMono-Bold-6e" transform="translate(602.050781 0)"/>
     <use xlink:href="#DejaVuSansMono-Bold-61" transform="translate(662.255859 0)"/>
     <use xlink:href="#DejaVuSansMono-Bold-3d" transform="translate(722.460938 0)"/>
     <use xlink:href="#DejaVuSansMono-Bold-31" transform="translate(782.666016 0)"/>
     <use xlink:href="#DejaVuSansMono-Bold-2f" transform="translate(842.871094 0)"/>
     <use xlink:href="#DejaVuSansMono-Bold-4b" transform="translate(903.076172 0)"/>
    </g>
   </g>
   <g id="text_6">
    <!-- matching address-function construction -->
    <g style="fill: #8e6f3e" transform="translate(266.582109 238.212) scale(0.09 -0.09)">
     <defs>
      <path id="DejaVuSans-Oblique-6d" d="M 5747 2113 
L 5338 0 
L 4763 0 
L 5166 2094 
Q 5191 2228 5203 2325 
Q 5216 2422 5216 2491 
Q 5216 2772 5059 2928 
Q 4903 3084 4622 3084 
Q 4203 3084 3875 2770 
Q 3547 2456 3450 1953 
L 3066 0 
L 2491 0 
L 2900 2094 
Q 2925 2209 2937 2307 
Q 2950 2406 2950 2484 
Q 2950 2769 2794 2926 
Q 2638 3084 2363 3084 
Q 1938 3084 1609 2770 
Q 1281 2456 1184 1953 
L 800 0 
L 225 0 
L 909 3500 
L 1484 3500 
L 1375 2956 
Q 1609 3263 1923 3423 
Q 2238 3584 2597 3584 
Q 2978 3584 3223 3384 
Q 3469 3184 3519 2828 
Q 3781 3197 4126 3390 
Q 4472 3584 4856 3584 
Q 5306 3584 5551 3325 
Q 5797 3066 5797 2591 
Q 5797 2488 5784 2364 
Q 5772 2241 5747 2113 
z
" transform="scale(0.015625)"/>
      <path id="DejaVuSans-Oblique-63" d="M 3431 3366 
L 3316 2797 
Q 3109 2947 2876 3022 
Q 2644 3097 2394 3097 
Q 2119 3097 1870 3000 
Q 1622 2903 1453 2725 
Q 1184 2453 1037 2087 
Q 891 1722 891 1331 
Q 891 859 1127 628 
Q 1363 397 1844 397 
Q 2081 397 2348 469 
Q 2616 541 2906 684 
L 2797 116 
Q 2547 13 2283 -39 
Q 2019 -91 1741 -91 
Q 1044 -91 669 257 
Q 294 606 294 1253 
Q 294 1797 489 2255 
Q 684 2713 1069 3078 
Q 1331 3328 1684 3456 
Q 2038 3584 2456 3584 
Q 2700 3584 2940 3529 
Q 3181 3475 3431 3366 
z
" transform="scale(0.015625)"/>
      <path id="DejaVuSans-Oblique-6e" d="M 3566 2113 
L 3156 0 
L 2578 0 
L 2988 2091 
Q 3016 2238 3031 2350 
Q 3047 2463 3047 2528 
Q 3047 2791 2881 2937 
Q 2716 3084 2419 3084 
Q 1956 3084 1622 2776 
Q 1288 2469 1184 1941 
L 800 0 
L 225 0 
L 903 3500 
L 1478 3500 
L 1363 2950 
Q 1603 3253 1940 3418 
Q 2278 3584 2650 3584 
Q 3113 3584 3367 3334 
Q 3622 3084 3622 2631 
Q 3622 2519 3608 2391 
Q 3594 2263 3566 2113 
z
" transform="scale(0.015625)"/>
      <path id="DejaVuSans-Oblique-66" d="M 3059 4863 
L 2969 4384 
L 2419 4384 
Q 2106 4384 1964 4261 
Q 1822 4138 1753 3809 
L 1691 3500 
L 2638 3500 
L 2553 3053 
L 1606 3053 
L 1013 0 
L 434 0 
L 1031 3053 
L 481 3053 
L 563 3500 
L 1113 3500 
L 1159 3744 
Q 1278 4363 1576 4613 
Q 1875 4863 2516 4863 
L 3059 4863 
z
" transform="scale(0.015625)"/>
      <path id="DejaVuSans-Oblique-6f" d="M 1625 -91 
Q 1009 -91 651 289 
Q 294 669 294 1325 
Q 294 1706 417 2101 
Q 541 2497 738 2766 
Q 1047 3184 1428 3384 
Q 1809 3584 2291 3584 
Q 2888 3584 3255 3212 
Q 3622 2841 3622 2241 
Q 3622 1825 3500 1412 
Q 3378 1000 3181 728 
Q 2875 309 2494 109 
Q 2113 -91 1625 -91 
z
M 891 1344 
Q 891 869 1089 633 
Q 1288 397 1691 397 
Q 2269 397 2648 901 
Q 3028 1406 3028 2181 
Q 3028 2634 2825 2865 
Q 2622 3097 2228 3097 
Q 1903 3097 1650 2945 
Q 1397 2794 1197 2484 
Q 1050 2253 970 1956 
Q 891 1659 891 1344 
z
" transform="scale(0.015625)"/>
     </defs>
     <use xlink:href="#DejaVuSans-Oblique-6d"/>
     <use xlink:href="#DejaVuSans-Oblique-61" transform="translate(97.412109 0)"/>
     <use xlink:href="#DejaVuSans-Oblique-74" transform="translate(158.691406 0)"/>
     <use xlink:href="#DejaVuSans-Oblique-63" transform="translate(197.900391 0)"/>
     <use xlink:href="#DejaVuSans-Oblique-68" transform="translate(252.880859 0)"/>
     <use xlink:href="#DejaVuSans-Oblique-69" transform="translate(316.259766 0)"/>
     <use xlink:href="#DejaVuSans-Oblique-6e" transform="translate(344.042969 0)"/>
     <use xlink:href="#DejaVuSans-Oblique-67" transform="translate(407.421875 0)"/>
     <use xlink:href="#DejaVuSans-Oblique-20" transform="translate(470.898438 0)"/>
     <use xlink:href="#DejaVuSans-Oblique-61" transform="translate(502.685547 0)"/>
     <use xlink:href="#DejaVuSans-Oblique-64" transform="translate(563.964844 0)"/>
     <use xlink:href="#DejaVuSans-Oblique-64" transform="translate(627.441406 0)"/>
     <use xlink:href="#DejaVuSans-Oblique-72" transform="translate(690.917969 0)"/>
     <use xlink:href="#DejaVuSans-Oblique-65" transform="translate(732.03125 0)"/>
     <use xlink:href="#DejaVuSans-Oblique-73" transform="translate(793.554688 0)"/>
     <use xlink:href="#DejaVuSans-Oblique-73" transform="translate(845.654297 0)"/>
     <use xlink:href="#DejaVuSans-Oblique-2d" transform="translate(897.753906 0)"/>
     <use xlink:href="#DejaVuSans-Oblique-66" transform="translate(933.837891 0)"/>
     <use xlink:href="#DejaVuSans-Oblique-75" transform="translate(969.042969 0)"/>
     <use xlink:href="#DejaVuSans-Oblique-6e" transform="translate(1032.421875 0)"/>
     <use xlink:href="#DejaVuSans-Oblique-63" transform="translate(1095.800781 0)"/>
     <use xlink:href="#DejaVuSans-Oblique-74" transform="translate(1150.78125 0)"/>
     <use xlink:href="#DejaVuSans-Oblique-69" transform="translate(1189.990234 0)"/>
     <use xlink:href="#DejaVuSans-Oblique-6f" transform="translate(1217.773438 0)"/>
     <use xlink:href="#DejaVuSans-Oblique-6e" transform="translate(1278.955078 0)"/>
     <use xlink:href="#DejaVuSans-Oblique-20" transform="translate(1342.333984 0)"/>
     <use xlink:href="#DejaVuSans-Oblique-63" transform="translate(1374.121094 0)"/>
     <use xlink:href="#DejaVuSans-Oblique-6f" transform="translate(1429.101562 0)"/>
     <use xlink:href="#DejaVuSans-Oblique-6e" transform="translate(1490.283203 0)"/>
     <use xlink:href="#DejaVuSans-Oblique-73" transform="translate(1553.662109 0)"/>
     <use xlink:href="#DejaVuSans-Oblique-74" transform="translate(1605.761719 0)"/>
     <use xlink:href="#DejaVuSans-Oblique-72" transform="translate(1644.970703 0)"/>
     <use xlink:href="#DejaVuSans-Oblique-75" transform="translate(1686.083984 0)"/>
     <use xlink:href="#DejaVuSans-Oblique-63" transform="translate(1749.462891 0)"/>
     <use xlink:href="#DejaVuSans-Oblique-74" transform="translate(1804.443359 0)"/>
     <use xlink:href="#DejaVuSans-Oblique-69" transform="translate(1843.652344 0)"/>
     <use xlink:href="#DejaVuSans-Oblique-6f" transform="translate(1871.435547 0)"/>
     <use xlink:href="#DejaVuSans-Oblique-6e" transform="translate(1932.617188 0)"/>
    </g>
   </g>
   <g id="text_7">
    <!-- k-pair: D_na = min(B,k)/k -->
    <g transform="translate(251.044531 295.344) scale(0.14 -0.14)">
     <defs>
      <path id="DejaVuSansMono-Bold-6b" d="M 544 4863 
L 1459 4863 
L 1459 2309 
L 2559 3500 
L 3669 3500 
L 2344 2194 
L 3744 0 
L 2731 0 
L 1772 1638 
L 1459 1338 
L 1459 0 
L 544 0 
L 544 4863 
z
" transform="scale(0.015625)"/>
      <path id="DejaVuSansMono-Bold-70" d="M 1381 494 
L 1381 -1331 
L 469 -1331 
L 469 3500 
L 1381 3500 
L 1381 2975 
Q 1525 3278 1759 3431 
Q 1994 3584 2309 3584 
Q 2909 3584 3240 3103 
Q 3572 2622 3572 1747 
Q 3572 859 3236 384 
Q 2900 -91 2278 -91 
Q 1997 -91 1773 54 
Q 1550 200 1381 494 
z
M 2656 1753 
Q 2656 2259 2487 2546 
Q 2319 2834 2022 2834 
Q 1725 2834 1553 2546 
Q 1381 2259 1381 1753 
Q 1381 1247 1553 959 
Q 1725 672 2022 672 
Q 2319 672 2487 959 
Q 2656 1247 2656 1753 
z
" transform="scale(0.015625)"/>
      <path id="DejaVuSansMono-Bold-69" d="M 691 3500 
L 2503 3500 
L 2503 703 
L 3641 703 
L 3641 0 
L 447 0 
L 447 703 
L 1588 703 
L 1588 2797 
L 691 2797 
L 691 3500 
z
M 1588 5203 
L 2503 5203 
L 2503 4134 
L 1588 4134 
L 1588 5203 
z
" transform="scale(0.015625)"/>
      <path id="DejaVuSansMono-Bold-72" d="M 3597 2534 
Q 3447 2672 3245 2740 
Q 3044 2809 2803 2809 
Q 2513 2809 2295 2707 
Q 2078 2606 1959 2413 
Q 1884 2294 1854 2125 
Q 1825 1956 1825 1613 
L 1825 0 
L 909 0 
L 909 3500 
L 1825 3500 
L 1825 2956 
Q 1959 3256 2237 3420 
Q 2516 3584 2888 3584 
Q 3075 3584 3254 3539 
Q 3434 3494 3597 3406 
L 3597 2534 
z
" transform="scale(0.015625)"/>
      <path id="DejaVuSansMono-Bold-3a" d="M 1403 3322 
L 2444 3322 
L 2444 2181 
L 1403 2181 
L 1403 3322 
z
M 1403 1147 
L 2444 1147 
L 2444 0 
L 1403 0 
L 1403 1147 
z
" transform="scale(0.015625)"/>
      <path id="DejaVuSansMono-Bold-6d" d="M 2156 3150 
Q 2259 3372 2418 3478 
Q 2578 3584 2809 3584 
Q 3263 3584 3436 3271 
Q 3609 2959 3609 1972 
L 3609 0 
L 2859 0 
L 2859 2247 
Q 2859 2638 2800 2769 
Q 2741 2900 2584 2900 
Q 2428 2900 2365 2765 
Q 2303 2631 2303 2247 
L 2303 0 
L 1563 0 
L 1563 2247 
Q 1563 2631 1500 2765 
Q 1438 2900 1281 2900 
Q 1125 2900 1065 2769 
Q 1006 2638 1006 2247 
L 1006 0 
L 256 0 
L 256 3500 
L 922 3500 
L 922 3138 
Q 1000 3344 1172 3464 
Q 1344 3584 1556 3584 
Q 1769 3584 1944 3457 
Q 2119 3331 2156 3150 
z
" transform="scale(0.015625)"/>
      <path id="DejaVuSansMono-Bold-42" d="M 1281 2119 
L 1281 738 
L 1894 738 
Q 2334 738 2511 888 
Q 2688 1038 2688 1409 
Q 2688 1788 2503 1953 
Q 2319 2119 1894 2119 
L 1281 2119 
z
M 1281 3938 
L 1281 2853 
L 1894 2853 
Q 2244 2853 2392 2978 
Q 2541 3103 2541 3391 
Q 2541 3678 2389 3808 
Q 2238 3938 1894 3938 
L 1281 3938 
z
M 391 4672 
L 1894 4672 
Q 2672 4672 3064 4376 
Q 3456 4081 3456 3494 
Q 3456 3044 3225 2791 
Q 2994 2538 2547 2497 
Q 3081 2444 3351 2137 
Q 3622 1831 3622 1281 
Q 3622 606 3215 303 
Q 2809 0 1894 0 
L 391 0 
L 391 4672 
z
" transform="scale(0.015625)"/>
     </defs>
     <use xlink:href="#DejaVuSansMono-Bold-6b"/>
     <use xlink:href="#DejaVuSansMono-Bold-2d" transform="translate(60.205078 0)"/>
     <use xlink:href="#DejaVuSansMono-Bold-70" transform="translate(120.410156 0)"/>
     <use xlink:href="#DejaVuSansMono-Bold-61" transform="translate(180.615234 0)"/>
     <use xlink:href="#DejaVuSansMono-Bold-69" transform="translate(240.820312 0)"/>
     <use xlink:href="#DejaVuSansMono-Bold-72" transform="translate(301.025391 0)"/>
     <use xlink:href="#DejaVuSansMono-Bold-3a" transform="translate(361.230469 0)"/>
     <use xlink:href="#DejaVuSansMono-Bold-20" transform="translate(421.435547 0)"/>
     <use xlink:href="#DejaVuSansMono-Bold-44" transform="translate(481.640625 0)"/>
     <use xlink:href="#DejaVuSansMono-Bold-5f" transform="translate(541.845703 0)"/>
     <use xlink:href="#DejaVuSansMono-Bold-6e" transform="translate(602.050781 0)"/>
     <use xlink:href="#DejaVuSansMono-Bold-61" transform="translate(662.255859 0)"/>
     <use xlink:href="#DejaVuSansMono-Bold-20" transform="translate(722.460938 0)"/>
     <use xlink:href="#DejaVuSansMono-Bold-3d" transform="translate(782.666016 0)"/>
     <use xlink:href="#DejaVuSansMono-Bold-20" transform="translate(842.871094 0)"/>
     <use xlink:href="#DejaVuSansMono-Bold-6d" transform="translate(903.076172 0)"/>
     <use xlink:href="#DejaVuSansMono-Bold-69" transform="translate(963.28125 0)"/>
     <use xlink:href="#DejaVuSansMono-Bold-6e" transform="translate(1023.486328 0)"/>
     <use xlink:href="#DejaVuSansMono-Bold-28" transform="translate(1083.691406 0)"/>
     <use xlink:href="#DejaVuSansMono-Bold-42" transform="translate(1143.896484 0)"/>
     <use xlink:href="#DejaVuSansMono-Bold-2c" transform="translate(1204.101562 0)"/>
     <use xlink:href="#DejaVuSansMono-Bold-6b" transform="translate(1264.306641 0)"/>
     <use xlink:href="#DejaVuSansMono-Bold-29" transform="translate(1324.511719 0)"/>
     <use xlink:href="#DejaVuSansMono-Bold-2f" transform="translate(1384.716797 0)"/>
     <use xlink:href="#DejaVuSansMono-Bold-6b" transform="translate(1444.921875 0)"/>
    </g>
   </g>
   <g id="text_8">
    <!-- habitat family (not the sharp envelope) -->
    <g style="fill: #8e6f3e" transform="translate(267.749297 317.7) scale(0.09 -0.09)">
     <defs>
      <path id="DejaVuSans-Oblique-6c" d="M 1172 4863 
L 1747 4863 
L 800 0 
L 225 0 
L 1172 4863 
z
" transform="scale(0.015625)"/>
     </defs>
     <use xlink:href="#DejaVuSans-Oblique-68"/>
     <use xlink:href="#DejaVuSans-Oblique-61" transform="translate(63.378906 0)"/>
     <use xlink:href="#DejaVuSans-Oblique-62" transform="translate(124.658203 0)"/>
     <use xlink:href="#DejaVuSans-Oblique-69" transform="translate(188.134766 0)"/>
     <use xlink:href="#DejaVuSans-Oblique-74" transform="translate(215.917969 0)"/>
     <use xlink:href="#DejaVuSans-Oblique-61" transform="translate(255.126953 0)"/>
     <use xlink:href="#DejaVuSans-Oblique-74" transform="translate(316.40625 0)"/>
     <use xlink:href="#DejaVuSans-Oblique-20" transform="translate(355.615234 0)"/>
     <use xlink:href="#DejaVuSans-Oblique-66" transform="translate(387.402344 0)"/>
     <use xlink:href="#DejaVuSans-Oblique-61" transform="translate(422.607422 0)"/>
     <use xlink:href="#DejaVuSans-Oblique-6d" transform="translate(483.886719 0)"/>
     <use xlink:href="#DejaVuSans-Oblique-69" transform="translate(581.298828 0)"/>
     <use xlink:href="#DejaVuSans-Oblique-6c" transform="translate(609.082031 0)"/>
     <use xlink:href="#DejaVuSans-Oblique-79" transform="translate(636.865234 0)"/>
     <use xlink:href="#DejaVuSans-Oblique-20" transform="translate(696.044922 0)"/>
     <use xlink:href="#DejaVuSans-Oblique-28" transform="translate(727.832031 0)"/>
     <use xlink:href="#DejaVuSans-Oblique-6e" transform="translate(766.845703 0)"/>
     <use xlink:href="#DejaVuSans-Oblique-6f" transform="translate(830.224609 0)"/>
     <use xlink:href="#DejaVuSans-Oblique-74" transform="translate(891.40625 0)"/>
     <use xlink:href="#DejaVuSans-Oblique-20" transform="translate(930.615234 0)"/>
     <use xlink:href="#DejaVuSans-Oblique-74" transform="translate(962.402344 0)"/>
     <use xlink:href="#DejaVuSans-Oblique-68" transform="translate(1001.611328 0)"/>
     <use xlink:href="#DejaVuSans-Oblique-65" transform="translate(1064.990234 0)"/>
     <use xlink:href="#DejaVuSans-Oblique-20" transform="translate(1126.513672 0)"/>
     <use xlink:href="#DejaVuSans-Oblique-73" transform="translate(1158.300781 0)"/>
     <use xlink:href="#DejaVuSans-Oblique-68" transform="translate(1210.400391 0)"/>
     <use xlink:href="#DejaVuSans-Oblique-61" transform="translate(1273.779297 0)"/>
     <use xlink:href="#DejaVuSans-Oblique-72" transform="translate(1335.058594 0)"/>
     <use xlink:href="#DejaVuSans-Oblique-70" transform="translate(1376.171875 0)"/>
     <use xlink:href="#DejaVuSans-Oblique-20" transform="translate(1439.648438 0)"/>
     <use xlink:href="#DejaVuSans-Oblique-65" transform="translate(1471.435547 0)"/>
     <use xlink:href="#DejaVuSans-Oblique-6e" transform="translate(1532.958984 0)"/>
     <use xlink:href="#DejaVuSans-Oblique-76" transform="translate(1596.337891 0)"/>
     <use xlink:href="#DejaVuSans-Oblique-65" transform="translate(1655.517578 0)"/>
     <use xlink:href="#DejaVuSans-Oblique-6c" transform="translate(1717.041016 0)"/>
     <use xlink:href="#DejaVuSans-Oblique-6f" transform="translate(1744.824219 0)"/>
     <use xlink:href="#DejaVuSans-Oblique-70" transform="translate(1806.005859 0)"/>
     <use xlink:href="#DejaVuSans-Oblique-65" transform="translate(1869.482422 0)"/>
     <use xlink:href="#DejaVuSans-Oblique-29" transform="translate(1931.005859 0)"/>
    </g>
   </g>
   <g id="text_9">
    <!-- B*_ad = 1+m    B*_na = k*m -->
    <g transform="translate(246.830313 374.832) scale(0.14 -0.14)">
     <defs>
      <path id="DejaVuSansMono-Bold-2a" d="M 3463 3803 
L 2431 3263 
L 3463 2719 
L 3225 2278 
L 2188 2853 
L 2188 1778 
L 1650 1778 
L 1650 2853 
L 616 2278 
L 378 2719 
L 1416 3263 
L 378 3803 
L 616 4244 
L 1650 3675 
L 1650 4750 
L 2188 4750 
L 2188 3675 
L 3225 4244 
L 3463 3803 
z
" transform="scale(0.015625)"/>
      <path id="DejaVuSansMono-Bold-2b" d="M 2297 3725 
L 2297 2381 
L 3641 2381 
L 3641 1638 
L 2297 1638 
L 2297 288 
L 1556 288 
L 1556 1638 
L 206 1638 
L 206 2381 
L 1556 2381 
L 1556 3725 
L 2297 3725 
z
" transform="scale(0.015625)"/>
     </defs>
     <use xlink:href="#DejaVuSansMono-Bold-42"/>
     <use xlink:href="#DejaVuSansMono-Bold-2a" transform="translate(60.205078 0)"/>
     <use xlink:href="#DejaVuSansMono-Bold-5f" transform="translate(120.410156 0)"/>
     <use xlink:href="#DejaVuSansMono-Bold-61" transform="translate(180.615234 0)"/>
     <use xlink:href="#DejaVuSansMono-Bold-64" transform="translate(240.820312 0)"/>
     <use xlink:href="#DejaVuSansMono-Bold-20" transform="translate(301.025391 0)"/>
     <use xlink:href="#DejaVuSansMono-Bold-3d" transform="translate(361.230469 0)"/>
     <use xlink:href="#DejaVuSansMono-Bold-20" transform="translate(421.435547 0)"/>
     <use xlink:href="#DejaVuSansMono-Bold-31" transform="translate(481.640625 0)"/>
     <use xlink:href="#DejaVuSansMono-Bold-2b" transform="translate(541.845703 0)"/>
     <use xlink:href="#DejaVuSansMono-Bold-6d" transform="translate(602.050781 0)"/>
     <use xlink:href="#DejaVuSansMono-Bold-20" transform="translate(662.255859 0)"/>
     <use xlink:href="#DejaVuSansMono-Bold-20" transform="translate(722.460938 0)"/>
     <use xlink:href="#DejaVuSansMono-Bold-20" transform="translate(782.666016 0)"/>
     <use xlink:href="#DejaVuSansMono-Bold-20" transform="translate(842.871094 0)"/>
     <use xlink:href="#DejaVuSansMono-Bold-42" transform="translate(903.076172 0)"/>
     <use xlink:href="#DejaVuSansMono-Bold-2a" transform="translate(963.28125 0)"/>
     <use xlink:href="#DejaVuSansMono-Bold-5f" transform="translate(1023.486328 0)"/>
     <use xlink:href="#DejaVuSansMono-Bold-6e" transform="translate(1083.691406 0)"/>
     <use xlink:href="#DejaVuSansMono-Bold-61" transform="translate(1143.896484 0)"/>
     <use xlink:href="#DejaVuSansMono-Bold-20" transform="translate(1204.101562 0)"/>
     <use xlink:href="#DejaVuSansMono-Bold-3d" transform="translate(1264.306641 0)"/>
     <use xlink:href="#DejaVuSansMono-Bold-20" transform="translate(1324.511719 0)"/>
     <use xlink:href="#DejaVuSansMono-Bold-6b" transform="translate(1384.716797 0)"/>
     <use xlink:href="#DejaVuSansMono-Bold-2a" transform="translate(1444.921875 0)"/>
     <use xlink:href="#DejaVuSansMono-Bold-6d" transform="translate(1505.126953 0)"/>
    </g>
   </g>
   <g id="text_10">
    <!-- parity perfect-separation budgets -->
    <g style="fill: #8e6f3e" transform="translate(280.452656 397.188) scale(0.09 -0.09)">
     <use xlink:href="#DejaVuSans-Oblique-70"/>
     <use xlink:href="#DejaVuSans-Oblique-61" transform="translate(63.476562 0)"/>
     <use xlink:href="#DejaVuSans-Oblique-72" transform="translate(124.755859 0)"/>
     <use xlink:href="#DejaVuSans-Oblique-69" transform="translate(165.869141 0)"/>
     <use xlink:href="#DejaVuSans-Oblique-74" transform="translate(193.652344 0)"/>
     <use xlink:href="#DejaVuSans-Oblique-79" transform="translate(232.861328 0)"/>
     <use xlink:href="#DejaVuSans-Oblique-20" transform="translate(292.041016 0)"/>
     <use xlink:href="#DejaVuSans-Oblique-70" transform="translate(323.828125 0)"/>
     <use xlink:href="#DejaVuSans-Oblique-65" transform="translate(387.304688 0)"/>
     <use xlink:href="#DejaVuSans-Oblique-72" transform="translate(448.828125 0)"/>
     <use xlink:href="#DejaVuSans-Oblique-66" transform="translate(489.941406 0)"/>
     <use xlink:href="#DejaVuSans-Oblique-65" transform="translate(525.146484 0)"/>
     <use xlink:href="#DejaVuSans-Oblique-63" transform="translate(586.669922 0)"/>
     <use xlink:href="#DejaVuSans-Oblique-74" transform="translate(641.650391 0)"/>
     <use xlink:href="#DejaVuSans-Oblique-2d" transform="translate(680.859375 0)"/>
     <use xlink:href="#DejaVuSans-Oblique-73" transform="translate(716.943359 0)"/>
     <use xlink:href="#DejaVuSans-Oblique-65" transform="translate(769.042969 0)"/>
     <use xlink:href="#DejaVuSans-Oblique-70" transform="translate(830.566406 0)"/>
     <use xlink:href="#DejaVuSans-Oblique-61" transform="translate(894.042969 0)"/>
     <use xlink:href="#DejaVuSans-Oblique-72" transform="translate(955.322266 0)"/>
     <use xlink:href="#DejaVuSans-Oblique-61" transform="translate(996.435547 0)"/>
     <use xlink:href="#DejaVuSans-Oblique-74" transform="translate(1057.714844 0)"/>
     <use xlink:href="#DejaVuSans-Oblique-69" transform="translate(1096.923828 0)"/>
     <use xlink:href="#DejaVuSans-Oblique-6f" transform="translate(1124.707031 0)"/>
     <use xlink:href="#DejaVuSans-Oblique-6e" transform="translate(1185.888672 0)"/>
     <use xlink:href="#DejaVuSans-Oblique-20" transform="translate(1249.267578 0)"/>
     <use xlink:href="#DejaVuSans-Oblique-62" transform="translate(1281.054688 0)"/>
     <use xlink:href="#DejaVuSans-Oblique-75" transform="translate(1344.53125 0)"/>
     <use xlink:href="#DejaVuSans-Oblique-64" transform="translate(1407.910156 0)"/>
     <use xlink:href="#DejaVuSans-Oblique-67" transform="translate(1471.386719 0)"/>
     <use xlink:href="#DejaVuSans-Oblique-65" transform="translate(1534.863281 0)"/>
     <use xlink:href="#DejaVuSans-Oblique-74" transform="translate(1596.386719 0)"/>
     <use xlink:href="#DejaVuSans-Oblique-73" transform="translate(1635.595703 0)"/>
    </g>
   </g>
   <g id="text_11">
    <!-- refused = any_bad  OR  S &gt;= 0.6 -->
    <g transform="translate(225.759219 454.32) scale(0.14 -0.14)">
     <defs>
      <path id="DejaVuSansMono-Bold-65" d="M 3444 172 
Q 3125 41 2794 -25 
Q 2463 -91 2094 -91 
Q 1216 -91 752 379 
Q 288 850 288 1734 
Q 288 2591 734 3087 
Q 1181 3584 1953 3584 
Q 2731 3584 3161 3123 
Q 3591 2663 3591 1825 
L 3591 1453 
L 1219 1453 
Q 1222 1041 1462 837 
Q 1703 634 2181 634 
Q 2497 634 2803 725 
Q 3109 816 3444 1013 
L 3444 172 
z
M 2669 2141 
Q 2663 2503 2483 2689 
Q 2303 2875 1953 2875 
Q 1638 2875 1450 2683 
Q 1263 2491 1228 2138 
L 2669 2141 
z
" transform="scale(0.015625)"/>
      <path id="DejaVuSansMono-Bold-66" d="M 2309 3806 
L 2309 3500 
L 3384 3500 
L 3384 2797 
L 2309 2797 
L 2309 0 
L 1394 0 
L 1394 2797 
L 544 2797 
L 544 3500 
L 1394 3500 
L 1394 3744 
Q 1394 4375 1656 4619 
Q 1919 4863 2631 4863 
L 3384 4863 
L 3384 4159 
L 2669 4159 
Q 2463 4159 2389 4084 
Q 2316 4009 2309 3806 
z
" transform="scale(0.015625)"/>
      <path id="DejaVuSansMono-Bold-75" d="M 500 1222 
L 500 3500 
L 1416 3500 
L 1416 1363 
Q 1416 984 1522 821 
Q 1628 659 1875 659 
Q 2122 659 2261 878 
Q 2400 1097 2400 1491 
L 2400 3500 
L 3316 3500 
L 3316 0 
L 2400 0 
L 2400 519 
Q 2303 228 2070 68 
Q 1838 -91 1509 -91 
Q 1009 -91 754 240 
Q 500 572 500 1222 
z
" transform="scale(0.015625)"/>
      <path id="DejaVuSansMono-Bold-73" d="M 3097 3391 
L 3097 2591 
Q 2844 2753 2570 2836 
Q 2297 2919 2022 2919 
Q 1716 2919 1559 2830 
Q 1403 2741 1403 2566 
Q 1403 2316 2072 2159 
L 2106 2150 
L 2369 2088 
Q 2869 1969 3101 1705 
Q 3334 1441 3334 991 
Q 3334 450 2979 179 
Q 2625 -91 1913 -91 
Q 1597 -91 1265 -36 
Q 934 19 594 128 
L 594 928 
Q 897 756 1211 665 
Q 1525 575 1819 575 
Q 2141 575 2306 669 
Q 2472 763 2472 941 
Q 2472 1116 2355 1209 
Q 2238 1303 1797 1409 
L 1544 1466 
Q 1019 1584 778 1837 
Q 538 2091 538 2516 
Q 538 3022 903 3303 
Q 1269 3584 1931 3584 
Q 2228 3584 2523 3536 
Q 2819 3488 3097 3391 
z
" transform="scale(0.015625)"/>
      <path id="DejaVuSansMono-Bold-79" d="M 2222 -378 
Q 2038 -872 1780 -1098 
Q 1522 -1325 1153 -1325 
L 397 -1325 
L 397 -628 
L 769 -628 
Q 1050 -628 1181 -533 
Q 1313 -438 1447 -91 
L 1516 97 
L 184 3500 
L 1147 3500 
L 1947 1228 
L 2713 3500 
L 3675 3500 
L 2222 -378 
z
" transform="scale(0.015625)"/>
      <path id="DejaVuSansMono-Bold-62" d="M 2656 1741 
Q 2656 2247 2487 2534 
Q 2319 2822 2022 2822 
Q 1725 2822 1553 2534 
Q 1381 2247 1381 1741 
Q 1381 1234 1553 946 
Q 1725 659 2022 659 
Q 2319 659 2487 946 
Q 2656 1234 2656 1741 
z
M 1381 3003 
Q 1550 3294 1773 3439 
Q 1997 3584 2278 3584 
Q 2900 3584 3236 3109 
Q 3572 2634 3572 1747 
Q 3572 872 3240 390 
Q 2909 -91 2309 -91 
Q 1994 -91 1759 62 
Q 1525 216 1381 519 
L 1381 0 
L 469 0 
L 469 4863 
L 1381 4863 
L 1381 3003 
z
" transform="scale(0.015625)"/>
      <path id="DejaVuSansMono-Bold-4f" d="M 1925 3922 
Q 1572 3922 1409 3545 
Q 1247 3169 1247 2328 
Q 1247 1491 1409 1114 
Q 1572 738 1925 738 
Q 2281 738 2443 1114 
Q 2606 1491 2606 2328 
Q 2606 3169 2443 3545 
Q 2281 3922 1925 3922 
z
M 288 2328 
Q 288 3525 702 4137 
Q 1116 4750 1925 4750 
Q 2738 4750 3152 4137 
Q 3566 3525 3566 2328 
Q 3566 1134 3152 521 
Q 2738 -91 1925 -91 
Q 1116 -91 702 521 
Q 288 1134 288 2328 
z
" transform="scale(0.015625)"/>
      <path id="DejaVuSansMono-Bold-52" d="M 2522 2203 
Q 2659 2175 2761 2073 
Q 2863 1972 3009 1678 
L 3853 0 
L 2841 0 
L 2278 1178 
Q 2253 1228 2213 1316 
Q 1966 1844 1631 1844 
L 1338 1844 
L 1338 0 
L 416 0 
L 416 4666 
L 1747 4666 
Q 2647 4666 3039 4347 
Q 3431 4028 3431 3309 
Q 3431 2828 3197 2543 
Q 2963 2259 2522 2203 
z
M 1338 3891 
L 1338 2619 
L 1772 2619 
Q 2150 2619 2314 2767 
Q 2478 2916 2478 3256 
Q 2478 3597 2315 3744 
Q 2153 3891 1772 3891 
L 1338 3891 
z
" transform="scale(0.015625)"/>
      <path id="DejaVuSansMono-Bold-53" d="M 1594 2047 
Q 897 2313 650 2605 
Q 403 2897 403 3391 
Q 403 4025 809 4387 
Q 1216 4750 1925 4750 
Q 2247 4750 2569 4676 
Q 2891 4603 3206 4459 
L 3206 3559 
Q 2909 3769 2603 3878 
Q 2297 3988 1997 3988 
Q 1663 3988 1484 3853 
Q 1306 3719 1306 3469 
Q 1306 3275 1436 3148 
Q 1566 3022 1978 2869 
L 2375 2719 
Q 2938 2513 3203 2172 
Q 3469 1831 3469 1313 
Q 3469 606 3051 257 
Q 2634 -91 1791 -91 
Q 1444 -91 1095 -8 
Q 747 75 422 238 
L 422 1191 
Q 791 928 1136 800 
Q 1481 672 1819 672 
Q 2159 672 2346 826 
Q 2534 981 2534 1259 
Q 2534 1469 2409 1626 
Q 2284 1784 2047 1875 
L 1594 2047 
z
" transform="scale(0.015625)"/>
      <path id="DejaVuSansMono-Bold-3e" d="M 275 2894 
L 275 3675 
L 3578 2375 
L 3578 1638 
L 275 341 
L 275 1119 
L 2759 2003 
L 275 2894 
z
" transform="scale(0.015625)"/>
      <path id="DejaVuSansMono-Bold-30" d="M 1538 2328 
Q 1538 2494 1650 2606 
Q 1763 2719 1925 2719 
Q 2091 2719 2203 2606 
Q 2316 2494 2316 2328 
Q 2316 2166 2203 2053 
Q 2091 1941 1925 1941 
Q 1763 1941 1650 2052 
Q 1538 2163 1538 2328 
z
M 1925 3969 
Q 1606 3969 1459 3578 
Q 1313 3188 1313 2328 
Q 1313 1472 1459 1081 
Q 1606 691 1925 691 
Q 2247 691 2394 1081 
Q 2541 1472 2541 2328 
Q 2541 3188 2394 3578 
Q 2247 3969 1925 3969 
z
M 384 2328 
Q 384 3541 768 4145 
Q 1153 4750 1925 4750 
Q 2700 4750 3084 4147 
Q 3469 3544 3469 2328 
Q 3469 1116 3084 512 
Q 2700 -91 1925 -91 
Q 1153 -91 768 514 
Q 384 1119 384 2328 
z
" transform="scale(0.015625)"/>
      <path id="DejaVuSansMono-Bold-2e" d="M 1403 1147 
L 2444 1147 
L 2444 0 
L 1403 0 
L 1403 1147 
z
" transform="scale(0.015625)"/>
      <path id="DejaVuSansMono-Bold-36" d="M 2009 2338 
Q 1709 2338 1551 2120 
Q 1394 1903 1394 1491 
Q 1394 1081 1551 864 
Q 1709 647 2009 647 
Q 2309 647 2470 864 
Q 2631 1081 2631 1491 
Q 2631 1900 2470 2119 
Q 2309 2338 2009 2338 
z
M 3219 4556 
L 3219 3719 
Q 2972 3859 2745 3929 
Q 2519 4000 2309 4000 
Q 1809 4000 1548 3664 
Q 1288 3328 1275 2672 
Q 1422 2875 1650 2976 
Q 1878 3078 2188 3078 
Q 2819 3078 3162 2679 
Q 3506 2281 3506 1550 
Q 3506 766 3120 334 
Q 2734 -97 2034 -97 
Q 1181 -97 795 475 
Q 409 1047 409 2322 
Q 409 3534 881 4139 
Q 1353 4744 2297 4744 
Q 2516 4744 2748 4697 
Q 2981 4650 3219 4556 
z
" transform="scale(0.015625)"/>
     </defs>
     <use xlink:href="#DejaVuSansMono-Bold-72"/>
     <use xlink:href="#DejaVuSansMono-Bold-65" transform="translate(60.205078 0)"/>
     <use xlink:href="#DejaVuSansMono-Bold-66" transform="translate(120.410156 0)"/>
     <use xlink:href="#DejaVuSansMono-Bold-75" transform="translate(180.615234 0)"/>
     <use xlink:href="#DejaVuSansMono-Bold-73" transform="translate(240.820312 0)"/>
     <use xlink:href="#DejaVuSansMono-Bold-65" transform="translate(301.025391 0)"/>
     <use xlink:href="#DejaVuSansMono-Bold-64" transform="translate(361.230469 0)"/>
     <use xlink:href="#DejaVuSansMono-Bold-20" transform="translate(421.435547 0)"/>
     <use xlink:href="#DejaVuSansMono-Bold-3d" transform="translate(481.640625 0)"/>
     <use xlink:href="#DejaVuSansMono-Bold-20" transform="translate(541.845703 0)"/>
     <use xlink:href="#DejaVuSansMono-Bold-61" transform="translate(602.050781 0)"/>
     <use xlink:href="#DejaVuSansMono-Bold-6e" transform="translate(662.255859 0)"/>
     <use xlink:href="#DejaVuSansMono-Bold-79" transform="translate(722.460938 0)"/>
     <use xlink:href="#DejaVuSansMono-Bold-5f" transform="translate(782.666016 0)"/>
     <use xlink:href="#DejaVuSansMono-Bold-62" transform="translate(842.871094 0)"/>
     <use xlink:href="#DejaVuSansMono-Bold-61" transform="translate(903.076172 0)"/>
     <use xlink:href="#DejaVuSansMono-Bold-64" transform="translate(963.28125 0)"/>
     <use xlink:href="#DejaVuSansMono-Bold-20" transform="translate(1023.486328 0)"/>
     <use xlink:href="#DejaVuSansMono-Bold-20" transform="translate(1083.691406 0)"/>
     <use xlink:href="#DejaVuSansMono-Bold-4f" transform="translate(1143.896484 0)"/>
     <use xlink:href="#DejaVuSansMono-Bold-52" transform="translate(1204.101562 0)"/>
     <use xlink:href="#DejaVuSansMono-Bold-20" transform="translate(1264.306641 0)"/>
     <use xlink:href="#DejaVuSansMono-Bold-20" transform="translate(1324.511719 0)"/>
     <use xlink:href="#DejaVuSansMono-Bold-53" transform="translate(1384.716797 0)"/>
     <use xlink:href="#DejaVuSansMono-Bold-20" transform="translate(1444.921875 0)"/>
     <use xlink:href="#DejaVuSansMono-Bold-3e" transform="translate(1505.126953 0)"/>
     <use xlink:href="#DejaVuSansMono-Bold-3d" transform="translate(1565.332031 0)"/>
     <use xlink:href="#DejaVuSansMono-Bold-20" transform="translate(1625.537109 0)"/>
     <use xlink:href="#DejaVuSansMono-Bold-30" transform="translate(1685.742188 0)"/>
     <use xlink:href="#DejaVuSansMono-Bold-2e" transform="translate(1745.947266 0)"/>
     <use xlink:href="#DejaVuSansMono-Bold-36" transform="translate(1806.152344 0)"/>
    </g>
   </g>
   <g id="text_12">
    <!-- product dual gate (S = severity monoid) -->
    <g style="fill: #8e6f3e" transform="translate(265.486641 476.676) scale(0.09 -0.09)">
     <defs>
      <path id="DejaVuSans-Oblique-53" d="M 3859 4513 
L 3738 3897 
Q 3422 4066 3111 4152 
Q 2800 4238 2509 4238 
Q 1944 4238 1609 3991 
Q 1275 3744 1275 3334 
Q 1275 3109 1398 2989 
Q 1522 2869 2034 2731 
L 2413 2638 
Q 3053 2472 3303 2217 
Q 3553 1963 3553 1503 
Q 3553 797 2998 353 
Q 2444 -91 1538 -91 
Q 1166 -91 791 -17 
Q 416 56 38 206 
L 166 856 
Q 513 641 861 531 
Q 1209 422 1556 422 
Q 2147 422 2503 684 
Q 2859 947 2859 1369 
Q 2859 1650 2717 1795 
Q 2575 1941 2106 2059 
L 1728 2156 
Q 1081 2325 845 2545 
Q 609 2766 609 3163 
Q 609 3859 1145 4304 
Q 1681 4750 2541 4750 
Q 2875 4750 3203 4690 
Q 3531 4631 3859 4513 
z
" transform="scale(0.015625)"/>
     </defs>
     <use xlink:href="#DejaVuSans-Oblique-70"/>
     <use xlink:href="#DejaVuSans-Oblique-72" transform="translate(63.476562 0)"/>
     <use xlink:href="#DejaVuSans-Oblique-6f" transform="translate(104.589844 0)"/>
     <use xlink:href="#DejaVuSans-Oblique-64" transform="translate(165.771484 0)"/>
     <use xlink:href="#DejaVuSans-Oblique-75" transform="translate(229.248047 0)"/>
     <use xlink:href="#DejaVuSans-Oblique-63" transform="translate(292.626953 0)"/>
     <use xlink:href="#DejaVuSans-Oblique-74" transform="translate(347.607422 0)"/>
     <use xlink:href="#DejaVuSans-Oblique-20" transform="translate(386.816406 0)"/>
     <use xlink:href="#DejaVuSans-Oblique-64" transform="translate(418.603516 0)"/>
     <use xlink:href="#DejaVuSans-Oblique-75" transform="translate(482.080078 0)"/>
     <use xlink:href="#DejaVuSans-Oblique-61" transform="translate(545.458984 0)"/>
     <use xlink:href="#DejaVuSans-Oblique-6c" transform="translate(606.738281 0)"/>
     <use xlink:href="#DejaVuSans-Oblique-20" transform="translate(634.521484 0)"/>
     <use xlink:href="#DejaVuSans-Oblique-67" transform="translate(666.308594 0)"/>
     <use xlink:href="#DejaVuSans-Oblique-61" transform="translate(729.785156 0)"/>
     <use xlink:href="#DejaVuSans-Oblique-74" transform="translate(791.064453 0)"/>
     <use xlink:href="#DejaVuSans-Oblique-65" transform="translate(830.273438 0)"/>
     <use xlink:href="#DejaVuSans-Oblique-20" transform="translate(891.796875 0)"/>
     <use xlink:href="#DejaVuSans-Oblique-28" transform="translate(923.583984 0)"/>
     <use xlink:href="#DejaVuSans-Oblique-53" transform="translate(962.597656 0)"/>
     <use xlink:href="#DejaVuSans-Oblique-20" transform="translate(1026.074219 0)"/>
     <use xlink:href="#DejaVuSans-Oblique-3d" transform="translate(1057.861328 0)"/>
     <use xlink:href="#DejaVuSans-Oblique-20" transform="translate(1141.650391 0)"/>
     <use xlink:href="#DejaVuSans-Oblique-73" transform="translate(1173.4375 0)"/>
     <use xlink:href="#DejaVuSans-Oblique-65" transform="translate(1225.537109 0)"/>
     <use xlink:href="#DejaVuSans-Oblique-76" transform="translate(1287.060547 0)"/>
     <use xlink:href="#DejaVuSans-Oblique-65" transform="translate(1346.240234 0)"/>
     <use xlink:href="#DejaVuSans-Oblique-72" transform="translate(1407.763672 0)"/>
     <use xlink:href="#DejaVuSans-Oblique-69" transform="translate(1448.876953 0)"/>
     <use xlink:href="#DejaVuSans-Oblique-74" transform="translate(1476.660156 0)"/>
     <use xlink:href="#DejaVuSans-Oblique-79" transform="translate(1515.869141 0)"/>
     <use xlink:href="#DejaVuSans-Oblique-20" transform="translate(1575.048828 0)"/>
     <use xlink:href="#DejaVuSans-Oblique-6d" transform="translate(1606.835938 0)"/>
     <use xlink:href="#DejaVuSans-Oblique-6f" transform="translate(1704.248047 0)"/>
     <use xlink:href="#DejaVuSans-Oblique-6e" transform="translate(1765.429688 0)"/>
     <use xlink:href="#DejaVuSans-Oblique-6f" transform="translate(1828.808594 0)"/>
     <use xlink:href="#DejaVuSans-Oblique-69" transform="translate(1889.990234 0)"/>
     <use xlink:href="#DejaVuSans-Oblique-64" transform="translate(1917.773438 0)"/>
     <use xlink:href="#DejaVuSans-Oblique-29" transform="translate(1981.25 0)"/>
    </g>
   </g>
  </g>
 </g>
 <defs>
  <clipPath id="pa7eaea0153">
   <rect x="7.2" y="7.2" width="698.4" height="496.8"/>
  </clipPath>
 </defs>
</svg>
