<?xml version="1.0" encoding="utf-8" standalone="no"?>
<!DOCTYPE svg PUBLIC "-//W3C//DTD SVG 1.1//EN"
  "http://www.w3.org/Graphics/SVG/1.1/DTD/svg11.dtd">
<svg xmlns:xlink="http://www.w3.org/1999/xlink" width="758.311477pt" height="425.794858pt" viewBox="0 0 758.311477 425.794858" xmlns="http://www.w3.org/2000/svg" version="1.1">
 <metadata>
  <rdf:RDF xmlns:dc="http://purl.org/dc/elements/1.1/" xmlns:cc="http://creativecommons.org/ns#" xmlns:rdf="http://www.w3.org/1999/02/22-rdf-syntax-ns#">
   <cc:Work>
    <dc:type rdf:resource="http://purl.org/dc/dcmitype/StillImage"/>
    <dc:date>2026-07-12T17:27:12.939273</dc:date>
    <dc:format>image/svg+xml</dc:format>
    <dc:creator>
     <cc:Agent>
      <dc:title>Matplotlib v3.10.9, https://matplotlib.org/</dc:title>
     </cc:Agent>
    </dc:creator>
   </cc:Work>
  </rdf:RDF>
 </metadata>
 <defs>
  <style type="text/css">*{stroke-linejoin: round; stroke-linecap: butt}</style>
 </defs>
 <g id="figure_1">
  <g id="patch_1">
   <path d="M 0 425.794858 
L 758.311477 425.794858 
L 758.311477 0 
L 0 0 
z
"/>
  </g>
  <g id="axes_1">
   <g id="patch_2">
    <path d="M 56.79875 374.354545 
L 742.471477 374.354545 
L 742.471477 42.1 
L 56.79875 42.1 
z
"/>
   </g>
   <g id="matplotlib.axis_1">
    <g id="xtick_1">
     <g id="line2d_1">
      <path d="M 145.27265 374.354545 
L 145.27265 42.1 
" clip-path="url(#p53afa5b358)" style="fill: none; stroke: #2a2a2a; stroke-width: 0.6; stroke-linecap: square"/>
     </g>
     <g id="line2d_2">
      <defs>
       <path id="mb0602e3217" d="M 0 0 
L 0 3.5 
" style="stroke: #8a8a8a; stroke-width: 0.7"/>
      </defs>
      <g>
       <use xlink:href="#mb0602e3217" x="145.27265" y="374.354545" style="fill: #8a8a8a; stroke: #8a8a8a; stroke-width: 0.7"/>
      </g>
     </g>
     <g id="text_1">
      <!-- 10 -->
      <g style="fill: #8a8a8a" transform="translate(139.5464 388.193139) scale(0.09 -0.09)">
       <defs>
        <path id="DejaVuSerif-31" d="M 909 0 
L 909 331 
L 1722 331 
L 1722 4213 
L 781 3603 
L 781 4013 
L 1919 4750 
L 2350 4750 
L 2350 331 
L 3163 331 
L 3163 0 
L 909 0 
z
" transform="scale(0.015625)"/>
        <path id="DejaVuSerif-30" d="M 2034 219 
Q 2513 219 2750 744 
Q 2988 1269 2988 2328 
Q 2988 3391 2750 3916 
Q 2513 4441 2034 4441 
Q 1556 4441 1318 3916 
Q 1081 3391 1081 2328 
Q 1081 1269 1318 744 
Q 1556 219 2034 219 
z
M 2034 -91 
Q 1275 -91 848 546 
Q 422 1184 422 2328 
Q 422 3475 848 4112 
Q 1275 4750 2034 4750 
Q 2797 4750 3222 4112 
Q 3647 3475 3647 2328 
Q 3647 1184 3222 546 
Q 2797 -91 2034 -91 
z
" transform="scale(0.015625)"/>
       </defs>
       <use xlink:href="#DejaVuSerif-31"/>
       <use xlink:href="#DejaVuSerif-30" transform="translate(63.623047 0)"/>
      </g>
     </g>
    </g>
    <g id="xtick_2">
     <g id="line2d_3">
      <path d="M 255.865026 374.354545 
L 255.865026 42.1 
" clip-path="url(#p53afa5b358)" style="fill: none; stroke: #2a2a2a; stroke-width: 0.6; stroke-linecap: square"/>
     </g>
     <g id="line2d_4">
      <g>
       <use xlink:href="#mb0602e3217" x="255.865026" y="374.354545" style="fill: #8a8a8a; stroke: #8a8a8a; stroke-width: 0.7"/>
      </g>
     </g>
     <g id="text_2">
      <!-- 20 -->
      <g style="fill: #8a8a8a" transform="translate(250.138776 388.193139) scale(0.09 -0.09)">
       <defs>
        <path id="DejaVuSerif-32" d="M 819 3553 
L 469 3553 
L 469 4384 
Q 803 4563 1142 4656 
Q 1481 4750 1806 4750 
Q 2534 4750 2956 4397 
Q 3378 4044 3378 3438 
Q 3378 2753 2422 1800 
Q 2347 1728 2309 1691 
L 1131 513 
L 3078 513 
L 3078 1088 
L 3444 1088 
L 3444 0 
L 434 0 
L 434 341 
L 1850 1753 
Q 2319 2222 2519 2614 
Q 2719 3006 2719 3438 
Q 2719 3909 2473 4175 
Q 2228 4441 1797 4441 
Q 1350 4441 1106 4219 
Q 863 3997 819 3553 
z
" transform="scale(0.015625)"/>
       </defs>
       <use xlink:href="#DejaVuSerif-32"/>
       <use xlink:href="#DejaVuSerif-30" transform="translate(63.623047 0)"/>
      </g>
     </g>
    </g>
    <g id="xtick_3">
     <g id="line2d_5">
      <path d="M 366.457401 374.354545 
L 366.457401 42.1 
" clip-path="url(#p53afa5b358)" style="fill: none; stroke: #2a2a2a; stroke-width: 0.6; stroke-linecap: square"/>
     </g>
     <g id="line2d_6">
      <g>
       <use xlink:href="#mb0602e3217" x="366.457401" y="374.354545" style="fill: #8a8a8a; stroke: #8a8a8a; stroke-width: 0.7"/>
      </g>
     </g>
     <g id="text_3">
      <!-- 30 -->
      <g style="fill: #8a8a8a" transform="translate(360.731151 388.193139) scale(0.09 -0.09)">
       <defs>
        <path id="DejaVuSerif-33" d="M 622 4469 
Q 988 4606 1323 4678 
Q 1659 4750 1953 4750 
Q 2638 4750 3022 4454 
Q 3406 4159 3406 3634 
Q 3406 3213 3140 2930 
Q 2875 2647 2388 2547 
Q 2963 2466 3280 2130 
Q 3597 1794 3597 1259 
Q 3597 606 3158 257 
Q 2719 -91 1894 -91 
Q 1528 -91 1179 -12 
Q 831 66 488 225 
L 488 1131 
L 838 1131 
Q 869 681 1141 450 
Q 1413 219 1906 219 
Q 2384 219 2661 495 
Q 2938 772 2938 1253 
Q 2938 1803 2653 2086 
Q 2369 2369 1819 2369 
L 1522 2369 
L 1522 2688 
L 1678 2688 
Q 2225 2688 2498 2914 
Q 2772 3141 2772 3597 
Q 2772 4006 2547 4223 
Q 2322 4441 1900 4441 
Q 1478 4441 1245 4241 
Q 1013 4041 972 3647 
L 622 3647 
L 622 4469 
z
" transform="scale(0.015625)"/>
       </defs>
       <use xlink:href="#DejaVuSerif-33"/>
       <use xlink:href="#DejaVuSerif-30" transform="translate(63.623047 0)"/>
      </g>
     </g>
    </g>
    <g id="xtick_4">
     <g id="line2d_7">
      <path d="M 477.049776 374.354545 
L 477.049776 42.1 
" clip-path="url(#p53afa5b358)" style="fill: none; stroke: #2a2a2a; stroke-width: 0.6; stroke-linecap: square"/>
     </g>
     <g id="line2d_8">
      <g>
       <use xlink:href="#mb0602e3217" x="477.049776" y="374.354545" style="fill: #8a8a8a; stroke: #8a8a8a; stroke-width: 0.7"/>
      </g>
     </g>
     <g id="text_4">
      <!-- 40 -->
      <g style="fill: #8a8a8a" transform="translate(471.323526 388.193139) scale(0.09 -0.09)">
       <defs>
        <path id="DejaVuSerif-34" d="M 2234 1581 
L 2234 4063 
L 641 1581 
L 2234 1581 
z
M 3609 0 
L 1484 0 
L 1484 331 
L 2234 331 
L 2234 1247 
L 197 1247 
L 197 1588 
L 2241 4750 
L 2859 4750 
L 2859 1581 
L 3750 1581 
L 3750 1247 
L 2859 1247 
L 2859 331 
L 3609 331 
L 3609 0 
z
" transform="scale(0.015625)"/>
       </defs>
       <use xlink:href="#DejaVuSerif-34"/>
       <use xlink:href="#DejaVuSerif-30" transform="translate(63.623047 0)"/>
      </g>
     </g>
    </g>
    <g id="xtick_5">
     <g id="line2d_9">
      <path d="M 587.642152 374.354545 
L 587.642152 42.1 
" clip-path="url(#p53afa5b358)" style="fill: none; stroke: #2a2a2a; stroke-width: 0.6; stroke-linecap: square"/>
     </g>
     <g id="line2d_10">
      <g>
       <use xlink:href="#mb0602e3217" x="587.642152" y="374.354545" style="fill: #8a8a8a; stroke: #8a8a8a; stroke-width: 0.7"/>
      </g>
     </g>
     <g id="text_5">
      <!-- 50 -->
      <g style="fill: #8a8a8a" transform="translate(581.915902 388.193139) scale(0.09 -0.09)">
       <defs>
        <path id="DejaVuSerif-35" d="M 3219 4666 
L 3219 4153 
L 1081 4153 
L 1081 2816 
Q 1244 2928 1461 2984 
Q 1678 3041 1947 3041 
Q 2703 3041 3140 2622 
Q 3578 2203 3578 1478 
Q 3578 738 3136 323 
Q 2694 -91 1894 -91 
Q 1572 -91 1234 -12 
Q 897 66 544 225 
L 544 1131 
L 897 1131 
Q 925 688 1179 453 
Q 1434 219 1894 219 
Q 2388 219 2653 544 
Q 2919 869 2919 1478 
Q 2919 2084 2655 2407 
Q 2391 2731 1894 2731 
Q 1613 2731 1398 2631 
Q 1184 2531 1019 2322 
L 750 2322 
L 750 4666 
L 3219 4666 
z
" transform="scale(0.015625)"/>
       </defs>
       <use xlink:href="#DejaVuSerif-35"/>
       <use xlink:href="#DejaVuSerif-30" transform="translate(63.623047 0)"/>
      </g>
     </g>
    </g>
    <g id="xtick_6">
     <g id="line2d_11">
      <path d="M 698.234527 374.354545 
L 698.234527 42.1 
" clip-path="url(#p53afa5b358)" style="fill: none; stroke: #2a2a2a; stroke-width: 0.6; stroke-linecap: square"/>
     </g>
     <g id="line2d_12">
      <g>
       <use xlink:href="#mb0602e3217" x="698.234527" y="374.354545" style="fill: #8a8a8a; stroke: #8a8a8a; stroke-width: 0.7"/>
      </g>
     </g>
     <g id="text_6">
      <!-- 60 -->
      <g style="fill: #8a8a8a" transform="translate(692.508277 388.193139) scale(0.09 -0.09)">
       <defs>
        <path id="DejaVuSerif-36" d="M 2094 219 
Q 2534 219 2771 542 
Q 3009 866 3009 1472 
Q 3009 2078 2771 2401 
Q 2534 2725 2094 2725 
Q 1647 2725 1412 2412 
Q 1178 2100 1178 1509 
Q 1178 888 1415 553 
Q 1653 219 2094 219 
z
M 1075 2569 
Q 1288 2803 1556 2918 
Q 1825 3034 2163 3034 
Q 2859 3034 3264 2615 
Q 3669 2197 3669 1472 
Q 3669 763 3233 336 
Q 2797 -91 2069 -91 
Q 1278 -91 853 498 
Q 428 1088 428 2181 
Q 428 3406 931 4078 
Q 1434 4750 2350 4750 
Q 2597 4750 2869 4703 
Q 3141 4656 3425 4563 
L 3425 3794 
L 3072 3794 
Q 3034 4109 2831 4275 
Q 2628 4441 2284 4441 
Q 1678 4441 1381 3981 
Q 1084 3522 1075 2569 
z
" transform="scale(0.015625)"/>
       </defs>
       <use xlink:href="#DejaVuSerif-36"/>
       <use xlink:href="#DejaVuSerif-30" transform="translate(63.623047 0)"/>
      </g>
     </g>
    </g>
    <g id="text_7">
     <!-- branching factor  $k$ -->
     <g style="fill: #8a8a8a" transform="translate(346.560114 407.424858) scale(0.11 -0.11)">
      <defs>
       <path id="DejaVuSerif-62" d="M 738 331 
L 738 4531 
L 184 4531 
L 184 4863 
L 1313 4863 
L 1313 2803 
Q 1481 3116 1742 3264 
Q 2003 3413 2388 3413 
Q 3000 3413 3387 2928 
Q 3775 2444 3775 1663 
Q 3775 881 3387 395 
Q 3000 -91 2388 -91 
Q 2003 -91 1742 57 
Q 1481 206 1313 519 
L 1313 0 
L 184 0 
L 184 331 
L 738 331 
z
M 1313 1497 
Q 1313 897 1542 583 
Q 1772 269 2209 269 
Q 2650 269 2876 622 
Q 3103 975 3103 1663 
Q 3103 2353 2876 2703 
Q 2650 3053 2209 3053 
Q 1772 3053 1542 2737 
Q 1313 2422 1313 1825 
L 1313 1497 
z
" transform="scale(0.015625)"/>
       <path id="DejaVuSerif-72" d="M 3059 3328 
L 3059 2497 
L 2728 2497 
Q 2713 2744 2591 2866 
Q 2469 2988 2234 2988 
Q 1809 2988 1582 2694 
Q 1356 2400 1356 1850 
L 1356 331 
L 2022 331 
L 2022 0 
L 263 0 
L 263 331 
L 781 331 
L 781 2994 
L 231 2994 
L 231 3322 
L 1356 3322 
L 1356 2731 
Q 1525 3078 1790 3245 
Q 2056 3413 2438 3413 
Q 2578 3413 2733 3391 
Q 2888 3369 3059 3328 
z
" transform="scale(0.015625)"/>
       <path id="DejaVuSerif-61" d="M 2547 1044 
L 2547 1747 
L 1806 1747 
Q 1378 1747 1168 1562 
Q 959 1378 959 997 
Q 959 650 1171 447 
Q 1384 244 1747 244 
Q 2106 244 2326 466 
Q 2547 688 2547 1044 
z
M 3122 2075 
L 3122 331 
L 3634 331 
L 3634 0 
L 2547 0 
L 2547 359 
Q 2356 128 2106 18 
Q 1856 -91 1522 -91 
Q 969 -91 644 203 
Q 319 497 319 997 
Q 319 1513 691 1797 
Q 1063 2081 1741 2081 
L 2547 2081 
L 2547 2309 
Q 2547 2688 2317 2895 
Q 2088 3103 1672 3103 
Q 1328 3103 1125 2947 
Q 922 2791 872 2484 
L 575 2484 
L 575 3156 
Q 875 3284 1158 3348 
Q 1441 3413 1709 3413 
Q 2400 3413 2761 3070 
Q 3122 2728 3122 2075 
z
" transform="scale(0.015625)"/>
       <path id="DejaVuSerif-6e" d="M 263 0 
L 263 331 
L 781 331 
L 781 2988 
L 231 2988 
L 231 3322 
L 1356 3322 
L 1356 2731 
Q 1516 3069 1770 3241 
Q 2025 3413 2363 3413 
Q 2913 3413 3172 3097 
Q 3431 2781 3431 2113 
L 3431 331 
L 3944 331 
L 3944 0 
L 2356 0 
L 2356 331 
L 2853 331 
L 2853 1931 
Q 2853 2541 2703 2767 
Q 2553 2994 2175 2994 
Q 1775 2994 1565 2701 
Q 1356 2409 1356 1850 
L 1356 331 
L 1856 331 
L 1856 0 
L 263 0 
z
" transform="scale(0.015625)"/>
       <path id="DejaVuSerif-63" d="M 3291 997 
Q 3169 466 2822 187 
Q 2475 -91 1925 -91 
Q 1200 -91 759 389 
Q 319 869 319 1663 
Q 319 2459 759 2936 
Q 1200 3413 1925 3413 
Q 2241 3413 2553 3339 
Q 2866 3266 3181 3116 
L 3181 2266 
L 2847 2266 
Q 2781 2703 2561 2903 
Q 2341 3103 1931 3103 
Q 1466 3103 1228 2742 
Q 991 2381 991 1663 
Q 991 944 1227 581 
Q 1463 219 1931 219 
Q 2303 219 2525 412 
Q 2747 606 2828 997 
L 3291 997 
z
" transform="scale(0.015625)"/>
       <path id="DejaVuSerif-68" d="M 263 0 
L 263 331 
L 781 331 
L 781 4531 
L 231 4531 
L 231 4863 
L 1356 4863 
L 1356 2731 
Q 1516 3069 1770 3241 
Q 2025 3413 2363 3413 
Q 2913 3413 3172 3097 
Q 3431 2781 3431 2113 
L 3431 331 
L 3944 331 
L 3944 0 
L 2356 0 
L 2356 331 
L 2853 331 
L 2853 1931 
Q 2853 2541 2704 2764 
Q 2556 2988 2175 2988 
Q 1775 2988 1565 2697 
Q 1356 2406 1356 1850 
L 1356 331 
L 1856 331 
L 1856 0 
L 263 0 
z
" transform="scale(0.015625)"/>
       <path id="DejaVuSerif-69" d="M 622 4353 
Q 622 4497 726 4603 
Q 831 4709 978 4709 
Q 1122 4709 1226 4603 
Q 1331 4497 1331 4353 
Q 1331 4206 1228 4103 
Q 1125 4000 978 4000 
Q 831 4000 726 4103 
Q 622 4206 622 4353 
z
M 1356 331 
L 1900 331 
L 1900 0 
L 231 0 
L 231 331 
L 781 331 
L 781 2988 
L 231 2988 
L 231 3322 
L 1356 3322 
L 1356 331 
z
" transform="scale(0.015625)"/>
       <path id="DejaVuSerif-67" d="M 3359 2988 
L 3359 72 
Q 3359 -644 2965 -1033 
Q 2572 -1422 1844 -1422 
Q 1516 -1422 1216 -1362 
Q 916 -1303 641 -1184 
L 641 -488 
L 941 -488 
Q 997 -813 1206 -963 
Q 1416 -1113 1806 -1113 
Q 2313 -1113 2548 -827 
Q 2784 -541 2784 72 
L 2784 519 
Q 2616 206 2355 57 
Q 2094 -91 1709 -91 
Q 1097 -91 708 395 
Q 319 881 319 1663 
Q 319 2444 706 2928 
Q 1094 3413 1709 3413 
Q 2094 3413 2355 3264 
Q 2616 3116 2784 2803 
L 2784 3322 
L 3909 3322 
L 3909 2988 
L 3359 2988 
z
M 2784 1825 
Q 2784 2422 2554 2737 
Q 2325 3053 1888 3053 
Q 1444 3053 1217 2703 
Q 991 2353 991 1663 
Q 991 975 1217 622 
Q 1444 269 1888 269 
Q 2325 269 2554 583 
Q 2784 897 2784 1497 
L 2784 1825 
z
" transform="scale(0.015625)"/>
       <path id="DejaVuSerif-20" transform="scale(0.015625)"/>
       <path id="DejaVuSerif-66" d="M 2753 4078 
L 2450 4078 
Q 2447 4313 2317 4434 
Q 2188 4556 1941 4556 
Q 1619 4556 1487 4379 
Q 1356 4203 1356 3750 
L 1356 3322 
L 2284 3322 
L 2284 2988 
L 1356 2988 
L 1356 331 
L 2094 331 
L 2094 0 
L 231 0 
L 231 331 
L 781 331 
L 781 2988 
L 231 2988 
L 231 3322 
L 781 3322 
L 781 3738 
Q 781 4294 1070 4578 
Q 1359 4863 1919 4863 
Q 2128 4863 2337 4825 
Q 2547 4788 2753 4709 
L 2753 4078 
z
" transform="scale(0.015625)"/>
       <path id="DejaVuSerif-74" d="M 691 2988 
L 184 2988 
L 184 3322 
L 691 3322 
L 691 4353 
L 1269 4353 
L 1269 3322 
L 2350 3322 
L 2350 2988 
L 1269 2988 
L 1269 878 
Q 1269 456 1350 337 
Q 1431 219 1650 219 
Q 1875 219 1978 351 
Q 2081 484 2088 781 
L 2522 781 
Q 2497 328 2275 118 
Q 2053 -91 1600 -91 
Q 1103 -91 897 129 
Q 691 350 691 878 
L 691 2988 
z
" transform="scale(0.015625)"/>
       <path id="DejaVuSerif-6f" d="M 1925 219 
Q 2388 219 2623 584 
Q 2859 950 2859 1663 
Q 2859 2375 2623 2739 
Q 2388 3103 1925 3103 
Q 1463 3103 1227 2739 
Q 991 2375 991 1663 
Q 991 950 1228 584 
Q 1466 219 1925 219 
z
M 1925 -91 
Q 1200 -91 759 389 
Q 319 869 319 1663 
Q 319 2456 758 2934 
Q 1197 3413 1925 3413 
Q 2653 3413 3092 2934 
Q 3531 2456 3531 1663 
Q 3531 869 3092 389 
Q 2653 -91 1925 -91 
z
" transform="scale(0.015625)"/>
       <path id="Cmmi10-6b" d="M 341 116 
Q 341 153 347 172 
L 1275 3872 
Q 1300 3981 1306 4044 
Q 1306 4147 891 4147 
Q 825 4147 825 4231 
Q 828 4247 839 4287 
Q 850 4328 867 4350 
Q 884 4372 916 4372 
L 1778 4441 
L 1797 4441 
Q 1797 4434 1819 4423 
Q 1841 4413 1844 4409 
Q 1856 4378 1856 4359 
L 1184 1684 
Q 1416 1781 1767 2145 
Q 2119 2509 2317 2668 
Q 2516 2828 2816 2828 
Q 2994 2828 3119 2706 
Q 3244 2584 3244 2406 
Q 3244 2294 3197 2198 
Q 3150 2103 3065 2043 
Q 2981 1984 2869 1984 
Q 2766 1984 2695 2048 
Q 2625 2113 2625 2216 
Q 2625 2369 2733 2473 
Q 2841 2578 2994 2578 
Q 2931 2663 2803 2663 
Q 2613 2663 2436 2553 
Q 2259 2444 2054 2239 
Q 1850 2034 1681 1864 
Q 1513 1694 1369 1606 
Q 1747 1563 2025 1408 
Q 2303 1253 2303 934 
Q 2303 869 2278 769 
Q 2222 528 2222 384 
Q 2222 97 2419 97 
Q 2650 97 2770 350 
Q 2891 603 2969 941 
Q 2981 978 3022 978 
L 3097 978 
Q 3122 978 3139 962 
Q 3156 947 3156 922 
Q 3156 916 3150 903 
Q 2909 -72 2406 -72 
Q 2225 -72 2086 12 
Q 1947 97 1872 242 
Q 1797 388 1797 569 
Q 1797 672 1825 781 
Q 1844 856 1844 922 
Q 1844 1169 1625 1297 
Q 1406 1425 1125 1453 
L 800 147 
Q 775 50 703 -11 
Q 631 -72 538 -72 
Q 456 -72 398 -17 
Q 341 38 341 116 
z
" transform="scale(0.015625)"/>
      </defs>
      <use xlink:href="#DejaVuSerif-62" transform="translate(0 0.015625)"/>
      <use xlink:href="#DejaVuSerif-72" transform="translate(64.013672 0.015625)"/>
      <use xlink:href="#DejaVuSerif-61" transform="translate(111.816406 0.015625)"/>
      <use xlink:href="#DejaVuSerif-6e" transform="translate(171.435547 0.015625)"/>
      <use xlink:href="#DejaVuSerif-63" transform="translate(235.839844 0.015625)"/>
      <use xlink:href="#DejaVuSerif-68" transform="translate(291.845703 0.015625)"/>
      <use xlink:href="#DejaVuSerif-69" transform="translate(356.25 0.015625)"/>
      <use xlink:href="#DejaVuSerif-6e" transform="translate(388.232422 0.015625)"/>
      <use xlink:href="#DejaVuSerif-67" transform="translate(452.636719 0.015625)"/>
      <use xlink:href="#DejaVuSerif-20" transform="translate(516.650391 0.015625)"/>
      <use xlink:href="#DejaVuSerif-66" transform="translate(548.4375 0.015625)"/>
      <use xlink:href="#DejaVuSerif-61" transform="translate(585.449219 0.015625)"/>
      <use xlink:href="#DejaVuSerif-63" transform="translate(645.068359 0.015625)"/>
      <use xlink:href="#DejaVuSerif-74" transform="translate(701.074219 0.015625)"/>
      <use xlink:href="#DejaVuSerif-6f" transform="translate(741.259766 0.015625)"/>
      <use xlink:href="#DejaVuSerif-72" transform="translate(801.464844 0.015625)"/>
      <use xlink:href="#DejaVuSerif-20" transform="translate(849.267578 0.015625)"/>
      <use xlink:href="#DejaVuSerif-20" transform="translate(881.054688 0.015625)"/>
      <use xlink:href="#Cmmi10-6b" transform="translate(912.841797 0.015625)"/>
     </g>
    </g>
   </g>
   <g id="matplotlib.axis_2">
    <g id="ytick_1">
     <g id="line2d_13">
      <path d="M 56.79875 368.525518 
L 742.471477 368.525518 
" clip-path="url(#p53afa5b358)" style="fill: none; stroke: #2a2a2a; stroke-width: 0.6; stroke-linecap: square"/>
     </g>
     <g id="line2d_14">
      <defs>
       <path id="m35f2bba146" d="M 0 0 
L -3.5 0 
" style="stroke: #8a8a8a; stroke-width: 0.7"/>
      </defs>
      <g>
       <use xlink:href="#m35f2bba146" x="56.79875" y="368.525518" style="fill: #8a8a8a; stroke: #8a8a8a; stroke-width: 0.7"/>
      </g>
     </g>
     <g id="text_8">
      <!-- 0.0 -->
      <g style="fill: #8a8a8a" transform="translate(35.485938 371.944815) scale(0.09 -0.09)">
       <defs>
        <path id="DejaVuSerif-2e" d="M 603 325 
Q 603 500 722 622 
Q 841 744 1019 744 
Q 1191 744 1312 622 
Q 1434 500 1434 325 
Q 1434 153 1312 31 
Q 1191 -91 1019 -91 
Q 841 -91 722 29 
Q 603 150 603 325 
z
" transform="scale(0.015625)"/>
       </defs>
       <use xlink:href="#DejaVuSerif-30"/>
       <use xlink:href="#DejaVuSerif-2e" transform="translate(63.623047 0)"/>
       <use xlink:href="#DejaVuSerif-30" transform="translate(95.410156 0)"/>
      </g>
     </g>
    </g>
    <g id="ytick_2">
     <g id="line2d_15">
      <path d="M 56.79875 310.235247 
L 742.471477 310.235247 
" clip-path="url(#p53afa5b358)" style="fill: none; stroke: #2a2a2a; stroke-width: 0.6; stroke-linecap: square"/>
     </g>
     <g id="line2d_16">
      <g>
       <use xlink:href="#m35f2bba146" x="56.79875" y="310.235247" style="fill: #8a8a8a; stroke: #8a8a8a; stroke-width: 0.7"/>
      </g>
     </g>
     <g id="text_9">
      <!-- 0.2 -->
      <g style="fill: #8a8a8a" transform="translate(35.485938 313.654544) scale(0.09 -0.09)">
       <use xlink:href="#DejaVuSerif-30"/>
       <use xlink:href="#DejaVuSerif-2e" transform="translate(63.623047 0)"/>
       <use xlink:href="#DejaVuSerif-32" transform="translate(95.410156 0)"/>
      </g>
     </g>
    </g>
    <g id="ytick_3">
     <g id="line2d_17">
      <path d="M 56.79875 251.944976 
L 742.471477 251.944976 
" clip-path="url(#p53afa5b358)" style="fill: none; stroke: #2a2a2a; stroke-width: 0.6; stroke-linecap: square"/>
     </g>
     <g id="line2d_18">
      <g>
       <use xlink:href="#m35f2bba146" x="56.79875" y="251.944976" style="fill: #8a8a8a; stroke: #8a8a8a; stroke-width: 0.7"/>
      </g>
     </g>
     <g id="text_10">
      <!-- 0.4 -->
      <g style="fill: #8a8a8a" transform="translate(35.485938 255.364273) scale(0.09 -0.09)">
       <use xlink:href="#DejaVuSerif-30"/>
       <use xlink:href="#DejaVuSerif-2e" transform="translate(63.623047 0)"/>
       <use xlink:href="#DejaVuSerif-34" transform="translate(95.410156 0)"/>
      </g>
     </g>
    </g>
    <g id="ytick_4">
     <g id="line2d_19">
      <path d="M 56.79875 193.654705 
L 742.471477 193.654705 
" clip-path="url(#p53afa5b358)" style="fill: none; stroke: #2a2a2a; stroke-width: 0.6; stroke-linecap: square"/>
     </g>
     <g id="line2d_20">
      <g>
       <use xlink:href="#m35f2bba146" x="56.79875" y="193.654705" style="fill: #8a8a8a; stroke: #8a8a8a; stroke-width: 0.7"/>
      </g>
     </g>
     <g id="text_11">
      <!-- 0.6 -->
      <g style="fill: #8a8a8a" transform="translate(35.485938 197.074002) scale(0.09 -0.09)">
       <use xlink:href="#DejaVuSerif-30"/>
       <use xlink:href="#DejaVuSerif-2e" transform="translate(63.623047 0)"/>
       <use xlink:href="#DejaVuSerif-36" transform="translate(95.410156 0)"/>
      </g>
     </g>
    </g>
    <g id="ytick_5">
     <g id="line2d_21">
      <path d="M 56.79875 135.364434 
L 742.471477 135.364434 
" clip-path="url(#p53afa5b358)" style="fill: none; stroke: #2a2a2a; stroke-width: 0.6; stroke-linecap: square"/>
     </g>
     <g id="line2d_22">
      <g>
       <use xlink:href="#m35f2bba146" x="56.79875" y="135.364434" style="fill: #8a8a8a; stroke: #8a8a8a; stroke-width: 0.7"/>
      </g>
     </g>
     <g id="text_12">
      <!-- 0.8 -->
      <g style="fill: #8a8a8a" transform="translate(35.485938 138.783731) scale(0.09 -0.09)">
       <defs>
        <path id="DejaVuSerif-38" d="M 2981 1275 
Q 2981 1775 2732 2051 
Q 2484 2328 2034 2328 
Q 1584 2328 1336 2051 
Q 1088 1775 1088 1275 
Q 1088 772 1336 495 
Q 1584 219 2034 219 
Q 2484 219 2732 495 
Q 2981 772 2981 1275 
z
M 2853 3541 
Q 2853 3966 2637 4203 
Q 2422 4441 2034 4441 
Q 1650 4441 1433 4203 
Q 1216 3966 1216 3541 
Q 1216 3113 1433 2875 
Q 1650 2638 2034 2638 
Q 2422 2638 2637 2875 
Q 2853 3113 2853 3541 
z
M 2516 2484 
Q 3047 2413 3344 2092 
Q 3641 1772 3641 1275 
Q 3641 619 3225 264 
Q 2809 -91 2034 -91 
Q 1263 -91 845 264 
Q 428 619 428 1275 
Q 428 1772 725 2092 
Q 1022 2413 1556 2484 
Q 1084 2569 832 2842 
Q 581 3116 581 3541 
Q 581 4103 968 4426 
Q 1356 4750 2034 4750 
Q 2713 4750 3100 4426 
Q 3488 4103 3488 3541 
Q 3488 3116 3236 2842 
Q 2984 2569 2516 2484 
z
" transform="scale(0.015625)"/>
       </defs>
       <use xlink:href="#DejaVuSerif-30"/>
       <use xlink:href="#DejaVuSerif-2e" transform="translate(63.623047 0)"/>
       <use xlink:href="#DejaVuSerif-38" transform="translate(95.410156 0)"/>
      </g>
     </g>
    </g>
    <g id="ytick_6">
     <g id="line2d_23">
      <path d="M 56.79875 77.074163 
L 742.471477 77.074163 
" clip-path="url(#p53afa5b358)" style="fill: none; stroke: #2a2a2a; stroke-width: 0.6; stroke-linecap: square"/>
     </g>
     <g id="line2d_24">
      <g>
       <use xlink:href="#m35f2bba146" x="56.79875" y="77.074163" style="fill: #8a8a8a; stroke: #8a8a8a; stroke-width: 0.7"/>
      </g>
     </g>
     <g id="text_13">
      <!-- 1.0 -->
      <g style="fill: #8a8a8a" transform="translate(35.485938 80.49346) scale(0.09 -0.09)">
       <use xlink:href="#DejaVuSerif-31"/>
       <use xlink:href="#DejaVuSerif-2e" transform="translate(63.623047 0)"/>
       <use xlink:href="#DejaVuSerif-30" transform="translate(95.410156 0)"/>
      </g>
     </g>
    </g>
    <g id="text_14">
     <!-- $\mathrm{Gap}=D_{\mathrm{ad}}-D_{\mathrm{na}}$ -->
     <g style="fill: #8a8a8a" transform="translate(24.198281 248.707273) rotate(-90) scale(0.11 -0.11)">
      <defs>
       <path id="Cmr10-47" d="M 1472 684 
Q 1703 403 2036 243 
Q 2369 84 2731 84 
Q 3088 84 3378 265 
Q 3669 447 3669 781 
L 3669 1319 
Q 3669 1522 2869 1522 
L 2869 1747 
L 4703 1747 
L 4703 1522 
Q 4500 1522 4381 1487 
Q 4263 1453 4263 1319 
L 4263 56 
Q 4263 34 4245 17 
Q 4228 0 4206 0 
Q 4147 0 4008 140 
Q 3869 281 3788 391 
Q 3631 122 3297 -9 
Q 2963 -141 2597 -141 
Q 1975 -141 1464 179 
Q 953 500 656 1036 
Q 359 1572 359 2188 
Q 359 2641 531 3069 
Q 703 3497 1011 3822 
Q 1319 4147 1728 4330 
Q 2138 4513 2597 4513 
Q 2928 4513 3223 4370 
Q 3519 4228 3750 3969 
L 4122 4494 
Q 4159 4513 4166 4513 
L 4213 4513 
Q 4231 4513 4247 4497 
Q 4263 4481 4263 4459 
L 4263 2731 
Q 4263 2675 4213 2675 
L 4097 2675 
Q 4038 2675 4038 2731 
Q 4038 2916 3964 3144 
Q 3891 3372 3777 3576 
Q 3663 3781 3513 3938 
Q 3153 4288 2688 4288 
Q 2331 4288 2006 4128 
Q 1681 3969 1459 3688 
Q 1225 3388 1134 3005 
Q 1044 2622 1044 2188 
Q 1044 1206 1472 684 
z
" transform="scale(0.015625)"/>
       <path id="Cmr10-61" d="M 256 628 
Q 256 1009 556 1248 
Q 856 1488 1276 1586 
Q 1697 1684 2075 1684 
L 2075 1947 
Q 2075 2131 1994 2304 
Q 1913 2478 1759 2589 
Q 1606 2700 1422 2700 
Q 997 2700 775 2509 
Q 897 2509 976 2417 
Q 1056 2325 1056 2203 
Q 1056 2075 965 1984 
Q 875 1894 750 1894 
Q 622 1894 531 1984 
Q 441 2075 441 2203 
Q 441 2541 747 2705 
Q 1053 2869 1422 2869 
Q 1681 2869 1943 2758 
Q 2206 2647 2373 2440 
Q 2541 2234 2541 1959 
L 2541 519 
Q 2541 394 2594 289 
Q 2647 184 2759 184 
Q 2866 184 2917 290 
Q 2969 397 2969 519 
L 2969 928 
L 3156 928 
L 3156 519 
Q 3156 375 3081 245 
Q 3006 116 2879 39 
Q 2753 -38 2606 -38 
Q 2419 -38 2283 107 
Q 2147 253 2131 453 
Q 2013 213 1781 70 
Q 1550 -72 1288 -72 
Q 1044 -72 808 0 
Q 572 72 414 226 
Q 256 381 256 628 
z
M 775 628 
Q 775 403 940 250 
Q 1106 97 1331 97 
Q 1538 97 1706 200 
Q 1875 303 1975 481 
Q 2075 659 2075 856 
L 2075 1522 
Q 1784 1522 1479 1426 
Q 1175 1331 975 1128 
Q 775 925 775 628 
z
" transform="scale(0.015625)"/>
       <path id="Cmr10-70" d="M 166 -1241 
L 166 -1019 
Q 384 -1019 525 -981 
Q 666 -944 666 -813 
L 666 2272 
Q 666 2447 541 2490 
Q 416 2534 166 2534 
L 166 2759 
L 1113 2828 
L 1113 2431 
Q 1288 2625 1520 2726 
Q 1753 2828 2016 2828 
Q 2394 2828 2697 2623 
Q 3000 2419 3170 2086 
Q 3341 1753 3341 1381 
Q 3341 994 3152 659 
Q 2963 325 2636 126 
Q 2309 -72 1919 -72 
Q 1453 -72 1131 306 
L 1131 -813 
Q 1131 -944 1273 -981 
Q 1416 -1019 1631 -1019 
L 1631 -1241 
L 166 -1241 
z
M 1131 622 
Q 1244 394 1444 245 
Q 1644 97 1881 97 
Q 2103 97 2273 215 
Q 2444 334 2559 534 
Q 2675 734 2729 954 
Q 2784 1175 2784 1381 
Q 2784 1638 2692 1936 
Q 2600 2234 2411 2439 
Q 2222 2644 1953 2644 
Q 1694 2644 1476 2511 
Q 1259 2378 1131 2150 
L 1131 622 
z
" transform="scale(0.015625)"/>
       <path id="Cmr10-3d" d="M 481 850 
Q 428 850 393 890 
Q 359 931 359 978 
Q 359 1031 393 1068 
Q 428 1106 481 1106 
L 4500 1106 
Q 4547 1106 4581 1068 
Q 4616 1031 4616 978 
Q 4616 931 4581 890 
Q 4547 850 4500 850 
L 481 850 
z
M 481 2094 
Q 428 2094 393 2131 
Q 359 2169 359 2222 
Q 359 2269 393 2309 
Q 428 2350 481 2350 
L 4500 2350 
Q 4547 2350 4581 2309 
Q 4616 2269 4616 2222 
Q 4616 2169 4581 2131 
Q 4547 2094 4500 2094 
L 481 2094 
z
" transform="scale(0.015625)"/>
       <path id="Cmmi10-44" d="M 313 0 
Q 250 0 250 84 
Q 253 100 262 139 
Q 272 178 289 201 
Q 306 225 331 225 
Q 722 225 878 269 
Q 959 297 997 441 
L 1875 3956 
Q 1888 4019 1888 4044 
Q 1888 4113 1813 4122 
Q 1691 4147 1350 4147 
Q 1288 4147 1288 4231 
Q 1291 4247 1300 4286 
Q 1309 4325 1326 4348 
Q 1344 4372 1369 4372 
L 3669 4372 
Q 4116 4372 4450 4155 
Q 4784 3938 4962 3570 
Q 5141 3203 5141 2759 
Q 5141 2269 4937 1778 
Q 4734 1288 4368 881 
Q 4003 475 3534 237 
Q 3066 0 2572 0 
L 313 0 
z
M 1509 275 
Q 1509 225 1728 225 
L 2472 225 
Q 2828 225 3159 372 
Q 3491 519 3750 775 
Q 3991 1016 4175 1406 
Q 4359 1797 4461 2222 
Q 4563 2647 4563 3003 
Q 4563 3263 4486 3472 
Q 4409 3681 4270 3831 
Q 4131 3981 3922 4064 
Q 3713 4147 3450 4147 
L 2747 4147 
Q 2572 4147 2515 4117 
Q 2459 4088 2413 3928 
L 1538 416 
Q 1509 338 1509 275 
z
" transform="scale(0.015625)"/>
       <path id="Cmr10-64" d="M 1563 -72 
Q 1184 -72 871 133 
Q 559 338 386 672 
Q 213 1006 213 1381 
Q 213 1769 402 2101 
Q 591 2434 916 2631 
Q 1241 2828 1631 2828 
Q 1866 2828 2075 2729 
Q 2284 2631 2438 2456 
L 2438 3788 
Q 2438 3959 2386 4036 
Q 2334 4113 2239 4130 
Q 2144 4147 1941 4147 
L 1941 4372 
L 2888 4441 
L 2888 581 
Q 2888 413 2939 336 
Q 2991 259 3086 242 
Q 3181 225 3384 225 
L 3384 0 
L 2419 -72 
L 2419 331 
Q 2253 141 2025 34 
Q 1797 -72 1563 -72 
z
M 909 556 
Q 1019 347 1201 222 
Q 1384 97 1600 97 
Q 1866 97 2087 250 
Q 2309 403 2419 647 
L 2419 2181 
Q 2344 2322 2230 2433 
Q 2116 2544 1973 2603 
Q 1831 2663 1672 2663 
Q 1338 2663 1134 2473 
Q 931 2284 850 1990 
Q 769 1697 769 1375 
Q 769 1119 795 928 
Q 822 738 909 556 
z
" transform="scale(0.015625)"/>
       <path id="Cmsy10-a1" d="M 653 1472 
Q 600 1472 565 1512 
Q 531 1553 531 1600 
Q 531 1647 565 1687 
Q 600 1728 653 1728 
L 4325 1728 
Q 4375 1728 4408 1687 
Q 4441 1647 4441 1600 
Q 4441 1553 4408 1512 
Q 4375 1472 4325 1472 
L 653 1472 
z
" transform="scale(0.015625)"/>
       <path id="Cmr10-6e" d="M 191 0 
L 191 225 
Q 409 225 550 259 
Q 691 294 691 428 
L 691 2175 
Q 691 2347 639 2423 
Q 588 2500 491 2517 
Q 394 2534 191 2534 
L 191 2759 
L 1119 2828 
L 1119 2203 
Q 1247 2478 1498 2653 
Q 1750 2828 2047 2828 
Q 2491 2828 2714 2615 
Q 2938 2403 2938 1966 
L 2938 428 
Q 2938 294 3078 259 
Q 3219 225 3438 225 
L 3438 0 
L 1972 0 
L 1972 225 
Q 2191 225 2331 259 
Q 2472 294 2472 428 
L 2472 1947 
Q 2472 2259 2381 2461 
Q 2291 2663 2009 2663 
Q 1638 2663 1398 2366 
Q 1159 2069 1159 1691 
L 1159 428 
Q 1159 294 1300 259 
Q 1441 225 1656 225 
L 1656 0 
L 191 0 
z
" transform="scale(0.015625)"/>
      </defs>
      <use xlink:href="#Cmr10-47" transform="translate(0 0.484375)"/>
      <use xlink:href="#Cmr10-61" transform="translate(78.417969 0.484375)"/>
      <use xlink:href="#Cmr10-70" transform="translate(128.417969 0.484375)"/>
      <use xlink:href="#Cmr10-3d" transform="translate(201.494141 0.484375)"/>
      <use xlink:href="#Cmmi10-44" transform="translate(296.738281 0.484375)"/>
      <use xlink:href="#Cmr10-61" transform="translate(379.453125 -16.521875) scale(0.7)"/>
      <use xlink:href="#Cmr10-64" transform="translate(414.453125 -16.521875) scale(0.7)"/>
      <use xlink:href="#Cmsy10-a1" transform="translate(477.251367 0.484375)"/>
      <use xlink:href="#Cmmi10-44" transform="translate(572.495508 0.484375)"/>
      <use xlink:href="#Cmr10-6e" transform="translate(655.210352 -16.521875) scale(0.7)"/>
      <use xlink:href="#Cmr10-61" transform="translate(694.072656 -16.521875) scale(0.7)"/>
     </g>
    </g>
   </g>
   <g id="line2d_25">
    <path d="M 56.79875 77.074163 
L 742.471477 77.074163 
" clip-path="url(#p53afa5b358)" style="fill: none; stroke-dasharray: 0.8,1.32; stroke-dashoffset: 0; stroke: #3a3a3a; stroke-width: 0.8"/>
   </g>
   <g id="patch_3">
    <path d="M 56.79875 374.354545 
L 56.79875 42.1 
" style="fill: none; stroke: #3a3a3a; stroke-linejoin: miter; stroke-linecap: square"/>
   </g>
   <g id="patch_4">
    <path d="M 56.79875 374.354545 
L 742.471477 374.354545 
" style="fill: none; stroke: #3a3a3a; stroke-linejoin: miter; stroke-linecap: square"/>
   </g>
   <g id="text_15">
    <!-- $\mathrm{Gap}_B(k)$ for fixed look-budgets -->
    <g style="fill: #f2f2f2" transform="translate(296.967614 26.1) scale(0.135 -0.135)">
     <defs>
      <path id="Cmmi10-42" d="M 319 0 
Q 256 0 256 84 
Q 259 100 268 137 
Q 278 175 293 200 
Q 309 225 341 225 
Q 522 225 656 234 
Q 791 244 884 269 
Q 959 297 1006 441 
L 1881 3956 
Q 1894 4019 1894 4044 
Q 1894 4113 1819 4122 
Q 1697 4147 1356 4147 
Q 1294 4147 1294 4231 
Q 1297 4247 1306 4286 
Q 1316 4325 1333 4348 
Q 1350 4372 1375 4372 
L 3669 4372 
Q 3878 4372 4083 4320 
Q 4288 4269 4461 4156 
Q 4634 4044 4736 3876 
Q 4838 3709 4838 3488 
Q 4838 3247 4714 3040 
Q 4591 2834 4395 2681 
Q 4200 2528 3973 2429 
Q 3747 2331 3500 2284 
Q 3675 2284 3854 2215 
Q 4034 2147 4175 2028 
Q 4316 1909 4402 1743 
Q 4488 1578 4488 1388 
Q 4488 1003 4219 684 
Q 3950 366 3542 183 
Q 3134 0 2753 0 
L 319 0 
z
M 1497 275 
Q 1497 225 1716 225 
L 2631 225 
Q 2944 225 3231 398 
Q 3519 572 3692 859 
Q 3866 1147 3866 1459 
Q 3866 1650 3786 1820 
Q 3706 1991 3556 2089 
Q 3406 2188 3213 2188 
L 1966 2188 
L 1522 416 
Q 1497 328 1497 275 
z
M 2009 2356 
L 2981 2356 
Q 3288 2356 3577 2512 
Q 3866 2669 4048 2937 
Q 4231 3206 4231 3506 
Q 4231 3784 4057 3965 
Q 3884 4147 3609 4147 
L 2731 4147 
Q 2559 4147 2500 4115 
Q 2441 4084 2400 3928 
L 2009 2356 
z
" transform="scale(0.015625)"/>
      <path id="Cmr10-28" d="M 1984 -1588 
Q 1628 -1306 1370 -942 
Q 1113 -578 948 -165 
Q 784 247 703 697 
Q 622 1147 622 1600 
Q 622 2059 703 2509 
Q 784 2959 951 3375 
Q 1119 3791 1378 4153 
Q 1638 4516 1984 4788 
Q 1984 4800 2016 4800 
L 2075 4800 
Q 2094 4800 2109 4783 
Q 2125 4766 2125 4744 
Q 2125 4716 2113 4703 
Q 1800 4397 1592 4047 
Q 1384 3697 1257 3301 
Q 1131 2906 1075 2482 
Q 1019 2059 1019 1600 
Q 1019 -434 2106 -1491 
Q 2125 -1509 2125 -1544 
Q 2125 -1559 2108 -1579 
Q 2091 -1600 2075 -1600 
L 2016 -1600 
Q 1984 -1600 1984 -1588 
z
" transform="scale(0.015625)"/>
      <path id="Cmr10-29" d="M 416 -1600 
Q 359 -1600 359 -1544 
Q 359 -1516 372 -1503 
Q 1466 -434 1466 1600 
Q 1466 3634 384 4691 
Q 359 4706 359 4744 
Q 359 4766 376 4783 
Q 394 4800 416 4800 
L 475 4800 
Q 494 4800 506 4788 
Q 966 4425 1272 3906 
Q 1578 3388 1720 2800 
Q 1863 2213 1863 1600 
Q 1863 1147 1786 708 
Q 1709 269 1542 -157 
Q 1375 -584 1119 -945 
Q 863 -1306 506 -1588 
Q 494 -1600 475 -1600 
L 416 -1600 
z
" transform="scale(0.015625)"/>
      <path id="DejaVuSerif-78" d="M 1863 2028 
L 2559 2988 
L 2113 2988 
L 2113 3322 
L 3391 3322 
L 3391 2988 
L 2950 2988 
L 2059 1759 
L 3097 331 
L 3531 331 
L 3531 0 
L 1997 0 
L 1997 331 
L 2419 331 
L 1697 1325 
L 972 331 
L 1403 331 
L 1403 0 
L 141 0 
L 141 331 
L 581 331 
L 1497 1594 
L 488 2988 
L 78 2988 
L 78 3322 
L 1563 3322 
L 1563 2988 
L 1166 2988 
L 1863 2028 
z
" transform="scale(0.015625)"/>
      <path id="DejaVuSerif-65" d="M 3469 1600 
L 991 1600 
L 991 1575 
Q 991 903 1244 561 
Q 1497 219 1991 219 
Q 2369 219 2611 417 
Q 2853 616 2950 1006 
L 3413 1006 
Q 3275 459 2904 184 
Q 2534 -91 1931 -91 
Q 1203 -91 761 389 
Q 319 869 319 1663 
Q 319 2450 753 2931 
Q 1188 3413 1894 3413 
Q 2647 3413 3050 2948 
Q 3453 2484 3469 1600 
z
M 2791 1931 
Q 2772 2513 2545 2808 
Q 2319 3103 1894 3103 
Q 1497 3103 1269 2806 
Q 1041 2509 991 1931 
L 2791 1931 
z
" transform="scale(0.015625)"/>
      <path id="DejaVuSerif-64" d="M 3359 331 
L 3909 331 
L 3909 0 
L 2784 0 
L 2784 519 
Q 2616 206 2355 57 
Q 2094 -91 1709 -91 
Q 1097 -91 708 395 
Q 319 881 319 1663 
Q 319 2444 706 2928 
Q 1094 3413 1709 3413 
Q 2094 3413 2355 3264 
Q 2616 3116 2784 2803 
L 2784 4531 
L 2241 4531 
L 2241 4863 
L 3359 4863 
L 3359 331 
z
M 2784 1497 
L 2784 1825 
Q 2784 2422 2554 2737 
Q 2325 3053 1888 3053 
Q 1444 3053 1217 2703 
Q 991 2353 991 1663 
Q 991 975 1217 622 
Q 1444 269 1888 269 
Q 2325 269 2554 583 
Q 2784 897 2784 1497 
z
" transform="scale(0.015625)"/>
      <path id="DejaVuSerif-6c" d="M 1313 331 
L 1856 331 
L 1856 0 
L 184 0 
L 184 331 
L 738 331 
L 738 4531 
L 184 4531 
L 184 4863 
L 1313 4863 
L 1313 331 
z
" transform="scale(0.015625)"/>
      <path id="DejaVuSerif-6b" d="M 1831 0 
L 219 0 
L 219 331 
L 738 331 
L 738 4531 
L 184 4531 
L 184 4863 
L 1313 4863 
L 1313 1697 
L 2713 2988 
L 2234 2988 
L 2234 3322 
L 3738 3322 
L 3738 2988 
L 3169 2988 
L 2181 2075 
L 3444 331 
L 3922 331 
L 3922 0 
L 2284 0 
L 2284 331 
L 2759 331 
L 1766 1697 
L 1313 1275 
L 1313 331 
L 1831 331 
L 1831 0 
z
" transform="scale(0.015625)"/>
      <path id="DejaVuSerif-2d" d="M 281 1959 
L 1881 1959 
L 1881 1472 
L 281 1472 
L 281 1959 
z
" transform="scale(0.015625)"/>
      <path id="DejaVuSerif-75" d="M 2266 3322 
L 3341 3322 
L 3341 331 
L 3884 331 
L 3884 0 
L 2766 0 
L 2766 588 
Q 2606 256 2353 82 
Q 2100 -91 1766 -91 
Q 1213 -91 952 223 
Q 691 538 691 1209 
L 691 2988 
L 172 2988 
L 172 3322 
L 1269 3322 
L 1269 1388 
Q 1269 781 1417 556 
Q 1566 331 1947 331 
Q 2347 331 2556 625 
Q 2766 919 2766 1478 
L 2766 2988 
L 2266 2988 
L 2266 3322 
z
" transform="scale(0.015625)"/>
      <path id="DejaVuSerif-73" d="M 359 184 
L 359 959 
L 691 959 
Q 703 588 923 403 
Q 1144 219 1575 219 
Q 1963 219 2166 364 
Q 2369 509 2369 788 
Q 2369 1006 2220 1140 
Q 2072 1275 1594 1428 
L 1178 1569 
Q 750 1706 558 1912 
Q 366 2119 366 2438 
Q 366 2894 700 3153 
Q 1034 3413 1625 3413 
Q 1888 3413 2178 3344 
Q 2469 3275 2778 3144 
L 2778 2419 
L 2447 2419 
Q 2434 2741 2221 2922 
Q 2009 3103 1644 3103 
Q 1281 3103 1095 2975 
Q 909 2847 909 2591 
Q 909 2381 1050 2254 
Q 1191 2128 1613 1997 
L 2069 1856 
Q 2541 1709 2748 1489 
Q 2956 1269 2956 922 
Q 2956 450 2595 179 
Q 2234 -91 1600 -91 
Q 1278 -91 972 -22 
Q 666 47 359 184 
z
" transform="scale(0.015625)"/>
     </defs>
     <use xlink:href="#Cmr10-47" transform="translate(0 0.015625)"/>
     <use xlink:href="#Cmr10-61" transform="translate(78.417969 0.015625)"/>
     <use xlink:href="#Cmr10-70" transform="translate(128.417969 0.015625)"/>
     <use xlink:href="#Cmmi10-42" transform="translate(188.399687 -16.990625) scale(0.7)"/>
     <use xlink:href="#Cmr10-28" transform="translate(247.823906 0.015625)"/>
     <use xlink:href="#Cmmi10-6b" transform="translate(286.642266 0.015625)"/>
     <use xlink:href="#Cmr10-29" transform="translate(338.644219 0.015625)"/>
     <use xlink:href="#DejaVuSerif-20" transform="translate(377.462578 0.015625)"/>
     <use xlink:href="#DejaVuSerif-66" transform="translate(409.249687 0.015625)"/>
     <use xlink:href="#DejaVuSerif-6f" transform="translate(446.261406 0.015625)"/>
     <use xlink:href="#DejaVuSerif-72" transform="translate(506.466484 0.015625)"/>
     <use xlink:href="#DejaVuSerif-20" transform="translate(554.269219 0.015625)"/>
     <use xlink:href="#DejaVuSerif-66" transform="translate(586.056328 0.015625)"/>
     <use xlink:href="#DejaVuSerif-69" transform="translate(623.068047 0.015625)"/>
     <use xlink:href="#DejaVuSerif-78" transform="translate(655.050469 0.015625)"/>
     <use xlink:href="#DejaVuSerif-65" transform="translate(711.446953 0.015625)"/>
     <use xlink:href="#DejaVuSerif-64" transform="translate(770.626641 0.015625)"/>
     <use xlink:href="#DejaVuSerif-20" transform="translate(834.640312 0.015625)"/>
     <use xlink:href="#DejaVuSerif-6c" transform="translate(866.427422 0.015625)"/>
     <use xlink:href="#DejaVuSerif-6f" transform="translate(898.409844 0.015625)"/>
     <use xlink:href="#DejaVuSerif-6f" transform="translate(958.614922 0.015625)"/>
     <use xlink:href="#DejaVuSerif-6b" transform="translate(1018.82 0.015625)"/>
     <use xlink:href="#DejaVuSerif-2d" transform="translate(1079.415703 0.015625)"/>
     <use xlink:href="#DejaVuSerif-62" transform="translate(1113.204766 0.015625)"/>
     <use xlink:href="#DejaVuSerif-75" transform="translate(1177.218437 0.015625)"/>
     <use xlink:href="#DejaVuSerif-64" transform="translate(1241.622734 0.015625)"/>
     <use xlink:href="#DejaVuSerif-67" transform="translate(1305.636406 0.015625)"/>
     <use xlink:href="#DejaVuSerif-65" transform="translate(1369.650078 0.015625)"/>
     <use xlink:href="#DejaVuSerif-74" transform="translate(1428.829766 0.015625)"/>
     <use xlink:href="#DejaVuSerif-73" transform="translate(1469.015312 0.015625)"/>
    </g>
   </g>
   <g id="line2d_26">
    <path d="M 56.79875 368.525518 
L 59.088141 341.188175 
L 61.377533 318.539394 
L 63.666924 299.468254 
L 65.956316 283.189112 
L 68.245707 269.130667 
L 70.535098 256.867532 
L 72.82449 246.076449 
L 75.113881 236.50737 
L 77.403273 227.963845 
L 79.692664 220.28939 
L 81.982056 213.357818 
L 84.271447 207.066242 
L 86.560838 201.329936 
L 88.85023 196.078499 
L 91.139621 191.252948 
L 93.429013 186.803491 
L 96.8631 180.743618 
L 100.297187 175.318036 
L 103.731274 170.43211 
L 107.165361 166.009141 
L 110.599448 161.986304 
L 114.033535 158.311651 
L 117.467622 154.941853 
L 120.901709 151.840485 
L 124.335797 148.976701 
L 128.914579 145.483004 
L 133.493362 142.313087 
L 138.072145 139.423935 
L 142.650928 136.779827 
L 148.374406 133.774183 
L 154.097885 131.056649 
L 159.821363 128.587695 
L 165.544842 126.334705 
L 172.413016 123.878281 
L 179.28119 121.655205 
L 187.29406 119.314512 
L 195.30693 117.207349 
L 204.464496 115.042706 
L 213.622062 113.099619 
L 223.924323 111.138428 
L 235.37128 109.19548 
L 247.962933 107.299121 
L 261.699281 105.470285 
L 276.580325 103.723432 
L 292.606065 102.067629 
L 310.921197 100.41053 
L 330.381023 98.874782 
L 352.130242 97.381172 
L 376.168852 95.951689 
L 403.641549 94.546076 
L 434.548333 93.195629 
L 468.889204 91.920609 
L 507.808858 90.699337 
L 552.45199 89.524552 
L 603.963297 88.397985 
L 663.487474 87.326048 
L 732.169216 86.316545 
L 742.471477 86.182018 
L 742.471477 86.182018 
" clip-path="url(#p53afa5b358)" style="fill: none; stroke: #f2f2f2; stroke-width: 2.4; stroke-linecap: round"/>
   </g>
   <g id="line2d_27">
    <path d="M 56.79875 368.525518 
L 67.101011 368.525518 
L 68.245707 365.158919 
L 70.535098 346.764217 
L 72.82449 330.577593 
L 75.113881 316.223974 
L 77.403273 303.408686 
L 79.692664 291.897004 
L 81.982056 281.499645 
L 84.271447 272.062281 
L 86.560838 263.457823 
L 88.85023 255.580668 
L 91.139621 248.34234 
L 93.429013 241.668156 
L 95.718404 235.494636 
L 98.007795 229.767482 
L 101.441882 221.913235 
L 104.87597 214.827473 
L 108.310057 208.40267 
L 111.744144 202.550465 
L 115.178231 197.197577 
L 118.612318 192.282717 
L 122.046405 187.754232 
L 125.480492 183.568283 
L 128.914579 179.687424 
L 132.348667 176.079472 
L 136.927449 171.645865 
L 141.506232 167.592325 
L 146.085015 163.871989 
L 150.663798 160.445396 
L 155.242581 157.279076 
L 159.821363 154.344462 
L 165.544842 150.964976 
L 171.26832 147.868713 
L 176.991799 145.021501 
L 182.715278 142.394453 
L 189.583452 139.498249 
L 196.451626 136.847968 
L 203.3198 134.413563 
L 211.33267 131.812675 
L 219.34554 129.437499 
L 228.503106 126.963483 
L 237.660671 124.712701 
L 247.962933 122.411601 
L 259.40989 120.102267 
L 270.856847 118.01679 
L 283.4485 115.944438 
L 297.184848 113.910433 
L 312.065892 111.934259 
L 328.091632 110.030247 
L 345.262068 108.208278 
L 364.721895 106.372556 
L 385.326417 104.650936 
L 408.220331 102.960782 
L 433.403637 101.325787 
L 460.876334 99.762522 
L 491.783118 98.22846 
L 526.123989 96.75025 
L 565.043643 95.30636 
L 608.54208 93.924368 
L 656.619299 92.621811 
L 711.564693 91.359747 
L 742.471477 90.735945 
L 742.471477 90.735945 
" clip-path="url(#p53afa5b358)" style="fill: none; stroke: #d0d0d0; stroke-width: 2.1; stroke-linecap: round"/>
   </g>
   <g id="line2d_28">
    <path d="M 56.79875 368.525518 
L 89.994925 368.428238 
L 92.284317 356.848781 
L 94.573708 346.15456 
L 96.8631 336.2478 
L 99.152491 327.044612 
L 101.441882 318.472617 
L 104.87597 306.663013 
L 108.310057 295.955008 
L 111.744144 286.201333 
L 115.178231 277.279853 
L 118.612318 269.088419 
L 122.046405 261.540944 
L 125.480492 254.564364 
L 128.914579 248.096265 
L 132.348667 242.083011 
L 135.782754 236.478255 
L 139.216841 231.241738 
L 142.650928 226.338323 
L 146.085015 221.737207 
L 150.663798 216.026218 
L 155.242581 210.749019 
L 159.821363 205.857994 
L 164.400146 201.312251 
L 168.978929 197.076474 
L 173.557712 193.120003 
L 178.136495 189.416094 
L 183.859973 185.105946 
L 189.583452 181.114307 
L 195.30693 177.407129 
L 201.030409 173.955052 
L 206.753887 170.732619 
L 213.622062 167.137804 
L 220.490236 163.808742 
L 227.35841 160.717015 
L 235.37128 157.377457 
L 243.38415 154.294333 
L 251.39702 151.4392 
L 260.554585 148.424237 
L 269.712151 145.644218 
L 280.014412 142.764772 
L 290.316674 140.117411 
L 301.763631 137.415433 
L 313.210588 134.935545 
L 325.802241 132.432915 
L 339.538589 129.938553 
L 354.419633 127.478182 
L 370.445373 125.072448 
L 387.615809 122.737315 
L 405.93094 120.484587 
L 425.390767 118.322476 
L 445.99529 116.256172 
L 468.889204 114.190278 
L 492.927814 112.243253 
L 519.255815 110.332442 
L 547.873207 108.477847 
L 579.924687 106.631823 
L 614.265558 104.880509 
L 652.040517 103.179097 
L 693.249562 101.545618 
L 739.03739 99.954813 
L 742.471477 99.8438 
L 742.471477 99.8438 
" clip-path="url(#p53afa5b358)" style="fill: none; stroke: #cfb991; stroke-width: 1.9; stroke-linecap: round"/>
   </g>
   <g id="line2d_29">
    <path d="M 56.79875 368.525518 
L 122.046405 368.525518 
L 123.191101 368.403928 
L 126.625188 357.522937 
L 130.059275 347.425478 
L 133.493362 338.029861 
L 136.927449 329.265368 
L 140.361536 321.070476 
L 143.795624 313.391404 
L 147.229711 306.180937 
L 150.663798 299.397451 
L 154.097885 293.00411 
L 158.676668 285.03052 
L 163.255451 277.624837 
L 167.834233 270.728474 
L 172.413016 264.290637 
L 176.991799 258.267066 
L 181.570582 252.619021 
L 186.149365 247.312448 
L 190.728147 242.317288 
L 195.30693 237.606909 
L 201.030409 232.083585 
L 206.753887 226.927692 
L 212.477366 222.103747 
L 218.200844 217.580691 
L 223.924323 213.331226 
L 229.647801 209.331255 
L 236.515976 204.830739 
L 243.38415 200.626436 
L 250.252324 196.690033 
L 257.120498 192.996714 
L 265.133368 188.966079 
L 273.146238 185.206316 
L 281.159108 181.691009 
L 289.171978 178.397066 
L 298.329544 174.877727 
L 307.487109 171.594662 
L 317.789371 168.155087 
L 328.091632 164.957053 
L 339.538589 161.657187 
L 350.985546 158.596162 
L 363.577199 155.475134 
L 376.168852 152.584267 
L 389.9052 149.664334 
L 404.786244 146.745663 
L 419.667288 144.052625 
L 435.693028 141.375953 
L 452.863464 138.735748 
L 471.178595 136.148475 
L 490.638422 133.627244 
L 511.242945 131.182132 
L 532.992163 128.820546 
L 557.030773 126.439174 
L 582.214079 124.168676 
L 609.686775 121.918592 
L 639.448864 119.711692 
L 671.500344 117.565723 
L 705.841215 115.493917 
L 742.471477 113.505582 
L 742.471477 113.505582 
" clip-path="url(#p53afa5b358)" style="fill: none; stroke: #8e6f3e; stroke-width: 1.7; stroke-linecap: round"/>
   </g>
   <g id="line2d_30">
    <path d="M 56.79875 368.525518 
L 166.689538 368.525518 
L 167.834233 367.55563 
L 172.413016 357.898874 
L 176.991799 348.863517 
L 181.570582 340.391451 
L 186.149365 332.431591 
L 190.728147 324.938851 
L 195.30693 317.873283 
L 199.885713 311.199369 
L 204.464496 304.885422 
L 209.043279 298.903085 
L 213.622062 293.226901 
L 219.34554 286.527506 
L 225.069019 280.230907 
L 230.792497 274.301836 
L 236.515976 268.709028 
L 242.239454 263.424665 
L 247.962933 258.423915 
L 253.686411 253.684544 
L 260.554585 248.314341 
L 267.42276 243.261085 
L 274.290934 238.497521 
L 281.159108 233.999432 
L 288.027282 229.745227 
L 296.040152 225.06458 
L 304.053022 220.662397 
L 312.065892 216.514548 
L 320.078762 212.599609 
L 329.236328 208.386206 
L 338.393893 204.426889 
L 347.551459 200.699345 
L 357.85372 196.758369 
L 368.155982 193.060894 
L 378.458243 189.58503 
L 389.9052 185.95942 
L 401.352157 182.560182 
L 413.94381 179.058017 
L 426.535463 175.780926 
L 440.271811 172.43798 
L 455.152855 169.062937 
L 470.033899 165.918622 
L 486.059639 162.764295 
L 503.230075 159.624101 
L 520.400511 156.705923 
L 538.715642 153.812344 
L 558.175469 150.959764 
L 578.779991 148.161789 
L 600.52921 145.429434 
L 623.423124 142.771364 
L 648.606429 140.076459 
L 674.934431 137.48573 
L 703.551823 134.901046 
L 733.313912 132.437597 
L 742.471477 131.721292 
L 742.471477 131.721292 
" clip-path="url(#p53afa5b358)" style="fill: none; stroke: #8a8a8a; stroke-width: 1.5; stroke-linecap: round"/>
   </g>
   <g id="legend_1">
    <g id="patch_5">
     <path d="M 464.946477 370.104545 
L 738.221477 370.104545 
L 738.221477 350.828139 
L 464.946477 350.828139 
z
" style="fill: #0a0a0a; stroke: #3a3a3a; stroke-linejoin: miter"/>
    </g>
    <g id="line2d_31">
     <path d="M 470.471477 359.836811 
L 478.971477 359.836811 
L 487.471477 359.836811 
" style="fill: none; stroke: #f2f2f2; stroke-width: 2.4; stroke-linecap: round"/>
    </g>
    <g id="text_16">
     <!-- $B=2$ -->
     <g style="fill: #d0d0d0" transform="translate(494.271477 362.811811) scale(0.085 -0.085)">
      <defs>
       <path id="Cmr10-32" d="M 319 0 
L 319 172 
Q 319 188 331 206 
L 1325 1306 
Q 1550 1550 1690 1715 
Q 1831 1881 1968 2097 
Q 2106 2313 2186 2536 
Q 2266 2759 2266 3009 
Q 2266 3272 2169 3511 
Q 2072 3750 1880 3894 
Q 1688 4038 1416 4038 
Q 1138 4038 916 3870 
Q 694 3703 603 3438 
Q 628 3444 672 3444 
Q 816 3444 917 3347 
Q 1019 3250 1019 3097 
Q 1019 2950 917 2848 
Q 816 2747 672 2747 
Q 522 2747 420 2851 
Q 319 2956 319 3097 
Q 319 3338 409 3548 
Q 500 3759 670 3923 
Q 841 4088 1055 4175 
Q 1269 4263 1509 4263 
Q 1875 4263 2190 4108 
Q 2506 3953 2690 3670 
Q 2875 3388 2875 3009 
Q 2875 2731 2753 2481 
Q 2631 2231 2440 2026 
Q 2250 1822 1953 1562 
Q 1656 1303 1563 1216 
L 838 519 
L 1453 519 
Q 1906 519 2211 526 
Q 2516 534 2534 550 
Q 2609 631 2688 1141 
L 2875 1141 
L 2694 0 
L 319 0 
z
" transform="scale(0.015625)"/>
      </defs>
      <use xlink:href="#Cmmi10-42" transform="translate(0 0.6875)"/>
      <use xlink:href="#Cmr10-3d" transform="translate(93.339844 0.6875)"/>
      <use xlink:href="#Cmr10-32" transform="translate(188.583984 0.6875)"/>
     </g>
    </g>
    <g id="line2d_32">
     <path d="M 523.936477 359.836811 
L 532.436477 359.836811 
L 540.936477 359.836811 
" style="fill: none; stroke: #d0d0d0; stroke-width: 2.1; stroke-linecap: round"/>
    </g>
    <g id="text_17">
     <!-- $B=3$ -->
     <g style="fill: #d0d0d0" transform="translate(547.736477 362.811811) scale(0.085 -0.085)">
      <defs>
       <path id="Cmr10-33" d="M 609 494 
Q 759 275 1012 169 
Q 1266 63 1556 63 
Q 1928 63 2084 380 
Q 2241 697 2241 1100 
Q 2241 1281 2208 1462 
Q 2175 1644 2097 1800 
Q 2019 1956 1883 2050 
Q 1747 2144 1550 2144 
L 1125 2144 
Q 1069 2144 1069 2203 
L 1069 2259 
Q 1069 2309 1125 2309 
L 1478 2338 
Q 1703 2338 1851 2506 
Q 2000 2675 2069 2917 
Q 2138 3159 2138 3378 
Q 2138 3684 1994 3881 
Q 1850 4078 1556 4078 
Q 1313 4078 1091 3986 
Q 869 3894 738 3706 
Q 750 3709 759 3711 
Q 769 3713 781 3713 
Q 925 3713 1022 3613 
Q 1119 3513 1119 3372 
Q 1119 3234 1022 3134 
Q 925 3034 781 3034 
Q 641 3034 541 3134 
Q 441 3234 441 3372 
Q 441 3647 606 3850 
Q 772 4053 1033 4158 
Q 1294 4263 1556 4263 
Q 1750 4263 1965 4205 
Q 2181 4147 2356 4039 
Q 2531 3931 2642 3762 
Q 2753 3594 2753 3378 
Q 2753 3109 2633 2881 
Q 2513 2653 2303 2487 
Q 2094 2322 1844 2241 
Q 2122 2188 2372 2031 
Q 2622 1875 2773 1631 
Q 2925 1388 2925 1106 
Q 2925 753 2731 467 
Q 2538 181 2222 20 
Q 1906 -141 1556 -141 
Q 1256 -141 954 -26 
Q 653 88 461 316 
Q 269 544 269 863 
Q 269 1022 375 1128 
Q 481 1234 641 1234 
Q 744 1234 830 1186 
Q 916 1138 964 1050 
Q 1013 963 1013 863 
Q 1013 706 903 600 
Q 794 494 641 494 
L 609 494 
z
" transform="scale(0.015625)"/>
      </defs>
      <use xlink:href="#Cmmi10-42" transform="translate(0 0.6875)"/>
      <use xlink:href="#Cmr10-3d" transform="translate(93.339844 0.6875)"/>
      <use xlink:href="#Cmr10-33" transform="translate(188.583984 0.6875)"/>
     </g>
    </g>
    <g id="line2d_33">
     <path d="M 577.401477 359.836811 
L 585.901477 359.836811 
L 594.401477 359.836811 
" style="fill: none; stroke: #cfb991; stroke-width: 1.9; stroke-linecap: round"/>
    </g>
    <g id="text_18">
     <!-- $B=5$ -->
     <g style="fill: #d0d0d0" transform="translate(601.201477 362.811811) scale(0.085 -0.085)">
      <defs>
       <path id="Cmr10-35" d="M 556 728 
Q 622 541 758 387 
Q 894 234 1080 148 
Q 1266 63 1466 63 
Q 1928 63 2103 422 
Q 2278 781 2278 1294 
Q 2278 1516 2270 1667 
Q 2263 1819 2228 1959 
Q 2169 2184 2020 2353 
Q 1872 2522 1656 2522 
Q 1441 2522 1286 2456 
Q 1131 2391 1034 2303 
Q 938 2216 863 2119 
Q 788 2022 769 2016 
L 697 2016 
Q 681 2016 657 2036 
Q 634 2056 634 2075 
L 634 4213 
Q 634 4228 654 4245 
Q 675 4263 697 4263 
L 716 4263 
Q 1147 4056 1631 4056 
Q 2106 4056 2547 4263 
L 2566 4263 
Q 2588 4263 2606 4247 
Q 2625 4231 2625 4213 
L 2625 4153 
Q 2625 4122 2613 4122 
Q 2394 3831 2064 3668 
Q 1734 3506 1381 3506 
Q 1125 3506 856 3578 
L 856 2369 
Q 1069 2541 1236 2614 
Q 1403 2688 1663 2688 
Q 2016 2688 2295 2484 
Q 2575 2281 2725 1954 
Q 2875 1628 2875 1288 
Q 2875 903 2686 575 
Q 2497 247 2172 53 
Q 1847 -141 1466 -141 
Q 1150 -141 886 21 
Q 622 184 470 459 
Q 319 734 319 1044 
Q 319 1188 412 1278 
Q 506 1369 647 1369 
Q 788 1369 883 1276 
Q 978 1184 978 1044 
Q 978 906 883 811 
Q 788 716 647 716 
Q 625 716 597 720 
Q 569 725 556 728 
z
" transform="scale(0.015625)"/>
      </defs>
      <use xlink:href="#Cmmi10-42" transform="translate(0 0.6875)"/>
      <use xlink:href="#Cmr10-3d" transform="translate(93.339844 0.6875)"/>
      <use xlink:href="#Cmr10-35" transform="translate(188.583984 0.6875)"/>
     </g>
    </g>
    <g id="line2d_34">
     <path d="M 630.866477 359.836811 
L 639.366477 359.836811 
L 647.866477 359.836811 
" style="fill: none; stroke: #8e6f3e; stroke-width: 1.7; stroke-linecap: round"/>
    </g>
    <g id="text_19">
     <!-- $B=8$ -->
     <g style="fill: #d0d0d0" transform="translate(654.666477 362.811811) scale(0.085 -0.085)">
      <defs>
       <path id="Cmr10-38" d="M 269 972 
Q 269 1356 522 1651 
Q 775 1947 1172 2144 
L 934 2297 
Q 716 2441 578 2680 
Q 441 2919 441 3181 
Q 441 3488 602 3734 
Q 763 3981 1030 4122 
Q 1297 4263 1600 4263 
Q 1884 4263 2148 4147 
Q 2413 4031 2583 3815 
Q 2753 3600 2753 3303 
Q 2753 3088 2651 2903 
Q 2550 2719 2373 2572 
Q 2197 2425 1997 2322 
L 2363 2088 
Q 2616 1922 2770 1653 
Q 2925 1384 2925 1088 
Q 2925 741 2739 456 
Q 2553 172 2247 15 
Q 1941 -141 1600 -141 
Q 1269 -141 961 -6 
Q 653 128 461 383 
Q 269 638 269 972 
z
M 616 972 
Q 616 719 755 509 
Q 894 300 1122 181 
Q 1350 63 1600 63 
Q 1972 63 2275 280 
Q 2578 497 2578 856 
Q 2578 978 2529 1098 
Q 2481 1219 2395 1317 
Q 2309 1416 2203 1478 
L 1344 2034 
Q 1144 1928 976 1765 
Q 809 1603 712 1400 
Q 616 1197 616 972 
z
M 1056 2925 
L 1831 2425 
Q 2100 2581 2272 2803 
Q 2444 3025 2444 3303 
Q 2444 3519 2323 3698 
Q 2203 3878 2009 3978 
Q 1816 4078 1594 4078 
Q 1400 4078 1203 4003 
Q 1006 3928 878 3779 
Q 750 3631 750 3431 
Q 750 3131 1056 2925 
z
" transform="scale(0.015625)"/>
      </defs>
      <use xlink:href="#Cmmi10-42" transform="translate(0 0.6875)"/>
      <use xlink:href="#Cmr10-3d" transform="translate(93.339844 0.6875)"/>
      <use xlink:href="#Cmr10-38" transform="translate(188.583984 0.6875)"/>
     </g>
    </g>
    <g id="line2d_35">
     <path d="M 684.331477 359.836811 
L 692.831477 359.836811 
L 701.331477 359.836811 
" style="fill: none; stroke: #8a8a8a; stroke-width: 1.5; stroke-linecap: round"/>
    </g>
    <g id="text_20">
     <!-- $B=12$ -->
     <g style="fill: #d0d0d0" transform="translate(708.131477 362.811811) scale(0.085 -0.085)">
      <defs>
       <path id="Cmr10-31" d="M 594 0 
L 594 225 
Q 1394 225 1394 428 
L 1394 3788 
Q 1063 3628 556 3628 
L 556 3853 
Q 1341 3853 1741 4263 
L 1831 4263 
Q 1853 4263 1873 4245 
Q 1894 4228 1894 4206 
L 1894 428 
Q 1894 225 2694 225 
L 2694 0 
L 594 0 
z
" transform="scale(0.015625)"/>
      </defs>
      <use xlink:href="#Cmmi10-42" transform="translate(0 0.6875)"/>
      <use xlink:href="#Cmr10-3d" transform="translate(93.339844 0.6875)"/>
      <use xlink:href="#Cmr10-31" transform="translate(188.583984 0.6875)"/>
      <use xlink:href="#Cmr10-32" transform="translate(238.583984 0.6875)"/>
     </g>
    </g>
   </g>
   <g id="text_21">
    <g id="patch_6">
     <path d="M 450.656301 322.314977 
L 555.370051 322.314977 
L 555.370051 293.662681 
L 450.656301 293.662681 
z
" style="stroke: #d0d0d0; stroke-width: 0.9; stroke-linejoin: miter"/>
    </g>
    <!-- every fixed B &gt;= 2: -->
    <g style="fill: #f2f2f2" transform="translate(454.931301 305.291274) scale(0.095 -0.095)">
     <defs>
      <path id="DejaVuSerif-76" d="M 1581 0 
L 359 2988 
L -19 2988 
L -19 3322 
L 1509 3322 
L 1509 2988 
L 978 2988 
L 1913 703 
L 2847 2988 
L 2350 2988 
L 2350 3322 
L 3597 3322 
L 3597 2988 
L 3225 2988 
L 2003 0 
L 1581 0 
z
" transform="scale(0.015625)"/>
      <path id="DejaVuSerif-79" d="M 1381 -609 
L 1600 -56 
L 359 2988 
L -19 2988 
L -19 3322 
L 1509 3322 
L 1509 2988 
L 978 2988 
L 1913 703 
L 2847 2988 
L 2350 2988 
L 2350 3322 
L 3597 3322 
L 3597 2988 
L 3225 2988 
L 1703 -750 
Q 1547 -1138 1356 -1280 
Q 1166 -1422 819 -1422 
Q 672 -1422 517 -1397 
Q 363 -1372 206 -1325 
L 206 -691 
L 500 -691 
Q 519 -903 608 -995 
Q 697 -1088 884 -1088 
Q 1056 -1088 1161 -992 
Q 1266 -897 1381 -609 
z
" transform="scale(0.015625)"/>
      <path id="DejaVuSerif-42" d="M 1581 331 
L 2516 331 
Q 3078 331 3337 575 
Q 3597 819 3597 1350 
Q 3597 1878 3339 2120 
Q 3081 2363 2516 2363 
L 1581 2363 
L 1581 331 
z
M 1581 2694 
L 2375 2694 
Q 2888 2694 3123 2891 
Q 3359 3088 3359 3513 
Q 3359 3941 3123 4136 
Q 2888 4331 2375 4331 
L 1581 4331 
L 1581 2694 
z
M 353 0 
L 353 331 
L 947 331 
L 947 4331 
L 353 4331 
L 353 4666 
L 2656 4666 
Q 3363 4666 3720 4377 
Q 4078 4088 4078 3513 
Q 4078 3097 3829 2850 
Q 3581 2603 3103 2547 
Q 3697 2472 4005 2167 
Q 4313 1863 4313 1350 
Q 4313 656 3875 328 
Q 3438 0 2509 0 
L 353 0 
z
" transform="scale(0.015625)"/>
      <path id="DejaVuSerif-3e" d="M 678 3188 
L 678 3719 
L 4684 2266 
L 4684 1747 
L 678 294 
L 678 825 
L 3922 2003 
L 678 3188 
z
" transform="scale(0.015625)"/>
      <path id="DejaVuSerif-3d" d="M 678 2894 
L 4684 2894 
L 4684 2394 
L 678 2394 
L 678 2894 
z
M 678 1619 
L 4684 1619 
L 4684 1119 
L 678 1119 
L 678 1619 
z
" transform="scale(0.015625)"/>
      <path id="DejaVuSerif-3a" d="M 666 325 
Q 666 500 786 622 
Q 906 744 1081 744 
Q 1256 744 1376 622 
Q 1497 500 1497 325 
Q 1497 150 1378 29 
Q 1259 -91 1081 -91 
Q 903 -91 784 29 
Q 666 150 666 325 
z
M 666 2363 
Q 666 2538 786 2658 
Q 906 2778 1081 2778 
Q 1259 2778 1378 2659 
Q 1497 2541 1497 2363 
Q 1497 2184 1378 2065 
Q 1259 1947 1081 1947 
Q 906 1947 786 2067 
Q 666 2188 666 2363 
z
" transform="scale(0.015625)"/>
     </defs>
     <use xlink:href="#DejaVuSerif-65"/>
     <use xlink:href="#DejaVuSerif-76" transform="translate(59.179688 0)"/>
     <use xlink:href="#DejaVuSerif-65" transform="translate(115.673828 0)"/>
     <use xlink:href="#DejaVuSerif-72" transform="translate(174.853516 0)"/>
     <use xlink:href="#DejaVuSerif-79" transform="translate(222.65625 0)"/>
     <use xlink:href="#DejaVuSerif-20" transform="translate(279.150391 0)"/>
     <use xlink:href="#DejaVuSerif-66" transform="translate(310.9375 0)"/>
     <use xlink:href="#DejaVuSerif-69" transform="translate(347.949219 0)"/>
     <use xlink:href="#DejaVuSerif-78" transform="translate(379.931641 0)"/>
     <use xlink:href="#DejaVuSerif-65" transform="translate(436.328125 0)"/>
     <use xlink:href="#DejaVuSerif-64" transform="translate(495.507812 0)"/>
     <use xlink:href="#DejaVuSerif-20" transform="translate(559.521484 0)"/>
     <use xlink:href="#DejaVuSerif-42" transform="translate(591.308594 0)"/>
     <use xlink:href="#DejaVuSerif-20" transform="translate(664.794922 0)"/>
     <use xlink:href="#DejaVuSerif-3e" transform="translate(696.582031 0)"/>
     <use xlink:href="#DejaVuSerif-3d" transform="translate(780.371094 0)"/>
     <use xlink:href="#DejaVuSerif-20" transform="translate(864.160156 0)"/>
     <use xlink:href="#DejaVuSerif-32" transform="translate(895.947266 0)"/>
     <use xlink:href="#DejaVuSerif-3a" transform="translate(959.570312 0)"/>
    </g>
    <!-- Gap still climbs to 1 -->
    <g style="fill: #f2f2f2" transform="translate(454.931301 316.064274) scale(0.095 -0.095)">
     <defs>
      <path id="DejaVuSerif-47" d="M 4097 3272 
Q 3988 3856 3641 4136 
Q 3294 4416 2675 4416 
Q 1869 4416 1472 3897 
Q 1075 3378 1075 2328 
Q 1075 1300 1484 772 
Q 1894 244 2688 244 
Q 3041 244 3362 331 
Q 3684 419 3975 594 
L 3975 1797 
L 3097 1797 
L 3097 2131 
L 4609 2131 
L 4609 391 
Q 4194 150 3714 29 
Q 3234 -91 2688 -91 
Q 1631 -91 995 570 
Q 359 1231 359 2328 
Q 359 3434 996 4092 
Q 1634 4750 2713 4750 
Q 3113 4750 3539 4658 
Q 3966 4566 4447 4378 
L 4447 3272 
L 4097 3272 
z
" transform="scale(0.015625)"/>
      <path id="DejaVuSerif-70" d="M 1313 1825 
L 1313 1497 
Q 1313 897 1542 583 
Q 1772 269 2209 269 
Q 2650 269 2876 622 
Q 3103 975 3103 1663 
Q 3103 2353 2876 2703 
Q 2650 3053 2209 3053 
Q 1772 3053 1542 2737 
Q 1313 2422 1313 1825 
z
M 738 2988 
L 184 2988 
L 184 3322 
L 1313 3322 
L 1313 2803 
Q 1481 3116 1742 3264 
Q 2003 3413 2388 3413 
Q 3000 3413 3387 2928 
Q 3775 2444 3775 1663 
Q 3775 881 3387 395 
Q 3000 -91 2388 -91 
Q 2003 -91 1742 57 
Q 1481 206 1313 519 
L 1313 -997 
L 1856 -997 
L 1856 -1331 
L 184 -1331 
L 184 -997 
L 738 -997 
L 738 2988 
z
" transform="scale(0.015625)"/>
      <path id="DejaVuSerif-6d" d="M 3316 2675 
Q 3481 3041 3739 3227 
Q 3997 3413 4341 3413 
Q 4863 3413 5119 3089 
Q 5375 2766 5375 2113 
L 5375 331 
L 5894 331 
L 5894 0 
L 4300 0 
L 4300 331 
L 4800 331 
L 4800 2047 
Q 4800 2556 4650 2772 
Q 4500 2988 4153 2988 
Q 3769 2988 3567 2697 
Q 3366 2406 3366 1850 
L 3366 331 
L 3866 331 
L 3866 0 
L 2291 0 
L 2291 331 
L 2791 331 
L 2791 2069 
Q 2791 2566 2641 2777 
Q 2491 2988 2144 2988 
Q 1759 2988 1557 2697 
Q 1356 2406 1356 1850 
L 1356 331 
L 1856 331 
L 1856 0 
L 263 0 
L 263 331 
L 781 331 
L 781 2994 
L 231 2994 
L 231 3322 
L 1356 3322 
L 1356 2731 
Q 1516 3063 1762 3238 
Q 2009 3413 2322 3413 
Q 2709 3413 2968 3220 
Q 3228 3028 3316 2675 
z
" transform="scale(0.015625)"/>
     </defs>
     <use xlink:href="#DejaVuSerif-47"/>
     <use xlink:href="#DejaVuSerif-61" transform="translate(79.882812 0)"/>
     <use xlink:href="#DejaVuSerif-70" transform="translate(139.501953 0)"/>
     <use xlink:href="#DejaVuSerif-20" transform="translate(203.515625 0)"/>
     <use xlink:href="#DejaVuSerif-73" transform="translate(235.302734 0)"/>
     <use xlink:href="#DejaVuSerif-74" transform="translate(286.621094 0)"/>
     <use xlink:href="#DejaVuSerif-69" transform="translate(326.806641 0)"/>
     <use xlink:href="#DejaVuSerif-6c" transform="translate(358.789062 0)"/>
     <use xlink:href="#DejaVuSerif-6c" transform="translate(390.771484 0)"/>
     <use xlink:href="#DejaVuSerif-20" transform="translate(422.753906 0)"/>
     <use xlink:href="#DejaVuSerif-63" transform="translate(454.541016 0)"/>
     <use xlink:href="#DejaVuSerif-6c" transform="translate(510.546875 0)"/>
     <use xlink:href="#DejaVuSerif-69" transform="translate(542.529297 0)"/>
     <use xlink:href="#DejaVuSerif-6d" transform="translate(574.511719 0)"/>
     <use xlink:href="#DejaVuSerif-62" transform="translate(669.335938 0)"/>
     <use xlink:href="#DejaVuSerif-73" transform="translate(733.349609 0)"/>
     <use xlink:href="#DejaVuSerif-20" transform="translate(784.667969 0)"/>
     <use xlink:href="#DejaVuSerif-74" transform="translate(816.455078 0)"/>
     <use xlink:href="#DejaVuSerif-6f" transform="translate(856.640625 0)"/>
     <use xlink:href="#DejaVuSerif-20" transform="translate(916.845703 0)"/>
     <use xlink:href="#DejaVuSerif-31" transform="translate(948.632812 0)"/>
    </g>
   </g>
  </g>
 </g>
 <defs>
  <clipPath id="p53afa5b358">
   <rect x="56.79875" y="42.1" width="685.672727" height="332.254545"/>
  </clipPath>
 </defs>
</svg>
