<?xml version="1.0" encoding="utf-8" standalone="no"?>
<!DOCTYPE svg PUBLIC "-//W3C//DTD SVG 1.1//EN"
  "http://www.w3.org/Graphics/SVG/1.1/DTD/svg11.dtd">
<svg xmlns:xlink="http://www.w3.org/1999/xlink" width="784.8pt" height="439.2pt" viewBox="0 0 784.8 439.2" xmlns="http://www.w3.org/2000/svg" version="1.1">
 <metadata>
  <rdf:RDF xmlns:dc="http://purl.org/dc/elements/1.1/" xmlns:cc="http://creativecommons.org/ns#" xmlns:rdf="http://www.w3.org/1999/02/22-rdf-syntax-ns#">
   <cc:Work>
    <dc:type rdf:resource="http://purl.org/dc/dcmitype/StillImage"/>
    <dc:date>2026-07-12T13:55:52.902350</dc:date>
    <dc:format>image/svg+xml</dc:format>
    <dc:creator>
     <cc:Agent>
      <dc:title>Matplotlib v3.10.9, https://matplotlib.org/</dc:title>
     </cc:Agent>
    </dc:creator>
   </cc:Work>
  </rdf:RDF>
 </metadata>
 <defs>
  <style type="text/css">*{stroke-linejoin: round; stroke-linecap: butt}</style>
 </defs>
 <g id="figure_1">
  <g id="patch_1">
   <path d="M 0 439.2 
L 784.8 439.2 
L 784.8 0 
L 0 0 
z
"/>
  </g>
  <g id="axes_1">
   <g id="patch_2">
    <path d="M 434.421818 219.6 
L 749.585455 219.6 
Q 756.589091 219.6 756.589091 212.748387 
L 756.589091 31.180645 
Q 756.589091 24.329032 749.585455 24.329032 
L 434.421818 24.329032 
Q 427.418182 24.329032 427.418182 31.180645 
L 427.418182 212.748387 
Q 427.418182 219.6 434.421818 219.6 
z
" clip-path="url(#pd7b684283c)" style="fill: #111111; stroke: #cfb991; stroke-width: 1.4; stroke-linejoin: miter"/>
   </g>
   <g id="FillBetweenPolyCollection_1">
    <defs>
     <path id="m5a898ee6d8" d="M 441.425455 -240.154839 
L 441.425455 -240.154839 
L 445.23756 -240.154839 
L 449.049666 -240.154839 
L 452.861772 -240.154839 
L 456.673878 -240.154839 
L 460.485984 -240.154839 
L 464.29809 -240.154839 
L 468.110196 -240.154839 
L 471.922301 -240.154839 
L 475.734407 -240.154839 
L 479.546513 -240.154839 
L 483.358619 -240.154839 
L 487.170725 -240.154839 
L 490.982831 -240.154839 
L 494.794937 -240.154839 
L 498.607043 -240.154839 
L 502.419148 -240.154839 
L 506.231254 -240.154839 
L 510.04336 -240.154839 
L 513.855466 -240.154839 
L 517.667572 -240.154839 
L 521.479678 -240.154839 
L 525.291784 -240.154839 
L 529.10389 -240.154839 
L 532.915995 -240.154839 
L 536.728101 -240.154839 
L 540.540207 -240.154839 
L 544.352313 -240.154839 
L 548.164419 -240.154839 
L 551.976525 -240.154839 
L 555.788631 -240.154839 
L 559.600736 -240.154839 
L 563.412842 -240.154839 
L 567.224948 -240.154839 
L 571.037054 -240.154839 
L 574.84916 -240.154839 
L 578.661266 -240.154839 
L 582.473372 -240.154839 
L 586.285478 -240.154839 
L 590.097583 -240.154839 
L 593.909689 -240.154839 
L 597.721795 -240.154839 
L 601.533901 -240.154839 
L 605.346007 -240.154839 
L 609.158113 -240.154839 
L 612.970219 -240.154839 
L 616.782325 -240.154839 
L 620.59443 -240.154839 
L 624.406536 -240.154839 
L 628.218642 -240.154839 
L 632.030748 -240.154839 
L 635.842854 -240.154839 
L 639.65496 -240.154839 
L 643.467066 -240.154839 
L 647.279171 -240.154839 
L 651.091277 -240.154839 
L 654.903383 -240.154839 
L 658.715489 -240.154839 
L 662.527595 -240.154839 
L 666.339701 -240.154839 
L 670.151807 -240.154839 
L 673.963913 -240.154839 
L 677.776018 -240.154839 
L 681.588124 -240.154839 
L 685.40023 -240.154839 
L 689.212336 -240.154839 
L 693.024442 -240.154839 
L 696.836548 -240.154839 
L 700.648654 -240.154839 
L 704.460759 -240.154839 
L 708.272865 -240.154839 
L 712.084971 -240.154839 
L 715.897077 -240.154839 
L 719.709183 -240.154839 
L 723.521289 -240.154839 
L 727.333395 -240.154839 
L 731.145501 -240.154839 
L 734.957606 -240.154839 
L 738.769712 -240.154839 
L 742.581818 -240.154839 
L 742.581818 -374.446452 
L 742.581818 -374.446452 
L 738.769712 -374.33177 
L 734.957606 -374.214314 
L 731.145501 -374.09398 
L 727.333395 -373.970662 
L 723.521289 -373.844247 
L 719.709183 -373.714617 
L 715.897077 -373.581648 
L 712.084971 -373.445209 
L 708.272865 -373.305163 
L 704.460759 -373.161364 
L 700.648654 -373.01366 
L 696.836548 -372.86189 
L 693.024442 -372.705882 
L 689.212336 -372.545458 
L 685.40023 -372.380427 
L 681.588124 -372.210587 
L 677.776018 -372.035726 
L 673.963913 -371.855617 
L 670.151807 -371.67002 
L 666.339701 -371.478681 
L 662.527595 -371.281329 
L 658.715489 -371.077677 
L 654.903383 -370.867417 
L 651.091277 -370.650222 
L 647.279171 -370.425745 
L 643.467066 -370.193611 
L 639.65496 -369.953424 
L 635.842854 -369.704755 
L 632.030748 -369.447149 
L 628.218642 -369.180114 
L 624.406536 -368.903123 
L 620.59443 -368.615608 
L 616.782325 -368.316959 
L 612.970219 -368.006515 
L 609.158113 -367.683565 
L 605.346007 -367.347336 
L 601.533901 -366.996992 
L 597.721795 -366.631626 
L 593.909689 -366.25025 
L 590.097583 -365.851788 
L 586.285478 -365.435067 
L 582.473372 -364.9988 
L 578.661266 -364.541581 
L 574.84916 -364.061863 
L 571.037054 -363.557942 
L 567.224948 -363.027941 
L 563.412842 -362.46978 
L 559.600736 -361.881154 
L 555.788631 -361.2595 
L 551.976525 -360.601955 
L 548.164419 -359.905322 
L 544.352313 -359.166006 
L 540.540207 -358.379961 
L 536.728101 -357.542612 
L 532.915995 -356.648768 
L 529.10389 -355.692511 
L 525.291784 -354.667067 
L 521.479678 -353.564646 
L 517.667572 -352.376242 
L 513.855466 -351.091388 
L 510.04336 -349.697846 
L 506.231254 -348.181215 
L 502.419148 -346.524433 
L 498.607043 -344.707132 
L 494.794937 -342.704798 
L 490.982831 -340.487653 
L 487.170725 -338.019172 
L 483.358619 -335.25405 
L 479.546513 -332.135395 
L 475.734407 -328.590779 
L 471.922301 -324.526533 
L 468.110196 -319.819355 
L 464.29809 -314.303582 
L 460.485984 -307.751288 
L 456.673878 -299.84 
L 452.861772 -290.098001 
L 449.049666 -277.806693 
L 445.23756 -261.814776 
L 441.425455 -240.154839 
z
" style="stroke: #cfb991; stroke-opacity: 0.2"/>
    </defs>
    <g clip-path="url(#pd7b684283c)">
     <use xlink:href="#m5a898ee6d8" x="0" y="439.2" style="fill: #cfb991; fill-opacity: 0.2; stroke: #cfb991; stroke-opacity: 0.2"/>
    </g>
   </g>
   <g id="line2d_1">
    <path d="M 441.425455 199.045161 
L 445.23756 177.385224 
L 449.049666 161.393307 
L 452.861772 149.101999 
L 456.673878 139.36 
L 460.485984 131.448712 
L 464.29809 124.896418 
L 468.110196 119.380645 
L 471.922301 114.673467 
L 475.734407 110.609221 
L 479.546513 107.064605 
L 483.358619 103.94595 
L 487.170725 101.180828 
L 490.982831 98.712347 
L 494.794937 96.495202 
L 498.607043 94.492868 
L 502.419148 92.675567 
L 506.231254 91.018785 
L 510.04336 89.502154 
L 513.855466 88.108612 
L 517.667572 86.823758 
L 521.479678 85.635354 
L 525.291784 84.532933 
L 529.10389 83.507489 
L 532.915995 82.551232 
L 536.728101 81.657388 
L 540.540207 80.820039 
L 544.352313 80.033994 
L 548.164419 79.294678 
L 551.976525 78.598045 
L 555.788631 77.9405 
L 559.600736 77.318846 
L 563.412842 76.73022 
L 567.224948 76.172059 
L 571.037054 75.642058 
L 574.84916 75.138137 
L 578.661266 74.658419 
L 582.473372 74.2012 
L 586.285478 73.764933 
L 590.097583 73.348212 
L 593.909689 72.94975 
L 597.721795 72.568374 
L 601.533901 72.203008 
L 605.346007 71.852664 
L 609.158113 71.516435 
L 612.970219 71.193485 
L 616.782325 70.883041 
L 620.59443 70.584392 
L 624.406536 70.296877 
L 628.218642 70.019886 
L 632.030748 69.752851 
L 635.842854 69.495245 
L 639.65496 69.246576 
L 643.467066 69.006389 
L 647.279171 68.774255 
L 651.091277 68.549778 
L 654.903383 68.332583 
L 658.715489 68.122323 
L 662.527595 67.918671 
L 666.339701 67.721319 
L 670.151807 67.52998 
L 673.963913 67.344383 
L 677.776018 67.164274 
L 681.588124 66.989413 
L 685.40023 66.819573 
L 689.212336 66.654542 
L 693.024442 66.494118 
L 696.836548 66.33811 
L 700.648654 66.18634 
L 704.460759 66.038636 
L 708.272865 65.894837 
L 712.084971 65.754791 
L 715.897077 65.618352 
L 719.709183 65.485383 
L 723.521289 65.355753 
L 727.333395 65.229338 
L 731.145501 65.10602 
L 734.957606 64.985686 
L 738.769712 64.86823 
L 742.581818 64.753548 
" clip-path="url(#pd7b684283c)" style="fill: none; stroke: #cfb991; stroke-width: 2.4; stroke-linecap: square"/>
   </g>
   <g id="text_1">
    <!-- CHARM13 -->
    <g style="fill: #cfb991" transform="translate(42.218182 51.735484) scale(0.28 -0.28)">
     <defs>
      <path id="DejaVuSans-Bold-43" d="M 4288 256 
Q 3956 84 3597 -3 
Q 3238 -91 2847 -91 
Q 1681 -91 1000 561 
Q 319 1213 319 2328 
Q 319 3447 1000 4098 
Q 1681 4750 2847 4750 
Q 3238 4750 3597 4662 
Q 3956 4575 4288 4403 
L 4288 3438 
Q 3953 3666 3628 3772 
Q 3303 3878 2944 3878 
Q 2300 3878 1931 3465 
Q 1563 3053 1563 2328 
Q 1563 1606 1931 1193 
Q 2300 781 2944 781 
Q 3303 781 3628 887 
Q 3953 994 4288 1222 
L 4288 256 
z
" transform="scale(0.015625)"/>
      <path id="DejaVuSans-Bold-48" d="M 588 4666 
L 1791 4666 
L 1791 2888 
L 3566 2888 
L 3566 4666 
L 4769 4666 
L 4769 0 
L 3566 0 
L 3566 1978 
L 1791 1978 
L 1791 0 
L 588 0 
L 588 4666 
z
" transform="scale(0.015625)"/>
      <path id="DejaVuSans-Bold-41" d="M 3419 850 
L 1538 850 
L 1241 0 
L 31 0 
L 1759 4666 
L 3194 4666 
L 4922 0 
L 3713 0 
L 3419 850 
z
M 1838 1716 
L 3116 1716 
L 2478 3572 
L 1838 1716 
z
" transform="scale(0.015625)"/>
      <path id="DejaVuSans-Bold-52" d="M 2297 2597 
Q 2675 2597 2839 2737 
Q 3003 2878 3003 3200 
Q 3003 3519 2839 3656 
Q 2675 3794 2297 3794 
L 1791 3794 
L 1791 2597 
L 2297 2597 
z
M 1791 1766 
L 1791 0 
L 588 0 
L 588 4666 
L 2425 4666 
Q 3347 4666 3776 4356 
Q 4206 4047 4206 3378 
Q 4206 2916 3982 2619 
Q 3759 2322 3309 2181 
Q 3556 2125 3751 1926 
Q 3947 1728 4147 1325 
L 4800 0 
L 3519 0 
L 2950 1159 
Q 2778 1509 2601 1637 
Q 2425 1766 2131 1766 
L 1791 1766 
z
" transform="scale(0.015625)"/>
      <path id="DejaVuSans-Bold-4d" d="M 588 4666 
L 2119 4666 
L 3181 2169 
L 4250 4666 
L 5778 4666 
L 5778 0 
L 4641 0 
L 4641 3413 
L 3566 897 
L 2803 897 
L 1728 3413 
L 1728 0 
L 588 0 
L 588 4666 
z
" transform="scale(0.015625)"/>
      <path id="DejaVuSans-Bold-31" d="M 750 831 
L 1813 831 
L 1813 3847 
L 722 3622 
L 722 4441 
L 1806 4666 
L 2950 4666 
L 2950 831 
L 4013 831 
L 4013 0 
L 750 0 
L 750 831 
z
" transform="scale(0.015625)"/>
      <path id="DejaVuSans-Bold-33" d="M 2981 2516 
Q 3453 2394 3698 2092 
Q 3944 1791 3944 1325 
Q 3944 631 3412 270 
Q 2881 -91 1863 -91 
Q 1503 -91 1142 -33 
Q 781 25 428 141 
L 428 1069 
Q 766 900 1098 814 
Q 1431 728 1753 728 
Q 2231 728 2486 893 
Q 2741 1059 2741 1369 
Q 2741 1688 2480 1852 
Q 2219 2016 1709 2016 
L 1228 2016 
L 1228 2791 
L 1734 2791 
Q 2188 2791 2409 2933 
Q 2631 3075 2631 3366 
Q 2631 3634 2415 3781 
Q 2200 3928 1806 3928 
Q 1516 3928 1219 3862 
Q 922 3797 628 3669 
L 628 4550 
Q 984 4650 1334 4700 
Q 1684 4750 2022 4750 
Q 2931 4750 3382 4451 
Q 3834 4153 3834 3553 
Q 3834 3144 3618 2883 
Q 3403 2622 2981 2516 
z
" transform="scale(0.015625)"/>
     </defs>
     <use xlink:href="#DejaVuSans-Bold-43"/>
     <use xlink:href="#DejaVuSans-Bold-48" transform="translate(73.388672 0)"/>
     <use xlink:href="#DejaVuSans-Bold-41" transform="translate(157.080078 0)"/>
     <use xlink:href="#DejaVuSans-Bold-52" transform="translate(234.472656 0)"/>
     <use xlink:href="#DejaVuSans-Bold-4d" transform="translate(311.474609 0)"/>
     <use xlink:href="#DejaVuSans-Bold-31" transform="translate(410.986328 0)"/>
     <use xlink:href="#DejaVuSans-Bold-33" transform="translate(480.566406 0)"/>
    </g>
   </g>
   <g id="text_2">
    <!-- wait — what is this -->
    <g style="fill: #f7f1e5" transform="translate(42.218182 85.993548) scale(0.16 -0.16)">
     <defs>
      <path id="DejaVuSans-Oblique-77" d="M 544 3500 
L 1113 3500 
L 1259 684 
L 2566 3500 
L 3231 3500 
L 3425 684 
L 4666 3500 
L 5241 3500 
L 3641 0 
L 2969 0 
L 2797 2900 
L 1459 0 
L 781 0 
L 544 3500 
z
" transform="scale(0.015625)"/>
      <path id="DejaVuSans-Oblique-61" d="M 3438 1997 
L 3047 0 
L 2472 0 
L 2578 531 
Q 2325 219 2001 64 
Q 1678 -91 1281 -91 
Q 834 -91 548 182 
Q 263 456 263 884 
Q 263 1497 752 1853 
Q 1241 2209 2100 2209 
L 2900 2209 
L 2931 2363 
Q 2938 2388 2941 2417 
Q 2944 2447 2944 2509 
Q 2944 2788 2717 2942 
Q 2491 3097 2081 3097 
Q 1800 3097 1504 3025 
Q 1209 2953 897 2809 
L 997 3341 
Q 1322 3463 1633 3523 
Q 1944 3584 2234 3584 
Q 2853 3584 3176 3315 
Q 3500 3047 3500 2534 
Q 3500 2431 3484 2292 
Q 3469 2153 3438 1997 
z
M 2816 1759 
L 2241 1759 
Q 1534 1759 1195 1570 
Q 856 1381 856 984 
Q 856 709 1029 553 
Q 1203 397 1509 397 
Q 1978 397 2328 733 
Q 2678 1069 2791 1631 
L 2816 1759 
z
" transform="scale(0.015625)"/>
      <path id="DejaVuSans-Oblique-69" d="M 1172 4863 
L 1747 4863 
L 1606 4134 
L 1031 4134 
L 1172 4863 
z
M 909 3500 
L 1484 3500 
L 800 0 
L 225 0 
L 909 3500 
z
" transform="scale(0.015625)"/>
      <path id="DejaVuSans-Oblique-74" d="M 2706 3500 
L 2619 3053 
L 1472 3053 
L 1100 1153 
Q 1081 1047 1072 975 
Q 1063 903 1063 863 
Q 1063 663 1183 572 
Q 1303 481 1569 481 
L 2150 481 
L 2053 0 
L 1503 0 
Q 991 0 739 200 
Q 488 400 488 806 
Q 488 878 497 964 
Q 506 1050 525 1153 
L 897 3053 
L 409 3053 
L 500 3500 
L 978 3500 
L 1172 4494 
L 1747 4494 
L 1556 3500 
L 2706 3500 
z
" transform="scale(0.015625)"/>
      <path id="DejaVuSans-Oblique-20" transform="scale(0.015625)"/>
      <path id="DejaVuSans-Oblique-2014" d="M 356 1978 
L 6131 1978 
L 6044 1528 
L 269 1528 
L 356 1978 
z
" transform="scale(0.015625)"/>
      <path id="DejaVuSans-Oblique-68" d="M 3566 2113 
L 3156 0 
L 2578 0 
L 2988 2091 
Q 3016 2238 3031 2350 
Q 3047 2463 3047 2528 
Q 3047 2791 2881 2937 
Q 2716 3084 2419 3084 
Q 1956 3084 1617 2771 
Q 1278 2459 1178 1941 
L 800 0 
L 225 0 
L 1172 4863 
L 1747 4863 
L 1375 2950 
Q 1594 3244 1934 3414 
Q 2275 3584 2650 3584 
Q 3113 3584 3367 3334 
Q 3622 3084 3622 2631 
Q 3622 2519 3608 2391 
Q 3594 2263 3566 2113 
z
" transform="scale(0.015625)"/>
      <path id="DejaVuSans-Oblique-73" d="M 3200 3397 
L 3091 2853 
Q 2863 2978 2609 3040 
Q 2356 3103 2088 3103 
Q 1634 3103 1373 2948 
Q 1113 2794 1113 2528 
Q 1113 2219 1719 2053 
Q 1766 2041 1788 2034 
L 1972 1978 
Q 2547 1819 2739 1644 
Q 2931 1469 2931 1166 
Q 2931 609 2489 259 
Q 2047 -91 1331 -91 
Q 1053 -91 747 -37 
Q 441 16 72 128 
L 184 722 
Q 500 559 806 475 
Q 1113 391 1394 391 
Q 1816 391 2080 572 
Q 2344 753 2344 1031 
Q 2344 1331 1650 1516 
L 1591 1531 
L 1394 1581 
Q 956 1697 753 1886 
Q 550 2075 550 2369 
Q 550 2928 970 3256 
Q 1391 3584 2113 3584 
Q 2397 3584 2667 3537 
Q 2938 3491 3200 3397 
z
" transform="scale(0.015625)"/>
     </defs>
     <use xlink:href="#DejaVuSans-Oblique-77"/>
     <use xlink:href="#DejaVuSans-Oblique-61" transform="translate(81.787109 0)"/>
     <use xlink:href="#DejaVuSans-Oblique-69" transform="translate(143.066406 0)"/>
     <use xlink:href="#DejaVuSans-Oblique-74" transform="translate(170.849609 0)"/>
     <use xlink:href="#DejaVuSans-Oblique-20" transform="translate(210.058594 0)"/>
     <use xlink:href="#DejaVuSans-Oblique-2014" transform="translate(241.845703 0)"/>
     <use xlink:href="#DejaVuSans-Oblique-20" transform="translate(341.845703 0)"/>
     <use xlink:href="#DejaVuSans-Oblique-77" transform="translate(373.632812 0)"/>
     <use xlink:href="#DejaVuSans-Oblique-68" transform="translate(455.419922 0)"/>
     <use xlink:href="#DejaVuSans-Oblique-61" transform="translate(518.798828 0)"/>
     <use xlink:href="#DejaVuSans-Oblique-74" transform="translate(580.078125 0)"/>
     <use xlink:href="#DejaVuSans-Oblique-20" transform="translate(619.287109 0)"/>
     <use xlink:href="#DejaVuSans-Oblique-69" transform="translate(651.074219 0)"/>
     <use xlink:href="#DejaVuSans-Oblique-73" transform="translate(678.857422 0)"/>
     <use xlink:href="#DejaVuSans-Oblique-20" transform="translate(730.957031 0)"/>
     <use xlink:href="#DejaVuSans-Oblique-74" transform="translate(762.744141 0)"/>
     <use xlink:href="#DejaVuSans-Oblique-68" transform="translate(801.953125 0)"/>
     <use xlink:href="#DejaVuSans-Oblique-69" transform="translate(865.332031 0)"/>
     <use xlink:href="#DejaVuSans-Oblique-73" transform="translate(893.115234 0)"/>
    </g>
   </g>
   <g id="text_3">
    <!-- A camouflage factory that builds cover stories for encrypted volumes… -->
    <g style="fill: #cfb991" transform="translate(42.218182 90.733347) scale(0.11 -0.11)">
     <defs>
      <path id="DejaVuSans-41" d="M 2188 4044 
L 1331 1722 
L 3047 1722 
L 2188 4044 
z
M 1831 4666 
L 2547 4666 
L 4325 0 
L 3669 0 
L 3244 1197 
L 1141 1197 
L 716 0 
L 50 0 
L 1831 4666 
z
" transform="scale(0.015625)"/>
      <path id="DejaVuSans-20" transform="scale(0.015625)"/>
      <path id="DejaVuSans-63" d="M 3122 3366 
L 3122 2828 
Q 2878 2963 2633 3030 
Q 2388 3097 2138 3097 
Q 1578 3097 1268 2742 
Q 959 2388 959 1747 
Q 959 1106 1268 751 
Q 1578 397 2138 397 
Q 2388 397 2633 464 
Q 2878 531 3122 666 
L 3122 134 
Q 2881 22 2623 -34 
Q 2366 -91 2075 -91 
Q 1284 -91 818 406 
Q 353 903 353 1747 
Q 353 2603 823 3093 
Q 1294 3584 2113 3584 
Q 2378 3584 2631 3529 
Q 2884 3475 3122 3366 
z
" transform="scale(0.015625)"/>
      <path id="DejaVuSans-61" d="M 2194 1759 
Q 1497 1759 1228 1600 
Q 959 1441 959 1056 
Q 959 750 1161 570 
Q 1363 391 1709 391 
Q 2188 391 2477 730 
Q 2766 1069 2766 1631 
L 2766 1759 
L 2194 1759 
z
M 3341 1997 
L 3341 0 
L 2766 0 
L 2766 531 
Q 2569 213 2275 61 
Q 1981 -91 1556 -91 
Q 1019 -91 701 211 
Q 384 513 384 1019 
Q 384 1609 779 1909 
Q 1175 2209 1959 2209 
L 2766 2209 
L 2766 2266 
Q 2766 2663 2505 2880 
Q 2244 3097 1772 3097 
Q 1472 3097 1187 3025 
Q 903 2953 641 2809 
L 641 3341 
Q 956 3463 1253 3523 
Q 1550 3584 1831 3584 
Q 2591 3584 2966 3190 
Q 3341 2797 3341 1997 
z
" transform="scale(0.015625)"/>
      <path id="DejaVuSans-6d" d="M 3328 2828 
Q 3544 3216 3844 3400 
Q 4144 3584 4550 3584 
Q 5097 3584 5394 3201 
Q 5691 2819 5691 2113 
L 5691 0 
L 5113 0 
L 5113 2094 
Q 5113 2597 4934 2840 
Q 4756 3084 4391 3084 
Q 3944 3084 3684 2787 
Q 3425 2491 3425 1978 
L 3425 0 
L 2847 0 
L 2847 2094 
Q 2847 2600 2669 2842 
Q 2491 3084 2119 3084 
Q 1678 3084 1418 2786 
Q 1159 2488 1159 1978 
L 1159 0 
L 581 0 
L 581 3500 
L 1159 3500 
L 1159 2956 
Q 1356 3278 1631 3431 
Q 1906 3584 2284 3584 
Q 2666 3584 2933 3390 
Q 3200 3197 3328 2828 
z
" transform="scale(0.015625)"/>
      <path id="DejaVuSans-6f" d="M 1959 3097 
Q 1497 3097 1228 2736 
Q 959 2375 959 1747 
Q 959 1119 1226 758 
Q 1494 397 1959 397 
Q 2419 397 2687 759 
Q 2956 1122 2956 1747 
Q 2956 2369 2687 2733 
Q 2419 3097 1959 3097 
z
M 1959 3584 
Q 2709 3584 3137 3096 
Q 3566 2609 3566 1747 
Q 3566 888 3137 398 
Q 2709 -91 1959 -91 
Q 1206 -91 779 398 
Q 353 888 353 1747 
Q 353 2609 779 3096 
Q 1206 3584 1959 3584 
z
" transform="scale(0.015625)"/>
      <path id="DejaVuSans-75" d="M 544 1381 
L 544 3500 
L 1119 3500 
L 1119 1403 
Q 1119 906 1312 657 
Q 1506 409 1894 409 
Q 2359 409 2629 706 
Q 2900 1003 2900 1516 
L 2900 3500 
L 3475 3500 
L 3475 0 
L 2900 0 
L 2900 538 
Q 2691 219 2414 64 
Q 2138 -91 1772 -91 
Q 1169 -91 856 284 
Q 544 659 544 1381 
z
M 1991 3584 
L 1991 3584 
z
" transform="scale(0.015625)"/>
      <path id="DejaVuSans-66" d="M 2375 4863 
L 2375 4384 
L 1825 4384 
Q 1516 4384 1395 4259 
Q 1275 4134 1275 3809 
L 1275 3500 
L 2222 3500 
L 2222 3053 
L 1275 3053 
L 1275 0 
L 697 0 
L 697 3053 
L 147 3053 
L 147 3500 
L 697 3500 
L 697 3744 
Q 697 4328 969 4595 
Q 1241 4863 1831 4863 
L 2375 4863 
z
" transform="scale(0.015625)"/>
      <path id="DejaVuSans-6c" d="M 603 4863 
L 1178 4863 
L 1178 0 
L 603 0 
L 603 4863 
z
" transform="scale(0.015625)"/>
      <path id="DejaVuSans-67" d="M 2906 1791 
Q 2906 2416 2648 2759 
Q 2391 3103 1925 3103 
Q 1463 3103 1205 2759 
Q 947 2416 947 1791 
Q 947 1169 1205 825 
Q 1463 481 1925 481 
Q 2391 481 2648 825 
Q 2906 1169 2906 1791 
z
M 3481 434 
Q 3481 -459 3084 -895 
Q 2688 -1331 1869 -1331 
Q 1566 -1331 1297 -1286 
Q 1028 -1241 775 -1147 
L 775 -588 
Q 1028 -725 1275 -790 
Q 1522 -856 1778 -856 
Q 2344 -856 2625 -561 
Q 2906 -266 2906 331 
L 2906 616 
Q 2728 306 2450 153 
Q 2172 0 1784 0 
Q 1141 0 747 490 
Q 353 981 353 1791 
Q 353 2603 747 3093 
Q 1141 3584 1784 3584 
Q 2172 3584 2450 3431 
Q 2728 3278 2906 2969 
L 2906 3500 
L 3481 3500 
L 3481 434 
z
" transform="scale(0.015625)"/>
      <path id="DejaVuSans-65" d="M 3597 1894 
L 3597 1613 
L 953 1613 
Q 991 1019 1311 708 
Q 1631 397 2203 397 
Q 2534 397 2845 478 
Q 3156 559 3463 722 
L 3463 178 
Q 3153 47 2828 -22 
Q 2503 -91 2169 -91 
Q 1331 -91 842 396 
Q 353 884 353 1716 
Q 353 2575 817 3079 
Q 1281 3584 2069 3584 
Q 2775 3584 3186 3129 
Q 3597 2675 3597 1894 
z
M 3022 2063 
Q 3016 2534 2758 2815 
Q 2500 3097 2075 3097 
Q 1594 3097 1305 2825 
Q 1016 2553 972 2059 
L 3022 2063 
z
" transform="scale(0.015625)"/>
      <path id="DejaVuSans-74" d="M 1172 4494 
L 1172 3500 
L 2356 3500 
L 2356 3053 
L 1172 3053 
L 1172 1153 
Q 1172 725 1289 603 
Q 1406 481 1766 481 
L 2356 481 
L 2356 0 
L 1766 0 
Q 1100 0 847 248 
Q 594 497 594 1153 
L 594 3053 
L 172 3053 
L 172 3500 
L 594 3500 
L 594 4494 
L 1172 4494 
z
" transform="scale(0.015625)"/>
      <path id="DejaVuSans-72" d="M 2631 2963 
Q 2534 3019 2420 3045 
Q 2306 3072 2169 3072 
Q 1681 3072 1420 2755 
Q 1159 2438 1159 1844 
L 1159 0 
L 581 0 
L 581 3500 
L 1159 3500 
L 1159 2956 
Q 1341 3275 1631 3429 
Q 1922 3584 2338 3584 
Q 2397 3584 2469 3576 
Q 2541 3569 2628 3553 
L 2631 2963 
z
" transform="scale(0.015625)"/>
      <path id="DejaVuSans-79" d="M 2059 -325 
Q 1816 -950 1584 -1140 
Q 1353 -1331 966 -1331 
L 506 -1331 
L 506 -850 
L 844 -850 
Q 1081 -850 1212 -737 
Q 1344 -625 1503 -206 
L 1606 56 
L 191 3500 
L 800 3500 
L 1894 763 
L 2988 3500 
L 3597 3500 
L 2059 -325 
z
" transform="scale(0.015625)"/>
      <path id="DejaVuSans-68" d="M 3513 2113 
L 3513 0 
L 2938 0 
L 2938 2094 
Q 2938 2591 2744 2837 
Q 2550 3084 2163 3084 
Q 1697 3084 1428 2787 
Q 1159 2491 1159 1978 
L 1159 0 
L 581 0 
L 581 4863 
L 1159 4863 
L 1159 2956 
Q 1366 3272 1645 3428 
Q 1925 3584 2291 3584 
Q 2894 3584 3203 3211 
Q 3513 2838 3513 2113 
z
" transform="scale(0.015625)"/>
      <path id="DejaVuSans-62" d="M 3116 1747 
Q 3116 2381 2855 2742 
Q 2594 3103 2138 3103 
Q 1681 3103 1420 2742 
Q 1159 2381 1159 1747 
Q 1159 1113 1420 752 
Q 1681 391 2138 391 
Q 2594 391 2855 752 
Q 3116 1113 3116 1747 
z
M 1159 2969 
Q 1341 3281 1617 3432 
Q 1894 3584 2278 3584 
Q 2916 3584 3314 3078 
Q 3713 2572 3713 1747 
Q 3713 922 3314 415 
Q 2916 -91 2278 -91 
Q 1894 -91 1617 61 
Q 1341 213 1159 525 
L 1159 0 
L 581 0 
L 581 4863 
L 1159 4863 
L 1159 2969 
z
" transform="scale(0.015625)"/>
      <path id="DejaVuSans-69" d="M 603 3500 
L 1178 3500 
L 1178 0 
L 603 0 
L 603 3500 
z
M 603 4863 
L 1178 4863 
L 1178 4134 
L 603 4134 
L 603 4863 
z
" transform="scale(0.015625)"/>
      <path id="DejaVuSans-64" d="M 2906 2969 
L 2906 4863 
L 3481 4863 
L 3481 0 
L 2906 0 
L 2906 525 
Q 2725 213 2448 61 
Q 2172 -91 1784 -91 
Q 1150 -91 751 415 
Q 353 922 353 1747 
Q 353 2572 751 3078 
Q 1150 3584 1784 3584 
Q 2172 3584 2448 3432 
Q 2725 3281 2906 2969 
z
M 947 1747 
Q 947 1113 1208 752 
Q 1469 391 1925 391 
Q 2381 391 2643 752 
Q 2906 1113 2906 1747 
Q 2906 2381 2643 2742 
Q 2381 3103 1925 3103 
Q 1469 3103 1208 2742 
Q 947 2381 947 1747 
z
" transform="scale(0.015625)"/>
      <path id="DejaVuSans-73" d="M 2834 3397 
L 2834 2853 
Q 2591 2978 2328 3040 
Q 2066 3103 1784 3103 
Q 1356 3103 1142 2972 
Q 928 2841 928 2578 
Q 928 2378 1081 2264 
Q 1234 2150 1697 2047 
L 1894 2003 
Q 2506 1872 2764 1633 
Q 3022 1394 3022 966 
Q 3022 478 2636 193 
Q 2250 -91 1575 -91 
Q 1294 -91 989 -36 
Q 684 19 347 128 
L 347 722 
Q 666 556 975 473 
Q 1284 391 1588 391 
Q 1994 391 2212 530 
Q 2431 669 2431 922 
Q 2431 1156 2273 1281 
Q 2116 1406 1581 1522 
L 1381 1569 
Q 847 1681 609 1914 
Q 372 2147 372 2553 
Q 372 3047 722 3315 
Q 1072 3584 1716 3584 
Q 2034 3584 2315 3537 
Q 2597 3491 2834 3397 
z
" transform="scale(0.015625)"/>
      <path id="DejaVuSans-76" d="M 191 3500 
L 800 3500 
L 1894 563 
L 2988 3500 
L 3597 3500 
L 2284 0 
L 1503 0 
L 191 3500 
z
" transform="scale(0.015625)"/>
      <path id="DejaVuSans-6e" d="M 3513 2113 
L 3513 0 
L 2938 0 
L 2938 2094 
Q 2938 2591 2744 2837 
Q 2550 3084 2163 3084 
Q 1697 3084 1428 2787 
Q 1159 2491 1159 1978 
L 1159 0 
L 581 0 
L 581 3500 
L 1159 3500 
L 1159 2956 
Q 1366 3272 1645 3428 
Q 1925 3584 2291 3584 
Q 2894 3584 3203 3211 
Q 3513 2838 3513 2113 
z
" transform="scale(0.015625)"/>
      <path id="DejaVuSans-70" d="M 1159 525 
L 1159 -1331 
L 581 -1331 
L 581 3500 
L 1159 3500 
L 1159 2969 
Q 1341 3281 1617 3432 
Q 1894 3584 2278 3584 
Q 2916 3584 3314 3078 
Q 3713 2572 3713 1747 
Q 3713 922 3314 415 
Q 2916 -91 2278 -91 
Q 1894 -91 1617 61 
Q 1341 213 1159 525 
z
M 3116 1747 
Q 3116 2381 2855 2742 
Q 2594 3103 2138 3103 
Q 1681 3103 1420 2742 
Q 1159 2381 1159 1747 
Q 1159 1113 1420 752 
Q 1681 391 2138 391 
Q 2594 391 2855 752 
Q 3116 1113 3116 1747 
z
" transform="scale(0.015625)"/>
      <path id="DejaVuSans-2026" d="M 2869 794 
L 3531 794 
L 3531 0 
L 2869 0 
L 2869 794 
z
M 4997 794 
L 5663 794 
L 5663 0 
L 4997 0 
L 4997 794 
z
M 738 794 
L 1403 794 
L 1403 0 
L 738 0 
L 738 794 
z
" transform="scale(0.015625)"/>
     </defs>
     <use xlink:href="#DejaVuSans-41"/>
     <use xlink:href="#DejaVuSans-20" transform="translate(68.408203 0)"/>
     <use xlink:href="#DejaVuSans-63" transform="translate(100.195312 0)"/>
     <use xlink:href="#DejaVuSans-61" transform="translate(155.175781 0)"/>
     <use xlink:href="#DejaVuSans-6d" transform="translate(216.455078 0)"/>
     <use xlink:href="#DejaVuSans-6f" transform="translate(313.867188 0)"/>
     <use xlink:href="#DejaVuSans-75" transform="translate(375.048828 0)"/>
     <use xlink:href="#DejaVuSans-66" transform="translate(438.427734 0)"/>
     <use xlink:href="#DejaVuSans-6c" transform="translate(473.632812 0)"/>
     <use xlink:href="#DejaVuSans-61" transform="translate(501.416016 0)"/>
     <use xlink:href="#DejaVuSans-67" transform="translate(562.695312 0)"/>
     <use xlink:href="#DejaVuSans-65" transform="translate(626.171875 0)"/>
     <use xlink:href="#DejaVuSans-20" transform="translate(687.695312 0)"/>
     <use xlink:href="#DejaVuSans-66" transform="translate(719.482422 0)"/>
     <use xlink:href="#DejaVuSans-61" transform="translate(754.6875 0)"/>
     <use xlink:href="#DejaVuSans-63" transform="translate(815.966797 0)"/>
     <use xlink:href="#DejaVuSans-74" transform="translate(870.947266 0)"/>
     <use xlink:href="#DejaVuSans-6f" transform="translate(910.15625 0)"/>
     <use xlink:href="#DejaVuSans-72" transform="translate(971.337891 0)"/>
     <use xlink:href="#DejaVuSans-79" transform="translate(1012.451172 0)"/>
     <use xlink:href="#DejaVuSans-20" transform="translate(1071.630859 0)"/>
     <use xlink:href="#DejaVuSans-74" transform="translate(1103.417969 0)"/>
     <use xlink:href="#DejaVuSans-68" transform="translate(1142.626953 0)"/>
     <use xlink:href="#DejaVuSans-61" transform="translate(1206.005859 0)"/>
     <use xlink:href="#DejaVuSans-74" transform="translate(1267.285156 0)"/>
     <use xlink:href="#DejaVuSans-20" transform="translate(1306.494141 0)"/>
     <use xlink:href="#DejaVuSans-62" transform="translate(1338.28125 0)"/>
     <use xlink:href="#DejaVuSans-75" transform="translate(1401.757812 0)"/>
     <use xlink:href="#DejaVuSans-69" transform="translate(1465.136719 0)"/>
     <use xlink:href="#DejaVuSans-6c" transform="translate(1492.919922 0)"/>
     <use xlink:href="#DejaVuSans-64" transform="translate(1520.703125 0)"/>
     <use xlink:href="#DejaVuSans-73" transform="translate(1584.179688 0)"/>
     <use xlink:href="#DejaVuSans-20" transform="translate(1636.279297 0)"/>
     <use xlink:href="#DejaVuSans-63" transform="translate(1668.066406 0)"/>
     <use xlink:href="#DejaVuSans-6f" transform="translate(1723.046875 0)"/>
     <use xlink:href="#DejaVuSans-76" transform="translate(1784.228516 0)"/>
     <use xlink:href="#DejaVuSans-65" transform="translate(1843.408203 0)"/>
     <use xlink:href="#DejaVuSans-72" transform="translate(1904.931641 0)"/>
     <use xlink:href="#DejaVuSans-20" transform="translate(1946.044922 0)"/>
     <use xlink:href="#DejaVuSans-73" transform="translate(1977.832031 0)"/>
     <use xlink:href="#DejaVuSans-74" transform="translate(2029.931641 0)"/>
     <use xlink:href="#DejaVuSans-6f" transform="translate(2069.140625 0)"/>
     <use xlink:href="#DejaVuSans-72" transform="translate(2130.322266 0)"/>
     <use xlink:href="#DejaVuSans-69" transform="translate(2171.435547 0)"/>
     <use xlink:href="#DejaVuSans-65" transform="translate(2199.21875 0)"/>
     <use xlink:href="#DejaVuSans-73" transform="translate(2260.742188 0)"/>
     <use xlink:href="#DejaVuSans-20" transform="translate(2312.841797 0)"/>
     <use xlink:href="#DejaVuSans-66" transform="translate(2344.628906 0)"/>
     <use xlink:href="#DejaVuSans-6f" transform="translate(2379.833984 0)"/>
     <use xlink:href="#DejaVuSans-72" transform="translate(2441.015625 0)"/>
     <use xlink:href="#DejaVuSans-20" transform="translate(2482.128906 0)"/>
     <use xlink:href="#DejaVuSans-65" transform="translate(2513.916016 0)"/>
     <use xlink:href="#DejaVuSans-6e" transform="translate(2575.439453 0)"/>
     <use xlink:href="#DejaVuSans-63" transform="translate(2638.818359 0)"/>
     <use xlink:href="#DejaVuSans-72" transform="translate(2693.798828 0)"/>
     <use xlink:href="#DejaVuSans-79" transform="translate(2734.912109 0)"/>
     <use xlink:href="#DejaVuSans-70" transform="translate(2794.091797 0)"/>
     <use xlink:href="#DejaVuSans-74" transform="translate(2857.568359 0)"/>
     <use xlink:href="#DejaVuSans-65" transform="translate(2896.777344 0)"/>
     <use xlink:href="#DejaVuSans-64" transform="translate(2958.300781 0)"/>
     <use xlink:href="#DejaVuSans-20" transform="translate(3021.777344 0)"/>
     <use xlink:href="#DejaVuSans-76" transform="translate(3053.564453 0)"/>
     <use xlink:href="#DejaVuSans-6f" transform="translate(3112.744141 0)"/>
     <use xlink:href="#DejaVuSans-6c" transform="translate(3173.925781 0)"/>
     <use xlink:href="#DejaVuSans-75" transform="translate(3201.708984 0)"/>
     <use xlink:href="#DejaVuSans-6d" transform="translate(3265.087891 0)"/>
     <use xlink:href="#DejaVuSans-65" transform="translate(3362.5 0)"/>
     <use xlink:href="#DejaVuSans-73" transform="translate(3424.023438 0)"/>
     <use xlink:href="#DejaVuSans-2026" transform="translate(3476.123047 0)"/>
    </g>
    <!-- then runs a detector that is allowed to refuse its own lies. -->
    <g style="fill: #cfb991" transform="translate(42.218182 105.140511) scale(0.11 -0.11)">
     <defs>
      <path id="DejaVuSans-77" d="M 269 3500 
L 844 3500 
L 1563 769 
L 2278 3500 
L 2956 3500 
L 3675 769 
L 4391 3500 
L 4966 3500 
L 4050 0 
L 3372 0 
L 2619 2869 
L 1863 0 
L 1184 0 
L 269 3500 
z
" transform="scale(0.015625)"/>
      <path id="DejaVuSans-2e" d="M 684 794 
L 1344 794 
L 1344 0 
L 684 0 
L 684 794 
z
" transform="scale(0.015625)"/>
     </defs>
     <use xlink:href="#DejaVuSans-74"/>
     <use xlink:href="#DejaVuSans-68" transform="translate(39.208984 0)"/>
     <use xlink:href="#DejaVuSans-65" transform="translate(102.587891 0)"/>
     <use xlink:href="#DejaVuSans-6e" transform="translate(164.111328 0)"/>
     <use xlink:href="#DejaVuSans-20" transform="translate(227.490234 0)"/>
     <use xlink:href="#DejaVuSans-72" transform="translate(259.277344 0)"/>
     <use xlink:href="#DejaVuSans-75" transform="translate(300.390625 0)"/>
     <use xlink:href="#DejaVuSans-6e" transform="translate(363.769531 0)"/>
     <use xlink:href="#DejaVuSans-73" transform="translate(427.148438 0)"/>
     <use xlink:href="#DejaVuSans-20" transform="translate(479.248047 0)"/>
     <use xlink:href="#DejaVuSans-61" transform="translate(511.035156 0)"/>
     <use xlink:href="#DejaVuSans-20" transform="translate(572.314453 0)"/>
     <use xlink:href="#DejaVuSans-64" transform="translate(604.101562 0)"/>
     <use xlink:href="#DejaVuSans-65" transform="translate(667.578125 0)"/>
     <use xlink:href="#DejaVuSans-74" transform="translate(729.101562 0)"/>
     <use xlink:href="#DejaVuSans-65" transform="translate(768.310547 0)"/>
     <use xlink:href="#DejaVuSans-63" transform="translate(829.833984 0)"/>
     <use xlink:href="#DejaVuSans-74" transform="translate(884.814453 0)"/>
     <use xlink:href="#DejaVuSans-6f" transform="translate(924.023438 0)"/>
     <use xlink:href="#DejaVuSans-72" transform="translate(985.205078 0)"/>
     <use xlink:href="#DejaVuSans-20" transform="translate(1026.318359 0)"/>
     <use xlink:href="#DejaVuSans-74" transform="translate(1058.105469 0)"/>
     <use xlink:href="#DejaVuSans-68" transform="translate(1097.314453 0)"/>
     <use xlink:href="#DejaVuSans-61" transform="translate(1160.693359 0)"/>
     <use xlink:href="#DejaVuSans-74" transform="translate(1221.972656 0)"/>
     <use xlink:href="#DejaVuSans-20" transform="translate(1261.181641 0)"/>
     <use xlink:href="#DejaVuSans-69" transform="translate(1292.96875 0)"/>
     <use xlink:href="#DejaVuSans-73" transform="translate(1320.751953 0)"/>
     <use xlink:href="#DejaVuSans-20" transform="translate(1372.851562 0)"/>
     <use xlink:href="#DejaVuSans-61" transform="translate(1404.638672 0)"/>
     <use xlink:href="#DejaVuSans-6c" transform="translate(1465.917969 0)"/>
     <use xlink:href="#DejaVuSans-6c" transform="translate(1493.701172 0)"/>
     <use xlink:href="#DejaVuSans-6f" transform="translate(1521.484375 0)"/>
     <use xlink:href="#DejaVuSans-77" transform="translate(1582.666016 0)"/>
     <use xlink:href="#DejaVuSans-65" transform="translate(1664.453125 0)"/>
     <use xlink:href="#DejaVuSans-64" transform="translate(1725.976562 0)"/>
     <use xlink:href="#DejaVuSans-20" transform="translate(1789.453125 0)"/>
     <use xlink:href="#DejaVuSans-74" transform="translate(1821.240234 0)"/>
     <use xlink:href="#DejaVuSans-6f" transform="translate(1860.449219 0)"/>
     <use xlink:href="#DejaVuSans-20" transform="translate(1921.630859 0)"/>
     <use xlink:href="#DejaVuSans-72" transform="translate(1953.417969 0)"/>
     <use xlink:href="#DejaVuSans-65" transform="translate(1992.28125 0)"/>
     <use xlink:href="#DejaVuSans-66" transform="translate(2053.804688 0)"/>
     <use xlink:href="#DejaVuSans-75" transform="translate(2089.009766 0)"/>
     <use xlink:href="#DejaVuSans-73" transform="translate(2152.388672 0)"/>
     <use xlink:href="#DejaVuSans-65" transform="translate(2204.488281 0)"/>
     <use xlink:href="#DejaVuSans-20" transform="translate(2266.011719 0)"/>
     <use xlink:href="#DejaVuSans-69" transform="translate(2297.798828 0)"/>
     <use xlink:href="#DejaVuSans-74" transform="translate(2325.582031 0)"/>
     <use xlink:href="#DejaVuSans-73" transform="translate(2364.791016 0)"/>
     <use xlink:href="#DejaVuSans-20" transform="translate(2416.890625 0)"/>
     <use xlink:href="#DejaVuSans-6f" transform="translate(2448.677734 0)"/>
     <use xlink:href="#DejaVuSans-77" transform="translate(2509.859375 0)"/>
     <use xlink:href="#DejaVuSans-6e" transform="translate(2591.646484 0)"/>
     <use xlink:href="#DejaVuSans-20" transform="translate(2655.025391 0)"/>
     <use xlink:href="#DejaVuSans-6c" transform="translate(2686.8125 0)"/>
     <use xlink:href="#DejaVuSans-69" transform="translate(2714.595703 0)"/>
     <use xlink:href="#DejaVuSans-65" transform="translate(2742.378906 0)"/>
     <use xlink:href="#DejaVuSans-73" transform="translate(2803.902344 0)"/>
     <use xlink:href="#DejaVuSans-2e" transform="translate(2856.001953 0)"/>
    </g>
    <!-- Plus finite-model math showing that a curious adaptive inspector -->
    <g style="fill: #cfb991" transform="translate(42.218182 119.547675) scale(0.11 -0.11)">
     <defs>
      <path id="DejaVuSans-50" d="M 1259 4147 
L 1259 2394 
L 2053 2394 
Q 2494 2394 2734 2622 
Q 2975 2850 2975 3272 
Q 2975 3691 2734 3919 
Q 2494 4147 2053 4147 
L 1259 4147 
z
M 628 4666 
L 2053 4666 
Q 2838 4666 3239 4311 
Q 3641 3956 3641 3272 
Q 3641 2581 3239 2228 
Q 2838 1875 2053 1875 
L 1259 1875 
L 1259 0 
L 628 0 
L 628 4666 
z
" transform="scale(0.015625)"/>
      <path id="DejaVuSans-2d" d="M 313 2009 
L 1997 2009 
L 1997 1497 
L 313 1497 
L 313 2009 
z
" transform="scale(0.015625)"/>
     </defs>
     <use xlink:href="#DejaVuSans-50"/>
     <use xlink:href="#DejaVuSans-6c" transform="translate(60.302734 0)"/>
     <use xlink:href="#DejaVuSans-75" transform="translate(88.085938 0)"/>
     <use xlink:href="#DejaVuSans-73" transform="translate(151.464844 0)"/>
     <use xlink:href="#DejaVuSans-20" transform="translate(203.564453 0)"/>
     <use xlink:href="#DejaVuSans-66" transform="translate(235.351562 0)"/>
     <use xlink:href="#DejaVuSans-69" transform="translate(270.556641 0)"/>
     <use xlink:href="#DejaVuSans-6e" transform="translate(298.339844 0)"/>
     <use xlink:href="#DejaVuSans-69" transform="translate(361.71875 0)"/>
     <use xlink:href="#DejaVuSans-74" transform="translate(389.501953 0)"/>
     <use xlink:href="#DejaVuSans-65" transform="translate(428.710938 0)"/>
     <use xlink:href="#DejaVuSans-2d" transform="translate(490.234375 0)"/>
     <use xlink:href="#DejaVuSans-6d" transform="translate(526.318359 0)"/>
     <use xlink:href="#DejaVuSans-6f" transform="translate(623.730469 0)"/>
     <use xlink:href="#DejaVuSans-64" transform="translate(684.912109 0)"/>
     <use xlink:href="#DejaVuSans-65" transform="translate(748.388672 0)"/>
     <use xlink:href="#DejaVuSans-6c" transform="translate(809.912109 0)"/>
     <use xlink:href="#DejaVuSans-20" transform="translate(837.695312 0)"/>
     <use xlink:href="#DejaVuSans-6d" transform="translate(869.482422 0)"/>
     <use xlink:href="#DejaVuSans-61" transform="translate(966.894531 0)"/>
     <use xlink:href="#DejaVuSans-74" transform="translate(1028.173828 0)"/>
     <use xlink:href="#DejaVuSans-68" transform="translate(1067.382812 0)"/>
     <use xlink:href="#DejaVuSans-20" transform="translate(1130.761719 0)"/>
     <use xlink:href="#DejaVuSans-73" transform="translate(1162.548828 0)"/>
     <use xlink:href="#DejaVuSans-68" transform="translate(1214.648438 0)"/>
     <use xlink:href="#DejaVuSans-6f" transform="translate(1278.027344 0)"/>
     <use xlink:href="#DejaVuSans-77" transform="translate(1339.208984 0)"/>
     <use xlink:href="#DejaVuSans-69" transform="translate(1420.996094 0)"/>
     <use xlink:href="#DejaVuSans-6e" transform="translate(1448.779297 0)"/>
     <use xlink:href="#DejaVuSans-67" transform="translate(1512.158203 0)"/>
     <use xlink:href="#DejaVuSans-20" transform="translate(1575.634766 0)"/>
     <use xlink:href="#DejaVuSans-74" transform="translate(1607.421875 0)"/>
     <use xlink:href="#DejaVuSans-68" transform="translate(1646.630859 0)"/>
     <use xlink:href="#DejaVuSans-61" transform="translate(1710.009766 0)"/>
     <use xlink:href="#DejaVuSans-74" transform="translate(1771.289062 0)"/>
     <use xlink:href="#DejaVuSans-20" transform="translate(1810.498047 0)"/>
     <use xlink:href="#DejaVuSans-61" transform="translate(1842.285156 0)"/>
     <use xlink:href="#DejaVuSans-20" transform="translate(1903.564453 0)"/>
     <use xlink:href="#DejaVuSans-63" transform="translate(1935.351562 0)"/>
     <use xlink:href="#DejaVuSans-75" transform="translate(1990.332031 0)"/>
     <use xlink:href="#DejaVuSans-72" transform="translate(2053.710938 0)"/>
     <use xlink:href="#DejaVuSans-69" transform="translate(2094.824219 0)"/>
     <use xlink:href="#DejaVuSans-6f" transform="translate(2122.607422 0)"/>
     <use xlink:href="#DejaVuSans-75" transform="translate(2183.789062 0)"/>
     <use xlink:href="#DejaVuSans-73" transform="translate(2247.167969 0)"/>
     <use xlink:href="#DejaVuSans-20" transform="translate(2299.267578 0)"/>
     <use xlink:href="#DejaVuSans-61" transform="translate(2331.054688 0)"/>
     <use xlink:href="#DejaVuSans-64" transform="translate(2392.333984 0)"/>
     <use xlink:href="#DejaVuSans-61" transform="translate(2455.810547 0)"/>
     <use xlink:href="#DejaVuSans-70" transform="translate(2517.089844 0)"/>
     <use xlink:href="#DejaVuSans-74" transform="translate(2580.566406 0)"/>
     <use xlink:href="#DejaVuSans-69" transform="translate(2619.775391 0)"/>
     <use xlink:href="#DejaVuSans-76" transform="translate(2647.558594 0)"/>
     <use xlink:href="#DejaVuSans-65" transform="translate(2706.738281 0)"/>
     <use xlink:href="#DejaVuSans-20" transform="translate(2768.261719 0)"/>
     <use xlink:href="#DejaVuSans-69" transform="translate(2800.048828 0)"/>
     <use xlink:href="#DejaVuSans-6e" transform="translate(2827.832031 0)"/>
     <use xlink:href="#DejaVuSans-73" transform="translate(2891.210938 0)"/>
     <use xlink:href="#DejaVuSans-70" transform="translate(2943.310547 0)"/>
     <use xlink:href="#DejaVuSans-65" transform="translate(3006.787109 0)"/>
     <use xlink:href="#DejaVuSans-63" transform="translate(3068.310547 0)"/>
     <use xlink:href="#DejaVuSans-74" transform="translate(3123.291016 0)"/>
     <use xlink:href="#DejaVuSans-6f" transform="translate(3162.5 0)"/>
     <use xlink:href="#DejaVuSans-72" transform="translate(3223.681641 0)"/>
    </g>
    <!-- can crush a fixed checklist of the same look-budget — arbitrarily hard. -->
    <g style="fill: #cfb991" transform="translate(42.218182 133.954839) scale(0.11 -0.11)">
     <defs>
      <path id="DejaVuSans-78" d="M 3513 3500 
L 2247 1797 
L 3578 0 
L 2900 0 
L 1881 1375 
L 863 0 
L 184 0 
L 1544 1831 
L 300 3500 
L 978 3500 
L 1906 2253 
L 2834 3500 
L 3513 3500 
z
" transform="scale(0.015625)"/>
      <path id="DejaVuSans-6b" d="M 581 4863 
L 1159 4863 
L 1159 1991 
L 2875 3500 
L 3609 3500 
L 1753 1863 
L 3688 0 
L 2938 0 
L 1159 1709 
L 1159 0 
L 581 0 
L 581 4863 
z
" transform="scale(0.015625)"/>
      <path id="DejaVuSans-2014" d="M 313 1978 
L 6088 1978 
L 6088 1528 
L 313 1528 
L 313 1978 
z
" transform="scale(0.015625)"/>
     </defs>
     <use xlink:href="#DejaVuSans-63"/>
     <use xlink:href="#DejaVuSans-61" transform="translate(54.980469 0)"/>
     <use xlink:href="#DejaVuSans-6e" transform="translate(116.259766 0)"/>
     <use xlink:href="#DejaVuSans-20" transform="translate(179.638672 0)"/>
     <use xlink:href="#DejaVuSans-63" transform="translate(211.425781 0)"/>
     <use xlink:href="#DejaVuSans-72" transform="translate(266.40625 0)"/>
     <use xlink:href="#DejaVuSans-75" transform="translate(307.519531 0)"/>
     <use xlink:href="#DejaVuSans-73" transform="translate(370.898438 0)"/>
     <use xlink:href="#DejaVuSans-68" transform="translate(422.998047 0)"/>
     <use xlink:href="#DejaVuSans-20" transform="translate(486.376953 0)"/>
     <use xlink:href="#DejaVuSans-61" transform="translate(518.164062 0)"/>
     <use xlink:href="#DejaVuSans-20" transform="translate(579.443359 0)"/>
     <use xlink:href="#DejaVuSans-66" transform="translate(611.230469 0)"/>
     <use xlink:href="#DejaVuSans-69" transform="translate(646.435547 0)"/>
     <use xlink:href="#DejaVuSans-78" transform="translate(674.21875 0)"/>
     <use xlink:href="#DejaVuSans-65" transform="translate(730.273438 0)"/>
     <use xlink:href="#DejaVuSans-64" transform="translate(791.796875 0)"/>
     <use xlink:href="#DejaVuSans-20" transform="translate(855.273438 0)"/>
     <use xlink:href="#DejaVuSans-63" transform="translate(887.060547 0)"/>
     <use xlink:href="#DejaVuSans-68" transform="translate(942.041016 0)"/>
     <use xlink:href="#DejaVuSans-65" transform="translate(1005.419922 0)"/>
     <use xlink:href="#DejaVuSans-63" transform="translate(1066.943359 0)"/>
     <use xlink:href="#DejaVuSans-6b" transform="translate(1121.923828 0)"/>
     <use xlink:href="#DejaVuSans-6c" transform="translate(1179.833984 0)"/>
     <use xlink:href="#DejaVuSans-69" transform="translate(1207.617188 0)"/>
     <use xlink:href="#DejaVuSans-73" transform="translate(1235.400391 0)"/>
     <use xlink:href="#DejaVuSans-74" transform="translate(1287.5 0)"/>
     <use xlink:href="#DejaVuSans-20" transform="translate(1326.708984 0)"/>
     <use xlink:href="#DejaVuSans-6f" transform="translate(1358.496094 0)"/>
     <use xlink:href="#DejaVuSans-66" transform="translate(1419.677734 0)"/>
     <use xlink:href="#DejaVuSans-20" transform="translate(1454.882812 0)"/>
     <use xlink:href="#DejaVuSans-74" transform="translate(1486.669922 0)"/>
     <use xlink:href="#DejaVuSans-68" transform="translate(1525.878906 0)"/>
     <use xlink:href="#DejaVuSans-65" transform="translate(1589.257812 0)"/>
     <use xlink:href="#DejaVuSans-20" transform="translate(1650.78125 0)"/>
     <use xlink:href="#DejaVuSans-73" transform="translate(1682.568359 0)"/>
     <use xlink:href="#DejaVuSans-61" transform="translate(1734.667969 0)"/>
     <use xlink:href="#DejaVuSans-6d" transform="translate(1795.947266 0)"/>
     <use xlink:href="#DejaVuSans-65" transform="translate(1893.359375 0)"/>
     <use xlink:href="#DejaVuSans-20" transform="translate(1954.882812 0)"/>
     <use xlink:href="#DejaVuSans-6c" transform="translate(1986.669922 0)"/>
     <use xlink:href="#DejaVuSans-6f" transform="translate(2014.453125 0)"/>
     <use xlink:href="#DejaVuSans-6f" transform="translate(2075.634766 0)"/>
     <use xlink:href="#DejaVuSans-6b" transform="translate(2136.816406 0)"/>
     <use xlink:href="#DejaVuSans-2d" transform="translate(2194.726562 0)"/>
     <use xlink:href="#DejaVuSans-62" transform="translate(2230.810547 0)"/>
     <use xlink:href="#DejaVuSans-75" transform="translate(2294.287109 0)"/>
     <use xlink:href="#DejaVuSans-64" transform="translate(2357.666016 0)"/>
     <use xlink:href="#DejaVuSans-67" transform="translate(2421.142578 0)"/>
     <use xlink:href="#DejaVuSans-65" transform="translate(2484.619141 0)"/>
     <use xlink:href="#DejaVuSans-74" transform="translate(2546.142578 0)"/>
     <use xlink:href="#DejaVuSans-20" transform="translate(2585.351562 0)"/>
     <use xlink:href="#DejaVuSans-2014" transform="translate(2617.138672 0)"/>
     <use xlink:href="#DejaVuSans-20" transform="translate(2717.138672 0)"/>
     <use xlink:href="#DejaVuSans-61" transform="translate(2748.925781 0)"/>
     <use xlink:href="#DejaVuSans-72" transform="translate(2810.205078 0)"/>
     <use xlink:href="#DejaVuSans-62" transform="translate(2851.318359 0)"/>
     <use xlink:href="#DejaVuSans-69" transform="translate(2914.794922 0)"/>
     <use xlink:href="#DejaVuSans-74" transform="translate(2942.578125 0)"/>
     <use xlink:href="#DejaVuSans-72" transform="translate(2981.787109 0)"/>
     <use xlink:href="#DejaVuSans-61" transform="translate(3022.900391 0)"/>
     <use xlink:href="#DejaVuSans-72" transform="translate(3084.179688 0)"/>
     <use xlink:href="#DejaVuSans-69" transform="translate(3125.292969 0)"/>
     <use xlink:href="#DejaVuSans-6c" transform="translate(3153.076172 0)"/>
     <use xlink:href="#DejaVuSans-79" transform="translate(3180.859375 0)"/>
     <use xlink:href="#DejaVuSans-20" transform="translate(3240.039062 0)"/>
     <use xlink:href="#DejaVuSans-68" transform="translate(3271.826172 0)"/>
     <use xlink:href="#DejaVuSans-61" transform="translate(3335.205078 0)"/>
     <use xlink:href="#DejaVuSans-72" transform="translate(3396.484375 0)"/>
     <use xlink:href="#DejaVuSans-64" transform="translate(3435.847656 0)"/>
     <use xlink:href="#DejaVuSans-2e" transform="translate(3499.324219 0)"/>
    </g>
   </g>
   <g id="text_4">
    <!-- Gap_2(k) → 1 -->
    <g style="fill: #cfb991" transform="translate(558.863793 38.032258) scale(0.1 -0.1)">
     <defs>
      <path id="DejaVuSans-47" d="M 3809 666 
L 3809 1919 
L 2778 1919 
L 2778 2438 
L 4434 2438 
L 4434 434 
Q 4069 175 3628 42 
Q 3188 -91 2688 -91 
Q 1594 -91 976 548 
Q 359 1188 359 2328 
Q 359 3472 976 4111 
Q 1594 4750 2688 4750 
Q 3144 4750 3555 4637 
Q 3966 4525 4313 4306 
L 4313 3634 
Q 3963 3931 3569 4081 
Q 3175 4231 2741 4231 
Q 1884 4231 1454 3753 
Q 1025 3275 1025 2328 
Q 1025 1384 1454 906 
Q 1884 428 2741 428 
Q 3075 428 3337 486 
Q 3600 544 3809 666 
z
" transform="scale(0.015625)"/>
      <path id="DejaVuSans-5f" d="M 3263 -1063 
L 3263 -1509 
L -63 -1509 
L -63 -1063 
L 3263 -1063 
z
" transform="scale(0.015625)"/>
      <path id="DejaVuSans-32" d="M 1228 531 
L 3431 531 
L 3431 0 
L 469 0 
L 469 531 
Q 828 903 1448 1529 
Q 2069 2156 2228 2338 
Q 2531 2678 2651 2914 
Q 2772 3150 2772 3378 
Q 2772 3750 2511 3984 
Q 2250 4219 1831 4219 
Q 1534 4219 1204 4116 
Q 875 4013 500 3803 
L 500 4441 
Q 881 4594 1212 4672 
Q 1544 4750 1819 4750 
Q 2544 4750 2975 4387 
Q 3406 4025 3406 3419 
Q 3406 3131 3298 2873 
Q 3191 2616 2906 2266 
Q 2828 2175 2409 1742 
Q 1991 1309 1228 531 
z
" transform="scale(0.015625)"/>
      <path id="DejaVuSans-28" d="M 1984 4856 
Q 1566 4138 1362 3434 
Q 1159 2731 1159 2009 
Q 1159 1288 1364 580 
Q 1569 -128 1984 -844 
L 1484 -844 
Q 1016 -109 783 600 
Q 550 1309 550 2009 
Q 550 2706 781 3412 
Q 1013 4119 1484 4856 
L 1984 4856 
z
" transform="scale(0.015625)"/>
      <path id="DejaVuSans-29" d="M 513 4856 
L 1013 4856 
Q 1481 4119 1714 3412 
Q 1947 2706 1947 2009 
Q 1947 1309 1714 600 
Q 1481 -109 1013 -844 
L 513 -844 
Q 928 -128 1133 580 
Q 1338 1288 1338 2009 
Q 1338 2731 1133 3434 
Q 928 4138 513 4856 
z
" transform="scale(0.015625)"/>
      <path id="DejaVuSans-2192" d="M 5050 2147 
L 5050 1866 
L 3822 638 
L 3447 1013 
L 4175 1741 
L 366 1741 
L 366 2272 
L 4175 2272 
L 3447 3000 
L 3822 3375 
L 5050 2147 
z
" transform="scale(0.015625)"/>
      <path id="DejaVuSans-31" d="M 794 531 
L 1825 531 
L 1825 4091 
L 703 3866 
L 703 4441 
L 1819 4666 
L 2450 4666 
L 2450 531 
L 3481 531 
L 3481 0 
L 794 0 
L 794 531 
z
" transform="scale(0.015625)"/>
     </defs>
     <use xlink:href="#DejaVuSans-47"/>
     <use xlink:href="#DejaVuSans-61" transform="translate(77.490234 0)"/>
     <use xlink:href="#DejaVuSans-70" transform="translate(138.769531 0)"/>
     <use xlink:href="#DejaVuSans-5f" transform="translate(202.246094 0)"/>
     <use xlink:href="#DejaVuSans-32" transform="translate(252.246094 0)"/>
     <use xlink:href="#DejaVuSans-28" transform="translate(315.869141 0)"/>
     <use xlink:href="#DejaVuSans-6b" transform="translate(354.882812 0)"/>
     <use xlink:href="#DejaVuSans-29" transform="translate(412.792969 0)"/>
     <use xlink:href="#DejaVuSans-20" transform="translate(451.806641 0)"/>
     <use xlink:href="#DejaVuSans-2192" transform="translate(483.59375 0)"/>
     <use xlink:href="#DejaVuSans-20" transform="translate(567.382812 0)"/>
     <use xlink:href="#DejaVuSans-31" transform="translate(599.169922 0)"/>
    </g>
   </g>
   <g id="text_5">
    <!-- 01 -->
    <g style="fill: #cfb991" transform="translate(42.218182 226.451613) scale(0.11 -0.11)">
     <defs>
      <path id="DejaVuSansMono-Bold-30" d="M 1538 2328 
Q 1538 2494 1650 2606 
Q 1763 2719 1925 2719 
Q 2091 2719 2203 2606 
Q 2316 2494 2316 2328 
Q 2316 2166 2203 2053 
Q 2091 1941 1925 1941 
Q 1763 1941 1650 2052 
Q 1538 2163 1538 2328 
z
M 1925 3969 
Q 1606 3969 1459 3578 
Q 1313 3188 1313 2328 
Q 1313 1472 1459 1081 
Q 1606 691 1925 691 
Q 2247 691 2394 1081 
Q 2541 1472 2541 2328 
Q 2541 3188 2394 3578 
Q 2247 3969 1925 3969 
z
M 384 2328 
Q 384 3541 768 4145 
Q 1153 4750 1925 4750 
Q 2700 4750 3084 4147 
Q 3469 3544 3469 2328 
Q 3469 1116 3084 512 
Q 2700 -91 1925 -91 
Q 1153 -91 768 514 
Q 384 1119 384 2328 
z
" transform="scale(0.015625)"/>
      <path id="DejaVuSansMono-Bold-31" d="M 588 813 
L 1619 813 
L 1619 3841 
L 659 3603 
L 659 4434 
L 1625 4666 
L 2516 4666 
L 2516 813 
L 3547 813 
L 3547 0 
L 588 0 
L 588 813 
z
" transform="scale(0.015625)"/>
     </defs>
     <use xlink:href="#DejaVuSansMono-Bold-30"/>
     <use xlink:href="#DejaVuSansMono-Bold-31" transform="translate(60.205078 0)"/>
    </g>
   </g>
   <g id="text_6">
    <!-- Not a new cipher. Encryption is borrowed. Story is the product. -->
    <g style="fill: #f7f1e5" transform="translate(91.243636 226.451613) scale(0.105 -0.105)">
     <defs>
      <path id="DejaVuSans-4e" d="M 628 4666 
L 1478 4666 
L 3547 763 
L 3547 4666 
L 4159 4666 
L 4159 0 
L 3309 0 
L 1241 3903 
L 1241 0 
L 628 0 
L 628 4666 
z
" transform="scale(0.015625)"/>
      <path id="DejaVuSans-45" d="M 628 4666 
L 3578 4666 
L 3578 4134 
L 1259 4134 
L 1259 2753 
L 3481 2753 
L 3481 2222 
L 1259 2222 
L 1259 531 
L 3634 531 
L 3634 0 
L 628 0 
L 628 4666 
z
" transform="scale(0.015625)"/>
      <path id="DejaVuSans-53" d="M 3425 4513 
L 3425 3897 
Q 3066 4069 2747 4153 
Q 2428 4238 2131 4238 
Q 1616 4238 1336 4038 
Q 1056 3838 1056 3469 
Q 1056 3159 1242 3001 
Q 1428 2844 1947 2747 
L 2328 2669 
Q 3034 2534 3370 2195 
Q 3706 1856 3706 1288 
Q 3706 609 3251 259 
Q 2797 -91 1919 -91 
Q 1588 -91 1214 -16 
Q 841 59 441 206 
L 441 856 
Q 825 641 1194 531 
Q 1563 422 1919 422 
Q 2459 422 2753 634 
Q 3047 847 3047 1241 
Q 3047 1584 2836 1778 
Q 2625 1972 2144 2069 
L 1759 2144 
Q 1053 2284 737 2584 
Q 422 2884 422 3419 
Q 422 4038 858 4394 
Q 1294 4750 2059 4750 
Q 2388 4750 2728 4690 
Q 3069 4631 3425 4513 
z
" transform="scale(0.015625)"/>
     </defs>
     <use xlink:href="#DejaVuSans-4e"/>
     <use xlink:href="#DejaVuSans-6f" transform="translate(74.804688 0)"/>
     <use xlink:href="#DejaVuSans-74" transform="translate(135.986328 0)"/>
     <use xlink:href="#DejaVuSans-20" transform="translate(175.195312 0)"/>
     <use xlink:href="#DejaVuSans-61" transform="translate(206.982422 0)"/>
     <use xlink:href="#DejaVuSans-20" transform="translate(268.261719 0)"/>
     <use xlink:href="#DejaVuSans-6e" transform="translate(300.048828 0)"/>
     <use xlink:href="#DejaVuSans-65" transform="translate(363.427734 0)"/>
     <use xlink:href="#DejaVuSans-77" transform="translate(424.951172 0)"/>
     <use xlink:href="#DejaVuSans-20" transform="translate(506.738281 0)"/>
     <use xlink:href="#DejaVuSans-63" transform="translate(538.525391 0)"/>
     <use xlink:href="#DejaVuSans-69" transform="translate(593.505859 0)"/>
     <use xlink:href="#DejaVuSans-70" transform="translate(621.289062 0)"/>
     <use xlink:href="#DejaVuSans-68" transform="translate(684.765625 0)"/>
     <use xlink:href="#DejaVuSans-65" transform="translate(748.144531 0)"/>
     <use xlink:href="#DejaVuSans-72" transform="translate(809.667969 0)"/>
     <use xlink:href="#DejaVuSans-2e" transform="translate(841.65625 0)"/>
     <use xlink:href="#DejaVuSans-20" transform="translate(873.443359 0)"/>
     <use xlink:href="#DejaVuSans-45" transform="translate(905.230469 0)"/>
     <use xlink:href="#DejaVuSans-6e" transform="translate(968.414062 0)"/>
     <use xlink:href="#DejaVuSans-63" transform="translate(1031.792969 0)"/>
     <use xlink:href="#DejaVuSans-72" transform="translate(1086.773438 0)"/>
     <use xlink:href="#DejaVuSans-79" transform="translate(1127.886719 0)"/>
     <use xlink:href="#DejaVuSans-70" transform="translate(1187.066406 0)"/>
     <use xlink:href="#DejaVuSans-74" transform="translate(1250.542969 0)"/>
     <use xlink:href="#DejaVuSans-69" transform="translate(1289.751953 0)"/>
     <use xlink:href="#DejaVuSans-6f" transform="translate(1317.535156 0)"/>
     <use xlink:href="#DejaVuSans-6e" transform="translate(1378.716797 0)"/>
     <use xlink:href="#DejaVuSans-20" transform="translate(1442.095703 0)"/>
     <use xlink:href="#DejaVuSans-69" transform="translate(1473.882812 0)"/>
     <use xlink:href="#DejaVuSans-73" transform="translate(1501.666016 0)"/>
     <use xlink:href="#DejaVuSans-20" transform="translate(1553.765625 0)"/>
     <use xlink:href="#DejaVuSans-62" transform="translate(1585.552734 0)"/>
     <use xlink:href="#DejaVuSans-6f" transform="translate(1649.029297 0)"/>
     <use xlink:href="#DejaVuSans-72" transform="translate(1710.210938 0)"/>
     <use xlink:href="#DejaVuSans-72" transform="translate(1749.574219 0)"/>
     <use xlink:href="#DejaVuSans-6f" transform="translate(1788.4375 0)"/>
     <use xlink:href="#DejaVuSans-77" transform="translate(1849.619141 0)"/>
     <use xlink:href="#DejaVuSans-65" transform="translate(1931.40625 0)"/>
     <use xlink:href="#DejaVuSans-64" transform="translate(1992.929688 0)"/>
     <use xlink:href="#DejaVuSans-2e" transform="translate(2056.40625 0)"/>
     <use xlink:href="#DejaVuSans-20" transform="translate(2088.193359 0)"/>
     <use xlink:href="#DejaVuSans-53" transform="translate(2119.980469 0)"/>
     <use xlink:href="#DejaVuSans-74" transform="translate(2183.457031 0)"/>
     <use xlink:href="#DejaVuSans-6f" transform="translate(2222.666016 0)"/>
     <use xlink:href="#DejaVuSans-72" transform="translate(2283.847656 0)"/>
     <use xlink:href="#DejaVuSans-79" transform="translate(2324.960938 0)"/>
     <use xlink:href="#DejaVuSans-20" transform="translate(2384.140625 0)"/>
     <use xlink:href="#DejaVuSans-69" transform="translate(2415.927734 0)"/>
     <use xlink:href="#DejaVuSans-73" transform="translate(2443.710938 0)"/>
     <use xlink:href="#DejaVuSans-20" transform="translate(2495.810547 0)"/>
     <use xlink:href="#DejaVuSans-74" transform="translate(2527.597656 0)"/>
     <use xlink:href="#DejaVuSans-68" transform="translate(2566.806641 0)"/>
     <use xlink:href="#DejaVuSans-65" transform="translate(2630.185547 0)"/>
     <use xlink:href="#DejaVuSans-20" transform="translate(2691.708984 0)"/>
     <use xlink:href="#DejaVuSans-70" transform="translate(2723.496094 0)"/>
     <use xlink:href="#DejaVuSans-72" transform="translate(2786.972656 0)"/>
     <use xlink:href="#DejaVuSans-6f" transform="translate(2825.835938 0)"/>
     <use xlink:href="#DejaVuSans-64" transform="translate(2887.017578 0)"/>
     <use xlink:href="#DejaVuSans-75" transform="translate(2950.494141 0)"/>
     <use xlink:href="#DejaVuSans-63" transform="translate(3013.873047 0)"/>
     <use xlink:href="#DejaVuSans-74" transform="translate(3068.853516 0)"/>
     <use xlink:href="#DejaVuSans-2e" transform="translate(3108.0625 0)"/>
    </g>
   </g>
   <g id="text_7">
    <!-- 02 -->
    <g style="fill: #cfb991" transform="translate(42.218182 259.339355) scale(0.11 -0.11)">
     <defs>
      <path id="DejaVuSansMono-Bold-32" d="M 1356 813 
L 3322 813 
L 3322 0 
L 359 0 
L 359 788 
L 859 1319 
Q 1750 2266 1941 2484 
Q 2175 2753 2278 2961 
Q 2381 3169 2381 3372 
Q 2381 3684 2192 3854 
Q 2003 4025 1656 4025 
Q 1409 4025 1101 3926 
Q 794 3828 459 3641 
L 459 4500 
Q 794 4622 1114 4686 
Q 1434 4750 1728 4750 
Q 2469 4750 2892 4404 
Q 3316 4059 3316 3463 
Q 3316 3188 3223 2947 
Q 3131 2706 2906 2413 
Q 2741 2200 1997 1456 
Q 1594 1053 1356 813 
z
" transform="scale(0.015625)"/>
     </defs>
     <use xlink:href="#DejaVuSansMono-Bold-30"/>
     <use xlink:href="#DejaVuSansMono-Bold-32" transform="translate(60.205078 0)"/>
    </g>
   </g>
   <g id="text_8">
    <!-- blown_score is a severity monoid — not P(this is fake). -->
    <g style="fill: #f7f1e5" transform="translate(91.243636 259.339355) scale(0.105 -0.105)">
     <use xlink:href="#DejaVuSans-62"/>
     <use xlink:href="#DejaVuSans-6c" transform="translate(63.476562 0)"/>
     <use xlink:href="#DejaVuSans-6f" transform="translate(91.259766 0)"/>
     <use xlink:href="#DejaVuSans-77" transform="translate(152.441406 0)"/>
     <use xlink:href="#DejaVuSans-6e" transform="translate(234.228516 0)"/>
     <use xlink:href="#DejaVuSans-5f" transform="translate(297.607422 0)"/>
     <use xlink:href="#DejaVuSans-73" transform="translate(347.607422 0)"/>
     <use xlink:href="#DejaVuSans-63" transform="translate(399.707031 0)"/>
     <use xlink:href="#DejaVuSans-6f" transform="translate(454.6875 0)"/>
     <use xlink:href="#DejaVuSans-72" transform="translate(515.869141 0)"/>
     <use xlink:href="#DejaVuSans-65" transform="translate(554.732422 0)"/>
     <use xlink:href="#DejaVuSans-20" transform="translate(616.255859 0)"/>
     <use xlink:href="#DejaVuSans-69" transform="translate(648.042969 0)"/>
     <use xlink:href="#DejaVuSans-73" transform="translate(675.826172 0)"/>
     <use xlink:href="#DejaVuSans-20" transform="translate(727.925781 0)"/>
     <use xlink:href="#DejaVuSans-61" transform="translate(759.712891 0)"/>
     <use xlink:href="#DejaVuSans-20" transform="translate(820.992188 0)"/>
     <use xlink:href="#DejaVuSans-73" transform="translate(852.779297 0)"/>
     <use xlink:href="#DejaVuSans-65" transform="translate(904.878906 0)"/>
     <use xlink:href="#DejaVuSans-76" transform="translate(966.402344 0)"/>
     <use xlink:href="#DejaVuSans-65" transform="translate(1025.582031 0)"/>
     <use xlink:href="#DejaVuSans-72" transform="translate(1087.105469 0)"/>
     <use xlink:href="#DejaVuSans-69" transform="translate(1128.21875 0)"/>
     <use xlink:href="#DejaVuSans-74" transform="translate(1156.001953 0)"/>
     <use xlink:href="#DejaVuSans-79" transform="translate(1195.210938 0)"/>
     <use xlink:href="#DejaVuSans-20" transform="translate(1254.390625 0)"/>
     <use xlink:href="#DejaVuSans-6d" transform="translate(1286.177734 0)"/>
     <use xlink:href="#DejaVuSans-6f" transform="translate(1383.589844 0)"/>
     <use xlink:href="#DejaVuSans-6e" transform="translate(1444.771484 0)"/>
     <use xlink:href="#DejaVuSans-6f" transform="translate(1508.150391 0)"/>
     <use xlink:href="#DejaVuSans-69" transform="translate(1569.332031 0)"/>
     <use xlink:href="#DejaVuSans-64" transform="translate(1597.115234 0)"/>
     <use xlink:href="#DejaVuSans-20" transform="translate(1660.591797 0)"/>
     <use xlink:href="#DejaVuSans-2014" transform="translate(1692.378906 0)"/>
     <use xlink:href="#DejaVuSans-20" transform="translate(1792.378906 0)"/>
     <use xlink:href="#DejaVuSans-6e" transform="translate(1824.166016 0)"/>
     <use xlink:href="#DejaVuSans-6f" transform="translate(1887.544922 0)"/>
     <use xlink:href="#DejaVuSans-74" transform="translate(1948.726562 0)"/>
     <use xlink:href="#DejaVuSans-20" transform="translate(1987.935547 0)"/>
     <use xlink:href="#DejaVuSans-50" transform="translate(2019.722656 0)"/>
     <use xlink:href="#DejaVuSans-28" transform="translate(2080.025391 0)"/>
     <use xlink:href="#DejaVuSans-74" transform="translate(2119.039062 0)"/>
     <use xlink:href="#DejaVuSans-68" transform="translate(2158.248047 0)"/>
     <use xlink:href="#DejaVuSans-69" transform="translate(2221.626953 0)"/>
     <use xlink:href="#DejaVuSans-73" transform="translate(2249.410156 0)"/>
     <use xlink:href="#DejaVuSans-20" transform="translate(2301.509766 0)"/>
     <use xlink:href="#DejaVuSans-69" transform="translate(2333.296875 0)"/>
     <use xlink:href="#DejaVuSans-73" transform="translate(2361.080078 0)"/>
     <use xlink:href="#DejaVuSans-20" transform="translate(2413.179688 0)"/>
     <use xlink:href="#DejaVuSans-66" transform="translate(2444.966797 0)"/>
     <use xlink:href="#DejaVuSans-61" transform="translate(2480.171875 0)"/>
     <use xlink:href="#DejaVuSans-6b" transform="translate(2541.451172 0)"/>
     <use xlink:href="#DejaVuSans-65" transform="translate(2595.736328 0)"/>
     <use xlink:href="#DejaVuSans-29" transform="translate(2657.259766 0)"/>
     <use xlink:href="#DejaVuSans-2e" transform="translate(2696.273438 0)"/>
    </g>
   </g>
   <g id="text_9">
    <!-- 03 -->
    <g style="fill: #cfb991" transform="translate(42.218182 292.227097) scale(0.11 -0.11)">
     <defs>
      <path id="DejaVuSansMono-Bold-33" d="M 1716 2088 
L 1222 2088 
L 1222 2900 
L 1716 2900 
Q 2059 2900 2248 3036 
Q 2438 3172 2438 3419 
Q 2438 3678 2248 3823 
Q 2059 3969 1716 3969 
Q 1453 3969 1153 3903 
Q 853 3838 531 3713 
L 531 4550 
Q 853 4647 1165 4698 
Q 1478 4750 1766 4750 
Q 2503 4750 2915 4428 
Q 3328 4106 3328 3541 
Q 3328 3125 3090 2861 
Q 2853 2597 2413 2516 
Q 2913 2428 3175 2117 
Q 3438 1806 3438 1300 
Q 3438 622 3003 265 
Q 2569 -91 1741 -91 
Q 1388 -91 1045 -31 
Q 703 28 391 141 
L 391 997 
Q 684 850 1025 773 
Q 1366 697 1741 697 
Q 2116 697 2334 870 
Q 2553 1044 2553 1338 
Q 2553 1697 2334 1892 
Q 2116 2088 1716 2088 
z
" transform="scale(0.015625)"/>
     </defs>
     <use xlink:href="#DejaVuSansMono-Bold-30"/>
     <use xlink:href="#DejaVuSansMono-Bold-33" transform="translate(60.205078 0)"/>
    </g>
   </g>
   <g id="text_10">
    <!-- Static smell ≠ full adaptive T1. Math proves the gap can hit 1. -->
    <g style="fill: #f7f1e5" transform="translate(91.243636 292.227097) scale(0.105 -0.105)">
     <defs>
      <path id="DejaVuSans-2260" d="M 678 2906 
L 3091 2906 
L 3891 3891 
L 4281 3572 
L 3738 2906 
L 4684 2906 
L 4684 2381 
L 3309 2381 
L 2700 1631 
L 4684 1631 
L 4684 1100 
L 2266 1100 
L 1459 122 
L 1069 441 
L 1613 1100 
L 678 1100 
L 678 1631 
L 2047 1631 
L 2656 2381 
L 678 2381 
L 678 2906 
z
" transform="scale(0.015625)"/>
      <path id="DejaVuSans-54" d="M -19 4666 
L 3928 4666 
L 3928 4134 
L 2272 4134 
L 2272 0 
L 1638 0 
L 1638 4134 
L -19 4134 
L -19 4666 
z
" transform="scale(0.015625)"/>
      <path id="DejaVuSans-4d" d="M 628 4666 
L 1569 4666 
L 2759 1491 
L 3956 4666 
L 4897 4666 
L 4897 0 
L 4281 0 
L 4281 4097 
L 3078 897 
L 2444 897 
L 1241 4097 
L 1241 0 
L 628 0 
L 628 4666 
z
" transform="scale(0.015625)"/>
     </defs>
     <use xlink:href="#DejaVuSans-53"/>
     <use xlink:href="#DejaVuSans-74" transform="translate(63.476562 0)"/>
     <use xlink:href="#DejaVuSans-61" transform="translate(102.685547 0)"/>
     <use xlink:href="#DejaVuSans-74" transform="translate(163.964844 0)"/>
     <use xlink:href="#DejaVuSans-69" transform="translate(203.173828 0)"/>
     <use xlink:href="#DejaVuSans-63" transform="translate(230.957031 0)"/>
     <use xlink:href="#DejaVuSans-20" transform="translate(285.9375 0)"/>
     <use xlink:href="#DejaVuSans-73" transform="translate(317.724609 0)"/>
     <use xlink:href="#DejaVuSans-6d" transform="translate(369.824219 0)"/>
     <use xlink:href="#DejaVuSans-65" transform="translate(467.236328 0)"/>
     <use xlink:href="#DejaVuSans-6c" transform="translate(528.759766 0)"/>
     <use xlink:href="#DejaVuSans-6c" transform="translate(556.542969 0)"/>
     <use xlink:href="#DejaVuSans-20" transform="translate(584.326172 0)"/>
     <use xlink:href="#DejaVuSans-2260" transform="translate(616.113281 0)"/>
     <use xlink:href="#DejaVuSans-20" transform="translate(699.902344 0)"/>
     <use xlink:href="#DejaVuSans-66" transform="translate(731.689453 0)"/>
     <use xlink:href="#DejaVuSans-75" transform="translate(766.894531 0)"/>
     <use xlink:href="#DejaVuSans-6c" transform="translate(830.273438 0)"/>
     <use xlink:href="#DejaVuSans-6c" transform="translate(858.056641 0)"/>
     <use xlink:href="#DejaVuSans-20" transform="translate(885.839844 0)"/>
     <use xlink:href="#DejaVuSans-61" transform="translate(917.626953 0)"/>
     <use xlink:href="#DejaVuSans-64" transform="translate(978.90625 0)"/>
     <use xlink:href="#DejaVuSans-61" transform="translate(1042.382812 0)"/>
     <use xlink:href="#DejaVuSans-70" transform="translate(1103.662109 0)"/>
     <use xlink:href="#DejaVuSans-74" transform="translate(1167.138672 0)"/>
     <use xlink:href="#DejaVuSans-69" transform="translate(1206.347656 0)"/>
     <use xlink:href="#DejaVuSans-76" transform="translate(1234.130859 0)"/>
     <use xlink:href="#DejaVuSans-65" transform="translate(1293.310547 0)"/>
     <use xlink:href="#DejaVuSans-20" transform="translate(1354.833984 0)"/>
     <use xlink:href="#DejaVuSans-54" transform="translate(1386.621094 0)"/>
     <use xlink:href="#DejaVuSans-31" transform="translate(1447.705078 0)"/>
     <use xlink:href="#DejaVuSans-2e" transform="translate(1511.328125 0)"/>
     <use xlink:href="#DejaVuSans-20" transform="translate(1543.115234 0)"/>
     <use xlink:href="#DejaVuSans-4d" transform="translate(1574.902344 0)"/>
     <use xlink:href="#DejaVuSans-61" transform="translate(1661.181641 0)"/>
     <use xlink:href="#DejaVuSans-74" transform="translate(1722.460938 0)"/>
     <use xlink:href="#DejaVuSans-68" transform="translate(1761.669922 0)"/>
     <use xlink:href="#DejaVuSans-20" transform="translate(1825.048828 0)"/>
     <use xlink:href="#DejaVuSans-70" transform="translate(1856.835938 0)"/>
     <use xlink:href="#DejaVuSans-72" transform="translate(1920.3125 0)"/>
     <use xlink:href="#DejaVuSans-6f" transform="translate(1959.175781 0)"/>
     <use xlink:href="#DejaVuSans-76" transform="translate(2020.357422 0)"/>
     <use xlink:href="#DejaVuSans-65" transform="translate(2079.537109 0)"/>
     <use xlink:href="#DejaVuSans-73" transform="translate(2141.060547 0)"/>
     <use xlink:href="#DejaVuSans-20" transform="translate(2193.160156 0)"/>
     <use xlink:href="#DejaVuSans-74" transform="translate(2224.947266 0)"/>
     <use xlink:href="#DejaVuSans-68" transform="translate(2264.15625 0)"/>
     <use xlink:href="#DejaVuSans-65" transform="translate(2327.535156 0)"/>
     <use xlink:href="#DejaVuSans-20" transform="translate(2389.058594 0)"/>
     <use xlink:href="#DejaVuSans-67" transform="translate(2420.845703 0)"/>
     <use xlink:href="#DejaVuSans-61" transform="translate(2484.322266 0)"/>
     <use xlink:href="#DejaVuSans-70" transform="translate(2545.601562 0)"/>
     <use xlink:href="#DejaVuSans-20" transform="translate(2609.078125 0)"/>
     <use xlink:href="#DejaVuSans-63" transform="translate(2640.865234 0)"/>
     <use xlink:href="#DejaVuSans-61" transform="translate(2695.845703 0)"/>
     <use xlink:href="#DejaVuSans-6e" transform="translate(2757.125 0)"/>
     <use xlink:href="#DejaVuSans-20" transform="translate(2820.503906 0)"/>
     <use xlink:href="#DejaVuSans-68" transform="translate(2852.291016 0)"/>
     <use xlink:href="#DejaVuSans-69" transform="translate(2915.669922 0)"/>
     <use xlink:href="#DejaVuSans-74" transform="translate(2943.453125 0)"/>
     <use xlink:href="#DejaVuSans-20" transform="translate(2982.662109 0)"/>
     <use xlink:href="#DejaVuSans-31" transform="translate(3014.449219 0)"/>
     <use xlink:href="#DejaVuSans-2e" transform="translate(3078.072266 0)"/>
    </g>
   </g>
   <g id="text_11">
    <!-- 04 -->
    <g style="fill: #cfb991" transform="translate(42.218182 325.114839) scale(0.11 -0.11)">
     <defs>
      <path id="DejaVuSansMono-Bold-34" d="M 2169 3641 
L 991 1797 
L 2169 1797 
L 2169 3641 
z
M 2088 4666 
L 3053 4666 
L 3053 1797 
L 3566 1797 
L 3566 1006 
L 3053 1006 
L 3053 0 
L 2169 0 
L 2169 1006 
L 319 1006 
L 319 1900 
L 2088 4666 
z
" transform="scale(0.015625)"/>
     </defs>
     <use xlink:href="#DejaVuSansMono-Bold-30"/>
     <use xlink:href="#DejaVuSansMono-Bold-34" transform="translate(60.205078 0)"/>
    </g>
   </g>
   <g id="text_12">
    <!-- Refuse if blown. Self-falsification is the feature. -->
    <g style="fill: #f7f1e5" transform="translate(91.243636 325.114839) scale(0.105 -0.105)">
     <defs>
      <path id="DejaVuSans-52" d="M 2841 2188 
Q 3044 2119 3236 1894 
Q 3428 1669 3622 1275 
L 4263 0 
L 3584 0 
L 2988 1197 
Q 2756 1666 2539 1819 
Q 2322 1972 1947 1972 
L 1259 1972 
L 1259 0 
L 628 0 
L 628 4666 
L 2053 4666 
Q 2853 4666 3247 4331 
Q 3641 3997 3641 3322 
Q 3641 2881 3436 2590 
Q 3231 2300 2841 2188 
z
M 1259 4147 
L 1259 2491 
L 2053 2491 
Q 2509 2491 2742 2702 
Q 2975 2913 2975 3322 
Q 2975 3731 2742 3939 
Q 2509 4147 2053 4147 
L 1259 4147 
z
" transform="scale(0.015625)"/>
     </defs>
     <use xlink:href="#DejaVuSans-52"/>
     <use xlink:href="#DejaVuSans-65" transform="translate(64.982422 0)"/>
     <use xlink:href="#DejaVuSans-66" transform="translate(126.505859 0)"/>
     <use xlink:href="#DejaVuSans-75" transform="translate(161.710938 0)"/>
     <use xlink:href="#DejaVuSans-73" transform="translate(225.089844 0)"/>
     <use xlink:href="#DejaVuSans-65" transform="translate(277.189453 0)"/>
     <use xlink:href="#DejaVuSans-20" transform="translate(338.712891 0)"/>
     <use xlink:href="#DejaVuSans-69" transform="translate(370.5 0)"/>
     <use xlink:href="#DejaVuSans-66" transform="translate(398.283203 0)"/>
     <use xlink:href="#DejaVuSans-20" transform="translate(433.488281 0)"/>
     <use xlink:href="#DejaVuSans-62" transform="translate(465.275391 0)"/>
     <use xlink:href="#DejaVuSans-6c" transform="translate(528.751953 0)"/>
     <use xlink:href="#DejaVuSans-6f" transform="translate(556.535156 0)"/>
     <use xlink:href="#DejaVuSans-77" transform="translate(617.716797 0)"/>
     <use xlink:href="#DejaVuSans-6e" transform="translate(699.503906 0)"/>
     <use xlink:href="#DejaVuSans-2e" transform="translate(762.882812 0)"/>
     <use xlink:href="#DejaVuSans-20" transform="translate(794.669922 0)"/>
     <use xlink:href="#DejaVuSans-53" transform="translate(826.457031 0)"/>
     <use xlink:href="#DejaVuSans-65" transform="translate(889.933594 0)"/>
     <use xlink:href="#DejaVuSans-6c" transform="translate(951.457031 0)"/>
     <use xlink:href="#DejaVuSans-66" transform="translate(979.240234 0)"/>
     <use xlink:href="#DejaVuSans-2d" transform="translate(1008.945312 0)"/>
     <use xlink:href="#DejaVuSans-66" transform="translate(1045.029297 0)"/>
     <use xlink:href="#DejaVuSans-61" transform="translate(1080.234375 0)"/>
     <use xlink:href="#DejaVuSans-6c" transform="translate(1141.513672 0)"/>
     <use xlink:href="#DejaVuSans-73" transform="translate(1169.296875 0)"/>
     <use xlink:href="#DejaVuSans-69" transform="translate(1221.396484 0)"/>
     <use xlink:href="#DejaVuSans-66" transform="translate(1249.179688 0)"/>
     <use xlink:href="#DejaVuSans-69" transform="translate(1284.384766 0)"/>
     <use xlink:href="#DejaVuSans-63" transform="translate(1312.167969 0)"/>
     <use xlink:href="#DejaVuSans-61" transform="translate(1367.148438 0)"/>
     <use xlink:href="#DejaVuSans-74" transform="translate(1428.427734 0)"/>
     <use xlink:href="#DejaVuSans-69" transform="translate(1467.636719 0)"/>
     <use xlink:href="#DejaVuSans-6f" transform="translate(1495.419922 0)"/>
     <use xlink:href="#DejaVuSans-6e" transform="translate(1556.601562 0)"/>
     <use xlink:href="#DejaVuSans-20" transform="translate(1619.980469 0)"/>
     <use xlink:href="#DejaVuSans-69" transform="translate(1651.767578 0)"/>
     <use xlink:href="#DejaVuSans-73" transform="translate(1679.550781 0)"/>
     <use xlink:href="#DejaVuSans-20" transform="translate(1731.650391 0)"/>
     <use xlink:href="#DejaVuSans-74" transform="translate(1763.4375 0)"/>
     <use xlink:href="#DejaVuSans-68" transform="translate(1802.646484 0)"/>
     <use xlink:href="#DejaVuSans-65" transform="translate(1866.025391 0)"/>
     <use xlink:href="#DejaVuSans-20" transform="translate(1927.548828 0)"/>
     <use xlink:href="#DejaVuSans-66" transform="translate(1959.335938 0)"/>
     <use xlink:href="#DejaVuSans-65" transform="translate(1994.541016 0)"/>
     <use xlink:href="#DejaVuSans-61" transform="translate(2056.064453 0)"/>
     <use xlink:href="#DejaVuSans-74" transform="translate(2117.34375 0)"/>
     <use xlink:href="#DejaVuSans-75" transform="translate(2156.552734 0)"/>
     <use xlink:href="#DejaVuSans-72" transform="translate(2219.931641 0)"/>
     <use xlink:href="#DejaVuSans-65" transform="translate(2258.794922 0)"/>
     <use xlink:href="#DejaVuSans-2e" transform="translate(2320.318359 0)"/>
    </g>
   </g>
   <g id="text_13">
    <!-- 05 -->
    <g style="fill: #cfb991" transform="translate(42.218182 358.002581) scale(0.11 -0.11)">
     <defs>
      <path id="DejaVuSansMono-Bold-35" d="M 603 4666 
L 3138 4666 
L 3138 3853 
L 1350 3853 
L 1350 2988 
Q 1463 3031 1591 3051 
Q 1719 3072 1863 3072 
Q 2556 3072 2987 2634 
Q 3419 2197 3419 1497 
Q 3419 763 2951 336 
Q 2484 -91 1678 -91 
Q 1378 -91 1072 -41 
Q 766 9 447 109 
L 447 941 
Q 706 813 979 748 
Q 1253 684 1528 684 
Q 2016 684 2269 892 
Q 2522 1100 2522 1497 
Q 2522 1863 2270 2083 
Q 2019 2303 1600 2303 
Q 1353 2303 1104 2242 
Q 856 2181 603 2059 
L 603 4666 
z
" transform="scale(0.015625)"/>
     </defs>
     <use xlink:href="#DejaVuSansMono-Bold-30"/>
     <use xlink:href="#DejaVuSansMono-Bold-35" transform="translate(60.205078 0)"/>
    </g>
   </g>
   <g id="text_14">
    <!-- T4: no claim. Ever. Detection framing, not anti-forensics. -->
    <g style="fill: #f7f1e5" transform="translate(91.243636 358.002581) scale(0.105 -0.105)">
     <defs>
      <path id="DejaVuSans-34" d="M 2419 4116 
L 825 1625 
L 2419 1625 
L 2419 4116 
z
M 2253 4666 
L 3047 4666 
L 3047 1625 
L 3713 1625 
L 3713 1100 
L 3047 1100 
L 3047 0 
L 2419 0 
L 2419 1100 
L 313 1100 
L 313 1709 
L 2253 4666 
z
" transform="scale(0.015625)"/>
      <path id="DejaVuSans-3a" d="M 750 794 
L 1409 794 
L 1409 0 
L 750 0 
L 750 794 
z
M 750 3309 
L 1409 3309 
L 1409 2516 
L 750 2516 
L 750 3309 
z
" transform="scale(0.015625)"/>
      <path id="DejaVuSans-44" d="M 1259 4147 
L 1259 519 
L 2022 519 
Q 2988 519 3436 956 
Q 3884 1394 3884 2338 
Q 3884 3275 3436 3711 
Q 2988 4147 2022 4147 
L 1259 4147 
z
M 628 4666 
L 1925 4666 
Q 3281 4666 3915 4102 
Q 4550 3538 4550 2338 
Q 4550 1131 3912 565 
Q 3275 0 1925 0 
L 628 0 
L 628 4666 
z
" transform="scale(0.015625)"/>
      <path id="DejaVuSans-2c" d="M 750 794 
L 1409 794 
L 1409 256 
L 897 -744 
L 494 -744 
L 750 256 
L 750 794 
z
" transform="scale(0.015625)"/>
     </defs>
     <use xlink:href="#DejaVuSans-54"/>
     <use xlink:href="#DejaVuSans-34" transform="translate(61.083984 0)"/>
     <use xlink:href="#DejaVuSans-3a" transform="translate(124.707031 0)"/>
     <use xlink:href="#DejaVuSans-20" transform="translate(158.398438 0)"/>
     <use xlink:href="#DejaVuSans-6e" transform="translate(190.185547 0)"/>
     <use xlink:href="#DejaVuSans-6f" transform="translate(253.564453 0)"/>
     <use xlink:href="#DejaVuSans-20" transform="translate(314.746094 0)"/>
     <use xlink:href="#DejaVuSans-63" transform="translate(346.533203 0)"/>
     <use xlink:href="#DejaVuSans-6c" transform="translate(401.513672 0)"/>
     <use xlink:href="#DejaVuSans-61" transform="translate(429.296875 0)"/>
     <use xlink:href="#DejaVuSans-69" transform="translate(490.576172 0)"/>
     <use xlink:href="#DejaVuSans-6d" transform="translate(518.359375 0)"/>
     <use xlink:href="#DejaVuSans-2e" transform="translate(615.771484 0)"/>
     <use xlink:href="#DejaVuSans-20" transform="translate(647.558594 0)"/>
     <use xlink:href="#DejaVuSans-45" transform="translate(679.345703 0)"/>
     <use xlink:href="#DejaVuSans-76" transform="translate(742.529297 0)"/>
     <use xlink:href="#DejaVuSans-65" transform="translate(801.708984 0)"/>
     <use xlink:href="#DejaVuSans-72" transform="translate(863.232422 0)"/>
     <use xlink:href="#DejaVuSans-2e" transform="translate(895.220703 0)"/>
     <use xlink:href="#DejaVuSans-20" transform="translate(927.007812 0)"/>
     <use xlink:href="#DejaVuSans-44" transform="translate(958.794922 0)"/>
     <use xlink:href="#DejaVuSans-65" transform="translate(1035.796875 0)"/>
     <use xlink:href="#DejaVuSans-74" transform="translate(1097.320312 0)"/>
     <use xlink:href="#DejaVuSans-65" transform="translate(1136.529297 0)"/>
     <use xlink:href="#DejaVuSans-63" transform="translate(1198.052734 0)"/>
     <use xlink:href="#DejaVuSans-74" transform="translate(1253.033203 0)"/>
     <use xlink:href="#DejaVuSans-69" transform="translate(1292.242188 0)"/>
     <use xlink:href="#DejaVuSans-6f" transform="translate(1320.025391 0)"/>
     <use xlink:href="#DejaVuSans-6e" transform="translate(1381.207031 0)"/>
     <use xlink:href="#DejaVuSans-20" transform="translate(1444.585938 0)"/>
     <use xlink:href="#DejaVuSans-66" transform="translate(1476.373047 0)"/>
     <use xlink:href="#DejaVuSans-72" transform="translate(1511.578125 0)"/>
     <use xlink:href="#DejaVuSans-61" transform="translate(1552.691406 0)"/>
     <use xlink:href="#DejaVuSans-6d" transform="translate(1613.970703 0)"/>
     <use xlink:href="#DejaVuSans-69" transform="translate(1711.382812 0)"/>
     <use xlink:href="#DejaVuSans-6e" transform="translate(1739.166016 0)"/>
     <use xlink:href="#DejaVuSans-67" transform="translate(1802.544922 0)"/>
     <use xlink:href="#DejaVuSans-2c" transform="translate(1866.021484 0)"/>
     <use xlink:href="#DejaVuSans-20" transform="translate(1897.808594 0)"/>
     <use xlink:href="#DejaVuSans-6e" transform="translate(1929.595703 0)"/>
     <use xlink:href="#DejaVuSans-6f" transform="translate(1992.974609 0)"/>
     <use xlink:href="#DejaVuSans-74" transform="translate(2054.15625 0)"/>
     <use xlink:href="#DejaVuSans-20" transform="translate(2093.365234 0)"/>
     <use xlink:href="#DejaVuSans-61" transform="translate(2125.152344 0)"/>
     <use xlink:href="#DejaVuSans-6e" transform="translate(2186.431641 0)"/>
     <use xlink:href="#DejaVuSans-74" transform="translate(2249.810547 0)"/>
     <use xlink:href="#DejaVuSans-69" transform="translate(2289.019531 0)"/>
     <use xlink:href="#DejaVuSans-2d" transform="translate(2316.802734 0)"/>
     <use xlink:href="#DejaVuSans-66" transform="translate(2352.886719 0)"/>
     <use xlink:href="#DejaVuSans-6f" transform="translate(2388.091797 0)"/>
     <use xlink:href="#DejaVuSans-72" transform="translate(2449.273438 0)"/>
     <use xlink:href="#DejaVuSans-65" transform="translate(2488.136719 0)"/>
     <use xlink:href="#DejaVuSans-6e" transform="translate(2549.660156 0)"/>
     <use xlink:href="#DejaVuSans-73" transform="translate(2613.039062 0)"/>
     <use xlink:href="#DejaVuSans-69" transform="translate(2665.138672 0)"/>
     <use xlink:href="#DejaVuSans-63" transform="translate(2692.921875 0)"/>
     <use xlink:href="#DejaVuSans-73" transform="translate(2747.902344 0)"/>
     <use xlink:href="#DejaVuSans-2e" transform="translate(2800.001953 0)"/>
    </g>
   </g>
   <g id="text_15">
    <!-- Boiler Up  ·  black &amp; old gold  ·  measure twice, cut once -->
    <g style="fill: #8e6f3e" transform="translate(42.218182 408.019355) scale(0.09 -0.09)">
     <defs>
      <path id="DejaVuSans-42" d="M 1259 2228 
L 1259 519 
L 2272 519 
Q 2781 519 3026 730 
Q 3272 941 3272 1375 
Q 3272 1813 3026 2020 
Q 2781 2228 2272 2228 
L 1259 2228 
z
M 1259 4147 
L 1259 2741 
L 2194 2741 
Q 2656 2741 2882 2914 
Q 3109 3088 3109 3444 
Q 3109 3797 2882 3972 
Q 2656 4147 2194 4147 
L 1259 4147 
z
M 628 4666 
L 2241 4666 
Q 2963 4666 3353 4366 
Q 3744 4066 3744 3513 
Q 3744 3084 3544 2831 
Q 3344 2578 2956 2516 
Q 3422 2416 3680 2098 
Q 3938 1781 3938 1306 
Q 3938 681 3513 340 
Q 3088 0 2303 0 
L 628 0 
L 628 4666 
z
" transform="scale(0.015625)"/>
      <path id="DejaVuSans-55" d="M 556 4666 
L 1191 4666 
L 1191 1831 
Q 1191 1081 1462 751 
Q 1734 422 2344 422 
Q 2950 422 3222 751 
Q 3494 1081 3494 1831 
L 3494 4666 
L 4128 4666 
L 4128 1753 
Q 4128 841 3676 375 
Q 3225 -91 2344 -91 
Q 1459 -91 1007 375 
Q 556 841 556 1753 
L 556 4666 
z
" transform="scale(0.015625)"/>
      <path id="DejaVuSans-b7" d="M 684 2619 
L 1344 2619 
L 1344 1825 
L 684 1825 
L 684 2619 
z
" transform="scale(0.015625)"/>
      <path id="DejaVuSans-26" d="M 1556 2509 
Q 1272 2256 1139 2004 
Q 1006 1753 1006 1478 
Q 1006 1022 1337 719 
Q 1669 416 2169 416 
Q 2466 416 2725 514 
Q 2984 613 3213 813 
L 1556 2509 
z
M 1997 2859 
L 3584 1234 
Q 3769 1513 3872 1830 
Q 3975 2147 3994 2503 
L 4575 2503 
Q 4538 2091 4375 1687 
Q 4213 1284 3922 891 
L 4794 0 
L 4006 0 
L 3559 459 
Q 3234 181 2878 45 
Q 2522 -91 2113 -91 
Q 1359 -91 881 339 
Q 403 769 403 1441 
Q 403 1841 612 2192 
Q 822 2544 1241 2853 
Q 1091 3050 1012 3245 
Q 934 3441 934 3628 
Q 934 4134 1281 4442 
Q 1628 4750 2203 4750 
Q 2463 4750 2720 4694 
Q 2978 4638 3244 4525 
L 3244 3956 
Q 2972 4103 2725 4179 
Q 2478 4256 2266 4256 
Q 1938 4256 1733 4082 
Q 1528 3909 1528 3634 
Q 1528 3475 1620 3314 
Q 1713 3153 1997 2859 
z
" transform="scale(0.015625)"/>
     </defs>
     <use xlink:href="#DejaVuSans-42"/>
     <use xlink:href="#DejaVuSans-6f" transform="translate(68.603516 0)"/>
     <use xlink:href="#DejaVuSans-69" transform="translate(129.785156 0)"/>
     <use xlink:href="#DejaVuSans-6c" transform="translate(157.568359 0)"/>
     <use xlink:href="#DejaVuSans-65" transform="translate(185.351562 0)"/>
     <use xlink:href="#DejaVuSans-72" transform="translate(246.875 0)"/>
     <use xlink:href="#DejaVuSans-20" transform="translate(287.988281 0)"/>
     <use xlink:href="#DejaVuSans-55" transform="translate(319.775391 0)"/>
     <use xlink:href="#DejaVuSans-70" transform="translate(392.96875 0)"/>
     <use xlink:href="#DejaVuSans-20" transform="translate(456.445312 0)"/>
     <use xlink:href="#DejaVuSans-20" transform="translate(488.232422 0)"/>
     <use xlink:href="#DejaVuSans-b7" transform="translate(520.019531 0)"/>
     <use xlink:href="#DejaVuSans-20" transform="translate(551.806641 0)"/>
     <use xlink:href="#DejaVuSans-20" transform="translate(583.59375 0)"/>
     <use xlink:href="#DejaVuSans-62" transform="translate(615.380859 0)"/>
     <use xlink:href="#DejaVuSans-6c" transform="translate(678.857422 0)"/>
     <use xlink:href="#DejaVuSans-61" transform="translate(706.640625 0)"/>
     <use xlink:href="#DejaVuSans-63" transform="translate(767.919922 0)"/>
     <use xlink:href="#DejaVuSans-6b" transform="translate(822.900391 0)"/>
     <use xlink:href="#DejaVuSans-20" transform="translate(880.810547 0)"/>
     <use xlink:href="#DejaVuSans-26" transform="translate(912.597656 0)"/>
     <use xlink:href="#DejaVuSans-20" transform="translate(990.576172 0)"/>
     <use xlink:href="#DejaVuSans-6f" transform="translate(1022.363281 0)"/>
     <use xlink:href="#DejaVuSans-6c" transform="translate(1083.544922 0)"/>
     <use xlink:href="#DejaVuSans-64" transform="translate(1111.328125 0)"/>
     <use xlink:href="#DejaVuSans-20" transform="translate(1174.804688 0)"/>
     <use xlink:href="#DejaVuSans-67" transform="translate(1206.591797 0)"/>
     <use xlink:href="#DejaVuSans-6f" transform="translate(1270.068359 0)"/>
     <use xlink:href="#DejaVuSans-6c" transform="translate(1331.25 0)"/>
     <use xlink:href="#DejaVuSans-64" transform="translate(1359.033203 0)"/>
     <use xlink:href="#DejaVuSans-20" transform="translate(1422.509766 0)"/>
     <use xlink:href="#DejaVuSans-20" transform="translate(1454.296875 0)"/>
     <use xlink:href="#DejaVuSans-b7" transform="translate(1486.083984 0)"/>
     <use xlink:href="#DejaVuSans-20" transform="translate(1517.871094 0)"/>
     <use xlink:href="#DejaVuSans-20" transform="translate(1549.658203 0)"/>
     <use xlink:href="#DejaVuSans-6d" transform="translate(1581.445312 0)"/>
     <use xlink:href="#DejaVuSans-65" transform="translate(1678.857422 0)"/>
     <use xlink:href="#DejaVuSans-61" transform="translate(1740.380859 0)"/>
     <use xlink:href="#DejaVuSans-73" transform="translate(1801.660156 0)"/>
     <use xlink:href="#DejaVuSans-75" transform="translate(1853.759766 0)"/>
     <use xlink:href="#DejaVuSans-72" transform="translate(1917.138672 0)"/>
     <use xlink:href="#DejaVuSans-65" transform="translate(1956.001953 0)"/>
     <use xlink:href="#DejaVuSans-20" transform="translate(2017.525391 0)"/>
     <use xlink:href="#DejaVuSans-74" transform="translate(2049.3125 0)"/>
     <use xlink:href="#DejaVuSans-77" transform="translate(2088.521484 0)"/>
     <use xlink:href="#DejaVuSans-69" transform="translate(2170.308594 0)"/>
     <use xlink:href="#DejaVuSans-63" transform="translate(2198.091797 0)"/>
     <use xlink:href="#DejaVuSans-65" transform="translate(2253.072266 0)"/>
     <use xlink:href="#DejaVuSans-2c" transform="translate(2314.595703 0)"/>
     <use xlink:href="#DejaVuSans-20" transform="translate(2346.382812 0)"/>
     <use xlink:href="#DejaVuSans-63" transform="translate(2378.169922 0)"/>
     <use xlink:href="#DejaVuSans-75" transform="translate(2433.150391 0)"/>
     <use xlink:href="#DejaVuSans-74" transform="translate(2496.529297 0)"/>
     <use xlink:href="#DejaVuSans-20" transform="translate(2535.738281 0)"/>
     <use xlink:href="#DejaVuSans-6f" transform="translate(2567.525391 0)"/>
     <use xlink:href="#DejaVuSans-6e" transform="translate(2628.707031 0)"/>
     <use xlink:href="#DejaVuSans-63" transform="translate(2692.085938 0)"/>
     <use xlink:href="#DejaVuSans-65" transform="translate(2747.066406 0)"/>
    </g>
   </g>
  </g>
 </g>
 <defs>
  <clipPath id="pd7b684283c">
   <rect x="7.2" y="7.2" width="770.4" height="424.8"/>
  </clipPath>
 </defs>
</svg>
