<?xml version="1.0" encoding="utf-8" standalone="no"?>
<!DOCTYPE svg PUBLIC "-//W3C//DTD SVG 1.1//EN"
  "http://www.w3.org/Graphics/SVG/1.1/DTD/svg11.dtd">
<svg xmlns:xlink="http://www.w3.org/1999/xlink" width="742.381892pt" height="425.574858pt" viewBox="0 0 742.381892 425.574858" xmlns="http://www.w3.org/2000/svg" version="1.1">
 <metadata>
  <rdf:RDF xmlns:dc="http://purl.org/dc/elements/1.1/" xmlns:cc="http://creativecommons.org/ns#" xmlns:rdf="http://www.w3.org/1999/02/22-rdf-syntax-ns#">
   <cc:Work>
    <dc:type rdf:resource="http://purl.org/dc/dcmitype/StillImage"/>
    <dc:date>2026-07-12T17:43:58.001760</dc:date>
    <dc:format>image/svg+xml</dc:format>
    <dc:creator>
     <cc:Agent>
      <dc:title>Matplotlib v3.10.9, https://matplotlib.org/</dc:title>
     </cc:Agent>
    </dc:creator>
   </cc:Work>
  </rdf:RDF>
 </metadata>
 <defs>
  <style type="text/css">*{stroke-linejoin: round; stroke-linecap: butt}</style>
 </defs>
 <g id="figure_1">
  <g id="patch_1">
   <path d="M -0 425.574858 
L 742.381892 425.574858 
L 742.381892 0 
L -0 0 
z
"/>
  </g>
  <g id="axes_1">
   <g id="patch_2">
    <path d="M 57.152813 374.354545 
L 724.77387 374.354545 
L 724.77387 42.1 
L 57.152813 42.1 
z
"/>
   </g>
   <g id="matplotlib.axis_1">
    <g id="xtick_1">
     <g id="line2d_1">
      <path d="M 61.11104 374.354545 
L 61.11104 42.1 
" clip-path="url(#p383c65735f)" style="fill: none; stroke: #2a2a2a; stroke-width: 0.6; stroke-linecap: square"/>
     </g>
     <g id="line2d_2">
      <defs>
       <path id="m4062ab038e" d="M 0 0 
L 0 3.5 
" style="stroke: #8a8a8a; stroke-width: 0.7"/>
      </defs>
      <g>
       <use xlink:href="#m4062ab038e" x="61.11104" y="374.354545" style="fill: #8a8a8a; stroke: #8a8a8a; stroke-width: 0.7"/>
      </g>
     </g>
     <g id="text_1">
      <!-- 0 -->
      <g style="fill: #8a8a8a" transform="translate(58.247915 388.193139) scale(0.09 -0.09)">
       <defs>
        <path id="DejaVuSerif-30" d="M 2034 219 
Q 2513 219 2750 744 
Q 2988 1269 2988 2328 
Q 2988 3391 2750 3916 
Q 2513 4441 2034 4441 
Q 1556 4441 1318 3916 
Q 1081 3391 1081 2328 
Q 1081 1269 1318 744 
Q 1556 219 2034 219 
z
M 2034 -91 
Q 1275 -91 848 546 
Q 422 1184 422 2328 
Q 422 3475 848 4112 
Q 1275 4750 2034 4750 
Q 2797 4750 3222 4112 
Q 3647 3475 3647 2328 
Q 3647 1184 3222 546 
Q 2797 -91 2034 -91 
z
" transform="scale(0.015625)"/>
       </defs>
       <use xlink:href="#DejaVuSerif-30"/>
      </g>
     </g>
    </g>
    <g id="xtick_2">
     <g id="line2d_3">
      <path d="M 193.051961 374.354545 
L 193.051961 42.1 
" clip-path="url(#p383c65735f)" style="fill: none; stroke: #2a2a2a; stroke-width: 0.6; stroke-linecap: square"/>
     </g>
     <g id="line2d_4">
      <g>
       <use xlink:href="#m4062ab038e" x="193.051961" y="374.354545" style="fill: #8a8a8a; stroke: #8a8a8a; stroke-width: 0.7"/>
      </g>
     </g>
     <g id="text_2">
      <!-- 10 -->
      <g style="fill: #8a8a8a" transform="translate(187.325711 388.193139) scale(0.09 -0.09)">
       <defs>
        <path id="DejaVuSerif-31" d="M 909 0 
L 909 331 
L 1722 331 
L 1722 4213 
L 781 3603 
L 781 4013 
L 1919 4750 
L 2350 4750 
L 2350 331 
L 3163 331 
L 3163 0 
L 909 0 
z
" transform="scale(0.015625)"/>
       </defs>
       <use xlink:href="#DejaVuSerif-31"/>
       <use xlink:href="#DejaVuSerif-30" transform="translate(63.623047 0)"/>
      </g>
     </g>
    </g>
    <g id="xtick_3">
     <g id="line2d_5">
      <path d="M 324.992881 374.354545 
L 324.992881 42.1 
" clip-path="url(#p383c65735f)" style="fill: none; stroke: #2a2a2a; stroke-width: 0.6; stroke-linecap: square"/>
     </g>
     <g id="line2d_6">
      <g>
       <use xlink:href="#m4062ab038e" x="324.992881" y="374.354545" style="fill: #8a8a8a; stroke: #8a8a8a; stroke-width: 0.7"/>
      </g>
     </g>
     <g id="text_3">
      <!-- 20 -->
      <g style="fill: #8a8a8a" transform="translate(319.266631 388.193139) scale(0.09 -0.09)">
       <defs>
        <path id="DejaVuSerif-32" d="M 819 3553 
L 469 3553 
L 469 4384 
Q 803 4563 1142 4656 
Q 1481 4750 1806 4750 
Q 2534 4750 2956 4397 
Q 3378 4044 3378 3438 
Q 3378 2753 2422 1800 
Q 2347 1728 2309 1691 
L 1131 513 
L 3078 513 
L 3078 1088 
L 3444 1088 
L 3444 0 
L 434 0 
L 434 341 
L 1850 1753 
Q 2319 2222 2519 2614 
Q 2719 3006 2719 3438 
Q 2719 3909 2473 4175 
Q 2228 4441 1797 4441 
Q 1350 4441 1106 4219 
Q 863 3997 819 3553 
z
" transform="scale(0.015625)"/>
       </defs>
       <use xlink:href="#DejaVuSerif-32"/>
       <use xlink:href="#DejaVuSerif-30" transform="translate(63.623047 0)"/>
      </g>
     </g>
    </g>
    <g id="xtick_4">
     <g id="line2d_7">
      <path d="M 456.933801 374.354545 
L 456.933801 42.1 
" clip-path="url(#p383c65735f)" style="fill: none; stroke: #2a2a2a; stroke-width: 0.6; stroke-linecap: square"/>
     </g>
     <g id="line2d_8">
      <g>
       <use xlink:href="#m4062ab038e" x="456.933801" y="374.354545" style="fill: #8a8a8a; stroke: #8a8a8a; stroke-width: 0.7"/>
      </g>
     </g>
     <g id="text_4">
      <!-- 30 -->
      <g style="fill: #8a8a8a" transform="translate(451.207551 388.193139) scale(0.09 -0.09)">
       <defs>
        <path id="DejaVuSerif-33" d="M 622 4469 
Q 988 4606 1323 4678 
Q 1659 4750 1953 4750 
Q 2638 4750 3022 4454 
Q 3406 4159 3406 3634 
Q 3406 3213 3140 2930 
Q 2875 2647 2388 2547 
Q 2963 2466 3280 2130 
Q 3597 1794 3597 1259 
Q 3597 606 3158 257 
Q 2719 -91 1894 -91 
Q 1528 -91 1179 -12 
Q 831 66 488 225 
L 488 1131 
L 838 1131 
Q 869 681 1141 450 
Q 1413 219 1906 219 
Q 2384 219 2661 495 
Q 2938 772 2938 1253 
Q 2938 1803 2653 2086 
Q 2369 2369 1819 2369 
L 1522 2369 
L 1522 2688 
L 1678 2688 
Q 2225 2688 2498 2914 
Q 2772 3141 2772 3597 
Q 2772 4006 2547 4223 
Q 2322 4441 1900 4441 
Q 1478 4441 1245 4241 
Q 1013 4041 972 3647 
L 622 3647 
L 622 4469 
z
" transform="scale(0.015625)"/>
       </defs>
       <use xlink:href="#DejaVuSerif-33"/>
       <use xlink:href="#DejaVuSerif-30" transform="translate(63.623047 0)"/>
      </g>
     </g>
    </g>
    <g id="xtick_5">
     <g id="line2d_9">
      <path d="M 588.874722 374.354545 
L 588.874722 42.1 
" clip-path="url(#p383c65735f)" style="fill: none; stroke: #2a2a2a; stroke-width: 0.6; stroke-linecap: square"/>
     </g>
     <g id="line2d_10">
      <g>
       <use xlink:href="#m4062ab038e" x="588.874722" y="374.354545" style="fill: #8a8a8a; stroke: #8a8a8a; stroke-width: 0.7"/>
      </g>
     </g>
     <g id="text_5">
      <!-- 40 -->
      <g style="fill: #8a8a8a" transform="translate(583.148472 388.193139) scale(0.09 -0.09)">
       <defs>
        <path id="DejaVuSerif-34" d="M 2234 1581 
L 2234 4063 
L 641 1581 
L 2234 1581 
z
M 3609 0 
L 1484 0 
L 1484 331 
L 2234 331 
L 2234 1247 
L 197 1247 
L 197 1588 
L 2241 4750 
L 2859 4750 
L 2859 1581 
L 3750 1581 
L 3750 1247 
L 2859 1247 
L 2859 331 
L 3609 331 
L 3609 0 
z
" transform="scale(0.015625)"/>
       </defs>
       <use xlink:href="#DejaVuSerif-34"/>
       <use xlink:href="#DejaVuSerif-30" transform="translate(63.623047 0)"/>
      </g>
     </g>
    </g>
    <g id="xtick_6">
     <g id="line2d_11">
      <path d="M 720.815642 374.354545 
L 720.815642 42.1 
" clip-path="url(#p383c65735f)" style="fill: none; stroke: #2a2a2a; stroke-width: 0.6; stroke-linecap: square"/>
     </g>
     <g id="line2d_12">
      <g>
       <use xlink:href="#m4062ab038e" x="720.815642" y="374.354545" style="fill: #8a8a8a; stroke: #8a8a8a; stroke-width: 0.7"/>
      </g>
     </g>
     <g id="text_6">
      <!-- 50 -->
      <g style="fill: #8a8a8a" transform="translate(715.089392 388.193139) scale(0.09 -0.09)">
       <defs>
        <path id="DejaVuSerif-35" d="M 3219 4666 
L 3219 4153 
L 1081 4153 
L 1081 2816 
Q 1244 2928 1461 2984 
Q 1678 3041 1947 3041 
Q 2703 3041 3140 2622 
Q 3578 2203 3578 1478 
Q 3578 738 3136 323 
Q 2694 -91 1894 -91 
Q 1572 -91 1234 -12 
Q 897 66 544 225 
L 544 1131 
L 897 1131 
Q 925 688 1179 453 
Q 1434 219 1894 219 
Q 2388 219 2653 544 
Q 2919 869 2919 1478 
Q 2919 2084 2655 2407 
Q 2391 2731 1894 2731 
Q 1613 2731 1398 2631 
Q 1184 2531 1019 2322 
L 750 2322 
L 750 4666 
L 3219 4666 
z
" transform="scale(0.015625)"/>
       </defs>
       <use xlink:href="#DejaVuSerif-35"/>
       <use xlink:href="#DejaVuSerif-30" transform="translate(63.623047 0)"/>
      </g>
     </g>
    </g>
    <g id="text_7">
     <!-- arity  $K$ -->
     <g style="fill: #8a8a8a" transform="translate(369.788341 407.204858) scale(0.11 -0.11)">
      <defs>
       <path id="DejaVuSerif-61" d="M 2547 1044 
L 2547 1747 
L 1806 1747 
Q 1378 1747 1168 1562 
Q 959 1378 959 997 
Q 959 650 1171 447 
Q 1384 244 1747 244 
Q 2106 244 2326 466 
Q 2547 688 2547 1044 
z
M 3122 2075 
L 3122 331 
L 3634 331 
L 3634 0 
L 2547 0 
L 2547 359 
Q 2356 128 2106 18 
Q 1856 -91 1522 -91 
Q 969 -91 644 203 
Q 319 497 319 997 
Q 319 1513 691 1797 
Q 1063 2081 1741 2081 
L 2547 2081 
L 2547 2309 
Q 2547 2688 2317 2895 
Q 2088 3103 1672 3103 
Q 1328 3103 1125 2947 
Q 922 2791 872 2484 
L 575 2484 
L 575 3156 
Q 875 3284 1158 3348 
Q 1441 3413 1709 3413 
Q 2400 3413 2761 3070 
Q 3122 2728 3122 2075 
z
" transform="scale(0.015625)"/>
       <path id="DejaVuSerif-72" d="M 3059 3328 
L 3059 2497 
L 2728 2497 
Q 2713 2744 2591 2866 
Q 2469 2988 2234 2988 
Q 1809 2988 1582 2694 
Q 1356 2400 1356 1850 
L 1356 331 
L 2022 331 
L 2022 0 
L 263 0 
L 263 331 
L 781 331 
L 781 2994 
L 231 2994 
L 231 3322 
L 1356 3322 
L 1356 2731 
Q 1525 3078 1790 3245 
Q 2056 3413 2438 3413 
Q 2578 3413 2733 3391 
Q 2888 3369 3059 3328 
z
" transform="scale(0.015625)"/>
       <path id="DejaVuSerif-69" d="M 622 4353 
Q 622 4497 726 4603 
Q 831 4709 978 4709 
Q 1122 4709 1226 4603 
Q 1331 4497 1331 4353 
Q 1331 4206 1228 4103 
Q 1125 4000 978 4000 
Q 831 4000 726 4103 
Q 622 4206 622 4353 
z
M 1356 331 
L 1900 331 
L 1900 0 
L 231 0 
L 231 331 
L 781 331 
L 781 2988 
L 231 2988 
L 231 3322 
L 1356 3322 
L 1356 331 
z
" transform="scale(0.015625)"/>
       <path id="DejaVuSerif-74" d="M 691 2988 
L 184 2988 
L 184 3322 
L 691 3322 
L 691 4353 
L 1269 4353 
L 1269 3322 
L 2350 3322 
L 2350 2988 
L 1269 2988 
L 1269 878 
Q 1269 456 1350 337 
Q 1431 219 1650 219 
Q 1875 219 1978 351 
Q 2081 484 2088 781 
L 2522 781 
Q 2497 328 2275 118 
Q 2053 -91 1600 -91 
Q 1103 -91 897 129 
Q 691 350 691 878 
L 691 2988 
z
" transform="scale(0.015625)"/>
       <path id="DejaVuSerif-79" d="M 1381 -609 
L 1600 -56 
L 359 2988 
L -19 2988 
L -19 3322 
L 1509 3322 
L 1509 2988 
L 978 2988 
L 1913 703 
L 2847 2988 
L 2350 2988 
L 2350 3322 
L 3597 3322 
L 3597 2988 
L 3225 2988 
L 1703 -750 
Q 1547 -1138 1356 -1280 
Q 1166 -1422 819 -1422 
Q 672 -1422 517 -1397 
Q 363 -1372 206 -1325 
L 206 -691 
L 500 -691 
Q 519 -903 608 -995 
Q 697 -1088 884 -1088 
Q 1056 -1088 1161 -992 
Q 1266 -897 1381 -609 
z
" transform="scale(0.015625)"/>
       <path id="DejaVuSerif-20" transform="scale(0.015625)"/>
       <path id="Cmmi10-4b" d="M 300 0 
Q 238 0 238 84 
Q 241 100 250 139 
Q 259 178 276 201 
Q 294 225 319 225 
Q 709 225 863 269 
Q 947 297 984 441 
L 1863 3956 
Q 1875 4019 1875 4044 
Q 1875 4113 1797 4122 
Q 1678 4147 1338 4147 
Q 1275 4147 1275 4231 
Q 1297 4313 1309 4342 
Q 1322 4372 1381 4372 
L 3103 4372 
Q 3169 4372 3169 4288 
Q 3166 4272 3156 4234 
Q 3147 4197 3131 4172 
Q 3116 4147 3084 4147 
Q 2694 4147 2541 4103 
Q 2456 4072 2419 3928 
L 1900 1856 
L 4409 3794 
Q 4416 3806 4489 3879 
Q 4563 3953 4563 4025 
Q 4563 4147 4347 4147 
Q 4281 4147 4281 4231 
Q 4294 4281 4301 4309 
Q 4309 4338 4329 4355 
Q 4350 4372 4391 4372 
L 5631 4372 
Q 5666 4372 5681 4347 
Q 5697 4322 5697 4288 
Q 5694 4272 5683 4231 
Q 5672 4191 5655 4169 
Q 5638 4147 5606 4147 
Q 5138 4147 4581 3713 
Q 4578 3709 4572 3707 
Q 4566 3706 4559 3704 
Q 4553 3703 4550 3700 
L 3231 2675 
L 4191 428 
Q 4278 288 4378 256 
Q 4478 225 4684 225 
Q 4750 225 4750 141 
Q 4731 66 4712 33 
Q 4694 0 4641 0 
L 3156 0 
Q 3097 0 3097 84 
Q 3106 150 3118 187 
Q 3131 225 3181 225 
Q 3344 225 3458 258 
Q 3572 291 3572 409 
Q 3572 453 3566 475 
L 2772 2322 
L 1838 1600 
L 1544 416 
Q 1528 338 1528 325 
Q 1528 259 1606 250 
Q 1728 225 2069 225 
Q 2131 225 2131 141 
Q 2109 50 2096 25 
Q 2084 0 2022 0 
L 300 0 
z
" transform="scale(0.015625)"/>
      </defs>
      <use xlink:href="#DejaVuSerif-61" transform="translate(0 0.421875)"/>
      <use xlink:href="#DejaVuSerif-72" transform="translate(59.619141 0.421875)"/>
      <use xlink:href="#DejaVuSerif-69" transform="translate(107.421875 0.421875)"/>
      <use xlink:href="#DejaVuSerif-74" transform="translate(139.404297 0.421875)"/>
      <use xlink:href="#DejaVuSerif-79" transform="translate(179.589844 0.421875)"/>
      <use xlink:href="#DejaVuSerif-20" transform="translate(236.083984 0.421875)"/>
      <use xlink:href="#DejaVuSerif-20" transform="translate(267.871094 0.421875)"/>
      <use xlink:href="#Cmmi10-4b" transform="translate(299.658203 0.421875)"/>
     </g>
    </g>
   </g>
   <g id="matplotlib.axis_2">
    <g id="ytick_1">
     <g id="line2d_13">
      <path d="M 57.152813 359.252066 
L 724.77387 359.252066 
" clip-path="url(#p383c65735f)" style="fill: none; stroke: #2a2a2a; stroke-width: 0.6; stroke-linecap: square"/>
     </g>
     <g id="line2d_14">
      <defs>
       <path id="ma988f0714d" d="M 0 0 
L -3.5 0 
" style="stroke: #8a8a8a; stroke-width: 0.7"/>
      </defs>
      <g>
       <use xlink:href="#ma988f0714d" x="57.152813" y="359.252066" style="fill: #8a8a8a; stroke: #8a8a8a; stroke-width: 0.7"/>
      </g>
     </g>
     <g id="text_8">
      <!-- 0.0 -->
      <g style="fill: #8a8a8a" transform="translate(35.84 362.671363) scale(0.09 -0.09)">
       <defs>
        <path id="DejaVuSerif-2e" d="M 603 325 
Q 603 500 722 622 
Q 841 744 1019 744 
Q 1191 744 1312 622 
Q 1434 500 1434 325 
Q 1434 153 1312 31 
Q 1191 -91 1019 -91 
Q 841 -91 722 29 
Q 603 150 603 325 
z
" transform="scale(0.015625)"/>
       </defs>
       <use xlink:href="#DejaVuSerif-30"/>
       <use xlink:href="#DejaVuSerif-2e" transform="translate(63.623047 0)"/>
       <use xlink:href="#DejaVuSerif-30" transform="translate(95.410156 0)"/>
      </g>
     </g>
    </g>
    <g id="ytick_2">
     <g id="line2d_15">
      <path d="M 57.152813 298.842149 
L 724.77387 298.842149 
" clip-path="url(#p383c65735f)" style="fill: none; stroke: #2a2a2a; stroke-width: 0.6; stroke-linecap: square"/>
     </g>
     <g id="line2d_16">
      <g>
       <use xlink:href="#ma988f0714d" x="57.152813" y="298.842149" style="fill: #8a8a8a; stroke: #8a8a8a; stroke-width: 0.7"/>
      </g>
     </g>
     <g id="text_9">
      <!-- 0.2 -->
      <g style="fill: #8a8a8a" transform="translate(35.84 302.261446) scale(0.09 -0.09)">
       <use xlink:href="#DejaVuSerif-30"/>
       <use xlink:href="#DejaVuSerif-2e" transform="translate(63.623047 0)"/>
       <use xlink:href="#DejaVuSerif-32" transform="translate(95.410156 0)"/>
      </g>
     </g>
    </g>
    <g id="ytick_3">
     <g id="line2d_17">
      <path d="M 57.152813 238.432231 
L 724.77387 238.432231 
" clip-path="url(#p383c65735f)" style="fill: none; stroke: #2a2a2a; stroke-width: 0.6; stroke-linecap: square"/>
     </g>
     <g id="line2d_18">
      <g>
       <use xlink:href="#ma988f0714d" x="57.152813" y="238.432231" style="fill: #8a8a8a; stroke: #8a8a8a; stroke-width: 0.7"/>
      </g>
     </g>
     <g id="text_10">
      <!-- 0.4 -->
      <g style="fill: #8a8a8a" transform="translate(35.84 241.851528) scale(0.09 -0.09)">
       <use xlink:href="#DejaVuSerif-30"/>
       <use xlink:href="#DejaVuSerif-2e" transform="translate(63.623047 0)"/>
       <use xlink:href="#DejaVuSerif-34" transform="translate(95.410156 0)"/>
      </g>
     </g>
    </g>
    <g id="ytick_4">
     <g id="line2d_19">
      <path d="M 57.152813 178.022314 
L 724.77387 178.022314 
" clip-path="url(#p383c65735f)" style="fill: none; stroke: #2a2a2a; stroke-width: 0.6; stroke-linecap: square"/>
     </g>
     <g id="line2d_20">
      <g>
       <use xlink:href="#ma988f0714d" x="57.152813" y="178.022314" style="fill: #8a8a8a; stroke: #8a8a8a; stroke-width: 0.7"/>
      </g>
     </g>
     <g id="text_11">
      <!-- 0.6 -->
      <g style="fill: #8a8a8a" transform="translate(35.84 181.441611) scale(0.09 -0.09)">
       <defs>
        <path id="DejaVuSerif-36" d="M 2094 219 
Q 2534 219 2771 542 
Q 3009 866 3009 1472 
Q 3009 2078 2771 2401 
Q 2534 2725 2094 2725 
Q 1647 2725 1412 2412 
Q 1178 2100 1178 1509 
Q 1178 888 1415 553 
Q 1653 219 2094 219 
z
M 1075 2569 
Q 1288 2803 1556 2918 
Q 1825 3034 2163 3034 
Q 2859 3034 3264 2615 
Q 3669 2197 3669 1472 
Q 3669 763 3233 336 
Q 2797 -91 2069 -91 
Q 1278 -91 853 498 
Q 428 1088 428 2181 
Q 428 3406 931 4078 
Q 1434 4750 2350 4750 
Q 2597 4750 2869 4703 
Q 3141 4656 3425 4563 
L 3425 3794 
L 3072 3794 
Q 3034 4109 2831 4275 
Q 2628 4441 2284 4441 
Q 1678 4441 1381 3981 
Q 1084 3522 1075 2569 
z
" transform="scale(0.015625)"/>
       </defs>
       <use xlink:href="#DejaVuSerif-30"/>
       <use xlink:href="#DejaVuSerif-2e" transform="translate(63.623047 0)"/>
       <use xlink:href="#DejaVuSerif-36" transform="translate(95.410156 0)"/>
      </g>
     </g>
    </g>
    <g id="ytick_5">
     <g id="line2d_21">
      <path d="M 57.152813 117.612397 
L 724.77387 117.612397 
" clip-path="url(#p383c65735f)" style="fill: none; stroke: #2a2a2a; stroke-width: 0.6; stroke-linecap: square"/>
     </g>
     <g id="line2d_22">
      <g>
       <use xlink:href="#ma988f0714d" x="57.152813" y="117.612397" style="fill: #8a8a8a; stroke: #8a8a8a; stroke-width: 0.7"/>
      </g>
     </g>
     <g id="text_12">
      <!-- 0.8 -->
      <g style="fill: #8a8a8a" transform="translate(35.84 121.031694) scale(0.09 -0.09)">
       <defs>
        <path id="DejaVuSerif-38" d="M 2981 1275 
Q 2981 1775 2732 2051 
Q 2484 2328 2034 2328 
Q 1584 2328 1336 2051 
Q 1088 1775 1088 1275 
Q 1088 772 1336 495 
Q 1584 219 2034 219 
Q 2484 219 2732 495 
Q 2981 772 2981 1275 
z
M 2853 3541 
Q 2853 3966 2637 4203 
Q 2422 4441 2034 4441 
Q 1650 4441 1433 4203 
Q 1216 3966 1216 3541 
Q 1216 3113 1433 2875 
Q 1650 2638 2034 2638 
Q 2422 2638 2637 2875 
Q 2853 3113 2853 3541 
z
M 2516 2484 
Q 3047 2413 3344 2092 
Q 3641 1772 3641 1275 
Q 3641 619 3225 264 
Q 2809 -91 2034 -91 
Q 1263 -91 845 264 
Q 428 619 428 1275 
Q 428 1772 725 2092 
Q 1022 2413 1556 2484 
Q 1084 2569 832 2842 
Q 581 3116 581 3541 
Q 581 4103 968 4426 
Q 1356 4750 2034 4750 
Q 2713 4750 3100 4426 
Q 3488 4103 3488 3541 
Q 3488 3116 3236 2842 
Q 2984 2569 2516 2484 
z
" transform="scale(0.015625)"/>
       </defs>
       <use xlink:href="#DejaVuSerif-30"/>
       <use xlink:href="#DejaVuSerif-2e" transform="translate(63.623047 0)"/>
       <use xlink:href="#DejaVuSerif-38" transform="translate(95.410156 0)"/>
      </g>
     </g>
    </g>
    <g id="ytick_6">
     <g id="line2d_23">
      <path d="M 57.152813 57.202479 
L 724.77387 57.202479 
" clip-path="url(#p383c65735f)" style="fill: none; stroke: #2a2a2a; stroke-width: 0.6; stroke-linecap: square"/>
     </g>
     <g id="line2d_24">
      <g>
       <use xlink:href="#ma988f0714d" x="57.152813" y="57.202479" style="fill: #8a8a8a; stroke: #8a8a8a; stroke-width: 0.7"/>
      </g>
     </g>
     <g id="text_13">
      <!-- 1.0 -->
      <g style="fill: #8a8a8a" transform="translate(35.84 60.621776) scale(0.09 -0.09)">
       <use xlink:href="#DejaVuSerif-31"/>
       <use xlink:href="#DejaVuSerif-2e" transform="translate(63.623047 0)"/>
       <use xlink:href="#DejaVuSerif-30" transform="translate(95.410156 0)"/>
      </g>
     </g>
    </g>
    <g id="text_14">
     <!-- $G_2(K)$ -->
     <g style="fill: #8a8a8a" transform="translate(24.09 223.792273) rotate(-90) scale(0.11 -0.11)">
      <defs>
       <path id="Cmmi10-47" d="M 934 1403 
Q 934 1006 1092 707 
Q 1250 409 1547 246 
Q 1844 84 2234 84 
Q 2616 84 2959 264 
Q 3303 444 3391 781 
L 3531 1331 
Q 3534 1350 3537 1370 
Q 3541 1391 3541 1403 
Q 3541 1469 3500 1478 
Q 3341 1522 2859 1522 
Q 2797 1522 2797 1606 
Q 2816 1684 2831 1715 
Q 2847 1747 2906 1747 
L 4556 1747 
Q 4622 1747 4622 1663 
Q 4619 1647 4609 1609 
Q 4600 1572 4584 1547 
Q 4569 1522 4538 1522 
Q 4325 1522 4226 1487 
Q 4128 1453 4091 1306 
L 3950 756 
L 3769 44 
Q 3759 0 3713 0 
Q 3659 0 3559 144 
Q 3459 288 3419 384 
Q 3197 122 2825 -9 
Q 2453 -141 2059 -141 
Q 1563 -141 1164 84 
Q 766 309 545 709 
Q 325 1109 325 1613 
Q 325 2150 564 2673 
Q 803 3197 1212 3611 
Q 1622 4025 2142 4269 
Q 2663 4513 3194 4513 
Q 3406 4513 3601 4447 
Q 3797 4381 3964 4251 
Q 4131 4122 4238 3950 
L 4744 4500 
Q 4744 4513 4775 4513 
L 4813 4513 
Q 4838 4513 4855 4492 
Q 4872 4472 4872 4447 
L 4434 2719 
Q 4434 2675 4384 2675 
L 4269 2675 
Q 4219 2675 4219 2747 
Q 4244 2888 4244 3078 
Q 4244 3394 4137 3672 
Q 4031 3950 3806 4119 
Q 3581 4288 3256 4288 
Q 2741 4288 2303 4027 
Q 1866 3766 1562 3337 
Q 1259 2909 1096 2396 
Q 934 1884 934 1403 
z
" transform="scale(0.015625)"/>
       <path id="Cmr10-32" d="M 319 0 
L 319 172 
Q 319 188 331 206 
L 1325 1306 
Q 1550 1550 1690 1715 
Q 1831 1881 1968 2097 
Q 2106 2313 2186 2536 
Q 2266 2759 2266 3009 
Q 2266 3272 2169 3511 
Q 2072 3750 1880 3894 
Q 1688 4038 1416 4038 
Q 1138 4038 916 3870 
Q 694 3703 603 3438 
Q 628 3444 672 3444 
Q 816 3444 917 3347 
Q 1019 3250 1019 3097 
Q 1019 2950 917 2848 
Q 816 2747 672 2747 
Q 522 2747 420 2851 
Q 319 2956 319 3097 
Q 319 3338 409 3548 
Q 500 3759 670 3923 
Q 841 4088 1055 4175 
Q 1269 4263 1509 4263 
Q 1875 4263 2190 4108 
Q 2506 3953 2690 3670 
Q 2875 3388 2875 3009 
Q 2875 2731 2753 2481 
Q 2631 2231 2440 2026 
Q 2250 1822 1953 1562 
Q 1656 1303 1563 1216 
L 838 519 
L 1453 519 
Q 1906 519 2211 526 
Q 2516 534 2534 550 
Q 2609 631 2688 1141 
L 2875 1141 
L 2694 0 
L 319 0 
z
" transform="scale(0.015625)"/>
       <path id="Cmr10-28" d="M 1984 -1588 
Q 1628 -1306 1370 -942 
Q 1113 -578 948 -165 
Q 784 247 703 697 
Q 622 1147 622 1600 
Q 622 2059 703 2509 
Q 784 2959 951 3375 
Q 1119 3791 1378 4153 
Q 1638 4516 1984 4788 
Q 1984 4800 2016 4800 
L 2075 4800 
Q 2094 4800 2109 4783 
Q 2125 4766 2125 4744 
Q 2125 4716 2113 4703 
Q 1800 4397 1592 4047 
Q 1384 3697 1257 3301 
Q 1131 2906 1075 2482 
Q 1019 2059 1019 1600 
Q 1019 -434 2106 -1491 
Q 2125 -1509 2125 -1544 
Q 2125 -1559 2108 -1579 
Q 2091 -1600 2075 -1600 
L 2016 -1600 
Q 1984 -1600 1984 -1588 
z
" transform="scale(0.015625)"/>
       <path id="Cmr10-29" d="M 416 -1600 
Q 359 -1600 359 -1544 
Q 359 -1516 372 -1503 
Q 1466 -434 1466 1600 
Q 1466 3634 384 4691 
Q 359 4706 359 4744 
Q 359 4766 376 4783 
Q 394 4800 416 4800 
L 475 4800 
Q 494 4800 506 4788 
Q 966 4425 1272 3906 
Q 1578 3388 1720 2800 
Q 1863 2213 1863 1600 
Q 1863 1147 1786 708 
Q 1709 269 1542 -157 
Q 1375 -584 1119 -945 
Q 863 -1306 506 -1588 
Q 494 -1600 475 -1600 
L 416 -1600 
z
" transform="scale(0.015625)"/>
      </defs>
      <use xlink:href="#Cmmi10-47"/>
      <use xlink:href="#Cmr10-32" transform="translate(78.613281 -17.00625) scale(0.7)"/>
      <use xlink:href="#Cmr10-28" transform="translate(119.990625 0)"/>
      <use xlink:href="#Cmmi10-4b" transform="translate(158.808984 0)"/>
      <use xlink:href="#Cmr10-29" transform="translate(243.721094 0)"/>
     </g>
    </g>
   </g>
   <g id="FillBetweenPolyCollection_1">
    <defs>
     <path id="m7e7baf3d0e" d="M 87.499224 -217.347585 
L 87.499224 -66.322792 
L 89.020348 -66.322792 
L 90.541471 -66.322792 
L 92.062594 -66.322792 
L 93.583718 -66.322792 
L 95.104841 -66.322792 
L 96.625965 -66.322792 
L 98.147088 -66.322792 
L 99.668211 -66.322792 
L 101.189335 -66.322792 
L 102.710458 -66.322792 
L 104.231582 -66.322792 
L 105.752705 -66.322792 
L 107.273828 -66.322792 
L 108.794952 -66.322792 
L 110.316075 -66.322792 
L 111.837198 -66.322792 
L 113.358322 -66.322792 
L 114.879445 -66.322792 
L 116.400569 -66.322792 
L 117.921692 -66.322792 
L 119.442815 -66.322792 
L 120.963939 -66.322792 
L 122.485062 -66.322792 
L 124.006186 -66.322792 
L 125.527309 -66.322792 
L 127.048432 -66.322792 
L 128.569556 -66.322792 
L 130.090679 -66.322792 
L 131.611803 -66.322792 
L 133.132926 -66.322792 
L 134.654049 -66.322792 
L 136.175173 -66.322792 
L 137.696296 -66.322792 
L 139.21742 -66.322792 
L 140.738543 -66.322792 
L 142.259666 -66.322792 
L 143.78079 -66.322792 
L 145.301913 -66.322792 
L 146.823037 -66.322792 
L 148.34416 -66.322792 
L 149.865283 -66.322792 
L 151.386407 -66.322792 
L 152.90753 -66.322792 
L 154.428654 -66.322792 
L 155.949777 -66.322792 
L 157.4709 -66.322792 
L 158.992024 -66.322792 
L 160.513147 -66.322792 
L 162.03427 -66.322792 
L 163.555394 -66.322792 
L 165.076517 -66.322792 
L 166.597641 -66.322792 
L 168.118764 -66.322792 
L 169.639887 -66.322792 
L 171.161011 -66.322792 
L 172.682134 -66.322792 
L 174.203258 -66.322792 
L 175.724381 -66.322792 
L 177.245504 -66.322792 
L 178.766628 -66.322792 
L 180.287751 -66.322792 
L 181.808875 -66.322792 
L 183.329998 -66.322792 
L 184.851121 -66.322792 
L 186.372245 -66.322792 
L 187.893368 -66.322792 
L 189.414492 -66.322792 
L 190.935615 -66.322792 
L 192.456738 -66.322792 
L 193.977862 -66.322792 
L 195.498985 -66.322792 
L 197.020109 -66.322792 
L 198.541232 -66.322792 
L 200.062355 -66.322792 
L 201.583479 -66.322792 
L 203.104602 -66.322792 
L 204.625725 -66.322792 
L 206.146849 -66.322792 
L 207.667972 -66.322792 
L 209.189096 -66.322792 
L 210.710219 -66.322792 
L 212.231342 -66.322792 
L 213.752466 -66.322792 
L 215.273589 -66.322792 
L 216.794713 -66.322792 
L 218.315836 -66.322792 
L 219.836959 -66.322792 
L 221.358083 -66.322792 
L 222.879206 -66.322792 
L 224.40033 -66.322792 
L 225.921453 -66.322792 
L 227.442576 -66.322792 
L 228.9637 -66.322792 
L 230.484823 -66.322792 
L 232.005947 -66.322792 
L 233.52707 -66.322792 
L 235.048193 -66.322792 
L 236.569317 -66.322792 
L 238.09044 -66.322792 
L 239.611564 -66.322792 
L 241.132687 -66.322792 
L 242.65381 -66.322792 
L 244.174934 -66.322792 
L 245.696057 -66.322792 
L 247.21718 -66.322792 
L 248.738304 -66.322792 
L 250.259427 -66.322792 
L 251.780551 -66.322792 
L 253.301674 -66.322792 
L 254.822797 -66.322792 
L 256.343921 -66.322792 
L 257.865044 -66.322792 
L 259.386168 -66.322792 
L 260.907291 -66.322792 
L 262.428414 -66.322792 
L 263.949538 -66.322792 
L 265.470661 -66.322792 
L 266.991785 -66.322792 
L 268.512908 -66.322792 
L 270.034031 -66.322792 
L 271.555155 -66.322792 
L 273.076278 -66.322792 
L 274.597402 -66.322792 
L 276.118525 -66.322792 
L 277.639648 -66.322792 
L 279.160772 -66.322792 
L 280.681895 -66.322792 
L 282.203019 -66.322792 
L 283.724142 -66.322792 
L 285.245265 -66.322792 
L 286.766389 -66.322792 
L 288.287512 -66.322792 
L 289.808636 -66.322792 
L 291.329759 -66.322792 
L 292.850882 -66.322792 
L 294.372006 -66.322792 
L 295.893129 -66.322792 
L 297.414252 -66.322792 
L 298.935376 -66.322792 
L 300.456499 -66.322792 
L 301.977623 -66.322792 
L 303.498746 -66.322792 
L 305.019869 -66.322792 
L 306.540993 -66.322792 
L 308.062116 -66.322792 
L 309.58324 -66.322792 
L 311.104363 -66.322792 
L 312.625486 -66.322792 
L 314.14661 -66.322792 
L 315.667733 -66.322792 
L 317.188857 -66.322792 
L 318.70998 -66.322792 
L 320.231103 -66.322792 
L 321.752227 -66.322792 
L 323.27335 -66.322792 
L 324.794474 -66.322792 
L 326.315597 -66.322792 
L 327.83672 -66.322792 
L 329.357844 -66.322792 
L 330.878967 -66.322792 
L 332.400091 -66.322792 
L 333.921214 -66.322792 
L 335.442337 -66.322792 
L 336.963461 -66.322792 
L 338.484584 -66.322792 
L 340.005707 -66.322792 
L 341.526831 -66.322792 
L 343.047954 -66.322792 
L 344.569078 -66.322792 
L 346.090201 -66.322792 
L 347.611324 -66.322792 
L 349.132448 -66.322792 
L 350.653571 -66.322792 
L 352.174695 -66.322792 
L 353.695818 -66.322792 
L 355.216941 -66.322792 
L 356.738065 -66.322792 
L 358.259188 -66.322792 
L 359.780312 -66.322792 
L 361.301435 -66.322792 
L 362.822558 -66.322792 
L 364.343682 -66.322792 
L 365.864805 -66.322792 
L 367.385929 -66.322792 
L 368.907052 -66.322792 
L 370.428175 -66.322792 
L 371.949299 -66.322792 
L 373.470422 -66.322792 
L 374.991546 -66.322792 
L 376.512669 -66.322792 
L 378.033792 -66.322792 
L 379.554916 -66.322792 
L 381.076039 -66.322792 
L 382.597162 -66.322792 
L 384.118286 -66.322792 
L 385.639409 -66.322792 
L 387.160533 -66.322792 
L 388.681656 -66.322792 
L 390.202779 -66.322792 
L 391.723903 -66.322792 
L 393.245026 -66.322792 
L 394.76615 -66.322792 
L 396.287273 -66.322792 
L 397.808396 -66.322792 
L 399.32952 -66.322792 
L 400.850643 -66.322792 
L 402.371767 -66.322792 
L 403.89289 -66.322792 
L 405.414013 -66.322792 
L 406.935137 -66.322792 
L 408.45626 -66.322792 
L 409.977384 -66.322792 
L 411.498507 -66.322792 
L 413.01963 -66.322792 
L 414.540754 -66.322792 
L 416.061877 -66.322792 
L 417.583001 -66.322792 
L 419.104124 -66.322792 
L 420.625247 -66.322792 
L 422.146371 -66.322792 
L 423.667494 -66.322792 
L 425.188618 -66.322792 
L 426.709741 -66.322792 
L 428.230864 -66.322792 
L 429.751988 -66.322792 
L 431.273111 -66.322792 
L 432.794234 -66.322792 
L 434.315358 -66.322792 
L 435.836481 -66.322792 
L 437.357605 -66.322792 
L 438.878728 -66.322792 
L 440.399851 -66.322792 
L 441.920975 -66.322792 
L 443.442098 -66.322792 
L 444.963222 -66.322792 
L 446.484345 -66.322792 
L 448.005468 -66.322792 
L 449.526592 -66.322792 
L 451.047715 -66.322792 
L 452.568839 -66.322792 
L 454.089962 -66.322792 
L 455.611085 -66.322792 
L 457.132209 -66.322792 
L 458.653332 -66.322792 
L 460.174456 -66.322792 
L 461.695579 -66.322792 
L 463.216702 -66.322792 
L 464.737826 -66.322792 
L 466.258949 -66.322792 
L 467.780073 -66.322792 
L 469.301196 -66.322792 
L 470.822319 -66.322792 
L 472.343443 -66.322792 
L 473.864566 -66.322792 
L 475.385689 -66.322792 
L 476.906813 -66.322792 
L 478.427936 -66.322792 
L 479.94906 -66.322792 
L 481.470183 -66.322792 
L 482.991306 -66.322792 
L 484.51243 -66.322792 
L 486.033553 -66.322792 
L 487.554677 -66.322792 
L 489.0758 -66.322792 
L 490.596923 -66.322792 
L 492.118047 -66.322792 
L 493.63917 -66.322792 
L 495.160294 -66.322792 
L 496.681417 -66.322792 
L 498.20254 -66.322792 
L 499.723664 -66.322792 
L 501.244787 -66.322792 
L 502.765911 -66.322792 
L 504.287034 -66.322792 
L 505.808157 -66.322792 
L 507.329281 -66.322792 
L 508.850404 -66.322792 
L 510.371528 -66.322792 
L 511.892651 -66.322792 
L 513.413774 -66.322792 
L 514.934898 -66.322792 
L 516.456021 -66.322792 
L 517.977144 -66.322792 
L 519.498268 -66.322792 
L 521.019391 -66.322792 
L 522.540515 -66.322792 
L 524.061638 -66.322792 
L 525.582761 -66.322792 
L 527.103885 -66.322792 
L 528.625008 -66.322792 
L 530.146132 -66.322792 
L 531.667255 -66.322792 
L 533.188378 -66.322792 
L 534.709502 -66.322792 
L 536.230625 -66.322792 
L 537.751749 -66.322792 
L 539.272872 -66.322792 
L 540.793995 -66.322792 
L 542.315119 -66.322792 
L 543.836242 -66.322792 
L 545.357366 -66.322792 
L 546.878489 -66.322792 
L 548.399612 -66.322792 
L 549.920736 -66.322792 
L 551.441859 -66.322792 
L 552.962983 -66.322792 
L 554.484106 -66.322792 
L 556.005229 -66.322792 
L 557.526353 -66.322792 
L 559.047476 -66.322792 
L 560.5686 -66.322792 
L 562.089723 -66.322792 
L 563.610846 -66.322792 
L 565.13197 -66.322792 
L 566.653093 -66.322792 
L 568.174216 -66.322792 
L 569.69534 -66.322792 
L 571.216463 -66.322792 
L 572.737587 -66.322792 
L 574.25871 -66.322792 
L 575.779833 -66.322792 
L 577.300957 -66.322792 
L 578.82208 -66.322792 
L 580.343204 -66.322792 
L 581.864327 -66.322792 
L 583.38545 -66.322792 
L 584.906574 -66.322792 
L 586.427697 -66.322792 
L 587.948821 -66.322792 
L 589.469944 -66.322792 
L 590.991067 -66.322792 
L 592.512191 -66.322792 
L 594.033314 -66.322792 
L 595.554438 -66.322792 
L 597.075561 -66.322792 
L 598.596684 -66.322792 
L 600.117808 -66.322792 
L 601.638931 -66.322792 
L 603.160055 -66.322792 
L 604.681178 -66.322792 
L 606.202301 -66.322792 
L 607.723425 -66.322792 
L 609.244548 -66.322792 
L 610.765671 -66.322792 
L 612.286795 -66.322792 
L 613.807918 -66.322792 
L 615.329042 -66.322792 
L 616.850165 -66.322792 
L 618.371288 -66.322792 
L 619.892412 -66.322792 
L 621.413535 -66.322792 
L 622.934659 -66.322792 
L 624.455782 -66.322792 
L 625.976905 -66.322792 
L 627.498029 -66.322792 
L 629.019152 -66.322792 
L 630.540276 -66.322792 
L 632.061399 -66.322792 
L 633.582522 -66.322792 
L 635.103646 -66.322792 
L 636.624769 -66.322792 
L 638.145893 -66.322792 
L 639.667016 -66.322792 
L 641.188139 -66.322792 
L 642.709263 -66.322792 
L 644.230386 -66.322792 
L 645.75151 -66.322792 
L 647.272633 -66.322792 
L 648.793756 -66.322792 
L 650.31488 -66.322792 
L 651.836003 -66.322792 
L 653.357126 -66.322792 
L 654.87825 -66.322792 
L 656.399373 -66.322792 
L 657.920497 -66.322792 
L 659.44162 -66.322792 
L 660.962743 -66.322792 
L 662.483867 -66.322792 
L 664.00499 -66.322792 
L 665.526114 -66.322792 
L 667.047237 -66.322792 
L 668.56836 -66.322792 
L 670.089484 -66.322792 
L 671.610607 -66.322792 
L 673.131731 -66.322792 
L 674.652854 -66.322792 
L 676.173977 -66.322792 
L 677.695101 -66.322792 
L 679.216224 -66.322792 
L 680.737348 -66.322792 
L 682.258471 -66.322792 
L 683.779594 -66.322792 
L 685.300718 -66.322792 
L 686.821841 -66.322792 
L 688.342965 -66.322792 
L 689.864088 -66.322792 
L 691.385211 -66.322792 
L 692.906335 -66.322792 
L 694.427458 -66.322792 
L 694.427458 -362.079679 
L 694.427458 -362.079679 
L 692.906335 -362.064528 
L 691.385211 -362.049305 
L 689.864088 -362.034008 
L 688.342965 -362.018636 
L 686.821841 -362.00319 
L 685.300718 -361.987669 
L 683.779594 -361.972071 
L 682.258471 -361.956398 
L 680.737348 -361.940647 
L 679.216224 -361.924819 
L 677.695101 -361.908913 
L 676.173977 -361.892928 
L 674.652854 -361.876864 
L 673.131731 -361.86072 
L 671.610607 -361.844495 
L 670.089484 -361.82819 
L 668.56836 -361.811802 
L 667.047237 -361.795333 
L 665.526114 -361.778781 
L 664.00499 -361.762145 
L 662.483867 -361.745425 
L 660.962743 -361.72862 
L 659.44162 -361.711729 
L 657.920497 -361.694753 
L 656.399373 -361.67769 
L 654.87825 -361.660539 
L 653.357126 -361.643301 
L 651.836003 -361.625973 
L 650.31488 -361.608556 
L 648.793756 -361.591049 
L 647.272633 -361.573451 
L 645.75151 -361.555762 
L 644.230386 -361.53798 
L 642.709263 -361.520105 
L 641.188139 -361.502137 
L 639.667016 -361.484074 
L 638.145893 -361.465915 
L 636.624769 -361.447661 
L 635.103646 -361.42931 
L 633.582522 -361.410861 
L 632.061399 -361.392315 
L 630.540276 -361.373669 
L 629.019152 -361.354923 
L 627.498029 -361.336076 
L 625.976905 -361.317128 
L 624.455782 -361.298078 
L 622.934659 -361.278925 
L 621.413535 -361.259667 
L 619.892412 -361.240305 
L 618.371288 -361.220837 
L 616.850165 -361.201262 
L 615.329042 -361.18158 
L 613.807918 -361.16179 
L 612.286795 -361.14189 
L 610.765671 -361.12188 
L 609.244548 -361.101759 
L 607.723425 -361.081527 
L 606.202301 -361.061181 
L 604.681178 -361.040721 
L 603.160055 -361.020147 
L 601.638931 -360.999456 
L 600.117808 -360.978649 
L 598.596684 -360.957725 
L 597.075561 -360.936681 
L 595.554438 -360.915518 
L 594.033314 -360.894234 
L 592.512191 -360.872828 
L 590.991067 -360.851299 
L 589.469944 -360.829646 
L 587.948821 -360.807868 
L 586.427697 -360.785964 
L 584.906574 -360.763933 
L 583.38545 -360.741773 
L 581.864327 -360.719484 
L 580.343204 -360.697064 
L 578.82208 -360.674513 
L 577.300957 -360.651829 
L 575.779833 -360.62901 
L 574.25871 -360.606057 
L 572.737587 -360.582966 
L 571.216463 -360.559739 
L 569.69534 -360.536372 
L 568.174216 -360.512865 
L 566.653093 -360.489216 
L 565.13197 -360.465425 
L 563.610846 -360.44149 
L 562.089723 -360.417409 
L 560.5686 -360.393182 
L 559.047476 -360.368807 
L 557.526353 -360.344282 
L 556.005229 -360.319607 
L 554.484106 -360.294779 
L 552.962983 -360.269798 
L 551.441859 -360.244662 
L 549.920736 -360.219369 
L 548.399612 -360.193919 
L 546.878489 -360.168309 
L 545.357366 -360.142538 
L 543.836242 -360.116605 
L 542.315119 -360.090508 
L 540.793995 -360.064245 
L 539.272872 -360.037815 
L 537.751749 -360.011217 
L 536.230625 -359.984448 
L 534.709502 -359.957507 
L 533.188378 -359.930393 
L 531.667255 -359.903103 
L 530.146132 -359.875637 
L 528.625008 -359.847991 
L 527.103885 -359.820166 
L 525.582761 -359.792158 
L 524.061638 -359.763965 
L 522.540515 -359.735587 
L 521.019391 -359.707022 
L 519.498268 -359.678266 
L 517.977144 -359.649319 
L 516.456021 -359.620179 
L 514.934898 -359.590844 
L 513.413774 -359.561311 
L 511.892651 -359.531579 
L 510.371528 -359.501645 
L 508.850404 -359.471508 
L 507.329281 -359.441166 
L 505.808157 -359.410616 
L 504.287034 -359.379856 
L 502.765911 -359.348885 
L 501.244787 -359.317699 
L 499.723664 -359.286297 
L 498.20254 -359.254677 
L 496.681417 -359.222835 
L 495.160294 -359.190771 
L 493.63917 -359.158481 
L 492.118047 -359.125963 
L 490.596923 -359.093214 
L 489.0758 -359.060233 
L 487.554677 -359.027017 
L 486.033553 -358.993563 
L 484.51243 -358.959868 
L 482.991306 -358.92593 
L 481.470183 -358.891747 
L 479.94906 -358.857316 
L 478.427936 -358.822633 
L 476.906813 -358.787697 
L 475.385689 -358.752504 
L 473.864566 -358.717052 
L 472.343443 -358.681338 
L 470.822319 -358.645358 
L 469.301196 -358.60911 
L 467.780073 -358.572591 
L 466.258949 -358.535798 
L 464.737826 -358.498728 
L 463.216702 -358.461377 
L 461.695579 -358.423742 
L 460.174456 -358.38582 
L 458.653332 -358.347609 
L 457.132209 -358.309103 
L 455.611085 -358.270301 
L 454.089962 -358.231198 
L 452.568839 -358.191792 
L 451.047715 -358.152078 
L 449.526592 -358.112053 
L 448.005468 -358.071713 
L 446.484345 -358.031055 
L 444.963222 -357.990075 
L 443.442098 -357.948768 
L 441.920975 -357.907132 
L 440.399851 -357.865161 
L 438.878728 -357.822853 
L 437.357605 -357.780202 
L 435.836481 -357.737205 
L 434.315358 -357.693858 
L 432.794234 -357.650156 
L 431.273111 -357.606094 
L 429.751988 -357.56167 
L 428.230864 -357.516876 
L 426.709741 -357.471711 
L 425.188618 -357.426167 
L 423.667494 -357.380242 
L 422.146371 -357.33393 
L 420.625247 -357.287225 
L 419.104124 -357.240124 
L 417.583001 -357.192621 
L 416.061877 -357.144711 
L 414.540754 -357.096388 
L 413.01963 -357.047648 
L 411.498507 -356.998484 
L 409.977384 -356.948892 
L 408.45626 -356.898865 
L 406.935137 -356.848398 
L 405.414013 -356.797486 
L 403.89289 -356.746121 
L 402.371767 -356.694299 
L 400.850643 -356.642012 
L 399.32952 -356.589255 
L 397.808396 -356.536022 
L 396.287273 -356.482305 
L 394.76615 -356.428099 
L 393.245026 -356.373396 
L 391.723903 -356.318189 
L 390.202779 -356.262473 
L 388.681656 -356.206238 
L 387.160533 -356.14948 
L 385.639409 -356.092189 
L 384.118286 -356.034358 
L 382.597162 -355.97598 
L 381.076039 -355.917047 
L 379.554916 -355.857552 
L 378.033792 -355.797485 
L 376.512669 -355.736838 
L 374.991546 -355.675604 
L 373.470422 -355.613773 
L 371.949299 -355.551338 
L 370.428175 -355.488288 
L 368.907052 -355.424615 
L 367.385929 -355.360309 
L 365.864805 -355.295362 
L 364.343682 -355.229763 
L 362.822558 -355.163503 
L 361.301435 -355.096571 
L 359.780312 -355.028957 
L 358.259188 -354.960651 
L 356.738065 -354.891642 
L 355.216941 -354.821919 
L 353.695818 -354.751472 
L 352.174695 -354.680288 
L 350.653571 -354.608356 
L 349.132448 -354.535664 
L 347.611324 -354.4622 
L 346.090201 -354.387952 
L 344.569078 -354.312908 
L 343.047954 -354.237053 
L 341.526831 -354.160376 
L 340.005707 -354.082862 
L 338.484584 -354.004498 
L 336.963461 -353.925269 
L 335.442337 -353.845162 
L 333.921214 -353.764162 
L 332.400091 -353.682254 
L 330.878967 -353.599421 
L 329.357844 -353.51565 
L 327.83672 -353.430922 
L 326.315597 -353.345223 
L 324.794474 -353.258535 
L 323.27335 -353.170842 
L 321.752227 -353.082124 
L 320.231103 -352.992365 
L 318.70998 -352.901546 
L 317.188857 -352.809648 
L 315.667733 -352.716652 
L 314.14661 -352.622537 
L 312.625486 -352.527285 
L 311.104363 -352.430873 
L 309.58324 -352.33328 
L 308.062116 -352.234486 
L 306.540993 -352.134466 
L 305.019869 -352.0332 
L 303.498746 -351.930662 
L 301.977623 -351.826829 
L 300.456499 -351.721676 
L 298.935376 -351.615178 
L 297.414252 -351.507309 
L 295.893129 -351.398043 
L 294.372006 -351.287351 
L 292.850882 -351.175206 
L 291.329759 -351.061579 
L 289.808636 -350.946441 
L 288.287512 -350.829761 
L 286.766389 -350.711507 
L 285.245265 -350.591649 
L 283.724142 -350.470153 
L 282.203019 -350.346984 
L 280.681895 -350.22211 
L 279.160772 -350.095493 
L 277.639648 -349.967097 
L 276.118525 -349.836884 
L 274.597402 -349.704816 
L 273.076278 -349.570852 
L 271.555155 -349.434952 
L 270.034031 -349.297072 
L 268.512908 -349.157171 
L 266.991785 -349.015201 
L 265.470661 -348.871119 
L 263.949538 -348.724875 
L 262.428414 -348.576422 
L 260.907291 -348.425708 
L 259.386168 -348.272681 
L 257.865044 -348.117289 
L 256.343921 -347.959475 
L 254.822797 -347.799182 
L 253.301674 -347.636352 
L 251.780551 -347.470924 
L 250.259427 -347.302836 
L 248.738304 -347.132022 
L 247.21718 -346.958415 
L 245.696057 -346.781948 
L 244.174934 -346.602547 
L 242.65381 -346.420141 
L 241.132687 -346.234652 
L 239.611564 -346.046001 
L 238.09044 -345.854108 
L 236.569317 -345.658887 
L 235.048193 -345.460252 
L 233.52707 -345.258112 
L 232.005947 -345.052374 
L 230.484823 -344.84294 
L 228.9637 -344.62971 
L 227.442576 -344.41258 
L 225.921453 -344.191443 
L 224.40033 -343.966185 
L 222.879206 -343.736691 
L 221.358083 -343.50284 
L 219.836959 -343.264507 
L 218.315836 -343.021561 
L 216.794713 -342.773869 
L 215.273589 -342.521288 
L 213.752466 -342.263673 
L 212.231342 -342.000872 
L 210.710219 -341.732727 
L 209.189096 -341.459072 
L 207.667972 -341.179738 
L 206.146849 -340.894543 
L 204.625725 -340.603304 
L 203.104602 -340.305824 
L 201.583479 -340.001902 
L 200.062355 -339.691326 
L 198.541232 -339.373874 
L 197.020109 -339.049317 
L 195.498985 -338.717412 
L 193.977862 -338.377907 
L 192.456738 -338.030539 
L 190.935615 -337.675031 
L 189.414492 -337.311094 
L 187.893368 -336.938423 
L 186.372245 -336.556701 
L 184.851121 -336.165595 
L 183.329998 -335.764753 
L 181.808875 -335.353807 
L 180.287751 -334.932372 
L 178.766628 -334.500039 
L 177.245504 -334.056381 
L 175.724381 -333.600946 
L 174.203258 -333.13326 
L 172.682134 -332.652822 
L 171.161011 -332.159102 
L 169.639887 -331.651542 
L 168.118764 -331.129553 
L 166.597641 -330.592509 
L 165.076517 -330.03975 
L 163.555394 -329.470576 
L 162.03427 -328.884245 
L 160.513147 -328.279968 
L 158.992024 -327.656911 
L 157.4709 -327.014182 
L 155.949777 -326.350836 
L 154.428654 -325.665864 
L 152.90753 -324.958191 
L 151.386407 -324.22667 
L 149.865283 -323.470074 
L 148.34416 -322.687092 
L 146.823037 -321.87632 
L 145.301913 -321.036249 
L 143.78079 -320.165265 
L 142.259666 -319.261627 
L 140.738543 -318.323465 
L 139.21742 -317.348761 
L 137.696296 -316.335338 
L 136.175173 -315.280843 
L 134.654049 -314.182727 
L 133.132926 -313.038226 
L 131.611803 -311.844337 
L 130.090679 -310.597793 
L 128.569556 -309.295033 
L 127.048432 -307.932165 
L 125.527309 -306.504932 
L 124.006186 -305.008664 
L 122.485062 -303.438227 
L 120.963939 -301.787967 
L 119.442815 -300.051639 
L 117.921692 -298.222329 
L 116.400569 -296.292364 
L 114.879445 -294.2532 
L 113.358322 -292.095299 
L 111.837198 -289.807982 
L 110.316075 -287.379243 
L 108.794952 -284.795551 
L 107.273828 -282.041587 
L 105.752705 -279.099945 
L 104.231582 -275.950764 
L 102.710458 -272.571278 
L 101.189335 -268.935262 
L 99.668211 -265.012357 
L 98.147088 -260.767213 
L 96.625965 -256.158426 
L 95.104841 -251.137179 
L 93.583718 -245.64551 
L 92.062594 -239.614061 
L 90.541471 -232.959137 
L 89.020348 -225.578794 
L 87.499224 -217.347585 
z
" style="stroke: #f2f2f2; stroke-opacity: 0.06"/>
    </defs>
    <g clip-path="url(#p383c65735f)">
     <use xlink:href="#m7e7baf3d0e" x="0" y="425.574858" style="fill: #f2f2f2; fill-opacity: 0.06; stroke: #f2f2f2; stroke-opacity: 0.06"/>
    </g>
   </g>
   <g id="line2d_25">
    <path d="M 57.152813 57.202479 
L 724.77387 57.202479 
" clip-path="url(#p383c65735f)" style="fill: none; stroke-dasharray: 0.8,1.32; stroke-dashoffset: 0; stroke: #3a3a3a; stroke-width: 0.8"/>
   </g>
   <g id="patch_3">
    <path d="M 57.152813 374.354545 
L 57.152813 42.1 
" style="fill: none; stroke: #3a3a3a; stroke-linejoin: miter; stroke-linecap: square"/>
   </g>
   <g id="patch_4">
    <path d="M 57.152813 374.354545 
L 724.77387 374.354545 
" style="fill: none; stroke: #3a3a3a; stroke-linejoin: miter; stroke-linecap: square"/>
   </g>
   <g id="patch_5">
    <path d="M 376.097389 230.468718 
Q 455.400845 148.748995 534.003545 67.75138 
" style="fill: none; stroke: #8a8a8a; stroke-width: 0.9; stroke-linecap: round"/>
    <path d="M 529.993648 69.155205 
L 534.003545 67.75138 
L 532.720668 71.801593 
" style="fill: none; stroke: #8a8a8a; stroke-width: 0.9; stroke-linecap: round"/>
   </g>
   <g id="text_15">
    <g id="patch_6">
     <path d="M 295.279697 258.835414 
L 427.558291 258.835414 
L 427.558291 232.353273 
L 295.279697 232.353273 
z
" style="stroke: #d0d0d0; stroke-width: 0.9; stroke-linejoin: miter"/>
    </g>
    <!-- tail in mouth: -->
    <g style="fill: #d0d0d0" transform="translate(298.604697 242.896789) scale(0.095 -0.095)">
     <defs>
      <path id="DejaVuSerif-6c" d="M 1313 331 
L 1856 331 
L 1856 0 
L 184 0 
L 184 331 
L 738 331 
L 738 4531 
L 184 4531 
L 184 4863 
L 1313 4863 
L 1313 331 
z
" transform="scale(0.015625)"/>
      <path id="DejaVuSerif-6e" d="M 263 0 
L 263 331 
L 781 331 
L 781 2988 
L 231 2988 
L 231 3322 
L 1356 3322 
L 1356 2731 
Q 1516 3069 1770 3241 
Q 2025 3413 2363 3413 
Q 2913 3413 3172 3097 
Q 3431 2781 3431 2113 
L 3431 331 
L 3944 331 
L 3944 0 
L 2356 0 
L 2356 331 
L 2853 331 
L 2853 1931 
Q 2853 2541 2703 2767 
Q 2553 2994 2175 2994 
Q 1775 2994 1565 2701 
Q 1356 2409 1356 1850 
L 1356 331 
L 1856 331 
L 1856 0 
L 263 0 
z
" transform="scale(0.015625)"/>
      <path id="DejaVuSerif-6d" d="M 3316 2675 
Q 3481 3041 3739 3227 
Q 3997 3413 4341 3413 
Q 4863 3413 5119 3089 
Q 5375 2766 5375 2113 
L 5375 331 
L 5894 331 
L 5894 0 
L 4300 0 
L 4300 331 
L 4800 331 
L 4800 2047 
Q 4800 2556 4650 2772 
Q 4500 2988 4153 2988 
Q 3769 2988 3567 2697 
Q 3366 2406 3366 1850 
L 3366 331 
L 3866 331 
L 3866 0 
L 2291 0 
L 2291 331 
L 2791 331 
L 2791 2069 
Q 2791 2566 2641 2777 
Q 2491 2988 2144 2988 
Q 1759 2988 1557 2697 
Q 1356 2406 1356 1850 
L 1356 331 
L 1856 331 
L 1856 0 
L 263 0 
L 263 331 
L 781 331 
L 781 2994 
L 231 2994 
L 231 3322 
L 1356 3322 
L 1356 2731 
Q 1516 3063 1762 3238 
Q 2009 3413 2322 3413 
Q 2709 3413 2968 3220 
Q 3228 3028 3316 2675 
z
" transform="scale(0.015625)"/>
      <path id="DejaVuSerif-6f" d="M 1925 219 
Q 2388 219 2623 584 
Q 2859 950 2859 1663 
Q 2859 2375 2623 2739 
Q 2388 3103 1925 3103 
Q 1463 3103 1227 2739 
Q 991 2375 991 1663 
Q 991 950 1228 584 
Q 1466 219 1925 219 
z
M 1925 -91 
Q 1200 -91 759 389 
Q 319 869 319 1663 
Q 319 2456 758 2934 
Q 1197 3413 1925 3413 
Q 2653 3413 3092 2934 
Q 3531 2456 3531 1663 
Q 3531 869 3092 389 
Q 2653 -91 1925 -91 
z
" transform="scale(0.015625)"/>
      <path id="DejaVuSerif-75" d="M 2266 3322 
L 3341 3322 
L 3341 331 
L 3884 331 
L 3884 0 
L 2766 0 
L 2766 588 
Q 2606 256 2353 82 
Q 2100 -91 1766 -91 
Q 1213 -91 952 223 
Q 691 538 691 1209 
L 691 2988 
L 172 2988 
L 172 3322 
L 1269 3322 
L 1269 1388 
Q 1269 781 1417 556 
Q 1566 331 1947 331 
Q 2347 331 2556 625 
Q 2766 919 2766 1478 
L 2766 2988 
L 2266 2988 
L 2266 3322 
z
" transform="scale(0.015625)"/>
      <path id="DejaVuSerif-68" d="M 263 0 
L 263 331 
L 781 331 
L 781 4531 
L 231 4531 
L 231 4863 
L 1356 4863 
L 1356 2731 
Q 1516 3069 1770 3241 
Q 2025 3413 2363 3413 
Q 2913 3413 3172 3097 
Q 3431 2781 3431 2113 
L 3431 331 
L 3944 331 
L 3944 0 
L 2356 0 
L 2356 331 
L 2853 331 
L 2853 1931 
Q 2853 2541 2704 2764 
Q 2556 2988 2175 2988 
Q 1775 2988 1565 2697 
Q 1356 2406 1356 1850 
L 1356 331 
L 1856 331 
L 1856 0 
L 263 0 
z
" transform="scale(0.015625)"/>
      <path id="DejaVuSerif-3a" d="M 666 325 
Q 666 500 786 622 
Q 906 744 1081 744 
Q 1256 744 1376 622 
Q 1497 500 1497 325 
Q 1497 150 1378 29 
Q 1259 -91 1081 -91 
Q 903 -91 784 29 
Q 666 150 666 325 
z
M 666 2363 
Q 666 2538 786 2658 
Q 906 2778 1081 2778 
Q 1259 2778 1378 2659 
Q 1497 2541 1497 2363 
Q 1497 2184 1378 2065 
Q 1259 1947 1081 1947 
Q 906 1947 786 2067 
Q 666 2188 666 2363 
z
" transform="scale(0.015625)"/>
     </defs>
     <use xlink:href="#DejaVuSerif-74"/>
     <use xlink:href="#DejaVuSerif-61" transform="translate(40.185547 0)"/>
     <use xlink:href="#DejaVuSerif-69" transform="translate(99.804688 0)"/>
     <use xlink:href="#DejaVuSerif-6c" transform="translate(131.787109 0)"/>
     <use xlink:href="#DejaVuSerif-20" transform="translate(163.769531 0)"/>
     <use xlink:href="#DejaVuSerif-69" transform="translate(195.556641 0)"/>
     <use xlink:href="#DejaVuSerif-6e" transform="translate(227.539062 0)"/>
     <use xlink:href="#DejaVuSerif-20" transform="translate(291.943359 0)"/>
     <use xlink:href="#DejaVuSerif-6d" transform="translate(323.730469 0)"/>
     <use xlink:href="#DejaVuSerif-6f" transform="translate(418.554688 0)"/>
     <use xlink:href="#DejaVuSerif-75" transform="translate(478.759766 0)"/>
     <use xlink:href="#DejaVuSerif-74" transform="translate(543.164062 0)"/>
     <use xlink:href="#DejaVuSerif-68" transform="translate(583.349609 0)"/>
     <use xlink:href="#DejaVuSerif-3a" transform="translate(647.753906 0)"/>
    </g>
    <!-- construction meets bound -->
    <g style="fill: #d0d0d0" transform="translate(298.604697 253.534711) scale(0.095 -0.095)">
     <defs>
      <path id="DejaVuSerif-63" d="M 3291 997 
Q 3169 466 2822 187 
Q 2475 -91 1925 -91 
Q 1200 -91 759 389 
Q 319 869 319 1663 
Q 319 2459 759 2936 
Q 1200 3413 1925 3413 
Q 2241 3413 2553 3339 
Q 2866 3266 3181 3116 
L 3181 2266 
L 2847 2266 
Q 2781 2703 2561 2903 
Q 2341 3103 1931 3103 
Q 1466 3103 1228 2742 
Q 991 2381 991 1663 
Q 991 944 1227 581 
Q 1463 219 1931 219 
Q 2303 219 2525 412 
Q 2747 606 2828 997 
L 3291 997 
z
" transform="scale(0.015625)"/>
      <path id="DejaVuSerif-73" d="M 359 184 
L 359 959 
L 691 959 
Q 703 588 923 403 
Q 1144 219 1575 219 
Q 1963 219 2166 364 
Q 2369 509 2369 788 
Q 2369 1006 2220 1140 
Q 2072 1275 1594 1428 
L 1178 1569 
Q 750 1706 558 1912 
Q 366 2119 366 2438 
Q 366 2894 700 3153 
Q 1034 3413 1625 3413 
Q 1888 3413 2178 3344 
Q 2469 3275 2778 3144 
L 2778 2419 
L 2447 2419 
Q 2434 2741 2221 2922 
Q 2009 3103 1644 3103 
Q 1281 3103 1095 2975 
Q 909 2847 909 2591 
Q 909 2381 1050 2254 
Q 1191 2128 1613 1997 
L 2069 1856 
Q 2541 1709 2748 1489 
Q 2956 1269 2956 922 
Q 2956 450 2595 179 
Q 2234 -91 1600 -91 
Q 1278 -91 972 -22 
Q 666 47 359 184 
z
" transform="scale(0.015625)"/>
      <path id="DejaVuSerif-65" d="M 3469 1600 
L 991 1600 
L 991 1575 
Q 991 903 1244 561 
Q 1497 219 1991 219 
Q 2369 219 2611 417 
Q 2853 616 2950 1006 
L 3413 1006 
Q 3275 459 2904 184 
Q 2534 -91 1931 -91 
Q 1203 -91 761 389 
Q 319 869 319 1663 
Q 319 2450 753 2931 
Q 1188 3413 1894 3413 
Q 2647 3413 3050 2948 
Q 3453 2484 3469 1600 
z
M 2791 1931 
Q 2772 2513 2545 2808 
Q 2319 3103 1894 3103 
Q 1497 3103 1269 2806 
Q 1041 2509 991 1931 
L 2791 1931 
z
" transform="scale(0.015625)"/>
      <path id="DejaVuSerif-62" d="M 738 331 
L 738 4531 
L 184 4531 
L 184 4863 
L 1313 4863 
L 1313 2803 
Q 1481 3116 1742 3264 
Q 2003 3413 2388 3413 
Q 3000 3413 3387 2928 
Q 3775 2444 3775 1663 
Q 3775 881 3387 395 
Q 3000 -91 2388 -91 
Q 2003 -91 1742 57 
Q 1481 206 1313 519 
L 1313 0 
L 184 0 
L 184 331 
L 738 331 
z
M 1313 1497 
Q 1313 897 1542 583 
Q 1772 269 2209 269 
Q 2650 269 2876 622 
Q 3103 975 3103 1663 
Q 3103 2353 2876 2703 
Q 2650 3053 2209 3053 
Q 1772 3053 1542 2737 
Q 1313 2422 1313 1825 
L 1313 1497 
z
" transform="scale(0.015625)"/>
      <path id="DejaVuSerif-64" d="M 3359 331 
L 3909 331 
L 3909 0 
L 2784 0 
L 2784 519 
Q 2616 206 2355 57 
Q 2094 -91 1709 -91 
Q 1097 -91 708 395 
Q 319 881 319 1663 
Q 319 2444 706 2928 
Q 1094 3413 1709 3413 
Q 2094 3413 2355 3264 
Q 2616 3116 2784 2803 
L 2784 4531 
L 2241 4531 
L 2241 4863 
L 3359 4863 
L 3359 331 
z
M 2784 1497 
L 2784 1825 
Q 2784 2422 2554 2737 
Q 2325 3053 1888 3053 
Q 1444 3053 1217 2703 
Q 991 2353 991 1663 
Q 991 975 1217 622 
Q 1444 269 1888 269 
Q 2325 269 2554 583 
Q 2784 897 2784 1497 
z
" transform="scale(0.015625)"/>
     </defs>
     <use xlink:href="#DejaVuSerif-63"/>
     <use xlink:href="#DejaVuSerif-6f" transform="translate(56.005859 0)"/>
     <use xlink:href="#DejaVuSerif-6e" transform="translate(116.210938 0)"/>
     <use xlink:href="#DejaVuSerif-73" transform="translate(180.615234 0)"/>
     <use xlink:href="#DejaVuSerif-74" transform="translate(231.933594 0)"/>
     <use xlink:href="#DejaVuSerif-72" transform="translate(272.119141 0)"/>
     <use xlink:href="#DejaVuSerif-75" transform="translate(319.921875 0)"/>
     <use xlink:href="#DejaVuSerif-63" transform="translate(384.326172 0)"/>
     <use xlink:href="#DejaVuSerif-74" transform="translate(440.332031 0)"/>
     <use xlink:href="#DejaVuSerif-69" transform="translate(480.517578 0)"/>
     <use xlink:href="#DejaVuSerif-6f" transform="translate(512.5 0)"/>
     <use xlink:href="#DejaVuSerif-6e" transform="translate(572.705078 0)"/>
     <use xlink:href="#DejaVuSerif-20" transform="translate(637.109375 0)"/>
     <use xlink:href="#DejaVuSerif-6d" transform="translate(668.896484 0)"/>
     <use xlink:href="#DejaVuSerif-65" transform="translate(763.720703 0)"/>
     <use xlink:href="#DejaVuSerif-65" transform="translate(822.900391 0)"/>
     <use xlink:href="#DejaVuSerif-74" transform="translate(882.080078 0)"/>
     <use xlink:href="#DejaVuSerif-73" transform="translate(922.265625 0)"/>
     <use xlink:href="#DejaVuSerif-20" transform="translate(973.583984 0)"/>
     <use xlink:href="#DejaVuSerif-62" transform="translate(1005.371094 0)"/>
     <use xlink:href="#DejaVuSerif-6f" transform="translate(1069.384766 0)"/>
     <use xlink:href="#DejaVuSerif-75" transform="translate(1129.589844 0)"/>
     <use xlink:href="#DejaVuSerif-6e" transform="translate(1193.994141 0)"/>
     <use xlink:href="#DejaVuSerif-64" transform="translate(1258.398438 0)"/>
    </g>
   </g>
   <g id="text_16">
    <!-- Ouroboros of the gap:  $G_2(K)=1-1/K$ eats toward $1$ -->
    <g style="fill: #f2f2f2" transform="translate(213.033341 26.1) scale(0.135 -0.135)">
     <defs>
      <path id="DejaVuSerif-4f" d="M 2625 244 
Q 3391 244 3781 770 
Q 4172 1297 4172 2328 
Q 4172 3363 3781 3889 
Q 3391 4416 2625 4416 
Q 1856 4416 1465 3889 
Q 1075 3363 1075 2328 
Q 1075 1297 1465 770 
Q 1856 244 2625 244 
z
M 2625 -91 
Q 2150 -91 1751 65 
Q 1353 222 1050 525 
Q 700 875 529 1319 
Q 359 1763 359 2328 
Q 359 2894 529 3339 
Q 700 3784 1050 4134 
Q 1356 4441 1750 4595 
Q 2144 4750 2625 4750 
Q 3641 4750 4266 4084 
Q 4891 3419 4891 2328 
Q 4891 1769 4719 1320 
Q 4547 872 4197 525 
Q 3891 219 3497 64 
Q 3103 -91 2625 -91 
z
" transform="scale(0.015625)"/>
      <path id="DejaVuSerif-66" d="M 2753 4078 
L 2450 4078 
Q 2447 4313 2317 4434 
Q 2188 4556 1941 4556 
Q 1619 4556 1487 4379 
Q 1356 4203 1356 3750 
L 1356 3322 
L 2284 3322 
L 2284 2988 
L 1356 2988 
L 1356 331 
L 2094 331 
L 2094 0 
L 231 0 
L 231 331 
L 781 331 
L 781 2988 
L 231 2988 
L 231 3322 
L 781 3322 
L 781 3738 
Q 781 4294 1070 4578 
Q 1359 4863 1919 4863 
Q 2128 4863 2337 4825 
Q 2547 4788 2753 4709 
L 2753 4078 
z
" transform="scale(0.015625)"/>
      <path id="DejaVuSerif-67" d="M 3359 2988 
L 3359 72 
Q 3359 -644 2965 -1033 
Q 2572 -1422 1844 -1422 
Q 1516 -1422 1216 -1362 
Q 916 -1303 641 -1184 
L 641 -488 
L 941 -488 
Q 997 -813 1206 -963 
Q 1416 -1113 1806 -1113 
Q 2313 -1113 2548 -827 
Q 2784 -541 2784 72 
L 2784 519 
Q 2616 206 2355 57 
Q 2094 -91 1709 -91 
Q 1097 -91 708 395 
Q 319 881 319 1663 
Q 319 2444 706 2928 
Q 1094 3413 1709 3413 
Q 2094 3413 2355 3264 
Q 2616 3116 2784 2803 
L 2784 3322 
L 3909 3322 
L 3909 2988 
L 3359 2988 
z
M 2784 1825 
Q 2784 2422 2554 2737 
Q 2325 3053 1888 3053 
Q 1444 3053 1217 2703 
Q 991 2353 991 1663 
Q 991 975 1217 622 
Q 1444 269 1888 269 
Q 2325 269 2554 583 
Q 2784 897 2784 1497 
L 2784 1825 
z
" transform="scale(0.015625)"/>
      <path id="DejaVuSerif-70" d="M 1313 1825 
L 1313 1497 
Q 1313 897 1542 583 
Q 1772 269 2209 269 
Q 2650 269 2876 622 
Q 3103 975 3103 1663 
Q 3103 2353 2876 2703 
Q 2650 3053 2209 3053 
Q 1772 3053 1542 2737 
Q 1313 2422 1313 1825 
z
M 738 2988 
L 184 2988 
L 184 3322 
L 1313 3322 
L 1313 2803 
Q 1481 3116 1742 3264 
Q 2003 3413 2388 3413 
Q 3000 3413 3387 2928 
Q 3775 2444 3775 1663 
Q 3775 881 3387 395 
Q 3000 -91 2388 -91 
Q 2003 -91 1742 57 
Q 1481 206 1313 519 
L 1313 -997 
L 1856 -997 
L 1856 -1331 
L 184 -1331 
L 184 -997 
L 738 -997 
L 738 2988 
z
" transform="scale(0.015625)"/>
      <path id="Cmr10-3d" d="M 481 850 
Q 428 850 393 890 
Q 359 931 359 978 
Q 359 1031 393 1068 
Q 428 1106 481 1106 
L 4500 1106 
Q 4547 1106 4581 1068 
Q 4616 1031 4616 978 
Q 4616 931 4581 890 
Q 4547 850 4500 850 
L 481 850 
z
M 481 2094 
Q 428 2094 393 2131 
Q 359 2169 359 2222 
Q 359 2269 393 2309 
Q 428 2350 481 2350 
L 4500 2350 
Q 4547 2350 4581 2309 
Q 4616 2269 4616 2222 
Q 4616 2169 4581 2131 
Q 4547 2094 4500 2094 
L 481 2094 
z
" transform="scale(0.015625)"/>
      <path id="Cmr10-31" d="M 594 0 
L 594 225 
Q 1394 225 1394 428 
L 1394 3788 
Q 1063 3628 556 3628 
L 556 3853 
Q 1341 3853 1741 4263 
L 1831 4263 
Q 1853 4263 1873 4245 
Q 1894 4228 1894 4206 
L 1894 428 
Q 1894 225 2694 225 
L 2694 0 
L 594 0 
z
" transform="scale(0.015625)"/>
      <path id="Cmsy10-a1" d="M 653 1472 
Q 600 1472 565 1512 
Q 531 1553 531 1600 
Q 531 1647 565 1687 
Q 600 1728 653 1728 
L 4325 1728 
Q 4375 1728 4408 1687 
Q 4441 1647 4441 1600 
Q 4441 1553 4408 1512 
Q 4375 1472 4325 1472 
L 653 1472 
z
" transform="scale(0.015625)"/>
      <path id="Cmmi10-3d" d="M 359 -1472 
Q 359 -1453 366 -1447 
L 2591 4722 
Q 2603 4759 2634 4779 
Q 2666 4800 2706 4800 
Q 2763 4800 2798 4765 
Q 2834 4731 2834 4672 
L 2834 4647 
L 609 -1522 
Q 572 -1600 488 -1600 
Q 434 -1600 396 -1562 
Q 359 -1525 359 -1472 
z
" transform="scale(0.015625)"/>
      <path id="DejaVuSerif-77" d="M 3072 3322 
L 3922 728 
L 4672 2988 
L 4191 2988 
L 4191 3322 
L 5394 3322 
L 5394 2988 
L 5025 2988 
L 4038 0 
L 3559 0 
L 2741 2484 
L 1919 0 
L 1459 0 
L 475 2988 
L 103 2988 
L 103 3322 
L 1606 3322 
L 1606 2988 
L 1069 2988 
L 1813 728 
L 2669 3322 
L 3072 3322 
z
" transform="scale(0.015625)"/>
     </defs>
     <use xlink:href="#DejaVuSerif-4f" transform="translate(0 0.015625)"/>
     <use xlink:href="#DejaVuSerif-75" transform="translate(81.982422 0.015625)"/>
     <use xlink:href="#DejaVuSerif-72" transform="translate(146.386719 0.015625)"/>
     <use xlink:href="#DejaVuSerif-6f" transform="translate(194.189453 0.015625)"/>
     <use xlink:href="#DejaVuSerif-62" transform="translate(254.394531 0.015625)"/>
     <use xlink:href="#DejaVuSerif-6f" transform="translate(318.408203 0.015625)"/>
     <use xlink:href="#DejaVuSerif-72" transform="translate(378.613281 0.015625)"/>
     <use xlink:href="#DejaVuSerif-6f" transform="translate(426.416016 0.015625)"/>
     <use xlink:href="#DejaVuSerif-73" transform="translate(486.621094 0.015625)"/>
     <use xlink:href="#DejaVuSerif-20" transform="translate(537.939453 0.015625)"/>
     <use xlink:href="#DejaVuSerif-6f" transform="translate(569.726562 0.015625)"/>
     <use xlink:href="#DejaVuSerif-66" transform="translate(629.931641 0.015625)"/>
     <use xlink:href="#DejaVuSerif-20" transform="translate(666.943359 0.015625)"/>
     <use xlink:href="#DejaVuSerif-74" transform="translate(698.730469 0.015625)"/>
     <use xlink:href="#DejaVuSerif-68" transform="translate(738.916016 0.015625)"/>
     <use xlink:href="#DejaVuSerif-65" transform="translate(803.320312 0.015625)"/>
     <use xlink:href="#DejaVuSerif-20" transform="translate(862.5 0.015625)"/>
     <use xlink:href="#DejaVuSerif-67" transform="translate(894.287109 0.015625)"/>
     <use xlink:href="#DejaVuSerif-61" transform="translate(958.300781 0.015625)"/>
     <use xlink:href="#DejaVuSerif-70" transform="translate(1017.919922 0.015625)"/>
     <use xlink:href="#DejaVuSerif-3a" transform="translate(1081.933594 0.015625)"/>
     <use xlink:href="#DejaVuSerif-20" transform="translate(1115.625 0.015625)"/>
     <use xlink:href="#DejaVuSerif-20" transform="translate(1147.412109 0.015625)"/>
     <use xlink:href="#Cmmi10-47" transform="translate(1179.199219 0.015625)"/>
     <use xlink:href="#Cmr10-32" transform="translate(1257.8125 -16.990625) scale(0.7)"/>
     <use xlink:href="#Cmr10-28" transform="translate(1299.189844 0.015625)"/>
     <use xlink:href="#Cmmi10-4b" transform="translate(1338.008203 0.015625)"/>
     <use xlink:href="#Cmr10-29" transform="translate(1422.920312 0.015625)"/>
     <use xlink:href="#Cmr10-3d" transform="translate(1479.297266 0.015625)"/>
     <use xlink:href="#Cmr10-31" transform="translate(1574.541406 0.015625)"/>
     <use xlink:href="#Cmsy10-a1" transform="translate(1642.1 0.015625)"/>
     <use xlink:href="#Cmr10-31" transform="translate(1737.344141 0.015625)"/>
     <use xlink:href="#Cmmi10-3d" transform="translate(1787.344141 0.015625)"/>
     <use xlink:href="#Cmmi10-4b" transform="translate(1837.344141 0.015625)"/>
     <use xlink:href="#DejaVuSerif-20" transform="translate(1922.25625 0.015625)"/>
     <use xlink:href="#DejaVuSerif-65" transform="translate(1954.043359 0.015625)"/>
     <use xlink:href="#DejaVuSerif-61" transform="translate(2013.223047 0.015625)"/>
     <use xlink:href="#DejaVuSerif-74" transform="translate(2072.842187 0.015625)"/>
     <use xlink:href="#DejaVuSerif-73" transform="translate(2113.027734 0.015625)"/>
     <use xlink:href="#DejaVuSerif-20" transform="translate(2164.346094 0.015625)"/>
     <use xlink:href="#DejaVuSerif-74" transform="translate(2196.133203 0.015625)"/>
     <use xlink:href="#DejaVuSerif-6f" transform="translate(2236.31875 0.015625)"/>
     <use xlink:href="#DejaVuSerif-77" transform="translate(2296.523828 0.015625)"/>
     <use xlink:href="#DejaVuSerif-61" transform="translate(2382.119531 0.015625)"/>
     <use xlink:href="#DejaVuSerif-72" transform="translate(2441.738672 0.015625)"/>
     <use xlink:href="#DejaVuSerif-64" transform="translate(2489.541406 0.015625)"/>
     <use xlink:href="#DejaVuSerif-20" transform="translate(2553.555078 0.015625)"/>
     <use xlink:href="#Cmr10-31" transform="translate(2585.342187 0.015625)"/>
    </g>
   </g>
   <g id="line2d_26">
    <path d="M 87.499224 208.227273 
L 89.020348 199.996064 
L 90.541471 192.615721 
L 92.062594 185.960797 
L 93.583718 179.929348 
L 95.104841 174.437679 
L 96.625965 169.416432 
L 98.147088 164.807645 
L 101.189335 156.639596 
L 104.231582 149.624094 
L 107.273828 143.533271 
L 110.316075 138.195615 
L 113.358322 133.479559 
L 116.400569 129.282494 
L 119.442815 125.523219 
L 122.485062 122.136631 
L 125.527309 119.069926 
L 128.569556 116.279825 
L 131.611803 113.730521 
L 134.654049 111.392131 
L 139.21742 108.226097 
L 143.78079 105.409593 
L 148.34416 102.887766 
L 152.90753 100.616667 
L 157.4709 98.560676 
L 163.555394 96.104282 
L 169.639887 93.923316 
L 175.724381 91.973912 
L 183.329998 89.810105 
L 190.935615 87.899827 
L 198.541232 86.200984 
L 207.667972 84.39512 
L 216.794713 82.800989 
L 227.442576 81.162278 
L 239.611564 79.528857 
L 253.301674 77.938506 
L 268.512908 76.417687 
L 285.245265 74.983209 
L 303.498746 73.644196 
L 324.794474 72.316322 
L 349.132448 71.039194 
L 376.512669 69.83802 
L 406.935137 68.72646 
L 443.442098 67.62609 
L 484.51243 66.61499 
L 533.188378 65.644465 
L 590.991067 64.723559 
L 659.44162 63.863128 
L 694.427458 63.495179 
L 694.427458 63.495179 
" clip-path="url(#p383c65735f)" style="fill: none; stroke: #f2f2f2; stroke-width: 2.2; stroke-linecap: square"/>
   </g>
   <g id="PathCollection_1">
    <defs>
     <path id="m7f57b3096e" d="M 0 3.24037 
C 0.859356 3.24037 1.683631 2.898944 2.291288 2.291288 
C 2.898944 1.683631 3.24037 0.859356 3.24037 0 
C 3.24037 -0.859356 2.898944 -1.683631 2.291288 -2.291288 
C 1.683631 -2.898944 0.859356 -3.24037 0 -3.24037 
C -0.859356 -3.24037 -1.683631 -2.898944 -2.291288 -2.291288 
C -2.898944 -1.683631 -3.24037 -0.859356 -3.24037 0 
C -3.24037 0.859356 -2.898944 1.683631 -2.291288 2.291288 
C -1.683631 2.898944 -0.859356 3.24037 0 3.24037 
z
" style="stroke: #000000; stroke-width: 0.7"/>
    </defs>
    <g clip-path="url(#p383c65735f)">
     <use xlink:href="#m7f57b3096e" x="87.499224" y="208.227273" style="fill: #cfb991; stroke: #000000; stroke-width: 0.7"/>
    </g>
   </g>
   <g id="PathCollection_2">
    <g clip-path="url(#p383c65735f)">
     <use xlink:href="#m7f57b3096e" x="219.440145" y="82.373278" style="fill: #cfb991; stroke: #000000; stroke-width: 0.7"/>
    </g>
   </g>
   <g id="PathCollection_3">
    <g clip-path="url(#p383c65735f)">
     <use xlink:href="#m7f57b3096e" x="694.427458" y="63.495179" style="fill: #cfb991; stroke: #000000; stroke-width: 0.7"/>
    </g>
   </g>
   <g id="text_17">
    <g id="patch_7">
     <path d="M 162.388776 129.904092 
L 200.008776 129.904092 
L 200.008776 112.159873 
L 162.388776 112.159873 
z
" style="stroke: #d0d0d0; stroke-width: 0.9; stroke-linejoin: miter"/>
    </g>
    <!-- $G_2\to 1$ -->
    <g style="fill: #f2f2f2" transform="translate(166.663776 123.653388) scale(0.095 -0.095)">
     <defs>
      <path id="Cmsy10-21" d="M 481 1472 
Q 428 1472 393 1512 
Q 359 1553 359 1600 
Q 359 1647 393 1687 
Q 428 1728 481 1728 
L 5338 1728 
Q 5094 1903 4906 2133 
Q 4719 2363 4594 2627 
Q 4469 2891 4416 3188 
Q 4416 3272 4481 3272 
L 4609 3272 
Q 4631 3272 4648 3253 
Q 4666 3234 4672 3213 
Q 4725 2938 4839 2702 
Q 4953 2466 5125 2262 
Q 5297 2059 5509 1912 
Q 5722 1766 5991 1672 
Q 6034 1644 6034 1600 
Q 6034 1550 5991 1538 
Q 5656 1422 5378 1192 
Q 5100 963 4919 652 
Q 4738 341 4672 -13 
Q 4666 -34 4647 -53 
Q 4628 -72 4609 -72 
L 4481 -72 
Q 4416 -72 4416 13 
Q 4497 450 4740 836 
Q 4984 1222 5338 1472 
L 481 1472 
z
" transform="scale(0.015625)"/>
     </defs>
     <use xlink:href="#Cmmi10-47" transform="translate(0 0.484375)"/>
     <use xlink:href="#Cmr10-32" transform="translate(78.613281 -16.521875) scale(0.7)"/>
     <use xlink:href="#Cmsy10-21" transform="translate(137.549219 0.484375)"/>
     <use xlink:href="#Cmr10-31" transform="translate(255.107812 0.484375)"/>
    </g>
   </g>
  </g>
 </g>
 <defs>
  <clipPath id="p383c65735f">
   <rect x="57.152813" y="42.1" width="667.621057" height="332.254545"/>
  </clipPath>
 </defs>
</svg>
