<?xml version="1.0" encoding="utf-8" standalone="no"?>
<!DOCTYPE svg PUBLIC "-//W3C//DTD SVG 1.1//EN"
  "http://www.w3.org/Graphics/SVG/1.1/DTD/svg11.dtd">
<svg xmlns:xlink="http://www.w3.org/1999/xlink" width="676.8pt" height="309.577969pt" viewBox="0 0 676.8 309.577969" xmlns="http://www.w3.org/2000/svg" version="1.1">
 <metadata>
  <rdf:RDF xmlns:dc="http://purl.org/dc/elements/1.1/" xmlns:cc="http://creativecommons.org/ns#" xmlns:rdf="http://www.w3.org/1999/02/22-rdf-syntax-ns#">
   <cc:Work>
    <dc:type rdf:resource="http://purl.org/dc/dcmitype/StillImage"/>
    <dc:date>2026-07-12T13:58:45.074361</dc:date>
    <dc:format>image/svg+xml</dc:format>
    <dc:creator>
     <cc:Agent>
      <dc:title>Matplotlib v3.10.9, https://matplotlib.org/</dc:title>
     </cc:Agent>
    </dc:creator>
   </cc:Work>
  </rdf:RDF>
 </metadata>
 <defs>
  <style type="text/css">*{stroke-linejoin: round; stroke-linecap: butt}</style>
 </defs>
 <g id="figure_1">
  <g id="patch_1">
   <path d="M 0 309.577969 
L 676.8 309.577969 
L 676.8 0 
L 0 0 
z
" style="fill: #ffffff"/>
  </g>
  <g id="axes_1">
   <g id="patch_2">
    <path d="M 35.6832 161.331469 
L 641.1168 161.331469 
Q 654.3648 161.331469 654.3648 152.021469 
L 654.3648 50.076969 
Q 654.3648 40.766969 641.1168 40.766969 
L 35.6832 40.766969 
Q 22.4352 40.766969 22.4352 50.076969 
L 22.4352 152.021469 
Q 22.4352 161.331469 35.6832 161.331469 
z
" clip-path="url(#pc58d8ba2bc)" style="fill: #cfb991; stroke: #000000; stroke-width: 1.8; stroke-linejoin: miter"/>
   </g>
   <g id="patch_3">
    <path d="M 43.632 286.085469 
L 222.48 286.085469 
Q 232.416 286.085469 232.416 279.102969 
L 232.416 176.692969 
Q 232.416 169.710469 222.48 169.710469 
L 43.632 169.710469 
Q 33.696 169.710469 33.696 176.692969 
L 33.696 279.102969 
Q 33.696 286.085469 43.632 286.085469 
z
" clip-path="url(#pc58d8ba2bc)" style="stroke: #8e6f3e; stroke-width: 1.5; stroke-linejoin: miter"/>
   </g>
   <g id="patch_4">
    <path d="M 242.352 286.085469 
L 421.2 286.085469 
Q 431.136 286.085469 431.136 279.102969 
L 431.136 176.692969 
Q 431.136 169.710469 421.2 169.710469 
L 242.352 169.710469 
Q 232.416 169.710469 232.416 176.692969 
L 232.416 279.102969 
Q 232.416 286.085469 242.352 286.085469 
z
" clip-path="url(#pc58d8ba2bc)" style="fill: #8e6f3e; stroke: #8e6f3e; stroke-width: 1.5; stroke-linejoin: miter"/>
   </g>
   <g id="patch_5">
    <path d="M 441.072 286.085469 
L 619.92 286.085469 
Q 629.856 286.085469 629.856 279.102969 
L 629.856 176.692969 
Q 629.856 169.710469 619.92 169.710469 
L 441.072 169.710469 
Q 431.136 169.710469 431.136 176.692969 
L 431.136 279.102969 
Q 431.136 286.085469 441.072 286.085469 
z
" clip-path="url(#pc58d8ba2bc)" style="stroke: #8e6f3e; stroke-width: 1.5; stroke-linejoin: miter"/>
   </g>
   <g id="text_1">
    <!-- blown_score  =  1 - product(1 - w_severity) -->
    <g transform="translate(181.918594 83.592969) scale(0.13 -0.13)">
     <defs>
      <path id="DejaVuSans-Bold-62" d="M 2400 722 
Q 2759 722 2948 984 
Q 3138 1247 3138 1747 
Q 3138 2247 2948 2509 
Q 2759 2772 2400 2772 
Q 2041 2772 1848 2508 
Q 1656 2244 1656 1747 
Q 1656 1250 1848 986 
Q 2041 722 2400 722 
z
M 1656 2988 
Q 1888 3294 2169 3439 
Q 2450 3584 2816 3584 
Q 3463 3584 3878 3070 
Q 4294 2556 4294 1747 
Q 4294 938 3878 423 
Q 3463 -91 2816 -91 
Q 2450 -91 2169 54 
Q 1888 200 1656 506 
L 1656 0 
L 538 0 
L 538 4863 
L 1656 4863 
L 1656 2988 
z
" transform="scale(0.015625)"/>
      <path id="DejaVuSans-Bold-6c" d="M 538 4863 
L 1656 4863 
L 1656 0 
L 538 0 
L 538 4863 
z
" transform="scale(0.015625)"/>
      <path id="DejaVuSans-Bold-6f" d="M 2203 2784 
Q 1831 2784 1636 2517 
Q 1441 2250 1441 1747 
Q 1441 1244 1636 976 
Q 1831 709 2203 709 
Q 2569 709 2762 976 
Q 2956 1244 2956 1747 
Q 2956 2250 2762 2517 
Q 2569 2784 2203 2784 
z
M 2203 3584 
Q 3106 3584 3614 3096 
Q 4122 2609 4122 1747 
Q 4122 884 3614 396 
Q 3106 -91 2203 -91 
Q 1297 -91 786 396 
Q 275 884 275 1747 
Q 275 2609 786 3096 
Q 1297 3584 2203 3584 
z
" transform="scale(0.015625)"/>
      <path id="DejaVuSans-Bold-77" d="M 225 3500 
L 1313 3500 
L 1900 1088 
L 2491 3500 
L 3425 3500 
L 4013 1113 
L 4603 3500 
L 5691 3500 
L 4769 0 
L 3547 0 
L 2956 2406 
L 2369 0 
L 1147 0 
L 225 3500 
z
" transform="scale(0.015625)"/>
      <path id="DejaVuSans-Bold-6e" d="M 4056 2131 
L 4056 0 
L 2931 0 
L 2931 347 
L 2931 1631 
Q 2931 2084 2911 2256 
Q 2891 2428 2841 2509 
Q 2775 2619 2662 2680 
Q 2550 2741 2406 2741 
Q 2056 2741 1856 2470 
Q 1656 2200 1656 1722 
L 1656 0 
L 538 0 
L 538 3500 
L 1656 3500 
L 1656 2988 
Q 1909 3294 2193 3439 
Q 2478 3584 2822 3584 
Q 3428 3584 3742 3212 
Q 4056 2841 4056 2131 
z
" transform="scale(0.015625)"/>
      <path id="DejaVuSans-Bold-5f" d="M 3200 -916 
L 3200 -1509 
L 0 -1509 
L 0 -916 
L 3200 -916 
z
" transform="scale(0.015625)"/>
      <path id="DejaVuSans-Bold-73" d="M 3272 3391 
L 3272 2541 
Q 2913 2691 2578 2766 
Q 2244 2841 1947 2841 
Q 1628 2841 1473 2761 
Q 1319 2681 1319 2516 
Q 1319 2381 1436 2309 
Q 1553 2238 1856 2203 
L 2053 2175 
Q 2913 2066 3209 1816 
Q 3506 1566 3506 1031 
Q 3506 472 3093 190 
Q 2681 -91 1863 -91 
Q 1516 -91 1145 -36 
Q 775 19 384 128 
L 384 978 
Q 719 816 1070 734 
Q 1422 653 1784 653 
Q 2113 653 2278 743 
Q 2444 834 2444 1013 
Q 2444 1163 2330 1236 
Q 2216 1309 1875 1350 
L 1678 1375 
Q 931 1469 631 1722 
Q 331 1975 331 2491 
Q 331 3047 712 3315 
Q 1094 3584 1881 3584 
Q 2191 3584 2531 3537 
Q 2872 3491 3272 3391 
z
" transform="scale(0.015625)"/>
      <path id="DejaVuSans-Bold-63" d="M 3366 3391 
L 3366 2478 
Q 3138 2634 2908 2709 
Q 2678 2784 2431 2784 
Q 1963 2784 1702 2511 
Q 1441 2238 1441 1747 
Q 1441 1256 1702 982 
Q 1963 709 2431 709 
Q 2694 709 2930 787 
Q 3166 866 3366 1019 
L 3366 103 
Q 3103 6 2833 -42 
Q 2563 -91 2291 -91 
Q 1344 -91 809 395 
Q 275 881 275 1747 
Q 275 2613 809 3098 
Q 1344 3584 2291 3584 
Q 2566 3584 2833 3536 
Q 3100 3488 3366 3391 
z
" transform="scale(0.015625)"/>
      <path id="DejaVuSans-Bold-72" d="M 3138 2547 
Q 2991 2616 2845 2648 
Q 2700 2681 2553 2681 
Q 2122 2681 1889 2404 
Q 1656 2128 1656 1613 
L 1656 0 
L 538 0 
L 538 3500 
L 1656 3500 
L 1656 2925 
Q 1872 3269 2151 3426 
Q 2431 3584 2822 3584 
Q 2878 3584 2943 3579 
Q 3009 3575 3134 3559 
L 3138 2547 
z
" transform="scale(0.015625)"/>
      <path id="DejaVuSans-Bold-65" d="M 4031 1759 
L 4031 1441 
L 1416 1441 
Q 1456 1047 1700 850 
Q 1944 653 2381 653 
Q 2734 653 3104 758 
Q 3475 863 3866 1075 
L 3866 213 
Q 3469 63 3072 -14 
Q 2675 -91 2278 -91 
Q 1328 -91 801 392 
Q 275 875 275 1747 
Q 275 2603 792 3093 
Q 1309 3584 2216 3584 
Q 3041 3584 3536 3087 
Q 4031 2591 4031 1759 
z
M 2881 2131 
Q 2881 2450 2695 2645 
Q 2509 2841 2209 2841 
Q 1884 2841 1681 2658 
Q 1478 2475 1428 2131 
L 2881 2131 
z
" transform="scale(0.015625)"/>
      <path id="DejaVuSans-Bold-20" transform="scale(0.015625)"/>
      <path id="DejaVuSans-Bold-3d" d="M 678 3084 
L 4684 3084 
L 4684 2350 
L 678 2350 
L 678 3084 
z
M 678 1663 
L 4684 1663 
L 4684 922 
L 678 922 
L 678 1663 
z
" transform="scale(0.015625)"/>
      <path id="DejaVuSans-Bold-31" d="M 750 831 
L 1813 831 
L 1813 3847 
L 722 3622 
L 722 4441 
L 1806 4666 
L 2950 4666 
L 2950 831 
L 4013 831 
L 4013 0 
L 750 0 
L 750 831 
z
" transform="scale(0.015625)"/>
      <path id="DejaVuSans-Bold-2d" d="M 347 2297 
L 2309 2297 
L 2309 1388 
L 347 1388 
L 347 2297 
z
" transform="scale(0.015625)"/>
      <path id="DejaVuSans-Bold-70" d="M 1656 506 
L 1656 -1331 
L 538 -1331 
L 538 3500 
L 1656 3500 
L 1656 2988 
Q 1888 3294 2169 3439 
Q 2450 3584 2816 3584 
Q 3463 3584 3878 3070 
Q 4294 2556 4294 1747 
Q 4294 938 3878 423 
Q 3463 -91 2816 -91 
Q 2450 -91 2169 54 
Q 1888 200 1656 506 
z
M 2400 2772 
Q 2041 2772 1848 2508 
Q 1656 2244 1656 1747 
Q 1656 1250 1848 986 
Q 2041 722 2400 722 
Q 2759 722 2948 984 
Q 3138 1247 3138 1747 
Q 3138 2247 2948 2509 
Q 2759 2772 2400 2772 
z
" transform="scale(0.015625)"/>
      <path id="DejaVuSans-Bold-64" d="M 2919 2988 
L 2919 4863 
L 4044 4863 
L 4044 0 
L 2919 0 
L 2919 506 
Q 2688 197 2409 53 
Q 2131 -91 1766 -91 
Q 1119 -91 703 423 
Q 288 938 288 1747 
Q 288 2556 703 3070 
Q 1119 3584 1766 3584 
Q 2128 3584 2408 3439 
Q 2688 3294 2919 2988 
z
M 2181 722 
Q 2541 722 2730 984 
Q 2919 1247 2919 1747 
Q 2919 2247 2730 2509 
Q 2541 2772 2181 2772 
Q 1825 2772 1636 2509 
Q 1447 2247 1447 1747 
Q 1447 1247 1636 984 
Q 1825 722 2181 722 
z
" transform="scale(0.015625)"/>
      <path id="DejaVuSans-Bold-75" d="M 500 1363 
L 500 3500 
L 1625 3500 
L 1625 3150 
Q 1625 2866 1622 2436 
Q 1619 2006 1619 1863 
Q 1619 1441 1641 1255 
Q 1663 1069 1716 984 
Q 1784 875 1895 815 
Q 2006 756 2150 756 
Q 2500 756 2700 1025 
Q 2900 1294 2900 1772 
L 2900 3500 
L 4019 3500 
L 4019 0 
L 2900 0 
L 2900 506 
Q 2647 200 2364 54 
Q 2081 -91 1741 -91 
Q 1134 -91 817 281 
Q 500 653 500 1363 
z
" transform="scale(0.015625)"/>
      <path id="DejaVuSans-Bold-74" d="M 1759 4494 
L 1759 3500 
L 2913 3500 
L 2913 2700 
L 1759 2700 
L 1759 1216 
Q 1759 972 1856 886 
Q 1953 800 2241 800 
L 2816 800 
L 2816 0 
L 1856 0 
Q 1194 0 917 276 
Q 641 553 641 1216 
L 641 2700 
L 84 2700 
L 84 3500 
L 641 3500 
L 641 4494 
L 1759 4494 
z
" transform="scale(0.015625)"/>
      <path id="DejaVuSans-Bold-28" d="M 2413 -844 
L 1484 -844 
Q 1006 -72 778 623 
Q 550 1319 550 2003 
Q 550 2688 779 3389 
Q 1009 4091 1484 4856 
L 2413 4856 
Q 2013 4116 1813 3408 
Q 1613 2700 1613 2009 
Q 1613 1319 1811 609 
Q 2009 -100 2413 -844 
z
" transform="scale(0.015625)"/>
      <path id="DejaVuSans-Bold-76" d="M 97 3500 
L 1216 3500 
L 2088 1081 
L 2956 3500 
L 4078 3500 
L 2700 0 
L 1472 0 
L 97 3500 
z
" transform="scale(0.015625)"/>
      <path id="DejaVuSans-Bold-69" d="M 538 3500 
L 1656 3500 
L 1656 0 
L 538 0 
L 538 3500 
z
M 538 4863 
L 1656 4863 
L 1656 3950 
L 538 3950 
L 538 4863 
z
" transform="scale(0.015625)"/>
      <path id="DejaVuSans-Bold-79" d="M 78 3500 
L 1197 3500 
L 2138 1125 
L 2938 3500 
L 4056 3500 
L 2584 -331 
Q 2363 -916 2067 -1148 
Q 1772 -1381 1288 -1381 
L 641 -1381 
L 641 -647 
L 991 -647 
Q 1275 -647 1404 -556 
Q 1534 -466 1606 -231 
L 1638 -134 
L 78 3500 
z
" transform="scale(0.015625)"/>
      <path id="DejaVuSans-Bold-29" d="M 513 -844 
Q 913 -100 1113 609 
Q 1313 1319 1313 2009 
Q 1313 2700 1113 3408 
Q 913 4116 513 4856 
L 1441 4856 
Q 1916 4091 2145 3389 
Q 2375 2688 2375 2003 
Q 2375 1319 2147 623 
Q 1919 -72 1441 -844 
L 513 -844 
z
" transform="scale(0.015625)"/>
     </defs>
     <use xlink:href="#DejaVuSans-Bold-62"/>
     <use xlink:href="#DejaVuSans-Bold-6c" transform="translate(71.582031 0)"/>
     <use xlink:href="#DejaVuSans-Bold-6f" transform="translate(105.859375 0)"/>
     <use xlink:href="#DejaVuSans-Bold-77" transform="translate(174.560547 0)"/>
     <use xlink:href="#DejaVuSans-Bold-6e" transform="translate(266.943359 0)"/>
     <use xlink:href="#DejaVuSans-Bold-5f" transform="translate(338.134766 0)"/>
     <use xlink:href="#DejaVuSans-Bold-73" transform="translate(388.134766 0)"/>
     <use xlink:href="#DejaVuSans-Bold-63" transform="translate(447.65625 0)"/>
     <use xlink:href="#DejaVuSans-Bold-6f" transform="translate(506.933594 0)"/>
     <use xlink:href="#DejaVuSans-Bold-72" transform="translate(575.634766 0)"/>
     <use xlink:href="#DejaVuSans-Bold-65" transform="translate(624.951172 0)"/>
     <use xlink:href="#DejaVuSans-Bold-20" transform="translate(692.773438 0)"/>
     <use xlink:href="#DejaVuSans-Bold-20" transform="translate(727.587891 0)"/>
     <use xlink:href="#DejaVuSans-Bold-3d" transform="translate(762.402344 0)"/>
     <use xlink:href="#DejaVuSans-Bold-20" transform="translate(846.191406 0)"/>
     <use xlink:href="#DejaVuSans-Bold-20" transform="translate(881.005859 0)"/>
     <use xlink:href="#DejaVuSans-Bold-31" transform="translate(915.820312 0)"/>
     <use xlink:href="#DejaVuSans-Bold-20" transform="translate(985.400391 0)"/>
     <use xlink:href="#DejaVuSans-Bold-2d" transform="translate(1020.214844 0)"/>
     <use xlink:href="#DejaVuSans-Bold-20" transform="translate(1061.71875 0)"/>
     <use xlink:href="#DejaVuSans-Bold-70" transform="translate(1096.533203 0)"/>
     <use xlink:href="#DejaVuSans-Bold-72" transform="translate(1168.115234 0)"/>
     <use xlink:href="#DejaVuSans-Bold-6f" transform="translate(1217.431641 0)"/>
     <use xlink:href="#DejaVuSans-Bold-64" transform="translate(1286.132812 0)"/>
     <use xlink:href="#DejaVuSans-Bold-75" transform="translate(1357.714844 0)"/>
     <use xlink:href="#DejaVuSans-Bold-63" transform="translate(1428.90625 0)"/>
     <use xlink:href="#DejaVuSans-Bold-74" transform="translate(1488.183594 0)"/>
     <use xlink:href="#DejaVuSans-Bold-28" transform="translate(1535.986328 0)"/>
     <use xlink:href="#DejaVuSans-Bold-31" transform="translate(1581.689453 0)"/>
     <use xlink:href="#DejaVuSans-Bold-20" transform="translate(1651.269531 0)"/>
     <use xlink:href="#DejaVuSans-Bold-2d" transform="translate(1686.083984 0)"/>
     <use xlink:href="#DejaVuSans-Bold-20" transform="translate(1727.587891 0)"/>
     <use xlink:href="#DejaVuSans-Bold-77" transform="translate(1762.402344 0)"/>
     <use xlink:href="#DejaVuSans-Bold-5f" transform="translate(1854.785156 0)"/>
     <use xlink:href="#DejaVuSans-Bold-73" transform="translate(1904.785156 0)"/>
     <use xlink:href="#DejaVuSans-Bold-65" transform="translate(1964.306641 0)"/>
     <use xlink:href="#DejaVuSans-Bold-76" transform="translate(2032.128906 0)"/>
     <use xlink:href="#DejaVuSans-Bold-65" transform="translate(2097.314453 0)"/>
     <use xlink:href="#DejaVuSans-Bold-72" transform="translate(2165.136719 0)"/>
     <use xlink:href="#DejaVuSans-Bold-69" transform="translate(2214.453125 0)"/>
     <use xlink:href="#DejaVuSans-Bold-74" transform="translate(2248.730469 0)"/>
     <use xlink:href="#DejaVuSans-Bold-79" transform="translate(2296.533203 0)"/>
     <use xlink:href="#DejaVuSans-Bold-29" transform="translate(2361.71875 0)"/>
    </g>
   </g>
   <g id="text_2">
    <!-- refused  =  (any BAD finding)   OR   (score &gt;= 0.6) -->
    <g transform="translate(185.597812 123.160469) scale(0.12 -0.12)">
     <defs>
      <path id="DejaVuSans-72" d="M 2631 2963 
Q 2534 3019 2420 3045 
Q 2306 3072 2169 3072 
Q 1681 3072 1420 2755 
Q 1159 2438 1159 1844 
L 1159 0 
L 581 0 
L 581 3500 
L 1159 3500 
L 1159 2956 
Q 1341 3275 1631 3429 
Q 1922 3584 2338 3584 
Q 2397 3584 2469 3576 
Q 2541 3569 2628 3553 
L 2631 2963 
z
" transform="scale(0.015625)"/>
      <path id="DejaVuSans-65" d="M 3597 1894 
L 3597 1613 
L 953 1613 
Q 991 1019 1311 708 
Q 1631 397 2203 397 
Q 2534 397 2845 478 
Q 3156 559 3463 722 
L 3463 178 
Q 3153 47 2828 -22 
Q 2503 -91 2169 -91 
Q 1331 -91 842 396 
Q 353 884 353 1716 
Q 353 2575 817 3079 
Q 1281 3584 2069 3584 
Q 2775 3584 3186 3129 
Q 3597 2675 3597 1894 
z
M 3022 2063 
Q 3016 2534 2758 2815 
Q 2500 3097 2075 3097 
Q 1594 3097 1305 2825 
Q 1016 2553 972 2059 
L 3022 2063 
z
" transform="scale(0.015625)"/>
      <path id="DejaVuSans-66" d="M 2375 4863 
L 2375 4384 
L 1825 4384 
Q 1516 4384 1395 4259 
Q 1275 4134 1275 3809 
L 1275 3500 
L 2222 3500 
L 2222 3053 
L 1275 3053 
L 1275 0 
L 697 0 
L 697 3053 
L 147 3053 
L 147 3500 
L 697 3500 
L 697 3744 
Q 697 4328 969 4595 
Q 1241 4863 1831 4863 
L 2375 4863 
z
" transform="scale(0.015625)"/>
      <path id="DejaVuSans-75" d="M 544 1381 
L 544 3500 
L 1119 3500 
L 1119 1403 
Q 1119 906 1312 657 
Q 1506 409 1894 409 
Q 2359 409 2629 706 
Q 2900 1003 2900 1516 
L 2900 3500 
L 3475 3500 
L 3475 0 
L 2900 0 
L 2900 538 
Q 2691 219 2414 64 
Q 2138 -91 1772 -91 
Q 1169 -91 856 284 
Q 544 659 544 1381 
z
M 1991 3584 
L 1991 3584 
z
" transform="scale(0.015625)"/>
      <path id="DejaVuSans-73" d="M 2834 3397 
L 2834 2853 
Q 2591 2978 2328 3040 
Q 2066 3103 1784 3103 
Q 1356 3103 1142 2972 
Q 928 2841 928 2578 
Q 928 2378 1081 2264 
Q 1234 2150 1697 2047 
L 1894 2003 
Q 2506 1872 2764 1633 
Q 3022 1394 3022 966 
Q 3022 478 2636 193 
Q 2250 -91 1575 -91 
Q 1294 -91 989 -36 
Q 684 19 347 128 
L 347 722 
Q 666 556 975 473 
Q 1284 391 1588 391 
Q 1994 391 2212 530 
Q 2431 669 2431 922 
Q 2431 1156 2273 1281 
Q 2116 1406 1581 1522 
L 1381 1569 
Q 847 1681 609 1914 
Q 372 2147 372 2553 
Q 372 3047 722 3315 
Q 1072 3584 1716 3584 
Q 2034 3584 2315 3537 
Q 2597 3491 2834 3397 
z
" transform="scale(0.015625)"/>
      <path id="DejaVuSans-64" d="M 2906 2969 
L 2906 4863 
L 3481 4863 
L 3481 0 
L 2906 0 
L 2906 525 
Q 2725 213 2448 61 
Q 2172 -91 1784 -91 
Q 1150 -91 751 415 
Q 353 922 353 1747 
Q 353 2572 751 3078 
Q 1150 3584 1784 3584 
Q 2172 3584 2448 3432 
Q 2725 3281 2906 2969 
z
M 947 1747 
Q 947 1113 1208 752 
Q 1469 391 1925 391 
Q 2381 391 2643 752 
Q 2906 1113 2906 1747 
Q 2906 2381 2643 2742 
Q 2381 3103 1925 3103 
Q 1469 3103 1208 2742 
Q 947 2381 947 1747 
z
" transform="scale(0.015625)"/>
      <path id="DejaVuSans-20" transform="scale(0.015625)"/>
      <path id="DejaVuSans-3d" d="M 678 2906 
L 4684 2906 
L 4684 2381 
L 678 2381 
L 678 2906 
z
M 678 1631 
L 4684 1631 
L 4684 1100 
L 678 1100 
L 678 1631 
z
" transform="scale(0.015625)"/>
      <path id="DejaVuSans-28" d="M 1984 4856 
Q 1566 4138 1362 3434 
Q 1159 2731 1159 2009 
Q 1159 1288 1364 580 
Q 1569 -128 1984 -844 
L 1484 -844 
Q 1016 -109 783 600 
Q 550 1309 550 2009 
Q 550 2706 781 3412 
Q 1013 4119 1484 4856 
L 1984 4856 
z
" transform="scale(0.015625)"/>
      <path id="DejaVuSans-61" d="M 2194 1759 
Q 1497 1759 1228 1600 
Q 959 1441 959 1056 
Q 959 750 1161 570 
Q 1363 391 1709 391 
Q 2188 391 2477 730 
Q 2766 1069 2766 1631 
L 2766 1759 
L 2194 1759 
z
M 3341 1997 
L 3341 0 
L 2766 0 
L 2766 531 
Q 2569 213 2275 61 
Q 1981 -91 1556 -91 
Q 1019 -91 701 211 
Q 384 513 384 1019 
Q 384 1609 779 1909 
Q 1175 2209 1959 2209 
L 2766 2209 
L 2766 2266 
Q 2766 2663 2505 2880 
Q 2244 3097 1772 3097 
Q 1472 3097 1187 3025 
Q 903 2953 641 2809 
L 641 3341 
Q 956 3463 1253 3523 
Q 1550 3584 1831 3584 
Q 2591 3584 2966 3190 
Q 3341 2797 3341 1997 
z
" transform="scale(0.015625)"/>
      <path id="DejaVuSans-6e" d="M 3513 2113 
L 3513 0 
L 2938 0 
L 2938 2094 
Q 2938 2591 2744 2837 
Q 2550 3084 2163 3084 
Q 1697 3084 1428 2787 
Q 1159 2491 1159 1978 
L 1159 0 
L 581 0 
L 581 3500 
L 1159 3500 
L 1159 2956 
Q 1366 3272 1645 3428 
Q 1925 3584 2291 3584 
Q 2894 3584 3203 3211 
Q 3513 2838 3513 2113 
z
" transform="scale(0.015625)"/>
      <path id="DejaVuSans-79" d="M 2059 -325 
Q 1816 -950 1584 -1140 
Q 1353 -1331 966 -1331 
L 506 -1331 
L 506 -850 
L 844 -850 
Q 1081 -850 1212 -737 
Q 1344 -625 1503 -206 
L 1606 56 
L 191 3500 
L 800 3500 
L 1894 763 
L 2988 3500 
L 3597 3500 
L 2059 -325 
z
" transform="scale(0.015625)"/>
      <path id="DejaVuSans-42" d="M 1259 2228 
L 1259 519 
L 2272 519 
Q 2781 519 3026 730 
Q 3272 941 3272 1375 
Q 3272 1813 3026 2020 
Q 2781 2228 2272 2228 
L 1259 2228 
z
M 1259 4147 
L 1259 2741 
L 2194 2741 
Q 2656 2741 2882 2914 
Q 3109 3088 3109 3444 
Q 3109 3797 2882 3972 
Q 2656 4147 2194 4147 
L 1259 4147 
z
M 628 4666 
L 2241 4666 
Q 2963 4666 3353 4366 
Q 3744 4066 3744 3513 
Q 3744 3084 3544 2831 
Q 3344 2578 2956 2516 
Q 3422 2416 3680 2098 
Q 3938 1781 3938 1306 
Q 3938 681 3513 340 
Q 3088 0 2303 0 
L 628 0 
L 628 4666 
z
" transform="scale(0.015625)"/>
      <path id="DejaVuSans-41" d="M 2188 4044 
L 1331 1722 
L 3047 1722 
L 2188 4044 
z
M 1831 4666 
L 2547 4666 
L 4325 0 
L 3669 0 
L 3244 1197 
L 1141 1197 
L 716 0 
L 50 0 
L 1831 4666 
z
" transform="scale(0.015625)"/>
      <path id="DejaVuSans-44" d="M 1259 4147 
L 1259 519 
L 2022 519 
Q 2988 519 3436 956 
Q 3884 1394 3884 2338 
Q 3884 3275 3436 3711 
Q 2988 4147 2022 4147 
L 1259 4147 
z
M 628 4666 
L 1925 4666 
Q 3281 4666 3915 4102 
Q 4550 3538 4550 2338 
Q 4550 1131 3912 565 
Q 3275 0 1925 0 
L 628 0 
L 628 4666 
z
" transform="scale(0.015625)"/>
      <path id="DejaVuSans-69" d="M 603 3500 
L 1178 3500 
L 1178 0 
L 603 0 
L 603 3500 
z
M 603 4863 
L 1178 4863 
L 1178 4134 
L 603 4134 
L 603 4863 
z
" transform="scale(0.015625)"/>
      <path id="DejaVuSans-67" d="M 2906 1791 
Q 2906 2416 2648 2759 
Q 2391 3103 1925 3103 
Q 1463 3103 1205 2759 
Q 947 2416 947 1791 
Q 947 1169 1205 825 
Q 1463 481 1925 481 
Q 2391 481 2648 825 
Q 2906 1169 2906 1791 
z
M 3481 434 
Q 3481 -459 3084 -895 
Q 2688 -1331 1869 -1331 
Q 1566 -1331 1297 -1286 
Q 1028 -1241 775 -1147 
L 775 -588 
Q 1028 -725 1275 -790 
Q 1522 -856 1778 -856 
Q 2344 -856 2625 -561 
Q 2906 -266 2906 331 
L 2906 616 
Q 2728 306 2450 153 
Q 2172 0 1784 0 
Q 1141 0 747 490 
Q 353 981 353 1791 
Q 353 2603 747 3093 
Q 1141 3584 1784 3584 
Q 2172 3584 2450 3431 
Q 2728 3278 2906 2969 
L 2906 3500 
L 3481 3500 
L 3481 434 
z
" transform="scale(0.015625)"/>
      <path id="DejaVuSans-29" d="M 513 4856 
L 1013 4856 
Q 1481 4119 1714 3412 
Q 1947 2706 1947 2009 
Q 1947 1309 1714 600 
Q 1481 -109 1013 -844 
L 513 -844 
Q 928 -128 1133 580 
Q 1338 1288 1338 2009 
Q 1338 2731 1133 3434 
Q 928 4138 513 4856 
z
" transform="scale(0.015625)"/>
      <path id="DejaVuSans-4f" d="M 2522 4238 
Q 1834 4238 1429 3725 
Q 1025 3213 1025 2328 
Q 1025 1447 1429 934 
Q 1834 422 2522 422 
Q 3209 422 3611 934 
Q 4013 1447 4013 2328 
Q 4013 3213 3611 3725 
Q 3209 4238 2522 4238 
z
M 2522 4750 
Q 3503 4750 4090 4092 
Q 4678 3434 4678 2328 
Q 4678 1225 4090 567 
Q 3503 -91 2522 -91 
Q 1538 -91 948 565 
Q 359 1222 359 2328 
Q 359 3434 948 4092 
Q 1538 4750 2522 4750 
z
" transform="scale(0.015625)"/>
      <path id="DejaVuSans-52" d="M 2841 2188 
Q 3044 2119 3236 1894 
Q 3428 1669 3622 1275 
L 4263 0 
L 3584 0 
L 2988 1197 
Q 2756 1666 2539 1819 
Q 2322 1972 1947 1972 
L 1259 1972 
L 1259 0 
L 628 0 
L 628 4666 
L 2053 4666 
Q 2853 4666 3247 4331 
Q 3641 3997 3641 3322 
Q 3641 2881 3436 2590 
Q 3231 2300 2841 2188 
z
M 1259 4147 
L 1259 2491 
L 2053 2491 
Q 2509 2491 2742 2702 
Q 2975 2913 2975 3322 
Q 2975 3731 2742 3939 
Q 2509 4147 2053 4147 
L 1259 4147 
z
" transform="scale(0.015625)"/>
      <path id="DejaVuSans-63" d="M 3122 3366 
L 3122 2828 
Q 2878 2963 2633 3030 
Q 2388 3097 2138 3097 
Q 1578 3097 1268 2742 
Q 959 2388 959 1747 
Q 959 1106 1268 751 
Q 1578 397 2138 397 
Q 2388 397 2633 464 
Q 2878 531 3122 666 
L 3122 134 
Q 2881 22 2623 -34 
Q 2366 -91 2075 -91 
Q 1284 -91 818 406 
Q 353 903 353 1747 
Q 353 2603 823 3093 
Q 1294 3584 2113 3584 
Q 2378 3584 2631 3529 
Q 2884 3475 3122 3366 
z
" transform="scale(0.015625)"/>
      <path id="DejaVuSans-6f" d="M 1959 3097 
Q 1497 3097 1228 2736 
Q 959 2375 959 1747 
Q 959 1119 1226 758 
Q 1494 397 1959 397 
Q 2419 397 2687 759 
Q 2956 1122 2956 1747 
Q 2956 2369 2687 2733 
Q 2419 3097 1959 3097 
z
M 1959 3584 
Q 2709 3584 3137 3096 
Q 3566 2609 3566 1747 
Q 3566 888 3137 398 
Q 2709 -91 1959 -91 
Q 1206 -91 779 398 
Q 353 888 353 1747 
Q 353 2609 779 3096 
Q 1206 3584 1959 3584 
z
" transform="scale(0.015625)"/>
      <path id="DejaVuSans-3e" d="M 678 3150 
L 678 3719 
L 4684 2266 
L 4684 1747 
L 678 294 
L 678 863 
L 3897 2003 
L 678 3150 
z
" transform="scale(0.015625)"/>
      <path id="DejaVuSans-30" d="M 2034 4250 
Q 1547 4250 1301 3770 
Q 1056 3291 1056 2328 
Q 1056 1369 1301 889 
Q 1547 409 2034 409 
Q 2525 409 2770 889 
Q 3016 1369 3016 2328 
Q 3016 3291 2770 3770 
Q 2525 4250 2034 4250 
z
M 2034 4750 
Q 2819 4750 3233 4129 
Q 3647 3509 3647 2328 
Q 3647 1150 3233 529 
Q 2819 -91 2034 -91 
Q 1250 -91 836 529 
Q 422 1150 422 2328 
Q 422 3509 836 4129 
Q 1250 4750 2034 4750 
z
" transform="scale(0.015625)"/>
      <path id="DejaVuSans-2e" d="M 684 794 
L 1344 794 
L 1344 0 
L 684 0 
L 684 794 
z
" transform="scale(0.015625)"/>
      <path id="DejaVuSans-36" d="M 2113 2584 
Q 1688 2584 1439 2293 
Q 1191 2003 1191 1497 
Q 1191 994 1439 701 
Q 1688 409 2113 409 
Q 2538 409 2786 701 
Q 3034 994 3034 1497 
Q 3034 2003 2786 2293 
Q 2538 2584 2113 2584 
z
M 3366 4563 
L 3366 3988 
Q 3128 4100 2886 4159 
Q 2644 4219 2406 4219 
Q 1781 4219 1451 3797 
Q 1122 3375 1075 2522 
Q 1259 2794 1537 2939 
Q 1816 3084 2150 3084 
Q 2853 3084 3261 2657 
Q 3669 2231 3669 1497 
Q 3669 778 3244 343 
Q 2819 -91 2113 -91 
Q 1303 -91 875 529 
Q 447 1150 447 2328 
Q 447 3434 972 4092 
Q 1497 4750 2381 4750 
Q 2619 4750 2861 4703 
Q 3103 4656 3366 4563 
z
" transform="scale(0.015625)"/>
     </defs>
     <use xlink:href="#DejaVuSans-72"/>
     <use xlink:href="#DejaVuSans-65" transform="translate(38.863281 0)"/>
     <use xlink:href="#DejaVuSans-66" transform="translate(100.386719 0)"/>
     <use xlink:href="#DejaVuSans-75" transform="translate(135.591797 0)"/>
     <use xlink:href="#DejaVuSans-73" transform="translate(198.970703 0)"/>
     <use xlink:href="#DejaVuSans-65" transform="translate(251.070312 0)"/>
     <use xlink:href="#DejaVuSans-64" transform="translate(312.59375 0)"/>
     <use xlink:href="#DejaVuSans-20" transform="translate(376.070312 0)"/>
     <use xlink:href="#DejaVuSans-20" transform="translate(407.857422 0)"/>
     <use xlink:href="#DejaVuSans-3d" transform="translate(439.644531 0)"/>
     <use xlink:href="#DejaVuSans-20" transform="translate(523.433594 0)"/>
     <use xlink:href="#DejaVuSans-20" transform="translate(555.220703 0)"/>
     <use xlink:href="#DejaVuSans-28" transform="translate(587.007812 0)"/>
     <use xlink:href="#DejaVuSans-61" transform="translate(626.021484 0)"/>
     <use xlink:href="#DejaVuSans-6e" transform="translate(687.300781 0)"/>
     <use xlink:href="#DejaVuSans-79" transform="translate(750.679688 0)"/>
     <use xlink:href="#DejaVuSans-20" transform="translate(809.859375 0)"/>
     <use xlink:href="#DejaVuSans-42" transform="translate(841.646484 0)"/>
     <use xlink:href="#DejaVuSans-41" transform="translate(910.25 0)"/>
     <use xlink:href="#DejaVuSans-44" transform="translate(978.658203 0)"/>
     <use xlink:href="#DejaVuSans-20" transform="translate(1055.660156 0)"/>
     <use xlink:href="#DejaVuSans-66" transform="translate(1087.447266 0)"/>
     <use xlink:href="#DejaVuSans-69" transform="translate(1122.652344 0)"/>
     <use xlink:href="#DejaVuSans-6e" transform="translate(1150.435547 0)"/>
     <use xlink:href="#DejaVuSans-64" transform="translate(1213.814453 0)"/>
     <use xlink:href="#DejaVuSans-69" transform="translate(1277.291016 0)"/>
     <use xlink:href="#DejaVuSans-6e" transform="translate(1305.074219 0)"/>
     <use xlink:href="#DejaVuSans-67" transform="translate(1368.453125 0)"/>
     <use xlink:href="#DejaVuSans-29" transform="translate(1431.929688 0)"/>
     <use xlink:href="#DejaVuSans-20" transform="translate(1470.943359 0)"/>
     <use xlink:href="#DejaVuSans-20" transform="translate(1502.730469 0)"/>
     <use xlink:href="#DejaVuSans-20" transform="translate(1534.517578 0)"/>
     <use xlink:href="#DejaVuSans-4f" transform="translate(1566.304688 0)"/>
     <use xlink:href="#DejaVuSans-52" transform="translate(1645.015625 0)"/>
     <use xlink:href="#DejaVuSans-20" transform="translate(1714.498047 0)"/>
     <use xlink:href="#DejaVuSans-20" transform="translate(1746.285156 0)"/>
     <use xlink:href="#DejaVuSans-20" transform="translate(1778.072266 0)"/>
     <use xlink:href="#DejaVuSans-28" transform="translate(1809.859375 0)"/>
     <use xlink:href="#DejaVuSans-73" transform="translate(1848.873047 0)"/>
     <use xlink:href="#DejaVuSans-63" transform="translate(1900.972656 0)"/>
     <use xlink:href="#DejaVuSans-6f" transform="translate(1955.953125 0)"/>
     <use xlink:href="#DejaVuSans-72" transform="translate(2017.134766 0)"/>
     <use xlink:href="#DejaVuSans-65" transform="translate(2055.998047 0)"/>
     <use xlink:href="#DejaVuSans-20" transform="translate(2117.521484 0)"/>
     <use xlink:href="#DejaVuSans-3e" transform="translate(2149.308594 0)"/>
     <use xlink:href="#DejaVuSans-3d" transform="translate(2233.097656 0)"/>
     <use xlink:href="#DejaVuSans-20" transform="translate(2316.886719 0)"/>
     <use xlink:href="#DejaVuSans-30" transform="translate(2348.673828 0)"/>
     <use xlink:href="#DejaVuSans-2e" transform="translate(2412.296875 0)"/>
     <use xlink:href="#DejaVuSans-36" transform="translate(2444.083984 0)"/>
     <use xlink:href="#DejaVuSans-29" transform="translate(2507.707031 0)"/>
    </g>
   </g>
   <g id="text_3">
    <!-- score is a severity monoid — NOT a probability of fakery -->
    <g style="fill: #8e6f3e" transform="translate(196.890625 146.435469) scale(0.1 -0.1)">
     <defs>
      <path id="DejaVuSans-Oblique-73" d="M 3200 3397 
L 3091 2853 
Q 2863 2978 2609 3040 
Q 2356 3103 2088 3103 
Q 1634 3103 1373 2948 
Q 1113 2794 1113 2528 
Q 1113 2219 1719 2053 
Q 1766 2041 1788 2034 
L 1972 1978 
Q 2547 1819 2739 1644 
Q 2931 1469 2931 1166 
Q 2931 609 2489 259 
Q 2047 -91 1331 -91 
Q 1053 -91 747 -37 
Q 441 16 72 128 
L 184 722 
Q 500 559 806 475 
Q 1113 391 1394 391 
Q 1816 391 2080 572 
Q 2344 753 2344 1031 
Q 2344 1331 1650 1516 
L 1591 1531 
L 1394 1581 
Q 956 1697 753 1886 
Q 550 2075 550 2369 
Q 550 2928 970 3256 
Q 1391 3584 2113 3584 
Q 2397 3584 2667 3537 
Q 2938 3491 3200 3397 
z
" transform="scale(0.015625)"/>
      <path id="DejaVuSans-Oblique-63" d="M 3431 3366 
L 3316 2797 
Q 3109 2947 2876 3022 
Q 2644 3097 2394 3097 
Q 2119 3097 1870 3000 
Q 1622 2903 1453 2725 
Q 1184 2453 1037 2087 
Q 891 1722 891 1331 
Q 891 859 1127 628 
Q 1363 397 1844 397 
Q 2081 397 2348 469 
Q 2616 541 2906 684 
L 2797 116 
Q 2547 13 2283 -39 
Q 2019 -91 1741 -91 
Q 1044 -91 669 257 
Q 294 606 294 1253 
Q 294 1797 489 2255 
Q 684 2713 1069 3078 
Q 1331 3328 1684 3456 
Q 2038 3584 2456 3584 
Q 2700 3584 2940 3529 
Q 3181 3475 3431 3366 
z
" transform="scale(0.015625)"/>
      <path id="DejaVuSans-Oblique-6f" d="M 1625 -91 
Q 1009 -91 651 289 
Q 294 669 294 1325 
Q 294 1706 417 2101 
Q 541 2497 738 2766 
Q 1047 3184 1428 3384 
Q 1809 3584 2291 3584 
Q 2888 3584 3255 3212 
Q 3622 2841 3622 2241 
Q 3622 1825 3500 1412 
Q 3378 1000 3181 728 
Q 2875 309 2494 109 
Q 2113 -91 1625 -91 
z
M 891 1344 
Q 891 869 1089 633 
Q 1288 397 1691 397 
Q 2269 397 2648 901 
Q 3028 1406 3028 2181 
Q 3028 2634 2825 2865 
Q 2622 3097 2228 3097 
Q 1903 3097 1650 2945 
Q 1397 2794 1197 2484 
Q 1050 2253 970 1956 
Q 891 1659 891 1344 
z
" transform="scale(0.015625)"/>
      <path id="DejaVuSans-Oblique-72" d="M 2853 2969 
Q 2766 3016 2653 3041 
Q 2541 3066 2413 3066 
Q 1953 3066 1609 2717 
Q 1266 2369 1153 1784 
L 800 0 
L 225 0 
L 909 3500 
L 1484 3500 
L 1375 2956 
Q 1603 3259 1920 3421 
Q 2238 3584 2597 3584 
Q 2691 3584 2781 3573 
Q 2872 3563 2963 3538 
L 2853 2969 
z
" transform="scale(0.015625)"/>
      <path id="DejaVuSans-Oblique-65" d="M 3078 2063 
Q 3088 2113 3092 2166 
Q 3097 2219 3097 2272 
Q 3097 2653 2873 2875 
Q 2650 3097 2266 3097 
Q 1838 3097 1509 2826 
Q 1181 2556 1013 2059 
L 3078 2063 
z
M 3578 1613 
L 903 1613 
Q 884 1494 878 1425 
Q 872 1356 872 1306 
Q 872 872 1139 634 
Q 1406 397 1894 397 
Q 2269 397 2603 481 
Q 2938 566 3225 728 
L 3116 159 
Q 2806 34 2476 -28 
Q 2147 -91 1806 -91 
Q 1078 -91 686 257 
Q 294 606 294 1247 
Q 294 1794 489 2264 
Q 684 2734 1063 3103 
Q 1306 3334 1642 3459 
Q 1978 3584 2356 3584 
Q 2950 3584 3301 3228 
Q 3653 2872 3653 2272 
Q 3653 2128 3634 1964 
Q 3616 1800 3578 1613 
z
" transform="scale(0.015625)"/>
      <path id="DejaVuSans-Oblique-20" transform="scale(0.015625)"/>
      <path id="DejaVuSans-Oblique-69" d="M 1172 4863 
L 1747 4863 
L 1606 4134 
L 1031 4134 
L 1172 4863 
z
M 909 3500 
L 1484 3500 
L 800 0 
L 225 0 
L 909 3500 
z
" transform="scale(0.015625)"/>
      <path id="DejaVuSans-Oblique-61" d="M 3438 1997 
L 3047 0 
L 2472 0 
L 2578 531 
Q 2325 219 2001 64 
Q 1678 -91 1281 -91 
Q 834 -91 548 182 
Q 263 456 263 884 
Q 263 1497 752 1853 
Q 1241 2209 2100 2209 
L 2900 2209 
L 2931 2363 
Q 2938 2388 2941 2417 
Q 2944 2447 2944 2509 
Q 2944 2788 2717 2942 
Q 2491 3097 2081 3097 
Q 1800 3097 1504 3025 
Q 1209 2953 897 2809 
L 997 3341 
Q 1322 3463 1633 3523 
Q 1944 3584 2234 3584 
Q 2853 3584 3176 3315 
Q 3500 3047 3500 2534 
Q 3500 2431 3484 2292 
Q 3469 2153 3438 1997 
z
M 2816 1759 
L 2241 1759 
Q 1534 1759 1195 1570 
Q 856 1381 856 984 
Q 856 709 1029 553 
Q 1203 397 1509 397 
Q 1978 397 2328 733 
Q 2678 1069 2791 1631 
L 2816 1759 
z
" transform="scale(0.015625)"/>
      <path id="DejaVuSans-Oblique-76" d="M 459 3500 
L 1069 3500 
L 1581 525 
L 3256 3500 
L 3866 3500 
L 1875 0 
L 1100 0 
L 459 3500 
z
" transform="scale(0.015625)"/>
      <path id="DejaVuSans-Oblique-74" d="M 2706 3500 
L 2619 3053 
L 1472 3053 
L 1100 1153 
Q 1081 1047 1072 975 
Q 1063 903 1063 863 
Q 1063 663 1183 572 
Q 1303 481 1569 481 
L 2150 481 
L 2053 0 
L 1503 0 
Q 991 0 739 200 
Q 488 400 488 806 
Q 488 878 497 964 
Q 506 1050 525 1153 
L 897 3053 
L 409 3053 
L 500 3500 
L 978 3500 
L 1172 4494 
L 1747 4494 
L 1556 3500 
L 2706 3500 
z
" transform="scale(0.015625)"/>
      <path id="DejaVuSans-Oblique-79" d="M 1588 -325 
Q 1188 -997 936 -1164 
Q 684 -1331 294 -1331 
L -159 -1331 
L -63 -850 
L 269 -850 
Q 509 -850 678 -719 
Q 847 -588 1056 -206 
L 1234 128 
L 459 3500 
L 1069 3500 
L 1650 819 
L 3256 3500 
L 3859 3500 
L 1588 -325 
z
" transform="scale(0.015625)"/>
      <path id="DejaVuSans-Oblique-6d" d="M 5747 2113 
L 5338 0 
L 4763 0 
L 5166 2094 
Q 5191 2228 5203 2325 
Q 5216 2422 5216 2491 
Q 5216 2772 5059 2928 
Q 4903 3084 4622 3084 
Q 4203 3084 3875 2770 
Q 3547 2456 3450 1953 
L 3066 0 
L 2491 0 
L 2900 2094 
Q 2925 2209 2937 2307 
Q 2950 2406 2950 2484 
Q 2950 2769 2794 2926 
Q 2638 3084 2363 3084 
Q 1938 3084 1609 2770 
Q 1281 2456 1184 1953 
L 800 0 
L 225 0 
L 909 3500 
L 1484 3500 
L 1375 2956 
Q 1609 3263 1923 3423 
Q 2238 3584 2597 3584 
Q 2978 3584 3223 3384 
Q 3469 3184 3519 2828 
Q 3781 3197 4126 3390 
Q 4472 3584 4856 3584 
Q 5306 3584 5551 3325 
Q 5797 3066 5797 2591 
Q 5797 2488 5784 2364 
Q 5772 2241 5747 2113 
z
" transform="scale(0.015625)"/>
      <path id="DejaVuSans-Oblique-6e" d="M 3566 2113 
L 3156 0 
L 2578 0 
L 2988 2091 
Q 3016 2238 3031 2350 
Q 3047 2463 3047 2528 
Q 3047 2791 2881 2937 
Q 2716 3084 2419 3084 
Q 1956 3084 1622 2776 
Q 1288 2469 1184 1941 
L 800 0 
L 225 0 
L 903 3500 
L 1478 3500 
L 1363 2950 
Q 1603 3253 1940 3418 
Q 2278 3584 2650 3584 
Q 3113 3584 3367 3334 
Q 3622 3084 3622 2631 
Q 3622 2519 3608 2391 
Q 3594 2263 3566 2113 
z
" transform="scale(0.015625)"/>
      <path id="DejaVuSans-Oblique-64" d="M 2675 525 
Q 2444 222 2128 65 
Q 1813 -91 1428 -91 
Q 903 -91 598 267 
Q 294 625 294 1247 
Q 294 1766 478 2236 
Q 663 2706 1013 3078 
Q 1244 3325 1534 3454 
Q 1825 3584 2144 3584 
Q 2481 3584 2739 3421 
Q 2997 3259 3138 2956 
L 3513 4863 
L 4091 4863 
L 3144 0 
L 2566 0 
L 2675 525 
z
M 891 1350 
Q 891 897 1095 644 
Q 1300 391 1663 391 
Q 1931 391 2161 520 
Q 2391 650 2566 903 
Q 2750 1166 2856 1509 
Q 2963 1853 2963 2188 
Q 2963 2622 2758 2865 
Q 2553 3109 2194 3109 
Q 1922 3109 1687 2981 
Q 1453 2853 1288 2613 
Q 1106 2353 998 2009 
Q 891 1666 891 1350 
z
" transform="scale(0.015625)"/>
      <path id="DejaVuSans-Oblique-2014" d="M 356 1978 
L 6131 1978 
L 6044 1528 
L 269 1528 
L 356 1978 
z
" transform="scale(0.015625)"/>
      <path id="DejaVuSans-Oblique-4e" d="M 1081 4666 
L 1931 4666 
L 3219 666 
L 4000 4666 
L 4616 4666 
L 3706 0 
L 2853 0 
L 1569 4025 
L 788 0 
L 172 0 
L 1081 4666 
z
" transform="scale(0.015625)"/>
      <path id="DejaVuSans-Oblique-4f" d="M 2919 4238 
Q 2400 4238 2003 3986 
Q 1606 3734 1313 3219 
Q 1125 2891 1026 2522 
Q 928 2153 928 1778 
Q 928 1128 1239 775 
Q 1550 422 2119 422 
Q 2631 422 3032 676 
Q 3434 931 3719 1434 
Q 3909 1772 4009 2142 
Q 4109 2513 4109 2881 
Q 4109 3528 3796 3883 
Q 3484 4238 2919 4238 
z
M 2100 -91 
Q 1241 -91 748 418 
Q 256 928 256 1813 
Q 256 2319 448 2847 
Q 641 3375 978 3788 
Q 1375 4272 1862 4511 
Q 2350 4750 2938 4750 
Q 3794 4750 4287 4245 
Q 4781 3741 4781 2869 
Q 4781 2331 4593 1812 
Q 4406 1294 4056 872 
Q 3656 384 3173 146 
Q 2691 -91 2100 -91 
z
" transform="scale(0.015625)"/>
      <path id="DejaVuSans-Oblique-54" d="M 378 4666 
L 4325 4666 
L 4225 4134 
L 2559 4134 
L 1759 0 
L 1125 0 
L 1925 4134 
L 275 4134 
L 378 4666 
z
" transform="scale(0.015625)"/>
      <path id="DejaVuSans-Oblique-70" d="M 3175 2156 
Q 3175 2616 2975 2859 
Q 2775 3103 2400 3103 
Q 2144 3103 1911 2972 
Q 1678 2841 1497 2591 
Q 1319 2344 1212 1994 
Q 1106 1644 1106 1300 
Q 1106 863 1306 627 
Q 1506 391 1875 391 
Q 2147 391 2380 519 
Q 2613 647 2778 891 
Q 2956 1147 3065 1494 
Q 3175 1841 3175 2156 
z
M 1394 2969 
Q 1625 3272 1939 3428 
Q 2253 3584 2638 3584 
Q 3175 3584 3472 3232 
Q 3769 2881 3769 2247 
Q 3769 1728 3584 1258 
Q 3400 788 3053 416 
Q 2822 169 2531 39 
Q 2241 -91 1919 -91 
Q 1547 -91 1294 64 
Q 1041 219 916 525 
L 556 -1331 
L -19 -1331 
L 922 3500 
L 1497 3500 
L 1394 2969 
z
" transform="scale(0.015625)"/>
      <path id="DejaVuSans-Oblique-62" d="M 3169 2138 
Q 3169 2591 2961 2847 
Q 2753 3103 2388 3103 
Q 2122 3103 1889 2973 
Q 1656 2844 1484 2597 
Q 1303 2338 1198 1995 
Q 1094 1653 1094 1313 
Q 1094 881 1298 636 
Q 1503 391 1863 391 
Q 2134 391 2365 517 
Q 2597 644 2772 891 
Q 2950 1147 3059 1487 
Q 3169 1828 3169 2138 
z
M 1381 2969 
Q 1594 3256 1914 3420 
Q 2234 3584 2584 3584 
Q 3122 3584 3439 3221 
Q 3756 2859 3756 2241 
Q 3756 1734 3570 1259 
Q 3384 784 3041 416 
Q 2816 172 2522 40 
Q 2228 -91 1906 -91 
Q 1566 -91 1316 65 
Q 1066 222 909 531 
L 806 0 
L 231 0 
L 1178 4863 
L 1753 4863 
L 1381 2969 
z
" transform="scale(0.015625)"/>
      <path id="DejaVuSans-Oblique-6c" d="M 1172 4863 
L 1747 4863 
L 800 0 
L 225 0 
L 1172 4863 
z
" transform="scale(0.015625)"/>
      <path id="DejaVuSans-Oblique-66" d="M 3059 4863 
L 2969 4384 
L 2419 4384 
Q 2106 4384 1964 4261 
Q 1822 4138 1753 3809 
L 1691 3500 
L 2638 3500 
L 2553 3053 
L 1606 3053 
L 1013 0 
L 434 0 
L 1031 3053 
L 481 3053 
L 563 3500 
L 1113 3500 
L 1159 3744 
Q 1278 4363 1576 4613 
Q 1875 4863 2516 4863 
L 3059 4863 
z
" transform="scale(0.015625)"/>
      <path id="DejaVuSans-Oblique-6b" d="M 1172 4863 
L 1747 4863 
L 1197 2028 
L 3169 3500 
L 3916 3500 
L 1716 1825 
L 3322 0 
L 2625 0 
L 1131 1709 
L 800 0 
L 225 0 
L 1172 4863 
z
" transform="scale(0.015625)"/>
     </defs>
     <use xlink:href="#DejaVuSans-Oblique-73"/>
     <use xlink:href="#DejaVuSans-Oblique-63" transform="translate(52.099609 0)"/>
     <use xlink:href="#DejaVuSans-Oblique-6f" transform="translate(107.080078 0)"/>
     <use xlink:href="#DejaVuSans-Oblique-72" transform="translate(168.261719 0)"/>
     <use xlink:href="#DejaVuSans-Oblique-65" transform="translate(209.375 0)"/>
     <use xlink:href="#DejaVuSans-Oblique-20" transform="translate(270.898438 0)"/>
     <use xlink:href="#DejaVuSans-Oblique-69" transform="translate(302.685547 0)"/>
     <use xlink:href="#DejaVuSans-Oblique-73" transform="translate(330.46875 0)"/>
     <use xlink:href="#DejaVuSans-Oblique-20" transform="translate(382.568359 0)"/>
     <use xlink:href="#DejaVuSans-Oblique-61" transform="translate(414.355469 0)"/>
     <use xlink:href="#DejaVuSans-Oblique-20" transform="translate(475.634766 0)"/>
     <use xlink:href="#DejaVuSans-Oblique-73" transform="translate(507.421875 0)"/>
     <use xlink:href="#DejaVuSans-Oblique-65" transform="translate(559.521484 0)"/>
     <use xlink:href="#DejaVuSans-Oblique-76" transform="translate(621.044922 0)"/>
     <use xlink:href="#DejaVuSans-Oblique-65" transform="translate(680.224609 0)"/>
     <use xlink:href="#DejaVuSans-Oblique-72" transform="translate(741.748047 0)"/>
     <use xlink:href="#DejaVuSans-Oblique-69" transform="translate(782.861328 0)"/>
     <use xlink:href="#DejaVuSans-Oblique-74" transform="translate(810.644531 0)"/>
     <use xlink:href="#DejaVuSans-Oblique-79" transform="translate(849.853516 0)"/>
     <use xlink:href="#DejaVuSans-Oblique-20" transform="translate(909.033203 0)"/>
     <use xlink:href="#DejaVuSans-Oblique-6d" transform="translate(940.820312 0)"/>
     <use xlink:href="#DejaVuSans-Oblique-6f" transform="translate(1038.232422 0)"/>
     <use xlink:href="#DejaVuSans-Oblique-6e" transform="translate(1099.414062 0)"/>
     <use xlink:href="#DejaVuSans-Oblique-6f" transform="translate(1162.792969 0)"/>
     <use xlink:href="#DejaVuSans-Oblique-69" transform="translate(1223.974609 0)"/>
     <use xlink:href="#DejaVuSans-Oblique-64" transform="translate(1251.757812 0)"/>
     <use xlink:href="#DejaVuSans-Oblique-20" transform="translate(1315.234375 0)"/>
     <use xlink:href="#DejaVuSans-Oblique-2014" transform="translate(1347.021484 0)"/>
     <use xlink:href="#DejaVuSans-Oblique-20" transform="translate(1447.021484 0)"/>
     <use xlink:href="#DejaVuSans-Oblique-4e" transform="translate(1478.808594 0)"/>
     <use xlink:href="#DejaVuSans-Oblique-4f" transform="translate(1553.613281 0)"/>
     <use xlink:href="#DejaVuSans-Oblique-54" transform="translate(1632.324219 0)"/>
     <use xlink:href="#DejaVuSans-Oblique-20" transform="translate(1693.408203 0)"/>
     <use xlink:href="#DejaVuSans-Oblique-61" transform="translate(1725.195312 0)"/>
     <use xlink:href="#DejaVuSans-Oblique-20" transform="translate(1786.474609 0)"/>
     <use xlink:href="#DejaVuSans-Oblique-70" transform="translate(1818.261719 0)"/>
     <use xlink:href="#DejaVuSans-Oblique-72" transform="translate(1881.738281 0)"/>
     <use xlink:href="#DejaVuSans-Oblique-6f" transform="translate(1922.851562 0)"/>
     <use xlink:href="#DejaVuSans-Oblique-62" transform="translate(1984.033203 0)"/>
     <use xlink:href="#DejaVuSans-Oblique-61" transform="translate(2047.509766 0)"/>
     <use xlink:href="#DejaVuSans-Oblique-62" transform="translate(2108.789062 0)"/>
     <use xlink:href="#DejaVuSans-Oblique-69" transform="translate(2172.265625 0)"/>
     <use xlink:href="#DejaVuSans-Oblique-6c" transform="translate(2200.048828 0)"/>
     <use xlink:href="#DejaVuSans-Oblique-69" transform="translate(2227.832031 0)"/>
     <use xlink:href="#DejaVuSans-Oblique-74" transform="translate(2255.615234 0)"/>
     <use xlink:href="#DejaVuSans-Oblique-79" transform="translate(2294.824219 0)"/>
     <use xlink:href="#DejaVuSans-Oblique-20" transform="translate(2354.003906 0)"/>
     <use xlink:href="#DejaVuSans-Oblique-6f" transform="translate(2385.791016 0)"/>
     <use xlink:href="#DejaVuSans-Oblique-66" transform="translate(2446.972656 0)"/>
     <use xlink:href="#DejaVuSans-Oblique-20" transform="translate(2482.177734 0)"/>
     <use xlink:href="#DejaVuSans-Oblique-66" transform="translate(2513.964844 0)"/>
     <use xlink:href="#DejaVuSans-Oblique-61" transform="translate(2549.169922 0)"/>
     <use xlink:href="#DejaVuSans-Oblique-6b" transform="translate(2610.449219 0)"/>
     <use xlink:href="#DejaVuSans-Oblique-65" transform="translate(2668.359375 0)"/>
     <use xlink:href="#DejaVuSans-Oblique-72" transform="translate(2729.882812 0)"/>
     <use xlink:href="#DejaVuSans-Oblique-79" transform="translate(2770.996094 0)"/>
    </g>
   </g>
   <g id="text_4">
    <!-- One bad -->
    <g style="fill: #cfb991" transform="translate(104.886937 209.277969) scale(0.12 -0.12)">
     <defs>
      <path id="DejaVuSans-Bold-4f" d="M 2719 3878 
Q 2169 3878 1866 3472 
Q 1563 3066 1563 2328 
Q 1563 1594 1866 1187 
Q 2169 781 2719 781 
Q 3272 781 3575 1187 
Q 3878 1594 3878 2328 
Q 3878 3066 3575 3472 
Q 3272 3878 2719 3878 
z
M 2719 4750 
Q 3844 4750 4481 4106 
Q 5119 3463 5119 2328 
Q 5119 1197 4481 553 
Q 3844 -91 2719 -91 
Q 1597 -91 958 553 
Q 319 1197 319 2328 
Q 319 3463 958 4106 
Q 1597 4750 2719 4750 
z
" transform="scale(0.015625)"/>
      <path id="DejaVuSans-Bold-61" d="M 2106 1575 
Q 1756 1575 1579 1456 
Q 1403 1338 1403 1106 
Q 1403 894 1545 773 
Q 1688 653 1941 653 
Q 2256 653 2472 879 
Q 2688 1106 2688 1447 
L 2688 1575 
L 2106 1575 
z
M 3816 1997 
L 3816 0 
L 2688 0 
L 2688 519 
Q 2463 200 2181 54 
Q 1900 -91 1497 -91 
Q 953 -91 614 226 
Q 275 544 275 1050 
Q 275 1666 698 1953 
Q 1122 2241 2028 2241 
L 2688 2241 
L 2688 2328 
Q 2688 2594 2478 2717 
Q 2269 2841 1825 2841 
Q 1466 2841 1156 2769 
Q 847 2697 581 2553 
L 581 3406 
Q 941 3494 1303 3539 
Q 1666 3584 2028 3584 
Q 2975 3584 3395 3211 
Q 3816 2838 3816 1997 
z
" transform="scale(0.015625)"/>
     </defs>
     <use xlink:href="#DejaVuSans-Bold-4f"/>
     <use xlink:href="#DejaVuSans-Bold-6e" transform="translate(85.009766 0)"/>
     <use xlink:href="#DejaVuSans-Bold-65" transform="translate(156.201172 0)"/>
     <use xlink:href="#DejaVuSans-Bold-20" transform="translate(224.023438 0)"/>
     <use xlink:href="#DejaVuSans-Bold-62" transform="translate(258.837891 0)"/>
     <use xlink:href="#DejaVuSans-Bold-61" transform="translate(330.419922 0)"/>
     <use xlink:href="#DejaVuSans-Bold-64" transform="translate(397.900391 0)"/>
    </g>
   </g>
   <g id="text_5">
    <!-- score = 0.55 -->
    <g style="fill: #cfb991" transform="translate(101.122406 235.320156) scale(0.1 -0.1)">
     <defs>
      <path id="DejaVuSans-35" d="M 691 4666 
L 3169 4666 
L 3169 4134 
L 1269 4134 
L 1269 2991 
Q 1406 3038 1543 3061 
Q 1681 3084 1819 3084 
Q 2600 3084 3056 2656 
Q 3513 2228 3513 1497 
Q 3513 744 3044 326 
Q 2575 -91 1722 -91 
Q 1428 -91 1123 -41 
Q 819 9 494 109 
L 494 744 
Q 775 591 1075 516 
Q 1375 441 1709 441 
Q 2250 441 2565 725 
Q 2881 1009 2881 1497 
Q 2881 1984 2565 2268 
Q 2250 2553 1709 2553 
Q 1456 2553 1204 2497 
Q 953 2441 691 2322 
L 691 4666 
z
" transform="scale(0.015625)"/>
     </defs>
     <use xlink:href="#DejaVuSans-73"/>
     <use xlink:href="#DejaVuSans-63" transform="translate(52.099609 0)"/>
     <use xlink:href="#DejaVuSans-6f" transform="translate(107.080078 0)"/>
     <use xlink:href="#DejaVuSans-72" transform="translate(168.261719 0)"/>
     <use xlink:href="#DejaVuSans-65" transform="translate(207.125 0)"/>
     <use xlink:href="#DejaVuSans-20" transform="translate(268.648438 0)"/>
     <use xlink:href="#DejaVuSans-3d" transform="translate(300.435547 0)"/>
     <use xlink:href="#DejaVuSans-20" transform="translate(384.224609 0)"/>
     <use xlink:href="#DejaVuSans-30" transform="translate(416.011719 0)"/>
     <use xlink:href="#DejaVuSans-2e" transform="translate(479.634766 0)"/>
     <use xlink:href="#DejaVuSans-35" transform="translate(511.421875 0)"/>
     <use xlink:href="#DejaVuSans-35" transform="translate(575.044922 0)"/>
    </g>
    <!-- still BLOWN -->
    <g style="fill: #cfb991" transform="translate(104.079437 246.517969) scale(0.1 -0.1)">
     <defs>
      <path id="DejaVuSans-74" d="M 1172 4494 
L 1172 3500 
L 2356 3500 
L 2356 3053 
L 1172 3053 
L 1172 1153 
Q 1172 725 1289 603 
Q 1406 481 1766 481 
L 2356 481 
L 2356 0 
L 1766 0 
Q 1100 0 847 248 
Q 594 497 594 1153 
L 594 3053 
L 172 3053 
L 172 3500 
L 594 3500 
L 594 4494 
L 1172 4494 
z
" transform="scale(0.015625)"/>
      <path id="DejaVuSans-6c" d="M 603 4863 
L 1178 4863 
L 1178 0 
L 603 0 
L 603 4863 
z
" transform="scale(0.015625)"/>
      <path id="DejaVuSans-4c" d="M 628 4666 
L 1259 4666 
L 1259 531 
L 3531 531 
L 3531 0 
L 628 0 
L 628 4666 
z
" transform="scale(0.015625)"/>
      <path id="DejaVuSans-57" d="M 213 4666 
L 850 4666 
L 1831 722 
L 2809 4666 
L 3519 4666 
L 4500 722 
L 5478 4666 
L 6119 4666 
L 4947 0 
L 4153 0 
L 3169 4050 
L 2175 0 
L 1381 0 
L 213 4666 
z
" transform="scale(0.015625)"/>
      <path id="DejaVuSans-4e" d="M 628 4666 
L 1478 4666 
L 3547 763 
L 3547 4666 
L 4159 4666 
L 4159 0 
L 3309 0 
L 1241 3903 
L 1241 0 
L 628 0 
L 628 4666 
z
" transform="scale(0.015625)"/>
     </defs>
     <use xlink:href="#DejaVuSans-73"/>
     <use xlink:href="#DejaVuSans-74" transform="translate(52.099609 0)"/>
     <use xlink:href="#DejaVuSans-69" transform="translate(91.308594 0)"/>
     <use xlink:href="#DejaVuSans-6c" transform="translate(119.091797 0)"/>
     <use xlink:href="#DejaVuSans-6c" transform="translate(146.875 0)"/>
     <use xlink:href="#DejaVuSans-20" transform="translate(174.658203 0)"/>
     <use xlink:href="#DejaVuSans-42" transform="translate(206.445312 0)"/>
     <use xlink:href="#DejaVuSans-4c" transform="translate(275.048828 0)"/>
     <use xlink:href="#DejaVuSans-4f" transform="translate(327.136719 0)"/>
     <use xlink:href="#DejaVuSans-57" transform="translate(405.847656 0)"/>
     <use xlink:href="#DejaVuSans-4e" transform="translate(504.724609 0)"/>
    </g>
   </g>
   <g id="text_6">
    <!-- Not P(fake) -->
    <g style="fill: #f7f1e5" transform="translate(293.232563 209.277969) scale(0.12 -0.12)">
     <defs>
      <path id="DejaVuSans-Bold-4e" d="M 588 4666 
L 1931 4666 
L 3628 1466 
L 3628 4666 
L 4769 4666 
L 4769 0 
L 3425 0 
L 1728 3200 
L 1728 0 
L 588 0 
L 588 4666 
z
" transform="scale(0.015625)"/>
      <path id="DejaVuSans-Bold-50" d="M 588 4666 
L 2584 4666 
Q 3475 4666 3951 4270 
Q 4428 3875 4428 3144 
Q 4428 2409 3951 2014 
Q 3475 1619 2584 1619 
L 1791 1619 
L 1791 0 
L 588 0 
L 588 4666 
z
M 1791 3794 
L 1791 2491 
L 2456 2491 
Q 2806 2491 2997 2661 
Q 3188 2831 3188 3144 
Q 3188 3456 2997 3625 
Q 2806 3794 2456 3794 
L 1791 3794 
z
" transform="scale(0.015625)"/>
      <path id="DejaVuSans-Bold-66" d="M 2841 4863 
L 2841 4128 
L 2222 4128 
Q 1984 4128 1890 4042 
Q 1797 3956 1797 3744 
L 1797 3500 
L 2753 3500 
L 2753 2700 
L 1797 2700 
L 1797 0 
L 678 0 
L 678 2700 
L 122 2700 
L 122 3500 
L 678 3500 
L 678 3744 
Q 678 4316 997 4589 
Q 1316 4863 1984 4863 
L 2841 4863 
z
" transform="scale(0.015625)"/>
      <path id="DejaVuSans-Bold-6b" d="M 538 4863 
L 1656 4863 
L 1656 2216 
L 2944 3500 
L 4244 3500 
L 2534 1894 
L 4378 0 
L 3022 0 
L 1656 1459 
L 1656 0 
L 538 0 
L 538 4863 
z
" transform="scale(0.015625)"/>
     </defs>
     <use xlink:href="#DejaVuSans-Bold-4e"/>
     <use xlink:href="#DejaVuSans-Bold-6f" transform="translate(83.691406 0)"/>
     <use xlink:href="#DejaVuSans-Bold-74" transform="translate(152.392578 0)"/>
     <use xlink:href="#DejaVuSans-Bold-20" transform="translate(200.195312 0)"/>
     <use xlink:href="#DejaVuSans-Bold-50" transform="translate(235.009766 0)"/>
     <use xlink:href="#DejaVuSans-Bold-28" transform="translate(308.300781 0)"/>
     <use xlink:href="#DejaVuSans-Bold-66" transform="translate(354.003906 0)"/>
     <use xlink:href="#DejaVuSans-Bold-61" transform="translate(397.509766 0)"/>
     <use xlink:href="#DejaVuSans-Bold-6b" transform="translate(464.990234 0)"/>
     <use xlink:href="#DejaVuSans-Bold-65" transform="translate(528.869141 0)"/>
     <use xlink:href="#DejaVuSans-Bold-29" transform="translate(596.691406 0)"/>
    </g>
   </g>
   <g id="text_7">
    <!-- weights are knobs -->
    <g style="fill: #f7f1e5" transform="translate(286.149437 235.320156) scale(0.1 -0.1)">
     <defs>
      <path id="DejaVuSans-77" d="M 269 3500 
L 844 3500 
L 1563 769 
L 2278 3500 
L 2956 3500 
L 3675 769 
L 4391 3500 
L 4966 3500 
L 4050 0 
L 3372 0 
L 2619 2869 
L 1863 0 
L 1184 0 
L 269 3500 
z
" transform="scale(0.015625)"/>
      <path id="DejaVuSans-68" d="M 3513 2113 
L 3513 0 
L 2938 0 
L 2938 2094 
Q 2938 2591 2744 2837 
Q 2550 3084 2163 3084 
Q 1697 3084 1428 2787 
Q 1159 2491 1159 1978 
L 1159 0 
L 581 0 
L 581 4863 
L 1159 4863 
L 1159 2956 
Q 1366 3272 1645 3428 
Q 1925 3584 2291 3584 
Q 2894 3584 3203 3211 
Q 3513 2838 3513 2113 
z
" transform="scale(0.015625)"/>
      <path id="DejaVuSans-6b" d="M 581 4863 
L 1159 4863 
L 1159 1991 
L 2875 3500 
L 3609 3500 
L 1753 1863 
L 3688 0 
L 2938 0 
L 1159 1709 
L 1159 0 
L 581 0 
L 581 4863 
z
" transform="scale(0.015625)"/>
      <path id="DejaVuSans-62" d="M 3116 1747 
Q 3116 2381 2855 2742 
Q 2594 3103 2138 3103 
Q 1681 3103 1420 2742 
Q 1159 2381 1159 1747 
Q 1159 1113 1420 752 
Q 1681 391 2138 391 
Q 2594 391 2855 752 
Q 3116 1113 3116 1747 
z
M 1159 2969 
Q 1341 3281 1617 3432 
Q 1894 3584 2278 3584 
Q 2916 3584 3314 3078 
Q 3713 2572 3713 1747 
Q 3713 922 3314 415 
Q 2916 -91 2278 -91 
Q 1894 -91 1617 61 
Q 1341 213 1159 525 
L 1159 0 
L 581 0 
L 581 4863 
L 1159 4863 
L 1159 2969 
z
" transform="scale(0.015625)"/>
     </defs>
     <use xlink:href="#DejaVuSans-77"/>
     <use xlink:href="#DejaVuSans-65" transform="translate(81.787109 0)"/>
     <use xlink:href="#DejaVuSans-69" transform="translate(143.310547 0)"/>
     <use xlink:href="#DejaVuSans-67" transform="translate(171.09375 0)"/>
     <use xlink:href="#DejaVuSans-68" transform="translate(234.570312 0)"/>
     <use xlink:href="#DejaVuSans-74" transform="translate(297.949219 0)"/>
     <use xlink:href="#DejaVuSans-73" transform="translate(337.158203 0)"/>
     <use xlink:href="#DejaVuSans-20" transform="translate(389.257812 0)"/>
     <use xlink:href="#DejaVuSans-61" transform="translate(421.044922 0)"/>
     <use xlink:href="#DejaVuSans-72" transform="translate(482.324219 0)"/>
     <use xlink:href="#DejaVuSans-65" transform="translate(521.1875 0)"/>
     <use xlink:href="#DejaVuSans-20" transform="translate(582.710938 0)"/>
     <use xlink:href="#DejaVuSans-6b" transform="translate(614.498047 0)"/>
     <use xlink:href="#DejaVuSans-6e" transform="translate(672.408203 0)"/>
     <use xlink:href="#DejaVuSans-6f" transform="translate(735.787109 0)"/>
     <use xlink:href="#DejaVuSans-62" transform="translate(796.96875 0)"/>
     <use xlink:href="#DejaVuSans-73" transform="translate(860.445312 0)"/>
    </g>
    <!-- not odds -->
    <g style="fill: #f7f1e5" transform="translate(309.986156 246.517969) scale(0.1 -0.1)">
     <use xlink:href="#DejaVuSans-6e"/>
     <use xlink:href="#DejaVuSans-6f" transform="translate(63.378906 0)"/>
     <use xlink:href="#DejaVuSans-74" transform="translate(124.560547 0)"/>
     <use xlink:href="#DejaVuSans-20" transform="translate(163.769531 0)"/>
     <use xlink:href="#DejaVuSans-6f" transform="translate(195.556641 0)"/>
     <use xlink:href="#DejaVuSans-64" transform="translate(256.738281 0)"/>
     <use xlink:href="#DejaVuSans-64" transform="translate(320.214844 0)"/>
     <use xlink:href="#DejaVuSans-73" transform="translate(383.691406 0)"/>
    </g>
   </g>
   <g id="text_8">
    <!-- Read findings -->
    <g style="fill: #cfb991" transform="translate(483.94725 209.277969) scale(0.12 -0.12)">
     <defs>
      <path id="DejaVuSans-Bold-52" d="M 2297 2597 
Q 2675 2597 2839 2737 
Q 3003 2878 3003 3200 
Q 3003 3519 2839 3656 
Q 2675 3794 2297 3794 
L 1791 3794 
L 1791 2597 
L 2297 2597 
z
M 1791 1766 
L 1791 0 
L 588 0 
L 588 4666 
L 2425 4666 
Q 3347 4666 3776 4356 
Q 4206 4047 4206 3378 
Q 4206 2916 3982 2619 
Q 3759 2322 3309 2181 
Q 3556 2125 3751 1926 
Q 3947 1728 4147 1325 
L 4800 0 
L 3519 0 
L 2950 1159 
Q 2778 1509 2601 1637 
Q 2425 1766 2131 1766 
L 1791 1766 
z
" transform="scale(0.015625)"/>
      <path id="DejaVuSans-Bold-67" d="M 2919 594 
Q 2688 288 2409 144 
Q 2131 0 1766 0 
Q 1125 0 706 504 
Q 288 1009 288 1791 
Q 288 2575 706 3076 
Q 1125 3578 1766 3578 
Q 2131 3578 2409 3434 
Q 2688 3291 2919 2981 
L 2919 3500 
L 4044 3500 
L 4044 353 
Q 4044 -491 3511 -936 
Q 2978 -1381 1966 -1381 
Q 1638 -1381 1331 -1331 
Q 1025 -1281 716 -1178 
L 716 -306 
Q 1009 -475 1290 -558 
Q 1572 -641 1856 -641 
Q 2406 -641 2662 -400 
Q 2919 -159 2919 353 
L 2919 594 
z
M 2181 2772 
Q 1834 2772 1640 2515 
Q 1447 2259 1447 1791 
Q 1447 1309 1634 1061 
Q 1822 813 2181 813 
Q 2531 813 2725 1069 
Q 2919 1325 2919 1791 
Q 2919 2259 2725 2515 
Q 2531 2772 2181 2772 
z
" transform="scale(0.015625)"/>
     </defs>
     <use xlink:href="#DejaVuSans-Bold-52"/>
     <use xlink:href="#DejaVuSans-Bold-65" transform="translate(77.001953 0)"/>
     <use xlink:href="#DejaVuSans-Bold-61" transform="translate(144.824219 0)"/>
     <use xlink:href="#DejaVuSans-Bold-64" transform="translate(212.304688 0)"/>
     <use xlink:href="#DejaVuSans-Bold-20" transform="translate(283.886719 0)"/>
     <use xlink:href="#DejaVuSans-Bold-66" transform="translate(318.701172 0)"/>
     <use xlink:href="#DejaVuSans-Bold-69" transform="translate(362.207031 0)"/>
     <use xlink:href="#DejaVuSans-Bold-6e" transform="translate(396.484375 0)"/>
     <use xlink:href="#DejaVuSans-Bold-64" transform="translate(467.675781 0)"/>
     <use xlink:href="#DejaVuSans-Bold-69" transform="translate(539.257812 0)"/>
     <use xlink:href="#DejaVuSans-Bold-6e" transform="translate(573.535156 0)"/>
     <use xlink:href="#DejaVuSans-Bold-67" transform="translate(644.726562 0)"/>
     <use xlink:href="#DejaVuSans-Bold-73" transform="translate(716.308594 0)"/>
    </g>
   </g>
   <g id="text_9">
    <!-- scalar is secondary -->
    <g style="fill: #cfb991" transform="translate(482.485844 235.320156) scale(0.1 -0.1)">
     <use xlink:href="#DejaVuSans-73"/>
     <use xlink:href="#DejaVuSans-63" transform="translate(52.099609 0)"/>
     <use xlink:href="#DejaVuSans-61" transform="translate(107.080078 0)"/>
     <use xlink:href="#DejaVuSans-6c" transform="translate(168.359375 0)"/>
     <use xlink:href="#DejaVuSans-61" transform="translate(196.142578 0)"/>
     <use xlink:href="#DejaVuSans-72" transform="translate(257.421875 0)"/>
     <use xlink:href="#DejaVuSans-20" transform="translate(298.535156 0)"/>
     <use xlink:href="#DejaVuSans-69" transform="translate(330.322266 0)"/>
     <use xlink:href="#DejaVuSans-73" transform="translate(358.105469 0)"/>
     <use xlink:href="#DejaVuSans-20" transform="translate(410.205078 0)"/>
     <use xlink:href="#DejaVuSans-73" transform="translate(441.992188 0)"/>
     <use xlink:href="#DejaVuSans-65" transform="translate(494.091797 0)"/>
     <use xlink:href="#DejaVuSans-63" transform="translate(555.615234 0)"/>
     <use xlink:href="#DejaVuSans-6f" transform="translate(610.595703 0)"/>
     <use xlink:href="#DejaVuSans-6e" transform="translate(671.777344 0)"/>
     <use xlink:href="#DejaVuSans-64" transform="translate(735.15625 0)"/>
     <use xlink:href="#DejaVuSans-61" transform="translate(798.632812 0)"/>
     <use xlink:href="#DejaVuSans-72" transform="translate(859.912109 0)"/>
     <use xlink:href="#DejaVuSans-79" transform="translate(901.025391 0)"/>
    </g>
    <!-- to the list -->
    <g style="fill: #cfb991" transform="translate(506.749906 246.517969) scale(0.1 -0.1)">
     <use xlink:href="#DejaVuSans-74"/>
     <use xlink:href="#DejaVuSans-6f" transform="translate(39.208984 0)"/>
     <use xlink:href="#DejaVuSans-20" transform="translate(100.390625 0)"/>
     <use xlink:href="#DejaVuSans-74" transform="translate(132.177734 0)"/>
     <use xlink:href="#DejaVuSans-68" transform="translate(171.386719 0)"/>
     <use xlink:href="#DejaVuSans-65" transform="translate(234.765625 0)"/>
     <use xlink:href="#DejaVuSans-20" transform="translate(296.289062 0)"/>
     <use xlink:href="#DejaVuSans-6c" transform="translate(328.076172 0)"/>
     <use xlink:href="#DejaVuSans-69" transform="translate(355.859375 0)"/>
     <use xlink:href="#DejaVuSans-73" transform="translate(383.642578 0)"/>
     <use xlink:href="#DejaVuSans-74" transform="translate(435.742188 0)"/>
    </g>
   </g>
   <g id="text_10">
    <!-- Refuse dual gate — what the score actually is -->
    <g transform="translate(170.981328 17.077969) scale(0.13 -0.13)">
     <defs>
      <path id="DejaVuSans-Bold-2014" d="M 344 2156 
L 6056 2156 
L 6056 1350 
L 344 1350 
L 344 2156 
z
" transform="scale(0.015625)"/>
      <path id="DejaVuSans-Bold-68" d="M 4056 2131 
L 4056 0 
L 2931 0 
L 2931 347 
L 2931 1625 
Q 2931 2084 2911 2256 
Q 2891 2428 2841 2509 
Q 2775 2619 2662 2680 
Q 2550 2741 2406 2741 
Q 2056 2741 1856 2470 
Q 1656 2200 1656 1722 
L 1656 0 
L 538 0 
L 538 4863 
L 1656 4863 
L 1656 2988 
Q 1909 3294 2193 3439 
Q 2478 3584 2822 3584 
Q 3428 3584 3742 3212 
Q 4056 2841 4056 2131 
z
" transform="scale(0.015625)"/>
     </defs>
     <use xlink:href="#DejaVuSans-Bold-52"/>
     <use xlink:href="#DejaVuSans-Bold-65" transform="translate(77.001953 0)"/>
     <use xlink:href="#DejaVuSans-Bold-66" transform="translate(144.824219 0)"/>
     <use xlink:href="#DejaVuSans-Bold-75" transform="translate(188.330078 0)"/>
     <use xlink:href="#DejaVuSans-Bold-73" transform="translate(259.521484 0)"/>
     <use xlink:href="#DejaVuSans-Bold-65" transform="translate(319.042969 0)"/>
     <use xlink:href="#DejaVuSans-Bold-20" transform="translate(386.865234 0)"/>
     <use xlink:href="#DejaVuSans-Bold-64" transform="translate(421.679688 0)"/>
     <use xlink:href="#DejaVuSans-Bold-75" transform="translate(493.261719 0)"/>
     <use xlink:href="#DejaVuSans-Bold-61" transform="translate(564.453125 0)"/>
     <use xlink:href="#DejaVuSans-Bold-6c" transform="translate(631.933594 0)"/>
     <use xlink:href="#DejaVuSans-Bold-20" transform="translate(666.210938 0)"/>
     <use xlink:href="#DejaVuSans-Bold-67" transform="translate(701.025391 0)"/>
     <use xlink:href="#DejaVuSans-Bold-61" transform="translate(772.607422 0)"/>
     <use xlink:href="#DejaVuSans-Bold-74" transform="translate(840.087891 0)"/>
     <use xlink:href="#DejaVuSans-Bold-65" transform="translate(887.890625 0)"/>
     <use xlink:href="#DejaVuSans-Bold-20" transform="translate(955.712891 0)"/>
     <use xlink:href="#DejaVuSans-Bold-2014" transform="translate(990.527344 0)"/>
     <use xlink:href="#DejaVuSans-Bold-20" transform="translate(1090.527344 0)"/>
     <use xlink:href="#DejaVuSans-Bold-77" transform="translate(1125.341797 0)"/>
     <use xlink:href="#DejaVuSans-Bold-68" transform="translate(1217.724609 0)"/>
     <use xlink:href="#DejaVuSans-Bold-61" transform="translate(1288.916016 0)"/>
     <use xlink:href="#DejaVuSans-Bold-74" transform="translate(1356.396484 0)"/>
     <use xlink:href="#DejaVuSans-Bold-20" transform="translate(1404.199219 0)"/>
     <use xlink:href="#DejaVuSans-Bold-74" transform="translate(1439.013672 0)"/>
     <use xlink:href="#DejaVuSans-Bold-68" transform="translate(1486.816406 0)"/>
     <use xlink:href="#DejaVuSans-Bold-65" transform="translate(1558.007812 0)"/>
     <use xlink:href="#DejaVuSans-Bold-20" transform="translate(1625.830078 0)"/>
     <use xlink:href="#DejaVuSans-Bold-73" transform="translate(1660.644531 0)"/>
     <use xlink:href="#DejaVuSans-Bold-63" transform="translate(1720.166016 0)"/>
     <use xlink:href="#DejaVuSans-Bold-6f" transform="translate(1779.443359 0)"/>
     <use xlink:href="#DejaVuSans-Bold-72" transform="translate(1848.144531 0)"/>
     <use xlink:href="#DejaVuSans-Bold-65" transform="translate(1897.460938 0)"/>
     <use xlink:href="#DejaVuSans-Bold-20" transform="translate(1965.283203 0)"/>
     <use xlink:href="#DejaVuSans-Bold-61" transform="translate(2000.097656 0)"/>
     <use xlink:href="#DejaVuSans-Bold-63" transform="translate(2067.578125 0)"/>
     <use xlink:href="#DejaVuSans-Bold-74" transform="translate(2126.855469 0)"/>
     <use xlink:href="#DejaVuSans-Bold-75" transform="translate(2174.658203 0)"/>
     <use xlink:href="#DejaVuSans-Bold-61" transform="translate(2245.849609 0)"/>
     <use xlink:href="#DejaVuSans-Bold-6c" transform="translate(2313.330078 0)"/>
     <use xlink:href="#DejaVuSans-Bold-6c" transform="translate(2347.607422 0)"/>
     <use xlink:href="#DejaVuSans-Bold-79" transform="translate(2381.884766 0)"/>
     <use xlink:href="#DejaVuSans-Bold-20" transform="translate(2447.070312 0)"/>
     <use xlink:href="#DejaVuSans-Bold-69" transform="translate(2481.884766 0)"/>
     <use xlink:href="#DejaVuSans-Bold-73" transform="translate(2516.162109 0)"/>
    </g>
   </g>
  </g>
 </g>
 <defs>
  <clipPath id="pc58d8ba2bc">
   <rect x="7.2" y="23.077969" width="662.4" height="279.3"/>
  </clipPath>
 </defs>
</svg>
