<?xml version="1.0" encoding="utf-8" standalone="no"?>
<!DOCTYPE svg PUBLIC "-//W3C//DTD SVG 1.1//EN"
  "http://www.w3.org/Graphics/SVG/1.1/DTD/svg11.dtd">
<svg xmlns:xlink="http://www.w3.org/1999/xlink" width="744.48pt" height="384.48pt" viewBox="0 0 744.48 384.48" xmlns="http://www.w3.org/2000/svg" version="1.1">
 <metadata>
  <rdf:RDF xmlns:dc="http://purl.org/dc/elements/1.1/" xmlns:cc="http://creativecommons.org/ns#" xmlns:rdf="http://www.w3.org/1999/02/22-rdf-syntax-ns#">
   <cc:Work>
    <dc:type rdf:resource="http://purl.org/dc/dcmitype/StillImage"/>
    <dc:date>2026-07-12T17:27:13.991510</dc:date>
    <dc:format>image/svg+xml</dc:format>
    <dc:creator>
     <cc:Agent>
      <dc:title>Matplotlib v3.10.9, https://matplotlib.org/</dc:title>
     </cc:Agent>
    </dc:creator>
   </cc:Work>
  </rdf:RDF>
 </metadata>
 <defs>
  <style type="text/css">*{stroke-linejoin: round; stroke-linecap: butt}</style>
 </defs>
 <g id="figure_1">
  <g id="patch_1">
   <path d="M 0 384.48 
L 744.48 384.48 
L 744.48 0 
L 0 0 
z
"/>
  </g>
  <g id="axes_1">
   <g id="patch_2">
    <path d="M 49.3416 347.585806 
L 260.3304 347.585806 
L 260.3304 193.378065 
L 49.3416 193.378065 
z
" clip-path="url(#p584837bcc7)" style="stroke: #d0d0d0; stroke-linejoin: miter"/>
   </g>
   <g id="patch_3">
    <path d="M 266.7456 347.585806 
L 477.7344 347.585806 
L 477.7344 193.378065 
L 266.7456 193.378065 
z
" clip-path="url(#p584837bcc7)" style="stroke: #d0d0d0; stroke-linejoin: miter"/>
   </g>
   <g id="patch_4">
    <path d="M 484.1496 347.585806 
L 695.1384 347.585806 
L 695.1384 193.378065 
L 484.1496 193.378065 
z
" clip-path="url(#p584837bcc7)" style="stroke: #d0d0d0; stroke-linejoin: miter"/>
   </g>
   <g id="line2d_1">
    <path d="M 101.376 47.136774 
L 643.104 47.136774 
" clip-path="url(#p584837bcc7)" style="fill: none; stroke: #3a3a3a; stroke-width: 0.8; stroke-linecap: square"/>
   </g>
   <g id="text_1">
    <!-- Refuse dual gate — what the score actually is -->
    <g style="fill: #f2f2f2" transform="translate(210.161562 32.910968) scale(0.14 -0.14)">
     <defs>
      <path id="DejaVuSerif-52" d="M 3066 2316 
Q 3284 2256 3442 2114 
Q 3600 1972 3725 1716 
L 4403 331 
L 4972 331 
L 4972 0 
L 3872 0 
L 3144 1484 
Q 2934 1916 2759 2042 
Q 2584 2169 2278 2169 
L 1581 2169 
L 1581 331 
L 2241 331 
L 2241 0 
L 353 0 
L 353 331 
L 947 331 
L 947 4331 
L 353 4331 
L 353 4666 
L 2719 4666 
Q 3400 4666 3770 4341 
Q 4141 4016 4141 3419 
Q 4141 2938 3870 2661 
Q 3600 2384 3066 2316 
z
M 1581 2503 
L 2503 2503 
Q 2975 2503 3200 2726 
Q 3425 2950 3425 3419 
Q 3425 3888 3200 4109 
Q 2975 4331 2503 4331 
L 1581 4331 
L 1581 2503 
z
" transform="scale(0.015625)"/>
      <path id="DejaVuSerif-65" d="M 3469 1600 
L 991 1600 
L 991 1575 
Q 991 903 1244 561 
Q 1497 219 1991 219 
Q 2369 219 2611 417 
Q 2853 616 2950 1006 
L 3413 1006 
Q 3275 459 2904 184 
Q 2534 -91 1931 -91 
Q 1203 -91 761 389 
Q 319 869 319 1663 
Q 319 2450 753 2931 
Q 1188 3413 1894 3413 
Q 2647 3413 3050 2948 
Q 3453 2484 3469 1600 
z
M 2791 1931 
Q 2772 2513 2545 2808 
Q 2319 3103 1894 3103 
Q 1497 3103 1269 2806 
Q 1041 2509 991 1931 
L 2791 1931 
z
" transform="scale(0.015625)"/>
      <path id="DejaVuSerif-66" d="M 2753 4078 
L 2450 4078 
Q 2447 4313 2317 4434 
Q 2188 4556 1941 4556 
Q 1619 4556 1487 4379 
Q 1356 4203 1356 3750 
L 1356 3322 
L 2284 3322 
L 2284 2988 
L 1356 2988 
L 1356 331 
L 2094 331 
L 2094 0 
L 231 0 
L 231 331 
L 781 331 
L 781 2988 
L 231 2988 
L 231 3322 
L 781 3322 
L 781 3738 
Q 781 4294 1070 4578 
Q 1359 4863 1919 4863 
Q 2128 4863 2337 4825 
Q 2547 4788 2753 4709 
L 2753 4078 
z
" transform="scale(0.015625)"/>
      <path id="DejaVuSerif-75" d="M 2266 3322 
L 3341 3322 
L 3341 331 
L 3884 331 
L 3884 0 
L 2766 0 
L 2766 588 
Q 2606 256 2353 82 
Q 2100 -91 1766 -91 
Q 1213 -91 952 223 
Q 691 538 691 1209 
L 691 2988 
L 172 2988 
L 172 3322 
L 1269 3322 
L 1269 1388 
Q 1269 781 1417 556 
Q 1566 331 1947 331 
Q 2347 331 2556 625 
Q 2766 919 2766 1478 
L 2766 2988 
L 2266 2988 
L 2266 3322 
z
" transform="scale(0.015625)"/>
      <path id="DejaVuSerif-73" d="M 359 184 
L 359 959 
L 691 959 
Q 703 588 923 403 
Q 1144 219 1575 219 
Q 1963 219 2166 364 
Q 2369 509 2369 788 
Q 2369 1006 2220 1140 
Q 2072 1275 1594 1428 
L 1178 1569 
Q 750 1706 558 1912 
Q 366 2119 366 2438 
Q 366 2894 700 3153 
Q 1034 3413 1625 3413 
Q 1888 3413 2178 3344 
Q 2469 3275 2778 3144 
L 2778 2419 
L 2447 2419 
Q 2434 2741 2221 2922 
Q 2009 3103 1644 3103 
Q 1281 3103 1095 2975 
Q 909 2847 909 2591 
Q 909 2381 1050 2254 
Q 1191 2128 1613 1997 
L 2069 1856 
Q 2541 1709 2748 1489 
Q 2956 1269 2956 922 
Q 2956 450 2595 179 
Q 2234 -91 1600 -91 
Q 1278 -91 972 -22 
Q 666 47 359 184 
z
" transform="scale(0.015625)"/>
      <path id="DejaVuSerif-20" transform="scale(0.015625)"/>
      <path id="DejaVuSerif-64" d="M 3359 331 
L 3909 331 
L 3909 0 
L 2784 0 
L 2784 519 
Q 2616 206 2355 57 
Q 2094 -91 1709 -91 
Q 1097 -91 708 395 
Q 319 881 319 1663 
Q 319 2444 706 2928 
Q 1094 3413 1709 3413 
Q 2094 3413 2355 3264 
Q 2616 3116 2784 2803 
L 2784 4531 
L 2241 4531 
L 2241 4863 
L 3359 4863 
L 3359 331 
z
M 2784 1497 
L 2784 1825 
Q 2784 2422 2554 2737 
Q 2325 3053 1888 3053 
Q 1444 3053 1217 2703 
Q 991 2353 991 1663 
Q 991 975 1217 622 
Q 1444 269 1888 269 
Q 2325 269 2554 583 
Q 2784 897 2784 1497 
z
" transform="scale(0.015625)"/>
      <path id="DejaVuSerif-61" d="M 2547 1044 
L 2547 1747 
L 1806 1747 
Q 1378 1747 1168 1562 
Q 959 1378 959 997 
Q 959 650 1171 447 
Q 1384 244 1747 244 
Q 2106 244 2326 466 
Q 2547 688 2547 1044 
z
M 3122 2075 
L 3122 331 
L 3634 331 
L 3634 0 
L 2547 0 
L 2547 359 
Q 2356 128 2106 18 
Q 1856 -91 1522 -91 
Q 969 -91 644 203 
Q 319 497 319 997 
Q 319 1513 691 1797 
Q 1063 2081 1741 2081 
L 2547 2081 
L 2547 2309 
Q 2547 2688 2317 2895 
Q 2088 3103 1672 3103 
Q 1328 3103 1125 2947 
Q 922 2791 872 2484 
L 575 2484 
L 575 3156 
Q 875 3284 1158 3348 
Q 1441 3413 1709 3413 
Q 2400 3413 2761 3070 
Q 3122 2728 3122 2075 
z
" transform="scale(0.015625)"/>
      <path id="DejaVuSerif-6c" d="M 1313 331 
L 1856 331 
L 1856 0 
L 184 0 
L 184 331 
L 738 331 
L 738 4531 
L 184 4531 
L 184 4863 
L 1313 4863 
L 1313 331 
z
" transform="scale(0.015625)"/>
      <path id="DejaVuSerif-67" d="M 3359 2988 
L 3359 72 
Q 3359 -644 2965 -1033 
Q 2572 -1422 1844 -1422 
Q 1516 -1422 1216 -1362 
Q 916 -1303 641 -1184 
L 641 -488 
L 941 -488 
Q 997 -813 1206 -963 
Q 1416 -1113 1806 -1113 
Q 2313 -1113 2548 -827 
Q 2784 -541 2784 72 
L 2784 519 
Q 2616 206 2355 57 
Q 2094 -91 1709 -91 
Q 1097 -91 708 395 
Q 319 881 319 1663 
Q 319 2444 706 2928 
Q 1094 3413 1709 3413 
Q 2094 3413 2355 3264 
Q 2616 3116 2784 2803 
L 2784 3322 
L 3909 3322 
L 3909 2988 
L 3359 2988 
z
M 2784 1825 
Q 2784 2422 2554 2737 
Q 2325 3053 1888 3053 
Q 1444 3053 1217 2703 
Q 991 2353 991 1663 
Q 991 975 1217 622 
Q 1444 269 1888 269 
Q 2325 269 2554 583 
Q 2784 897 2784 1497 
L 2784 1825 
z
" transform="scale(0.015625)"/>
      <path id="DejaVuSerif-74" d="M 691 2988 
L 184 2988 
L 184 3322 
L 691 3322 
L 691 4353 
L 1269 4353 
L 1269 3322 
L 2350 3322 
L 2350 2988 
L 1269 2988 
L 1269 878 
Q 1269 456 1350 337 
Q 1431 219 1650 219 
Q 1875 219 1978 351 
Q 2081 484 2088 781 
L 2522 781 
Q 2497 328 2275 118 
Q 2053 -91 1600 -91 
Q 1103 -91 897 129 
Q 691 350 691 878 
L 691 2988 
z
" transform="scale(0.015625)"/>
      <path id="DejaVuSerif-2014" d="M 281 1906 
L 6119 1906 
L 6119 1491 
L 281 1491 
L 281 1906 
z
" transform="scale(0.015625)"/>
      <path id="DejaVuSerif-77" d="M 3072 3322 
L 3922 728 
L 4672 2988 
L 4191 2988 
L 4191 3322 
L 5394 3322 
L 5394 2988 
L 5025 2988 
L 4038 0 
L 3559 0 
L 2741 2484 
L 1919 0 
L 1459 0 
L 475 2988 
L 103 2988 
L 103 3322 
L 1606 3322 
L 1606 2988 
L 1069 2988 
L 1813 728 
L 2669 3322 
L 3072 3322 
z
" transform="scale(0.015625)"/>
      <path id="DejaVuSerif-68" d="M 263 0 
L 263 331 
L 781 331 
L 781 4531 
L 231 4531 
L 231 4863 
L 1356 4863 
L 1356 2731 
Q 1516 3069 1770 3241 
Q 2025 3413 2363 3413 
Q 2913 3413 3172 3097 
Q 3431 2781 3431 2113 
L 3431 331 
L 3944 331 
L 3944 0 
L 2356 0 
L 2356 331 
L 2853 331 
L 2853 1931 
Q 2853 2541 2704 2764 
Q 2556 2988 2175 2988 
Q 1775 2988 1565 2697 
Q 1356 2406 1356 1850 
L 1356 331 
L 1856 331 
L 1856 0 
L 263 0 
z
" transform="scale(0.015625)"/>
      <path id="DejaVuSerif-63" d="M 3291 997 
Q 3169 466 2822 187 
Q 2475 -91 1925 -91 
Q 1200 -91 759 389 
Q 319 869 319 1663 
Q 319 2459 759 2936 
Q 1200 3413 1925 3413 
Q 2241 3413 2553 3339 
Q 2866 3266 3181 3116 
L 3181 2266 
L 2847 2266 
Q 2781 2703 2561 2903 
Q 2341 3103 1931 3103 
Q 1466 3103 1228 2742 
Q 991 2381 991 1663 
Q 991 944 1227 581 
Q 1463 219 1931 219 
Q 2303 219 2525 412 
Q 2747 606 2828 997 
L 3291 997 
z
" transform="scale(0.015625)"/>
      <path id="DejaVuSerif-6f" d="M 1925 219 
Q 2388 219 2623 584 
Q 2859 950 2859 1663 
Q 2859 2375 2623 2739 
Q 2388 3103 1925 3103 
Q 1463 3103 1227 2739 
Q 991 2375 991 1663 
Q 991 950 1228 584 
Q 1466 219 1925 219 
z
M 1925 -91 
Q 1200 -91 759 389 
Q 319 869 319 1663 
Q 319 2456 758 2934 
Q 1197 3413 1925 3413 
Q 2653 3413 3092 2934 
Q 3531 2456 3531 1663 
Q 3531 869 3092 389 
Q 2653 -91 1925 -91 
z
" transform="scale(0.015625)"/>
      <path id="DejaVuSerif-72" d="M 3059 3328 
L 3059 2497 
L 2728 2497 
Q 2713 2744 2591 2866 
Q 2469 2988 2234 2988 
Q 1809 2988 1582 2694 
Q 1356 2400 1356 1850 
L 1356 331 
L 2022 331 
L 2022 0 
L 263 0 
L 263 331 
L 781 331 
L 781 2994 
L 231 2994 
L 231 3322 
L 1356 3322 
L 1356 2731 
Q 1525 3078 1790 3245 
Q 2056 3413 2438 3413 
Q 2578 3413 2733 3391 
Q 2888 3369 3059 3328 
z
" transform="scale(0.015625)"/>
      <path id="DejaVuSerif-79" d="M 1381 -609 
L 1600 -56 
L 359 2988 
L -19 2988 
L -19 3322 
L 1509 3322 
L 1509 2988 
L 978 2988 
L 1913 703 
L 2847 2988 
L 2350 2988 
L 2350 3322 
L 3597 3322 
L 3597 2988 
L 3225 2988 
L 1703 -750 
Q 1547 -1138 1356 -1280 
Q 1166 -1422 819 -1422 
Q 672 -1422 517 -1397 
Q 363 -1372 206 -1325 
L 206 -691 
L 500 -691 
Q 519 -903 608 -995 
Q 697 -1088 884 -1088 
Q 1056 -1088 1161 -992 
Q 1266 -897 1381 -609 
z
" transform="scale(0.015625)"/>
      <path id="DejaVuSerif-69" d="M 622 4353 
Q 622 4497 726 4603 
Q 831 4709 978 4709 
Q 1122 4709 1226 4603 
Q 1331 4497 1331 4353 
Q 1331 4206 1228 4103 
Q 1125 4000 978 4000 
Q 831 4000 726 4103 
Q 622 4206 622 4353 
z
M 1356 331 
L 1900 331 
L 1900 0 
L 231 0 
L 231 331 
L 781 331 
L 781 2988 
L 231 2988 
L 231 3322 
L 1356 3322 
L 1356 331 
z
" transform="scale(0.015625)"/>
     </defs>
     <use xlink:href="#DejaVuSerif-52"/>
     <use xlink:href="#DejaVuSerif-65" transform="translate(75.292969 0)"/>
     <use xlink:href="#DejaVuSerif-66" transform="translate(134.472656 0)"/>
     <use xlink:href="#DejaVuSerif-75" transform="translate(171.484375 0)"/>
     <use xlink:href="#DejaVuSerif-73" transform="translate(235.888672 0)"/>
     <use xlink:href="#DejaVuSerif-65" transform="translate(287.207031 0)"/>
     <use xlink:href="#DejaVuSerif-20" transform="translate(346.386719 0)"/>
     <use xlink:href="#DejaVuSerif-64" transform="translate(378.173828 0)"/>
     <use xlink:href="#DejaVuSerif-75" transform="translate(442.1875 0)"/>
     <use xlink:href="#DejaVuSerif-61" transform="translate(506.591797 0)"/>
     <use xlink:href="#DejaVuSerif-6c" transform="translate(566.210938 0)"/>
     <use xlink:href="#DejaVuSerif-20" transform="translate(598.193359 0)"/>
     <use xlink:href="#DejaVuSerif-67" transform="translate(629.980469 0)"/>
     <use xlink:href="#DejaVuSerif-61" transform="translate(693.994141 0)"/>
     <use xlink:href="#DejaVuSerif-74" transform="translate(753.613281 0)"/>
     <use xlink:href="#DejaVuSerif-65" transform="translate(793.798828 0)"/>
     <use xlink:href="#DejaVuSerif-20" transform="translate(852.978516 0)"/>
     <use xlink:href="#DejaVuSerif-2014" transform="translate(884.765625 0)"/>
     <use xlink:href="#DejaVuSerif-20" transform="translate(984.765625 0)"/>
     <use xlink:href="#DejaVuSerif-77" transform="translate(1016.552734 0)"/>
     <use xlink:href="#DejaVuSerif-68" transform="translate(1102.148438 0)"/>
     <use xlink:href="#DejaVuSerif-61" transform="translate(1166.552734 0)"/>
     <use xlink:href="#DejaVuSerif-74" transform="translate(1226.171875 0)"/>
     <use xlink:href="#DejaVuSerif-20" transform="translate(1266.357422 0)"/>
     <use xlink:href="#DejaVuSerif-74" transform="translate(1298.144531 0)"/>
     <use xlink:href="#DejaVuSerif-68" transform="translate(1338.330078 0)"/>
     <use xlink:href="#DejaVuSerif-65" transform="translate(1402.734375 0)"/>
     <use xlink:href="#DejaVuSerif-20" transform="translate(1461.914062 0)"/>
     <use xlink:href="#DejaVuSerif-73" transform="translate(1493.701172 0)"/>
     <use xlink:href="#DejaVuSerif-63" transform="translate(1545.019531 0)"/>
     <use xlink:href="#DejaVuSerif-6f" transform="translate(1601.025391 0)"/>
     <use xlink:href="#DejaVuSerif-72" transform="translate(1661.230469 0)"/>
     <use xlink:href="#DejaVuSerif-65" transform="translate(1709.033203 0)"/>
     <use xlink:href="#DejaVuSerif-20" transform="translate(1768.212891 0)"/>
     <use xlink:href="#DejaVuSerif-61" transform="translate(1800 0)"/>
     <use xlink:href="#DejaVuSerif-63" transform="translate(1859.619141 0)"/>
     <use xlink:href="#DejaVuSerif-74" transform="translate(1915.625 0)"/>
     <use xlink:href="#DejaVuSerif-75" transform="translate(1955.810547 0)"/>
     <use xlink:href="#DejaVuSerif-61" transform="translate(2020.214844 0)"/>
     <use xlink:href="#DejaVuSerif-6c" transform="translate(2079.833984 0)"/>
     <use xlink:href="#DejaVuSerif-6c" transform="translate(2111.816406 0)"/>
     <use xlink:href="#DejaVuSerif-79" transform="translate(2143.798828 0)"/>
     <use xlink:href="#DejaVuSerif-20" transform="translate(2200.292969 0)"/>
     <use xlink:href="#DejaVuSerif-69" transform="translate(2232.080078 0)"/>
     <use xlink:href="#DejaVuSerif-73" transform="translate(2264.0625 0)"/>
    </g>
   </g>
   <g id="text_2">
    <!-- blown_score  =  1 - product(1 - w_severity) -->
    <g style="fill: #f2f2f2" transform="translate(219.885 92.659355) scale(0.14 -0.14)">
     <defs>
      <path id="DejaVuSerif-62" d="M 738 331 
L 738 4531 
L 184 4531 
L 184 4863 
L 1313 4863 
L 1313 2803 
Q 1481 3116 1742 3264 
Q 2003 3413 2388 3413 
Q 3000 3413 3387 2928 
Q 3775 2444 3775 1663 
Q 3775 881 3387 395 
Q 3000 -91 2388 -91 
Q 2003 -91 1742 57 
Q 1481 206 1313 519 
L 1313 0 
L 184 0 
L 184 331 
L 738 331 
z
M 1313 1497 
Q 1313 897 1542 583 
Q 1772 269 2209 269 
Q 2650 269 2876 622 
Q 3103 975 3103 1663 
Q 3103 2353 2876 2703 
Q 2650 3053 2209 3053 
Q 1772 3053 1542 2737 
Q 1313 2422 1313 1825 
L 1313 1497 
z
" transform="scale(0.015625)"/>
      <path id="DejaVuSerif-6e" d="M 263 0 
L 263 331 
L 781 331 
L 781 2988 
L 231 2988 
L 231 3322 
L 1356 3322 
L 1356 2731 
Q 1516 3069 1770 3241 
Q 2025 3413 2363 3413 
Q 2913 3413 3172 3097 
Q 3431 2781 3431 2113 
L 3431 331 
L 3944 331 
L 3944 0 
L 2356 0 
L 2356 331 
L 2853 331 
L 2853 1931 
Q 2853 2541 2703 2767 
Q 2553 2994 2175 2994 
Q 1775 2994 1565 2701 
Q 1356 2409 1356 1850 
L 1356 331 
L 1856 331 
L 1856 0 
L 263 0 
z
" transform="scale(0.015625)"/>
      <path id="DejaVuSerif-5f" d="M 3200 -1259 
L 3200 -1509 
L 0 -1509 
L 0 -1259 
L 3200 -1259 
z
" transform="scale(0.015625)"/>
      <path id="DejaVuSerif-3d" d="M 678 2894 
L 4684 2894 
L 4684 2394 
L 678 2394 
L 678 2894 
z
M 678 1619 
L 4684 1619 
L 4684 1119 
L 678 1119 
L 678 1619 
z
" transform="scale(0.015625)"/>
      <path id="DejaVuSerif-31" d="M 909 0 
L 909 331 
L 1722 331 
L 1722 4213 
L 781 3603 
L 781 4013 
L 1919 4750 
L 2350 4750 
L 2350 331 
L 3163 331 
L 3163 0 
L 909 0 
z
" transform="scale(0.015625)"/>
      <path id="DejaVuSerif-2d" d="M 281 1959 
L 1881 1959 
L 1881 1472 
L 281 1472 
L 281 1959 
z
" transform="scale(0.015625)"/>
      <path id="DejaVuSerif-70" d="M 1313 1825 
L 1313 1497 
Q 1313 897 1542 583 
Q 1772 269 2209 269 
Q 2650 269 2876 622 
Q 3103 975 3103 1663 
Q 3103 2353 2876 2703 
Q 2650 3053 2209 3053 
Q 1772 3053 1542 2737 
Q 1313 2422 1313 1825 
z
M 738 2988 
L 184 2988 
L 184 3322 
L 1313 3322 
L 1313 2803 
Q 1481 3116 1742 3264 
Q 2003 3413 2388 3413 
Q 3000 3413 3387 2928 
Q 3775 2444 3775 1663 
Q 3775 881 3387 395 
Q 3000 -91 2388 -91 
Q 2003 -91 1742 57 
Q 1481 206 1313 519 
L 1313 -997 
L 1856 -997 
L 1856 -1331 
L 184 -1331 
L 184 -997 
L 738 -997 
L 738 2988 
z
" transform="scale(0.015625)"/>
      <path id="DejaVuSerif-28" d="M 2041 -997 
Q 1281 -656 893 83 
Q 506 822 506 1931 
Q 506 3044 893 3783 
Q 1281 4522 2041 4863 
L 2041 4556 
Q 1559 4225 1350 3623 
Q 1141 3022 1141 1931 
Q 1141 844 1350 242 
Q 1559 -359 2041 -691 
L 2041 -997 
z
" transform="scale(0.015625)"/>
      <path id="DejaVuSerif-76" d="M 1581 0 
L 359 2988 
L -19 2988 
L -19 3322 
L 1509 3322 
L 1509 2988 
L 978 2988 
L 1913 703 
L 2847 2988 
L 2350 2988 
L 2350 3322 
L 3597 3322 
L 3597 2988 
L 3225 2988 
L 2003 0 
L 1581 0 
z
" transform="scale(0.015625)"/>
      <path id="DejaVuSerif-29" d="M 453 -997 
L 453 -691 
Q 934 -359 1145 242 
Q 1356 844 1356 1931 
Q 1356 3022 1145 3623 
Q 934 4225 453 4556 
L 453 4863 
Q 1216 4522 1603 3783 
Q 1991 3044 1991 1931 
Q 1991 822 1603 83 
Q 1216 -656 453 -997 
z
" transform="scale(0.015625)"/>
     </defs>
     <use xlink:href="#DejaVuSerif-62"/>
     <use xlink:href="#DejaVuSerif-6c" transform="translate(64.013672 0)"/>
     <use xlink:href="#DejaVuSerif-6f" transform="translate(95.996094 0)"/>
     <use xlink:href="#DejaVuSerif-77" transform="translate(156.201172 0)"/>
     <use xlink:href="#DejaVuSerif-6e" transform="translate(241.796875 0)"/>
     <use xlink:href="#DejaVuSerif-5f" transform="translate(306.201172 0)"/>
     <use xlink:href="#DejaVuSerif-73" transform="translate(356.201172 0)"/>
     <use xlink:href="#DejaVuSerif-63" transform="translate(407.519531 0)"/>
     <use xlink:href="#DejaVuSerif-6f" transform="translate(463.525391 0)"/>
     <use xlink:href="#DejaVuSerif-72" transform="translate(523.730469 0)"/>
     <use xlink:href="#DejaVuSerif-65" transform="translate(571.533203 0)"/>
     <use xlink:href="#DejaVuSerif-20" transform="translate(630.712891 0)"/>
     <use xlink:href="#DejaVuSerif-20" transform="translate(662.5 0)"/>
     <use xlink:href="#DejaVuSerif-3d" transform="translate(694.287109 0)"/>
     <use xlink:href="#DejaVuSerif-20" transform="translate(778.076172 0)"/>
     <use xlink:href="#DejaVuSerif-20" transform="translate(809.863281 0)"/>
     <use xlink:href="#DejaVuSerif-31" transform="translate(841.650391 0)"/>
     <use xlink:href="#DejaVuSerif-20" transform="translate(905.273438 0)"/>
     <use xlink:href="#DejaVuSerif-2d" transform="translate(937.060547 0)"/>
     <use xlink:href="#DejaVuSerif-20" transform="translate(970.849609 0)"/>
     <use xlink:href="#DejaVuSerif-70" transform="translate(1002.636719 0)"/>
     <use xlink:href="#DejaVuSerif-72" transform="translate(1066.650391 0)"/>
     <use xlink:href="#DejaVuSerif-6f" transform="translate(1114.453125 0)"/>
     <use xlink:href="#DejaVuSerif-64" transform="translate(1174.658203 0)"/>
     <use xlink:href="#DejaVuSerif-75" transform="translate(1238.671875 0)"/>
     <use xlink:href="#DejaVuSerif-63" transform="translate(1303.076172 0)"/>
     <use xlink:href="#DejaVuSerif-74" transform="translate(1359.082031 0)"/>
     <use xlink:href="#DejaVuSerif-28" transform="translate(1399.267578 0)"/>
     <use xlink:href="#DejaVuSerif-31" transform="translate(1438.28125 0)"/>
     <use xlink:href="#DejaVuSerif-20" transform="translate(1501.904297 0)"/>
     <use xlink:href="#DejaVuSerif-2d" transform="translate(1533.691406 0)"/>
     <use xlink:href="#DejaVuSerif-20" transform="translate(1567.480469 0)"/>
     <use xlink:href="#DejaVuSerif-77" transform="translate(1599.267578 0)"/>
     <use xlink:href="#DejaVuSerif-5f" transform="translate(1684.863281 0)"/>
     <use xlink:href="#DejaVuSerif-73" transform="translate(1734.863281 0)"/>
     <use xlink:href="#DejaVuSerif-65" transform="translate(1786.181641 0)"/>
     <use xlink:href="#DejaVuSerif-76" transform="translate(1845.361328 0)"/>
     <use xlink:href="#DejaVuSerif-65" transform="translate(1901.855469 0)"/>
     <use xlink:href="#DejaVuSerif-72" transform="translate(1961.035156 0)"/>
     <use xlink:href="#DejaVuSerif-69" transform="translate(2008.837891 0)"/>
     <use xlink:href="#DejaVuSerif-74" transform="translate(2040.820312 0)"/>
     <use xlink:href="#DejaVuSerif-79" transform="translate(2081.005859 0)"/>
     <use xlink:href="#DejaVuSerif-29" transform="translate(2137.5 0)"/>
    </g>
   </g>
   <g id="text_3">
    <!-- refused  =  (any BAD finding)  or  (score &gt;= 0.6) -->
    <g style="fill: #f2f2f2" transform="translate(211.201484 132.491613) scale(0.13 -0.13)">
     <defs>
      <path id="DejaVuSerif-42" d="M 1581 331 
L 2516 331 
Q 3078 331 3337 575 
Q 3597 819 3597 1350 
Q 3597 1878 3339 2120 
Q 3081 2363 2516 2363 
L 1581 2363 
L 1581 331 
z
M 1581 2694 
L 2375 2694 
Q 2888 2694 3123 2891 
Q 3359 3088 3359 3513 
Q 3359 3941 3123 4136 
Q 2888 4331 2375 4331 
L 1581 4331 
L 1581 2694 
z
M 353 0 
L 353 331 
L 947 331 
L 947 4331 
L 353 4331 
L 353 4666 
L 2656 4666 
Q 3363 4666 3720 4377 
Q 4078 4088 4078 3513 
Q 4078 3097 3829 2850 
Q 3581 2603 3103 2547 
Q 3697 2472 4005 2167 
Q 4313 1863 4313 1350 
Q 4313 656 3875 328 
Q 3438 0 2509 0 
L 353 0 
z
" transform="scale(0.015625)"/>
      <path id="DejaVuSerif-41" d="M 1281 1691 
L 2994 1691 
L 2138 3909 
L 1281 1691 
z
M -38 0 
L -38 331 
L 372 331 
L 2034 4666 
L 2559 4666 
L 4225 331 
L 4684 331 
L 4684 0 
L 2988 0 
L 2988 331 
L 3506 331 
L 3116 1356 
L 1153 1356 
L 763 331 
L 1275 331 
L 1275 0 
L -38 0 
z
" transform="scale(0.015625)"/>
      <path id="DejaVuSerif-44" d="M 1581 331 
L 2163 331 
Q 3072 331 3558 850 
Q 4044 1369 4044 2338 
Q 4044 3306 3559 3818 
Q 3075 4331 2163 4331 
L 1581 4331 
L 1581 331 
z
M 353 0 
L 353 331 
L 947 331 
L 947 4331 
L 353 4331 
L 353 4666 
L 2209 4666 
Q 3416 4666 4089 4050 
Q 4763 3434 4763 2338 
Q 4763 1238 4088 619 
Q 3413 0 2209 0 
L 353 0 
z
" transform="scale(0.015625)"/>
      <path id="DejaVuSerif-3e" d="M 678 3188 
L 678 3719 
L 4684 2266 
L 4684 1747 
L 678 294 
L 678 825 
L 3922 2003 
L 678 3188 
z
" transform="scale(0.015625)"/>
      <path id="DejaVuSerif-30" d="M 2034 219 
Q 2513 219 2750 744 
Q 2988 1269 2988 2328 
Q 2988 3391 2750 3916 
Q 2513 4441 2034 4441 
Q 1556 4441 1318 3916 
Q 1081 3391 1081 2328 
Q 1081 1269 1318 744 
Q 1556 219 2034 219 
z
M 2034 -91 
Q 1275 -91 848 546 
Q 422 1184 422 2328 
Q 422 3475 848 4112 
Q 1275 4750 2034 4750 
Q 2797 4750 3222 4112 
Q 3647 3475 3647 2328 
Q 3647 1184 3222 546 
Q 2797 -91 2034 -91 
z
" transform="scale(0.015625)"/>
      <path id="DejaVuSerif-2e" d="M 603 325 
Q 603 500 722 622 
Q 841 744 1019 744 
Q 1191 744 1312 622 
Q 1434 500 1434 325 
Q 1434 153 1312 31 
Q 1191 -91 1019 -91 
Q 841 -91 722 29 
Q 603 150 603 325 
z
" transform="scale(0.015625)"/>
      <path id="DejaVuSerif-36" d="M 2094 219 
Q 2534 219 2771 542 
Q 3009 866 3009 1472 
Q 3009 2078 2771 2401 
Q 2534 2725 2094 2725 
Q 1647 2725 1412 2412 
Q 1178 2100 1178 1509 
Q 1178 888 1415 553 
Q 1653 219 2094 219 
z
M 1075 2569 
Q 1288 2803 1556 2918 
Q 1825 3034 2163 3034 
Q 2859 3034 3264 2615 
Q 3669 2197 3669 1472 
Q 3669 763 3233 336 
Q 2797 -91 2069 -91 
Q 1278 -91 853 498 
Q 428 1088 428 2181 
Q 428 3406 931 4078 
Q 1434 4750 2350 4750 
Q 2597 4750 2869 4703 
Q 3141 4656 3425 4563 
L 3425 3794 
L 3072 3794 
Q 3034 4109 2831 4275 
Q 2628 4441 2284 4441 
Q 1678 4441 1381 3981 
Q 1084 3522 1075 2569 
z
" transform="scale(0.015625)"/>
     </defs>
     <use xlink:href="#DejaVuSerif-72"/>
     <use xlink:href="#DejaVuSerif-65" transform="translate(47.802734 0)"/>
     <use xlink:href="#DejaVuSerif-66" transform="translate(106.982422 0)"/>
     <use xlink:href="#DejaVuSerif-75" transform="translate(143.994141 0)"/>
     <use xlink:href="#DejaVuSerif-73" transform="translate(208.398438 0)"/>
     <use xlink:href="#DejaVuSerif-65" transform="translate(259.716797 0)"/>
     <use xlink:href="#DejaVuSerif-64" transform="translate(318.896484 0)"/>
     <use xlink:href="#DejaVuSerif-20" transform="translate(382.910156 0)"/>
     <use xlink:href="#DejaVuSerif-20" transform="translate(414.697266 0)"/>
     <use xlink:href="#DejaVuSerif-3d" transform="translate(446.484375 0)"/>
     <use xlink:href="#DejaVuSerif-20" transform="translate(530.273438 0)"/>
     <use xlink:href="#DejaVuSerif-20" transform="translate(562.060547 0)"/>
     <use xlink:href="#DejaVuSerif-28" transform="translate(593.847656 0)"/>
     <use xlink:href="#DejaVuSerif-61" transform="translate(632.861328 0)"/>
     <use xlink:href="#DejaVuSerif-6e" transform="translate(692.480469 0)"/>
     <use xlink:href="#DejaVuSerif-79" transform="translate(756.884766 0)"/>
     <use xlink:href="#DejaVuSerif-20" transform="translate(813.378906 0)"/>
     <use xlink:href="#DejaVuSerif-42" transform="translate(845.166016 0)"/>
     <use xlink:href="#DejaVuSerif-41" transform="translate(918.652344 0)"/>
     <use xlink:href="#DejaVuSerif-44" transform="translate(990.869141 0)"/>
     <use xlink:href="#DejaVuSerif-20" transform="translate(1071.044922 0)"/>
     <use xlink:href="#DejaVuSerif-66" transform="translate(1102.832031 0)"/>
     <use xlink:href="#DejaVuSerif-69" transform="translate(1139.84375 0)"/>
     <use xlink:href="#DejaVuSerif-6e" transform="translate(1171.826172 0)"/>
     <use xlink:href="#DejaVuSerif-64" transform="translate(1236.230469 0)"/>
     <use xlink:href="#DejaVuSerif-69" transform="translate(1300.244141 0)"/>
     <use xlink:href="#DejaVuSerif-6e" transform="translate(1332.226562 0)"/>
     <use xlink:href="#DejaVuSerif-67" transform="translate(1396.630859 0)"/>
     <use xlink:href="#DejaVuSerif-29" transform="translate(1460.644531 0)"/>
     <use xlink:href="#DejaVuSerif-20" transform="translate(1499.658203 0)"/>
     <use xlink:href="#DejaVuSerif-20" transform="translate(1531.445312 0)"/>
     <use xlink:href="#DejaVuSerif-6f" transform="translate(1563.232422 0)"/>
     <use xlink:href="#DejaVuSerif-72" transform="translate(1623.4375 0)"/>
     <use xlink:href="#DejaVuSerif-20" transform="translate(1671.240234 0)"/>
     <use xlink:href="#DejaVuSerif-20" transform="translate(1703.027344 0)"/>
     <use xlink:href="#DejaVuSerif-28" transform="translate(1734.814453 0)"/>
     <use xlink:href="#DejaVuSerif-73" transform="translate(1773.828125 0)"/>
     <use xlink:href="#DejaVuSerif-63" transform="translate(1825.146484 0)"/>
     <use xlink:href="#DejaVuSerif-6f" transform="translate(1881.152344 0)"/>
     <use xlink:href="#DejaVuSerif-72" transform="translate(1941.357422 0)"/>
     <use xlink:href="#DejaVuSerif-65" transform="translate(1989.160156 0)"/>
     <use xlink:href="#DejaVuSerif-20" transform="translate(2048.339844 0)"/>
     <use xlink:href="#DejaVuSerif-3e" transform="translate(2080.126953 0)"/>
     <use xlink:href="#DejaVuSerif-3d" transform="translate(2163.916016 0)"/>
     <use xlink:href="#DejaVuSerif-20" transform="translate(2247.705078 0)"/>
     <use xlink:href="#DejaVuSerif-30" transform="translate(2279.492188 0)"/>
     <use xlink:href="#DejaVuSerif-2e" transform="translate(2343.115234 0)"/>
     <use xlink:href="#DejaVuSerif-36" transform="translate(2374.902344 0)"/>
     <use xlink:href="#DejaVuSerif-29" transform="translate(2438.525391 0)"/>
    </g>
   </g>
   <g id="text_4">
    <!-- severity monoid  ·  not a probability of fakery -->
    <g style="fill: #8a8a8a" transform="translate(257.700937 166.633548) scale(0.1 -0.1)">
     <defs>
      <path id="DejaVuSerif-Italic-73" d="M 222 959 
L 553 959 
Q 541 869 541 788 
Q 541 219 1313 219 
Q 2088 219 2200 788 
Q 2209 844 2209 944 
Q 2209 1041 2103 1158 
Q 1997 1275 1550 1428 
L 1159 1569 
Q 759 1706 629 1882 
Q 500 2059 500 2263 
Q 500 2344 516 2438 
Q 606 2894 990 3153 
Q 1375 3413 1931 3413 
Q 2484 3413 3066 3144 
L 2925 2419 
L 2594 2419 
Q 2606 2491 2606 2553 
Q 2606 2781 2448 2942 
Q 2291 3103 1925 3103 
Q 1191 3103 1091 2591 
Q 1078 2538 1078 2444 
Q 1078 2347 1179 2237 
Q 1281 2128 1678 1997 
L 2106 1856 
Q 2550 1709 2716 1488 
Q 2831 1331 2831 1178 
Q 2831 522 2306 181 
Q 1894 -91 1262 -91 
Q 631 -91 72 184 
L 222 959 
z
" transform="scale(0.015625)"/>
      <path id="DejaVuSerif-Italic-65" d="M 938 1275 
Q 925 1156 925 1050 
Q 925 756 1031 563 
Q 1216 219 1709 219 
Q 2072 219 2250 328 
Q 2569 525 2644 778 
L 3066 778 
Q 2941 381 2475 103 
Q 2150 -91 1506 -91 
Q 863 -91 516 388 
Q 272 722 272 1206 
Q 272 1419 319 1659 
Q 472 2450 1000 2931 
Q 1528 3413 2278 3413 
Q 3500 3413 3500 2547 
Q 3500 1913 2859 1603 
Q 2206 1288 938 1275 
z
M 2541 1975 
Q 2891 2181 2891 2569 
Q 2891 3103 2181 3103 
Q 1763 3103 1472 2784 
Q 1181 2466 1003 1606 
Q 2006 1653 2541 1975 
z
" transform="scale(0.015625)"/>
      <path id="DejaVuSerif-Italic-76" d="M 1681 0 
L 1259 0 
L 619 2988 
L 241 2988 
L 303 3322 
L 1163 3322 
L 1725 703 
Q 2084 1016 2325 1413 
Q 2825 2238 3003 2988 
L 2622 2988 
L 2688 3322 
L 3547 3322 
Q 3206 2034 2775 1313 
Q 2400 688 1681 0 
z
" transform="scale(0.015625)"/>
      <path id="DejaVuSerif-Italic-72" d="M 3375 3328 
L 3213 2497 
L 2881 2497 
Q 2891 2559 2891 2613 
Q 2891 2775 2816 2866 
Q 2719 2988 2484 2988 
Q 2059 2988 1775 2694 
Q 1491 2400 1384 1850 
L 1025 0 
L 450 0 
L 1031 2994 
L 481 2994 
L 544 3322 
L 1669 3322 
L 1556 2731 
Q 1791 3078 2089 3245 
Q 2388 3413 2769 3413 
Q 2909 3413 3059 3391 
Q 3209 3369 3375 3328 
z
" transform="scale(0.015625)"/>
      <path id="DejaVuSerif-Italic-69" d="M 1009 4353 
Q 1038 4497 1163 4603 
Q 1288 4709 1434 4709 
Q 1578 4709 1663 4603 
Q 1728 4522 1728 4422 
Q 1728 4388 1719 4353 
Q 1691 4206 1567 4103 
Q 1444 4000 1297 4000 
Q 1150 4000 1066 4103 
Q 1003 4181 1003 4281 
Q 1003 4316 1009 4353 
z
M 963 331 
L 1506 331 
L 1444 0 
L 325 0 
L 903 2988 
L 353 2988 
L 419 3322 
L 1544 3322 
L 963 331 
z
" transform="scale(0.015625)"/>
      <path id="DejaVuSerif-Italic-74" d="M 856 2988 
L 350 2988 
L 416 3322 
L 922 3322 
L 1122 4353 
L 1700 4353 
L 1500 3322 
L 2581 3322 
L 2516 2988 
L 1434 2988 
L 1025 878 
Q 978 631 978 488 
Q 978 388 1000 338 
Q 1059 219 1278 219 
Q 1503 219 1633 351 
Q 1763 484 1825 781 
L 2259 781 
Q 2147 328 1884 118 
Q 1622 -91 1169 -91 
Q 672 -91 506 131 
Q 406 266 406 516 
Q 406 675 447 878 
L 856 2988 
z
" transform="scale(0.015625)"/>
      <path id="DejaVuSerif-Italic-79" d="M 3681 3294 
Q 3372 1506 2828 563 
Q 2031 -822 1391 -1238 
Q 1106 -1422 356 -1422 
Q 209 -1422 60 -1397 
Q -88 -1372 -238 -1325 
L -113 -691 
L 181 -691 
Q 175 -741 175 -788 
Q 175 -919 231 -994 
Q 309 -1100 513 -1100 
Q 1063 -1100 1541 -622 
L 756 2988 
L 378 2988 
L 444 3322 
L 1303 3322 
L 2041 25 
Q 2544 778 2666 1088 
Q 3059 2059 3138 2959 
L 2759 2959 
L 2825 3294 
L 3681 3294 
z
" transform="scale(0.015625)"/>
      <path id="DejaVuSerif-Italic-20" transform="scale(0.015625)"/>
      <path id="DejaVuSerif-Italic-6d" d="M 3503 2675 
Q 3741 3041 4034 3227 
Q 4328 3413 4672 3413 
Q 5194 3413 5388 3088 
Q 5503 2894 5503 2578 
Q 5503 2372 5453 2113 
L 5106 331 
L 5625 331 
L 5563 0 
L 4469 0 
L 4866 2047 
Q 4913 2291 4913 2466 
Q 4913 2659 4856 2772 
Q 4750 2988 4403 2988 
Q 4019 2988 3761 2697 
Q 3503 2406 3394 1850 
L 3034 0 
L 2459 0 
L 2863 2069 
Q 2906 2303 2906 2472 
Q 2906 2666 2850 2775 
Q 2741 2988 2394 2988 
Q 2009 2988 1751 2697 
Q 1494 2406 1384 1850 
L 1025 0 
L 450 0 
L 1031 2994 
L 481 2994 
L 544 3322 
L 1669 3322 
L 1556 2731 
Q 1778 3063 2059 3238 
Q 2341 3413 2653 3413 
Q 3041 3413 3262 3220 
Q 3484 3028 3503 2675 
z
" transform="scale(0.015625)"/>
      <path id="DejaVuSerif-Italic-6f" d="M 1644 219 
Q 2106 219 2414 584 
Q 2722 950 2859 1663 
Q 2922 1988 2922 2241 
Q 2922 2541 2834 2738 
Q 2669 3103 2206 3103 
Q 1744 3103 1436 2739 
Q 1128 2375 991 1663 
Q 928 1338 928 1088 
Q 928 784 1019 584 
Q 1184 219 1644 219 
z
M 1584 -91 
Q 859 -91 513 388 
Q 272 722 272 1203 
Q 272 1419 319 1663 
Q 472 2456 1005 2934 
Q 1538 3413 2266 3413 
Q 2994 3413 3341 2934 
Q 3578 2603 3578 2122 
Q 3578 1906 3531 1663 
Q 3378 869 2845 389 
Q 2313 -91 1584 -91 
z
" transform="scale(0.015625)"/>
      <path id="DejaVuSerif-Italic-6e" d="M 450 0 
L 1031 2988 
L 481 2988 
L 544 3322 
L 1669 3322 
L 1556 2731 
Q 1781 3069 2068 3241 
Q 2356 3413 2694 3413 
Q 3244 3413 3444 3097 
Q 3563 2906 3563 2588 
Q 3563 2378 3509 2113 
L 3163 331 
L 3675 331 
L 3613 0 
L 2522 0 
L 2897 1931 
Q 2959 2253 2959 2469 
Q 2959 2659 2909 2769 
Q 2803 2994 2425 2994 
Q 2025 2994 1759 2701 
Q 1494 2409 1384 1850 
L 1025 0 
L 450 0 
z
" transform="scale(0.015625)"/>
      <path id="DejaVuSerif-Italic-64" d="M 3841 4863 
L 2897 0 
L 2322 0 
L 2422 519 
Q 2191 206 1902 57 
Q 1613 -91 1228 -91 
Q 616 -91 322 394 
Q 125 716 125 1166 
Q 125 1397 178 1663 
Q 331 2444 812 2928 
Q 1294 3413 1909 3413 
Q 2294 3413 2525 3264 
Q 2756 3116 2866 2803 
L 3200 4531 
L 2656 4531 
L 2722 4863 
L 3841 4863 
z
M 2613 1497 
L 2675 1825 
Q 2722 2069 2722 2266 
Q 2722 2550 2622 2738 
Q 2456 3053 2019 3053 
Q 1575 3053 1279 2703 
Q 984 2353 850 1663 
Q 788 1347 788 1103 
Q 788 813 875 622 
Q 1031 269 1475 269 
Q 1913 269 2203 583 
Q 2494 897 2613 1497 
z
" transform="scale(0.015625)"/>
      <path id="DejaVuSerif-Italic-b7" d="M 594 2222 
Q 628 2397 772 2517 
Q 916 2638 1094 2638 
Q 1266 2638 1364 2516 
Q 1463 2394 1428 2222 
Q 1394 2047 1248 1926 
Q 1103 1806 931 1806 
Q 753 1806 656 1925 
Q 559 2044 594 2222 
z
" transform="scale(0.015625)"/>
      <path id="DejaVuSerif-Italic-61" d="M 2325 519 
Q 1909 -91 1238 -91 
Q 688 -91 409 281 
Q 216 544 216 919 
Q 216 1078 250 1256 
Q 463 2359 1231 2928 
Q 1884 3413 2675 3413 
Q 3206 3413 3388 3322 
L 2806 331 
L 3300 331 
L 3238 0 
L 2225 0 
L 2325 519 
z
M 822 938 
Q 822 269 1469 269 
Q 1863 269 2130 583 
Q 2397 897 2516 1497 
L 2806 3003 
L 2806 3003 
Q 2806 3094 2556 3094 
Q 1956 3094 1491 2625 
Q 1028 2153 863 1297 
Q 822 1097 822 938 
z
" transform="scale(0.015625)"/>
      <path id="DejaVuSerif-Italic-70" d="M 1466 1825 
L 1400 1497 
Q 1353 1250 1353 1053 
Q 1353 769 1453 581 
Q 1622 269 2059 269 
Q 2500 269 2795 622 
Q 3091 975 3225 1663 
Q 3284 1978 3284 2225 
Q 3284 2513 3200 2703 
Q 3041 3053 2600 3053 
Q 2163 3053 1872 2737 
Q 1581 2422 1466 1825 
z
M 1116 2988 
L 563 2988 
L 628 3322 
L 1756 3322 
L 1656 2803 
Q 1884 3116 2175 3264 
Q 2466 3413 2850 3413 
Q 3463 3413 3753 2928 
Q 3947 2609 3947 2163 
Q 3947 1928 3897 1663 
Q 3744 881 3262 395 
Q 2781 -91 2169 -91 
Q 1784 -91 1551 57 
Q 1319 206 1213 519 
L 850 -1331 
L 275 -1331 
L 1116 2988 
z
" transform="scale(0.015625)"/>
      <path id="DejaVuSerif-Italic-62" d="M 1153 4531 
L 600 4531 
L 666 4863 
L 1794 4863 
L 1394 2803 
Q 1622 3116 1912 3264 
Q 2203 3413 2588 3413 
Q 3200 3413 3494 2928 
Q 3688 2609 3688 2163 
Q 3688 1928 3634 1663 
Q 3481 881 3000 395 
Q 2519 -91 1906 -91 
Q 1522 -91 1289 57 
Q 1056 206 950 519 
L 850 0 
L 275 0 
L 1153 4531 
z
M 1141 1497 
Q 1091 1250 1091 1053 
Q 1091 769 1191 581 
Q 1359 269 1797 269 
Q 2238 269 2533 622 
Q 2828 975 2963 1663 
Q 3025 1978 3025 2225 
Q 3025 2513 2938 2703 
Q 2781 3053 2338 3053 
Q 1900 3053 1609 2737 
Q 1319 2422 1203 1825 
L 1141 1497 
z
" transform="scale(0.015625)"/>
      <path id="DejaVuSerif-Italic-6c" d="M 903 331 
L 1447 331 
L 1384 0 
L 266 0 
L 1147 4531 
L 594 4531 
L 656 4863 
L 1784 4863 
L 903 331 
z
" transform="scale(0.015625)"/>
      <path id="DejaVuSerif-Italic-66" d="M 3191 4078 
L 2888 4078 
Q 2900 4144 2900 4203 
Q 2900 4347 2825 4434 
Q 2719 4556 2472 4556 
Q 2150 4556 1984 4379 
Q 1819 4203 1731 3750 
L 1647 3322 
L 2575 3322 
L 2509 2988 
L 1581 2988 
L 963 -206 
Q 853 -763 509 -1047 
Q 166 -1331 -394 -1331 
L -356 -1025 
Q -28 -1025 131 -850 
Q 297 -663 388 -206 
L 1006 2988 
L 456 2988 
L 522 3322 
L 1072 3322 
L 1153 3738 
Q 1263 4297 1606 4578 
Q 1950 4863 2509 4863 
Q 2719 4863 2920 4825 
Q 3122 4788 3316 4709 
L 3191 4078 
z
" transform="scale(0.015625)"/>
      <path id="DejaVuSerif-Italic-6b" d="M 2113 2075 
L 3034 331 
L 3513 331 
L 3450 0 
L 2528 0 
L 1622 1697 
L 1088 1275 
L 841 0 
L 266 0 
L 1147 4531 
L 594 4531 
L 656 4863 
L 1784 4863 
L 1169 1697 
L 2822 2988 
L 2344 2988 
L 2406 3322 
L 3341 3322 
L 3278 2988 
L 2113 2075 
z
" transform="scale(0.015625)"/>
     </defs>
     <use xlink:href="#DejaVuSerif-Italic-73"/>
     <use xlink:href="#DejaVuSerif-Italic-65" transform="translate(51.318359 0)"/>
     <use xlink:href="#DejaVuSerif-Italic-76" transform="translate(110.498047 0)"/>
     <use xlink:href="#DejaVuSerif-Italic-65" transform="translate(166.992188 0)"/>
     <use xlink:href="#DejaVuSerif-Italic-72" transform="translate(226.171875 0)"/>
     <use xlink:href="#DejaVuSerif-Italic-69" transform="translate(273.974609 0)"/>
     <use xlink:href="#DejaVuSerif-Italic-74" transform="translate(305.957031 0)"/>
     <use xlink:href="#DejaVuSerif-Italic-79" transform="translate(346.142578 0)"/>
     <use xlink:href="#DejaVuSerif-Italic-20" transform="translate(402.636719 0)"/>
     <use xlink:href="#DejaVuSerif-Italic-6d" transform="translate(434.423828 0)"/>
     <use xlink:href="#DejaVuSerif-Italic-6f" transform="translate(529.248047 0)"/>
     <use xlink:href="#DejaVuSerif-Italic-6e" transform="translate(589.453125 0)"/>
     <use xlink:href="#DejaVuSerif-Italic-6f" transform="translate(653.857422 0)"/>
     <use xlink:href="#DejaVuSerif-Italic-69" transform="translate(714.0625 0)"/>
     <use xlink:href="#DejaVuSerif-Italic-64" transform="translate(746.044922 0)"/>
     <use xlink:href="#DejaVuSerif-Italic-20" transform="translate(810.058594 0)"/>
     <use xlink:href="#DejaVuSerif-Italic-20" transform="translate(841.845703 0)"/>
     <use xlink:href="#DejaVuSerif-Italic-b7" transform="translate(873.632812 0)"/>
     <use xlink:href="#DejaVuSerif-Italic-20" transform="translate(905.419922 0)"/>
     <use xlink:href="#DejaVuSerif-Italic-20" transform="translate(937.207031 0)"/>
     <use xlink:href="#DejaVuSerif-Italic-6e" transform="translate(968.994141 0)"/>
     <use xlink:href="#DejaVuSerif-Italic-6f" transform="translate(1033.398438 0)"/>
     <use xlink:href="#DejaVuSerif-Italic-74" transform="translate(1093.603516 0)"/>
     <use xlink:href="#DejaVuSerif-Italic-20" transform="translate(1133.789062 0)"/>
     <use xlink:href="#DejaVuSerif-Italic-61" transform="translate(1165.576172 0)"/>
     <use xlink:href="#DejaVuSerif-Italic-20" transform="translate(1225.195312 0)"/>
     <use xlink:href="#DejaVuSerif-Italic-70" transform="translate(1256.982422 0)"/>
     <use xlink:href="#DejaVuSerif-Italic-72" transform="translate(1320.996094 0)"/>
     <use xlink:href="#DejaVuSerif-Italic-6f" transform="translate(1368.798828 0)"/>
     <use xlink:href="#DejaVuSerif-Italic-62" transform="translate(1429.003906 0)"/>
     <use xlink:href="#DejaVuSerif-Italic-61" transform="translate(1493.017578 0)"/>
     <use xlink:href="#DejaVuSerif-Italic-62" transform="translate(1552.636719 0)"/>
     <use xlink:href="#DejaVuSerif-Italic-69" transform="translate(1616.650391 0)"/>
     <use xlink:href="#DejaVuSerif-Italic-6c" transform="translate(1648.632812 0)"/>
     <use xlink:href="#DejaVuSerif-Italic-69" transform="translate(1680.615234 0)"/>
     <use xlink:href="#DejaVuSerif-Italic-74" transform="translate(1712.597656 0)"/>
     <use xlink:href="#DejaVuSerif-Italic-79" transform="translate(1752.783203 0)"/>
     <use xlink:href="#DejaVuSerif-Italic-20" transform="translate(1809.277344 0)"/>
     <use xlink:href="#DejaVuSerif-Italic-6f" transform="translate(1841.064453 0)"/>
     <use xlink:href="#DejaVuSerif-Italic-66" transform="translate(1901.269531 0)"/>
     <use xlink:href="#DejaVuSerif-Italic-20" transform="translate(1938.28125 0)"/>
     <use xlink:href="#DejaVuSerif-Italic-66" transform="translate(1970.068359 0)"/>
     <use xlink:href="#DejaVuSerif-Italic-61" transform="translate(2007.080078 0)"/>
     <use xlink:href="#DejaVuSerif-Italic-6b" transform="translate(2066.699219 0)"/>
     <use xlink:href="#DejaVuSerif-Italic-65" transform="translate(2127.294922 0)"/>
     <use xlink:href="#DejaVuSerif-Italic-72" transform="translate(2186.474609 0)"/>
     <use xlink:href="#DejaVuSerif-Italic-79" transform="translate(2234.277344 0)"/>
    </g>
   </g>
   <g id="text_5">
    <!-- One bad -->
    <g style="fill: #f2f2f2" transform="translate(128.272523 237.762581) scale(0.125 -0.125)">
     <defs>
      <path id="DejaVuSerif-4f" d="M 2625 244 
Q 3391 244 3781 770 
Q 4172 1297 4172 2328 
Q 4172 3363 3781 3889 
Q 3391 4416 2625 4416 
Q 1856 4416 1465 3889 
Q 1075 3363 1075 2328 
Q 1075 1297 1465 770 
Q 1856 244 2625 244 
z
M 2625 -91 
Q 2150 -91 1751 65 
Q 1353 222 1050 525 
Q 700 875 529 1319 
Q 359 1763 359 2328 
Q 359 2894 529 3339 
Q 700 3784 1050 4134 
Q 1356 4441 1750 4595 
Q 2144 4750 2625 4750 
Q 3641 4750 4266 4084 
Q 4891 3419 4891 2328 
Q 4891 1769 4719 1320 
Q 4547 872 4197 525 
Q 3891 219 3497 64 
Q 3103 -91 2625 -91 
z
" transform="scale(0.015625)"/>
     </defs>
     <use xlink:href="#DejaVuSerif-4f"/>
     <use xlink:href="#DejaVuSerif-6e" transform="translate(81.982422 0)"/>
     <use xlink:href="#DejaVuSerif-65" transform="translate(146.386719 0)"/>
     <use xlink:href="#DejaVuSerif-20" transform="translate(205.566406 0)"/>
     <use xlink:href="#DejaVuSerif-62" transform="translate(237.353516 0)"/>
     <use xlink:href="#DejaVuSerif-61" transform="translate(301.367188 0)"/>
     <use xlink:href="#DejaVuSerif-64" transform="translate(360.986328 0)"/>
    </g>
   </g>
   <g id="text_6">
    <!-- score = 0.55 -->
    <g style="fill: #8a8a8a" transform="translate(120.99893 277.669434) scale(0.105 -0.105)">
     <defs>
      <path id="DejaVuSerif-35" d="M 3219 4666 
L 3219 4153 
L 1081 4153 
L 1081 2816 
Q 1244 2928 1461 2984 
Q 1678 3041 1947 3041 
Q 2703 3041 3140 2622 
Q 3578 2203 3578 1478 
Q 3578 738 3136 323 
Q 2694 -91 1894 -91 
Q 1572 -91 1234 -12 
Q 897 66 544 225 
L 544 1131 
L 897 1131 
Q 925 688 1179 453 
Q 1434 219 1894 219 
Q 2388 219 2653 544 
Q 2919 869 2919 1478 
Q 2919 2084 2655 2407 
Q 2391 2731 1894 2731 
Q 1613 2731 1398 2631 
Q 1184 2531 1019 2322 
L 750 2322 
L 750 4666 
L 3219 4666 
z
" transform="scale(0.015625)"/>
     </defs>
     <use xlink:href="#DejaVuSerif-73"/>
     <use xlink:href="#DejaVuSerif-63" transform="translate(51.318359 0)"/>
     <use xlink:href="#DejaVuSerif-6f" transform="translate(107.324219 0)"/>
     <use xlink:href="#DejaVuSerif-72" transform="translate(167.529297 0)"/>
     <use xlink:href="#DejaVuSerif-65" transform="translate(215.332031 0)"/>
     <use xlink:href="#DejaVuSerif-20" transform="translate(274.511719 0)"/>
     <use xlink:href="#DejaVuSerif-3d" transform="translate(306.298828 0)"/>
     <use xlink:href="#DejaVuSerif-20" transform="translate(390.087891 0)"/>
     <use xlink:href="#DejaVuSerif-30" transform="translate(421.875 0)"/>
     <use xlink:href="#DejaVuSerif-2e" transform="translate(485.498047 0)"/>
     <use xlink:href="#DejaVuSerif-35" transform="translate(517.285156 0)"/>
     <use xlink:href="#DejaVuSerif-35" transform="translate(580.908203 0)"/>
    </g>
    <!-- still BLOWN -->
    <g style="fill: #8a8a8a" transform="translate(121.687992 291.820645) scale(0.105 -0.105)">
     <defs>
      <path id="DejaVuSerif-4c" d="M 353 0 
L 353 331 
L 947 331 
L 947 4331 
L 353 4331 
L 353 4666 
L 2175 4666 
L 2175 4331 
L 1581 4331 
L 1581 384 
L 3713 384 
L 3713 1166 
L 4097 1166 
L 4097 0 
L 353 0 
z
" transform="scale(0.015625)"/>
      <path id="DejaVuSerif-57" d="M 4878 0 
L 4366 0 
L 3297 3794 
L 2228 0 
L 1716 0 
L 494 4331 
L 31 4331 
L 31 4666 
L 1734 4666 
L 1734 4331 
L 1153 4331 
L 2125 884 
L 3188 4666 
L 3694 4666 
L 4775 844 
L 5753 4331 
L 5216 4331 
L 5216 4666 
L 6559 4666 
L 6559 4331 
L 6100 4331 
L 4878 0 
z
" transform="scale(0.015625)"/>
      <path id="DejaVuSerif-4e" d="M 313 0 
L 313 331 
L 941 331 
L 941 4331 
L 313 4331 
L 313 4666 
L 1509 4666 
L 4306 984 
L 4306 4331 
L 3681 4331 
L 3681 4666 
L 5319 4666 
L 5319 4331 
L 4691 4331 
L 4691 -91 
L 4313 -91 
L 1325 3841 
L 1325 331 
L 1953 331 
L 1953 0 
L 313 0 
z
" transform="scale(0.015625)"/>
     </defs>
     <use xlink:href="#DejaVuSerif-73"/>
     <use xlink:href="#DejaVuSerif-74" transform="translate(51.318359 0)"/>
     <use xlink:href="#DejaVuSerif-69" transform="translate(91.503906 0)"/>
     <use xlink:href="#DejaVuSerif-6c" transform="translate(123.486328 0)"/>
     <use xlink:href="#DejaVuSerif-6c" transform="translate(155.46875 0)"/>
     <use xlink:href="#DejaVuSerif-20" transform="translate(187.451172 0)"/>
     <use xlink:href="#DejaVuSerif-42" transform="translate(219.238281 0)"/>
     <use xlink:href="#DejaVuSerif-4c" transform="translate(292.724609 0)"/>
     <use xlink:href="#DejaVuSerif-4f" transform="translate(359.130859 0)"/>
     <use xlink:href="#DejaVuSerif-57" transform="translate(441.113281 0)"/>
     <use xlink:href="#DejaVuSerif-4e" transform="translate(543.896484 0)"/>
    </g>
   </g>
   <g id="text_7">
    <!-- Not P(fake) -->
    <g style="fill: #f2f2f2" transform="translate(335.902109 237.762581) scale(0.125 -0.125)">
     <defs>
      <path id="DejaVuSerif-50" d="M 1581 2375 
L 2406 2375 
Q 2872 2375 3115 2626 
Q 3359 2878 3359 3353 
Q 3359 3831 3115 4081 
Q 2872 4331 2406 4331 
L 1581 4331 
L 1581 2375 
z
M 353 0 
L 353 331 
L 947 331 
L 947 4331 
L 353 4331 
L 353 4666 
L 2559 4666 
Q 3259 4666 3668 4311 
Q 4078 3956 4078 3353 
Q 4078 2753 3668 2397 
Q 3259 2041 2559 2041 
L 1581 2041 
L 1581 331 
L 2303 331 
L 2303 0 
L 353 0 
z
" transform="scale(0.015625)"/>
      <path id="DejaVuSerif-6b" d="M 1831 0 
L 219 0 
L 219 331 
L 738 331 
L 738 4531 
L 184 4531 
L 184 4863 
L 1313 4863 
L 1313 1697 
L 2713 2988 
L 2234 2988 
L 2234 3322 
L 3738 3322 
L 3738 2988 
L 3169 2988 
L 2181 2075 
L 3444 331 
L 3922 331 
L 3922 0 
L 2284 0 
L 2284 331 
L 2759 331 
L 1766 1697 
L 1313 1275 
L 1313 331 
L 1831 331 
L 1831 0 
z
" transform="scale(0.015625)"/>
     </defs>
     <use xlink:href="#DejaVuSerif-4e"/>
     <use xlink:href="#DejaVuSerif-6f" transform="translate(87.5 0)"/>
     <use xlink:href="#DejaVuSerif-74" transform="translate(147.705078 0)"/>
     <use xlink:href="#DejaVuSerif-20" transform="translate(187.890625 0)"/>
     <use xlink:href="#DejaVuSerif-50" transform="translate(219.677734 0)"/>
     <use xlink:href="#DejaVuSerif-28" transform="translate(286.962891 0)"/>
     <use xlink:href="#DejaVuSerif-66" transform="translate(325.976562 0)"/>
     <use xlink:href="#DejaVuSerif-61" transform="translate(362.988281 0)"/>
     <use xlink:href="#DejaVuSerif-6b" transform="translate(422.607422 0)"/>
     <use xlink:href="#DejaVuSerif-65" transform="translate(483.203125 0)"/>
     <use xlink:href="#DejaVuSerif-29" transform="translate(542.382812 0)"/>
    </g>
   </g>
   <g id="text_8">
    <!-- weights are knobs -->
    <g style="fill: #8a8a8a" transform="translate(323.551992 277.520137) scale(0.105 -0.105)">
     <use xlink:href="#DejaVuSerif-77"/>
     <use xlink:href="#DejaVuSerif-65" transform="translate(85.595703 0)"/>
     <use xlink:href="#DejaVuSerif-69" transform="translate(144.775391 0)"/>
     <use xlink:href="#DejaVuSerif-67" transform="translate(176.757812 0)"/>
     <use xlink:href="#DejaVuSerif-68" transform="translate(240.771484 0)"/>
     <use xlink:href="#DejaVuSerif-74" transform="translate(305.175781 0)"/>
     <use xlink:href="#DejaVuSerif-73" transform="translate(345.361328 0)"/>
     <use xlink:href="#DejaVuSerif-20" transform="translate(396.679688 0)"/>
     <use xlink:href="#DejaVuSerif-61" transform="translate(428.466797 0)"/>
     <use xlink:href="#DejaVuSerif-72" transform="translate(488.085938 0)"/>
     <use xlink:href="#DejaVuSerif-65" transform="translate(535.888672 0)"/>
     <use xlink:href="#DejaVuSerif-20" transform="translate(595.068359 0)"/>
     <use xlink:href="#DejaVuSerif-6b" transform="translate(626.855469 0)"/>
     <use xlink:href="#DejaVuSerif-6e" transform="translate(687.451172 0)"/>
     <use xlink:href="#DejaVuSerif-6f" transform="translate(751.855469 0)"/>
     <use xlink:href="#DejaVuSerif-62" transform="translate(812.060547 0)"/>
     <use xlink:href="#DejaVuSerif-73" transform="translate(876.074219 0)"/>
    </g>
    <!-- not odds -->
    <g style="fill: #8a8a8a" transform="translate(349.343437 291.820645) scale(0.105 -0.105)">
     <use xlink:href="#DejaVuSerif-6e"/>
     <use xlink:href="#DejaVuSerif-6f" transform="translate(64.404297 0)"/>
     <use xlink:href="#DejaVuSerif-74" transform="translate(124.609375 0)"/>
     <use xlink:href="#DejaVuSerif-20" transform="translate(164.794922 0)"/>
     <use xlink:href="#DejaVuSerif-6f" transform="translate(196.582031 0)"/>
     <use xlink:href="#DejaVuSerif-64" transform="translate(256.787109 0)"/>
     <use xlink:href="#DejaVuSerif-64" transform="translate(320.800781 0)"/>
     <use xlink:href="#DejaVuSerif-73" transform="translate(384.814453 0)"/>
    </g>
   </g>
   <g id="text_9">
    <!-- Read findings -->
    <g style="fill: #f2f2f2" transform="translate(545.95357 237.762581) scale(0.125 -0.125)">
     <use xlink:href="#DejaVuSerif-52"/>
     <use xlink:href="#DejaVuSerif-65" transform="translate(75.292969 0)"/>
     <use xlink:href="#DejaVuSerif-61" transform="translate(134.472656 0)"/>
     <use xlink:href="#DejaVuSerif-64" transform="translate(194.091797 0)"/>
     <use xlink:href="#DejaVuSerif-20" transform="translate(258.105469 0)"/>
     <use xlink:href="#DejaVuSerif-66" transform="translate(289.892578 0)"/>
     <use xlink:href="#DejaVuSerif-69" transform="translate(326.904297 0)"/>
     <use xlink:href="#DejaVuSerif-6e" transform="translate(358.886719 0)"/>
     <use xlink:href="#DejaVuSerif-64" transform="translate(423.291016 0)"/>
     <use xlink:href="#DejaVuSerif-69" transform="translate(487.304688 0)"/>
     <use xlink:href="#DejaVuSerif-6e" transform="translate(519.287109 0)"/>
     <use xlink:href="#DejaVuSerif-67" transform="translate(583.691406 0)"/>
     <use xlink:href="#DejaVuSerif-73" transform="translate(647.705078 0)"/>
    </g>
   </g>
   <g id="text_10">
    <!-- scalar is secondary -->
    <g style="fill: #8a8a8a" transform="translate(538.600875 277.520137) scale(0.105 -0.105)">
     <use xlink:href="#DejaVuSerif-73"/>
     <use xlink:href="#DejaVuSerif-63" transform="translate(51.318359 0)"/>
     <use xlink:href="#DejaVuSerif-61" transform="translate(107.324219 0)"/>
     <use xlink:href="#DejaVuSerif-6c" transform="translate(166.943359 0)"/>
     <use xlink:href="#DejaVuSerif-61" transform="translate(198.925781 0)"/>
     <use xlink:href="#DejaVuSerif-72" transform="translate(258.544922 0)"/>
     <use xlink:href="#DejaVuSerif-20" transform="translate(306.347656 0)"/>
     <use xlink:href="#DejaVuSerif-69" transform="translate(338.134766 0)"/>
     <use xlink:href="#DejaVuSerif-73" transform="translate(370.117188 0)"/>
     <use xlink:href="#DejaVuSerif-20" transform="translate(421.435547 0)"/>
     <use xlink:href="#DejaVuSerif-73" transform="translate(453.222656 0)"/>
     <use xlink:href="#DejaVuSerif-65" transform="translate(504.541016 0)"/>
     <use xlink:href="#DejaVuSerif-63" transform="translate(563.720703 0)"/>
     <use xlink:href="#DejaVuSerif-6f" transform="translate(619.726562 0)"/>
     <use xlink:href="#DejaVuSerif-6e" transform="translate(679.931641 0)"/>
     <use xlink:href="#DejaVuSerif-64" transform="translate(744.335938 0)"/>
     <use xlink:href="#DejaVuSerif-61" transform="translate(808.349609 0)"/>
     <use xlink:href="#DejaVuSerif-72" transform="translate(867.96875 0)"/>
     <use xlink:href="#DejaVuSerif-79" transform="translate(915.771484 0)"/>
    </g>
    <!-- to the list -->
    <g style="fill: #8a8a8a" transform="translate(564.275836 291.820645) scale(0.105 -0.105)">
     <use xlink:href="#DejaVuSerif-74"/>
     <use xlink:href="#DejaVuSerif-6f" transform="translate(40.185547 0)"/>
     <use xlink:href="#DejaVuSerif-20" transform="translate(100.390625 0)"/>
     <use xlink:href="#DejaVuSerif-74" transform="translate(132.177734 0)"/>
     <use xlink:href="#DejaVuSerif-68" transform="translate(172.363281 0)"/>
     <use xlink:href="#DejaVuSerif-65" transform="translate(236.767578 0)"/>
     <use xlink:href="#DejaVuSerif-20" transform="translate(295.947266 0)"/>
     <use xlink:href="#DejaVuSerif-6c" transform="translate(327.734375 0)"/>
     <use xlink:href="#DejaVuSerif-69" transform="translate(359.716797 0)"/>
     <use xlink:href="#DejaVuSerif-73" transform="translate(391.699219 0)"/>
     <use xlink:href="#DejaVuSerif-74" transform="translate(443.017578 0)"/>
    </g>
   </g>
  </g>
 </g>
 <defs>
  <clipPath id="p584837bcc7">
   <rect x="15.84" y="15.84" width="712.8" height="352.8"/>
  </clipPath>
 </defs>
</svg>
