<?xml version="1.0" encoding="utf-8" standalone="no"?>
<!DOCTYPE svg PUBLIC "-//W3C//DTD SVG 1.1//EN"
  "http://www.w3.org/Graphics/SVG/1.1/DTD/svg11.dtd">
<svg xmlns:xlink="http://www.w3.org/1999/xlink" width="772.080994pt" height="440.818004pt" viewBox="0 0 772.080994 440.818004" xmlns="http://www.w3.org/2000/svg" version="1.1">
 <metadata>
  <rdf:RDF xmlns:dc="http://purl.org/dc/elements/1.1/" xmlns:cc="http://creativecommons.org/ns#" xmlns:rdf="http://www.w3.org/1999/02/22-rdf-syntax-ns#">
   <cc:Work>
    <dc:type rdf:resource="http://purl.org/dc/dcmitype/StillImage"/>
    <dc:date>2026-07-12T17:27:13.840373</dc:date>
    <dc:format>image/svg+xml</dc:format>
    <dc:creator>
     <cc:Agent>
      <dc:title>Matplotlib v3.10.9, https://matplotlib.org/</dc:title>
     </cc:Agent>
    </dc:creator>
   </cc:Work>
  </rdf:RDF>
 </metadata>
 <defs>
  <style type="text/css">*{stroke-linejoin: round; stroke-linecap: butt}</style>
 </defs>
 <g id="figure_1">
  <g id="patch_1">
   <path d="M 0 440.818004 
L 772.080994 440.818004 
L 772.080994 0 
L 0 0 
z
"/>
  </g>
  <g id="axes_1">
   <g id="patch_2">
    <path d="M 56.822813 389.621754 
L 756.240994 389.621754 
L 756.240994 42.097891 
L 56.822813 42.097891 
z
"/>
   </g>
   <g id="matplotlib.axis_1">
    <g id="xtick_1">
     <g id="line2d_1">
      <path d="M 126.764631 389.621754 
L 126.764631 42.097891 
" clip-path="url(#p4ad048088f)" style="fill: none; stroke: #2a2a2a; stroke-width: 0.6; stroke-linecap: square"/>
     </g>
     <g id="line2d_2">
      <defs>
       <path id="m89e54dea86" d="M 0 0 
L 0 3.5 
" style="stroke: #8a8a8a; stroke-width: 0.7"/>
      </defs>
      <g>
       <use xlink:href="#m89e54dea86" x="126.764631" y="389.621754" style="fill: #8a8a8a; stroke: #8a8a8a; stroke-width: 0.7"/>
      </g>
     </g>
     <g id="text_1">
      <!-- 5 -->
      <g style="fill: #8a8a8a" transform="translate(123.901506 403.460348) scale(0.09 -0.09)">
       <defs>
        <path id="DejaVuSerif-35" d="M 3219 4666 
L 3219 4153 
L 1081 4153 
L 1081 2816 
Q 1244 2928 1461 2984 
Q 1678 3041 1947 3041 
Q 2703 3041 3140 2622 
Q 3578 2203 3578 1478 
Q 3578 738 3136 323 
Q 2694 -91 1894 -91 
Q 1572 -91 1234 -12 
Q 897 66 544 225 
L 544 1131 
L 897 1131 
Q 925 688 1179 453 
Q 1434 219 1894 219 
Q 2388 219 2653 544 
Q 2919 869 2919 1478 
Q 2919 2084 2655 2407 
Q 2391 2731 1894 2731 
Q 1613 2731 1398 2631 
Q 1184 2531 1019 2322 
L 750 2322 
L 750 4666 
L 3219 4666 
z
" transform="scale(0.015625)"/>
       </defs>
       <use xlink:href="#DejaVuSerif-35"/>
      </g>
     </g>
    </g>
    <g id="xtick_2">
     <g id="line2d_3">
      <path d="M 243.334328 389.621754 
L 243.334328 42.097891 
" clip-path="url(#p4ad048088f)" style="fill: none; stroke: #2a2a2a; stroke-width: 0.6; stroke-linecap: square"/>
     </g>
     <g id="line2d_4">
      <g>
       <use xlink:href="#m89e54dea86" x="243.334328" y="389.621754" style="fill: #8a8a8a; stroke: #8a8a8a; stroke-width: 0.7"/>
      </g>
     </g>
     <g id="text_2">
      <!-- 10 -->
      <g style="fill: #8a8a8a" transform="translate(237.608078 403.460348) scale(0.09 -0.09)">
       <defs>
        <path id="DejaVuSerif-31" d="M 909 0 
L 909 331 
L 1722 331 
L 1722 4213 
L 781 3603 
L 781 4013 
L 1919 4750 
L 2350 4750 
L 2350 331 
L 3163 331 
L 3163 0 
L 909 0 
z
" transform="scale(0.015625)"/>
        <path id="DejaVuSerif-30" d="M 2034 219 
Q 2513 219 2750 744 
Q 2988 1269 2988 2328 
Q 2988 3391 2750 3916 
Q 2513 4441 2034 4441 
Q 1556 4441 1318 3916 
Q 1081 3391 1081 2328 
Q 1081 1269 1318 744 
Q 1556 219 2034 219 
z
M 2034 -91 
Q 1275 -91 848 546 
Q 422 1184 422 2328 
Q 422 3475 848 4112 
Q 1275 4750 2034 4750 
Q 2797 4750 3222 4112 
Q 3647 3475 3647 2328 
Q 3647 1184 3222 546 
Q 2797 -91 2034 -91 
z
" transform="scale(0.015625)"/>
       </defs>
       <use xlink:href="#DejaVuSerif-31"/>
       <use xlink:href="#DejaVuSerif-30" transform="translate(63.623047 0)"/>
      </g>
     </g>
    </g>
    <g id="xtick_3">
     <g id="line2d_5">
      <path d="M 359.904025 389.621754 
L 359.904025 42.097891 
" clip-path="url(#p4ad048088f)" style="fill: none; stroke: #2a2a2a; stroke-width: 0.6; stroke-linecap: square"/>
     </g>
     <g id="line2d_6">
      <g>
       <use xlink:href="#m89e54dea86" x="359.904025" y="389.621754" style="fill: #8a8a8a; stroke: #8a8a8a; stroke-width: 0.7"/>
      </g>
     </g>
     <g id="text_3">
      <!-- 15 -->
      <g style="fill: #8a8a8a" transform="translate(354.177775 403.460348) scale(0.09 -0.09)">
       <use xlink:href="#DejaVuSerif-31"/>
       <use xlink:href="#DejaVuSerif-35" transform="translate(63.623047 0)"/>
      </g>
     </g>
    </g>
    <g id="xtick_4">
     <g id="line2d_7">
      <path d="M 476.473722 389.621754 
L 476.473722 42.097891 
" clip-path="url(#p4ad048088f)" style="fill: none; stroke: #2a2a2a; stroke-width: 0.6; stroke-linecap: square"/>
     </g>
     <g id="line2d_8">
      <g>
       <use xlink:href="#m89e54dea86" x="476.473722" y="389.621754" style="fill: #8a8a8a; stroke: #8a8a8a; stroke-width: 0.7"/>
      </g>
     </g>
     <g id="text_4">
      <!-- 20 -->
      <g style="fill: #8a8a8a" transform="translate(470.747472 403.460348) scale(0.09 -0.09)">
       <defs>
        <path id="DejaVuSerif-32" d="M 819 3553 
L 469 3553 
L 469 4384 
Q 803 4563 1142 4656 
Q 1481 4750 1806 4750 
Q 2534 4750 2956 4397 
Q 3378 4044 3378 3438 
Q 3378 2753 2422 1800 
Q 2347 1728 2309 1691 
L 1131 513 
L 3078 513 
L 3078 1088 
L 3444 1088 
L 3444 0 
L 434 0 
L 434 341 
L 1850 1753 
Q 2319 2222 2519 2614 
Q 2719 3006 2719 3438 
Q 2719 3909 2473 4175 
Q 2228 4441 1797 4441 
Q 1350 4441 1106 4219 
Q 863 3997 819 3553 
z
" transform="scale(0.015625)"/>
       </defs>
       <use xlink:href="#DejaVuSerif-32"/>
       <use xlink:href="#DejaVuSerif-30" transform="translate(63.623047 0)"/>
      </g>
     </g>
    </g>
    <g id="xtick_5">
     <g id="line2d_9">
      <path d="M 593.043419 389.621754 
L 593.043419 42.097891 
" clip-path="url(#p4ad048088f)" style="fill: none; stroke: #2a2a2a; stroke-width: 0.6; stroke-linecap: square"/>
     </g>
     <g id="line2d_10">
      <g>
       <use xlink:href="#m89e54dea86" x="593.043419" y="389.621754" style="fill: #8a8a8a; stroke: #8a8a8a; stroke-width: 0.7"/>
      </g>
     </g>
     <g id="text_5">
      <!-- 25 -->
      <g style="fill: #8a8a8a" transform="translate(587.317169 403.460348) scale(0.09 -0.09)">
       <use xlink:href="#DejaVuSerif-32"/>
       <use xlink:href="#DejaVuSerif-35" transform="translate(63.623047 0)"/>
      </g>
     </g>
    </g>
    <g id="xtick_6">
     <g id="line2d_11">
      <path d="M 709.613116 389.621754 
L 709.613116 42.097891 
" clip-path="url(#p4ad048088f)" style="fill: none; stroke: #2a2a2a; stroke-width: 0.6; stroke-linecap: square"/>
     </g>
     <g id="line2d_12">
      <g>
       <use xlink:href="#m89e54dea86" x="709.613116" y="389.621754" style="fill: #8a8a8a; stroke: #8a8a8a; stroke-width: 0.7"/>
      </g>
     </g>
     <g id="text_6">
      <!-- 30 -->
      <g style="fill: #8a8a8a" transform="translate(703.886866 403.460348) scale(0.09 -0.09)">
       <defs>
        <path id="DejaVuSerif-33" d="M 622 4469 
Q 988 4606 1323 4678 
Q 1659 4750 1953 4750 
Q 2638 4750 3022 4454 
Q 3406 4159 3406 3634 
Q 3406 3213 3140 2930 
Q 2875 2647 2388 2547 
Q 2963 2466 3280 2130 
Q 3597 1794 3597 1259 
Q 3597 606 3158 257 
Q 2719 -91 1894 -91 
Q 1528 -91 1179 -12 
Q 831 66 488 225 
L 488 1131 
L 838 1131 
Q 869 681 1141 450 
Q 1413 219 1906 219 
Q 2384 219 2661 495 
Q 2938 772 2938 1253 
Q 2938 1803 2653 2086 
Q 2369 2369 1819 2369 
L 1522 2369 
L 1522 2688 
L 1678 2688 
Q 2225 2688 2498 2914 
Q 2772 3141 2772 3597 
Q 2772 4006 2547 4223 
Q 2322 4441 1900 4441 
Q 1478 4441 1245 4241 
Q 1013 4041 972 3647 
L 622 3647 
L 622 4469 
z
" transform="scale(0.015625)"/>
       </defs>
       <use xlink:href="#DejaVuSerif-33"/>
       <use xlink:href="#DejaVuSerif-30" transform="translate(63.623047 0)"/>
      </g>
     </g>
    </g>
    <g id="text_7">
     <!-- active support size  $r$ -->
     <g style="fill: #8a8a8a" transform="translate(348.066903 422.668004) scale(0.11 -0.11)">
      <defs>
       <path id="DejaVuSerif-61" d="M 2547 1044 
L 2547 1747 
L 1806 1747 
Q 1378 1747 1168 1562 
Q 959 1378 959 997 
Q 959 650 1171 447 
Q 1384 244 1747 244 
Q 2106 244 2326 466 
Q 2547 688 2547 1044 
z
M 3122 2075 
L 3122 331 
L 3634 331 
L 3634 0 
L 2547 0 
L 2547 359 
Q 2356 128 2106 18 
Q 1856 -91 1522 -91 
Q 969 -91 644 203 
Q 319 497 319 997 
Q 319 1513 691 1797 
Q 1063 2081 1741 2081 
L 2547 2081 
L 2547 2309 
Q 2547 2688 2317 2895 
Q 2088 3103 1672 3103 
Q 1328 3103 1125 2947 
Q 922 2791 872 2484 
L 575 2484 
L 575 3156 
Q 875 3284 1158 3348 
Q 1441 3413 1709 3413 
Q 2400 3413 2761 3070 
Q 3122 2728 3122 2075 
z
" transform="scale(0.015625)"/>
       <path id="DejaVuSerif-63" d="M 3291 997 
Q 3169 466 2822 187 
Q 2475 -91 1925 -91 
Q 1200 -91 759 389 
Q 319 869 319 1663 
Q 319 2459 759 2936 
Q 1200 3413 1925 3413 
Q 2241 3413 2553 3339 
Q 2866 3266 3181 3116 
L 3181 2266 
L 2847 2266 
Q 2781 2703 2561 2903 
Q 2341 3103 1931 3103 
Q 1466 3103 1228 2742 
Q 991 2381 991 1663 
Q 991 944 1227 581 
Q 1463 219 1931 219 
Q 2303 219 2525 412 
Q 2747 606 2828 997 
L 3291 997 
z
" transform="scale(0.015625)"/>
       <path id="DejaVuSerif-74" d="M 691 2988 
L 184 2988 
L 184 3322 
L 691 3322 
L 691 4353 
L 1269 4353 
L 1269 3322 
L 2350 3322 
L 2350 2988 
L 1269 2988 
L 1269 878 
Q 1269 456 1350 337 
Q 1431 219 1650 219 
Q 1875 219 1978 351 
Q 2081 484 2088 781 
L 2522 781 
Q 2497 328 2275 118 
Q 2053 -91 1600 -91 
Q 1103 -91 897 129 
Q 691 350 691 878 
L 691 2988 
z
" transform="scale(0.015625)"/>
       <path id="DejaVuSerif-69" d="M 622 4353 
Q 622 4497 726 4603 
Q 831 4709 978 4709 
Q 1122 4709 1226 4603 
Q 1331 4497 1331 4353 
Q 1331 4206 1228 4103 
Q 1125 4000 978 4000 
Q 831 4000 726 4103 
Q 622 4206 622 4353 
z
M 1356 331 
L 1900 331 
L 1900 0 
L 231 0 
L 231 331 
L 781 331 
L 781 2988 
L 231 2988 
L 231 3322 
L 1356 3322 
L 1356 331 
z
" transform="scale(0.015625)"/>
       <path id="DejaVuSerif-76" d="M 1581 0 
L 359 2988 
L -19 2988 
L -19 3322 
L 1509 3322 
L 1509 2988 
L 978 2988 
L 1913 703 
L 2847 2988 
L 2350 2988 
L 2350 3322 
L 3597 3322 
L 3597 2988 
L 3225 2988 
L 2003 0 
L 1581 0 
z
" transform="scale(0.015625)"/>
       <path id="DejaVuSerif-65" d="M 3469 1600 
L 991 1600 
L 991 1575 
Q 991 903 1244 561 
Q 1497 219 1991 219 
Q 2369 219 2611 417 
Q 2853 616 2950 1006 
L 3413 1006 
Q 3275 459 2904 184 
Q 2534 -91 1931 -91 
Q 1203 -91 761 389 
Q 319 869 319 1663 
Q 319 2450 753 2931 
Q 1188 3413 1894 3413 
Q 2647 3413 3050 2948 
Q 3453 2484 3469 1600 
z
M 2791 1931 
Q 2772 2513 2545 2808 
Q 2319 3103 1894 3103 
Q 1497 3103 1269 2806 
Q 1041 2509 991 1931 
L 2791 1931 
z
" transform="scale(0.015625)"/>
       <path id="DejaVuSerif-20" transform="scale(0.015625)"/>
       <path id="DejaVuSerif-73" d="M 359 184 
L 359 959 
L 691 959 
Q 703 588 923 403 
Q 1144 219 1575 219 
Q 1963 219 2166 364 
Q 2369 509 2369 788 
Q 2369 1006 2220 1140 
Q 2072 1275 1594 1428 
L 1178 1569 
Q 750 1706 558 1912 
Q 366 2119 366 2438 
Q 366 2894 700 3153 
Q 1034 3413 1625 3413 
Q 1888 3413 2178 3344 
Q 2469 3275 2778 3144 
L 2778 2419 
L 2447 2419 
Q 2434 2741 2221 2922 
Q 2009 3103 1644 3103 
Q 1281 3103 1095 2975 
Q 909 2847 909 2591 
Q 909 2381 1050 2254 
Q 1191 2128 1613 1997 
L 2069 1856 
Q 2541 1709 2748 1489 
Q 2956 1269 2956 922 
Q 2956 450 2595 179 
Q 2234 -91 1600 -91 
Q 1278 -91 972 -22 
Q 666 47 359 184 
z
" transform="scale(0.015625)"/>
       <path id="DejaVuSerif-75" d="M 2266 3322 
L 3341 3322 
L 3341 331 
L 3884 331 
L 3884 0 
L 2766 0 
L 2766 588 
Q 2606 256 2353 82 
Q 2100 -91 1766 -91 
Q 1213 -91 952 223 
Q 691 538 691 1209 
L 691 2988 
L 172 2988 
L 172 3322 
L 1269 3322 
L 1269 1388 
Q 1269 781 1417 556 
Q 1566 331 1947 331 
Q 2347 331 2556 625 
Q 2766 919 2766 1478 
L 2766 2988 
L 2266 2988 
L 2266 3322 
z
" transform="scale(0.015625)"/>
       <path id="DejaVuSerif-70" d="M 1313 1825 
L 1313 1497 
Q 1313 897 1542 583 
Q 1772 269 2209 269 
Q 2650 269 2876 622 
Q 3103 975 3103 1663 
Q 3103 2353 2876 2703 
Q 2650 3053 2209 3053 
Q 1772 3053 1542 2737 
Q 1313 2422 1313 1825 
z
M 738 2988 
L 184 2988 
L 184 3322 
L 1313 3322 
L 1313 2803 
Q 1481 3116 1742 3264 
Q 2003 3413 2388 3413 
Q 3000 3413 3387 2928 
Q 3775 2444 3775 1663 
Q 3775 881 3387 395 
Q 3000 -91 2388 -91 
Q 2003 -91 1742 57 
Q 1481 206 1313 519 
L 1313 -997 
L 1856 -997 
L 1856 -1331 
L 184 -1331 
L 184 -997 
L 738 -997 
L 738 2988 
z
" transform="scale(0.015625)"/>
       <path id="DejaVuSerif-6f" d="M 1925 219 
Q 2388 219 2623 584 
Q 2859 950 2859 1663 
Q 2859 2375 2623 2739 
Q 2388 3103 1925 3103 
Q 1463 3103 1227 2739 
Q 991 2375 991 1663 
Q 991 950 1228 584 
Q 1466 219 1925 219 
z
M 1925 -91 
Q 1200 -91 759 389 
Q 319 869 319 1663 
Q 319 2456 758 2934 
Q 1197 3413 1925 3413 
Q 2653 3413 3092 2934 
Q 3531 2456 3531 1663 
Q 3531 869 3092 389 
Q 2653 -91 1925 -91 
z
" transform="scale(0.015625)"/>
       <path id="DejaVuSerif-72" d="M 3059 3328 
L 3059 2497 
L 2728 2497 
Q 2713 2744 2591 2866 
Q 2469 2988 2234 2988 
Q 1809 2988 1582 2694 
Q 1356 2400 1356 1850 
L 1356 331 
L 2022 331 
L 2022 0 
L 263 0 
L 263 331 
L 781 331 
L 781 2994 
L 231 2994 
L 231 3322 
L 1356 3322 
L 1356 2731 
Q 1525 3078 1790 3245 
Q 2056 3413 2438 3413 
Q 2578 3413 2733 3391 
Q 2888 3369 3059 3328 
z
" transform="scale(0.015625)"/>
       <path id="DejaVuSerif-7a" d="M 256 0 
L 256 269 
L 2338 2988 
L 691 2988 
L 691 2413 
L 359 2413 
L 359 3322 
L 3078 3322 
L 3078 3053 
L 997 331 
L 2803 331 
L 2803 934 
L 3138 934 
L 3138 0 
L 256 0 
z
" transform="scale(0.015625)"/>
       <path id="Cmmi10-72" d="M 494 109 
Q 494 147 500 166 
L 978 2075 
Q 1025 2253 1025 2388 
Q 1025 2663 838 2663 
Q 638 2663 541 2423 
Q 444 2184 353 1819 
Q 353 1800 334 1789 
Q 316 1778 300 1778 
L 225 1778 
Q 203 1778 187 1801 
Q 172 1825 172 1844 
Q 241 2122 305 2315 
Q 369 2509 505 2668 
Q 641 2828 844 2828 
Q 1066 2828 1233 2700 
Q 1400 2572 1441 2363 
Q 1603 2575 1811 2701 
Q 2019 2828 2266 2828 
Q 2469 2828 2623 2709 
Q 2778 2591 2778 2388 
Q 2778 2225 2676 2104 
Q 2575 1984 2406 1984 
Q 2303 1984 2233 2048 
Q 2163 2113 2163 2216 
Q 2163 2356 2266 2467 
Q 2369 2578 2503 2578 
Q 2400 2663 2253 2663 
Q 1978 2663 1775 2467 
Q 1572 2272 1409 1972 
L 953 141 
Q 931 53 854 -9 
Q 778 -72 684 -72 
Q 606 -72 550 -22 
Q 494 28 494 109 
z
" transform="scale(0.015625)"/>
      </defs>
      <use xlink:href="#DejaVuSerif-61" transform="translate(0 0.421875)"/>
      <use xlink:href="#DejaVuSerif-63" transform="translate(59.619141 0.421875)"/>
      <use xlink:href="#DejaVuSerif-74" transform="translate(115.625 0.421875)"/>
      <use xlink:href="#DejaVuSerif-69" transform="translate(155.810547 0.421875)"/>
      <use xlink:href="#DejaVuSerif-76" transform="translate(187.792969 0.421875)"/>
      <use xlink:href="#DejaVuSerif-65" transform="translate(244.287109 0.421875)"/>
      <use xlink:href="#DejaVuSerif-20" transform="translate(303.466797 0.421875)"/>
      <use xlink:href="#DejaVuSerif-73" transform="translate(335.253906 0.421875)"/>
      <use xlink:href="#DejaVuSerif-75" transform="translate(386.572266 0.421875)"/>
      <use xlink:href="#DejaVuSerif-70" transform="translate(450.976562 0.421875)"/>
      <use xlink:href="#DejaVuSerif-70" transform="translate(514.990234 0.421875)"/>
      <use xlink:href="#DejaVuSerif-6f" transform="translate(579.003906 0.421875)"/>
      <use xlink:href="#DejaVuSerif-72" transform="translate(639.208984 0.421875)"/>
      <use xlink:href="#DejaVuSerif-74" transform="translate(687.011719 0.421875)"/>
      <use xlink:href="#DejaVuSerif-20" transform="translate(727.197266 0.421875)"/>
      <use xlink:href="#DejaVuSerif-73" transform="translate(758.984375 0.421875)"/>
      <use xlink:href="#DejaVuSerif-69" transform="translate(810.302734 0.421875)"/>
      <use xlink:href="#DejaVuSerif-7a" transform="translate(842.285156 0.421875)"/>
      <use xlink:href="#DejaVuSerif-65" transform="translate(894.970703 0.421875)"/>
      <use xlink:href="#DejaVuSerif-20" transform="translate(954.150391 0.421875)"/>
      <use xlink:href="#DejaVuSerif-20" transform="translate(985.9375 0.421875)"/>
      <use xlink:href="#Cmmi10-72" transform="translate(1017.724609 0.421875)"/>
     </g>
    </g>
   </g>
   <g id="matplotlib.axis_2">
    <g id="ytick_1">
     <g id="line2d_13">
      <path d="M 56.822813 374.244592 
L 756.240994 374.244592 
" clip-path="url(#p4ad048088f)" style="fill: none; stroke: #2a2a2a; stroke-width: 0.6; stroke-linecap: square"/>
     </g>
     <g id="line2d_14">
      <defs>
       <path id="m9491e79be2" d="M 0 0 
L -3.5 0 
" style="stroke: #8a8a8a; stroke-width: 0.7"/>
      </defs>
      <g>
       <use xlink:href="#m9491e79be2" x="56.822813" y="374.244592" style="fill: #8a8a8a; stroke: #8a8a8a; stroke-width: 0.7"/>
      </g>
     </g>
     <g id="text_8">
      <!-- 0.0 -->
      <g style="fill: #8a8a8a" transform="translate(35.51 377.663889) scale(0.09 -0.09)">
       <defs>
        <path id="DejaVuSerif-2e" d="M 603 325 
Q 603 500 722 622 
Q 841 744 1019 744 
Q 1191 744 1312 622 
Q 1434 500 1434 325 
Q 1434 153 1312 31 
Q 1191 -91 1019 -91 
Q 841 -91 722 29 
Q 603 150 603 325 
z
" transform="scale(0.015625)"/>
       </defs>
       <use xlink:href="#DejaVuSerif-30"/>
       <use xlink:href="#DejaVuSerif-2e" transform="translate(63.623047 0)"/>
       <use xlink:href="#DejaVuSerif-30" transform="translate(95.410156 0)"/>
      </g>
     </g>
    </g>
    <g id="ytick_2">
     <g id="line2d_15">
      <path d="M 56.822813 312.735944 
L 756.240994 312.735944 
" clip-path="url(#p4ad048088f)" style="fill: none; stroke: #2a2a2a; stroke-width: 0.6; stroke-linecap: square"/>
     </g>
     <g id="line2d_16">
      <g>
       <use xlink:href="#m9491e79be2" x="56.822813" y="312.735944" style="fill: #8a8a8a; stroke: #8a8a8a; stroke-width: 0.7"/>
      </g>
     </g>
     <g id="text_9">
      <!-- 0.2 -->
      <g style="fill: #8a8a8a" transform="translate(35.51 316.155241) scale(0.09 -0.09)">
       <use xlink:href="#DejaVuSerif-30"/>
       <use xlink:href="#DejaVuSerif-2e" transform="translate(63.623047 0)"/>
       <use xlink:href="#DejaVuSerif-32" transform="translate(95.410156 0)"/>
      </g>
     </g>
    </g>
    <g id="ytick_3">
     <g id="line2d_17">
      <path d="M 56.822813 251.227295 
L 756.240994 251.227295 
" clip-path="url(#p4ad048088f)" style="fill: none; stroke: #2a2a2a; stroke-width: 0.6; stroke-linecap: square"/>
     </g>
     <g id="line2d_18">
      <g>
       <use xlink:href="#m9491e79be2" x="56.822813" y="251.227295" style="fill: #8a8a8a; stroke: #8a8a8a; stroke-width: 0.7"/>
      </g>
     </g>
     <g id="text_10">
      <!-- 0.4 -->
      <g style="fill: #8a8a8a" transform="translate(35.51 254.646592) scale(0.09 -0.09)">
       <defs>
        <path id="DejaVuSerif-34" d="M 2234 1581 
L 2234 4063 
L 641 1581 
L 2234 1581 
z
M 3609 0 
L 1484 0 
L 1484 331 
L 2234 331 
L 2234 1247 
L 197 1247 
L 197 1588 
L 2241 4750 
L 2859 4750 
L 2859 1581 
L 3750 1581 
L 3750 1247 
L 2859 1247 
L 2859 331 
L 3609 331 
L 3609 0 
z
" transform="scale(0.015625)"/>
       </defs>
       <use xlink:href="#DejaVuSerif-30"/>
       <use xlink:href="#DejaVuSerif-2e" transform="translate(63.623047 0)"/>
       <use xlink:href="#DejaVuSerif-34" transform="translate(95.410156 0)"/>
      </g>
     </g>
    </g>
    <g id="ytick_4">
     <g id="line2d_19">
      <path d="M 56.822813 189.718647 
L 756.240994 189.718647 
" clip-path="url(#p4ad048088f)" style="fill: none; stroke: #2a2a2a; stroke-width: 0.6; stroke-linecap: square"/>
     </g>
     <g id="line2d_20">
      <g>
       <use xlink:href="#m9491e79be2" x="56.822813" y="189.718647" style="fill: #8a8a8a; stroke: #8a8a8a; stroke-width: 0.7"/>
      </g>
     </g>
     <g id="text_11">
      <!-- 0.6 -->
      <g style="fill: #8a8a8a" transform="translate(35.51 193.137944) scale(0.09 -0.09)">
       <defs>
        <path id="DejaVuSerif-36" d="M 2094 219 
Q 2534 219 2771 542 
Q 3009 866 3009 1472 
Q 3009 2078 2771 2401 
Q 2534 2725 2094 2725 
Q 1647 2725 1412 2412 
Q 1178 2100 1178 1509 
Q 1178 888 1415 553 
Q 1653 219 2094 219 
z
M 1075 2569 
Q 1288 2803 1556 2918 
Q 1825 3034 2163 3034 
Q 2859 3034 3264 2615 
Q 3669 2197 3669 1472 
Q 3669 763 3233 336 
Q 2797 -91 2069 -91 
Q 1278 -91 853 498 
Q 428 1088 428 2181 
Q 428 3406 931 4078 
Q 1434 4750 2350 4750 
Q 2597 4750 2869 4703 
Q 3141 4656 3425 4563 
L 3425 3794 
L 3072 3794 
Q 3034 4109 2831 4275 
Q 2628 4441 2284 4441 
Q 1678 4441 1381 3981 
Q 1084 3522 1075 2569 
z
" transform="scale(0.015625)"/>
       </defs>
       <use xlink:href="#DejaVuSerif-30"/>
       <use xlink:href="#DejaVuSerif-2e" transform="translate(63.623047 0)"/>
       <use xlink:href="#DejaVuSerif-36" transform="translate(95.410156 0)"/>
      </g>
     </g>
    </g>
    <g id="ytick_5">
     <g id="line2d_21">
      <path d="M 56.822813 128.209998 
L 756.240994 128.209998 
" clip-path="url(#p4ad048088f)" style="fill: none; stroke: #2a2a2a; stroke-width: 0.6; stroke-linecap: square"/>
     </g>
     <g id="line2d_22">
      <g>
       <use xlink:href="#m9491e79be2" x="56.822813" y="128.209998" style="fill: #8a8a8a; stroke: #8a8a8a; stroke-width: 0.7"/>
      </g>
     </g>
     <g id="text_12">
      <!-- 0.8 -->
      <g style="fill: #8a8a8a" transform="translate(35.51 131.629295) scale(0.09 -0.09)">
       <defs>
        <path id="DejaVuSerif-38" d="M 2981 1275 
Q 2981 1775 2732 2051 
Q 2484 2328 2034 2328 
Q 1584 2328 1336 2051 
Q 1088 1775 1088 1275 
Q 1088 772 1336 495 
Q 1584 219 2034 219 
Q 2484 219 2732 495 
Q 2981 772 2981 1275 
z
M 2853 3541 
Q 2853 3966 2637 4203 
Q 2422 4441 2034 4441 
Q 1650 4441 1433 4203 
Q 1216 3966 1216 3541 
Q 1216 3113 1433 2875 
Q 1650 2638 2034 2638 
Q 2422 2638 2637 2875 
Q 2853 3113 2853 3541 
z
M 2516 2484 
Q 3047 2413 3344 2092 
Q 3641 1772 3641 1275 
Q 3641 619 3225 264 
Q 2809 -91 2034 -91 
Q 1263 -91 845 264 
Q 428 619 428 1275 
Q 428 1772 725 2092 
Q 1022 2413 1556 2484 
Q 1084 2569 832 2842 
Q 581 3116 581 3541 
Q 581 4103 968 4426 
Q 1356 4750 2034 4750 
Q 2713 4750 3100 4426 
Q 3488 4103 3488 3541 
Q 3488 3116 3236 2842 
Q 2984 2569 2516 2484 
z
" transform="scale(0.015625)"/>
       </defs>
       <use xlink:href="#DejaVuSerif-30"/>
       <use xlink:href="#DejaVuSerif-2e" transform="translate(63.623047 0)"/>
       <use xlink:href="#DejaVuSerif-38" transform="translate(95.410156 0)"/>
      </g>
     </g>
    </g>
    <g id="ytick_6">
     <g id="line2d_23">
      <path d="M 56.822813 66.70135 
L 756.240994 66.70135 
" clip-path="url(#p4ad048088f)" style="fill: none; stroke: #2a2a2a; stroke-width: 0.6; stroke-linecap: square"/>
     </g>
     <g id="line2d_24">
      <g>
       <use xlink:href="#m9491e79be2" x="56.822813" y="66.70135" style="fill: #8a8a8a; stroke: #8a8a8a; stroke-width: 0.7"/>
      </g>
     </g>
     <g id="text_13">
      <!-- 1.0 -->
      <g style="fill: #8a8a8a" transform="translate(35.51 70.120647) scale(0.09 -0.09)">
       <use xlink:href="#DejaVuSerif-31"/>
       <use xlink:href="#DejaVuSerif-2e" transform="translate(63.623047 0)"/>
       <use xlink:href="#DejaVuSerif-30" transform="translate(95.410156 0)"/>
      </g>
     </g>
    </g>
    <g id="text_14">
     <!-- upper bound on $G_2$ -->
     <g style="fill: #8a8a8a" transform="translate(24.2 268.494822) rotate(-90) scale(0.11 -0.11)">
      <defs>
       <path id="DejaVuSerif-62" d="M 738 331 
L 738 4531 
L 184 4531 
L 184 4863 
L 1313 4863 
L 1313 2803 
Q 1481 3116 1742 3264 
Q 2003 3413 2388 3413 
Q 3000 3413 3387 2928 
Q 3775 2444 3775 1663 
Q 3775 881 3387 395 
Q 3000 -91 2388 -91 
Q 2003 -91 1742 57 
Q 1481 206 1313 519 
L 1313 0 
L 184 0 
L 184 331 
L 738 331 
z
M 1313 1497 
Q 1313 897 1542 583 
Q 1772 269 2209 269 
Q 2650 269 2876 622 
Q 3103 975 3103 1663 
Q 3103 2353 2876 2703 
Q 2650 3053 2209 3053 
Q 1772 3053 1542 2737 
Q 1313 2422 1313 1825 
L 1313 1497 
z
" transform="scale(0.015625)"/>
       <path id="DejaVuSerif-6e" d="M 263 0 
L 263 331 
L 781 331 
L 781 2988 
L 231 2988 
L 231 3322 
L 1356 3322 
L 1356 2731 
Q 1516 3069 1770 3241 
Q 2025 3413 2363 3413 
Q 2913 3413 3172 3097 
Q 3431 2781 3431 2113 
L 3431 331 
L 3944 331 
L 3944 0 
L 2356 0 
L 2356 331 
L 2853 331 
L 2853 1931 
Q 2853 2541 2703 2767 
Q 2553 2994 2175 2994 
Q 1775 2994 1565 2701 
Q 1356 2409 1356 1850 
L 1356 331 
L 1856 331 
L 1856 0 
L 263 0 
z
" transform="scale(0.015625)"/>
       <path id="DejaVuSerif-64" d="M 3359 331 
L 3909 331 
L 3909 0 
L 2784 0 
L 2784 519 
Q 2616 206 2355 57 
Q 2094 -91 1709 -91 
Q 1097 -91 708 395 
Q 319 881 319 1663 
Q 319 2444 706 2928 
Q 1094 3413 1709 3413 
Q 2094 3413 2355 3264 
Q 2616 3116 2784 2803 
L 2784 4531 
L 2241 4531 
L 2241 4863 
L 3359 4863 
L 3359 331 
z
M 2784 1497 
L 2784 1825 
Q 2784 2422 2554 2737 
Q 2325 3053 1888 3053 
Q 1444 3053 1217 2703 
Q 991 2353 991 1663 
Q 991 975 1217 622 
Q 1444 269 1888 269 
Q 2325 269 2554 583 
Q 2784 897 2784 1497 
z
" transform="scale(0.015625)"/>
       <path id="Cmmi10-47" d="M 934 1403 
Q 934 1006 1092 707 
Q 1250 409 1547 246 
Q 1844 84 2234 84 
Q 2616 84 2959 264 
Q 3303 444 3391 781 
L 3531 1331 
Q 3534 1350 3537 1370 
Q 3541 1391 3541 1403 
Q 3541 1469 3500 1478 
Q 3341 1522 2859 1522 
Q 2797 1522 2797 1606 
Q 2816 1684 2831 1715 
Q 2847 1747 2906 1747 
L 4556 1747 
Q 4622 1747 4622 1663 
Q 4619 1647 4609 1609 
Q 4600 1572 4584 1547 
Q 4569 1522 4538 1522 
Q 4325 1522 4226 1487 
Q 4128 1453 4091 1306 
L 3950 756 
L 3769 44 
Q 3759 0 3713 0 
Q 3659 0 3559 144 
Q 3459 288 3419 384 
Q 3197 122 2825 -9 
Q 2453 -141 2059 -141 
Q 1563 -141 1164 84 
Q 766 309 545 709 
Q 325 1109 325 1613 
Q 325 2150 564 2673 
Q 803 3197 1212 3611 
Q 1622 4025 2142 4269 
Q 2663 4513 3194 4513 
Q 3406 4513 3601 4447 
Q 3797 4381 3964 4251 
Q 4131 4122 4238 3950 
L 4744 4500 
Q 4744 4513 4775 4513 
L 4813 4513 
Q 4838 4513 4855 4492 
Q 4872 4472 4872 4447 
L 4434 2719 
Q 4434 2675 4384 2675 
L 4269 2675 
Q 4219 2675 4219 2747 
Q 4244 2888 4244 3078 
Q 4244 3394 4137 3672 
Q 4031 3950 3806 4119 
Q 3581 4288 3256 4288 
Q 2741 4288 2303 4027 
Q 1866 3766 1562 3337 
Q 1259 2909 1096 2396 
Q 934 1884 934 1403 
z
" transform="scale(0.015625)"/>
       <path id="Cmr10-32" d="M 319 0 
L 319 172 
Q 319 188 331 206 
L 1325 1306 
Q 1550 1550 1690 1715 
Q 1831 1881 1968 2097 
Q 2106 2313 2186 2536 
Q 2266 2759 2266 3009 
Q 2266 3272 2169 3511 
Q 2072 3750 1880 3894 
Q 1688 4038 1416 4038 
Q 1138 4038 916 3870 
Q 694 3703 603 3438 
Q 628 3444 672 3444 
Q 816 3444 917 3347 
Q 1019 3250 1019 3097 
Q 1019 2950 917 2848 
Q 816 2747 672 2747 
Q 522 2747 420 2851 
Q 319 2956 319 3097 
Q 319 3338 409 3548 
Q 500 3759 670 3923 
Q 841 4088 1055 4175 
Q 1269 4263 1509 4263 
Q 1875 4263 2190 4108 
Q 2506 3953 2690 3670 
Q 2875 3388 2875 3009 
Q 2875 2731 2753 2481 
Q 2631 2231 2440 2026 
Q 2250 1822 1953 1562 
Q 1656 1303 1563 1216 
L 838 519 
L 1453 519 
Q 1906 519 2211 526 
Q 2516 534 2534 550 
Q 2609 631 2688 1141 
L 2875 1141 
L 2694 0 
L 319 0 
z
" transform="scale(0.015625)"/>
      </defs>
      <use xlink:href="#DejaVuSerif-75" transform="translate(0 0.015625)"/>
      <use xlink:href="#DejaVuSerif-70" transform="translate(64.404297 0.015625)"/>
      <use xlink:href="#DejaVuSerif-70" transform="translate(128.417969 0.015625)"/>
      <use xlink:href="#DejaVuSerif-65" transform="translate(192.431641 0.015625)"/>
      <use xlink:href="#DejaVuSerif-72" transform="translate(251.611328 0.015625)"/>
      <use xlink:href="#DejaVuSerif-20" transform="translate(299.414062 0.015625)"/>
      <use xlink:href="#DejaVuSerif-62" transform="translate(331.201172 0.015625)"/>
      <use xlink:href="#DejaVuSerif-6f" transform="translate(395.214844 0.015625)"/>
      <use xlink:href="#DejaVuSerif-75" transform="translate(455.419922 0.015625)"/>
      <use xlink:href="#DejaVuSerif-6e" transform="translate(519.824219 0.015625)"/>
      <use xlink:href="#DejaVuSerif-64" transform="translate(584.228516 0.015625)"/>
      <use xlink:href="#DejaVuSerif-20" transform="translate(648.242188 0.015625)"/>
      <use xlink:href="#DejaVuSerif-6f" transform="translate(680.029297 0.015625)"/>
      <use xlink:href="#DejaVuSerif-6e" transform="translate(740.234375 0.015625)"/>
      <use xlink:href="#DejaVuSerif-20" transform="translate(804.638672 0.015625)"/>
      <use xlink:href="#Cmmi10-47" transform="translate(836.425781 0.015625)"/>
      <use xlink:href="#Cmr10-32" transform="translate(915.039062 -16.990625) scale(0.7)"/>
     </g>
    </g>
   </g>
   <g id="line2d_25">
    <path d="M 56.822813 374.244592 
L 756.240994 374.244592 
" clip-path="url(#p4ad048088f)" style="fill: none; stroke: #3a3a3a; stroke-width: 0.7; stroke-linecap: square"/>
   </g>
   <g id="patch_3">
    <path d="M 56.822813 389.621754 
L 56.822813 42.097891 
" style="fill: none; stroke: #3a3a3a; stroke-linejoin: miter; stroke-linecap: square"/>
   </g>
   <g id="patch_4">
    <path d="M 56.822813 389.621754 
L 756.240994 389.621754 
" style="fill: none; stroke: #3a3a3a; stroke-linejoin: miter; stroke-linecap: square"/>
   </g>
   <g id="patch_5">
    <path d="M 260.785552 286.515817 
Q 183.041206 253.881868 106.224666 221.637374 
" style="fill: none; stroke: #8a8a8a; stroke-width: 0.9; stroke-linecap: round"/>
    <path d="M 108.847407 224.690443 
L 106.224666 221.637374 
L 110.240766 221.371023 
" style="fill: none; stroke: #8a8a8a; stroke-width: 0.9; stroke-linecap: round"/>
   </g>
   <g id="text_15">
    <!-- butterfly $(K{=}2,r{=}4)$ -->
    <g style="fill: #d0d0d0" transform="translate(243.334328 296.128766) scale(0.09 -0.09)">
     <defs>
      <path id="DejaVuSerif-66" d="M 2753 4078 
L 2450 4078 
Q 2447 4313 2317 4434 
Q 2188 4556 1941 4556 
Q 1619 4556 1487 4379 
Q 1356 4203 1356 3750 
L 1356 3322 
L 2284 3322 
L 2284 2988 
L 1356 2988 
L 1356 331 
L 2094 331 
L 2094 0 
L 231 0 
L 231 331 
L 781 331 
L 781 2988 
L 231 2988 
L 231 3322 
L 781 3322 
L 781 3738 
Q 781 4294 1070 4578 
Q 1359 4863 1919 4863 
Q 2128 4863 2337 4825 
Q 2547 4788 2753 4709 
L 2753 4078 
z
" transform="scale(0.015625)"/>
      <path id="DejaVuSerif-6c" d="M 1313 331 
L 1856 331 
L 1856 0 
L 184 0 
L 184 331 
L 738 331 
L 738 4531 
L 184 4531 
L 184 4863 
L 1313 4863 
L 1313 331 
z
" transform="scale(0.015625)"/>
      <path id="DejaVuSerif-79" d="M 1381 -609 
L 1600 -56 
L 359 2988 
L -19 2988 
L -19 3322 
L 1509 3322 
L 1509 2988 
L 978 2988 
L 1913 703 
L 2847 2988 
L 2350 2988 
L 2350 3322 
L 3597 3322 
L 3597 2988 
L 3225 2988 
L 1703 -750 
Q 1547 -1138 1356 -1280 
Q 1166 -1422 819 -1422 
Q 672 -1422 517 -1397 
Q 363 -1372 206 -1325 
L 206 -691 
L 500 -691 
Q 519 -903 608 -995 
Q 697 -1088 884 -1088 
Q 1056 -1088 1161 -992 
Q 1266 -897 1381 -609 
z
" transform="scale(0.015625)"/>
      <path id="Cmr10-28" d="M 1984 -1588 
Q 1628 -1306 1370 -942 
Q 1113 -578 948 -165 
Q 784 247 703 697 
Q 622 1147 622 1600 
Q 622 2059 703 2509 
Q 784 2959 951 3375 
Q 1119 3791 1378 4153 
Q 1638 4516 1984 4788 
Q 1984 4800 2016 4800 
L 2075 4800 
Q 2094 4800 2109 4783 
Q 2125 4766 2125 4744 
Q 2125 4716 2113 4703 
Q 1800 4397 1592 4047 
Q 1384 3697 1257 3301 
Q 1131 2906 1075 2482 
Q 1019 2059 1019 1600 
Q 1019 -434 2106 -1491 
Q 2125 -1509 2125 -1544 
Q 2125 -1559 2108 -1579 
Q 2091 -1600 2075 -1600 
L 2016 -1600 
Q 1984 -1600 1984 -1588 
z
" transform="scale(0.015625)"/>
      <path id="Cmmi10-4b" d="M 300 0 
Q 238 0 238 84 
Q 241 100 250 139 
Q 259 178 276 201 
Q 294 225 319 225 
Q 709 225 863 269 
Q 947 297 984 441 
L 1863 3956 
Q 1875 4019 1875 4044 
Q 1875 4113 1797 4122 
Q 1678 4147 1338 4147 
Q 1275 4147 1275 4231 
Q 1297 4313 1309 4342 
Q 1322 4372 1381 4372 
L 3103 4372 
Q 3169 4372 3169 4288 
Q 3166 4272 3156 4234 
Q 3147 4197 3131 4172 
Q 3116 4147 3084 4147 
Q 2694 4147 2541 4103 
Q 2456 4072 2419 3928 
L 1900 1856 
L 4409 3794 
Q 4416 3806 4489 3879 
Q 4563 3953 4563 4025 
Q 4563 4147 4347 4147 
Q 4281 4147 4281 4231 
Q 4294 4281 4301 4309 
Q 4309 4338 4329 4355 
Q 4350 4372 4391 4372 
L 5631 4372 
Q 5666 4372 5681 4347 
Q 5697 4322 5697 4288 
Q 5694 4272 5683 4231 
Q 5672 4191 5655 4169 
Q 5638 4147 5606 4147 
Q 5138 4147 4581 3713 
Q 4578 3709 4572 3707 
Q 4566 3706 4559 3704 
Q 4553 3703 4550 3700 
L 3231 2675 
L 4191 428 
Q 4278 288 4378 256 
Q 4478 225 4684 225 
Q 4750 225 4750 141 
Q 4731 66 4712 33 
Q 4694 0 4641 0 
L 3156 0 
Q 3097 0 3097 84 
Q 3106 150 3118 187 
Q 3131 225 3181 225 
Q 3344 225 3458 258 
Q 3572 291 3572 409 
Q 3572 453 3566 475 
L 2772 2322 
L 1838 1600 
L 1544 416 
Q 1528 338 1528 325 
Q 1528 259 1606 250 
Q 1728 225 2069 225 
Q 2131 225 2131 141 
Q 2109 50 2096 25 
Q 2084 0 2022 0 
L 300 0 
z
" transform="scale(0.015625)"/>
      <path id="Cmr10-3d" d="M 481 850 
Q 428 850 393 890 
Q 359 931 359 978 
Q 359 1031 393 1068 
Q 428 1106 481 1106 
L 4500 1106 
Q 4547 1106 4581 1068 
Q 4616 1031 4616 978 
Q 4616 931 4581 890 
Q 4547 850 4500 850 
L 481 850 
z
M 481 2094 
Q 428 2094 393 2131 
Q 359 2169 359 2222 
Q 359 2269 393 2309 
Q 428 2350 481 2350 
L 4500 2350 
Q 4547 2350 4581 2309 
Q 4616 2269 4616 2222 
Q 4616 2169 4581 2131 
Q 4547 2094 4500 2094 
L 481 2094 
z
" transform="scale(0.015625)"/>
      <path id="Cmmi10-3b" d="M 634 -1153 
Q 634 -1125 659 -1100 
Q 891 -878 1019 -587 
Q 1147 -297 1147 25 
L 1147 103 
Q 1044 0 891 0 
Q 744 0 641 103 
Q 538 206 538 353 
Q 538 503 641 603 
Q 744 703 891 703 
Q 1119 703 1216 492 
Q 1313 281 1313 25 
Q 1313 -331 1170 -651 
Q 1028 -972 769 -1228 
Q 744 -1241 728 -1241 
Q 697 -1241 665 -1212 
Q 634 -1184 634 -1153 
z
" transform="scale(0.015625)"/>
      <path id="Cmr10-34" d="M 178 1056 
L 178 1281 
L 2156 4231 
Q 2178 4263 2222 4263 
L 2316 4263 
Q 2388 4263 2388 4191 
L 2388 1281 
L 3016 1281 
L 3016 1056 
L 2388 1056 
L 2388 428 
Q 2388 297 2575 261 
Q 2763 225 3009 225 
L 3009 0 
L 1247 0 
L 1247 225 
Q 1494 225 1681 261 
Q 1869 297 1869 428 
L 1869 1056 
L 178 1056 
z
M 391 1281 
L 1906 1281 
L 1906 3547 
L 391 1281 
z
" transform="scale(0.015625)"/>
      <path id="Cmr10-29" d="M 416 -1600 
Q 359 -1600 359 -1544 
Q 359 -1516 372 -1503 
Q 1466 -434 1466 1600 
Q 1466 3634 384 4691 
Q 359 4706 359 4744 
Q 359 4766 376 4783 
Q 394 4800 416 4800 
L 475 4800 
Q 494 4800 506 4788 
Q 966 4425 1272 3906 
Q 1578 3388 1720 2800 
Q 1863 2213 1863 1600 
Q 1863 1147 1786 708 
Q 1709 269 1542 -157 
Q 1375 -584 1119 -945 
Q 863 -1306 506 -1588 
Q 494 -1600 475 -1600 
L 416 -1600 
z
" transform="scale(0.015625)"/>
     </defs>
     <use xlink:href="#DejaVuSerif-62" transform="translate(0 0.015625)"/>
     <use xlink:href="#DejaVuSerif-75" transform="translate(64.013672 0.015625)"/>
     <use xlink:href="#DejaVuSerif-74" transform="translate(128.417969 0.015625)"/>
     <use xlink:href="#DejaVuSerif-74" transform="translate(168.603516 0.015625)"/>
     <use xlink:href="#DejaVuSerif-65" transform="translate(208.789062 0.015625)"/>
     <use xlink:href="#DejaVuSerif-72" transform="translate(267.96875 0.015625)"/>
     <use xlink:href="#DejaVuSerif-66" transform="translate(315.771484 0.015625)"/>
     <use xlink:href="#DejaVuSerif-6c" transform="translate(352.783203 0.015625)"/>
     <use xlink:href="#DejaVuSerif-79" transform="translate(384.765625 0.015625)"/>
     <use xlink:href="#DejaVuSerif-20" transform="translate(441.259766 0.015625)"/>
     <use xlink:href="#Cmr10-28" transform="translate(473.046875 0.015625)"/>
     <use xlink:href="#Cmmi10-4b" transform="translate(511.865234 0.015625)"/>
     <use xlink:href="#Cmr10-3d" transform="translate(614.335938 0.015625)"/>
     <use xlink:href="#Cmr10-32" transform="translate(709.580078 0.015625)"/>
     <use xlink:href="#Cmmi10-3b" transform="translate(759.580078 0.015625)"/>
     <use xlink:href="#Cmmi10-72" transform="translate(804.824219 0.015625)"/>
     <use xlink:href="#Cmr10-3d" transform="translate(867.5 0.015625)"/>
     <use xlink:href="#Cmr10-34" transform="translate(962.744141 0.015625)"/>
     <use xlink:href="#Cmr10-29" transform="translate(1012.744141 0.015625)"/>
    </g>
    <!-- $G=1/2$ exact -->
    <g style="fill: #d0d0d0" transform="translate(243.334328 306.585079) scale(0.09 -0.09)">
     <defs>
      <path id="Cmr10-31" d="M 594 0 
L 594 225 
Q 1394 225 1394 428 
L 1394 3788 
Q 1063 3628 556 3628 
L 556 3853 
Q 1341 3853 1741 4263 
L 1831 4263 
Q 1853 4263 1873 4245 
Q 1894 4228 1894 4206 
L 1894 428 
Q 1894 225 2694 225 
L 2694 0 
L 594 0 
z
" transform="scale(0.015625)"/>
      <path id="Cmmi10-3d" d="M 359 -1472 
Q 359 -1453 366 -1447 
L 2591 4722 
Q 2603 4759 2634 4779 
Q 2666 4800 2706 4800 
Q 2763 4800 2798 4765 
Q 2834 4731 2834 4672 
L 2834 4647 
L 609 -1522 
Q 572 -1600 488 -1600 
Q 434 -1600 396 -1562 
Q 359 -1525 359 -1472 
z
" transform="scale(0.015625)"/>
      <path id="DejaVuSerif-78" d="M 1863 2028 
L 2559 2988 
L 2113 2988 
L 2113 3322 
L 3391 3322 
L 3391 2988 
L 2950 2988 
L 2059 1759 
L 3097 331 
L 3531 331 
L 3531 0 
L 1997 0 
L 1997 331 
L 2419 331 
L 1697 1325 
L 972 331 
L 1403 331 
L 1403 0 
L 141 0 
L 141 331 
L 581 331 
L 1497 1594 
L 488 2988 
L 78 2988 
L 78 3322 
L 1563 3322 
L 1563 2988 
L 1166 2988 
L 1863 2028 
z
" transform="scale(0.015625)"/>
     </defs>
     <use xlink:href="#Cmmi10-47"/>
     <use xlink:href="#Cmr10-3d" transform="translate(96.171875 0)"/>
     <use xlink:href="#Cmr10-31" transform="translate(191.416016 0)"/>
     <use xlink:href="#Cmmi10-3d" transform="translate(241.416016 0)"/>
     <use xlink:href="#Cmr10-32" transform="translate(291.416016 0)"/>
     <use xlink:href="#DejaVuSerif-20" transform="translate(341.416016 0)"/>
     <use xlink:href="#DejaVuSerif-65" transform="translate(373.203125 0)"/>
     <use xlink:href="#DejaVuSerif-78" transform="translate(432.382812 0)"/>
     <use xlink:href="#DejaVuSerif-61" transform="translate(488.779297 0)"/>
     <use xlink:href="#DejaVuSerif-63" transform="translate(548.398438 0)"/>
     <use xlink:href="#DejaVuSerif-74" transform="translate(604.404297 0)"/>
    </g>
   </g>
   <g id="text_16">
    <!-- Support-constrained gap envelope (partial) -->
    <g style="fill: #f2f2f2" transform="translate(258.506513 26.097891) scale(0.135 -0.135)">
     <defs>
      <path id="DejaVuSerif-53" d="M 594 225 
L 594 1288 
L 953 1284 
Q 969 753 1261 498 
Q 1553 244 2150 244 
Q 2706 244 2998 464 
Q 3291 684 3291 1106 
Q 3291 1444 3114 1625 
Q 2938 1806 2369 1978 
L 1753 2163 
Q 1084 2366 811 2669 
Q 538 2972 538 3500 
Q 538 4094 959 4422 
Q 1381 4750 2144 4750 
Q 2469 4750 2856 4679 
Q 3244 4609 3681 4475 
L 3681 3481 
L 3328 3481 
Q 3275 3975 2998 4195 
Q 2722 4416 2156 4416 
Q 1663 4416 1405 4214 
Q 1147 4013 1147 3628 
Q 1147 3294 1340 3103 
Q 1534 2913 2163 2725 
L 2741 2553 
Q 3375 2363 3645 2067 
Q 3916 1772 3916 1275 
Q 3916 597 3481 253 
Q 3047 -91 2188 -91 
Q 1803 -91 1404 -12 
Q 1006 66 594 225 
z
" transform="scale(0.015625)"/>
      <path id="DejaVuSerif-2d" d="M 281 1959 
L 1881 1959 
L 1881 1472 
L 281 1472 
L 281 1959 
z
" transform="scale(0.015625)"/>
      <path id="DejaVuSerif-67" d="M 3359 2988 
L 3359 72 
Q 3359 -644 2965 -1033 
Q 2572 -1422 1844 -1422 
Q 1516 -1422 1216 -1362 
Q 916 -1303 641 -1184 
L 641 -488 
L 941 -488 
Q 997 -813 1206 -963 
Q 1416 -1113 1806 -1113 
Q 2313 -1113 2548 -827 
Q 2784 -541 2784 72 
L 2784 519 
Q 2616 206 2355 57 
Q 2094 -91 1709 -91 
Q 1097 -91 708 395 
Q 319 881 319 1663 
Q 319 2444 706 2928 
Q 1094 3413 1709 3413 
Q 2094 3413 2355 3264 
Q 2616 3116 2784 2803 
L 2784 3322 
L 3909 3322 
L 3909 2988 
L 3359 2988 
z
M 2784 1825 
Q 2784 2422 2554 2737 
Q 2325 3053 1888 3053 
Q 1444 3053 1217 2703 
Q 991 2353 991 1663 
Q 991 975 1217 622 
Q 1444 269 1888 269 
Q 2325 269 2554 583 
Q 2784 897 2784 1497 
L 2784 1825 
z
" transform="scale(0.015625)"/>
      <path id="DejaVuSerif-28" d="M 2041 -997 
Q 1281 -656 893 83 
Q 506 822 506 1931 
Q 506 3044 893 3783 
Q 1281 4522 2041 4863 
L 2041 4556 
Q 1559 4225 1350 3623 
Q 1141 3022 1141 1931 
Q 1141 844 1350 242 
Q 1559 -359 2041 -691 
L 2041 -997 
z
" transform="scale(0.015625)"/>
      <path id="DejaVuSerif-29" d="M 453 -997 
L 453 -691 
Q 934 -359 1145 242 
Q 1356 844 1356 1931 
Q 1356 3022 1145 3623 
Q 934 4225 453 4556 
L 453 4863 
Q 1216 4522 1603 3783 
Q 1991 3044 1991 1931 
Q 1991 822 1603 83 
Q 1216 -656 453 -997 
z
" transform="scale(0.015625)"/>
     </defs>
     <use xlink:href="#DejaVuSerif-53"/>
     <use xlink:href="#DejaVuSerif-75" transform="translate(68.505859 0)"/>
     <use xlink:href="#DejaVuSerif-70" transform="translate(132.910156 0)"/>
     <use xlink:href="#DejaVuSerif-70" transform="translate(196.923828 0)"/>
     <use xlink:href="#DejaVuSerif-6f" transform="translate(260.9375 0)"/>
     <use xlink:href="#DejaVuSerif-72" transform="translate(321.142578 0)"/>
     <use xlink:href="#DejaVuSerif-74" transform="translate(368.945312 0)"/>
     <use xlink:href="#DejaVuSerif-2d" transform="translate(409.130859 0)"/>
     <use xlink:href="#DejaVuSerif-63" transform="translate(442.919922 0)"/>
     <use xlink:href="#DejaVuSerif-6f" transform="translate(498.925781 0)"/>
     <use xlink:href="#DejaVuSerif-6e" transform="translate(559.130859 0)"/>
     <use xlink:href="#DejaVuSerif-73" transform="translate(623.535156 0)"/>
     <use xlink:href="#DejaVuSerif-74" transform="translate(674.853516 0)"/>
     <use xlink:href="#DejaVuSerif-72" transform="translate(715.039062 0)"/>
     <use xlink:href="#DejaVuSerif-61" transform="translate(762.841797 0)"/>
     <use xlink:href="#DejaVuSerif-69" transform="translate(822.460938 0)"/>
     <use xlink:href="#DejaVuSerif-6e" transform="translate(854.443359 0)"/>
     <use xlink:href="#DejaVuSerif-65" transform="translate(918.847656 0)"/>
     <use xlink:href="#DejaVuSerif-64" transform="translate(978.027344 0)"/>
     <use xlink:href="#DejaVuSerif-20" transform="translate(1042.041016 0)"/>
     <use xlink:href="#DejaVuSerif-67" transform="translate(1073.828125 0)"/>
     <use xlink:href="#DejaVuSerif-61" transform="translate(1137.841797 0)"/>
     <use xlink:href="#DejaVuSerif-70" transform="translate(1197.460938 0)"/>
     <use xlink:href="#DejaVuSerif-20" transform="translate(1261.474609 0)"/>
     <use xlink:href="#DejaVuSerif-65" transform="translate(1293.261719 0)"/>
     <use xlink:href="#DejaVuSerif-6e" transform="translate(1352.441406 0)"/>
     <use xlink:href="#DejaVuSerif-76" transform="translate(1416.845703 0)"/>
     <use xlink:href="#DejaVuSerif-65" transform="translate(1473.339844 0)"/>
     <use xlink:href="#DejaVuSerif-6c" transform="translate(1532.519531 0)"/>
     <use xlink:href="#DejaVuSerif-6f" transform="translate(1564.501953 0)"/>
     <use xlink:href="#DejaVuSerif-70" transform="translate(1624.707031 0)"/>
     <use xlink:href="#DejaVuSerif-65" transform="translate(1688.720703 0)"/>
     <use xlink:href="#DejaVuSerif-20" transform="translate(1747.900391 0)"/>
     <use xlink:href="#DejaVuSerif-28" transform="translate(1779.6875 0)"/>
     <use xlink:href="#DejaVuSerif-70" transform="translate(1818.701172 0)"/>
     <use xlink:href="#DejaVuSerif-61" transform="translate(1882.714844 0)"/>
     <use xlink:href="#DejaVuSerif-72" transform="translate(1942.333984 0)"/>
     <use xlink:href="#DejaVuSerif-74" transform="translate(1990.136719 0)"/>
     <use xlink:href="#DejaVuSerif-69" transform="translate(2030.322266 0)"/>
     <use xlink:href="#DejaVuSerif-61" transform="translate(2062.304688 0)"/>
     <use xlink:href="#DejaVuSerif-6c" transform="translate(2121.923828 0)"/>
     <use xlink:href="#DejaVuSerif-29" transform="translate(2153.90625 0)"/>
    </g>
   </g>
   <g id="line2d_26">
    <path d="M 56.822813 374.244592 
L 80.136752 374.244592 
L 103.450691 220.472971 
L 126.764631 220.472971 
L 150.07857 220.472971 
L 173.392509 220.472971 
L 196.706449 220.472971 
L 220.020388 220.472971 
L 243.334328 220.472971 
L 266.648267 220.472971 
L 289.962206 220.472971 
L 313.276146 220.472971 
L 336.590085 220.472971 
L 359.904025 220.472971 
L 383.217964 220.472971 
L 406.531903 220.472971 
L 429.845843 220.472971 
L 453.159782 220.472971 
L 476.473722 220.472971 
L 499.787661 220.472971 
L 523.1016 220.472971 
L 546.41554 220.472971 
L 569.729479 220.472971 
L 593.043419 220.472971 
L 616.357358 220.472971 
L 639.671297 220.472971 
L 662.985237 220.472971 
L 686.299176 220.472971 
L 709.613116 220.472971 
L 732.927055 220.472971 
L 756.240994 220.472971 
" clip-path="url(#p4ad048088f)" style="fill: none; stroke: #f2f2f2; stroke-width: 2; stroke-linecap: square"/>
   </g>
   <g id="line2d_27">
    <path d="M 56.822813 374.244592 
L 80.136752 374.244592 
L 103.450691 220.472971 
L 126.764631 220.472971 
L 150.07857 169.215764 
L 173.392509 169.215764 
L 196.706449 169.215764 
L 220.020388 169.215764 
L 243.334328 169.215764 
L 266.648267 169.215764 
L 289.962206 169.215764 
L 313.276146 169.215764 
L 336.590085 169.215764 
L 359.904025 169.215764 
L 383.217964 169.215764 
L 406.531903 169.215764 
L 429.845843 169.215764 
L 453.159782 169.215764 
L 476.473722 169.215764 
L 499.787661 169.215764 
L 523.1016 169.215764 
L 546.41554 169.215764 
L 569.729479 169.215764 
L 593.043419 169.215764 
L 616.357358 169.215764 
L 639.671297 169.215764 
L 662.985237 169.215764 
L 686.299176 169.215764 
L 709.613116 169.215764 
L 732.927055 169.215764 
L 756.240994 169.215764 
" clip-path="url(#p4ad048088f)" style="fill: none; stroke: #cfb991; stroke-width: 2; stroke-linecap: square"/>
   </g>
   <g id="line2d_28">
    <path d="M 56.822813 374.244592 
L 80.136752 374.244592 
L 103.450691 220.472971 
L 126.764631 220.472971 
L 150.07857 169.215764 
L 173.392509 169.215764 
L 196.706449 143.587161 
L 220.020388 143.587161 
L 243.334328 143.587161 
L 266.648267 143.587161 
L 289.962206 143.587161 
L 313.276146 143.587161 
L 336.590085 143.587161 
L 359.904025 143.587161 
L 383.217964 143.587161 
L 406.531903 143.587161 
L 429.845843 143.587161 
L 453.159782 143.587161 
L 476.473722 143.587161 
L 499.787661 143.587161 
L 523.1016 143.587161 
L 546.41554 143.587161 
L 569.729479 143.587161 
L 593.043419 143.587161 
L 616.357358 143.587161 
L 639.671297 143.587161 
L 662.985237 143.587161 
L 686.299176 143.587161 
L 709.613116 143.587161 
L 732.927055 143.587161 
L 756.240994 143.587161 
" clip-path="url(#p4ad048088f)" style="fill: none; stroke-dasharray: 5.55,2.4; stroke-dashoffset: 0; stroke: #d0d0d0; stroke-width: 1.5"/>
   </g>
   <g id="line2d_29">
    <path d="M 56.822813 374.244592 
L 80.136752 374.244592 
L 103.450691 220.472971 
L 126.764631 220.472971 
L 150.07857 169.215764 
L 173.392509 169.215764 
L 196.706449 143.587161 
L 220.020388 143.587161 
L 243.334328 128.209998 
L 266.648267 128.209998 
L 289.962206 117.958557 
L 313.276146 117.958557 
L 336.590085 110.636099 
L 359.904025 110.636099 
L 383.217964 105.144255 
L 406.531903 105.144255 
L 429.845843 105.144255 
L 453.159782 105.144255 
L 476.473722 105.144255 
L 499.787661 105.144255 
L 523.1016 105.144255 
L 546.41554 105.144255 
L 569.729479 105.144255 
L 593.043419 105.144255 
L 616.357358 105.144255 
L 639.671297 105.144255 
L 662.985237 105.144255 
L 686.299176 105.144255 
L 709.613116 105.144255 
L 732.927055 105.144255 
L 756.240994 105.144255 
" clip-path="url(#p4ad048088f)" style="fill: none; stroke-dasharray: 1.5,2.475; stroke-dashoffset: 0; stroke: #8a8a8a; stroke-width: 1.5"/>
   </g>
   <g id="legend_1">
    <g id="patch_6">
     <path d="M 616.020994 385.121754 
L 751.740994 385.121754 
L 751.740994 325.001754 
L 616.020994 325.001754 
z
" style="fill: #0a0a0a; stroke: #3a3a3a; stroke-linejoin: miter"/>
    </g>
    <g id="line2d_30">
     <path d="M 621.870994 334.541754 
L 630.870994 334.541754 
L 639.870994 334.541754 
" style="fill: none; stroke: #f2f2f2; stroke-width: 2; stroke-linecap: square"/>
    </g>
    <g id="text_17">
     <!-- $K=2$ envelope sketch -->
     <g style="fill: #d0d0d0" transform="translate(647.070994 337.691754) scale(0.09 -0.09)">
      <defs>
       <path id="DejaVuSerif-6b" d="M 1831 0 
L 219 0 
L 219 331 
L 738 331 
L 738 4531 
L 184 4531 
L 184 4863 
L 1313 4863 
L 1313 1697 
L 2713 2988 
L 2234 2988 
L 2234 3322 
L 3738 3322 
L 3738 2988 
L 3169 2988 
L 2181 2075 
L 3444 331 
L 3922 331 
L 3922 0 
L 2284 0 
L 2284 331 
L 2759 331 
L 1766 1697 
L 1313 1275 
L 1313 331 
L 1831 331 
L 1831 0 
z
" transform="scale(0.015625)"/>
       <path id="DejaVuSerif-68" d="M 263 0 
L 263 331 
L 781 331 
L 781 4531 
L 231 4531 
L 231 4863 
L 1356 4863 
L 1356 2731 
Q 1516 3069 1770 3241 
Q 2025 3413 2363 3413 
Q 2913 3413 3172 3097 
Q 3431 2781 3431 2113 
L 3431 331 
L 3944 331 
L 3944 0 
L 2356 0 
L 2356 331 
L 2853 331 
L 2853 1931 
Q 2853 2541 2704 2764 
Q 2556 2988 2175 2988 
Q 1775 2988 1565 2697 
Q 1356 2406 1356 1850 
L 1356 331 
L 1856 331 
L 1856 0 
L 263 0 
z
" transform="scale(0.015625)"/>
      </defs>
      <use xlink:href="#Cmmi10-4b" transform="translate(0 0.015625)"/>
      <use xlink:href="#Cmr10-3d" transform="translate(102.470703 0.015625)"/>
      <use xlink:href="#Cmr10-32" transform="translate(197.714844 0.015625)"/>
      <use xlink:href="#DejaVuSerif-20" transform="translate(247.714844 0.015625)"/>
      <use xlink:href="#DejaVuSerif-65" transform="translate(279.501953 0.015625)"/>
      <use xlink:href="#DejaVuSerif-6e" transform="translate(338.681641 0.015625)"/>
      <use xlink:href="#DejaVuSerif-76" transform="translate(403.085938 0.015625)"/>
      <use xlink:href="#DejaVuSerif-65" transform="translate(459.580078 0.015625)"/>
      <use xlink:href="#DejaVuSerif-6c" transform="translate(518.759766 0.015625)"/>
      <use xlink:href="#DejaVuSerif-6f" transform="translate(550.742188 0.015625)"/>
      <use xlink:href="#DejaVuSerif-70" transform="translate(610.947266 0.015625)"/>
      <use xlink:href="#DejaVuSerif-65" transform="translate(674.960938 0.015625)"/>
      <use xlink:href="#DejaVuSerif-20" transform="translate(734.140625 0.015625)"/>
      <use xlink:href="#DejaVuSerif-73" transform="translate(765.927734 0.015625)"/>
      <use xlink:href="#DejaVuSerif-6b" transform="translate(817.246094 0.015625)"/>
      <use xlink:href="#DejaVuSerif-65" transform="translate(877.841797 0.015625)"/>
      <use xlink:href="#DejaVuSerif-74" transform="translate(937.021484 0.015625)"/>
      <use xlink:href="#DejaVuSerif-63" transform="translate(977.207031 0.015625)"/>
      <use xlink:href="#DejaVuSerif-68" transform="translate(1033.212891 0.015625)"/>
     </g>
    </g>
    <g id="line2d_31">
     <path d="M 621.870994 347.771754 
L 630.870994 347.771754 
L 639.870994 347.771754 
" style="fill: none; stroke: #cfb991; stroke-width: 2; stroke-linecap: square"/>
    </g>
    <g id="text_18">
     <!-- $K=3$ envelope sketch -->
     <g style="fill: #d0d0d0" transform="translate(647.070994 350.921754) scale(0.09 -0.09)">
      <defs>
       <path id="Cmr10-33" d="M 609 494 
Q 759 275 1012 169 
Q 1266 63 1556 63 
Q 1928 63 2084 380 
Q 2241 697 2241 1100 
Q 2241 1281 2208 1462 
Q 2175 1644 2097 1800 
Q 2019 1956 1883 2050 
Q 1747 2144 1550 2144 
L 1125 2144 
Q 1069 2144 1069 2203 
L 1069 2259 
Q 1069 2309 1125 2309 
L 1478 2338 
Q 1703 2338 1851 2506 
Q 2000 2675 2069 2917 
Q 2138 3159 2138 3378 
Q 2138 3684 1994 3881 
Q 1850 4078 1556 4078 
Q 1313 4078 1091 3986 
Q 869 3894 738 3706 
Q 750 3709 759 3711 
Q 769 3713 781 3713 
Q 925 3713 1022 3613 
Q 1119 3513 1119 3372 
Q 1119 3234 1022 3134 
Q 925 3034 781 3034 
Q 641 3034 541 3134 
Q 441 3234 441 3372 
Q 441 3647 606 3850 
Q 772 4053 1033 4158 
Q 1294 4263 1556 4263 
Q 1750 4263 1965 4205 
Q 2181 4147 2356 4039 
Q 2531 3931 2642 3762 
Q 2753 3594 2753 3378 
Q 2753 3109 2633 2881 
Q 2513 2653 2303 2487 
Q 2094 2322 1844 2241 
Q 2122 2188 2372 2031 
Q 2622 1875 2773 1631 
Q 2925 1388 2925 1106 
Q 2925 753 2731 467 
Q 2538 181 2222 20 
Q 1906 -141 1556 -141 
Q 1256 -141 954 -26 
Q 653 88 461 316 
Q 269 544 269 863 
Q 269 1022 375 1128 
Q 481 1234 641 1234 
Q 744 1234 830 1186 
Q 916 1138 964 1050 
Q 1013 963 1013 863 
Q 1013 706 903 600 
Q 794 494 641 494 
L 609 494 
z
" transform="scale(0.015625)"/>
      </defs>
      <use xlink:href="#Cmmi10-4b" transform="translate(0 0.015625)"/>
      <use xlink:href="#Cmr10-3d" transform="translate(102.470703 0.015625)"/>
      <use xlink:href="#Cmr10-33" transform="translate(197.714844 0.015625)"/>
      <use xlink:href="#DejaVuSerif-20" transform="translate(247.714844 0.015625)"/>
      <use xlink:href="#DejaVuSerif-65" transform="translate(279.501953 0.015625)"/>
      <use xlink:href="#DejaVuSerif-6e" transform="translate(338.681641 0.015625)"/>
      <use xlink:href="#DejaVuSerif-76" transform="translate(403.085938 0.015625)"/>
      <use xlink:href="#DejaVuSerif-65" transform="translate(459.580078 0.015625)"/>
      <use xlink:href="#DejaVuSerif-6c" transform="translate(518.759766 0.015625)"/>
      <use xlink:href="#DejaVuSerif-6f" transform="translate(550.742188 0.015625)"/>
      <use xlink:href="#DejaVuSerif-70" transform="translate(610.947266 0.015625)"/>
      <use xlink:href="#DejaVuSerif-65" transform="translate(674.960938 0.015625)"/>
      <use xlink:href="#DejaVuSerif-20" transform="translate(734.140625 0.015625)"/>
      <use xlink:href="#DejaVuSerif-73" transform="translate(765.927734 0.015625)"/>
      <use xlink:href="#DejaVuSerif-6b" transform="translate(817.246094 0.015625)"/>
      <use xlink:href="#DejaVuSerif-65" transform="translate(877.841797 0.015625)"/>
      <use xlink:href="#DejaVuSerif-74" transform="translate(937.021484 0.015625)"/>
      <use xlink:href="#DejaVuSerif-63" transform="translate(977.207031 0.015625)"/>
      <use xlink:href="#DejaVuSerif-68" transform="translate(1033.212891 0.015625)"/>
     </g>
    </g>
    <g id="line2d_32">
     <path d="M 621.870994 361.001754 
L 630.870994 361.001754 
L 639.870994 361.001754 
" style="fill: none; stroke-dasharray: 5.55,2.4; stroke-dashoffset: 0; stroke: #d0d0d0; stroke-width: 1.5"/>
    </g>
    <g id="text_19">
     <!-- $K=4$ envelope sketch -->
     <g style="fill: #d0d0d0" transform="translate(647.070994 364.151754) scale(0.09 -0.09)">
      <use xlink:href="#Cmmi10-4b" transform="translate(0 0.015625)"/>
      <use xlink:href="#Cmr10-3d" transform="translate(102.470703 0.015625)"/>
      <use xlink:href="#Cmr10-34" transform="translate(197.714844 0.015625)"/>
      <use xlink:href="#DejaVuSerif-20" transform="translate(247.714844 0.015625)"/>
      <use xlink:href="#DejaVuSerif-65" transform="translate(279.501953 0.015625)"/>
      <use xlink:href="#DejaVuSerif-6e" transform="translate(338.681641 0.015625)"/>
      <use xlink:href="#DejaVuSerif-76" transform="translate(403.085938 0.015625)"/>
      <use xlink:href="#DejaVuSerif-65" transform="translate(459.580078 0.015625)"/>
      <use xlink:href="#DejaVuSerif-6c" transform="translate(518.759766 0.015625)"/>
      <use xlink:href="#DejaVuSerif-6f" transform="translate(550.742188 0.015625)"/>
      <use xlink:href="#DejaVuSerif-70" transform="translate(610.947266 0.015625)"/>
      <use xlink:href="#DejaVuSerif-65" transform="translate(674.960938 0.015625)"/>
      <use xlink:href="#DejaVuSerif-20" transform="translate(734.140625 0.015625)"/>
      <use xlink:href="#DejaVuSerif-73" transform="translate(765.927734 0.015625)"/>
      <use xlink:href="#DejaVuSerif-6b" transform="translate(817.246094 0.015625)"/>
      <use xlink:href="#DejaVuSerif-65" transform="translate(877.841797 0.015625)"/>
      <use xlink:href="#DejaVuSerif-74" transform="translate(937.021484 0.015625)"/>
      <use xlink:href="#DejaVuSerif-63" transform="translate(977.207031 0.015625)"/>
      <use xlink:href="#DejaVuSerif-68" transform="translate(1033.212891 0.015625)"/>
     </g>
    </g>
    <g id="line2d_33">
     <path d="M 621.870994 374.231754 
L 630.870994 374.231754 
L 639.870994 374.231754 
" style="fill: none; stroke-dasharray: 1.5,2.475; stroke-dashoffset: 0; stroke: #8a8a8a; stroke-width: 1.5"/>
    </g>
    <g id="text_20">
     <!-- $K=8$ envelope sketch -->
     <g style="fill: #d0d0d0" transform="translate(647.070994 377.381754) scale(0.09 -0.09)">
      <defs>
       <path id="Cmr10-38" d="M 269 972 
Q 269 1356 522 1651 
Q 775 1947 1172 2144 
L 934 2297 
Q 716 2441 578 2680 
Q 441 2919 441 3181 
Q 441 3488 602 3734 
Q 763 3981 1030 4122 
Q 1297 4263 1600 4263 
Q 1884 4263 2148 4147 
Q 2413 4031 2583 3815 
Q 2753 3600 2753 3303 
Q 2753 3088 2651 2903 
Q 2550 2719 2373 2572 
Q 2197 2425 1997 2322 
L 2363 2088 
Q 2616 1922 2770 1653 
Q 2925 1384 2925 1088 
Q 2925 741 2739 456 
Q 2553 172 2247 15 
Q 1941 -141 1600 -141 
Q 1269 -141 961 -6 
Q 653 128 461 383 
Q 269 638 269 972 
z
M 616 972 
Q 616 719 755 509 
Q 894 300 1122 181 
Q 1350 63 1600 63 
Q 1972 63 2275 280 
Q 2578 497 2578 856 
Q 2578 978 2529 1098 
Q 2481 1219 2395 1317 
Q 2309 1416 2203 1478 
L 1344 2034 
Q 1144 1928 976 1765 
Q 809 1603 712 1400 
Q 616 1197 616 972 
z
M 1056 2925 
L 1831 2425 
Q 2100 2581 2272 2803 
Q 2444 3025 2444 3303 
Q 2444 3519 2323 3698 
Q 2203 3878 2009 3978 
Q 1816 4078 1594 4078 
Q 1400 4078 1203 4003 
Q 1006 3928 878 3779 
Q 750 3631 750 3431 
Q 750 3131 1056 2925 
z
" transform="scale(0.015625)"/>
      </defs>
      <use xlink:href="#Cmmi10-4b" transform="translate(0 0.015625)"/>
      <use xlink:href="#Cmr10-3d" transform="translate(102.470703 0.015625)"/>
      <use xlink:href="#Cmr10-38" transform="translate(197.714844 0.015625)"/>
      <use xlink:href="#DejaVuSerif-20" transform="translate(247.714844 0.015625)"/>
      <use xlink:href="#DejaVuSerif-65" transform="translate(279.501953 0.015625)"/>
      <use xlink:href="#DejaVuSerif-6e" transform="translate(338.681641 0.015625)"/>
      <use xlink:href="#DejaVuSerif-76" transform="translate(403.085938 0.015625)"/>
      <use xlink:href="#DejaVuSerif-65" transform="translate(459.580078 0.015625)"/>
      <use xlink:href="#DejaVuSerif-6c" transform="translate(518.759766 0.015625)"/>
      <use xlink:href="#DejaVuSerif-6f" transform="translate(550.742188 0.015625)"/>
      <use xlink:href="#DejaVuSerif-70" transform="translate(610.947266 0.015625)"/>
      <use xlink:href="#DejaVuSerif-65" transform="translate(674.960938 0.015625)"/>
      <use xlink:href="#DejaVuSerif-20" transform="translate(734.140625 0.015625)"/>
      <use xlink:href="#DejaVuSerif-73" transform="translate(765.927734 0.015625)"/>
      <use xlink:href="#DejaVuSerif-6b" transform="translate(817.246094 0.015625)"/>
      <use xlink:href="#DejaVuSerif-65" transform="translate(877.841797 0.015625)"/>
      <use xlink:href="#DejaVuSerif-74" transform="translate(937.021484 0.015625)"/>
      <use xlink:href="#DejaVuSerif-63" transform="translate(977.207031 0.015625)"/>
      <use xlink:href="#DejaVuSerif-68" transform="translate(1033.212891 0.015625)"/>
     </g>
    </g>
   </g>
   <g id="PathCollection_1">
    <defs>
     <path id="m3b2b7b2590" d="M 0 4.1833 
C 1.109424 4.1833 2.173559 3.742521 2.95804 2.95804 
C 3.742521 2.173559 4.1833 1.109424 4.1833 0 
C 4.1833 -1.109424 3.742521 -2.173559 2.95804 -2.95804 
C 2.173559 -3.742521 1.109424 -4.1833 0 -4.1833 
C -1.109424 -4.1833 -2.173559 -3.742521 -2.95804 -2.95804 
C -3.742521 -2.173559 -4.1833 -1.109424 -4.1833 0 
C -4.1833 1.109424 -3.742521 2.173559 -2.95804 2.95804 
C -2.173559 3.742521 -1.109424 4.1833 0 4.1833 
z
" style="stroke: #000000; stroke-width: 0.8"/>
    </defs>
    <g clip-path="url(#p4ad048088f)">
     <use xlink:href="#m3b2b7b2590" x="103.450691" y="220.472971" style="fill: #cfb991; stroke: #000000; stroke-width: 0.8"/>
    </g>
   </g>
   <g id="text_21">
    <g id="patch_7">
     <path d="M 425.570843 159.064161 
L 522.95178 159.064161 
L 522.95178 130.68202 
L 425.570843 130.68202 
z
" style="stroke: #d0d0d0; stroke-width: 0.9; stroke-linejoin: miter"/>
    </g>
    <!-- exact G₂(K,r) open -->
    <g style="fill: #f2f2f2" transform="translate(429.845843 142.175536) scale(0.095 -0.095)">
     <defs>
      <path id="DejaVuSerif-47" d="M 4097 3272 
Q 3988 3856 3641 4136 
Q 3294 4416 2675 4416 
Q 1869 4416 1472 3897 
Q 1075 3378 1075 2328 
Q 1075 1300 1484 772 
Q 1894 244 2688 244 
Q 3041 244 3362 331 
Q 3684 419 3975 594 
L 3975 1797 
L 3097 1797 
L 3097 2131 
L 4609 2131 
L 4609 391 
Q 4194 150 3714 29 
Q 3234 -91 2688 -91 
Q 1631 -91 995 570 
Q 359 1231 359 2328 
Q 359 3434 996 4092 
Q 1634 4750 2713 4750 
Q 3113 4750 3539 4658 
Q 3966 4566 4447 4378 
L 4447 3272 
L 4097 3272 
z
" transform="scale(0.015625)"/>
      <path id="DejaVuSerif-2082" d="M 531 1938 
L 313 1938 
L 313 2432 
Q 519 2532 737 2585 
Q 956 2638 1172 2638 
Q 1603 2638 1870 2432 
Q 2138 2226 2138 1901 
Q 2138 1519 1531 976 
L 1472 922 
L 728 251 
L 1931 251 
L 1931 588 
L 2163 588 
L 2163 -24 
L 281 -24 
L 281 210 
L 1172 1004 
Q 1441 1244 1556 1435 
Q 1672 1626 1672 1832 
Q 1672 2097 1520 2252 
Q 1369 2407 1106 2407 
Q 863 2407 716 2288 
Q 569 2169 531 1938 
z
" transform="scale(0.015625)"/>
      <path id="DejaVuSerif-4b" d="M 353 0 
L 353 331 
L 947 331 
L 947 4331 
L 353 4331 
L 353 4666 
L 2175 4666 
L 2175 4331 
L 1581 4331 
L 1581 2566 
L 3591 4331 
L 3084 4331 
L 3084 4666 
L 4634 4666 
L 4634 4331 
L 4109 4331 
L 2106 2572 
L 4347 331 
L 4878 331 
L 4878 0 
L 3794 0 
L 1581 2216 
L 1581 331 
L 2175 331 
L 2175 0 
L 353 0 
z
" transform="scale(0.015625)"/>
      <path id="DejaVuSerif-2c" d="M 231 -622 
Q 525 -406 662 -114 
Q 800 178 800 594 
L 800 709 
L 1416 709 
Q 1391 175 1164 -208 
Q 938 -591 481 -872 
L 231 -622 
z
" transform="scale(0.015625)"/>
     </defs>
     <use xlink:href="#DejaVuSerif-65"/>
     <use xlink:href="#DejaVuSerif-78" transform="translate(59.179688 0)"/>
     <use xlink:href="#DejaVuSerif-61" transform="translate(115.576172 0)"/>
     <use xlink:href="#DejaVuSerif-63" transform="translate(175.195312 0)"/>
     <use xlink:href="#DejaVuSerif-74" transform="translate(231.201172 0)"/>
     <use xlink:href="#DejaVuSerif-20" transform="translate(271.386719 0)"/>
     <use xlink:href="#DejaVuSerif-47" transform="translate(303.173828 0)"/>
     <use xlink:href="#DejaVuSerif-2082" transform="translate(383.056641 0)"/>
     <use xlink:href="#DejaVuSerif-28" transform="translate(423.144531 0)"/>
     <use xlink:href="#DejaVuSerif-4b" transform="translate(462.158203 0)"/>
     <use xlink:href="#DejaVuSerif-2c" transform="translate(536.865234 0)"/>
     <use xlink:href="#DejaVuSerif-72" transform="translate(568.652344 0)"/>
     <use xlink:href="#DejaVuSerif-29" transform="translate(616.455078 0)"/>
     <use xlink:href="#DejaVuSerif-20" transform="translate(655.46875 0)"/>
     <use xlink:href="#DejaVuSerif-6f" transform="translate(687.255859 0)"/>
     <use xlink:href="#DejaVuSerif-70" transform="translate(747.460938 0)"/>
     <use xlink:href="#DejaVuSerif-65" transform="translate(811.474609 0)"/>
     <use xlink:href="#DejaVuSerif-6e" transform="translate(870.654297 0)"/>
    </g>
    <!-- for most (K,r) -->
    <g style="fill: #f2f2f2" transform="translate(429.845843 152.813458) scale(0.095 -0.095)">
     <defs>
      <path id="DejaVuSerif-6d" d="M 3316 2675 
Q 3481 3041 3739 3227 
Q 3997 3413 4341 3413 
Q 4863 3413 5119 3089 
Q 5375 2766 5375 2113 
L 5375 331 
L 5894 331 
L 5894 0 
L 4300 0 
L 4300 331 
L 4800 331 
L 4800 2047 
Q 4800 2556 4650 2772 
Q 4500 2988 4153 2988 
Q 3769 2988 3567 2697 
Q 3366 2406 3366 1850 
L 3366 331 
L 3866 331 
L 3866 0 
L 2291 0 
L 2291 331 
L 2791 331 
L 2791 2069 
Q 2791 2566 2641 2777 
Q 2491 2988 2144 2988 
Q 1759 2988 1557 2697 
Q 1356 2406 1356 1850 
L 1356 331 
L 1856 331 
L 1856 0 
L 263 0 
L 263 331 
L 781 331 
L 781 2994 
L 231 2994 
L 231 3322 
L 1356 3322 
L 1356 2731 
Q 1516 3063 1762 3238 
Q 2009 3413 2322 3413 
Q 2709 3413 2968 3220 
Q 3228 3028 3316 2675 
z
" transform="scale(0.015625)"/>
     </defs>
     <use xlink:href="#DejaVuSerif-66"/>
     <use xlink:href="#DejaVuSerif-6f" transform="translate(37.011719 0)"/>
     <use xlink:href="#DejaVuSerif-72" transform="translate(97.216797 0)"/>
     <use xlink:href="#DejaVuSerif-20" transform="translate(145.019531 0)"/>
     <use xlink:href="#DejaVuSerif-6d" transform="translate(176.806641 0)"/>
     <use xlink:href="#DejaVuSerif-6f" transform="translate(271.630859 0)"/>
     <use xlink:href="#DejaVuSerif-73" transform="translate(331.835938 0)"/>
     <use xlink:href="#DejaVuSerif-74" transform="translate(383.154297 0)"/>
     <use xlink:href="#DejaVuSerif-20" transform="translate(423.339844 0)"/>
     <use xlink:href="#DejaVuSerif-28" transform="translate(455.126953 0)"/>
     <use xlink:href="#DejaVuSerif-4b" transform="translate(494.140625 0)"/>
     <use xlink:href="#DejaVuSerif-2c" transform="translate(568.847656 0)"/>
     <use xlink:href="#DejaVuSerif-72" transform="translate(600.634766 0)"/>
     <use xlink:href="#DejaVuSerif-29" transform="translate(648.4375 0)"/>
    </g>
   </g>
  </g>
 </g>
 <defs>
  <clipPath id="p4ad048088f">
   <rect x="56.822813" y="42.097891" width="699.418182" height="347.523864"/>
  </clipPath>
 </defs>
</svg>
